<?xml version="1.0" encoding="utf-8"?>
<!-- Generator: Adobe Illustrator 24.3.0, SVG Export Plug-In . SVG Version: 6.00 Build 0)  -->
<svg version="1.1" id="Layer_1" xmlns="http://www.w3.org/2000/svg" xmlns:xlink="http://www.w3.org/1999/xlink" x="0px" y="0px"
	 viewBox="0 0 2388.3 1672.2" style="enable-background:new 0 0 2388.3 1672.2;" xml:space="preserve">
<style type="text/css">
	.st0{fill:#DEE5FF;}
	.st1{fill:#C5C3ED;}
	.st2{fill:#7F7BB5;}
	.st3{fill:#9C9BC7;}
	.st4{fill:#FF5C97;}
	.st5{fill:url(#SVGID_1_);}
	.st6{fill:#F03C7D;}
	.st7{fill:#7399FF;}
	.st8{fill:url(#SVGID_2_);}
	.st9{fill:#5986FF;}
	.st10{fill:none;stroke:#C7D0FC;stroke-width:5.93;stroke-miterlimit:10;}
	.st11{fill:url(#SVGID_3_);}
	.st12{fill:#A8B2E5;}
	.st13{fill:#ABCFFF;}
	.st14{fill:none;stroke:#3A4157;stroke-width:6.17;stroke-linecap:round;stroke-linejoin:round;}
	.st15{fill:#7096FF;}
	.st16{fill:url(#SVGID_4_);}
	.st17{fill:none;stroke:#FFFFFF;stroke-width:7.14;stroke-linecap:round;stroke-linejoin:round;}
	.st18{fill:#ED91A9;}
	.st19{fill:#8D89C9;}
	.st20{opacity:0.21;fill:#8288D4;enable-background:new    ;}
	.st21{fill:#27427A;}
	.st22{fill:#FFFCFA;}
	.st23{fill:#BA4141;}
	.st24{fill:#ADABD0;}
	.st25{fill:#FFFFFF;}
	.st26{fill:#596FFF;}
	.st27{opacity:0.4;fill:#637A94;enable-background:new    ;}
	.st28{fill:#24307D;}
	.st29{fill:#2F40A6;}
	.st30{fill:#223A6B;}
	.st31{fill:#4E62E0;}
	.st32{fill:url(#SVGID_5_);}
	.st33{fill:#3C5CB3;}
	.st34{fill:#DB2E6D;}
	.st35{fill:#89B1E8;}
	.st36{fill:#4367C7;}
	.st37{fill:#2C4482;}
	.st38{fill:none;stroke:#FFFFFF;stroke-width:2.67;stroke-linecap:round;stroke-linejoin:round;}
	.st39{fill:none;stroke:#A8B2E5;stroke-width:5.93;stroke-linecap:round;stroke-linejoin:round;}
</style>
<g>
	<g id="image">
		<polygon class="st0" points="146.1,1569.5 381,1528.2 802.2,1341.9 582,1272.7 356.3,1366 		"/>
		<polygon class="st1" points="493,958 627.2,901.2 493.4,844.8 359.1,901.4 		"/>
		<polygon class="st2" points="492.9,1413 627.2,1356.4 627.2,901.2 492.9,958 		"/>
		<polygon class="st3" points="493.4,1413 356.3,1356.4 356.3,901.4 493.4,958 		"/>
		<polygon class="st4" points="313.6,907.5 449.5,851 314.5,794.5 180.2,851.1 		"/>
		
			<linearGradient id="SVGID_1_" gradientUnits="userSpaceOnUse" x1="398.0734" y1="487.1436" x2="300.5934" y2="580.1636" gradientTransform="matrix(1 0 0 -1 0 1672)">
			<stop  offset="0.11" style="stop-color:#E02F70"/>
			<stop  offset="1" style="stop-color:#CF2577"/>
		</linearGradient>
		<polygon class="st5" points="448.3,851 448.3,1221.7 448.3,1429.9 314.1,1486.5 313.6,905.8 		"/>
		<polygon class="st6" points="313.6,907.5 313.7,1486.5 178.9,1429.9 180.2,851.1 		"/>
		<polygon class="st7" points="145.7,1292 279.9,1235.3 146.1,1178.9 11.8,1235.4 		"/>
		
			<linearGradient id="SVGID_2_" gradientUnits="userSpaceOnUse" x1="240.5984" y1="240.0485" x2="148.4884" y2="337.7585" gradientTransform="matrix(1 0 0 -1 0 1672)">
			<stop  offset="0.14" style="stop-color:#4C71D9"/>
			<stop  offset="0.79" style="stop-color:#4C5BD9"/>
		</linearGradient>
		<polygon class="st8" points="145.6,1569.5 279.9,1512.9 279.9,1235.3 145.6,1292 		"/>
		<polygon class="st9" points="146.1,1569.5 9,1512.9 9,1235.4 146.1,1292 		"/>
		<line class="st10" x1="2385.3" y1="341.6" x2="2121.1" y2="257.2"/>
		<polygon class="st10" points="1590.2,370.5 1326.1,286.1 1328.5,4.1 1592.7,88.4 		"/>
		<polygon class="st10" points="1854.4,454.9 1590.2,370.5 1592.7,88.4 1856.9,172.9 		"/>
		<polygon class="st10" points="2382.8,623.7 2118.6,539.3 2121.1,257.2 2385.3,341.6 		"/>
		<line class="st10" x1="1326.1" y1="286.1" x2="1323.6" y2="568.2"/>
		<polygon class="st10" points="1852,737 1587.8,652.6 1590.2,370.5 1854.4,454.9 		"/>
		<polygon class="st10" points="2116.2,821.4 1852,737 1854.4,454.9 2118.6,539.3 		"/>
		<polygon class="st10" points="2380.4,905.8 2116.2,821.4 2118.6,539.3 2382.8,623.7 		"/>
		<line class="st10" x1="1323.6" y1="568.2" x2="1321.2" y2="850.2"/>
		<polygon class="st10" points="1585.3,934.6 1321.2,850.2 1323.6,568.2 1587.8,652.6 		"/>
		<polygon class="st10" points="1849.6,1019 1585.3,934.6 1587.8,652.6 1852,737 		"/>
		<polygon class="st10" points="2113.7,1103.4 1849.6,1019 1852,737 2116.2,821.4 		"/>
		<polygon class="st10" points="2377.9,1187.8 2113.7,1103.4 2116.2,821.4 2380.4,905.8 		"/>
		<line class="st10" x1="2121.1" y1="257.2" x2="1856.9" y2="172.9"/>
		
			<linearGradient id="SVGID_3_" gradientUnits="userSpaceOnUse" x1="1720.1042" y1="-104.2901" x2="1745.7142" y2="1037.2999" gradientTransform="matrix(1 0 0 -1 0 1672)">
			<stop  offset="1.000000e-02" style="stop-color:#EDF5FF"/>
			<stop  offset="0.37" style="stop-color:#E9F1FE"/>
			<stop  offset="0.73" style="stop-color:#DDE5FC"/>
			<stop  offset="1" style="stop-color:#CFD7FA"/>
		</linearGradient>
		<path class="st11" d="M1168.2,746c0,0,63.1-97.8,178.9-62.7c88.6,26.8,41.9,34.8,148.2,43.2c62.7,5,160.3-131.8,314.9-96.3
			c279.8,64.1,378.2-223.2,499.5-107.1l-1.7,677.8l-1140.2-353L1168.2,746z"/>
		<path class="st12" d="M1167.9,855.6c-1.6,0.5-3.3-0.4-3.7-2c-0.1-0.4-0.1-0.7-0.1-1.1l1.7-677.1c0.1-2.3,1.6-4.3,3.9-4.9
			c1.6-0.5,3.3,0.4,3.7,2c0.1,0.4,0.1,0.7,0.1,1.1l-1.7,677.1C1171.7,853.1,1170.1,855,1167.9,855.6z"/>
		<path class="st12" d="M1451.9,935.8c-1.6,0.5-3.3-0.4-3.7-2c-0.1-0.4-0.1-0.7-0.1-1.1l1.7-677.1c0.1-2.3,1.6-4.3,3.9-4.9
			c1.6-0.5,3.3,0.4,3.7,2c0.1,0.4,0.1,0.7,0.1,1.1l-1.7,677.1C1455.7,933.2,1454.1,935.2,1451.9,935.8z"/>
		<path class="st12" d="M1735.9,1024.4c-1.6,0.5-3.3-0.4-3.7-2c-0.1-0.4-0.1-0.7-0.1-1.1l1.7-677.1c0.1-2.3,1.7-4.3,3.9-4.9
			c1.6-0.5,3.3,0.4,3.7,2c0.1,0.4,0.1,0.7,0.1,1.1l-1.7,677.1C1739.7,1021.8,1738.1,1023.8,1735.9,1024.4z"/>
		<path class="st12" d="M2019.8,1112.9c-1.6,0.5-3.3-0.4-3.7-2c-0.1-0.4-0.1-0.7-0.1-1.1l1.7-677.1c0.1-2.3,1.6-4.3,3.9-4.9
			c1.6-0.5,3.3,0.4,3.7,2c0.1,0.4,0.1,0.7,0.1,1.1l-1.7,677.1C2023.7,1110.3,2022.1,1112.3,2019.8,1112.9z"/>
		<path class="st12" d="M2308.1,1201.5c-1.6,0.5-3.3-0.4-3.7-2c-0.1-0.4-0.1-0.7-0.1-1.1l1.7-677.1c0.1-2.3,1.6-4.3,3.9-4.9
			c1.6-0.5,3.3,0.4,3.7,2c0.1,0.4,0.1,0.7,0.1,1.1l-1.7,677.1C2311.9,1199,2310.3,1201,2308.1,1201.5z"/>
		<path class="st12" d="M2302.4,464.8l-37.4-13.9c-4.1-1.5-7.5-7.5-7.5-13.2l0,0c0-5.7,3.4-9.2,7.6-7.6l37.4,13.9
			c4.1,1.5,7.5,7.5,7.5,13.2l0,0C2309.9,462.9,2306.5,466.4,2302.4,464.8z"/>
		<path class="st12" d="M2014.1,387.6l-37.4-13.9c-4.1-1.5-7.5-7.5-7.5-13.2l0,0c0-5.7,3.4-9.2,7.6-7.6l37.4,13.9
			c4.1,1.5,7.5,7.5,7.5,13.2l0,0C2021.7,385.7,2018.3,389.1,2014.1,387.6z"/>
		<path class="st12" d="M1732.2,310.5l-37.4-13.9c-4.2-1.5-7.5-7.5-7.5-13.2l0,0c0-5.7,3.4-9.2,7.6-7.6l37.4,13.9
			c4.1,1.5,7.5,7.5,7.5,13.2l0,0C1739.8,308.6,1736.4,312,1732.2,310.5z"/>
		<path class="st12" d="M1446.3,230.7l-37.4-13.9c-4.2-1.5-7.5-7.5-7.5-13.2l0,0c0-5.7,3.4-9.2,7.6-7.6l37.4,13.9
			c4.1,1.5,7.5,7.5,7.5,13.2l0,0C1453.8,228.8,1450.4,232.2,1446.3,230.7z"/>
		<path class="st12" d="M1164.6,148l-37.4-13.9c-4.2-1.5-7.5-7.5-7.5-13.2l0,0c0-5.7,3.4-9.2,7.6-7.6l37.4,13.9
			c4.1,1.5,7.5,7.5,7.5,13.2l0,0C1172.1,146.1,1168.7,149.5,1164.6,148z"/>
		<path class="st13" d="M2297.3,1243.5l-37.4-13.9c-0.1,0-0.2,0-0.4-0.1l-27.8-10.3c-4.1-1.5-7.6,1.9-7.6,7.6s3.4,11.7,7.5,13.2
			l37.4,13.9c0.1,0,0.2,0,0.4,0.1l27.8,10.3c4.1,1.5,7.5-1.9,7.6-7.6S2301.4,1245,2297.3,1243.5z"/>
		<path class="st13" d="M2006.2,1139.9l-37.4-13.9c-0.1,0-0.2,0-0.3-0.1l-27.8-10.3c-4.1-1.5-7.5,1.9-7.6,7.6s3.4,11.7,7.5,13.2
			l37.4,13.9c0.1,0,0.2,0,0.3,0.1l27.8,10.3c4.1,1.5,7.5-1.9,7.6-7.6S2010.4,1141.4,2006.2,1139.9z"/>
		<path class="st13" d="M1128.4,860.5l-37.4-13.9c-0.1,0-0.2,0-0.3-0.1l-27.8-10.3c-4.1-1.5-7.5,1.9-7.6,7.6s3.4,11.7,7.5,13.2
			l37.4,13.9c0.1,0,0.2,0,0.3,0.1l27.8,10.3c4.1,1.5,7.6-1.9,7.6-7.6S1132.6,862.1,1128.4,860.5z"/>
		<path class="st14" d="M1422.2,862.5l-314.1-101.6c-13.7-4.4-24.9-20.9-24.9-36.7v-181c0-15.7,11.2-25,24.9-20.5l314.1,101.6
			c13.7,4.4,24.9,20.9,24.9,36.7v181C1447.2,857.8,1435.9,867,1422.2,862.5z"/>
		<polygon class="st15" points="1146.8,745.6 1101.3,730.9 1101.3,669.8 1146.8,684.5 		"/>
		<polygon class="st15" points="1212.3,766.9 1166.9,752.1 1166.9,654.6 1212.3,669.3 		"/>
		<polygon class="st15" points="1277.9,788.1 1232.4,773.4 1232.4,645.7 1277.9,660.4 		"/>
		<polygon class="st15" points="1343.5,809.3 1298,794.6 1298,654.5 1343.5,669.2 		"/>
		<polygon class="st15" points="1409.1,830.5 1363.6,815.8 1363.6,642.8 1409.1,657.5 		"/>
		
			<linearGradient id="SVGID_4_" gradientUnits="userSpaceOnUse" x1="1151.3807" y1="1346.3909" x2="1508.5107" y2="1037.0908" gradientTransform="matrix(1 0 0 -1 0 1672)">
			<stop  offset="0.12" style="stop-color:#5986FF"/>
			<stop  offset="0.54" style="stop-color:#4C71D9"/>
		</linearGradient>
		<path class="st16" d="M1279.6,523.3l-151.2-52.1c-27.7-9.5-50.4-40.1-50.4-67.8V252.1c0-27.8,22.7-42.6,50.4-33.1l151.2,52.1
			c27.8,9.5,50.4,40.1,50.4,67.8v151.2C1330,517.9,1307.3,532.8,1279.6,523.3z"/>
		<polyline class="st17" points="1151.2,353.1 1182.3,428.8 1253.7,320.1 		"/>
		<path class="st14" d="M1617.7,665.3c50-29,111.6-53.1,190.7-36.5c253.6,53.1,332.3-143.1,460.2-133.2"/>
		<path class="st14" d="M2230.2,485.6c19.3,3.5,40.7,10.5,38.4,9.9l-26.4,20.8"/>
		<path class="st0" d="M1744.6,1476.4c138.3-64.8,137.6-170.1-1.6-235.3l-65.3,30.6c-136.2-37.1-313.1-28.6-429.1,25.7
			c-138.3,64.8-137.6,170.1,1.6,235.3s364.2,65.5,502.5,0.7l-252-118l56.9-26.7L1744.6,1476.4z"/>
		<path class="st18" d="M806.6,930.7l-75.8,92.1c-8.6,10.5-11.1,24.7-6.6,37.5l45.3,127.9l29.1-26.7v-115.1L806.6,930.7z"/>
		<path class="st19" d="M811.6,923.6l-76.5,84.1c-5.2,5.7-6.1,14.2-2.3,20.9c12.5,21.7,41.2,64.1,63.7,40.2
			C826,1037.3,811.6,923.6,811.6,923.6z"/>
		<ellipse class="st20" cx="870.3" cy="1631.1" rx="108.7" ry="39.4"/>
		<path class="st21" d="M792.3,1579.3l24.6,2.9c16.2-5.6,23.7-11.2,31.3-3.2l2.2,2.3c3.5,5.8,2.6,16-2.8,20.4l-39.8,33.5
			c-8.3,4.4-24,1.1-26.9-11c0,0-2.8-34,1-35.8C789.5,1584.7,785.6,1582.8,792.3,1579.3z"/>
		<path class="st22" d="M816.1,1600.4c-0.2,13-31.8,12.6-31.7-0.4l0.5-42.3l31.7,0.4L816.1,1600.4z"/>
		<path class="st21" d="M827.1,1561.8c-12,14.8-39.4,14.5-44.6,4.5c0.6-58.9-15.2-121.7,13.4-202.7l-9.8-245.8l109.7,21.9
			l-42.5,259.5L827.1,1561.8z"/>
		<path class="st21" d="M896.9,1619.6l31.9,5.3c23.4-3.2,35.1-7.3,42.7,0.7l2.2,2.3c2.8,5.6-1.6,14.6-10.2,17.9l-63.6,25.4
			c-12.4,3-25.5-1.3-25.5-12.4c0,0,0.1-31.1,5.7-32.3C891.5,1624.1,887,1622,896.9,1619.6z"/>
		<path class="st22" d="M913.5,1634.8c-0.2,13-31.8,12.6-31.7-0.4l0.5-42.3l31.7,0.4L913.5,1634.8z"/>
		<path class="st21" d="M920.7,1597c-11.1,15-38.5,14.7-44.4,4.6c-3.4-59.8-23.6-123.6-0.5-205.8l-26.8-249.6l111.5,22.3
			l-24.8,263.5L920.7,1597z"/>
		<path class="st18" d="M930.5,868.9c0.1,25.6-22.8,41.5-42.2,30.4s-35.2-40.9-35.2-66.6s15.6-37.4,35-26.3S930.4,843.2,930.5,868.9
			z"/>
		<path class="st18" d="M871.5,949.6l-2.6-0.6c-8.9-2.1-14.5-10.9-12.5-19.9l11.4-50.3c2-8.9,10.9-14.5,19.9-12.5l2.6,0.6
			c8.9,2.1,14.5,10.9,12.5,19.9l-3.8,49.9C897,945.6,880.5,951.6,871.5,949.6z"/>
		<path class="st21" d="M843.7,894.1c0,0,5.3,17.1,36.7,12.6c23.7-3.4,5.4-43.6,26.8-54.3c29-14.5,16.5-42.9,3.2-51.9
			s-29.6-3.1-49.8,4.3C839.4,812.6,810.6,830.2,843.7,894.1z"/>
		<path class="st18" d="M906.1,865.8c0,6.2-5,11.3-11.3,11.3c-6.2,0-11.3-5-11.3-11.3c0-6.2,5-11.3,11.3-11.3c0,0,0,0,0,0
			C901.1,854.5,906.1,859.5,906.1,865.8z"/>
		<path class="st23" d="M900.3,904.5l-4.3-5.2c0,0,5.9,3.2,14.3-0.4C907.5,901.7,904,903.6,900.3,904.5z"/>
		<path class="st21" d="M899.2,873.4L899.2,873.4c-2.1,0.3-4-1.1-4.3-3.1l-7.4-23.7c-0.3-2,5-1,7.1-1.3l0,0c2-0.3,7.8-2.4,8.2-0.3
			l-0.5,24.2C902.6,871.1,901.2,873,899.2,873.4z"/>
		<path class="st18" d="M917.5,893.2l2.4-2.6c6.4-7,17.3-7.4,24.2-1l12,11.1c7,6.4,7.4,17.3,1,24.2l-2.4,2.6c-6.4,7-17.3,7.4-24.2,1
			l-12-11.1C911.5,911,911.1,900.2,917.5,893.2z"/>
		<path class="st18" d="M961.6,914.7c0,0,51.4,89.2,49.8,142c-0.9,31.8-40.6,11.3-40.6,11.3l-35.7-135.8L961.6,914.7z"/>
		<path class="st24" d="M898.5,1011.4l55.7,80.3c11.8,27,89.1,1.8,59.8-48.3c-1.1-1.9-61.1-91.7-61.1-91.7S900.1,971.8,898.5,1011.4
			z"/>
		<path class="st24" d="M790.1,1003.6l-21,211.4c0,0,10.8,22.7,76.9,29.9s124-8.8,124-8.8l3.7-196.9l-20.8-87.6
			c0,0,3.3-2.8-47.9-22.8l-59.8-14.6c0,0-32.5-0.3-38.5,16.5S790.1,1003.6,790.1,1003.6z"/>
		<path class="st25" d="M845.1,914.2c0,0-5.1,15.2,12.9,20.3s46.9-5.7,46.9-5.7S884.8,909,845.1,914.2z"/>
		<path class="st19" d="M970,1236.1l1.3-139.2l-50.6-53.4l-3.9,201.6C916.9,1245,957.6,1248.5,970,1236.1z"/>
		<path class="st21" d="M2014.7,890.7c0,0-9.5,102.8,46.1,96.3c55.5-6.5,43.1-81.8,43.1-81.8L2014.7,890.7z"/>
		<polygon class="st26" points="1974.9,935.9 2024.6,968 2062.1,975.5 2048.5,1010.2 2014,999.2 1964.8,958.8 		"/>
		<path class="st18" d="M1938.7,918.8L1938.7,918.8c5.7-6.8,15.8-7.6,22.6-2l8.8,7.4c6.8,5.7,7.7,15.8,2,22.6l0,0
			c-5.7,6.8-15.8,7.6-22.6,2l-8.8-7.4C1933.9,935.6,1933,925.5,1938.7,918.8z"/>
		<path class="st27" d="M1899.7,647.8c25.2,118.6-53.3,187.2-138.2,189.8s-160.6-78-169.2-180.2s53.3-187.2,138.2-189.8
			S1878.4,547.5,1899.7,647.8z"/>
		<polygon class="st28" points="1927.5,928.7 1896.7,970.2 1824,828.5 1861.4,799.9 		"/>
		<path class="st29" d="M2042.7,1081L2042.7,1081l-90-167.8l0,0c-2.4-7.2-10.7-11.2-23.5-10.2c-22.3,1.7-49.9,18.1-61.6,36.5
			c-6.1,9.5-6.6,17.8-2.7,23.2l0,0l21,39.3l0,0l89.3,166.9l88.6-48.6L2042.7,1081z"/>
		
			<ellipse transform="matrix(0.8645 -0.5026 0.5026 0.8645 -303.755 1164.6296)" class="st28" cx="2008.3" cy="1145.7" rx="49.9" ry="18.4"/>
		<path class="st28" d="M1799.6,476.6c-84.9-45.5-174.1-1.6-199.1,98.1s23.4,217.3,108.3,262.8s174.1,1.6,199.1-98
			S1884.5,522.1,1799.6,476.6z M1897.8,729.2c-21.3,84.6-110,119.7-182.2,81s-113.3-138.5-92-223.2s103.3-133.5,175.4-94.9
			S1919.1,644.6,1897.8,729.2z"/>
		<path class="st28" d="M1950.2,679.5c0.2-2.2,0.3-4.4,0.4-6.5c0-0.4,0-0.8,0-1.2c0-1,0-2.1,0.1-3.1c0-1.3,0.1-2.5,0.1-3.8
			c0-0.7,0-1.4,0-2.1c0-1.1,0-2.3,0-3.4c0-0.9,0-1.7,0-2.6c0-1-0.1-2.1-0.2-3.1s-0.1-2.3-0.2-3.4c0-0.6,0-1.1-0.1-1.7
			c-0.1-1.5-0.2-3-0.3-4.5c-0.1-1-0.2-1.9-0.2-2.9l-0.1-0.8c-0.3-2.7-0.6-5.3-0.9-8c-0.5-4,0-0.1,0-0.1c0-0.2-0.1-0.5-0.1-0.7
			c-0.3-2.3-0.6-4.7-1-7c-0.1-0.4-0.1-0.7-0.2-1.1c-0.1-0.9-0.3-1.8-0.5-2.7c-0.2-1.3-0.4-2.5-0.7-3.8c-0.2-0.8-0.3-1.6-0.5-2.4
			c-0.2-1-0.4-2-0.6-2.9c-0.2-0.7-0.3-1.4-0.4-2.1c-0.3-1.4-0.7-2.8-1-4.2c-0.2-0.8-0.3-1.5-0.5-2.3c-0.1-0.3-0.1-0.5-0.2-0.8
			c-0.6-2.5-1.3-4.9-2-7.4c0-0.1-0.1-0.2-0.1-0.3c-0.2-0.7-0.4-1.4-0.6-2.1c-0.6-1.9-1.1-3.8-1.7-5.7c-0.1-0.3-0.2-0.6-0.3-0.9
			c-0.5-1.5-1-3.1-1.6-4.6c-0.4-1.2-0.8-2.5-1.3-3.7c-0.1-0.2-0.2-0.4-0.3-0.7c-1.4-4-3-7.9-4.6-11.7c-0.1-0.3-0.2-0.7-0.4-1
			c-0.4-1-0.9-1.9-1.3-2.9c-0.7-1.6-1.4-3.2-2.1-4.7c-0.6-1.4-1.3-2.8-2-4.1c-0.8-1.5-1.5-3.1-2.3-4.6c-0.3-0.5-0.5-1-0.8-1.5
			c-0.6-1.2-1.3-2.4-1.9-3.6c-0.4-0.8-0.9-1.6-1.3-2.5c-1.4-2.5-2.9-5.1-4.3-7.5c0,0,0,0,0-0.1l0,0v-0.1c-1.7-2.8-3.5-5.6-5.3-8.4
			l-0.2-0.4c-1.3-2-2.7-4-4.1-5.9c-0.3-0.4-0.5-0.8-0.8-1.2c0,0,0,0,0-0.1c-1.7-2.3-3.3-4.6-5-6.8l-0.3-0.3c-0.5-0.7-1.1-1.3-1.6-2
			c-1.1-1.4-2.2-2.8-3.3-4.1l-0.6-0.7c-0.8-0.9-1.6-1.8-2.3-2.7s-1.7-2-2.6-3c-0.3-0.4-0.7-0.7-1-1c-0.8-0.9-1.7-1.9-2.6-2.8
			s-1.5-1.6-2.2-2.4c-0.4-0.4-0.9-0.9-1.3-1.3c-0.9-1-1.9-1.9-2.9-2.8c-0.7-0.6-1.3-1.3-2-2s-1.1-1-1.6-1.5c-1-0.9-2-1.8-2.9-2.6
			c-0.6-0.5-1.2-1.1-1.8-1.6s-1.3-1.1-2-1.6c-1-0.8-2-1.6-2.9-2.4c-0.5-0.4-1-0.9-1.5-1.3c-0.8-0.7-1.7-1.3-2.5-1.9
			s-1.8-1.4-2.8-2.1c-0.4-0.3-0.7-0.6-1.1-0.9c-1.1-0.8-2.3-1.6-3.5-2.4c-0.8-0.5-1.6-1.1-2.4-1.7c-0.2-0.1-0.4-0.3-0.6-0.4
			c-2.1-1.4-4.2-2.8-6.4-4.1h-0.1c-0.2-0.1-0.3-0.2-0.5-0.3c-2-1.2-3.9-2.3-5.9-3.4l-1.5-0.8c-1.6-0.9-3.3-1.7-4.9-2.5
			c-0.6-0.3-1.2-0.6-1.9-0.9c-0.8-0.4-1.7-0.8-2.6-1.2c-0.7-0.3-1.3-0.6-2-0.9c-1.1-0.5-2.1-0.9-3.2-1.3l-2.3-1l-0.9-0.4
			c-2.1-0.8-4.3-1.6-6.4-2.3l0,0c-2.2-0.7-4.3-1.4-6.5-2l-0.8-0.2c-0.8-0.2-1.6-0.4-2.4-0.6c-1.1-0.3-2.2-0.6-3.3-0.9
			c-0.6-0.1-1.1-0.2-1.7-0.4c-1-0.2-2-0.4-2.9-0.6c-0.8-0.1-1.5-0.3-2.2-0.5s-1.6-0.2-2.4-0.4c-1-0.2-2-0.3-3-0.5
			c-0.5-0.1-1-0.2-1.6-0.2c-0.9-0.1-1.8-0.2-2.8-0.3c-1.2-0.1-2.3-0.3-3.4-0.4c-0.4,0-0.8-0.1-1.2-0.1c-1-0.1-1.9-0.1-2.8-0.1
			c-1.2-0.1-2.5-0.1-3.7-0.2c-0.4,0-0.7,0-1.1,0c-0.8,0-1.7,0-2.5,0c-1.5,0-3,0-4.4,0.1c-0.4,0-0.8,0-1.2,0
			c-1.6,0.1-3.3,0.2-4.9,0.4l-0.6,0.1c-1.2,0.1-2.5,0.2-3.7,0.4c-0.8,0.1-1.6,0.2-2.3,0.4l-1.8,0.3c-2.2,0.4-4.3,0.7-6.4,1.2l-0.2,0
			c-0.6,0.1-1.1,0.3-1.7,0.4c-1.8,0.4-3.5,0.8-5.3,1.3c-0.8,0.2-1.7,0.5-2.5,0.8c-1.1,0.3-2.2,0.6-3.4,1l-0.8,0.3
			c-1.7,0.6-3.4,1.2-5.1,1.9c-0.8,0.3-1.7,0.6-2.5,1c-2.5,1-4.9,2.1-7.3,3.4l-39.5,19.8c2.4-1.2,4.9-2.3,7.3-3.4
			c0.8-0.4,1.6-0.6,2.5-1c1.7-0.7,3.4-1.3,5.1-1.9c1.4-0.5,2.8-0.9,4.2-1.3c0.8-0.3,1.7-0.5,2.5-0.8c1.7-0.5,3.5-0.9,5.3-1.3
			c0.6-0.1,1.1-0.3,1.7-0.4c2.2-0.5,4.4-0.9,6.6-1.2l1.8-0.3c2-0.3,4-0.5,6-0.7l0.6-0.1c2-0.2,4.1-0.3,6.2-0.4
			c1.5-0.1,3-0.1,4.4-0.1c1.2,0,2.4,0,3.6,0s2.5,0.1,3.7,0.2s2.7,0.1,4.1,0.3c1.1,0.1,2.3,0.2,3.4,0.4c1.4,0.2,2.9,0.3,4.3,0.5
			c1,0.1,2,0.3,2.9,0.5c1.5,0.2,3.1,0.5,4.6,0.9c1,0.2,2,0.4,2.9,0.6c1.7,0.4,3.3,0.8,5,1.2c0.8,0.2,1.6,0.4,2.4,0.6
			c2.4,0.7,4.9,1.4,7.3,2.3l0,0c2.4,0.8,4.9,1.7,7.3,2.7c0.8,0.3,1.5,0.6,2.3,0.9c1.7,0.7,3.4,1.5,5.2,2.2c0.8,0.4,1.7,0.8,2.5,1.2
			c2.3,1.1,4.5,2.2,6.8,3.4c2.5,1.4,5,2.8,7.4,4.2l0.4,0.3c2.4,1.4,4.7,3,7.1,4.5c0.8,0.5,1.6,1.1,2.4,1.6c1.5,1.1,3.1,2.1,4.6,3.3
			c0.9,0.7,1.8,1.4,2.8,2.1c1.4,1,2.7,2.1,4,3.2c1,0.8,2,1.6,2.9,2.4c1.3,1.1,2.5,2.1,3.8,3.3c1,0.9,2,1.8,2.9,2.6
			c1.2,1.1,2.4,2.3,3.6,3.4c1,0.9,1.9,1.9,2.8,2.8c1.2,1.2,2.4,2.4,3.5,3.7c0.9,0.9,1.7,1.8,2.6,2.8c1.2,1.3,2.4,2.7,3.5,4
			c0.8,0.9,1.6,1.8,2.3,2.7c1.3,1.6,2.7,3.2,4,4.9c0.5,0.7,1.1,1.3,1.6,2c1.8,2.4,3.6,4.8,5.4,7.2c0.3,0.4,0.5,0.8,0.8,1.2
			c1.5,2.1,2.9,4.2,4.3,6.3c1.8,2.7,3.5,5.5,5.2,8.3l0.1,0.2l0,0c1.5,2.5,3,5,4.4,7.6c0.4,0.8,0.9,1.6,1.3,2.5
			c0.9,1.7,1.8,3.4,2.7,5.1c0.8,1.5,1.5,3.1,2.3,4.6c0.7,1.4,1.3,2.8,2,4.2c0.7,1.6,1.4,3.1,2.1,4.7c0.6,1.3,1.1,2.6,1.7,3.9
			c1.6,3.9,3.2,7.8,4.6,11.7c0.5,1.4,1,2.9,1.5,4.3s1.1,3.1,1.6,4.6c0.7,2.2,1.4,4.3,2,6.5c0.2,0.7,0.4,1.4,0.7,2.2
			c0.8,2.8,1.6,5.7,2.3,8.5c0.2,0.8,0.4,1.5,0.5,2.3c0.5,2.1,1,4.3,1.5,6.4c0.2,1,0.4,2,0.6,2.9c0.4,2.1,0.8,4.1,1.2,6.2
			c0.2,0.9,0.3,1.8,0.5,2.7c0.5,2.7,0.9,5.5,1.2,8.2c0,0.2,0.1,0.4,0.1,0.7c0.4,3,0.7,5.9,1,8.9c0.1,1,0.2,1.9,0.2,2.9
			c0.2,2,0.3,4.1,0.4,6.1c0.1,1.1,0.1,2.3,0.2,3.4c0.1,1.9,0.1,3.8,0.2,5.7c0,1.1,0,2.3,0,3.4c0,2,0,4-0.1,5.9c0,1,0,2.1-0.1,3.1
			c-0.1,2.6-0.2,5.2-0.4,7.7c0,0.4,0,0.8-0.1,1.1c-0.2,2.9-0.5,5.9-0.8,8.8c-0.1,0.8-0.2,1.7-0.3,2.5c-0.3,2.1-0.5,4.2-0.8,6.3
			c-0.2,1-0.3,2-0.5,3c-0.3,2-0.7,4-1.1,5.9c-0.2,1-0.4,1.9-0.6,2.9c-0.6,2.8-1.2,5.6-1.9,8.4s-1.5,5.8-2.4,8.6
			c-0.2,0.8-0.5,1.6-0.8,2.4c-0.6,1.9-1.2,3.9-1.9,5.8c-0.4,1.1-0.8,2.2-1.2,3.3c-0.6,1.6-1.2,3.2-1.8,4.8c-0.5,1.2-0.9,2.3-1.4,3.4
			c-0.6,1.5-1.2,2.9-1.9,4.3s-1.2,2.5-1.8,3.8s-1.2,2.5-1.9,3.8c-0.8,1.5-1.5,2.9-2.3,4.4c-0.6,1.1-1.2,2.2-1.9,3.3
			c-1,1.7-2,3.4-3.1,5.1c-0.7,1-1.3,2.1-2,3.1l-1,1.5c-1.2,1.7-2.4,3.4-3.6,5.1l-0.7,1c-1.6,2.1-3.2,4.1-4.8,6l0,0
			c-1.6,2-3.3,3.9-5.1,5.7c-0.3,0.4-0.7,0.7-1.1,1.1c-1.3,1.4-2.6,2.7-4,4c-0.5,0.5-1.1,1-1.6,1.5c-1.3,1.2-2.6,2.3-3.9,3.5
			l-1.5,1.3c-1.8,1.5-3.6,2.9-5.4,4.3l-0.8,0.6c-1.6,1.2-3.2,2.3-4.8,3.4c-0.6,0.4-1.2,0.8-1.8,1.2c-1.4,0.9-2.8,1.8-4.2,2.6l-1.8,1
			c-2,1.1-4,2.2-6,3.2l39.5-19.8c2-1,4-2.1,6-3.2l1.8-1c1.4-0.8,2.8-1.7,4.2-2.6c0.6-0.4,1.2-0.8,1.8-1.2c1.6-1.1,3.3-2.2,4.8-3.4
			c0.3-0.2,0.5-0.4,0.8-0.6c1.8-1.4,3.6-2.8,5.4-4.3l1.5-1.3c1.3-1.1,2.6-2.3,3.9-3.5c0.5-0.5,1.1-1,1.6-1.5c1.3-1.3,2.7-2.6,4-4
			c0.3-0.4,0.7-0.7,1.1-1.1c0.1-0.1,0.2-0.2,0.3-0.3c1.6-1.7,3.2-3.5,4.7-5.4l0,0c1.6-1.8,3.1-3.7,4.5-5.7l0.3-0.4l0.7-1
			c1.2-1.7,2.4-3.4,3.6-5.1c0.3-0.5,0.7-1,1-1.5s0.5-0.8,0.8-1.1c0.4-0.7,0.8-1.3,1.2-2c1.1-1.7,2.1-3.3,3.1-5.1
			c0.3-0.5,0.6-0.9,0.8-1.3c0.4-0.7,0.7-1.3,1.1-2c0.8-1.4,1.6-2.9,2.3-4.4c0.3-0.6,0.7-1.2,1-1.8s0.6-1.3,0.9-2
			c0.6-1.2,1.2-2.5,1.8-3.8c0.3-0.7,0.6-1.3,0.9-2s0.6-1.6,1-2.4c0.5-1.1,1-2.3,1.4-3.4c0.2-0.6,0.5-1.2,0.7-1.8c0.4-1,0.7-2,1.1-3
			s0.8-2.2,1.2-3.3c0.2-0.4,0.3-0.9,0.5-1.3c0.5-1.5,1-3,1.4-4.5c0.2-0.8,0.5-1.6,0.8-2.4c0.1-0.2,0.1-0.4,0.2-0.6
			c0.7-2.5,1.4-5,2.1-7.6c0-0.2,0.1-0.3,0.1-0.5c0.6-2.3,1.2-4.7,1.7-7.1c0.1-0.4,0.2-0.9,0.3-1.3c0.2-1,0.4-1.9,0.6-2.9
			c0.2-1.1,0.5-2.2,0.7-3.4c0.2-0.9,0.3-1.7,0.4-2.6s0.3-2,0.5-3c0.1-0.7,0.2-1.3,0.3-2c0.2-1.4,0.4-2.9,0.5-4.3
			c0.1-0.8,0.2-1.7,0.3-2.5c0-0.3,0.1-0.6,0.1-0.8c0.3-2.6,0.5-5.2,0.7-7.8c0-0.1,0-0.1,0-0.2
			C1950.2,680.3,1950.2,679.9,1950.2,679.5z"/>
		<path class="st26" d="M1796.8,469.7c-41.3-22.1-85.5-24.8-124.3-7.4c-41.9,18.8-72.2,57.9-85.3,110.1
			c-25.6,101.8,24.2,222.4,111,268.9c25.3,13.6,51.7,19.8,77.2,18.6c16.3-0.8,32.2-4.6,47.1-11.2c41.9-18.8,72.2-57.9,85.3-110.1
			C1933.4,636.8,1883.6,516.2,1796.8,469.7z M1887.9,731.9c-11.6,46-38.2,80.4-75.1,96.9c-13.1,5.9-27.1,9.2-41.4,9.9
			c-22.5,1.1-45.7-4.4-68-16.4c-76.4-40.9-120.2-147.1-97.7-236.6c11.6-46,38.2-80.4,75.1-96.9c34.1-15.3,73-13,109.3,6.5
			C1866.6,536.2,1910.4,642.3,1887.9,731.9L1887.9,731.9z"/>
		<path class="st0" d="M2017.6,1576.4c37.8-14.9,102.4-16.4,144.4-3.5c20.3,6.3,31.6,14.8,33.5,23.6c1.8-0.9,3.7-1.6,5.6-2.3
			c20.9-7.2,53.4-7.6,72.6-0.7s17.9,18.2-3,25.4s-53.4,7.6-72.6,0.7c-5-1.8-8.6-3.8-10.8-6.1c-4.3,3.5-10.2,6.8-17.7,9.7
			c-37.8,14.9-102.4,16.4-144.4,3.5S1979.8,1591.3,2017.6,1576.4z"/>
		<path class="st18" d="M2225,1540.6c2.2,16.5,23.2,0.7,23-11.9c-28-84.9-57.6-153.7-91-181.6l-11.1-181.2l-101.7-26.8l53.8,235
			L2225,1540.6z"/>
		<path class="st21" d="M2060.2,1580.1l-23.9,8.8c-18.5,1-28.2-0.5-32.9,6.8l-1.3,2.1c-4.7,7.3-1.1,11,9.7,14.2l48.5,10.1
			c14.2,2.9,17.7-1.8,21-10.4c0,0,2-10.7-7.9-23.4C2067.9,1581,2068.2,1580.4,2060.2,1580.1z"/>
		<path class="st18" d="M2045.4,1591.5c5.5,13.3,28.6,10,28-1c21.5-169.1,4.7-179,4.6-215.8c0-41.1,7.2-85.6,35-164.1l-26.2,4.7
			c-41.7,7.4-71.9,43.8-71.5,86.1C2016.4,1406.1,2022.9,1489,2045.4,1591.5z"/>
		<path class="st21" d="M2022.3,1146.6l-11.8,221.2c0,0,79.3,65.6,173.9-19.2c-21.6-29.7-24.8-68-22.6-108.8
			c7.9-38.5-2.3-69.8-13.8-97.2L2022.3,1146.6z"/>
		<path class="st18" d="M2084.6,997.6l2.6-0.6c8.7-2.1,14.1-10.9,12-19.7l-11.9-49.1c-2.1-8.7-10.9-14.1-19.7-12l-2.6,0.6
			c-8.7,2.2-14.1,10.9-12,19.7l4.4,48.9C2059.6,994.1,2075.9,999.7,2084.6,997.6z"/>
		<path class="st26" d="M2147.9,1142.6c-0.7-38.8-2.1-47,3.8-91.3c2-14.8,0.8-19.2,2.1-34.1c2.2-26.2-10.3-73.6-53.3-60.5l-3.9,2.8
			c-6.3,1.8-12.4,4.3-18.2,7.4c-62.5,33.6-86.2,37.9-75.8,77.7c3.2,29.9,27.9,38.1,19.6,102C2036,1189.2,2134,1173.5,2147.9,1142.6z
			"/>
		<path class="st22" d="M2096.9,953.3c4-1,8.1,1.5,9.1,5.5c0.2,1,0.3,2,0.1,3c-0.9,5.9-4.4,13-15,16.8c-14.8,5.3-31.1,2.9-39,1.1
			c-1.2-0.3-1.9-1.4-1.6-2.6c0.1-0.6,0.5-1,0.9-1.3C2060.2,970.2,2081.2,957.4,2096.9,953.3z"/>
		<path class="st21" d="M2225.1,1542l5.9,25c-1.3,18.7-3.9,28.2,2.8,33.7l1.9,1.6c6.8,5.6,13.7,2,15.3-8l14.8-45.5
			c1.7-10-3.9-18.5-12.1-22.9c0,0-7.2-4-18.9,3.7C2227.2,1534.8,2226.4,1534,2225.1,1542z"/>
		<path class="st18" d="M2059.4,1600.2l-30.8-1.2c-2-0.1-3.5-1.9-3.4-3.9c0.1-1.3,0.8-2.4,2-3l19.1-11.8L2059.4,1600.2z"/>
		<path class="st18" d="M2242,1525.9c0,0-7.1,36.3-11.1,41l-8.1-30.8l5-18.2L2242,1525.9z"/>
		<path class="st30" d="M2163.3,1230c0,0-10.6,19.9-18.7,20.6c0,0,10.6,0.7,16.7-3.6L2163.3,1230z"/>
		<path class="st30" d="M2010.4,1367.9l11.8-221.2l28.7,16.2c0,0-20,196.4-1.7,224.2C2049.3,1387.1,2030,1383.1,2010.4,1367.9z"/>
		<path class="st18" d="M1886.3,1026.9L1886.3,1026.9c5.3-7.1,15.3-8.5,22.4-3.3l9.3,6.9c7.1,5.3,8.5,15.3,3.3,22.4l0,0
			c-5.3,7.1-15.3,8.5-22.4,3.3l-9.3-6.9C1882.5,1044,1881.1,1034,1886.3,1026.9z"/>
		<path class="st31" d="M2022.3,1146.6c0,0,2.6-38.8-2.8-50s-26.9-59-26.9-59l11.9-15.2c13.8,23.2,41.6,24.5,46.8,147.6
			C2051.3,1170,2025.8,1164.7,2022.3,1146.6z"/>
		<path class="st26" d="M2040.2,1050.3l-41.3,77.8c-5.1,9.6-16.9,13.2-26.5,8.1c-2.2-1.2-4.2-2.8-5.8-4.7l-61.4-72.6l19.6-24.7
			l39.8,41.6c3,3.1,8,3.2,11.1,0.2c0.8-0.7,1.4-1.6,1.8-2.6l24.1-56.5L2040.2,1050.3z"/>
		<path class="st21" d="M2014.2,897.3c0,0-0.8,42.9,24.6,48s17.5-81,17.5-81L2014.2,897.3z"/>
		<path class="st18" d="M2081.6,864.3c-7.1-10.1-16.9-11.3-25.2-4.8c-9-3.1-23.4,4.1-31.6,17.5c-6.8,11.2-4.2,45.5,2.3,62
			c2.9,7.3,10.8,9.4,16.8,8.9c13.1-1.1,16.3-0.9,21.5-3.3c18.8-8.5,19.3-5.7,25.4-18.9C2100,906,2092.1,879,2081.6,864.3z"/>
		<path class="st21" d="M2048.6,870.2c-6.6,7.3,17.3,53.6,41.5,72.3c0,0,38.3-7.8,25.7-50.4c-15.7-53-39.7-27.9-39.7-27.9
			L2048.6,870.2z"/>
		<path class="st21" d="M2084.4,876.3c-22.5-5-44.1-13.5-68.9,24c-3.2-4.2-1.3-18.4,6.4-27c12-13.3,18.6-19.8,33.5-25.8l3.7-1.1
			c22.1-6.4,35.6,0.2,44.2,21.1c0.8,1.8,6.1,9.9,6.5,11.5l-7.6-1.2C2105.3,890.6,2097,872.3,2084.4,876.3z"/>
		<path class="st18" d="M2082.6,915.4c1.4,6-2.3,12-8.3,13.4c-6,1.4-12-2.3-13.4-8.3c-1.4-6,2.3-12,8.3-13.4c0,0,0,0,0,0
			C2075.2,905.7,2081.2,909.4,2082.6,915.4z"/>
		
			<linearGradient id="SVGID_5_" gradientUnits="userSpaceOnUse" x1="1092.452" y1="279.8859" x2="1670.55" y2="279.8859" gradientTransform="matrix(1 0 0 -1 0 1672)">
			<stop  offset="0" style="stop-color:#4F75E0"/>
			<stop  offset="0.48" style="stop-color:#4F73DF"/>
			<stop  offset="0.76" style="stop-color:#4E6ADD"/>
			<stop  offset="0.98" style="stop-color:#4C5CD9"/>
			<stop  offset="1" style="stop-color:#4C5BD9"/>
		</linearGradient>
		<path class="st32" d="M1670.6,1507.4c-131.7,61.7-345.8,61.3-478.3-0.7s-133.2-162.3-1.5-224s95.5-72.3,228-10.2l158.7,41
			l91.6,13.4L1670.6,1507.4z"/>
		<path class="st33" d="M1093.3,1203.8l-0.6,184c0,0-13.3,67.5,99.5,118.9v-140.3l-66.8-64.6l-23.2-40.2L1093.3,1203.8z"/>
		<path class="st34" d="M1669.8,1281.8c0,0,104-29.8,98.3-149.8c-0.5-9.8-0.1-42.2-0.1-42.2c-35.4-43-98.2,108.9-98.2,108.9V1281.8z
			"/>
		<path class="st33" d="M1192.3,1366.4c-132.5-62-133.2-162.3-1.5-224l239.9,112.3l-238.4,72.9V1366.4z"/>
		<path class="st35" d="M1563.7,1136.9c-132.5-62-241.3-56.1-372.9,5.6l239.9,112.3l133,72.9L1563.7,1136.9z"/>
		<path class="st9" d="M1670.6,1328.4c-131.7,61.7-345.8,61.3-478.3-0.7s-133.2-162.3-1.5-224s345.8-61.3,478.3,0.7l-238.4,111.7
			L1670.6,1328.4z"/>
		<path class="st36" d="M1192.3,1327.7c-132.5-62-133.2-162.3-1.5-224l239.9,112.3L1192.3,1327.7z"/>
		<path class="st13" d="M1669.1,1104.4c-132.5-62.1-346.6-62.4-478.3-0.7l239.9,112.3L1669.1,1104.4z"/>
		<path class="st4" d="M1668.3,980.3c132.5,62,133.2,162.3,1.5,224l-239.9-112.3L1668.3,980.3z"/>
		<path class="st37" d="M1430.2,1216.3l0.4-0.2l-239.9-112.3c-59.5,27.8-91.9,63.6-97.4,100.1
			C1202.6,1208,1352.5,1213.4,1430.2,1216.3z"/>
		<path class="st25" d="M1430.2,1216.3l0.4-0.2l239.9,112.3c-59.5,27.8-135.7,43-213.7,45.6
			C1448,1322.9,1436.3,1252.7,1430.2,1216.3z"/>
		<polygon class="st6" points="1429.9,1091.9 1429.9,1164.5 1669.8,1281.8 1669.8,1204.3 		"/>
		<path class="st13" d="M1456.8,1374.1v179c0,0,120.2,2,213.7-45.7v-179C1670.5,1328.4,1577.8,1373.5,1456.8,1374.1z"/>
		<path class="st38" d="M1669.3,1327.9c-131.7,61.7-345.8,61.3-478.3-0.7c-56.9-26.6-89.5-60.3-97.7-95"/>
		<path class="st0" d="M765.3,726.2l139.9-51.9c19.1-7.1,34.7-33.7,34.7-59.1v-7.5c0-25.4-15.6-40.5-34.7-33.4l-139.9,51.9
			c-19.1,7.1-34.7,33.7-34.7,59.1v7.5C730.7,718.2,746.3,733.2,765.3,726.2z"/>
		<polygon class="st39" points="915,203.8 915,728.5 649.1,827.3 649.1,290.7 		"/>
		<path class="st12" d="M772,379.5l95.9-35.5c4.3-1.8,7.2-5.7,7.8-10.3l0,0c0.9-7.2-4.6-12.1-10.9-9.8l-95.9,35.5
			c-4.3,1.8-7.2,5.7-7.8,10.3l0,0C760.2,376.9,765.7,381.9,772,379.5z"/>
		<path class="st12" d="M772,478.8l95.9-35.6c4.3-1.8,7.2-5.7,7.8-10.3l0,0c0.9-7.2-4.6-12.1-10.9-9.8l-95.9,35.6
			c-4.3,1.8-7.2,5.7-7.8,10.3l0,0C760.2,476.2,765.7,481.2,772,478.8z"/>
		<path class="st12" d="M772,578.1l95.9-35.6c4.3-1.8,7.2-5.7,7.8-10.3l0,0c0.9-7.2-4.6-12.1-10.9-9.8l-95.9,35.6
			c-4.3,1.8-7.2,5.7-7.8,10.3l0,0C760.2,575.5,765.7,580.5,772,578.1z"/>
		<path class="st15" d="M684.5,411.5l24.1-8.9c3.6-1.3,6.5-6.3,6.5-11.1v-25.2c0-4.8-2.9-7.6-6.5-6.3l-24.1,9
			c-3.5,1.3-6.5,6.2-6.5,11v25.2C678,410.1,680.9,412.9,684.5,411.5z"/>
		<path class="st15" d="M684.5,514.6l24.1-9c3.6-1.3,6.5-6.3,6.5-11.1v-25.3c0-4.8-2.9-7.6-6.5-6.2l-24.1,8.9
			c-3.6,1.3-6.5,6.3-6.5,11.1v25.2C678,513.2,680.9,516,684.5,514.6z"/>
		<path class="st15" d="M684.5,617.7l24.1-9c3.6-1.3,6.5-6.3,6.5-11.1v-25.2c0-4.8-2.9-7.6-6.5-6.3l-24.1,9
			c-3.6,1.3-6.5,6.3-6.5,11.1v25.2C678,616.2,680.9,619,684.5,617.7z"/>
		<path class="st4" d="M792.3,736.6l139.9-51.9c19.1-7.1,34.7-33.7,34.7-59.1v-7.5c0-25.4-15.6-40.5-34.7-33.4l-139.9,51.9
			c-19.1,7.1-34.7,33.7-34.7,59.1v7.5C757.6,728.7,773.2,743.7,792.3,736.6z"/>
		<path class="st25" d="M805.2,685.9l121.4-45c2.5-0.9,4.5-4.4,4.5-7.7l0,0c0-3.3-2-5.2-4.5-4.3l-121.4,45c-2.5,0.9-4.5,4.4-4.5,7.7
			l0,0C800.8,684.9,802.8,686.9,805.2,685.9z"/>
		<path class="st21" d="M2074.4,928.8c0,0,13.1,16.6,8.6,29.6s-14.7,37.7,5.7,54.4c20.4,16.7,50.1,16.3,51.1,60.8
			s67.3,39.8,73.4,18.3s-52-51.4-39.5-87.3s-48.9-59.8-56.2-106.1s-31.1-46.8-31.1-46.8l13.3,81.1L2074.4,928.8z"/>
		<line class="st39" x1="481.2" y1="809.3" x2="481.2" y2="553.7"/>
		<line class="st39" x1="246.3" y1="539.3" x2="246.3" y2="771.1"/>
		<line class="st39" x1="92.6" y1="1152.3" x2="92.6" y2="896.7"/>
		<path class="st0" d="M169.5,418.3l-0.6,4.2c-1.1,8.1,4.3,14,12.1,13.1l0,0c6.9-0.8,9.2,7.5,3.6,13.1l0,0
			c-6.4,6.4-7.7,15.7-2.9,20.8l2.4,2.6c4.7,5.1,13.7,4,20-2.4c5.6-5.7,13.5-3,12.4,4.1c-1.1,8.1,4.3,14,12.1,13l4-0.5
			c7.8-0.9,15.1-8.3,16.2-16.4l0,0c1-7.2,9.9-11.8,14.1-7.3l0,0c4.7,5.1,13.7,4,20-2.4l3.3-3.3c6.3-6.4,7.7-15.7,2.9-20.8l0,0
			c-4.2-4.5,0.5-13.6,7.4-14.4c7.8-0.9,15.1-8.3,16.2-16.4l0.6-4.2c1.1-8.1-4.3-14-12.1-13.1l0,0c-6.9,0.8-9.1-7.5-3.5-13.1l0,0
			c6.3-6.4,7.7-15.7,2.9-20.8l-2.4-2.6c-4.7-5.1-13.7-4-20,2.4l0,0c-5.6,5.7-13.5,3-12.4-4.1l0,0c1.1-8.1-4.3-14-12.1-13l-4,0.5
			c-7.8,0.9-15.1,8.3-16.2,16.4l0,0c-1,7.2-9.9,11.8-14.1,7.3l0,0c-4.7-5.1-13.7-4-20,2.4l-3.3,3.3c-6.4,6.4-7.7,15.7-2.9,20.8l0,0
			c4.2,4.5-0.5,13.6-7.4,14.4l0,0C177.9,402.8,170.6,410.2,169.5,418.3z M206,416c2.9-20.2,20.9-38.4,40.3-40.7s32.9,12.2,30,32.4
			s-20.9,38.4-40.3,40.7S203.1,436.2,206,416z"/>
		<path class="st0" d="M456.9,543l-64.2,23.9c-5.5,2-10-0.9-10-6.5l0,0c0-5.6,4.5-11.9,10-14l64.2-23.9c5.5-2,10,0.9,10,6.5l0,0
			C466.9,534.7,462.4,540.9,456.9,543z"/>
		<path class="st0" d="M74.2,890L10,913.9c-5.5,2-10-0.9-10-6.5l0,0c0-5.6,4.5-11.9,10-14l64.2-23.9c5.5-2,10,0.9,10,6.5l0,0
			C84.2,881.6,79.7,887.9,74.2,890z"/>
	</g>
</g>
</svg>
