<svg xmlns="http://www.w3.org/2000/svg" width="663" height="426" viewBox="0 0 663 426">
  <g id="Grupo_27626" data-name="Grupo 27626" transform="translate(-330 -11175)">
    <path id="Trazado_22083" data-name="Trazado 22083" d="M0,0H327V78H0Z" transform="translate(330 11175)" fill="#7d58bd"/>
    <path id="Trazado_22087" data-name="Trazado 22087" d="M0,0H336V78H0Z" transform="translate(657 11175)" fill="#cbd9e4"/>
    <path id="Trazado_22088" data-name="Trazado 22088" d="M0,0H336V78H0Z" transform="translate(657 11262)" fill="#e6eef3"/>
    <path id="Trazado_22089" data-name="Trazado 22089" d="M0,0H341V78H0Z" transform="translate(652 11349)" fill="#e6eef3"/>
    <path id="Trazado_22090" data-name="Trazado 22090" d="M0,0H341V78H0Z" transform="translate(652 11436)" fill="#e6eef3"/>
    <path id="Trazado_22096" data-name="Trazado 22096" d="M0,0H341V78H0Z" transform="translate(652 11523)" fill="#e6eef3"/>
    <path id="Trazado_22084" data-name="Trazado 22084" d="M132.581,27.273a11.027,11.027,0,0,1-4.026-.725,9.468,9.468,0,0,1-3.206-2.023,9.121,9.121,0,0,1-2.105-3.213,11.2,11.2,0,0,1-.766-4.2,10.7,10.7,0,0,1,1.313-5.366,8.935,8.935,0,0,1,3.6-3.548,10.787,10.787,0,0,1,5.188-1.23,10.483,10.483,0,0,1,5.8,1.6,8.756,8.756,0,0,1,3.541,4.4l-3.828,1.395a5.412,5.412,0,0,0-2.119-2.666,6.053,6.053,0,0,0-3.391-.957,5.8,5.8,0,0,0-4.32,1.723,6.339,6.339,0,0,0-1.7,4.648,6.348,6.348,0,0,0,1.7,4.655,5.8,5.8,0,0,0,4.313,1.729,6.03,6.03,0,0,0,3.384-.964,5.436,5.436,0,0,0,2.126-2.673l3.828,1.395a8.792,8.792,0,0,1-3.541,4.409A10.45,10.45,0,0,1,132.581,27.273ZM158.5,27l-1.436-4.074h-8.3L147.333,27h-4.2l7.273-19.756h5.018L162.7,27Zm-8.531-7.506h5.893l-2.939-8.381ZM188.308,27H184.22l-1.3-14.889-5,14.889h-2.652l-5-14.889L168.948,27h-4.1L166.5,7.244h5.852l4.211,12.4,4.266-12.4h5.852Zm15.75-16.146h-7.328v4.484h6.494v3.568h-6.494v4.471h7.328V27H192.6V7.244h11.457Z" transform="translate(330 11197)" fill="#fff"/>
    <path id="Trazado_22091" data-name="Trazado 22091" d="M147.663,10.854h-7.52v4.484h6.494v3.568h-6.494V27h-4.129V7.244h11.648Zm7.6,12.523h6.193V27H151.163V7.244h4.1Zm17.678,3.9a10.739,10.739,0,0,1-5.188-1.237,8.97,8.97,0,0,1-3.6-3.562,10.711,10.711,0,0,1-1.312-5.359,10.7,10.7,0,0,1,1.313-5.366,8.936,8.936,0,0,1,3.6-3.548,11.54,11.54,0,0,1,10.37,0,8.947,8.947,0,0,1,3.6,3.548,10.7,10.7,0,0,1,1.313,5.366,10.711,10.711,0,0,1-1.312,5.359,8.97,8.97,0,0,1-3.6,3.562A10.71,10.71,0,0,1,172.942,27.273Zm-4.32-5.489a6.261,6.261,0,0,0,8.641,0,6.381,6.381,0,0,0,1.7-4.669,6.339,6.339,0,0,0-1.7-4.648,6.279,6.279,0,0,0-8.641,0,6.339,6.339,0,0,0-1.7,4.648A6.381,6.381,0,0,0,168.622,21.784ZM197.237,27,192.1,18.3h-1.189V27h-4.1V7.244h7.164a8.287,8.287,0,0,1,2.871.458,4.964,4.964,0,0,1,1.989,1.271,5.445,5.445,0,0,1,1.121,1.866,6.826,6.826,0,0,1,.376,2.311,4.824,4.824,0,0,1-1.08,3.247,5.443,5.443,0,0,1-3.1,1.7l5.947,8.9Zm-6.33-16.352v4.717h2.42q3.076,0,3.076-2.352a2.141,2.141,0,0,0-.752-1.736,3.575,3.575,0,0,0-2.324-.629Z" transform="translate(657 11197)" fill="#002b45"/>
    <path id="Trazado_22092" data-name="Trazado 22092" d="M141.666,27l-4.949-8.682H133.7V27h-2.447V7.75h6.385a5.749,5.749,0,0,1,4.313,1.524,5.382,5.382,0,0,1,1.483,3.917,5.023,5.023,0,0,1-1.128,3.35,5.042,5.042,0,0,1-3.138,1.682L144.523,27ZM133.7,9.9v6.494H137.3a4.031,4.031,0,0,0,2.816-.868,3.047,3.047,0,0,0,.943-2.358,3.1,3.1,0,0,0-.95-2.379A3.974,3.974,0,0,0,137.3,9.9Zm25.293,10.117-.027.643h-10.5a4.749,4.749,0,0,0,1.285,3.438,4.22,4.22,0,0,0,3.063,1.2,4.03,4.03,0,0,0,2.229-.643,4.17,4.17,0,0,0,1.531-1.777l2.133.451a6.062,6.062,0,0,1-2.3,2.885,6.266,6.266,0,0,1-3.568,1.053A6.493,6.493,0,0,1,148,25.387a6.968,6.968,0,0,1-1.846-5.113,6.934,6.934,0,0,1,1.853-5.1,6.412,6.412,0,0,1,4.765-1.873,6.067,6.067,0,0,1,4.519,1.723A6.807,6.807,0,0,1,158.988,20.014Zm-6.221-4.895a4.191,4.191,0,0,0-2.8.95,4.353,4.353,0,0,0-1.415,2.769h8.053a3.993,3.993,0,0,0-1.176-2.769A3.8,3.8,0,0,0,152.768,15.119ZM166.986,27a3.533,3.533,0,0,1-2.625-.964,3.646,3.646,0,0,1-.957-2.687v-7.9h-2.748V13.561h1.012a1.942,1.942,0,0,0,1.483-.472,2.321,2.321,0,0,0,.431-1.579V9.076h2.2v4.484h3.09v1.887h-3.09V23.1a2.037,2.037,0,0,0,.513,1.483,1.8,1.8,0,0,0,1.347.526h1.23V27Zm10.8.26a7.084,7.084,0,0,1-3.445-.834,6.073,6.073,0,0,1-2.427-2.44,7.5,7.5,0,0,1-.9-3.712,6.847,6.847,0,0,1,1.907-5.065,7.155,7.155,0,0,1,9.728,0,6.86,6.86,0,0,1,1.9,5.065,6.865,6.865,0,0,1-1.907,5.079A6.583,6.583,0,0,1,177.787,27.26Zm-.014-1.969a4.128,4.128,0,0,0,3.179-1.381,5.174,5.174,0,0,0,1.265-3.637,5.155,5.155,0,0,0-1.265-3.623,4.128,4.128,0,0,0-3.179-1.381,4.071,4.071,0,0,0-3.151,1.381,5.189,5.189,0,0,0-1.251,3.623,5.209,5.209,0,0,0,1.251,3.637A4.071,4.071,0,0,0,177.773,25.291Zm14.738,1.969a6.371,6.371,0,0,1-3.623-.971,4.015,4.015,0,0,1-1.764-2.762l2.064-.588a2.879,2.879,0,0,0,1.1,1.866,3.57,3.57,0,0,0,2.208.663,4.406,4.406,0,0,0,1.292-.178,2.071,2.071,0,0,0,.991-.663,1.849,1.849,0,0,0,.287-1.777,2.374,2.374,0,0,0-.219-.444,1.354,1.354,0,0,0-.383-.369A5.047,5.047,0,0,0,194,21.75a4.772,4.772,0,0,0-.608-.253q-.4-.144-.649-.219t-.752-.219q-.506-.144-.779-.226a14.578,14.578,0,0,1-1.395-.492,6.116,6.116,0,0,1-1.135-.649,2.613,2.613,0,0,1-.882-1.06,3.585,3.585,0,0,1-.294-1.5,3.475,3.475,0,0,1,.656-2.146,3.692,3.692,0,0,1,1.7-1.265,6.8,6.8,0,0,1,2.386-.39,5.84,5.84,0,0,1,3.274.875,3.735,3.735,0,0,1,1.634,2.625l-1.941.492a2.574,2.574,0,0,0-1.025-1.7,3.265,3.265,0,0,0-1.928-.567,3.327,3.327,0,0,0-1.8.472,1.585,1.585,0,0,0-.752,1.442,1.436,1.436,0,0,0,.2.745,2.366,2.366,0,0,0,.4.526,2.479,2.479,0,0,0,.738.4q.533.212.793.287t.984.253q.137.041.205.055.793.205,1.292.362a7.941,7.941,0,0,1,1.162.492,3.863,3.863,0,0,1,1.046.731,3.389,3.389,0,0,1,.656,1.039,3.668,3.668,0,0,1,.273,1.449,3.914,3.914,0,0,1-.4,1.812,3.155,3.155,0,0,1-1.1,1.237,5.323,5.323,0,0,1-1.565.677A7.458,7.458,0,0,1,192.512,27.26Z" transform="translate(666 11284)" fill="#002b45"/>
    <path id="Trazado_22093" data-name="Trazado 22093" d="M90.834,24.771H97.52V27H88.387V7.75h2.447ZM101.908,10.4a1.611,1.611,0,0,1-1.6-1.6,1.517,1.517,0,0,1,.472-1.121,1.55,1.55,0,0,1,1.128-.465,1.535,1.535,0,0,1,1.114.465,1.517,1.517,0,0,1,.472,1.121,1.539,1.539,0,0,1-.472,1.128A1.524,1.524,0,0,1,101.908,10.4Zm-1.2,16.6V13.561h2.379V27Zm20.932-13.7a4.332,4.332,0,0,1,3.131,1.142,4.234,4.234,0,0,1,1.189,3.206V27h-2.365V18.264a3.037,3.037,0,0,0-.738-2.215,2.514,2.514,0,0,0-1.873-.752,2.654,2.654,0,0,0-2.051.848,3.645,3.645,0,0,0-.779,2.543V27h-2.406V18.359a3.177,3.177,0,0,0-.745-2.29,2.534,2.534,0,0,0-1.907-.772,2.629,2.629,0,0,0-2.044.868,3.771,3.771,0,0,0-.786,2.6V27H107.9V13.561h2.365V15.3A4.083,4.083,0,0,1,111.8,13.82a4.386,4.386,0,0,1,2.14-.52,4.566,4.566,0,0,1,2.3.567,3.532,3.532,0,0,1,1.49,1.634,4.182,4.182,0,0,1,1.613-1.634A4.614,4.614,0,0,1,121.637,13.3Zm10.1-2.9a1.611,1.611,0,0,1-1.6-1.6,1.517,1.517,0,0,1,.472-1.121,1.55,1.55,0,0,1,1.128-.465,1.535,1.535,0,0,1,1.114.465,1.517,1.517,0,0,1,.472,1.121,1.539,1.539,0,0,1-.472,1.128A1.524,1.524,0,0,1,131.74,10.4Zm-1.2,16.6V13.561h2.379V27Zm11.484,0a3.533,3.533,0,0,1-2.625-.964,3.646,3.646,0,0,1-.957-2.687v-7.9h-2.748V13.561H136.7a1.942,1.942,0,0,0,1.483-.472,2.321,2.321,0,0,0,.431-1.579V9.076h2.2v4.484h3.09v1.887h-3.09V23.1a2.037,2.037,0,0,0,.513,1.483,1.8,1.8,0,0,0,1.347.526h1.23V27Zm8.244.26a4.573,4.573,0,0,1-2.946-.923,3.314,3.314,0,0,1-1.155-2.755,3.915,3.915,0,0,1,.369-1.757,3.1,3.1,0,0,1,1.094-1.224,6.561,6.561,0,0,1,1.579-.759,14.6,14.6,0,0,1,2.044-.485L153.424,19q1.189-.219,1.189-1.244a2.349,2.349,0,0,0-.841-2,3.426,3.426,0,0,0-2.126-.636,3.49,3.49,0,0,0-2.105.615,2.575,2.575,0,0,0-1,1.887l-2.133-.451a4.1,4.1,0,0,1,1.682-2.878,6.283,6.283,0,0,1,3.664-.964,7.431,7.431,0,0,1,1.948.239,5.3,5.3,0,0,1,1.627.752,3.372,3.372,0,0,1,1.162,1.449,5.392,5.392,0,0,1,.417,2.208v5.551a2.271,2.271,0,0,0,.308,1.4,1.328,1.328,0,0,0,1.06.362h.219V27H157.32a2.242,2.242,0,0,1-2.543-1.818h-.109A5.136,5.136,0,0,1,150.266,27.26Zm.547-1.914a3.586,3.586,0,0,0,2.885-1.3,5.347,5.347,0,0,0,1.094-3.555l-3.555.684a4.785,4.785,0,0,0-2.085.745,1.733,1.733,0,0,0-.677,1.47,1.713,1.713,0,0,0,.649,1.477A2.776,2.776,0,0,0,150.813,25.346Zm16.324,1.9a6.473,6.473,0,0,1-4.812-1.928,6.877,6.877,0,0,1-1.9-5.045,6.89,6.89,0,0,1,1.894-5.045,7,7,0,0,1,8.709-.752,5.934,5.934,0,0,1,2.263,3.268l-2.215.355a4.09,4.09,0,0,0-1.518-2.092,4.132,4.132,0,0,0-2.434-.738,3.973,3.973,0,0,0-3.11,1.381,5.26,5.26,0,0,0-1.224,3.623,5.235,5.235,0,0,0,1.224,3.616,3.982,3.982,0,0,0,3.11,1.374,4.132,4.132,0,0,0,2.434-.738,4.09,4.09,0,0,0,1.518-2.092l2.215.369a5.94,5.94,0,0,1-2.276,3.261A6.51,6.51,0,0,1,167.137,27.246ZM177.979,10.4a1.611,1.611,0,0,1-1.6-1.6,1.517,1.517,0,0,1,.472-1.121,1.55,1.55,0,0,1,1.128-.465,1.535,1.535,0,0,1,1.114.465,1.517,1.517,0,0,1,.472,1.121,1.539,1.539,0,0,1-.472,1.128A1.524,1.524,0,0,1,177.979,10.4Zm-1.2,16.6V13.561h2.379V27Zm12.852.26a7.084,7.084,0,0,1-3.445-.834,6.073,6.073,0,0,1-2.427-2.44,7.5,7.5,0,0,1-.9-3.712,6.847,6.847,0,0,1,1.907-5.065,7.155,7.155,0,0,1,9.728,0,6.86,6.86,0,0,1,1.9,5.065,6.865,6.865,0,0,1-1.907,5.079A6.583,6.583,0,0,1,189.627,27.26Zm-.014-1.969a4.128,4.128,0,0,0,3.179-1.381,5.174,5.174,0,0,0,1.265-3.637,5.155,5.155,0,0,0-1.265-3.623,4.128,4.128,0,0,0-3.179-1.381,4.071,4.071,0,0,0-3.151,1.381,5.189,5.189,0,0,0-1.251,3.623,5.209,5.209,0,0,0,1.251,3.637A4.071,4.071,0,0,0,189.613,25.291Zm16.83-11.99a4.675,4.675,0,0,1,3.384,1.217,4.539,4.539,0,0,1,1.265,3.432V27h-2.365V18.482a3.177,3.177,0,0,0-.82-2.406A2.933,2.933,0,0,0,205.8,15.3a3.251,3.251,0,0,0-2.393.923,3.745,3.745,0,0,0-.943,2.741V27H200.1V13.561h2.365v1.723A4.488,4.488,0,0,1,206.443,13.3Zm20.973,6.713-.027.643h-10.5a4.749,4.749,0,0,0,1.285,3.438,4.22,4.22,0,0,0,3.063,1.2,4.03,4.03,0,0,0,2.229-.643A4.17,4.17,0,0,0,225,22.871l2.133.451a6.062,6.062,0,0,1-2.3,2.885,6.266,6.266,0,0,1-3.568,1.053,6.493,6.493,0,0,1-4.84-1.873,6.968,6.968,0,0,1-1.846-5.113,6.934,6.934,0,0,1,1.853-5.1A6.412,6.412,0,0,1,221.2,13.3a6.067,6.067,0,0,1,4.519,1.723A6.807,6.807,0,0,1,227.416,20.014ZM221.2,15.119a4.191,4.191,0,0,0-2.8.95,4.353,4.353,0,0,0-1.415,2.769h8.053a3.993,3.993,0,0,0-1.176-2.769A3.8,3.8,0,0,0,221.2,15.119ZM235.373,27.26a6.371,6.371,0,0,1-3.623-.971,4.015,4.015,0,0,1-1.764-2.762l2.064-.588a2.879,2.879,0,0,0,1.1,1.866,3.57,3.57,0,0,0,2.208.663,4.406,4.406,0,0,0,1.292-.178,2.071,2.071,0,0,0,.991-.663,1.849,1.849,0,0,0,.287-1.777,2.374,2.374,0,0,0-.219-.444,1.354,1.354,0,0,0-.383-.369,5.047,5.047,0,0,0-.465-.287,4.772,4.772,0,0,0-.608-.253q-.4-.144-.649-.219t-.752-.219q-.506-.144-.779-.226a14.578,14.578,0,0,1-1.395-.492,6.116,6.116,0,0,1-1.135-.649,2.613,2.613,0,0,1-.882-1.06,3.585,3.585,0,0,1-.294-1.5,3.475,3.475,0,0,1,.656-2.146,3.692,3.692,0,0,1,1.7-1.265,6.8,6.8,0,0,1,2.386-.39,5.84,5.84,0,0,1,3.274.875,3.735,3.735,0,0,1,1.634,2.625l-1.941.492a2.574,2.574,0,0,0-1.025-1.7,3.265,3.265,0,0,0-1.928-.567,3.327,3.327,0,0,0-1.8.472,1.585,1.585,0,0,0-.752,1.442,1.436,1.436,0,0,0,.2.745,2.366,2.366,0,0,0,.4.526,2.479,2.479,0,0,0,.738.4q.533.212.793.287t.984.253q.137.041.205.055.793.205,1.292.362a7.941,7.941,0,0,1,1.162.492,3.863,3.863,0,0,1,1.046.731,3.389,3.389,0,0,1,.656,1.039,3.668,3.668,0,0,1,.273,1.449,3.914,3.914,0,0,1-.4,1.812,3.155,3.155,0,0,1-1.1,1.237,5.323,5.323,0,0,1-1.565.677A7.458,7.458,0,0,1,235.373,27.26Z" transform="translate(666 11371)" fill="#002b45"/>
    <path id="Trazado_22094" data-name="Trazado 22094" d="M113.919,9.979h-7.9v6.289h6.891v2.215h-6.891V27h-2.5V7.75h10.4Zm8.613,17.281a7.084,7.084,0,0,1-3.445-.834,6.073,6.073,0,0,1-2.427-2.44,7.5,7.5,0,0,1-.9-3.712,6.847,6.847,0,0,1,1.907-5.065,7.155,7.155,0,0,1,9.728,0,6.86,6.86,0,0,1,1.9,5.065,6.865,6.865,0,0,1-1.907,5.079A6.583,6.583,0,0,1,122.532,27.26Zm-.014-1.969A4.128,4.128,0,0,0,125.7,23.91a5.174,5.174,0,0,0,1.265-3.637A5.155,5.155,0,0,0,125.7,16.65a4.128,4.128,0,0,0-3.179-1.381,4.071,4.071,0,0,0-3.151,1.381,5.189,5.189,0,0,0-1.251,3.623,5.209,5.209,0,0,0,1.251,3.637A4.071,4.071,0,0,0,122.519,25.291Zm12.8-9.365a4.063,4.063,0,0,1,1.668-1.8,5.023,5.023,0,0,1,2.584-.711v2.229a4.428,4.428,0,0,0-3.124,1,4.169,4.169,0,0,0-1.073,3.186V27H133V13.561h2.311ZM147.415,27a3.533,3.533,0,0,1-2.625-.964,3.646,3.646,0,0,1-.957-2.687v-7.9h-2.748V13.561H142.1a1.942,1.942,0,0,0,1.483-.472,2.321,2.321,0,0,0,.431-1.579V9.076h2.2v4.484h3.09v1.887h-3.09V23.1a2.037,2.037,0,0,0,.513,1.483,1.8,1.8,0,0,0,1.347.526h1.23V27Zm8.244.26a4.573,4.573,0,0,1-2.946-.923,3.314,3.314,0,0,1-1.155-2.755,3.915,3.915,0,0,1,.369-1.757,3.1,3.1,0,0,1,1.094-1.224,6.561,6.561,0,0,1,1.579-.759,14.6,14.6,0,0,1,2.044-.485L158.817,19q1.189-.219,1.189-1.244a2.349,2.349,0,0,0-.841-2,3.426,3.426,0,0,0-2.126-.636,3.49,3.49,0,0,0-2.105.615,2.575,2.575,0,0,0-1,1.887L151.8,17.17a4.1,4.1,0,0,1,1.682-2.878,6.283,6.283,0,0,1,3.664-.964,7.431,7.431,0,0,1,1.948.239,5.3,5.3,0,0,1,1.627.752,3.372,3.372,0,0,1,1.162,1.449,5.392,5.392,0,0,1,.417,2.208v5.551a2.271,2.271,0,0,0,.308,1.4,1.328,1.328,0,0,0,1.06.362h.219V27h-1.176a2.242,2.242,0,0,1-2.543-1.818h-.109A5.136,5.136,0,0,1,155.659,27.26Zm.547-1.914a3.586,3.586,0,0,0,2.885-1.3,5.347,5.347,0,0,0,1.094-3.555l-3.555.684a4.785,4.785,0,0,0-2.085.745,1.733,1.733,0,0,0-.677,1.47,1.713,1.713,0,0,0,.649,1.477A2.776,2.776,0,0,0,156.206,25.346ZM167.226,27V6h2.393V27Zm18.963-6.986-.027.643h-10.5a4.749,4.749,0,0,0,1.285,3.438,4.22,4.22,0,0,0,3.063,1.2,4.03,4.03,0,0,0,2.229-.643,4.17,4.17,0,0,0,1.531-1.777l2.133.451a6.062,6.062,0,0,1-2.3,2.885,6.266,6.266,0,0,1-3.568,1.053,6.493,6.493,0,0,1-4.84-1.873,6.968,6.968,0,0,1-1.846-5.113,6.934,6.934,0,0,1,1.853-5.1,6.412,6.412,0,0,1,4.765-1.873,6.067,6.067,0,0,1,4.519,1.723A6.807,6.807,0,0,1,186.188,20.014Zm-6.221-4.895a4.191,4.191,0,0,0-2.8.95,4.353,4.353,0,0,0-1.415,2.769h8.053a3.993,3.993,0,0,0-1.176-2.769A3.8,3.8,0,0,0,179.968,15.119Zm11.389,9.967h7.164V27H187.8l7.082-11.512h-6.672V13.561h10.295Zm13.07,2.174a4.573,4.573,0,0,1-2.946-.923,3.314,3.314,0,0,1-1.155-2.755,3.915,3.915,0,0,1,.369-1.757,3.1,3.1,0,0,1,1.094-1.224,6.561,6.561,0,0,1,1.579-.759,14.6,14.6,0,0,1,2.044-.485L207.585,19q1.189-.219,1.189-1.244a2.349,2.349,0,0,0-.841-2,3.426,3.426,0,0,0-2.126-.636,3.49,3.49,0,0,0-2.105.615,2.575,2.575,0,0,0-1,1.887l-2.133-.451a4.1,4.1,0,0,1,1.682-2.878,6.283,6.283,0,0,1,3.664-.964,7.431,7.431,0,0,1,1.948.239,5.3,5.3,0,0,1,1.627.752,3.372,3.372,0,0,1,1.162,1.449,5.392,5.392,0,0,1,.417,2.208v5.551a2.271,2.271,0,0,0,.308,1.4,1.328,1.328,0,0,0,1.06.362h.219V27h-1.176a2.242,2.242,0,0,1-2.543-1.818h-.109A5.136,5.136,0,0,1,204.427,27.26Zm.547-1.914a3.586,3.586,0,0,0,2.885-1.3,5.347,5.347,0,0,0,1.094-3.555l-3.555.684a4.785,4.785,0,0,0-2.085.745,1.733,1.733,0,0,0-.677,1.47,1.713,1.713,0,0,0,.649,1.477A2.776,2.776,0,0,0,204.974,25.346Zm15.271,1.914a6.371,6.371,0,0,1-3.623-.971,4.015,4.015,0,0,1-1.764-2.762l2.064-.588a2.879,2.879,0,0,0,1.1,1.866,3.57,3.57,0,0,0,2.208.663,4.406,4.406,0,0,0,1.292-.178,2.071,2.071,0,0,0,.991-.663,1.849,1.849,0,0,0,.287-1.777,2.374,2.374,0,0,0-.219-.444,1.354,1.354,0,0,0-.383-.369,5.047,5.047,0,0,0-.465-.287,4.772,4.772,0,0,0-.608-.253q-.4-.144-.649-.219t-.752-.219q-.506-.144-.779-.226a14.578,14.578,0,0,1-1.395-.492,6.116,6.116,0,0,1-1.135-.649,2.613,2.613,0,0,1-.882-1.06,3.585,3.585,0,0,1-.294-1.5,3.475,3.475,0,0,1,.656-2.146,3.692,3.692,0,0,1,1.7-1.265,6.8,6.8,0,0,1,2.386-.39,5.84,5.84,0,0,1,3.274.875,3.735,3.735,0,0,1,1.634,2.625l-1.941.492a2.574,2.574,0,0,0-1.025-1.7A3.265,3.265,0,0,0,220,15.051a3.327,3.327,0,0,0-1.8.472,1.585,1.585,0,0,0-.752,1.442,1.436,1.436,0,0,0,.2.745,2.366,2.366,0,0,0,.4.526,2.479,2.479,0,0,0,.738.4q.533.212.793.287t.984.253q.137.041.205.055.793.205,1.292.362a7.941,7.941,0,0,1,1.162.492,3.863,3.863,0,0,1,1.046.731,3.389,3.389,0,0,1,.656,1.039,3.668,3.668,0,0,1,.273,1.449,3.914,3.914,0,0,1-.4,1.812,3.155,3.155,0,0,1-1.1,1.237,5.323,5.323,0,0,1-1.565.677A7.458,7.458,0,0,1,220.245,27.26Z" transform="translate(666 11458)" fill="#002b45"/>
    <path id="Trazado_22097" data-name="Trazado 22097" d="M79.4,27.26a10.227,10.227,0,0,1-3.787-.69,9.146,9.146,0,0,1-3.042-1.941A8.66,8.66,0,0,1,70.545,21.5a11.3,11.3,0,0,1-.731-4.143,11.113,11.113,0,0,1,.738-4.122A8.643,8.643,0,0,1,75.61,8.174,10.318,10.318,0,0,1,79.4,7.49a10.152,10.152,0,0,1,3.76.69,9.07,9.07,0,0,1,3.035,1.941,8.792,8.792,0,0,1,2.023,3.117,11.113,11.113,0,0,1,.738,4.122,11.22,11.22,0,0,1-.738,4.136,8.77,8.77,0,0,1-2.023,3.131,9.07,9.07,0,0,1-3.035,1.941A10.152,10.152,0,0,1,79.4,27.26Zm0-2.311a6.879,6.879,0,0,0,5.093-2.03,7.539,7.539,0,0,0,2.017-5.558,8.826,8.826,0,0,0-.554-3.2,6.59,6.59,0,0,0-1.518-2.379,6.658,6.658,0,0,0-2.256-1.449A7.563,7.563,0,0,0,79.4,9.828a7.655,7.655,0,0,0-2.8.506,6.716,6.716,0,0,0-2.27,1.449A6.543,6.543,0,0,0,72.8,14.162a8.826,8.826,0,0,0-.554,3.2,8.977,8.977,0,0,0,.554,3.227,6.524,6.524,0,0,0,1.524,2.393,6.8,6.8,0,0,0,2.27,1.456A7.565,7.565,0,0,0,79.4,24.949ZM100.138,13.3a6.113,6.113,0,0,1,2.434.492,5.987,5.987,0,0,1,2,1.381,6.454,6.454,0,0,1,1.347,2.215,8.167,8.167,0,0,1,.5,2.9,7.106,7.106,0,0,1-1.812,5.072,5.884,5.884,0,0,1-4.464,1.928,5.32,5.32,0,0,1-2.81-.766,5.018,5.018,0,0,1-1.921-2.064v9.311H93.042V13.561h2.283l.055,2.611a4.92,4.92,0,0,1,1.914-2.1A5.369,5.369,0,0,1,100.138,13.3Zm-.465,11.936a4.081,4.081,0,0,0,3.11-1.36,5.06,5.06,0,0,0,1.265-3.589,5.035,5.035,0,0,0-1.265-3.582,4.241,4.241,0,0,0-6.269.062,5.04,5.04,0,0,0-1.285,3.521,5.059,5.059,0,0,0,1.285,3.534A4.1,4.1,0,0,0,99.673,25.236Zm16.133,2.023a7.084,7.084,0,0,1-3.445-.834,6.073,6.073,0,0,1-2.427-2.44,7.5,7.5,0,0,1-.9-3.712,6.847,6.847,0,0,1,1.907-5.065,7.155,7.155,0,0,1,9.728,0,6.86,6.86,0,0,1,1.9,5.065,6.865,6.865,0,0,1-1.907,5.079A6.583,6.583,0,0,1,115.806,27.26Zm-.014-1.969a4.128,4.128,0,0,0,3.179-1.381,5.174,5.174,0,0,0,1.265-3.637,5.155,5.155,0,0,0-1.265-3.623,4.128,4.128,0,0,0-3.179-1.381,4.071,4.071,0,0,0-3.151,1.381,5.189,5.189,0,0,0-1.251,3.623,5.209,5.209,0,0,0,1.251,3.637A4.071,4.071,0,0,0,115.792,25.291Zm12.8-9.365a4.063,4.063,0,0,1,1.668-1.8,5.023,5.023,0,0,1,2.584-.711v2.229a4.428,4.428,0,0,0-3.124,1,4.169,4.169,0,0,0-1.073,3.186V27h-2.365V13.561h2.311ZM140.688,27a3.533,3.533,0,0,1-2.625-.964,3.646,3.646,0,0,1-.957-2.687v-7.9h-2.748V13.561h1.012a1.942,1.942,0,0,0,1.483-.472,2.321,2.321,0,0,0,.431-1.579V9.076h2.2v4.484h3.09v1.887h-3.09V23.1A2.037,2.037,0,0,0,140,24.587a1.8,1.8,0,0,0,1.347.526h1.23V27ZM154.36,13.561h2.365V27h-2.27l-.055-1.777a4.2,4.2,0,0,1-1.668,1.511,5.13,5.13,0,0,1-2.352.526A4.675,4.675,0,0,1,147,26.043a4.539,4.539,0,0,1-1.265-3.432V13.561H148.1v8.518a3.189,3.189,0,0,0,.827,2.406,2.928,2.928,0,0,0,2.112.793,3.216,3.216,0,0,0,2.386-.93,3.787,3.787,0,0,0,.937-2.748Zm13.521-.26a4.675,4.675,0,0,1,3.384,1.217,4.539,4.539,0,0,1,1.265,3.432V27h-2.365V18.482a3.177,3.177,0,0,0-.82-2.406,2.933,2.933,0,0,0-2.105-.779,3.251,3.251,0,0,0-2.393.923,3.745,3.745,0,0,0-.943,2.741V27h-2.365V13.561H163.9v1.723A4.488,4.488,0,0,1,167.882,13.3ZM178.3,10.4a1.611,1.611,0,0,1-1.6-1.6,1.517,1.517,0,0,1,.472-1.121,1.55,1.55,0,0,1,1.128-.465,1.535,1.535,0,0,1,1.114.465,1.517,1.517,0,0,1,.472,1.121,1.539,1.539,0,0,1-.472,1.128A1.524,1.524,0,0,1,178.3,10.4ZM177.1,27V13.561h2.379V27ZM194.214,6h2.365V27H194.3l-.055-2.611a4.945,4.945,0,0,1-1.914,2.119,5.334,5.334,0,0,1-2.844.779,6.108,6.108,0,0,1-4.437-1.894,6.472,6.472,0,0,1-1.354-2.222,8.127,8.127,0,0,1-.5-2.885,7.067,7.067,0,0,1,1.825-5.045,5.892,5.892,0,0,1,4.464-1.941,5.356,5.356,0,0,1,2.81.759,4.973,4.973,0,0,1,1.921,2.058Zm-4.238,19.236a4.024,4.024,0,0,0,3.124-1.415,5.108,5.108,0,0,0,1.265-3.534,5.1,5.1,0,0,0-1.271-3.527,4.022,4.022,0,0,0-3.117-1.422,4.113,4.113,0,0,0-3.145,1.374,5.055,5.055,0,0,0-1.271,3.575,5.055,5.055,0,0,0,1.271,3.575A4.113,4.113,0,0,0,189.976,25.236ZM204.5,27.26a4.573,4.573,0,0,1-2.946-.923,3.314,3.314,0,0,1-1.155-2.755,3.915,3.915,0,0,1,.369-1.757,3.1,3.1,0,0,1,1.094-1.224,6.561,6.561,0,0,1,1.579-.759,14.6,14.6,0,0,1,2.044-.485L207.653,19q1.189-.219,1.189-1.244a2.349,2.349,0,0,0-.841-2,3.426,3.426,0,0,0-2.126-.636,3.49,3.49,0,0,0-2.105.615,2.575,2.575,0,0,0-1,1.887l-2.133-.451a4.1,4.1,0,0,1,1.682-2.878,6.283,6.283,0,0,1,3.664-.964,7.431,7.431,0,0,1,1.948.239,5.3,5.3,0,0,1,1.627.752,3.372,3.372,0,0,1,1.162,1.449,5.392,5.392,0,0,1,.417,2.208v5.551a2.271,2.271,0,0,0,.308,1.4,1.328,1.328,0,0,0,1.06.362h.219V27H211.55a2.242,2.242,0,0,1-2.543-1.818H208.9A5.136,5.136,0,0,1,204.5,27.26Zm.547-1.914a3.586,3.586,0,0,0,2.885-1.3,5.347,5.347,0,0,0,1.094-3.555l-3.555.684a4.785,4.785,0,0,0-2.085.745,1.733,1.733,0,0,0-.677,1.47,1.713,1.713,0,0,0,.649,1.477A2.776,2.776,0,0,0,205.042,25.346ZM225.714,6h2.365V27H225.8l-.055-2.611a4.945,4.945,0,0,1-1.914,2.119,5.334,5.334,0,0,1-2.844.779,6.108,6.108,0,0,1-4.437-1.894,6.472,6.472,0,0,1-1.354-2.222,8.127,8.127,0,0,1-.5-2.885,7.067,7.067,0,0,1,1.825-5.045,5.892,5.892,0,0,1,4.464-1.941,5.356,5.356,0,0,1,2.81.759,4.973,4.973,0,0,1,1.921,2.058Zm-4.238,19.236a4.024,4.024,0,0,0,3.124-1.415,5.108,5.108,0,0,0,1.265-3.534,5.1,5.1,0,0,0-1.271-3.527,4.022,4.022,0,0,0-3.117-1.422,4.113,4.113,0,0,0-3.145,1.374,5.055,5.055,0,0,0-1.271,3.575,5.055,5.055,0,0,0,1.271,3.575A4.113,4.113,0,0,0,221.476,25.236Zm23.174-5.223-.027.643h-10.5a4.749,4.749,0,0,0,1.285,3.438,4.22,4.22,0,0,0,3.063,1.2,4.03,4.03,0,0,0,2.229-.643,4.17,4.17,0,0,0,1.531-1.777l2.133.451a6.062,6.062,0,0,1-2.3,2.885A6.266,6.266,0,0,1,238.5,27.26a6.493,6.493,0,0,1-4.84-1.873,6.968,6.968,0,0,1-1.846-5.113,6.934,6.934,0,0,1,1.853-5.1,6.412,6.412,0,0,1,4.765-1.873,6.067,6.067,0,0,1,4.519,1.723A6.807,6.807,0,0,1,244.649,20.014Zm-6.221-4.895a4.191,4.191,0,0,0-2.8.95,4.353,4.353,0,0,0-1.415,2.769h8.053a3.993,3.993,0,0,0-1.176-2.769A3.8,3.8,0,0,0,238.429,15.119ZM252.606,27.26a6.371,6.371,0,0,1-3.623-.971,4.015,4.015,0,0,1-1.764-2.762l2.064-.588a2.879,2.879,0,0,0,1.1,1.866,3.57,3.57,0,0,0,2.208.663,4.406,4.406,0,0,0,1.292-.178,2.071,2.071,0,0,0,.991-.663,1.849,1.849,0,0,0,.287-1.777,2.374,2.374,0,0,0-.219-.444,1.354,1.354,0,0,0-.383-.369,5.047,5.047,0,0,0-.465-.287,4.772,4.772,0,0,0-.608-.253q-.4-.144-.649-.219t-.752-.219q-.506-.144-.779-.226a14.578,14.578,0,0,1-1.395-.492,6.116,6.116,0,0,1-1.135-.649,2.613,2.613,0,0,1-.882-1.06,3.585,3.585,0,0,1-.294-1.5,3.475,3.475,0,0,1,.656-2.146,3.692,3.692,0,0,1,1.7-1.265,6.8,6.8,0,0,1,2.386-.39,5.84,5.84,0,0,1,3.274.875,3.735,3.735,0,0,1,1.634,2.625l-1.941.492a2.574,2.574,0,0,0-1.025-1.7,3.265,3.265,0,0,0-1.928-.567,3.327,3.327,0,0,0-1.8.472,1.585,1.585,0,0,0-.752,1.442,1.436,1.436,0,0,0,.2.745,2.366,2.366,0,0,0,.4.526,2.479,2.479,0,0,0,.738.4q.533.212.793.287t.984.253q.137.041.205.055.793.205,1.292.362a7.941,7.941,0,0,1,1.162.492,3.864,3.864,0,0,1,1.046.731,3.388,3.388,0,0,1,.656,1.039,3.668,3.668,0,0,1,.273,1.449,3.914,3.914,0,0,1-.4,1.812,3.155,3.155,0,0,1-1.1,1.237,5.323,5.323,0,0,1-1.565.677A7.458,7.458,0,0,1,252.606,27.26Z" transform="translate(666 11545)" fill="#002b45"/>
    <path id="Rectángulo_4367" data-name="Rectángulo 4367" d="M695.944,1109.935h327l17.907,39-17.907,39h-327Z" transform="translate(-365.944 10152.064)" fill="#b869c3"/>
    <path id="Rectángulo_4367-2" data-name="Rectángulo 4367" d="M695.944,1109.935h327l17.907,39-17.907,39h-327Z" transform="translate(-365.944 10239.064)" fill="#b869c3"/>
    <path id="Rectángulo_4367-3" data-name="Rectángulo 4367" d="M695.944,1109.935h327l17.907,39-17.907,39h-327Z" transform="translate(-365.944 10326.064)" fill="#b869c3"/>
    <path id="Rectángulo_4367-4" data-name="Rectángulo 4367" d="M695.944,1109.935h327l17.907,39-17.907,39h-327Z" transform="translate(-365.944 10413.064)" fill="#b869c3"/>
    <path id="Trazado_22085" data-name="Trazado 22085" d="M127.9,27l-1.654-4.607h-8.709L115.895,27h-2.557l7.1-19.25h2.926l7.1,19.25Zm-9.584-6.768h7.164L121.9,10.211Zm21.533-12.25h-.513q-.157,0-.492.027a3.155,3.155,0,0,0-.492.068q-.157.041-.424.137a1.081,1.081,0,0,0-.4.232q-.137.137-.314.349a1.429,1.429,0,0,0-.267.492,4.7,4.7,0,0,0-.15.656,5.234,5.234,0,0,0-.062.841v2.775h3.117v1.887H136.73V27h-2.352V15.447h-2.6V13.561h2.6V10.744a7.729,7.729,0,0,1,.144-1.565A5.078,5.078,0,0,1,134.905,8a2.81,2.81,0,0,1,.636-.854,3.741,3.741,0,0,1,.827-.581,4.106,4.106,0,0,1,1.019-.342,9.56,9.56,0,0,1,1.155-.171Q139.109,6,139.848,6Zm5.045,7.943a4.063,4.063,0,0,1,1.668-1.8,5.023,5.023,0,0,1,2.584-.711v2.229a4.428,4.428,0,0,0-3.124,1,4.169,4.169,0,0,0-1.073,3.186V27h-2.365V13.561h2.311ZM157.416,27.26a7.084,7.084,0,0,1-3.445-.834,6.073,6.073,0,0,1-2.427-2.44,7.5,7.5,0,0,1-.9-3.712,6.847,6.847,0,0,1,1.907-5.065,7.155,7.155,0,0,1,9.728,0,6.86,6.86,0,0,1,1.9,5.065,6.865,6.865,0,0,1-1.907,5.079A6.583,6.583,0,0,1,157.416,27.26Zm-.014-1.969a4.128,4.128,0,0,0,3.179-1.381,5.174,5.174,0,0,0,1.265-3.637,5.155,5.155,0,0,0-1.265-3.623A4.128,4.128,0,0,0,157.4,15.27a4.071,4.071,0,0,0-3.151,1.381A5.189,5.189,0,0,0,153,20.273a5.209,5.209,0,0,0,1.251,3.637A4.071,4.071,0,0,0,157.4,25.291Zm16.83-11.99a4.675,4.675,0,0,1,3.384,1.217,4.539,4.539,0,0,1,1.265,3.432V27h-2.365V18.482a3.177,3.177,0,0,0-.82-2.406,2.933,2.933,0,0,0-2.105-.779,3.251,3.251,0,0,0-2.393.923,3.745,3.745,0,0,0-.943,2.741V27h-2.365V13.561h2.365v1.723A4.488,4.488,0,0,1,174.232,13.3ZM187.74,27a3.533,3.533,0,0,1-2.625-.964,3.646,3.646,0,0,1-.957-2.687v-7.9H181.41V13.561h1.012a1.942,1.942,0,0,0,1.483-.472,2.321,2.321,0,0,0,.431-1.579V9.076h2.2v4.484h3.09v1.887h-3.09V23.1a2.037,2.037,0,0,0,.513,1.483,1.8,1.8,0,0,0,1.347.526h1.23V27Zm8.244.26a4.573,4.573,0,0,1-2.946-.923,3.314,3.314,0,0,1-1.155-2.755,3.915,3.915,0,0,1,.369-1.757,3.1,3.1,0,0,1,1.094-1.224,6.561,6.561,0,0,1,1.579-.759,14.6,14.6,0,0,1,2.044-.485L199.143,19q1.189-.219,1.189-1.244a2.349,2.349,0,0,0-.841-2,3.426,3.426,0,0,0-2.126-.636,3.49,3.49,0,0,0-2.105.615,2.575,2.575,0,0,0-1,1.887l-2.133-.451a4.1,4.1,0,0,1,1.682-2.878,6.283,6.283,0,0,1,3.664-.964,7.431,7.431,0,0,1,1.948.239,5.3,5.3,0,0,1,1.627.752,3.372,3.372,0,0,1,1.162,1.449,5.392,5.392,0,0,1,.417,2.208v5.551a2.271,2.271,0,0,0,.308,1.4,1.328,1.328,0,0,0,1.06.362h.219V27h-1.176a2.242,2.242,0,0,1-2.543-1.818h-.109A5.136,5.136,0,0,1,195.984,27.26Zm.547-1.914a3.586,3.586,0,0,0,2.885-1.3,5.347,5.347,0,0,0,1.094-3.555l-3.555.684a4.785,4.785,0,0,0-2.085.745,1.733,1.733,0,0,0-.677,1.47,1.713,1.713,0,0,0,.649,1.477A2.776,2.776,0,0,0,196.531,25.346Zm13.33-9.42a4.063,4.063,0,0,1,1.668-1.8,5.023,5.023,0,0,1,2.584-.711v2.229a4.428,4.428,0,0,0-3.124,1,4.169,4.169,0,0,0-1.073,3.186V27h-2.365V13.561h2.311Z" transform="translate(330 11371)" fill="#fff"/>
    <path id="Trazado_22095" data-name="Trazado 22095" d="M126.395,27h-2.379L122.73,11.113,116.578,27h-1.463L109,11.168,107.705,27h-2.393l1.463-19.25H110l5.838,15.012L121.691,7.75h3.254Zm7.615.26a4.573,4.573,0,0,1-2.946-.923,3.314,3.314,0,0,1-1.155-2.755,3.915,3.915,0,0,1,.369-1.757,3.1,3.1,0,0,1,1.094-1.224,6.561,6.561,0,0,1,1.579-.759,14.6,14.6,0,0,1,2.044-.485L137.168,19q1.189-.219,1.189-1.244a2.349,2.349,0,0,0-.841-2,3.426,3.426,0,0,0-2.126-.636,3.49,3.49,0,0,0-2.105.615,2.575,2.575,0,0,0-1,1.887l-2.133-.451a4.1,4.1,0,0,1,1.682-2.878,6.283,6.283,0,0,1,3.664-.964,7.431,7.431,0,0,1,1.948.239,5.3,5.3,0,0,1,1.627.752,3.372,3.372,0,0,1,1.162,1.449,5.392,5.392,0,0,1,.417,2.208v5.551a2.271,2.271,0,0,0,.308,1.4,1.328,1.328,0,0,0,1.06.362h.219V27h-1.176a2.242,2.242,0,0,1-2.543-1.818h-.109A5.136,5.136,0,0,1,134.01,27.26Zm.547-1.914a3.586,3.586,0,0,0,2.885-1.3,5.347,5.347,0,0,0,1.094-3.555l-3.555.684a4.785,4.785,0,0,0-2.085.745,1.733,1.733,0,0,0-.677,1.47,1.713,1.713,0,0,0,.649,1.477A2.776,2.776,0,0,0,134.557,25.346ZM151.92,13.3a4.675,4.675,0,0,1,3.384,1.217,4.539,4.539,0,0,1,1.265,3.432V27H154.2V18.482a3.177,3.177,0,0,0-.82-2.406,2.933,2.933,0,0,0-2.105-.779,3.251,3.251,0,0,0-2.393.923,3.745,3.745,0,0,0-.943,2.741V27h-2.365V13.561h2.365v1.723A4.488,4.488,0,0,1,151.92,13.3ZM165.428,27a3.533,3.533,0,0,1-2.625-.964,3.646,3.646,0,0,1-.957-2.687v-7.9H159.1V13.561h1.012a1.942,1.942,0,0,0,1.483-.472,2.321,2.321,0,0,0,.431-1.579V9.076h2.2v4.484h3.09v1.887h-3.09V23.1a2.037,2.037,0,0,0,.513,1.483,1.8,1.8,0,0,0,1.347.526h1.23V27Zm16.9-6.986-.027.643H171.8a4.749,4.749,0,0,0,1.285,3.438,4.22,4.22,0,0,0,3.063,1.2,4.03,4.03,0,0,0,2.229-.643,4.17,4.17,0,0,0,1.531-1.777l2.133.451a6.062,6.062,0,0,1-2.3,2.885,6.266,6.266,0,0,1-3.568,1.053,6.493,6.493,0,0,1-4.84-1.873,6.968,6.968,0,0,1-1.846-5.113,6.934,6.934,0,0,1,1.853-5.1,6.412,6.412,0,0,1,4.765-1.873,6.067,6.067,0,0,1,4.519,1.723A6.807,6.807,0,0,1,182.326,20.014Zm-6.221-4.895a4.191,4.191,0,0,0-2.8.95,4.353,4.353,0,0,0-1.415,2.769h8.053a3.993,3.993,0,0,0-1.176-2.769A3.8,3.8,0,0,0,176.105,15.119Zm16.27-1.818a4.675,4.675,0,0,1,3.384,1.217,4.539,4.539,0,0,1,1.265,3.432V27h-2.365V18.482a3.177,3.177,0,0,0-.82-2.406,2.933,2.933,0,0,0-2.105-.779,3.251,3.251,0,0,0-2.393.923,3.745,3.745,0,0,0-.943,2.741V27h-2.365V13.561H188.4v1.723A4.488,4.488,0,0,1,192.375,13.3Zm20.973,6.713-.027.643h-10.5a4.749,4.749,0,0,0,1.285,3.438,4.22,4.22,0,0,0,3.063,1.2,4.03,4.03,0,0,0,2.229-.643,4.17,4.17,0,0,0,1.531-1.777l2.133.451a6.062,6.062,0,0,1-2.3,2.885A6.266,6.266,0,0,1,207.2,27.26a6.493,6.493,0,0,1-4.84-1.873,6.968,6.968,0,0,1-1.846-5.113,6.934,6.934,0,0,1,1.853-5.1,6.412,6.412,0,0,1,4.765-1.873,6.067,6.067,0,0,1,4.519,1.723A6.807,6.807,0,0,1,213.348,20.014Zm-6.221-4.895a4.191,4.191,0,0,0-2.8.95,4.353,4.353,0,0,0-1.415,2.769h8.053a3.993,3.993,0,0,0-1.176-2.769A3.8,3.8,0,0,0,207.127,15.119Zm12.236.807a4.063,4.063,0,0,1,1.668-1.8,5.023,5.023,0,0,1,2.584-.711v2.229a4.428,4.428,0,0,0-3.124,1,4.169,4.169,0,0,0-1.073,3.186V27h-2.365V13.561h2.311Z" transform="translate(330 11458)" fill="#fff"/>
    <path id="Trazado_22098" data-name="Trazado 22098" d="M125.28,9.979h-7.82v6.3h6.891v2.2H117.46v6.289h7.82V27H114.958V7.75H125.28ZM127.454,27l5.168-6.727-5.168-6.713h2.912l3.719,5.141,3.719-5.141h2.871l-5.182,6.713L140.675,27H137.79L134.1,21.887,130.366,27Zm23.229-13.7a6.113,6.113,0,0,1,2.434.492,5.987,5.987,0,0,1,2,1.381,6.454,6.454,0,0,1,1.347,2.215,8.167,8.167,0,0,1,.5,2.9,7.106,7.106,0,0,1-1.812,5.072,5.884,5.884,0,0,1-4.464,1.928,5.32,5.32,0,0,1-2.81-.766,5.018,5.018,0,0,1-1.921-2.064v9.311h-2.365V13.561h2.283l.055,2.611a4.92,4.92,0,0,1,1.914-2.1A5.369,5.369,0,0,1,150.683,13.3Zm-.465,11.936a4.081,4.081,0,0,0,3.11-1.36,5.06,5.06,0,0,0,1.265-3.589,5.035,5.035,0,0,0-1.265-3.582,4.241,4.241,0,0,0-6.269.062,5.041,5.041,0,0,0-1.285,3.521,5.059,5.059,0,0,0,1.285,3.534A4.1,4.1,0,0,0,150.218,25.236ZM160.69,27V6h2.393V27Zm12.865.26a7.084,7.084,0,0,1-3.445-.834,6.073,6.073,0,0,1-2.427-2.44,7.5,7.5,0,0,1-.9-3.712,6.847,6.847,0,0,1,1.907-5.065,7.155,7.155,0,0,1,9.728,0,6.86,6.86,0,0,1,1.9,5.065,6.865,6.865,0,0,1-1.907,5.079A6.583,6.583,0,0,1,173.556,27.26Zm-.014-1.969a4.128,4.128,0,0,0,3.179-1.381,5.174,5.174,0,0,0,1.265-3.637,5.155,5.155,0,0,0-1.265-3.623,4.128,4.128,0,0,0-3.179-1.381,4.071,4.071,0,0,0-3.151,1.381,5.189,5.189,0,0,0-1.251,3.623,5.209,5.209,0,0,0,1.251,3.637A4.071,4.071,0,0,0,173.542,25.291ZM188.321,27a3.533,3.533,0,0,1-2.625-.964,3.646,3.646,0,0,1-.957-2.687v-7.9h-2.748V13.561H183a1.942,1.942,0,0,0,1.483-.472,2.321,2.321,0,0,0,.431-1.579V9.076h2.2v4.484h3.09v1.887h-3.09V23.1a2.037,2.037,0,0,0,.513,1.483,1.8,1.8,0,0,0,1.347.526h1.23V27Zm8.244.26a4.573,4.573,0,0,1-2.946-.923,3.314,3.314,0,0,1-1.155-2.755,3.915,3.915,0,0,1,.369-1.757,3.1,3.1,0,0,1,1.094-1.224,6.561,6.561,0,0,1,1.579-.759,14.6,14.6,0,0,1,2.044-.485L199.724,19q1.189-.219,1.189-1.244a2.349,2.349,0,0,0-.841-2,3.426,3.426,0,0,0-2.126-.636,3.49,3.49,0,0,0-2.105.615,2.575,2.575,0,0,0-1,1.887l-2.133-.451a4.1,4.1,0,0,1,1.682-2.878,6.283,6.283,0,0,1,3.664-.964,7.431,7.431,0,0,1,1.948.239,5.3,5.3,0,0,1,1.627.752,3.372,3.372,0,0,1,1.162,1.449,5.392,5.392,0,0,1,.417,2.208v5.551a2.271,2.271,0,0,0,.308,1.4,1.328,1.328,0,0,0,1.06.362h.219V27H203.62a2.242,2.242,0,0,1-2.543-1.818h-.109A5.136,5.136,0,0,1,196.565,27.26Zm.547-1.914a3.586,3.586,0,0,0,2.885-1.3,5.347,5.347,0,0,0,1.094-3.555l-3.555.684a4.785,4.785,0,0,0-2.085.745,1.733,1.733,0,0,0-.677,1.47,1.713,1.713,0,0,0,.649,1.477A2.776,2.776,0,0,0,197.112,25.346Zm13.33-9.42a4.063,4.063,0,0,1,1.668-1.8,5.023,5.023,0,0,1,2.584-.711v2.229a4.428,4.428,0,0,0-3.124,1,4.169,4.169,0,0,0-1.073,3.186V27h-2.365V13.561h2.311Z" transform="translate(330 11545)" fill="#fff"/>
    <path id="Trazado_22086" data-name="Trazado 22086" d="M122.553,27.26a10.227,10.227,0,0,1-3.787-.69,9.146,9.146,0,0,1-3.042-1.941A8.66,8.66,0,0,1,113.7,21.5a11.3,11.3,0,0,1-.731-4.143,11.113,11.113,0,0,1,.738-4.122,8.643,8.643,0,0,1,5.059-5.065,10.318,10.318,0,0,1,3.787-.684,9.78,9.78,0,0,1,5.12,1.354,8.433,8.433,0,0,1,3.384,3.76l-2.256.93a6.339,6.339,0,0,0-2.522-2.741,7.239,7.239,0,0,0-3.726-.964,7.655,7.655,0,0,0-2.8.506,6.716,6.716,0,0,0-2.27,1.449,6.543,6.543,0,0,0-1.524,2.379,8.826,8.826,0,0,0-.554,3.2,8.881,8.881,0,0,0,.554,3.206,6.533,6.533,0,0,0,1.524,2.386,6.8,6.8,0,0,0,2.27,1.456,7.565,7.565,0,0,0,2.8.513,7.239,7.239,0,0,0,3.726-.964A6.355,6.355,0,0,0,128.8,21.23l2.256.916a8.39,8.39,0,0,1-3.377,3.767A9.808,9.808,0,0,1,122.553,27.26Zm17.746,0a7.084,7.084,0,0,1-3.445-.834,6.073,6.073,0,0,1-2.427-2.44,7.5,7.5,0,0,1-.9-3.712,6.847,6.847,0,0,1,1.907-5.065,7.155,7.155,0,0,1,9.728,0,6.86,6.86,0,0,1,1.9,5.065,6.865,6.865,0,0,1-1.907,5.079A6.583,6.583,0,0,1,140.3,27.26Zm-.014-1.969a4.128,4.128,0,0,0,3.179-1.381,5.174,5.174,0,0,0,1.265-3.637,5.155,5.155,0,0,0-1.265-3.623,4.128,4.128,0,0,0-3.179-1.381,4.071,4.071,0,0,0-3.151,1.381,5.189,5.189,0,0,0-1.251,3.623,5.209,5.209,0,0,0,1.251,3.637A4.071,4.071,0,0,0,140.285,25.291Zm12.8-9.365a4.063,4.063,0,0,1,1.668-1.8,5.023,5.023,0,0,1,2.584-.711v2.229a4.428,4.428,0,0,0-3.124,1,4.169,4.169,0,0,0-1.073,3.186V27h-2.365V13.561h2.311Zm9.338,0a4.063,4.063,0,0,1,1.668-1.8,5.023,5.023,0,0,1,2.584-.711v2.229a4.428,4.428,0,0,0-3.124,1,4.169,4.169,0,0,0-1.073,3.186V27h-2.365V13.561h2.311Zm18.621,4.088-.027.643h-10.5a4.749,4.749,0,0,0,1.285,3.438,4.22,4.22,0,0,0,3.063,1.2,4.03,4.03,0,0,0,2.229-.643,4.17,4.17,0,0,0,1.531-1.777l2.133.451a6.062,6.062,0,0,1-2.3,2.885,6.266,6.266,0,0,1-3.568,1.053,6.493,6.493,0,0,1-4.84-1.873,6.968,6.968,0,0,1-1.846-5.113,6.934,6.934,0,0,1,1.853-5.1A6.412,6.412,0,0,1,174.82,13.3a6.067,6.067,0,0,1,4.519,1.723A6.807,6.807,0,0,1,181.041,20.014Zm-6.221-4.895a4.191,4.191,0,0,0-2.8.95,4.353,4.353,0,0,0-1.415,2.769h8.053a3.993,3.993,0,0,0-1.176-2.769A3.8,3.8,0,0,0,174.82,15.119Zm19.66-1.559h2.3V26.316a7.321,7.321,0,0,1-1.736,5.236,6.312,6.312,0,0,1-4.812,1.832q-4.881,0-6.521-4.115l1.955-.957a4.443,4.443,0,0,0,4.5,3.1,3.858,3.858,0,0,0,3.151-1.312,5.586,5.586,0,0,0,1.087-3.664V23.951a4.736,4.736,0,0,1-1.914,1.935,5.569,5.569,0,0,1-2.8.731,5.762,5.762,0,0,1-4.348-1.894,6.678,6.678,0,0,1-1.791-4.778,6.616,6.616,0,0,1,1.8-4.765,5.818,5.818,0,0,1,4.368-1.88,5.43,5.43,0,0,1,2.816.752,4.841,4.841,0,0,1,1.9,1.982Zm-4.266,11.047a4.066,4.066,0,0,0,3.1-1.381,4.878,4.878,0,0,0,.007-6.576,4.213,4.213,0,0,0-6.2-.041,4.672,4.672,0,0,0-1.265,3.336,4.633,4.633,0,0,0,1.278,3.315A4.1,4.1,0,0,0,190.215,24.607ZM202.793,10.4a1.611,1.611,0,0,1-1.6-1.6,1.517,1.517,0,0,1,.472-1.121,1.55,1.55,0,0,1,1.128-.465,1.535,1.535,0,0,1,1.114.465,1.517,1.517,0,0,1,.472,1.121,1.539,1.539,0,0,1-.472,1.128A1.524,1.524,0,0,1,202.793,10.4ZM201.59,27V13.561h2.379V27Zm9.5-11.074a4.063,4.063,0,0,1,1.668-1.8,5.023,5.023,0,0,1,2.584-.711v2.229a4.428,4.428,0,0,0-3.124,1,4.169,4.169,0,0,0-1.073,3.186V27h-2.365V13.561h2.311Z" transform="translate(330 11284)" fill="#fff"/>
  </g>
</svg>
