<svg xmlns="http://www.w3.org/2000/svg" xmlns:xlink="http://www.w3.org/1999/xlink" width="666.523" height="296.255" viewBox="0 0 666.523 296.255">
  <defs>
    <clipPath id="clip-path">
      <path id="Trazado_21662" data-name="Trazado 21662" d="M1131.884,540.88h-67.545A67.546,67.546,0,0,1,996.8,473.332v-.038a67.545,67.545,0,0,1,67.544-67.544h0a67.545,67.545,0,0,1,67.545,67.544Z" transform="translate(-996.795 -405.75)" fill="none" clip-rule="evenodd"/>
    </clipPath>
    <clipPath id="clip-path-2">
      <path id="Trazado_21709" data-name="Trazado 21709" d="M1523.978,542.132V474.587a67.545,67.545,0,0,1,67.547-67.544h.038a67.545,67.545,0,0,1,67.544,67.544h0a67.545,67.545,0,0,1-67.544,67.544Z" transform="translate(-1523.978 -407.043)" fill="none" clip-rule="evenodd"/>
    </clipPath>
    <clipPath id="clip-path-3">
      <path id="Trazado_21776" data-name="Trazado 21776" d="M1522.825,934.226h67.545a67.546,67.546,0,0,1,67.545,67.547v.038a67.545,67.545,0,0,1-67.545,67.544h0a67.545,67.545,0,0,1-67.545-67.544Z" transform="translate(-1522.825 -934.226)" fill="none" clip-rule="evenodd"/>
    </clipPath>
    <clipPath id="clip-path-4">
      <path id="Trazado_21839" data-name="Trazado 21839" d="M1130.627,933.073v67.544a67.546,67.546,0,0,1-67.547,67.544h-.038a67.545,67.545,0,0,1-67.545-67.544h0a67.545,67.545,0,0,1,67.545-67.544Z" transform="translate(-995.498 -933.073)" fill="none" clip-rule="evenodd"/>
    </clipPath>
  </defs>
  <g id="Grupo_27556" data-name="Grupo 27556" transform="translate(-341.571 -10122.628)">
    <g id="Grupo_27552" data-name="Grupo 27552" transform="translate(-451.868 9716.878)">
      <g id="Grupo_27494" data-name="Grupo 27494" transform="translate(995.498 405.75)">
        <g id="Grupo_27481" data-name="Grupo 27481" transform="translate(0.365 0)">
          <g id="Grupo_27480" data-name="Grupo 27480">
            <g id="Grupo_27479" data-name="Grupo 27479">
              <g id="Grupo_27478" data-name="Grupo 27478" clip-path="url(#clip-path)">
                <path id="Trazado_21607" data-name="Trazado 21607" d="M1006.284,405.75l-9.489,9.3v-9.3Z" transform="translate(-996.795 -405.75)" fill="#34cbe6"/>
                <path id="Trazado_21608" data-name="Trazado 21608" d="M1011.2,405.75l-14.4,14.115v-4.817l9.489-9.3Z" transform="translate(-996.795 -405.75)" fill="#34cbe6"/>
                <path id="Trazado_21609" data-name="Trazado 21609" d="M1016.113,405.75,996.8,424.682v-4.817l14.4-14.115Z" transform="translate(-996.795 -405.75)" fill="#33cae5"/>
                <path id="Trazado_21610" data-name="Trazado 21610" d="M1021.028,405.75,996.8,429.5v-4.817l19.318-18.932Z" transform="translate(-996.795 -405.75)" fill="#32c9e4"/>
                <path id="Trazado_21611" data-name="Trazado 21611" d="M1025.943,405.75,996.8,434.315V429.5l24.233-23.748Z" transform="translate(-996.795 -405.75)" fill="#31c8e3"/>
                <path id="Trazado_21612" data-name="Trazado 21612" d="M1030.858,405.75,996.8,439.131v-4.817l29.148-28.565Z" transform="translate(-996.795 -405.75)" fill="#30c7e2"/>
                <path id="Trazado_21613" data-name="Trazado 21613" d="M1035.773,405.75l-38.978,38.2v-4.817l34.063-33.381Z" transform="translate(-996.795 -405.75)" fill="#2fc6e1"/>
                <path id="Trazado_21614" data-name="Trazado 21614" d="M1040.687,405.75,996.8,448.765v-4.817l38.978-38.2Z" transform="translate(-996.795 -405.75)" fill="#2ec5e0"/>
                <path id="Trazado_21615" data-name="Trazado 21615" d="M1045.6,405.75,996.8,453.581v-4.817l43.892-43.015Z" transform="translate(-996.795 -405.75)" fill="#2dc4df"/>
                <path id="Trazado_21616" data-name="Trazado 21616" d="M1050.517,405.75,996.8,458.4v-4.817L1045.6,405.75Z" transform="translate(-996.795 -405.75)" fill="#2cc3de"/>
                <path id="Trazado_21617" data-name="Trazado 21617" d="M1055.432,405.75,996.8,463.214V458.4l53.722-52.648Z" transform="translate(-996.795 -405.75)" fill="#2bc2dd"/>
                <path id="Trazado_21618" data-name="Trazado 21618" d="M1060.347,405.75,996.8,468.031v-4.817l58.637-57.464Z" transform="translate(-996.795 -405.75)" fill="#2ac1dc"/>
                <path id="Trazado_21619" data-name="Trazado 21619" d="M1065.261,405.75l-68.466,67.1v-4.817l63.552-62.281Z" transform="translate(-996.795 -405.75)" fill="#29c0db"/>
                <path id="Trazado_21620" data-name="Trazado 21620" d="M1070.176,405.75,996.8,477.664v-4.817l68.466-67.1Z" transform="translate(-996.795 -405.75)" fill="#28bfda"/>
                <path id="Trazado_21621" data-name="Trazado 21621" d="M1075.091,405.75l-78.3,76.73v-4.817l73.381-71.914Z" transform="translate(-996.795 -405.75)" fill="#27bed9"/>
                <path id="Trazado_21622" data-name="Trazado 21622" d="M1080.006,405.75,996.8,487.3V482.48l78.3-76.73Z" transform="translate(-996.795 -405.75)" fill="#27bdd8"/>
                <path id="Trazado_21623" data-name="Trazado 21623" d="M1084.921,405.75,996.8,492.113V487.3l83.211-81.547Z" transform="translate(-996.795 -405.75)" fill="#26bcd7"/>
                <path id="Trazado_21624" data-name="Trazado 21624" d="M1089.836,405.75,996.8,496.93v-4.817l88.126-86.363Z" transform="translate(-996.795 -405.75)" fill="#25bbd6"/>
                <path id="Trazado_21625" data-name="Trazado 21625" d="M1094.75,405.75l-97.955,96V496.93l93.041-91.18Z" transform="translate(-996.795 -405.75)" fill="#24bad5"/>
                <path id="Trazado_21626" data-name="Trazado 21626" d="M1099.665,405.75,996.8,506.563v-4.817l97.955-96Z" transform="translate(-996.795 -405.75)" fill="#23b9d4"/>
                <path id="Trazado_21627" data-name="Trazado 21627" d="M1104.58,405.75,996.8,511.379v-4.817l102.87-100.813Z" transform="translate(-996.795 -405.75)" fill="#22b8d3"/>
                <path id="Trazado_21628" data-name="Trazado 21628" d="M1109.495,405.75,996.8,516.2v-4.817L1104.58,405.75Z" transform="translate(-996.795 -405.75)" fill="#21b7d2"/>
                <path id="Trazado_21629" data-name="Trazado 21629" d="M1114.41,405.75,996.8,521.012V516.2l112.7-110.446Z" transform="translate(-996.795 -405.75)" fill="#20b6d1"/>
                <path id="Trazado_21630" data-name="Trazado 21630" d="M1119.325,405.75,996.8,525.829v-4.817L1114.41,405.75Z" transform="translate(-996.795 -405.75)" fill="#1fb5d0"/>
                <path id="Trazado_21631" data-name="Trazado 21631" d="M1124.239,405.75,996.8,530.646v-4.817l122.53-120.079Z" transform="translate(-996.795 -405.75)" fill="#1eb4cf"/>
                <path id="Trazado_21632" data-name="Trazado 21632" d="M1129.154,405.75,996.8,535.462v-4.817l127.444-124.9Z" transform="translate(-996.795 -405.75)" fill="#1db3ce"/>
                <path id="Trazado_21633" data-name="Trazado 21633" d="M1131.884,407.891,996.8,540.279v-4.817L1129.154,405.75h2.73Z" transform="translate(-996.795 -405.75)" fill="#1cb2cd"/>
                <path id="Trazado_21634" data-name="Trazado 21634" d="M1131.884,418.181,1001.1,546.353h-4.3v-.6l135.089-132.387Z" transform="translate(-996.795 -411.223)" fill="#1bb1cc"/>
                <path id="Trazado_21635" data-name="Trazado 21635" d="M1142.879,435.309,1017.006,558.664h-4.915l130.787-128.172Z" transform="translate(-1007.79 -423.534)" fill="#1ab0cb"/>
                <path id="Trazado_21636" data-name="Trazado 21636" d="M1155.441,452.437,1034.484,570.975h-4.915L1155.441,447.62Z" transform="translate(-1020.352 -435.846)" fill="#19aec9"/>
                <path id="Trazado_21637" data-name="Trazado 21637" d="M1168,469.564,1051.961,583.286h-4.915L1168,464.748Z" transform="translate(-1032.915 -448.157)" fill="#18adc8"/>
                <path id="Trazado_21638" data-name="Trazado 21638" d="M1180.566,486.692,1069.438,595.6h-4.915l116.043-113.722Z" transform="translate(-1045.477 -460.468)" fill="#17acc7"/>
                <path id="Trazado_21639" data-name="Trazado 21639" d="M1193.129,503.82,1086.915,607.909H1082L1193.129,499Z" transform="translate(-1058.04 -472.779)" fill="#16abc6"/>
                <path id="Trazado_21640" data-name="Trazado 21640" d="M1205.691,520.947l-101.3,99.272h-4.915l106.213-104.089Z" transform="translate(-1070.602 -485.09)" fill="#15aac5"/>
                <path id="Trazado_21641" data-name="Trazado 21641" d="M1218.253,538.075l-96.384,94.456h-4.915l101.3-99.272Z" transform="translate(-1083.164 -497.402)" fill="#14a9c4"/>
                <path id="Trazado_21642" data-name="Trazado 21642" d="M1230.816,555.2l-91.469,89.639h-4.915l96.384-94.456Z" transform="translate(-1095.727 -509.713)" fill="#13a8c3"/>
                <path id="Trazado_21643" data-name="Trazado 21643" d="M1243.378,572.331l-86.554,84.823h-4.915l91.469-89.639Z" transform="translate(-1108.289 -522.024)" fill="#12a7c2"/>
                <path id="Trazado_21644" data-name="Trazado 21644" d="M1255.941,589.458,1174.3,669.465h-4.915l86.554-84.823Z" transform="translate(-1120.852 -534.335)" fill="#11a6c1"/>
                <path id="Trazado_21645" data-name="Trazado 21645" d="M1268.5,606.586l-76.724,75.19h-4.915l81.639-80.006Z" transform="translate(-1133.414 -546.646)" fill="#10a5c0"/>
                <path id="Trazado_21646" data-name="Trazado 21646" d="M1281.066,623.714l-71.81,70.373h-4.915l76.724-75.19Z" transform="translate(-1145.977 -558.957)" fill="#0fa4bf"/>
                <path id="Trazado_21647" data-name="Trazado 21647" d="M1293.628,640.841,1226.733,706.4h-4.915l71.809-70.373Z" transform="translate(-1158.539 -571.269)" fill="#0ea3be"/>
                <path id="Trazado_21648" data-name="Trazado 21648" d="M1306.19,657.969l-61.98,60.74H1239.3l66.895-65.557Z" transform="translate(-1171.101 -583.58)" fill="#0da2bd"/>
                <path id="Trazado_21649" data-name="Trazado 21649" d="M1318.753,675.1l-57.065,55.924h-4.915l61.98-60.74Z" transform="translate(-1183.664 -595.891)" fill="#0da1bc"/>
                <path id="Trazado_21650" data-name="Trazado 21650" d="M1331.315,692.224l-52.15,51.107h-4.915l57.065-55.924Z" transform="translate(-1196.226 -608.202)" fill="#0ca0bb"/>
                <path id="Trazado_21651" data-name="Trazado 21651" d="M1343.878,709.352l-47.235,46.291h-4.915l52.15-51.107Z" transform="translate(-1208.789 -620.513)" fill="#0b9fba"/>
                <path id="Trazado_21652" data-name="Trazado 21652" d="M1356.44,726.48l-42.321,41.474H1309.2l47.235-46.291Z" transform="translate(-1221.351 -632.824)" fill="#0a9eb9"/>
                <path id="Trazado_21653" data-name="Trazado 21653" d="M1369,743.608,1331.6,780.265h-4.915L1369,738.791Z" transform="translate(-1233.914 -645.136)" fill="#099db8"/>
                <path id="Trazado_21654" data-name="Trazado 21654" d="M1381.565,760.735l-32.491,31.841h-4.915l37.406-36.658Z" transform="translate(-1246.476 -657.447)" fill="#089cb7"/>
                <path id="Trazado_21655" data-name="Trazado 21655" d="M1394.127,777.863l-27.576,27.025h-4.915l32.491-31.841Z" transform="translate(-1259.038 -669.758)" fill="#079bb6"/>
                <path id="Trazado_21656" data-name="Trazado 21656" d="M1406.69,794.991,1384.028,817.2h-4.915l27.576-27.025Z" transform="translate(-1271.601 -682.069)" fill="#069ab5"/>
                <path id="Trazado_21657" data-name="Trazado 21657" d="M1419.252,812.118l-17.746,17.392h-4.915l22.661-22.208Z" transform="translate(-1284.163 -694.38)" fill="#0599b4"/>
                <path id="Trazado_21658" data-name="Trazado 21658" d="M1431.815,829.246l-12.832,12.575h-4.915l17.746-17.392Z" transform="translate(-1296.726 -706.691)" fill="#0498b3"/>
                <path id="Trazado_21659" data-name="Trazado 21659" d="M1444.377,846.374l-7.917,7.758h-4.915l12.832-12.575Z" transform="translate(-1309.288 -719.003)" fill="#0397b2"/>
                <path id="Trazado_21660" data-name="Trazado 21660" d="M1456.939,863.5l-3,2.942h-4.915l7.917-7.758Z" transform="translate(-1321.85 -731.314)" fill="#0296b1"/>
                <path id="Trazado_21661" data-name="Trazado 21661" d="M1466.5,878.755l3-2.942v2.942Z" transform="translate(-1334.413 -743.625)" fill="#0195b0"/>
              </g>
            </g>
          </g>
        </g>
        <g id="Grupo_27485" data-name="Grupo 27485" transform="translate(148.615 0.364)">
          <g id="Grupo_27484" data-name="Grupo 27484">
            <g id="Grupo_27483" data-name="Grupo 27483">
              <g id="Grupo_27482" data-name="Grupo 27482" clip-path="url(#clip-path-2)">
                <path id="Trazado_21663" data-name="Trazado 21663" d="M2001.379,408.411l-1.222-1.368h1.222Z" transform="translate(-1866.249 -407.043)" fill="#505a63"/>
                <path id="Trazado_21664" data-name="Trazado 21664" d="M1986.815,414.79l-6.92-7.747h5.7l1.222,1.368Z" transform="translate(-1851.685 -407.043)" fill="#4f5962"/>
                <path id="Trazado_21665" data-name="Trazado 21665" d="M1972.25,421.169l-12.618-14.126h5.7l6.92,7.747Z" transform="translate(-1837.121 -407.043)" fill="#4e5862"/>
                <path id="Trazado_21666" data-name="Trazado 21666" d="M1957.686,427.548l-18.316-20.505h5.7l12.618,14.126Z" transform="translate(-1822.556 -407.043)" fill="#4d5761"/>
                <path id="Trazado_21667" data-name="Trazado 21667" d="M1943.122,433.927l-24.014-26.884h5.7l18.316,20.505Z" transform="translate(-1807.992 -407.043)" fill="#4c5660"/>
                <path id="Trazado_21668" data-name="Trazado 21668" d="M1928.557,440.306l-29.712-33.263h5.7l24.014,26.884Z" transform="translate(-1793.427 -407.043)" fill="#4b565f"/>
                <path id="Trazado_21669" data-name="Trazado 21669" d="M1913.993,446.685l-35.41-39.642h5.7l29.712,33.263Z" transform="translate(-1778.863 -407.043)" fill="#4a555f"/>
                <path id="Trazado_21670" data-name="Trazado 21670" d="M1899.428,453.064l-41.108-46.021h5.7l35.41,39.642Z" transform="translate(-1764.299 -407.043)" fill="#49545e"/>
                <path id="Trazado_21671" data-name="Trazado 21671" d="M1884.864,459.443l-46.807-52.4h5.7l41.108,46.021Z" transform="translate(-1749.734 -407.043)" fill="#48535d"/>
                <path id="Trazado_21672" data-name="Trazado 21672" d="M1870.3,465.822l-52.5-58.779h5.7l46.807,52.4Z" transform="translate(-1735.17 -407.043)" fill="#47525c"/>
                <path id="Trazado_21673" data-name="Trazado 21673" d="M1855.735,472.2l-58.2-65.158h5.7l52.5,58.779Z" transform="translate(-1720.606 -407.043)" fill="#46515c"/>
                <path id="Trazado_21674" data-name="Trazado 21674" d="M1841.171,478.58l-63.9-71.537h5.7l58.2,65.158Z" transform="translate(-1706.041 -407.043)" fill="#45505b"/>
                <path id="Trazado_21675" data-name="Trazado 21675" d="M1826.606,484.959l-69.6-77.916h5.7l63.9,71.537Z" transform="translate(-1691.477 -407.043)" fill="#444f5a"/>
                <path id="Trazado_21676" data-name="Trazado 21676" d="M1812.042,491.338l-75.3-84.3h5.7l69.6,77.916Z" transform="translate(-1676.912 -407.043)" fill="#434f59"/>
                <path id="Trazado_21677" data-name="Trazado 21677" d="M1797.478,497.717l-80.995-90.674h5.7l75.3,84.3Z" transform="translate(-1662.348 -407.043)" fill="#424e59"/>
                <path id="Trazado_21678" data-name="Trazado 21678" d="M1782.913,504.1l-86.693-97.053h5.7l80.995,90.674Z" transform="translate(-1647.784 -407.043)" fill="#414d58"/>
                <path id="Trazado_21679" data-name="Trazado 21679" d="M1768.349,510.475l-92.391-103.432h5.7l86.693,97.053Z" transform="translate(-1633.219 -407.043)" fill="#404c57"/>
                <path id="Trazado_21680" data-name="Trazado 21680" d="M1753.784,516.854,1655.7,407.043h5.7l92.391,103.432Z" transform="translate(-1618.655 -407.043)" fill="#3f4b57"/>
                <path id="Trazado_21681" data-name="Trazado 21681" d="M1739.22,523.233l-103.787-116.19h5.7l98.089,109.811Z" transform="translate(-1604.09 -407.043)" fill="#3e4a56"/>
                <path id="Trazado_21682" data-name="Trazado 21682" d="M1724.656,529.612,1615.171,407.043h5.7l103.787,116.19Z" transform="translate(-1589.526 -407.043)" fill="#3d4955"/>
                <path id="Trazado_21683" data-name="Trazado 21683" d="M1710.091,535.991,1594.908,407.043h5.7l109.485,122.569Z" transform="translate(-1574.962 -407.043)" fill="#3c4854"/>
                <path id="Trazado_21684" data-name="Trazado 21684" d="M1695.314,542.132,1574.646,407.043h5.7l115.183,128.948v6.141Z" transform="translate(-1560.397 -407.043)" fill="#3b4854"/>
                <path id="Trazado_21685" data-name="Trazado 21685" d="M1675.052,542.132,1554.384,407.043h5.7L1680.75,542.132Z" transform="translate(-1545.833 -407.043)" fill="#3a4753"/>
                <path id="Trazado_21686" data-name="Trazado 21686" d="M1654.789,542.132,1534.121,407.043h5.7l120.668,135.089Z" transform="translate(-1531.269 -407.043)" fill="#394652"/>
                <path id="Trazado_21687" data-name="Trazado 21687" d="M1641.8,542.132l-117.822-131.9v-3.186h2.852L1647.5,542.132Z" transform="translate(-1523.978 -407.043)" fill="#384551"/>
                <path id="Trazado_21688" data-name="Trazado 21688" d="M1636.1,550.275,1523.978,424.751v-6.379l117.822,131.9Z" transform="translate(-1523.978 -415.186)" fill="#364451"/>
                <path id="Trazado_21689" data-name="Trazado 21689" d="M1630.4,566.58,1523.978,447.435v-6.379L1636.1,566.58Z" transform="translate(-1523.978 -431.491)" fill="#354350"/>
                <path id="Trazado_21690" data-name="Trazado 21690" d="M1624.706,582.885,1523.978,470.119V463.74L1630.4,582.885Z" transform="translate(-1523.978 -447.796)" fill="#34424f"/>
                <path id="Trazado_21691" data-name="Trazado 21691" d="M1619.008,599.19,1523.978,492.8v-6.379L1624.706,599.19Z" transform="translate(-1523.978 -464.101)" fill="#33414e"/>
                <path id="Trazado_21692" data-name="Trazado 21692" d="M1613.31,615.495l-89.332-100.008v-6.379l95.03,106.387Z" transform="translate(-1523.978 -480.406)" fill="#32414e"/>
                <path id="Trazado_21693" data-name="Trazado 21693" d="M1607.612,631.8l-83.634-93.629v-6.379L1613.31,631.8Z" transform="translate(-1523.978 -496.711)" fill="#31404d"/>
                <path id="Trazado_21694" data-name="Trazado 21694" d="M1601.914,648.1l-77.936-87.25v-6.379l83.634,93.629Z" transform="translate(-1523.978 -513.016)" fill="#303f4c"/>
                <path id="Trazado_21695" data-name="Trazado 21695" d="M1596.216,664.409l-72.238-80.871v-6.379l77.936,87.25Z" transform="translate(-1523.978 -529.32)" fill="#2f3e4b"/>
                <path id="Trazado_21696" data-name="Trazado 21696" d="M1590.518,680.714l-66.54-74.492v-6.379l72.238,80.871Z" transform="translate(-1523.978 -545.625)" fill="#2e3d4b"/>
                <path id="Trazado_21697" data-name="Trazado 21697" d="M1584.82,697.019l-60.842-68.113v-6.379l66.54,74.492Z" transform="translate(-1523.978 -561.93)" fill="#2d3c4a"/>
                <path id="Trazado_21698" data-name="Trazado 21698" d="M1579.122,713.324l-55.144-61.734v-6.379l60.842,68.113Z" transform="translate(-1523.978 -578.235)" fill="#2c3b49"/>
                <path id="Trazado_21699" data-name="Trazado 21699" d="M1573.424,729.629l-49.446-55.355V667.9l55.144,61.734Z" transform="translate(-1523.978 -594.54)" fill="#2b3a49"/>
                <path id="Trazado_21700" data-name="Trazado 21700" d="M1567.726,745.934l-43.748-48.976v-6.379l49.446,55.355Z" transform="translate(-1523.978 -610.845)" fill="#2a3a48"/>
                <path id="Trazado_21701" data-name="Trazado 21701" d="M1562.028,762.239l-38.05-42.6v-6.379l43.748,48.976Z" transform="translate(-1523.978 -627.15)" fill="#293947"/>
                <path id="Trazado_21702" data-name="Trazado 21702" d="M1556.33,778.544l-32.352-36.218v-6.379l38.05,42.6Z" transform="translate(-1523.978 -643.455)" fill="#283846"/>
                <path id="Trazado_21703" data-name="Trazado 21703" d="M1550.632,794.849l-26.654-29.839v-6.379l32.352,36.218Z" transform="translate(-1523.978 -659.76)" fill="#273746"/>
                <path id="Trazado_21704" data-name="Trazado 21704" d="M1544.934,811.154l-20.955-23.46v-6.379l26.654,29.839Z" transform="translate(-1523.978 -676.065)" fill="#263645"/>
                <path id="Trazado_21705" data-name="Trazado 21705" d="M1539.236,827.459l-15.257-17.081V804l20.955,23.46Z" transform="translate(-1523.978 -692.37)" fill="#253544"/>
                <path id="Trazado_21706" data-name="Trazado 21706" d="M1533.538,843.764l-9.559-10.7v-6.379l15.257,17.081Z" transform="translate(-1523.978 -708.675)" fill="#243443"/>
                <path id="Trazado_21707" data-name="Trazado 21707" d="M1527.839,860.069l-3.861-4.323v-6.379l9.559,10.7Z" transform="translate(-1523.978 -724.98)" fill="#233343"/>
                <path id="Trazado_21708" data-name="Trazado 21708" d="M1523.978,872.051l3.861,4.323h-3.861Z" transform="translate(-1523.978 -741.285)" fill="#223342"/>
              </g>
            </g>
          </g>
        </g>
        <g id="Grupo_27489" data-name="Grupo 27489" transform="translate(148.291 148.614)">
          <g id="Grupo_27488" data-name="Grupo 27488">
            <g id="Grupo_27487" data-name="Grupo 27487">
              <g id="Grupo_27486" data-name="Grupo 27486" clip-path="url(#clip-path-3)">
                <path id="Trazado_21710" data-name="Trazado 21710" d="M1988.429,1404.126l4.155-4.156v4.156Z" transform="translate(-1857.495 -1268.997)" fill="#fe3d2e"/>
                <path id="Trazado_21711" data-name="Trazado 21711" d="M1973.648,1393.5l8.312-8.314v4.158l-4.155,4.156Z" transform="translate(-1846.871 -1258.369)" fill="#fd3c2d"/>
                <path id="Trazado_21712" data-name="Trazado 21712" d="M1958.867,1382.871l12.469-12.472v4.158l-8.312,8.314Z" transform="translate(-1836.246 -1247.741)" fill="#fc3c2d"/>
                <path id="Trazado_21713" data-name="Trazado 21713" d="M1944.086,1372.243l16.625-16.63v4.158l-12.468,12.472Z" transform="translate(-1825.622 -1237.114)" fill="#fb3b2c"/>
                <path id="Trazado_21714" data-name="Trazado 21714" d="M1929.3,1361.616l20.782-20.788v4.158l-16.625,16.63Z" transform="translate(-1814.998 -1226.486)" fill="#fa3a2b"/>
                <path id="Trazado_21715" data-name="Trazado 21715" d="M1914.524,1350.988l24.938-24.946v4.158l-20.781,20.788Z" transform="translate(-1804.373 -1215.859)" fill="#f9392a"/>
                <path id="Trazado_21716" data-name="Trazado 21716" d="M1899.743,1340.361l29.095-29.1v4.158l-24.938,24.946Z" transform="translate(-1793.749 -1205.231)" fill="#f8392a"/>
                <path id="Trazado_21717" data-name="Trazado 21717" d="M1884.962,1329.733l33.251-33.261v4.158l-29.095,29.1Z" transform="translate(-1783.125 -1194.604)" fill="#f73829"/>
                <path id="Trazado_21718" data-name="Trazado 21718" d="M1870.181,1319.105l37.408-37.419v4.158l-33.251,33.261Z" transform="translate(-1772.5 -1183.976)" fill="#f63728"/>
                <path id="Trazado_21719" data-name="Trazado 21719" d="M1855.4,1308.478l41.565-41.577v4.158l-37.408,37.419Z" transform="translate(-1761.876 -1173.348)" fill="#f53628"/>
                <path id="Trazado_21720" data-name="Trazado 21720" d="M1840.619,1297.85l45.721-45.735v4.158l-41.565,41.577Z" transform="translate(-1751.251 -1162.721)" fill="#f43627"/>
                <path id="Trazado_21721" data-name="Trazado 21721" d="M1825.838,1287.223l49.878-49.893v4.158l-45.721,45.735Z" transform="translate(-1740.627 -1152.093)" fill="#f33526"/>
                <path id="Trazado_21722" data-name="Trazado 21722" d="M1811.057,1276.6l54.034-54.051v4.158l-49.878,49.893Z" transform="translate(-1730.003 -1141.466)" fill="#f23425"/>
                <path id="Trazado_21723" data-name="Trazado 21723" d="M1796.276,1265.968l58.191-58.208v4.158l-54.034,54.051Z" transform="translate(-1719.378 -1130.838)" fill="#f13325"/>
                <path id="Trazado_21724" data-name="Trazado 21724" d="M1781.5,1255.34l62.348-62.366v4.158l-58.191,58.208Z" transform="translate(-1708.754 -1120.21)" fill="#f03324"/>
                <path id="Trazado_21725" data-name="Trazado 21725" d="M1766.714,1244.712l66.5-66.524v4.158l-62.348,62.366Z" transform="translate(-1698.129 -1109.583)" fill="#ef3223"/>
                <path id="Trazado_21726" data-name="Trazado 21726" d="M1751.933,1234.085l70.661-70.682v4.158l-66.5,66.524Z" transform="translate(-1687.505 -1098.955)" fill="#ee3123"/>
                <path id="Trazado_21727" data-name="Trazado 21727" d="M1737.152,1223.457l74.818-74.84v4.158l-70.661,70.682Z" transform="translate(-1676.881 -1088.328)" fill="#ed3122"/>
                <path id="Trazado_21728" data-name="Trazado 21728" d="M1722.371,1212.83l78.974-79v4.158l-74.817,74.84Z" transform="translate(-1666.256 -1077.7)" fill="#ec3021"/>
                <path id="Trazado_21729" data-name="Trazado 21729" d="M1707.59,1202.2l83.131-83.156v4.158l-78.974,79Z" transform="translate(-1655.632 -1067.073)" fill="#eb2f20"/>
                <path id="Trazado_21730" data-name="Trazado 21730" d="M1692.809,1191.574l87.287-87.313v4.158l-83.131,83.156Z" transform="translate(-1645.007 -1056.445)" fill="#ea2e20"/>
                <path id="Trazado_21731" data-name="Trazado 21731" d="M1678.028,1180.947l91.444-91.471v4.158l-87.287,87.313Z" transform="translate(-1634.383 -1045.817)" fill="#e92e1f"/>
                <path id="Trazado_21732" data-name="Trazado 21732" d="M1663.247,1170.319l95.6-95.629v4.158l-91.444,91.471Z" transform="translate(-1623.759 -1035.19)" fill="#e82d1e"/>
                <path id="Trazado_21733" data-name="Trazado 21733" d="M1648.466,1159.692l99.757-99.787v4.158l-95.6,95.629Z" transform="translate(-1613.134 -1024.562)" fill="#e72c1d"/>
                <path id="Trazado_21734" data-name="Trazado 21734" d="M1633.685,1149.064,1737.6,1045.119v4.158l-99.757,99.787Z" transform="translate(-1602.51 -1013.935)" fill="#e62b1d"/>
                <path id="Trazado_21735" data-name="Trazado 21735" d="M1618.9,1138.437l108.07-108.1v4.158l-103.914,103.945Z" transform="translate(-1591.885 -1003.307)" fill="#e52b1c"/>
                <path id="Trazado_21736" data-name="Trazado 21736" d="M1604.123,1127.809l112.227-112.261v4.158l-108.07,108.1Z" transform="translate(-1581.261 -992.68)" fill="#e42a1b"/>
                <path id="Trazado_21737" data-name="Trazado 21737" d="M1589.342,1117.182l116.384-116.418v4.158L1593.5,1117.182Z" transform="translate(-1570.637 -982.052)" fill="#e3291b"/>
                <path id="Trazado_21738" data-name="Trazado 21738" d="M1574.561,1106.554,1695.1,985.978v4.158l-116.383,116.418Z" transform="translate(-1560.012 -971.424)" fill="#e2281a"/>
                <path id="Trazado_21739" data-name="Trazado 21739" d="M1559.78,1095.926l124.7-124.734v4.158l-120.54,120.576Z" transform="translate(-1549.388 -960.797)" fill="#e12819"/>
                <path id="Trazado_21740" data-name="Trazado 21740" d="M1545,1085.3l128.853-128.892v4.158l-124.7,124.734Z" transform="translate(-1538.764 -950.169)" fill="#e02718"/>
                <path id="Trazado_21741" data-name="Trazado 21741" d="M1530.218,1074.671l133.01-133.05v4.158l-128.853,128.892Z" transform="translate(-1528.139 -939.542)" fill="#df2618"/>
                <path id="Trazado_21742" data-name="Trazado 21742" d="M1522.825,1067.277l133.012-133.051h2.077v2.08l-133.01,133.05h-2.079Z" transform="translate(-1522.825 -934.226)" fill="#de2617"/>
                <path id="Trazado_21743" data-name="Trazado 21743" d="M1522.825,1063.119,1651.68,934.226h4.157l-133.012,133.051Z" transform="translate(-1522.825 -934.226)" fill="#dc2516"/>
                <path id="Trazado_21744" data-name="Trazado 21744" d="M1522.825,1058.962l124.7-124.736h4.156l-128.855,128.894Z" transform="translate(-1522.825 -934.226)" fill="#db2416"/>
                <path id="Trazado_21745" data-name="Trazado 21745" d="M1522.825,1054.8l120.542-120.578h4.157l-124.7,124.736Z" transform="translate(-1522.825 -934.226)" fill="#da2315"/>
                <path id="Trazado_21746" data-name="Trazado 21746" d="M1522.825,1050.646l116.385-116.42h4.157L1522.825,1054.8Z" transform="translate(-1522.825 -934.226)" fill="#d92314"/>
                <path id="Trazado_21747" data-name="Trazado 21747" d="M1522.825,1046.488l112.229-112.262h4.157l-116.385,116.42Z" transform="translate(-1522.825 -934.226)" fill="#d82213"/>
                <path id="Trazado_21748" data-name="Trazado 21748" d="M1522.825,1042.33l108.072-108.1h4.157l-112.229,112.262Z" transform="translate(-1522.825 -934.226)" fill="#d72113"/>
                <path id="Trazado_21749" data-name="Trazado 21749" d="M1522.825,1038.172,1626.74,934.226h4.156l-108.072,108.1Z" transform="translate(-1522.825 -934.226)" fill="#d62012"/>
                <path id="Trazado_21750" data-name="Trazado 21750" d="M1522.825,1034.014l99.759-99.789h4.157l-103.915,103.947Z" transform="translate(-1522.825 -934.226)" fill="#d52011"/>
                <path id="Trazado_21751" data-name="Trazado 21751" d="M1522.825,1029.857l95.6-95.631h4.156l-99.759,99.789Z" transform="translate(-1522.825 -934.226)" fill="#d41f11"/>
                <path id="Trazado_21752" data-name="Trazado 21752" d="M1522.825,1025.7l91.445-91.473h4.157l-95.6,95.631Z" transform="translate(-1522.825 -934.226)" fill="#d31e10"/>
                <path id="Trazado_21753" data-name="Trazado 21753" d="M1522.825,1021.541l87.289-87.315h4.156l-91.445,91.473Z" transform="translate(-1522.825 -934.226)" fill="#d21d0f"/>
                <path id="Trazado_21754" data-name="Trazado 21754" d="M1522.825,1017.383l83.132-83.157h4.157l-87.289,87.315Z" transform="translate(-1522.825 -934.226)" fill="#d11d0e"/>
                <path id="Trazado_21755" data-name="Trazado 21755" d="M1522.825,1013.225l78.976-79h4.157l-83.132,83.157Z" transform="translate(-1522.825 -934.226)" fill="#d01c0e"/>
                <path id="Trazado_21756" data-name="Trazado 21756" d="M1522.825,1009.067l74.819-74.842h4.157l-78.976,79Z" transform="translate(-1522.825 -934.226)" fill="#cf1b0d"/>
                <path id="Trazado_21757" data-name="Trazado 21757" d="M1522.825,1004.91l70.662-70.684h4.157l-74.819,74.842Z" transform="translate(-1522.825 -934.226)" fill="#ce1a0c"/>
                <path id="Trazado_21758" data-name="Trazado 21758" d="M1522.825,1000.752l66.506-66.526h4.156l-70.662,70.684Z" transform="translate(-1522.825 -934.226)" fill="#cd1a0c"/>
                <path id="Trazado_21759" data-name="Trazado 21759" d="M1522.825,996.594l62.349-62.368h4.157l-66.506,66.526Z" transform="translate(-1522.825 -934.226)" fill="#cc190b"/>
                <path id="Trazado_21760" data-name="Trazado 21760" d="M1522.825,992.436l58.193-58.21h4.157l-62.349,62.368Z" transform="translate(-1522.825 -934.226)" fill="#cb180a"/>
                <path id="Trazado_21761" data-name="Trazado 21761" d="M1522.825,988.278l54.036-54.052h4.157l-58.193,58.21Z" transform="translate(-1522.825 -934.226)" fill="#ca1809"/>
                <path id="Trazado_21762" data-name="Trazado 21762" d="M1522.825,984.12l49.88-49.894h4.157l-54.036,54.052Z" transform="translate(-1522.825 -934.226)" fill="#c91709"/>
                <path id="Trazado_21763" data-name="Trazado 21763" d="M1522.825,979.962l45.723-45.737h4.157l-49.88,49.894Z" transform="translate(-1522.825 -934.226)" fill="#c81608"/>
                <path id="Trazado_21764" data-name="Trazado 21764" d="M1522.825,975.8l41.566-41.579h4.157l-45.723,45.737Z" transform="translate(-1522.825 -934.226)" fill="#c71507"/>
                <path id="Trazado_21765" data-name="Trazado 21765" d="M1522.825,971.647l37.41-37.421h4.157L1522.825,975.8Z" transform="translate(-1522.825 -934.226)" fill="#c61506"/>
                <path id="Trazado_21766" data-name="Trazado 21766" d="M1522.825,967.489l33.253-33.263h4.157l-37.41,37.421Z" transform="translate(-1522.825 -934.226)" fill="#c51406"/>
                <path id="Trazado_21767" data-name="Trazado 21767" d="M1522.825,963.331l29.1-29.105h4.157l-33.253,33.263Z" transform="translate(-1522.825 -934.226)" fill="#c41305"/>
                <path id="Trazado_21768" data-name="Trazado 21768" d="M1522.825,959.173l24.94-24.947h4.157l-29.1,29.105Z" transform="translate(-1522.825 -934.226)" fill="#c31204"/>
                <path id="Trazado_21769" data-name="Trazado 21769" d="M1522.825,955.015l20.783-20.789h4.156l-24.94,24.947Z" transform="translate(-1522.825 -934.226)" fill="#c21204"/>
                <path id="Trazado_21770" data-name="Trazado 21770" d="M1522.825,950.857l16.627-16.632h4.157l-20.783,20.789Z" transform="translate(-1522.825 -934.226)" fill="#c11103"/>
                <path id="Trazado_21771" data-name="Trazado 21771" d="M1522.825,946.7l12.47-12.474h4.157l-16.627,16.632Z" transform="translate(-1522.825 -934.226)" fill="#c01002"/>
                <path id="Trazado_21772" data-name="Trazado 21772" d="M1522.825,942.542l8.313-8.316h4.157l-12.47,12.474Z" transform="translate(-1522.825 -934.226)" fill="#bf0f01"/>
                <path id="Trazado_21773" data-name="Trazado 21773" d="M1522.825,938.384l4.157-4.158h4.157l-8.313,8.316Z" transform="translate(-1522.825 -934.226)" fill="#be0f01"/>
                <path id="Trazado_21774" data-name="Trazado 21774" d="M1522.825,934.226h4.157l-4.157,4.158Z" transform="translate(-1522.825 -934.226)" fill="#bd0e00"/>
                <path id="Trazado_21775" data-name="Trazado 21775" d="M1522.825,934.226h0Z" transform="translate(-1522.825 -934.226)" fill="#bd0e00"/>
              </g>
            </g>
          </g>
        </g>
        <g id="Grupo_27493" data-name="Grupo 27493" transform="translate(0 148.29)">
          <g id="Grupo_27492" data-name="Grupo 27492">
            <g id="Grupo_27491" data-name="Grupo 27491">
              <g id="Grupo_27490" data-name="Grupo 27490" clip-path="url(#clip-path-4)">
                <path id="Trazado_21777" data-name="Trazado 21777" d="M995.5,1399.452l4.287,3.937H995.5Z" transform="translate(-995.498 -1268.3)" fill="#dfdfdf"/>
                <path id="Trazado_21778" data-name="Trazado 21778" d="M995.5,1384.548l8.85,8.128h-4.563l-4.287-3.937Z" transform="translate(-995.498 -1257.587)" fill="#dedede"/>
                <path id="Trazado_21779" data-name="Trazado 21779" d="M995.5,1369.644l13.413,12.32h-4.563l-8.85-8.128Z" transform="translate(-995.498 -1246.875)" fill="#ddd"/>
                <path id="Trazado_21780" data-name="Trazado 21780" d="M995.5,1354.74l17.977,16.511h-4.563l-13.413-12.32Z" transform="translate(-995.498 -1236.162)" fill="#dcdcdc"/>
                <path id="Trazado_21781" data-name="Trazado 21781" d="M995.5,1339.835l22.54,20.7h-4.563L995.5,1344.027Z" transform="translate(-995.498 -1225.449)" fill="#dbdbdb"/>
                <path id="Trazado_21782" data-name="Trazado 21782" d="M995.5,1324.931l27.1,24.893h-4.563l-22.54-20.7Z" transform="translate(-995.498 -1214.736)" fill="#dadada"/>
                <path id="Trazado_21783" data-name="Trazado 21783" d="M995.5,1310.027l31.667,29.085H1022.6l-27.1-24.893Z" transform="translate(-995.498 -1204.023)" fill="#d9d9d9"/>
                <path id="Trazado_21784" data-name="Trazado 21784" d="M995.5,1295.123l36.23,33.276h-4.563L995.5,1299.314Z" transform="translate(-995.498 -1193.31)" fill="#d8d8d8"/>
                <path id="Trazado_21785" data-name="Trazado 21785" d="M995.5,1280.219l40.794,37.467h-4.563L995.5,1284.41Z" transform="translate(-995.498 -1182.597)" fill="#d7d7d7"/>
                <path id="Trazado_21786" data-name="Trazado 21786" d="M995.5,1265.314l45.357,41.658h-4.563L995.5,1269.506Z" transform="translate(-995.498 -1171.884)" fill="#d6d6d6"/>
                <path id="Trazado_21787" data-name="Trazado 21787" d="M995.5,1250.41l49.92,45.85h-4.563L995.5,1254.6Z" transform="translate(-995.498 -1161.171)" fill="#d5d5d5"/>
                <path id="Trazado_21788" data-name="Trazado 21788" d="M995.5,1235.506l54.484,50.041h-4.563L995.5,1239.7Z" transform="translate(-995.498 -1150.458)" fill="#d4d4d4"/>
                <path id="Trazado_21789" data-name="Trazado 21789" d="M995.5,1220.6l59.047,54.232h-4.563L995.5,1224.793Z" transform="translate(-995.498 -1139.745)" fill="#d3d3d3"/>
                <path id="Trazado_21790" data-name="Trazado 21790" d="M995.5,1205.7l63.611,58.423h-4.563L995.5,1209.889Z" transform="translate(-995.498 -1129.032)" fill="#d2d2d2"/>
                <path id="Trazado_21791" data-name="Trazado 21791" d="M995.5,1190.794l68.174,62.615h-4.563L995.5,1194.985Z" transform="translate(-995.498 -1118.319)" fill="#d1d1d1"/>
                <path id="Trazado_21792" data-name="Trazado 21792" d="M995.5,1175.889l72.737,66.806h-4.563L995.5,1180.081Z" transform="translate(-995.498 -1107.606)" fill="#d0d0d0"/>
                <path id="Trazado_21793" data-name="Trazado 21793" d="M995.5,1160.985l77.3,71h-4.563L995.5,1165.177Z" transform="translate(-995.498 -1096.893)" fill="#cfcfcf"/>
                <path id="Trazado_21794" data-name="Trazado 21794" d="M995.5,1146.081l81.864,75.188H1072.8l-77.3-71Z" transform="translate(-995.498 -1086.18)" fill="#cecece"/>
                <path id="Trazado_21795" data-name="Trazado 21795" d="M995.5,1131.177l86.427,79.38h-4.563L995.5,1135.368Z" transform="translate(-995.498 -1075.468)" fill="#cdcdcd"/>
                <path id="Trazado_21796" data-name="Trazado 21796" d="M995.5,1116.273l90.991,83.571h-4.563l-86.427-79.38Z" transform="translate(-995.498 -1064.755)" fill="#ccc"/>
                <path id="Trazado_21797" data-name="Trazado 21797" d="M995.5,1101.369l95.554,87.762h-4.563L995.5,1105.56Z" transform="translate(-995.498 -1054.042)" fill="#cbcbcb"/>
                <path id="Trazado_21798" data-name="Trazado 21798" d="M995.5,1086.464l100.118,91.953h-4.563L995.5,1090.656Z" transform="translate(-995.498 -1043.329)" fill="#cacaca"/>
                <path id="Trazado_21799" data-name="Trazado 21799" d="M995.5,1071.56l104.681,96.145h-4.563L995.5,1075.751Z" transform="translate(-995.498 -1032.616)" fill="#c9c9c9"/>
                <path id="Trazado_21800" data-name="Trazado 21800" d="M995.5,1056.656l109.244,100.336h-4.563L995.5,1060.847Z" transform="translate(-995.498 -1021.903)" fill="#c8c8c8"/>
                <path id="Trazado_21801" data-name="Trazado 21801" d="M995.5,1041.752l113.808,104.527h-4.563L995.5,1045.943Z" transform="translate(-995.498 -1011.19)" fill="#c7c7c7"/>
                <path id="Trazado_21802" data-name="Trazado 21802" d="M995.5,1026.848l118.371,108.718h-4.563L995.5,1031.039Z" transform="translate(-995.498 -1000.477)" fill="#c6c6c6"/>
                <path id="Trazado_21803" data-name="Trazado 21803" d="M995.5,1011.943l122.934,112.909h-4.563L995.5,1016.135Z" transform="translate(-995.498 -989.764)" fill="#c5c5c5"/>
                <path id="Trazado_21804" data-name="Trazado 21804" d="M995.5,997.039l127.5,117.1h-4.563L995.5,1001.23Z" transform="translate(-995.498 -979.051)" fill="#c4c4c4"/>
                <path id="Trazado_21805" data-name="Trazado 21805" d="M995.5,982.135l132.061,121.292H1123l-127.5-117.1Z" transform="translate(-995.498 -968.338)" fill="#c3c3c3"/>
                <path id="Trazado_21806" data-name="Trazado 21806" d="M995.5,967.231l135.13,124.11v1.373h-3.068L995.5,971.422Z" transform="translate(-995.498 -957.625)" fill="#c2c2c2"/>
                <path id="Trazado_21807" data-name="Trazado 21807" d="M995.5,952.327l135.13,124.11v4.191L995.5,956.518Z" transform="translate(-995.498 -946.912)" fill="#c1c1c1"/>
                <path id="Trazado_21808" data-name="Trazado 21808" d="M995.5,937.422l135.13,124.11v4.191L995.5,941.614Z" transform="translate(-995.498 -936.199)" fill="silver"/>
                <path id="Trazado_21809" data-name="Trazado 21809" d="M998.729,933.073l131.9,121.142v4.191L995.5,934.3v-1.223Z" transform="translate(-995.498 -933.073)" fill="#bfbfbf"/>
                <path id="Trazado_21810" data-name="Trazado 21810" d="M1011.552,933.073l127.335,116.951v4.191l-131.9-121.142Z" transform="translate(-1003.758 -933.073)" fill="#bdbdbd"/>
                <path id="Trazado_21811" data-name="Trazado 21811" d="M1027.78,933.073l122.771,112.76v4.191L1023.216,933.073Z" transform="translate(-1015.422 -933.073)" fill="#bcbcbc"/>
                <path id="Trazado_21812" data-name="Trazado 21812" d="M1044.007,933.073l118.208,108.568v4.191l-122.771-112.76Z" transform="translate(-1027.086 -933.073)" fill="#bbb"/>
                <path id="Trazado_21813" data-name="Trazado 21813" d="M1060.235,933.073l113.645,104.377v4.191L1055.671,933.073Z" transform="translate(-1038.75 -933.073)" fill="#bababa"/>
                <path id="Trazado_21814" data-name="Trazado 21814" d="M1076.462,933.073l109.081,100.186v4.191L1071.9,933.073Z" transform="translate(-1050.414 -933.073)" fill="#b9b9b9"/>
                <path id="Trazado_21815" data-name="Trazado 21815" d="M1092.69,933.073l104.518,95.995v4.191L1088.126,933.073Z" transform="translate(-1062.078 -933.073)" fill="#b8b8b8"/>
                <path id="Trazado_21816" data-name="Trazado 21816" d="M1108.917,933.073l99.954,91.8v4.191l-104.518-95.995Z" transform="translate(-1073.742 -933.073)" fill="#b7b7b7"/>
                <path id="Trazado_21817" data-name="Trazado 21817" d="M1125.145,933.073l95.391,87.612v4.191l-99.954-91.8Z" transform="translate(-1085.406 -933.073)" fill="#b6b6b6"/>
                <path id="Trazado_21818" data-name="Trazado 21818" d="M1141.372,933.073l90.828,83.421v4.191l-95.391-87.612Z" transform="translate(-1097.07 -933.073)" fill="#b5b5b5"/>
                <path id="Trazado_21819" data-name="Trazado 21819" d="M1157.6,933.073l86.264,79.23v4.191l-90.828-83.421Z" transform="translate(-1108.734 -933.073)" fill="#b4b4b4"/>
                <path id="Trazado_21820" data-name="Trazado 21820" d="M1173.827,933.073l81.7,75.038v4.191l-86.264-79.23Z" transform="translate(-1120.399 -933.073)" fill="#b3b3b3"/>
                <path id="Trazado_21821" data-name="Trazado 21821" d="M1190.055,933.073l77.137,70.847v4.191l-81.7-75.038Z" transform="translate(-1132.063 -933.073)" fill="#b2b2b2"/>
                <path id="Trazado_21822" data-name="Trazado 21822" d="M1206.282,933.073l72.574,66.656v4.191l-77.137-70.847Z" transform="translate(-1143.727 -933.073)" fill="#b1b1b1"/>
                <path id="Trazado_21823" data-name="Trazado 21823" d="M1222.51,933.073l68.011,62.465v4.191l-72.574-66.656Z" transform="translate(-1155.391 -933.073)" fill="#b0b0b0"/>
                <path id="Trazado_21824" data-name="Trazado 21824" d="M1238.737,933.073l63.447,58.273v4.191l-68.011-62.465Z" transform="translate(-1167.055 -933.073)" fill="#afafaf"/>
                <path id="Trazado_21825" data-name="Trazado 21825" d="M1254.964,933.073l58.884,54.082v4.191L1250.4,933.073Z" transform="translate(-1178.719 -933.073)" fill="#aeaeae"/>
                <path id="Trazado_21826" data-name="Trazado 21826" d="M1271.192,933.073l54.321,49.891v4.191l-58.884-54.082Z" transform="translate(-1190.383 -933.073)" fill="#adadad"/>
                <path id="Trazado_21827" data-name="Trazado 21827" d="M1287.42,933.073l49.757,45.7v4.191l-54.321-49.891Z" transform="translate(-1202.047 -933.073)" fill="#acacac"/>
                <path id="Trazado_21828" data-name="Trazado 21828" d="M1303.647,933.073l45.194,41.508v4.191l-49.757-45.7Z" transform="translate(-1213.712 -933.073)" fill="#ababab"/>
                <path id="Trazado_21829" data-name="Trazado 21829" d="M1319.875,933.073l40.63,37.317v4.191l-45.194-41.508Z" transform="translate(-1225.376 -933.073)" fill="#aaa"/>
                <path id="Trazado_21830" data-name="Trazado 21830" d="M1336.1,933.073l36.067,33.126v4.191l-40.63-37.317Z" transform="translate(-1237.04 -933.073)" fill="#a9a9a9"/>
                <path id="Trazado_21831" data-name="Trazado 21831" d="M1352.33,933.073l31.5,28.935V966.2l-36.067-33.126Z" transform="translate(-1248.704 -933.073)" fill="#a8a8a8"/>
                <path id="Trazado_21832" data-name="Trazado 21832" d="M1368.557,933.073l26.94,24.743v4.191l-31.5-28.935Z" transform="translate(-1260.368 -933.073)" fill="#a7a7a7"/>
                <path id="Trazado_21833" data-name="Trazado 21833" d="M1384.785,933.073l22.377,20.552v4.191l-26.94-24.743Z" transform="translate(-1272.032 -933.073)" fill="#a6a6a6"/>
                <path id="Trazado_21834" data-name="Trazado 21834" d="M1401.012,933.073l17.814,16.361v4.191l-22.377-20.552Z" transform="translate(-1283.696 -933.073)" fill="#a5a5a5"/>
                <path id="Trazado_21835" data-name="Trazado 21835" d="M1417.239,933.073l13.25,12.17v4.191l-17.814-16.361Z" transform="translate(-1295.36 -933.073)" fill="#a4a4a4"/>
                <path id="Trazado_21836" data-name="Trazado 21836" d="M1433.467,933.073l8.687,7.979v4.191l-13.25-12.17Z" transform="translate(-1307.024 -933.073)" fill="#a3a3a3"/>
                <path id="Trazado_21837" data-name="Trazado 21837" d="M1449.695,933.073l4.123,3.787v4.191l-8.687-7.979Z" transform="translate(-1318.688 -933.073)" fill="#a2a2a2"/>
                <path id="Trazado_21838" data-name="Trazado 21838" d="M1465.482,936.86l-4.123-3.787h4.123Z" transform="translate(-1330.353 -933.073)" fill="#a1a1a1"/>
              </g>
            </g>
          </g>
        </g>
      </g>
    </g>
    <g id="Grupo_27553" data-name="Grupo 27553" transform="translate(373.899 10323.022)">
      <g id="Grupo_27505" data-name="Grupo 27505">
        <g id="Grupo_27504" data-name="Grupo 27504">
          <path id="Trazado_21840" data-name="Trazado 21840" d="M1821.7,534.492a6.191,6.191,0,1,1-6.19-6.191A6.19,6.19,0,0,1,1821.7,534.492Z" transform="translate(-1784.942 -528.301)" fill="#e50019"/>
          <path id="Trazado_21841" data-name="Trazado 21841" d="M1741.647,563.714l-11.3-.7-10.961,7.569s-1.235,3.37.733,3.974c.841.259,11.036-4.815,11.036-4.815l4.849.153s-8,9.158-6.26,11.244c.64.768,11.057,9.377,11.057,9.377l-10.247,8.287,6.494,5.985,15.47-15.209-6.021-4.226,10.143-1.361,10.293,4.558,3.967-6.444-12.56-4.019-11.035-1.346,1.8-1.86,10.636-.764,10.143-6.031a5.973,5.973,0,0,0,.9-3.291,1.641,1.641,0,0,0-1.632-1.568l-9.194,4.9-12.938.028Z" transform="translate(-1719.004 -553.643)" fill="#e50019"/>
        </g>
        <path id="Trazado_21842" data-name="Trazado 21842" d="M1817.585,647.58l8.773-16.3-18.148-3.605,2.287,4.856-47.169,22.213,4.8,10.2,47.169-22.212Z" transform="translate(-1751.363 -600.849)" fill="#153643"/>
      </g>
      <g id="Grupo_27520" data-name="Grupo 27520" transform="translate(77.82 14.335)">
        <g id="Grupo_27506" data-name="Grupo 27506">
          <path id="Trazado_21843" data-name="Trazado 21843" d="M2054.892,604.569a23.794,23.794,0,1,0-7.844,18.3,12.844,12.844,0,0,1,7.844-18.3Z" transform="translate(-2007.313 -581.411)" fill="#153643"/>
        </g>
        <g id="Grupo_27516" data-name="Grupo 27516" transform="translate(8.216 2.554)">
          <g id="Grupo_27509" data-name="Grupo 27509" transform="translate(8.193)">
            <g id="Grupo_27508" data-name="Grupo 27508">
              <path id="Trazado_21844" data-name="Trazado 21844" d="M2074.445,605.41a12.787,12.787,0,0,0-.5-3.034c-.831-3.041-1.515-5.12.1-6.806a6.732,6.732,0,0,1,9.554-.434,7.52,7.52,0,0,1,2.133,6.513,14.93,14.93,0,0,1-1.05,4.014Z" transform="translate(-2071.725 -592.651)" fill="#fff"/>
              <g id="Grupo_27507" data-name="Grupo 27507">
                <path id="Trazado_21845" data-name="Trazado 21845" d="M2074.445,605.41a12.787,12.787,0,0,0-.5-3.034c-.831-3.041-1.515-5.12.1-6.806a6.732,6.732,0,0,1,9.554-.434,7.52,7.52,0,0,1,2.133,6.513,14.93,14.93,0,0,1-1.05,4.014Z" transform="translate(-2071.725 -592.651)" fill="none"/>
                <path id="Trazado_21846" data-name="Trazado 21846" d="M2072.133,603.283c-.1-2.387-1.156-4.581-1.37-6.946s2.013-4.033,4.187-4.142c2.813-.143,4.911,2.377,5.678,4.833.7,2.228.033,4.952-.86,7.046l1.828-.85-10.239-.253c-.879-.022-2.817,1.28-1.059,1.323l10.24.252c.586.015,1.572-.25,1.828-.85,1.17-2.743,1.671-6.031.306-8.78a7.189,7.189,0,0,0-7.346-4c-2.483.255-5.615,1.422-6.777,3.852-1.364,2.854.855,6.285.973,9.215C2069.549,604.683,2072.169,604.192,2072.133,603.283Z" transform="translate(-2068.107 -590.874)" fill="#153643"/>
              </g>
            </g>
          </g>
          <g id="Grupo_27513" data-name="Grupo 27513" transform="translate(0 11.2)">
            <g id="Grupo_27512" data-name="Grupo 27512">
              <g id="Grupo_27511" data-name="Grupo 27511">
                <path id="Trazado_21847" data-name="Trazado 21847" d="M2069.708,644.01c1.075,2.427-.9,3.652-.694,4.388s1.684,1.405,1.655,3a4.828,4.828,0,0,1-.677,3.149c-.642,1.326-2.83.9-3.557,2.172-.486.851.956,2.575.143,3.714a9.047,9.047,0,0,1-3.979,2.977c-6.9,3.182-15.39-.584-18.655-7.667a13.945,13.945,0,0,1,6.591-18.587C2057.439,633.971,2066.553,636.876,2069.708,644.01Z" transform="translate(-2041.301 -634.925)" fill="#fff"/>
                <g id="Grupo_27510" data-name="Grupo 27510">
                  <path id="Trazado_21848" data-name="Trazado 21848" d="M2069.708,644.01c1.075,2.427-.9,3.652-.694,4.388s1.684,1.405,1.655,3a4.828,4.828,0,0,1-.677,3.149c-.642,1.326-2.83.9-3.557,2.172-.486.851.956,2.575.143,3.714a9.047,9.047,0,0,1-3.979,2.977c-6.9,3.182-15.39-.584-18.655-7.667a13.945,13.945,0,0,1,6.591-18.587C2057.439,633.971,2066.553,636.876,2069.708,644.01Z" transform="translate(-2041.301 -634.925)" fill="none"/>
                  <path id="Trazado_21849" data-name="Trazado 21849" d="M2064.853,641.8c.518,1.345.131,2.15-.506,3.324-.53.977.106,1.658.747,2.36a3.491,3.491,0,0,1,.472,3.563c-.31.776-.485.972-1.25,1.2a6.5,6.5,0,0,0-1.932.893c-1.067.76-.988,1.838-.656,2.956a1.762,1.762,0,0,1-.281,2.012,7.031,7.031,0,0,1-2.218,1.614,11.521,11.521,0,0,1-8.781.754,14.4,14.4,0,0,1-10.041-14.188,12.482,12.482,0,0,1,11.147-11.981,13.427,13.427,0,0,1,13.3,7.489c.523,1.14,3.107.378,2.612-.7a15.427,15.427,0,0,0-13.607-8.722,15.613,15.613,0,0,0-14.461,8.136,15.2,15.2,0,0,0,1.995,16.676,15.875,15.875,0,0,0,15.852,5.273c2.467-.608,5.748-2.11,7.032-4.448.647-1.178.081-2.292-.164-3.5-.082-.4,2.449-1.178,2.862-1.5,1.767-1.382,1.977-4.764.692-6.466-.263-.349-.728-.652-.9-1.063a6.615,6.615,0,0,0,.5-.84,4.07,4.07,0,0,0,.194-3.548C2067.015,639.933,2064.418,640.673,2064.853,641.8Z" transform="translate(-2037.752 -632.366)" fill="#153643"/>
                </g>
              </g>
            </g>
          </g>
          <g id="Grupo_27514" data-name="Grupo 27514" transform="translate(11.155 29.655)">
            <path id="Trazado_21850" data-name="Trazado 21850" d="M2096.474,705.732c-.161-.35-6.028-4.569-12.5-2.368" transform="translate(-2082.65 -702.193)" fill="none"/>
            <path id="Trazado_21851" data-name="Trazado 21851" d="M2094.207,703.928c-.869-1.3-3.228-2.017-4.613-2.479a15.489,15.489,0,0,0-9.655.135c-.146.046-1.17.493-.769.779.435.309,1.252.012,1.688-.127a11.522,11.522,0,0,1,7.56.6c.876.335,2.686,1.056,3.177,1.792.448.673,2.848-.345,2.612-.7Z" transform="translate(-2079.077 -700.74)" fill="#153643"/>
          </g>
          <g id="Grupo_27515" data-name="Grupo 27515" transform="translate(9.433 20.824)">
            <path id="Trazado_21852" data-name="Trazado 21852" d="M2094.689,673.954a18.2,18.2,0,0,0-17.078-2.544" transform="translate(-2076.285 -669.69)" fill="none"/>
            <path id="Trazado_21853" data-name="Trazado 21853" d="M2092.322,671.8c-5.074-4.3-12.785-4.621-18.789-2.505-.245.087-1.138.559-.727.934s1.262.12,1.711-.039c4.921-1.734,11.3-.865,15.366,2.583.64.543,3.044-.46,2.439-.973Z" transform="translate(-2072.699 -668.023)" fill="#153643"/>
          </g>
        </g>
        <g id="Grupo_27519" data-name="Grupo 27519" transform="translate(39.803 24.191)">
          <g id="Grupo_27517" data-name="Grupo 27517">
            <path id="Trazado_21854" data-name="Trazado 21854" d="M2174.093,674.347a11.317,11.317,0,1,0,3.314,8A11.279,11.279,0,0,0,2174.093,674.347Z" transform="translate(-2154.775 -671.032)" fill="#e50019"/>
          </g>
          <g id="Grupo_27518" data-name="Grupo 27518" transform="translate(4.296 4.952)">
            <path id="Trazado_21855" data-name="Trazado 21855" d="M2185.787,690.727a3.143,3.143,0,0,1-1.006,2.164l-.1.1-5.865,6.178a36.448,36.448,0,0,1-3.184,3.037,3.988,3.988,0,0,1-1.855,1.072,2.821,2.821,0,0,1-1.414-.536,2.7,2.7,0,0,1-1.091-1.105,8.678,8.678,0,0,1-.394-2.012,27.972,27.972,0,0,1-.185-3.331,2.539,2.539,0,0,1,.816-1.808,2.485,2.485,0,0,1,1.8-.83q.939,0,1.12,1.718.019.2.028.294a8.6,8.6,0,0,0,.351,1.841q.2.522.541.522a1.228,1.228,0,0,0,.531-.308,12.2,12.2,0,0,0,.93-.84l6.026-5.969a8.776,8.776,0,0,1,1.357-1.148,1.976,1.976,0,0,1,1.015-.389.47.47,0,0,1,.446.237,1.734,1.734,0,0,1,.133.8Z" transform="translate(-2170.69 -689.38)" fill="#fff"/>
          </g>
        </g>
      </g>
    </g>
    <g id="Grupo_27551" data-name="Grupo 27551" transform="translate(341.571 10165.519)">
      <g id="Grupo_27522" data-name="Grupo 27522" transform="translate(63.547 14.031)">
        <path id="Trazado_21856" data-name="Trazado 21856" d="M406.167,619.635a8.209,8.209,0,1,1,8.253-8.167A8.2,8.2,0,0,1,406.167,619.635Z" transform="translate(-384.786 -601.522)" fill="#153643"/>
        <path id="Trazado_21857" data-name="Trazado 21857" d="M391.811,599.384c-.459-5.066-6.229-.69-6.229-.69l-1.39,9.545-3.21,4.524-2.362,3.328s-5.515,2.5-8.159,2.706c-2.644-.21-8.159-2.706-8.159-2.706l-2.362-3.328-3.21-4.524-1.39-9.545s-5.77-4.375-6.229.69,1.308,10.741,1.735,12.191a95.239,95.239,0,0,0,3.763,9.391c.946.484,5.33,6.868,5.33,6.868l-1.5,18.288,24.043.02-1.5-18.308s4.517-5.659,5.33-6.868c.182-.27,3.337-7.942,3.764-9.391S392.274,604.45,391.811,599.384Z" transform="translate(-349.037 -596.938)" fill="#153643"/>
      </g>
      <g id="Grupo_27523" data-name="Grupo 27523" transform="translate(46.543 0)">
        <rect id="Rectngulo_4332" data-name="Rectngulo 4332" width="70.889" height="3.779" transform="translate(2.643 9.081)" fill="#e50019"/>
        <rect id="Rectngulo_4333" data-name="Rectngulo 4333" width="12.582" height="21.705" rx="6.291" transform="translate(64.275)" fill="#e50019"/>
        <rect id="Rectngulo_4334" data-name="Rectngulo 4334" width="12.582" height="21.705" rx="6.291" fill="#e50019"/>
      </g>
      <g id="Grupo_27524" data-name="Grupo 27524" transform="translate(106.262 42.74)">
        <path id="Trazado_21858" data-name="Trazado 21858" d="M517.434,703.3a10.145,10.145,0,1,0,10.145,10.145A10.145,10.145,0,0,0,517.434,703.3Zm6.4,10.541a.822.822,0,0,1-.826.826h-4.041v4.47a.823.823,0,0,1-.827.826h-1.407a.823.823,0,0,1-.827-.826v-4.47h-4.042a.823.823,0,0,1-.826-.826v-1.286a.823.823,0,0,1,.826-.826H515.9v-4.347a.824.824,0,0,1,.827-.827h1.407a.824.824,0,0,1,.827.827v4.347h4.041a.822.822,0,0,1,.826.826Z" transform="translate(-507.289 -703.298)" fill="#e50019"/>
      </g>
      <g id="Grupo_27527" data-name="Grupo 27527" transform="translate(0 16.781)">
        <g id="Grupo_27525" data-name="Grupo 27525" transform="translate(7.734 3.817)">
          <path id="Trazado_21859" data-name="Trazado 21859" d="M164.046,664.934a21.894,21.894,0,1,1,3.238-.239A22.175,22.175,0,0,1,164.046,664.934Zm.057-40.292A18.458,18.458,0,1,0,182.35,640.4h0A18.487,18.487,0,0,0,164.1,624.642Z" transform="translate(-142.262 -621.268)" fill="#153643"/>
          <path id="Trazado_21860" data-name="Trazado 21860" d="M185.262,678.294a13.994,13.994,0,1,1,13.873-16.041h0a13.991,13.991,0,0,1-11.8,15.887A14.2,14.2,0,0,1,185.262,678.294Zm.036-24.615a10.621,10.621,0,0,0-10.509,12.172,10.619,10.619,0,0,0,21.009-3.105h0A10.638,10.638,0,0,0,185.3,653.679Z" transform="translate(-163.462 -642.467)" fill="#153643"/>
        </g>
        <path id="Trazado_21861" data-name="Trazado 21861" d="M214.457,687.72a5.061,5.061,0,1,1-5.746-4.267A5.061,5.061,0,0,1,214.457,687.72Z" transform="translate(-179.886 -662.811)" fill="#e50019"/>
        <g id="Grupo_27526" data-name="Grupo 27526">
          <path id="Trazado_21862" data-name="Trazado 21862" d="M124.654,611.317l-.15,6.589-6.4,1.181,9.675,8.159,4.237-.781L144,636.572s.878.387,1.838-.777.422-1.9.422-1.9l-12.025-10.142.1-4.273Z" transform="translate(-116.889 -610.186)" fill="#153643"/>
          <path id="Trazado_21863" data-name="Trazado 21863" d="M141.091,634.108A1.557,1.557,0,0,1,140.5,634l-.07-.031-.059-.05-11.789-9.943-4.237.781-10.735-9.053L120.7,614.4l.165-7.272,10.726,9.048-.1,4.273,11.878,10.018.038.053c.032.044.765,1.091-.443,2.558A2.427,2.427,0,0,1,141.091,634.108Zm-.113-1.075c.143.025.607.036,1.162-.637s.462-1.086.411-1.219l-12.142-10.241.1-4.273-8.623-7.273-.135,5.906-5.716,1.054,8.614,7.265,4.237-.781Z" transform="translate(-113.61 -607.126)" fill="#fff"/>
        </g>
      </g>
      <g id="Grupo_27532" data-name="Grupo 27532" transform="translate(131.076 4.899)">
        <g id="Grupo_27528" data-name="Grupo 27528" transform="translate(0)">
          <path id="Trazado_21864" data-name="Trazado 21864" d="M648.018,584.213c-2.6-2.86-6.017-4.108-4.242-8.442-3.434-3.365-4.216-8.789-8.881-10.953-6.461-3-23.225-2.272-29.437,3.844-2.2,3.534-6.431,8.925-6.228,15.352a47.416,47.416,0,0,0,1.608,8.917c1.353,5.207,3.518,9.25,7.02,11.079,1.3,5.564,4.711,9.069,3.681,14.611,9.27.862,18.458,1.839,27.7,2.747a73.277,73.277,0,0,0-1.02-7.976c2.262-2.354,7.635-2.593,9.824-4.7a4.48,4.48,0,0,0,1.073-3.332c-.158-1.324-1.225-1.759-1.4-3.1-.209-1.662,2.582-2.613-2.45-3.873.339-.593,3.409-1.548,3.416-2.37-3.859-3.853,3.27-3.595,3.544-5.87C652.469,588.137,649.221,585.536,648.018,584.213Zm-25.7-14.382a1.147,1.147,0,1,1,2.295.015l-.025,4.076a1.148,1.148,0,0,1-1.147,1.14h-.008a1.147,1.147,0,0,1-1.141-1.155Zm-11.837,17.948h-.008l-4.076-.027a1.147,1.147,0,1,1,.016-2.295l4.075.026a1.148,1.148,0,0,1-.008,2.3Zm-.167-12.423a1.148,1.148,0,0,1,1.634-1.613l2.864,2.9a1.148,1.148,0,0,1-1.634,1.613Zm16.81,35.427h-.108a.844.844,0,0,1,.105.4c-.007.936-1.734,1.684-3.86,1.67s-3.843-.783-3.837-1.72a.826.826,0,0,1,.111-.4h-.108l.031-4.685,7.7.051Zm1.637-16.11-.311,6.092a3.625,3.625,0,0,1-3.6,3.826l-3.3-.022a3.625,3.625,0,0,1-3.552-3.871l-.232-6.1a10.274,10.274,0,0,1-4.729-8.723,10.285,10.285,0,1,1,20.568.133A10.272,10.272,0,0,1,628.76,594.672Zm4.995-15.971a1.148,1.148,0,0,1-.806-1.965l2.9-2.862a1.148,1.148,0,0,1,1.613,1.634l-2.9,2.863A1.145,1.145,0,0,1,633.755,578.7Zm6.585,9.267h-.008l-4.076-.027a1.148,1.148,0,0,1,.015-2.3l4.075.027a1.148,1.148,0,0,1-.007,2.3Z" transform="translate(-599.222 -563.105)" fill="#153643"/>
          <path id="Trazado_21865" data-name="Trazado 21865" d="M625.83,650.162l4.075.027Z" transform="translate(-618.648 -626.664)" fill="#fff"/>
          <path id="Trazado_21866" data-name="Trazado 21866" d="M643.1,606.447a1.148,1.148,0,0,0,.817-1.954l-2.864-2.9a1.148,1.148,0,0,0-1.634,1.612l2.864,2.9A1.146,1.146,0,0,0,643.1,606.447Z" transform="translate(-628.325 -590.955)" fill="#fff"/>
        </g>
        <g id="Grupo_27531" data-name="Grupo 27531" transform="translate(15.954 14.353)">
          <g id="Grupo_27530" data-name="Grupo 27530">
            <g id="Grupo_27529" data-name="Grupo 27529">
              <path id="Trazado_21867" data-name="Trazado 21867" d="M666.612,632.873l1.844-.205c.044-.359.1-.7.12-1.084.425-.18.9-.315,1.29-.523.36.158.564.512.906.693.517-.334.978-.711,1.471-1.062a8.4,8.4,0,0,0-.424-1.023,12.873,12.873,0,0,0,.876-1.135c.34.082.712.121,1.059.193a11.813,11.813,0,0,0,.785-1.641c-.228-.326-.619-.446-.877-.733a9.324,9.324,0,0,0,.194-1.37c.331-.15.719-.254,1.062-.394q-.1-.922-.206-1.844c-.358-.043-.7-.1-1.085-.121-.178-.425-.313-.9-.523-1.29.156-.362.511-.565.694-.906a15.384,15.384,0,0,0-1.1-1.468c-.344.129-.677.268-.991.421a13.575,13.575,0,0,0-1.135-.876c.068-.351.127-.707.194-1.06a12.243,12.243,0,0,0-1.642-.784c-.324.228-.451.615-.732.876a9.525,9.525,0,0,0-1.369-.194c-.15-.331-.254-.718-.4-1.062l-1.843.205c-.053.373-.1.751-.152,1.123a9.412,9.412,0,0,0-1.293.49c-.335-.189-.539-.543-.906-.695a12.375,12.375,0,0,0-1.43,1.127c.147.322.268.677.422.991-.369.3-.612.857-.952,1.074-.361-.028-.663-.131-1.02-.163a15.171,15.171,0,0,0-.747,1.673c.252.293.642.416.877.733a6.833,6.833,0,0,0-.2,1.334c-.331.149-.72.254-1.063.4.069.615.136,1.229.205,1.843.36.043.7.1,1.085.121.178.426.313.9.523,1.29-.159.36-.511.565-.693.906a15.163,15.163,0,0,0,1.1,1.468,9.971,9.971,0,0,0,.99-.421,12.523,12.523,0,0,0,1.134.876c-.081.34-.121.712-.194,1.058a10.7,10.7,0,0,0,1.643.786c.324-.229.442-.622.732-.877a9.15,9.15,0,0,0,1.369.193C666.352,632.163,666.479,632.521,666.612,632.873Zm4.919-8.289a4.788,4.788,0,0,1-7.992,3.653,4.673,4.673,0,0,1-1.613-3.311,4.821,4.821,0,0,1,1.016-3.292,4.9,4.9,0,0,1,3.293-1.784,4.894,4.894,0,0,1,5.3,4.733Z" transform="translate(-658.327 -616.281)" fill="#e50019"/>
            </g>
          </g>
        </g>
      </g>
    </g>
    <g id="Grupo_27554" data-name="Grupo 27554" transform="translate(885.242 10306.628)">
      <g id="Grupo_27534" data-name="Grupo 27534" transform="translate(77.798 22.764)">
        <path id="Trazado_21868" data-name="Trazado 21868" d="M2760.88,576.385a6.687,6.687,0,1,1,6.722-6.653A6.682,6.682,0,0,1,2760.88,576.385Z" transform="translate(-2738.944 -563.012)" fill="#153643"/>
        <path id="Trazado_21869" data-name="Trazado 21869" d="M2697.758,617.349a6.76,6.76,0,0,1,1.373-1.522s14.819.119,14.894.159c.707.356,3.527,2.023,6.005,1.917,2.09-.087,5.439-2.214,5.439-2.214s5.135,2.306,6.264,2.884a77.724,77.724,0,0,1,3.066,7.649c.348,1.181,1.79,5.8,1.413,9.93s-5.073.562-5.073.562l-1.132-7.775-2.614-3.684,2.582,31.477h-9.436l-.745-15.71h-2.145l-.177,15.71H2708s4.19-32.3,4.39-33.41l-13.637-2.561S2697.072,618.366,2697.758,617.349Z" transform="translate(-2697.594 -601.47)" fill="#153643"/>
      </g>
      <g id="Grupo_27538" data-name="Grupo 27538" transform="translate(38.522 38.931)">
        <g id="Grupo_27536" data-name="Grupo 27536" transform="translate(0.618 0.584)">
          <g id="Grupo_27535" data-name="Grupo 27535">
            <path id="Trazado_21870" data-name="Trazado 21870" d="M2558.251,666.494a1.108,1.108,0,0,1-1.076-1.865l20.859-36.211c.309-.537.7-.844,1.063-.844s.754.309,1.062.848l20.72,36.29a1.107,1.107,0,0,1-1.077,1.861Z" transform="translate(-2556.203 -626.898)" fill="#e50019"/>
            <path id="Trazado_21871" data-name="Trazado 21871" d="M2577.27,626.423c.031,0,.237.089.476.508l8.719,15.271,1.666,2.917,1.619,2.837,8.716,15.265c.24.42.212.648.192.682s-.2.169-.688.169l-17.46-.033-2.319,0-1.036,0h0l-3.349-.006-17.382-.034c-.484,0-.668-.138-.687-.172s-.047-.262.195-.681l8.774-15.231,1.654-2.871,1.653-2.871,8.778-15.239c.241-.418.448-.506.479-.506m0-1.35a2,2,0,0,0-1.647,1.182l-8.778,15.239-3.307,5.741-8.774,15.231c-.91,1.579-.163,2.874,1.659,2.877l17.382.034,3.352.006,3.352.006,17.46.033h.007c1.817,0,2.565-1.29,1.663-2.87l-8.716-15.266-3.285-5.754-8.719-15.271a2,2,0,0,0-1.648-1.188Z" transform="translate(-2554.376 -625.073)" fill="#fff"/>
          </g>
        </g>
        <path id="Trazado_21872" data-name="Trazado 21872" d="M2596.058,680.627l-15.816-.03,7.934-13.853,7.935-13.854,7.882,13.883,7.881,13.883Z" transform="translate(-2572.642 -644.797)" fill="#fff"/>
        <g id="Grupo_27537" data-name="Grupo 27537" transform="translate(21.463 13.991)">
          <path id="Trazado_21873" data-name="Trazado 21873" d="M2632.147,685.852l-.4-6.219q-.112-1.818-.112-2.611a2.362,2.362,0,0,1,.569-1.68,1.94,1.94,0,0,1,1.488-.6,1.5,1.5,0,0,1,1.491.776,5.22,5.22,0,0,1,.372,2.226,17.154,17.154,0,0,1-.094,1.741l-.571,6.4a4.993,4.993,0,0,1-.393,1.752,1.019,1.019,0,0,1-.988.609.983.983,0,0,1-.973-.592A5.875,5.875,0,0,1,2632.147,685.852Zm1.425,8.546a2.041,2.041,0,0,1-1.382-.517,1.8,1.8,0,0,1-.588-1.434,1.929,1.929,0,0,1,1.952-1.931,1.923,1.923,0,0,1,1.394.567,1.844,1.844,0,0,1,.575,1.371,1.812,1.812,0,0,1-.586,1.427A1.985,1.985,0,0,1,2633.573,694.4Z" transform="translate(-2631.602 -674.741)" fill="#153643"/>
        </g>
        <path id="Trazado_21874" data-name="Trazado 21874" d="M2596.271,664.427h-.009l-17.46-.033-3.351-.007-20.735-.04a2.329,2.329,0,0,1-2.165-3.753l20.859-36.211a2.553,2.553,0,0,1,2.154-1.475h0a2.551,2.551,0,0,1,2.152,1.483l20.72,36.291a2.328,2.328,0,0,1-2.17,3.745Zm-20.813-1.209,3.347.006,17.46.034h.006a1.193,1.193,0,0,0,1.156-2l-20.72-36.291a1.484,1.484,0,0,0-1.139-.894h0a1.484,1.484,0,0,0-1.141.89l-20.859,36.211a1.194,1.194,0,0,0,1.154,2Z" transform="translate(-2552.085 -622.908)" fill="#153643"/>
      </g>
      <g id="Grupo_27541" data-name="Grupo 27541" transform="translate(0 32.731)">
        <g id="Grupo_27539" data-name="Grupo 27539" transform="translate(0 14.112)">
          <rect id="Rectngulo_4335" data-name="Rectngulo 4335" width="8.49" height="32.852" transform="translate(0 0.038) rotate(-0.26)" fill="#e50019"/>
          <rect id="Rectngulo_4336" data-name="Rectngulo 4336" width="8.49" height="22.624" transform="translate(11.764 10.213) rotate(-0.267)" fill="#e50019"/>
          <rect id="Rectngulo_4337" data-name="Rectngulo 4337" width="8.49" height="14.027" transform="matrix(1, -0.005, 0.005, 1, 23.524, 18.757)" fill="#e50019"/>
        </g>
        <g id="Grupo_27540" data-name="Grupo 27540" transform="translate(1.427)">
          <path id="Trazado_21875" data-name="Trazado 21875" d="M2446.381,624.429c-12.784-.551-25.637-12.152-31.727-23.326l2.133-1.163c5.763,10.575,17.816,21.549,29.7,22.062Z" transform="translate(-2414.654 -599.94)" fill="#e50019"/>
          <path id="Trazado_21876" data-name="Trazado 21876" d="M2509.248,671.1l-1.46-1.942,6.13-4.608-5.292-6.011,1.823-1.605,7.026,7.981Z" transform="translate(-2482.649 -641.55)" fill="#e50019"/>
        </g>
      </g>
      <g id="Grupo_27542" data-name="Grupo 27542" transform="translate(23.19)">
        <path id="Trazado_21877" data-name="Trazado 21877" d="M2528.232,491.159l-.5-.073a1.78,1.78,0,0,0-1.8,1.706s-1.177,8.352-1.246,8.464c-.1.161-.738.208-.817-.117-.043-.175-.948-14.355-.948-14.355a2.434,2.434,0,0,0-2.034-2.235,2.955,2.955,0,0,0-1.111.108c-.653.168-1.3,1.172-1.226,2.631s.754,12.052.783,12.29c.067.548-.945.913-1.351.238-.047-.079-1.469-15.069-1.469-15.069a2.14,2.14,0,0,0-2.161-2.054l-.6.087a2.138,2.138,0,0,0-1.486,2.584s1.352,14.2,1.362,14.33a.308.308,0,0,1-.111.333c-.058.052-.76.3-.876-.172h0l-1.175-11.1a2.234,2.234,0,0,0-2.37-2.038l-.636.114a2.235,2.235,0,0,0-1.508,2.738l1.335,12c0,.01,1.437,9.3,1.151,9.366s-2.829-2.291-3.3-2.58-3.365-2.009-4.509-1.732a2.835,2.835,0,0,0-2.031,1.4c-.415.681-.369.679-.188,1.109a5.287,5.287,0,0,0,1.622,1.47,18.917,18.917,0,0,1,2.813,2.648c.85,1,5.208,5.649,6.684,7.361s2.659,2.635,4.431,2.861,7.457-1.508,7.457-1.508,1.431-.55,1.756-1.083a28.359,28.359,0,0,0,2.838-4.525,17.834,17.834,0,0,0,.633-5.706c.024-1.171.167-4.626.257-6.725l1.562-10.609A1.779,1.779,0,0,0,2528.232,491.159Z" transform="translate(-2498.2 -481.597)" fill="#fff"/>
        <path id="Trazado_21878" data-name="Trazado 21878" d="M2512.385,521.644a3.822,3.822,0,0,1-.477-.026c-2.177-.277-3.571-1.44-5.112-3.226-.781-.906-2.415-2.682-3.857-4.25-1.3-1.415-2.426-2.637-2.834-3.119a18.947,18.947,0,0,0-2.55-2.423,6.194,6.194,0,0,1-2.057-1.974l-.028-.067a1.845,1.845,0,0,1,.29-2.022,3.925,3.925,0,0,1,2.7-1.889c1.345-.328,3.639.83,5.326,1.859a14.214,14.214,0,0,1,1.328,1.072l.176.15c-.241-1.953-.657-4.83-.981-6.92l-.007-.046-1.332-11.962a3.3,3.3,0,0,1,2.386-3.954l.637-.114a2.886,2.886,0,0,1,2.367.676c-.028-.29-.054-.569-.079-.835a3.757,3.757,0,0,1,.431-2.383,2.752,2.752,0,0,1,1.971-1.4l.6-.087a3.206,3.206,0,0,1,3.385,2.967l.006.054q.045.472.092.968a2.8,2.8,0,0,1,1.828-2l.055-.014a4.005,4.005,0,0,1,1.358-.127,3.514,3.514,0,0,1,3.075,3.189l0,.056c.159,2.5.358,5.592.532,8.26.118-.828.232-1.633.331-2.334a2.854,2.854,0,0,1,3.026-2.623l.5.074a2.846,2.846,0,0,1,2.143,3.377l-1.553,10.554c-.056,1.306-.228,5.36-.254,6.645,0,.206-.007.421-.01.641a16.2,16.2,0,0,1-.7,5.435,21.34,21.34,0,0,1-2.486,4.076c-.186.256-.377.522-.436.618a4.952,4.952,0,0,1-2.291,1.529l-.072.025C2518.9,520.349,2514.541,521.644,2512.385,521.644Zm-14.87-15.835a6.02,6.02,0,0,0,1.164.946,19.311,19.311,0,0,1,3.076,2.873c.379.448,1.543,1.713,2.774,3.052,1.453,1.579,3.1,3.369,3.9,4.3,1.462,1.694,2.408,2.323,3.75,2.494,1.061.133,4.694-.768,6.967-1.458a4.726,4.726,0,0,0,1.2-.652c.1-.167.27-.4.513-.731a20.251,20.251,0,0,0,2.225-3.6,14.728,14.728,0,0,0,.548-4.678c0-.226.006-.446.01-.657.028-1.327.2-5.5.258-6.75l.01-.111,1.562-10.609c.078-.533-.164-.9-.322-.926h0l-.5-.074c-.147-.018-.5.261-.574.795-1.208,8.566-1.239,8.617-1.391,8.867a1.574,1.574,0,0,1-1.589.622,1.413,1.413,0,0,1-1.2-1.045c-.029-.115-.065-.264-.974-14.51a1.409,1.409,0,0,0-.992-1.255,1.988,1.988,0,0,0-.75.059l-.037.01a1.88,1.88,0,0,0-.439,1.533c.073,1.358.735,11.764.779,12.236a1.624,1.624,0,0,1-1.153,1.69,1.84,1.84,0,0,1-2.2-.783c-.174-.294-.174-.294-1.617-15.5-.111-.7-.578-1.162-.933-1.117l-.6.087a.637.637,0,0,0-.41.337,1.621,1.621,0,0,0-.163,1.023l.007.054c.226,2.372,1.353,14.214,1.363,14.348a1.372,1.372,0,0,1-.461,1.215,1.914,1.914,0,0,1-1.677.323,1.411,1.411,0,0,1-.975-1.038l-.024-.142-1.17-11.059a1.652,1.652,0,0,0-.507-.925.76.76,0,0,0-.6-.208l-.636.114c-.414.075-.777.7-.637,1.484l.011.072,1.333,11.973c.041.264.378,2.461.682,4.654.189,1.364.328,2.457.413,3.247.156,1.45.258,2.408-.759,2.655-.689.169-1.125-.177-3.069-1.837-.388-.331-.919-.784-1.056-.874a9.764,9.764,0,0,0-3.7-1.6,1.761,1.761,0,0,0-1.355.913C2497.57,505.716,2497.54,505.765,2497.515,505.809Zm22.824,11.579,0,.006Zm-5-20.632c0,.011,0,.021,0,.031C2515.345,496.781,2515.344,496.771,2515.343,496.756Z" transform="translate(-2495.283 -478.677)" fill="#153643"/>
      </g>
    </g>
    <g id="Grupo_27555" data-name="Grupo 27555" transform="translate(858.841 10165.559)">
      <g id="Grupo_27548" data-name="Grupo 27548">
        <g id="Grupo_27546" data-name="Grupo 27546">
          <g id="Grupo_27544" data-name="Grupo 27544" transform="translate(0 34.918)">
            <path id="Trazado_21879" data-name="Trazado 21879" d="M980.646,696.7a10.228,10.228,0,1,0,10.228,10.228A10.227,10.227,0,0,0,980.646,696.7Zm6,10.8a1.08,1.08,0,0,1-1.08,1.08h-9.835a1.08,1.08,0,0,1-1.08-1.08v-1.143a1.08,1.08,0,0,1,1.08-1.08h9.835a1.08,1.08,0,0,1,1.08,1.08Z" transform="translate(-970.418 -696.701)" fill="#e50019"/>
          </g>
          <path id="Trazado_21880" data-name="Trazado 21880" d="M1099.469,572.927a6.777,6.777,0,1,1-7.859-5.486A6.777,6.777,0,0,1,1099.469,572.927Z" transform="translate(-1054.816 -567.335)" fill="#153643"/>
          <g id="Grupo_27545" data-name="Grupo 27545" transform="translate(19.422 1.1)">
            <path id="Trazado_21881" data-name="Trazado 21881" d="M1091.934,601.8l10.4-11.327,19.287-7.041-2.236-7.5-20.7,7.969-15.417,13.574-10.088-7.234,9.15-1.852,10.564-12.938-5.232-4.034-8.8,10.141-12.544,2.129a8.79,8.79,0,0,1-4.077,2.523,8.569,8.569,0,0,1-4.743-1.026l-6.461,1.1-8.658,13.5,2.917,16.408,6.743-1.424-2.193-13.6,5.965-5.8,13.672,10.885s4.974,3.855,9.106,4.249a98.693,98.693,0,0,0,15.086-.2c6.024-.394,12.883-1.162,12.883-1.162l16.112,6.84,3.442-6.029-15.791-7.575Z" transform="translate(-1042.373 -571.41)" fill="#153643"/>
          </g>
          <path id="Trazado_21882" data-name="Trazado 21882" d="M1180.09,749.125c-1.11,0-2.227-.044-3.318-.087-.879-.035-1.788-.07-2.664-.081-1.668-.022-3.391-.8-3.483-2.475a2.9,2.9,0,0,1,1-2.106c.338-.368.545-.609.548-.823-.019-.336-.073-.455-.556-.564a6.672,6.672,0,0,0-3.45.5,14.964,14.964,0,0,1-2.146.565,29.177,29.177,0,0,1-6.624.286,5.316,5.316,0,0,1-3.964-1.524,4.419,4.419,0,0,1,.285-6.3c.069-.07.126-.133.174-.19a4.941,4.941,0,0,0-.611.01,40.1,40.1,0,0,0-4.68.656c-.632.114-1.285.232-1.941.337a.917.917,0,0,1-.292-1.81c.639-.1,1.284-.219,1.907-.331a42.046,42.046,0,0,1,4.884-.682c.53-.037,2.168-.152,2.676.946.477,1.032-.5,2.034-.825,2.363a2.613,2.613,0,0,0-.186,3.81c.557.639,1.377.807,2.693.888a27.39,27.39,0,0,0,6.216-.267,13.384,13.384,0,0,0,1.88-.5,8.23,8.23,0,0,1,4.422-.54,2.3,2.3,0,0,1,1.969,2.272v.028a3.025,3.025,0,0,1-1.031,2.112c-.272.3-.53.576-.52.77.027.491,1,.728,1.676.737.9.011,1.822.047,2.713.082,1.469.058,2.988.117,4.449.065,2.739-.046,5.783-.275,8.727-.5,1.337-.1,2.6-.195,3.82-.272a.916.916,0,1,1,.116,1.829c-1.21.077-2.468.171-3.8.271-2.97.223-6.041.453-8.815.5C1180.927,749.119,1180.509,749.125,1180.09,749.125Zm-23.954-13.158" transform="translate(-1099.774 -689.366)" fill="#153643"/>
          <path id="Trazado_21883" data-name="Trazado 21883" d="M1245.249,739.857c-1.881,0-3.789-.055-5.644-.109l-.958-.028c-1.5-.042-3.005-.111-4.461-.177-1.132-.051-2.3-.1-3.46-.145-1.254-.057-2.958-.135-3.495-1.3a2.194,2.194,0,0,1,.547-2.3l.02-.024c.19-.228.444-.477.713-.742.568-.559,1.749-1.723,1.428-2.164-.268-.346-1.35-.457-2.306-.554l-.1-.01a22.875,22.875,0,0,0-3.037-.049c-.4.011-.8.023-1.212.027-.9.01-1.843.109-2.756.2-.423.044-.829.087-1.207.118a21.789,21.789,0,0,0-2.3.395c-.565.117-1.149.239-1.753.33a.917.917,0,0,1-.273-1.813c.555-.084,1.088-.195,1.653-.312a23.578,23.578,0,0,1,2.511-.426c.381-.032.773-.073,1.182-.115.911-.1,1.944-.2,2.927-.214.4,0,.794-.015,1.18-.026a24.181,24.181,0,0,1,3.275.058l.1.01c1.451.148,2.821.288,3.585,1.277,1.268,1.739-.532,3.511-1.608,4.571-.23.227-.448.442-.583.6a2.14,2.14,0,0,0-.25.388,7.651,7.651,0,0,0,1.836.238c1.157.04,2.333.094,3.47.146,1.448.066,2.945.134,4.429.176l.96.028c2.146.062,4.365.126,6.51.1h.01a.917.917,0,0,1,.01,1.833C1245.876,739.855,1245.563,739.857,1245.249,739.857Z" transform="translate(-1148.408 -686.383)" fill="#153643"/>
        </g>
        <g id="Grupo_27547" data-name="Grupo 27547" transform="translate(107.964 10.198)">
          <rect id="Rectngulo_4338" data-name="Rectngulo 4338" width="31.812" height="31.812" rx="3.274" fill="#e50019"/>
          <path id="Trazado_21884" data-name="Trazado 21884" d="M1390.127,628.64l10.43,12.44,10.735-12.5-4.477.012-.038-14.225-12.211.032.038,14.225Z" transform="translate(-1384.804 -611.873)" fill="#fff"/>
        </g>
      </g>
      <g id="Grupo_27549" data-name="Grupo 27549" transform="translate(123.417 48.891)">
        <path id="Trazado_21885" data-name="Trazado 21885" d="M1433.616,760.4a5.968,5.968,0,1,1,5.964-5.969A5.973,5.973,0,0,1,1433.616,760.4Zm0-10.408a4.439,4.439,0,1,0,4.434,4.439A4.441,4.441,0,0,0,1433.616,750Z" transform="translate(-1427.653 -748.467)" fill="#153643"/>
        <path id="Trazado_21886" data-name="Trazado 21886" d="M1492.33,769.274H1488.5v-1.53h3.826Zm-7.651,0h-3.826v-1.53h3.826Z" transform="translate(-1466.493 -762.541)" fill="#153643"/>
      </g>
    </g>
    <path id="Trazado_21887" data-name="Trazado 21887" d="M-37.979-11.533H-43.35v3.2h4.639v2.549H-43.35V0H-46.3V-14.111h8.32ZM-31.572.2A6.313,6.313,0,0,1-34.414-.42a4.6,4.6,0,0,1-1.948-1.807,5.384,5.384,0,0,1-.708-2.8,4.911,4.911,0,0,1,1.523-3.809,5.652,5.652,0,0,1,3.975-1.4,5.665,5.665,0,0,1,3.984,1.4,4.911,4.911,0,0,1,1.523,3.809,4.938,4.938,0,0,1-1.523,3.823A5.654,5.654,0,0,1-31.572.2ZM-31.6-2.041a2.577,2.577,0,0,0,1.987-.82,3.071,3.071,0,0,0,.757-2.168A3.071,3.071,0,0,0-29.614-7.2a2.577,2.577,0,0,0-1.987-.82,2.483,2.483,0,0,0-1.929.825,3.1,3.1,0,0,0-.747,2.163,3.1,3.1,0,0,0,.747,2.163A2.483,2.483,0,0,0-31.6-2.041Zm10.322-6.406a3.259,3.259,0,0,1,1.318-1.206,4.023,4.023,0,0,1,1.963-.5v2.51a3.8,3.8,0,0,0-2.4.605,2.643,2.643,0,0,0-.742,2.148V0h-2.832V-10.039h2.7ZM-12.031,0A3.032,3.032,0,0,1-14.3-.815a3.172,3.172,0,0,1-.8-2.319V-7.881H-17.07v-2.158h.635a1.656,1.656,0,0,0,1.25-.42,2.162,2.162,0,0,0,.4-1.494v-1.328h2.539v3.242h2.07v2.158h-2.07v4.443q0,1.3,1.162,1.3h.908V0ZM.2-2.725A9.392,9.392,0,0,0,.439-.273V0H-2.187l-.225-1.094a3.264,3.264,0,0,1-1.406.967A5.183,5.183,0,0,1-5.635.2,4.776,4.776,0,0,1-6.572.107a3.187,3.187,0,0,1-.845-.3,2.564,2.564,0,0,1-.7-.522,2.291,2.291,0,0,1-.469-.8A3.17,3.17,0,0,1-8.76-2.6a3.02,3.02,0,0,1,.186-1.089A2.552,2.552,0,0,1-8.086-4.5a2.962,2.962,0,0,1,.791-.6,6.053,6.053,0,0,1,1-.43A11.9,11.9,0,0,1-5.107-5.84l1.65-.371a1.82,1.82,0,0,0,.747-.317.633.633,0,0,0,.22-.5A1.036,1.036,0,0,0-2.983-8a2.3,2.3,0,0,0-1.2-.293A1.721,1.721,0,0,0-6.143-6.758l-2.49-.449A3.371,3.371,0,0,1-7.178-9.5a5.783,5.783,0,0,1,3.154-.737Q.2-10.234.2-6.611ZM-4.756-1.709a2.262,2.262,0,0,0,1.738-.728A3.066,3.066,0,0,0-2.344-4.59l-2.383.674a2.816,2.816,0,0,0-1,.41.842.842,0,0,0-.347.723.935.935,0,0,0,.371.8A1.536,1.536,0,0,0-4.756-1.709ZM2.93,0V-15H5.771V0Zm15.2-5.166-.029.674H10.654a2.6,2.6,0,0,0,.8,1.836,2.561,2.561,0,0,0,1.768.635,2.468,2.468,0,0,0,1.323-.347,2.131,2.131,0,0,0,.845-1.011L17.969-3A4.383,4.383,0,0,1,16.211-.645,5.226,5.226,0,0,1,13.242.2,5.435,5.435,0,0,1,9.331-1.187,5.042,5.042,0,0,1,7.881-5.02,5.072,5.072,0,0,1,9.336-8.853a5.273,5.273,0,0,1,3.818-1.4,5.04,5.04,0,0,1,3.6,1.279A5.019,5.019,0,0,1,18.125-5.166Zm-4.951-3.1a2.222,2.222,0,0,0-2.441,1.934h4.609a2.114,2.114,0,0,0-.693-1.436A2.2,2.2,0,0,0,13.174-8.262Zm14.17-1.777L22.93-2.168h4.277V0H18.936L23.33-7.871H19.277v-2.168Zm9.814,7.314A9.392,9.392,0,0,0,37.4-.273V0H34.775l-.225-1.094a3.264,3.264,0,0,1-1.406.967A5.183,5.183,0,0,1,31.328.2a4.776,4.776,0,0,1-.937-.088,3.187,3.187,0,0,1-.845-.3,2.564,2.564,0,0,1-.7-.522,2.291,2.291,0,0,1-.469-.8A3.17,3.17,0,0,1,28.2-2.6a3.02,3.02,0,0,1,.186-1.089,2.552,2.552,0,0,1,.488-.815,2.962,2.962,0,0,1,.791-.6,6.053,6.053,0,0,1,1-.43,11.9,11.9,0,0,1,1.191-.312l1.65-.371a1.82,1.82,0,0,0,.747-.317.633.633,0,0,0,.22-.5A1.036,1.036,0,0,0,33.979-8a2.3,2.3,0,0,0-1.2-.293A1.721,1.721,0,0,0,30.82-6.758l-2.49-.449A3.371,3.371,0,0,1,29.785-9.5a5.783,5.783,0,0,1,3.154-.737q4.219,0,4.219,3.623ZM32.207-1.709a2.262,2.262,0,0,0,1.738-.728,3.066,3.066,0,0,0,.674-2.153l-2.383.674a2.816,2.816,0,0,0-1,.41.842.842,0,0,0-.347.723.935.935,0,0,0,.371.8A1.536,1.536,0,0,0,32.207-1.709ZM43.428.2a5.61,5.61,0,0,1-2.93-.7A2.972,2.972,0,0,1,39.063-2.6l2.354-.664a1.891,1.891,0,0,0,2.012,1.494A2.078,2.078,0,0,0,44.453-2a.8.8,0,0,0,.4-.776.821.821,0,0,0-.166-.518,1.315,1.315,0,0,0-.513-.371,6.388,6.388,0,0,0-.684-.264q-.337-.107-.894-.259t-.928-.288a6.215,6.215,0,0,1-.884-.376,3.77,3.77,0,0,1-.732-.518,2.086,2.086,0,0,1-.547-.786,2.836,2.836,0,0,1-.19-1.074,2.565,2.565,0,0,1,1.089-2.246,4.865,4.865,0,0,1,2.847-.762,4.988,4.988,0,0,1,2.627.645,2.917,2.917,0,0,1,1.348,2.012l-2.178.488a1.706,1.706,0,0,0-1.787-1.27,1.957,1.957,0,0,0-.986.225.722.722,0,0,0-.391.664.761.761,0,0,0,.059.3.6.6,0,0,0,.205.244,2.991,2.991,0,0,0,.283.186,2.137,2.137,0,0,0,.4.161q.264.083.439.127l.513.132.522.137q.537.146.942.293a5.519,5.519,0,0,1,.864.41,3.1,3.1,0,0,1,.757.591,2.635,2.635,0,0,1,.493.83,3.066,3.066,0,0,1,.2,1.118,3.02,3.02,0,0,1-.337,1.455A2.529,2.529,0,0,1,46.3-.5,4.492,4.492,0,0,1,45,.024,6.763,6.763,0,0,1,43.428.2Z" transform="translate(441 10257)" fill="#002b45"/>
    <path id="Trazado_21888" data-name="Trazado 21888" d="M-64.648.2a7.671,7.671,0,0,1-3.706-.884,6.407,6.407,0,0,1-2.573-2.544,7.651,7.651,0,0,1-.937-3.828,7.644,7.644,0,0,1,.938-3.833,6.383,6.383,0,0,1,2.573-2.534,7.705,7.705,0,0,1,3.706-.879,7.677,7.677,0,0,1,3.7.879,6.391,6.391,0,0,1,2.568,2.534,7.644,7.644,0,0,1,.938,3.833,7.651,7.651,0,0,1-.937,3.828A6.407,6.407,0,0,1-60.952-.688,7.65,7.65,0,0,1-64.648.2Zm-3.086-3.921A4.136,4.136,0,0,0-64.648-2.49a4.136,4.136,0,0,0,3.086-1.235,4.558,4.558,0,0,0,1.211-3.335,4.528,4.528,0,0,0-1.211-3.32,4.145,4.145,0,0,0-3.086-1.23,4.145,4.145,0,0,0-3.086,1.23,4.528,4.528,0,0,0-1.211,3.32A4.558,4.558,0,0,0-67.734-3.726Zm18.506-6.509a4.883,4.883,0,0,1,1.875.361,4.692,4.692,0,0,1,1.538,1.016A4.6,4.6,0,0,1-44.775-7.2,6.146,6.146,0,0,1-44.395-5a6.146,6.146,0,0,1-.381,2.2,4.6,4.6,0,0,1-1.04,1.655A4.692,4.692,0,0,1-47.354-.127a4.883,4.883,0,0,1-1.875.361,4.356,4.356,0,0,1-1.816-.371A2.846,2.846,0,0,1-52.3-1.191V4.883h-2.812V-10.039h2.666l.078,1.348a2.75,2.75,0,0,1,1.255-1.138A4.313,4.313,0,0,1-49.229-10.234ZM-49.863-2.1a2.527,2.527,0,0,0,1.9-.786A2.92,2.92,0,0,0-47.207-5a2.92,2.92,0,0,0-.757-2.114,2.527,2.527,0,0,0-1.9-.786,2.531,2.531,0,0,0-1.914.8A2.921,2.921,0,0,0-52.539-5a2.921,2.921,0,0,0,.762,2.1A2.531,2.531,0,0,0-49.863-2.1ZM-37.6.2A6.313,6.313,0,0,1-40.439-.42a4.6,4.6,0,0,1-1.948-1.807,5.384,5.384,0,0,1-.708-2.8,4.911,4.911,0,0,1,1.523-3.809,5.652,5.652,0,0,1,3.975-1.4,5.665,5.665,0,0,1,3.984,1.4A4.911,4.911,0,0,1-32.09-5.029a4.938,4.938,0,0,1-1.523,3.823A5.654,5.654,0,0,1-37.6.2Zm-.029-2.236a2.577,2.577,0,0,0,1.987-.82,3.071,3.071,0,0,0,.757-2.168A3.071,3.071,0,0,0-35.64-7.2a2.577,2.577,0,0,0-1.987-.82,2.483,2.483,0,0,0-1.929.825A3.1,3.1,0,0,0-40.3-5.029a3.1,3.1,0,0,0,.747,2.163A2.483,2.483,0,0,0-37.627-2.041ZM-27.3-8.447a3.259,3.259,0,0,1,1.318-1.206,4.023,4.023,0,0,1,1.963-.5v2.51a3.8,3.8,0,0,0-2.4.605,2.643,2.643,0,0,0-.742,2.148V0H-30V-10.039h2.7ZM-18.057,0a3.032,3.032,0,0,1-2.266-.815,3.172,3.172,0,0,1-.8-2.319V-7.881H-23.1v-2.158h.635a1.656,1.656,0,0,0,1.25-.42,2.162,2.162,0,0,0,.4-1.494v-1.328h2.539v3.242h2.07v2.158h-2.07v4.443q0,1.3,1.162,1.3h.908V0ZM-7.373-10.039h2.813V0H-7.227l-.068-1.211A3.834,3.834,0,0,1-10.488.2a3.914,3.914,0,0,1-2.773-.9,3.349,3.349,0,0,1-.967-2.573v-6.758h2.822v6.152a1.735,1.735,0,0,0,.5,1.377,1.909,1.909,0,0,0,1.3.439A2.264,2.264,0,0,0-8-2.642a2.454,2.454,0,0,0,.63-1.86Zm11.65-.2a3.914,3.914,0,0,1,2.773.9,3.349,3.349,0,0,1,.967,2.573V0H5.2V-6.152a1.749,1.749,0,0,0-.5-1.387A1.9,1.9,0,0,0,3.4-7.979a2.643,2.643,0,0,0-.84.127,2.158,2.158,0,0,0-.7.4,1.748,1.748,0,0,0-.5.757,3.5,3.5,0,0,0-.19,1.162V0H-1.65V-10.039H1.162v1.113A3.868,3.868,0,0,1,4.277-10.234Zm7.9-1.309a1.579,1.579,0,0,1-1.152-.474,1.555,1.555,0,0,1-.479-1.147A1.536,1.536,0,0,1,11.03-14.3a1.584,1.584,0,0,1,1.147-.474,1.556,1.556,0,0,1,1.133.474,1.544,1.544,0,0,1,.479,1.138,1.555,1.555,0,0,1-.479,1.147A1.556,1.556,0,0,1,12.178-11.543ZM10.742,0V-10.039h2.832V0ZM23.6-15h2.813V0H23.75l-.068-1.309A2.867,2.867,0,0,1,22.407-.171a4.29,4.29,0,0,1-1.88.405,4.883,4.883,0,0,1-1.875-.361,4.654,4.654,0,0,1-1.538-1.021A4.652,4.652,0,0,1,16.074-2.8,6.106,6.106,0,0,1,15.693-5a5.707,5.707,0,0,1,.664-2.8A4.55,4.55,0,0,1,18.11-9.619a4.827,4.827,0,0,1,2.417-.615,4.4,4.4,0,0,1,1.821.366A2.843,2.843,0,0,1,23.6-8.828ZM21.172-2.1a2.5,2.5,0,0,0,1.9-.8A2.932,2.932,0,0,0,23.828-5a2.938,2.938,0,0,0-.762-2.1,2.5,2.5,0,0,0-1.895-.806,2.53,2.53,0,0,0-1.909.791A2.937,2.937,0,0,0,18.506-5a2.924,2.924,0,0,0,.757,2.109A2.53,2.53,0,0,0,21.172-2.1Zm16.387-.625A9.392,9.392,0,0,0,37.8-.273V0H35.176l-.225-1.094a3.264,3.264,0,0,1-1.406.967A5.183,5.183,0,0,1,31.729.2a4.776,4.776,0,0,1-.937-.088,3.187,3.187,0,0,1-.845-.3,2.564,2.564,0,0,1-.7-.522,2.291,2.291,0,0,1-.469-.8A3.17,3.17,0,0,1,28.6-2.6a3.02,3.02,0,0,1,.186-1.089,2.552,2.552,0,0,1,.488-.815,2.962,2.962,0,0,1,.791-.6,6.053,6.053,0,0,1,1-.43,11.9,11.9,0,0,1,1.191-.312l1.65-.371a1.82,1.82,0,0,0,.747-.317.633.633,0,0,0,.22-.5A1.036,1.036,0,0,0,34.38-8a2.3,2.3,0,0,0-1.2-.293,1.721,1.721,0,0,0-1.963,1.533l-2.49-.449A3.371,3.371,0,0,1,30.186-9.5a5.783,5.783,0,0,1,3.154-.737q4.219,0,4.219,3.623ZM32.607-1.709a2.262,2.262,0,0,0,1.738-.728A3.066,3.066,0,0,0,35.02-4.59l-2.383.674a2.816,2.816,0,0,0-1,.41.842.842,0,0,0-.347.723.935.935,0,0,0,.371.8A1.536,1.536,0,0,0,32.607-1.709ZM47.188-15H50V0H47.334l-.068-1.309A2.867,2.867,0,0,1,45.991-.171a4.29,4.29,0,0,1-1.88.405,4.883,4.883,0,0,1-1.875-.361A4.654,4.654,0,0,1,40.7-1.147,4.652,4.652,0,0,1,39.658-2.8,6.106,6.106,0,0,1,39.277-5a5.707,5.707,0,0,1,.664-2.8,4.55,4.55,0,0,1,1.753-1.821,4.827,4.827,0,0,1,2.417-.615,4.4,4.4,0,0,1,1.821.366,2.843,2.843,0,0,1,1.255,1.04ZM44.756-2.1a2.5,2.5,0,0,0,1.9-.8A2.932,2.932,0,0,0,47.412-5a2.938,2.938,0,0,0-.762-2.1,2.5,2.5,0,0,0-1.895-.806,2.53,2.53,0,0,0-1.909.791A2.937,2.937,0,0,0,42.09-5a2.924,2.924,0,0,0,.757,2.109A2.53,2.53,0,0,0,44.756-2.1Zm17.6-3.066-.029.674H54.883a2.6,2.6,0,0,0,.8,1.836,2.561,2.561,0,0,0,1.768.635,2.468,2.468,0,0,0,1.323-.347,2.131,2.131,0,0,0,.845-1.011L62.2-3A4.383,4.383,0,0,1,60.439-.645,5.226,5.226,0,0,1,57.471.2,5.435,5.435,0,0,1,53.56-1.187a5.042,5.042,0,0,1-1.45-3.833,5.072,5.072,0,0,1,1.455-3.833,5.273,5.273,0,0,1,3.818-1.4,5.04,5.04,0,0,1,3.6,1.279A5.019,5.019,0,0,1,62.354-5.166ZM57.4-8.262a2.222,2.222,0,0,0-2.441,1.934H59.57a2.114,2.114,0,0,0-.693-1.436A2.2,2.2,0,0,0,57.4-8.262ZM68.027.2a5.61,5.61,0,0,1-2.93-.7A2.972,2.972,0,0,1,63.662-2.6l2.354-.664a1.891,1.891,0,0,0,2.012,1.494A2.078,2.078,0,0,0,69.053-2a.8.8,0,0,0,.4-.776.821.821,0,0,0-.166-.518,1.315,1.315,0,0,0-.513-.371,6.387,6.387,0,0,0-.684-.264q-.337-.107-.894-.259t-.928-.288a6.215,6.215,0,0,1-.884-.376,3.77,3.77,0,0,1-.732-.518,2.086,2.086,0,0,1-.547-.786,2.836,2.836,0,0,1-.19-1.074A2.565,2.565,0,0,1,65-9.473a4.865,4.865,0,0,1,2.847-.762,4.988,4.988,0,0,1,2.627.645,2.917,2.917,0,0,1,1.348,2.012l-2.178.488a1.706,1.706,0,0,0-1.787-1.27,1.957,1.957,0,0,0-.986.225.722.722,0,0,0-.391.664.761.761,0,0,0,.059.3.6.6,0,0,0,.205.244,2.991,2.991,0,0,0,.283.186,2.137,2.137,0,0,0,.4.161q.264.083.439.127l.513.132.522.137q.537.146.942.293a5.519,5.519,0,0,1,.864.41,3.1,3.1,0,0,1,.757.591,2.635,2.635,0,0,1,.493.83,3.066,3.066,0,0,1,.2,1.118,3.02,3.02,0,0,1-.337,1.455A2.529,2.529,0,0,1,70.9-.5a4.492,4.492,0,0,1-1.3.527A6.763,6.763,0,0,1,68.027.2Z" transform="translate(441 10414)" fill="#002b45"/>
    <path id="Trazado_21889" data-name="Trazado 21889" d="M-17.6,0-21.27-6.211h-.85V0h-2.93V-14.111h5.117a5.919,5.919,0,0,1,2.051.327,3.546,3.546,0,0,1,1.421.908,3.889,3.889,0,0,1,.8,1.333,4.876,4.876,0,0,1,.269,1.65,3.446,3.446,0,0,1-.771,2.319,3.888,3.888,0,0,1-2.217,1.216L-14.131,0Zm-4.521-11.68v3.369h1.729q2.2,0,2.2-1.68a1.53,1.53,0,0,0-.537-1.24,2.554,2.554,0,0,0-1.66-.449ZM-3.506-5.166l-.029.674h-7.441a2.6,2.6,0,0,0,.8,1.836,2.561,2.561,0,0,0,1.768.635,2.468,2.468,0,0,0,1.323-.347A2.131,2.131,0,0,0-6.24-3.379L-3.662-3A4.383,4.383,0,0,1-5.42-.645,5.226,5.226,0,0,1-8.389.2,5.435,5.435,0,0,1-12.3-1.187,5.042,5.042,0,0,1-13.75-5.02a5.072,5.072,0,0,1,1.455-3.833,5.273,5.273,0,0,1,3.818-1.4,5.04,5.04,0,0,1,3.6,1.279A5.019,5.019,0,0,1-3.506-5.166Zm-4.951-3.1A2.222,2.222,0,0,0-10.9-6.328h4.609a2.114,2.114,0,0,0-.693-1.436A2.2,2.2,0,0,0-8.457-8.262ZM2.373,0A3.032,3.032,0,0,1,.107-.815a3.172,3.172,0,0,1-.8-2.319V-7.881H-2.666v-2.158h.635a1.656,1.656,0,0,0,1.25-.42,2.162,2.162,0,0,0,.4-1.494v-1.328H2.158v3.242h2.07v2.158H2.158v4.443q0,1.3,1.162,1.3h.908V0Zm8.672.2A6.313,6.313,0,0,1,8.2-.42,4.6,4.6,0,0,1,6.255-2.227a5.384,5.384,0,0,1-.708-2.8A4.911,4.911,0,0,1,7.07-8.838a5.652,5.652,0,0,1,3.975-1.4,5.665,5.665,0,0,1,3.984,1.4,4.911,4.911,0,0,1,1.523,3.809,4.938,4.938,0,0,1-1.523,3.823A5.654,5.654,0,0,1,11.045.2Zm-.029-2.236A2.577,2.577,0,0,0,13-2.861a3.071,3.071,0,0,0,.757-2.168A3.071,3.071,0,0,0,13-7.2a2.577,2.577,0,0,0-1.987-.82,2.483,2.483,0,0,0-1.929.825A3.1,3.1,0,0,0,8.34-5.029a3.1,3.1,0,0,0,.747,2.163A2.483,2.483,0,0,0,11.016-2.041ZM22.178.2a5.61,5.61,0,0,1-2.93-.7A2.972,2.972,0,0,1,17.813-2.6l2.354-.664a1.891,1.891,0,0,0,2.012,1.494A2.078,2.078,0,0,0,23.2-2a.8.8,0,0,0,.4-.776.821.821,0,0,0-.166-.518,1.315,1.315,0,0,0-.513-.371,6.387,6.387,0,0,0-.684-.264q-.337-.107-.894-.259t-.928-.288a6.215,6.215,0,0,1-.884-.376,3.77,3.77,0,0,1-.732-.518,2.086,2.086,0,0,1-.547-.786,2.836,2.836,0,0,1-.19-1.074,2.565,2.565,0,0,1,1.089-2.246A4.865,4.865,0,0,1,22-10.234a4.988,4.988,0,0,1,2.627.645,2.917,2.917,0,0,1,1.348,2.012L23.8-7.09a1.706,1.706,0,0,0-1.787-1.27,1.957,1.957,0,0,0-.986.225.722.722,0,0,0-.391.664.761.761,0,0,0,.059.3.6.6,0,0,0,.205.244,2.991,2.991,0,0,0,.283.186,2.137,2.137,0,0,0,.4.161q.264.083.439.127l.513.132.522.137q.537.146.942.293a5.519,5.519,0,0,1,.864.41,3.1,3.1,0,0,1,.757.591,2.635,2.635,0,0,1,.493.83,3.066,3.066,0,0,1,.2,1.118,3.02,3.02,0,0,1-.337,1.455,2.529,2.529,0,0,1-.923.981,4.492,4.492,0,0,1-1.3.527A6.763,6.763,0,0,1,22.178.2Z" transform="translate(943 10414)" fill="#002b45"/>
    <path id="Trazado_21890" data-name="Trazado 21890" d="M8.232,0-2.783-18.633H-5.332V0h-8.789V-42.334H1.23a17.758,17.758,0,0,1,6.152.981,10.637,10.637,0,0,1,4.263,2.725,11.668,11.668,0,0,1,2.4,4,14.627,14.627,0,0,1,.806,4.951,10.338,10.338,0,0,1-2.314,6.958,11.663,11.663,0,0,1-6.65,3.647L18.633,0ZM-5.332-35.039v10.107H-.146q6.592,0,6.592-5.039a4.589,4.589,0,0,0-1.611-3.721,7.662,7.662,0,0,0-4.98-1.348Z" transform="translate(758 10360)" fill="#fff"/>
    <path id="Trazado_21891" data-name="Trazado 21891" d="M-.117-7.764H13.154V0H-8.906V-42.334H-.117Z" transform="translate(758 10216)" fill="#fff"/>
    <path id="Trazado_21892" data-name="Trazado 21892" d="M0,.586A23.012,23.012,0,0,1-11.118-2.065,19.22,19.22,0,0,1-18.838-9.7,22.952,22.952,0,0,1-21.65-21.182a22.931,22.931,0,0,1,2.813-11.5,19.147,19.147,0,0,1,7.72-7.6A23.115,23.115,0,0,1,0-42.92a23.03,23.03,0,0,1,11.1,2.637,19.172,19.172,0,0,1,7.705,7.6,22.931,22.931,0,0,1,2.813,11.5A22.952,22.952,0,0,1,18.809-9.7a19.22,19.22,0,0,1-7.72,7.632A22.95,22.95,0,0,1,0,.586ZM-9.258-11.177A12.409,12.409,0,0,0,0-7.471a12.409,12.409,0,0,0,9.258-3.706q3.633-3.706,3.633-10,0-6.27-3.633-9.961A12.434,12.434,0,0,0,0-34.834a12.434,12.434,0,0,0-9.258,3.691q-3.633,3.691-3.633,9.961Q-12.891-14.883-9.258-11.177Z" transform="translate(611 10360)" fill="#fff"/>
    <path id="Trazado_21893" data-name="Trazado 21893" d="M14.209-34.6H-1.9v9.609H12.012v7.646H-1.9V0h-8.848V-42.334H14.209Z" transform="translate(611 10216)" fill="#fff"/>
    <path id="Trazado_21894" data-name="Trazado 21894" d="M-55.679-2.588h4.424V0h-7.354V-14.111h2.93Zm7.725-8.955a1.579,1.579,0,0,1-1.152-.474,1.555,1.555,0,0,1-.479-1.147A1.536,1.536,0,0,1-49.1-14.3a1.584,1.584,0,0,1,1.147-.474,1.556,1.556,0,0,1,1.133.474,1.544,1.544,0,0,1,.479,1.138,1.555,1.555,0,0,1-.479,1.147A1.556,1.556,0,0,1-47.954-11.543ZM-49.39,0V-10.039h2.832V0Zm17.637-10.234a3.836,3.836,0,0,1,2.588.815,2.918,2.918,0,0,1,.947,2.339V0H-31.03V-6.279a1.677,1.677,0,0,0-.449-1.27,1.573,1.573,0,0,0-1.133-.43,1.814,1.814,0,0,0-1.367.547,2.484,2.484,0,0,0-.527,1.768V0h-2.842V-6.25A1.721,1.721,0,0,0-37.8-7.544a1.6,1.6,0,0,0-1.162-.435,1.757,1.757,0,0,0-1.357.576,2.751,2.751,0,0,0-.527,1.885V0h-2.8V-10.039h2.8v1.182a3.414,3.414,0,0,1,2.91-1.377,4.293,4.293,0,0,1,1.89.386A2.572,2.572,0,0,1-34.858-8.73,3.55,3.55,0,0,1-31.753-10.234Zm7.705-1.309a1.579,1.579,0,0,1-1.152-.474,1.555,1.555,0,0,1-.479-1.147A1.536,1.536,0,0,1-25.2-14.3a1.584,1.584,0,0,1,1.147-.474,1.556,1.556,0,0,1,1.133.474,1.544,1.544,0,0,1,.479,1.138,1.555,1.555,0,0,1-.479,1.147A1.556,1.556,0,0,1-24.048-11.543ZM-25.483,0V-10.039h2.832V0ZM-16,0a3.032,3.032,0,0,1-2.266-.815,3.172,3.172,0,0,1-.8-2.319V-7.881H-21.04v-2.158h.635a1.656,1.656,0,0,0,1.25-.42,2.162,2.162,0,0,0,.4-1.494v-1.328h2.539v3.242h2.07v2.158h-2.07v4.443q0,1.3,1.162,1.3h.908V0ZM-3.774-2.725A9.392,9.392,0,0,0-3.53-.273V0H-6.157l-.225-1.094a3.264,3.264,0,0,1-1.406.967A5.183,5.183,0,0,1-9.6.2a4.776,4.776,0,0,1-.937-.088,3.187,3.187,0,0,1-.845-.3,2.564,2.564,0,0,1-.7-.522,2.291,2.291,0,0,1-.469-.8A3.17,3.17,0,0,1-12.729-2.6a3.02,3.02,0,0,1,.186-1.089,2.552,2.552,0,0,1,.488-.815,2.962,2.962,0,0,1,.791-.6,6.053,6.053,0,0,1,1-.43A11.9,11.9,0,0,1-9.077-5.84l1.65-.371a1.82,1.82,0,0,0,.747-.317.633.633,0,0,0,.22-.5A1.036,1.036,0,0,0-6.953-8a2.3,2.3,0,0,0-1.2-.293,1.721,1.721,0,0,0-1.963,1.533l-2.49-.449A3.371,3.371,0,0,1-11.147-9.5a5.783,5.783,0,0,1,3.154-.737q4.219,0,4.219,3.623ZM-8.726-1.709a2.262,2.262,0,0,0,1.738-.728A3.066,3.066,0,0,0-6.313-4.59L-8.7-3.916a2.816,2.816,0,0,0-1,.41.842.842,0,0,0-.347.723.935.935,0,0,0,.371.8A1.536,1.536,0,0,0-8.726-1.709Zm12,1.895A5.364,5.364,0,0,1-.6-1.26a4.992,4.992,0,0,1-1.5-3.77A4.981,4.981,0,0,1-.605-8.8a5.38,5.38,0,0,1,3.882-1.436,5.349,5.349,0,0,1,3.252.967,4.316,4.316,0,0,1,1.68,2.725l-2.6.283a2.226,2.226,0,0,0-.84-1.318,2.554,2.554,0,0,0-1.523-.439,2.3,2.3,0,0,0-1.836.82,3.216,3.216,0,0,0-.7,2.168,3.22,3.22,0,0,0,.7,2.163,2.3,2.3,0,0,0,1.836.825A2.532,2.532,0,0,0,4.766-2.48,2.277,2.277,0,0,0,5.61-3.8l2.6.283A4.328,4.328,0,0,1,6.514-.791,5.327,5.327,0,0,1,3.276.186Zm8.369-11.729a1.579,1.579,0,0,1-1.152-.474,1.555,1.555,0,0,1-.479-1.147A1.536,1.536,0,0,1,10.5-14.3a1.584,1.584,0,0,1,1.147-.474,1.556,1.556,0,0,1,1.133.474,1.544,1.544,0,0,1,.479,1.138,1.555,1.555,0,0,1-.479,1.147A1.556,1.556,0,0,1,11.646-11.543ZM10.21,0V-10.039h2.832V0ZM20.63.2A6.313,6.313,0,0,1,17.788-.42,4.6,4.6,0,0,1,15.84-2.227a5.384,5.384,0,0,1-.708-2.8,4.911,4.911,0,0,1,1.523-3.809,5.652,5.652,0,0,1,3.975-1.4,5.665,5.665,0,0,1,3.984,1.4,4.911,4.911,0,0,1,1.523,3.809,4.938,4.938,0,0,1-1.523,3.823A5.654,5.654,0,0,1,20.63.2ZM20.6-2.041a2.577,2.577,0,0,0,1.987-.82,3.071,3.071,0,0,0,.757-2.168A3.071,3.071,0,0,0,22.588-7.2a2.577,2.577,0,0,0-1.987-.82,2.483,2.483,0,0,0-1.929.825,3.1,3.1,0,0,0-.747,2.163,3.1,3.1,0,0,0,.747,2.163A2.483,2.483,0,0,0,20.6-2.041Zm13.555-8.193a3.914,3.914,0,0,1,2.773.9A3.349,3.349,0,0,1,37.9-6.758V0H35.073V-6.152a1.749,1.749,0,0,0-.5-1.387,1.9,1.9,0,0,0-1.294-.439,2.643,2.643,0,0,0-.84.127,2.158,2.158,0,0,0-.7.4,1.748,1.748,0,0,0-.5.757,3.5,3.5,0,0,0-.19,1.162V0H28.228V-10.039H31.04v1.113A3.868,3.868,0,0,1,34.155-10.234ZM50.063-5.166l-.029.674H42.593a2.6,2.6,0,0,0,.8,1.836,2.561,2.561,0,0,0,1.768.635,2.468,2.468,0,0,0,1.323-.347,2.131,2.131,0,0,0,.845-1.011L49.907-3A4.383,4.383,0,0,1,48.149-.645,5.226,5.226,0,0,1,45.181.2,5.435,5.435,0,0,1,41.27-1.187a5.042,5.042,0,0,1-1.45-3.833,5.072,5.072,0,0,1,1.455-3.833,5.273,5.273,0,0,1,3.818-1.4,5.04,5.04,0,0,1,3.6,1.279A5.019,5.019,0,0,1,50.063-5.166Zm-4.951-3.1a2.222,2.222,0,0,0-2.441,1.934H47.28a2.114,2.114,0,0,0-.693-1.436A2.2,2.2,0,0,0,45.112-8.262ZM55.737.2a5.61,5.61,0,0,1-2.93-.7A2.972,2.972,0,0,1,51.372-2.6l2.354-.664a1.891,1.891,0,0,0,2.012,1.494A2.078,2.078,0,0,0,56.763-2a.8.8,0,0,0,.4-.776A.821.821,0,0,0,57-3.291a1.315,1.315,0,0,0-.513-.371,6.388,6.388,0,0,0-.684-.264q-.337-.107-.894-.259t-.928-.288a6.215,6.215,0,0,1-.884-.376,3.77,3.77,0,0,1-.732-.518,2.086,2.086,0,0,1-.547-.786,2.836,2.836,0,0,1-.19-1.074,2.565,2.565,0,0,1,1.089-2.246,4.865,4.865,0,0,1,2.847-.762,4.988,4.988,0,0,1,2.627.645,2.917,2.917,0,0,1,1.348,2.012l-2.178.488a1.706,1.706,0,0,0-1.787-1.27,1.957,1.957,0,0,0-.986.225.722.722,0,0,0-.391.664.761.761,0,0,0,.059.3.6.6,0,0,0,.205.244,2.991,2.991,0,0,0,.283.186,2.137,2.137,0,0,0,.4.161q.264.083.439.127l.513.132.522.137q.537.146.942.293a5.519,5.519,0,0,1,.864.41,3.1,3.1,0,0,1,.757.591,2.635,2.635,0,0,1,.493.83,3.066,3.066,0,0,1,.2,1.118,3.02,3.02,0,0,1-.337,1.455,2.529,2.529,0,0,1-.923.981,4.492,4.492,0,0,1-1.3.527A6.763,6.763,0,0,1,55.737.2Z" transform="translate(943 10257)" fill="#002b45"/>
  </g>
</svg>
