<svg xmlns="http://www.w3.org/2000/svg" width="708.507" height="77.298" viewBox="0 0 708.507 77.298">
  <g id="Grupo_26837" data-name="Grupo 26837" transform="translate(-256 -390.545)">
    <path id="Trazado_21034" data-name="Trazado 21034" d="M312.221,395.854c1.212-3.493,5.158-4.945,8.573-4.981,12.534-.085,25.074-.021,37.615-.035q-1.87,5.282-3.748,10.55-15.006-.011-29.991,0c-2.211-.12-3.691,2.154-3.868,4.131a1.4,1.4,0,0,0,1.445,1.764c7.057.071,14.128-.021,21.185.035,2.048.036,4.329.432,5.725,2.083,1.927,2.331,1.877,5.746.879,8.46-1.531,3.89-2.976,7.815-4.492,11.719-1.41,3.642-5.562,5.2-9.2,5.208-12.278.035-24.543.014-36.821.007,1.155-3.5,2.438-6.95,3.472-10.493,9.834-.064,19.668.085,29.509-.071a4.858,4.858,0,0,0,4.967-4.464c.361-1.424-1.311-1.969-2.4-1.885-6.879-.1-13.759.05-20.639-.064-2.9.028-5.958-1.665-6.908-4.506-.659-1.934.177-3.918.737-5.76,1.339-3.89,2.6-7.815,3.961-11.7Z" transform="translate(264.847 1.719)" fill="#b84e2b"/>
    <path id="Trazado_21035" data-name="Trazado 21035" d="M328.933,390.853c23.076-.028,46.159.007,69.242-.021,2.154-.05,4.733.248,6.022,2.239,1.793,2.912.964,6.575-.028,9.636q-5.622,16.058-11.272,32.1-5.845.011-11.7,0c3.486-10.188,7.05-20.363,10.507-30.558.51-1.091.17-2.891-1.332-2.8-5.349-.142-10.705-.021-16.062-.064a4.62,4.62,0,0,0-4.669,3.408c-3.344,10.025-6.787,20.008-10.181,30.005-3.989.014-7.964.014-11.952.007,3.386-9.919,6.865-19.817,10.231-29.743.5-1.325.538-3.776-1.46-3.649q-8.056-.064-16.118,0c-2.019-.036-3.507,1.672-4.024,3.479-3.564,9.926-6.944,19.916-10.351,29.892-3.989.05-7.971.021-11.967.021,5.023-14.659,10.1-29.3,15.113-43.956Z" transform="translate(351.839 1.711)" fill="#b84e2b"/>
    <path id="Trazado_21036" data-name="Trazado 21036" d="M342.655,392.373a12.128,12.128,0,0,1,6.752-1.544q18.726.011,37.452.007c-1.162,3.521-2.31,7.042-3.5,10.55-10.245.028-20.5-.064-30.728.05a4.577,4.577,0,0,0-4.4,3.535q-5.218,14.91-10.437,29.828-5.973.011-11.938,0c4.138-12.1,8.339-24.181,12.47-36.29a11.346,11.346,0,0,1,4.329-6.136Z" transform="translate(425.079 1.722)" fill="#b84e2b"/>
    <path id="Trazado_21037" data-name="Trazado 21037" d="M346.24,390.857c3.9-.043,7.822-.021,11.733-.021C354.5,401,350.938,411.12,347.509,421.294c-.56,1.183.085,3.04,1.587,2.948,4.74.135,9.48-.007,14.22.064,1.495-.057,3.125.106,4.485-.673,1.049-.808,1.325-2.2,1.8-3.38,3.316-9.82,6.958-19.526,10.118-29.41,3.982-.028,7.957-.007,11.952-.007-4.577,13.27-9.1,26.555-13.7,39.811-.878,2.912-4.137,4.187-6.936,4.159-10.3-.007-20.61.007-30.905-.014-2.352.028-5.123-.694-6.178-3.025-1.332-2.891.142-5.98.963-8.793,3.769-10.7,7.4-21.46,11.329-32.116Z" transform="translate(471.06 1.721)" fill="#b84e2b"/>
    <path id="Trazado_21038" data-name="Trazado 21038" d="M353.118,395.746c1.339-3.642,5.555-4.952,9.119-4.9,12.328-.028,24.677-.007,37.012-.007-1.247,3.521-2.5,7.028-3.734,10.542-10.011.014-20.015-.014-30.019.014-2.636-.241-5.151,4-3.04,5.831,7.241.213,14.5-.007,21.758.092,2.062.036,4.372.418,5.788,2.09,1.956,2.366,1.871,5.852.815,8.587-1.53,3.918-2.976,7.857-4.513,11.761-1.495,3.571-5.625,5.037-9.246,5.031-12.236.035-24.465.014-36.7.014,1.169-3.493,2.444-6.958,3.479-10.493,9.813-.078,19.647.078,29.467-.071,2.905.135,5.7-2.714,4.839-5.647-.779-.758-1.934-.694-2.919-.737-6.674-.036-13.341.071-20-.043a7.13,7.13,0,0,1-6.865-4.534c-.645-1.871.149-3.776.688-5.562,1.375-3.989,2.657-8.006,4.074-11.967Z" transform="translate(513.324 1.721)" fill="#b84e2b"/>
    <path id="Trazado_21039" data-name="Trazado 21039" d="M362.74,390.836q5.983-.011,11.974-.007c-1.814,5.335-3.656,10.649-5.448,15.984q10.872.011,21.737,0c1.821-5.321,3.812-10.585,5.463-15.97,3.96-.014,7.928-.035,11.9.029v.453c-5.349,14.4-10.181,29.006-15.353,43.481-3.982,0-7.949,0-11.924-.007,2.034-5.987,4.124-11.953,6.171-17.939-7.234-.05-14.475.028-21.7-.05-2.359,5.895-4.11,12.009-6.228,18q-5.973,0-11.938-.007c5.136-14.652,10.047-29.375,15.346-43.963Z" transform="translate(556.139 1.721)" fill="#b84e2b"/>
    <path id="Trazado_21040" data-name="Trazado 21040" d="M531.468,408.066c-4.641-7.326-11.62-13.448-20.044-15.906a48.964,48.964,0,0,0-8.566-1.615h-5.625c-13.072,1.523-26.024,3.953-39.053,5.845a52.659,52.659,0,0,1-21.539-.432c3.507,4.57,9.019,6.795,14.468,8.035,2.685.418,5.378,2.31,5.569,5.222.17,1.984-2.119,2.586-3.656,2.565-2.083.163-3.854-1.105-5.484-2.218C442.054,405.516,436.79,401,430.4,398.4c-10.068-4.308-21.461-4.364-32.039-2.1,3.125,1.686,6.285,3.294,9.409,4.988-10.989-1.452-22.155-2.409-33.208-.914,12.009,3.273,24.047,6.447,35.928,10.167,2.763.942,5.682,1.622,8.134,3.294a57.525,57.525,0,0,1-23.806.971c-19.831-3.465-36.438-16.43-56.177-20.15a60.267,60.267,0,0,0-27.278.963c11.7,1.247,23.473,3.685,33.966,9.2,5.406,2.756,10.054,6.7,14.949,10.245a38.267,38.267,0,0,0,21.319,7.864c13.554.666,26.98-1.679,40.385-3.238,4.74-.34,9.678-1.006,14.3.425,3.521,1.02,2.912,6.306.312,8.049-2.912,1.906-6.589,1.821-9.926,2.154-23.182,1.126-47.158-1.275-68.314-11.428-9.962-4.293-19.64-9.784-30.53-11.329,3.054,2.9,6.178,5.732,9.3,8.573-8.105-2.77-16.862-2.77-25.294-1.892-14.666,1.608-28.865,5.845-43.021,9.855-4.265,1.318-8.594,2.423-12.81,3.925a39.514,39.514,0,0,0,15.438,1.715c6.639-.475,13.271-1.219,19.916-1.58,8.431-.368,17.04.531,24.9,3.712,5.271,2.026,9.692,5.718,14.943,7.765,11.655,5.1,25.131,4.974,37.055.822,2.048-.659,4-1.807,6.207-1.856a9.464,9.464,0,0,1,5.895,2.041,1.289,1.289,0,0,1-.085,2.069c-2.026,1.828-4.74,2.572-7.213,3.592-12.278,4.7-26.059,6.781-38.9,3.146,7.489,5.959,17.535,7.042,26.782,7.042a109.575,109.575,0,0,0,41.391-9.125c9.026-3.954,17.989-8.091,27.327-11.287,3.776-1.247,7.744-2.31,11.768-2.026,1.686.156,3.819.957,4.187,2.82-.4,2.041-2.579,2.94-4.23,3.819-9.912,4.251-20.816,5.866-30.459,10.819,11.464.071,22.927-.021,34.4.042a138.635,138.635,0,0,1,39.648,7.673c5.045,1.9,10.288,3.493,15.722,3.635a32.284,32.284,0,0,0,20.008-5.994c7.609-5.364,13.915-13.228,15.651-22.545A37.381,37.381,0,0,0,531.468,408.066Zm-12.194,42.27a28.918,28.918,0,0,1-43.8-11.379,29.268,29.268,0,0,1,21.673-40.9,28.9,28.9,0,0,1,22.538,5.739,29.334,29.334,0,0,1-.411,46.535Z" transform="translate(0 0)" fill="#b84e2b"/>
    <path id="Trazado_21041" data-name="Trazado 21041" d="M317.181,396.6a8.765,8.765,0,0,1,8.282-5.732c10.1-.064,20.207-.028,30.31-.021,2.473-.135,5.243,1.077,5.98,3.628,1.318,4.067-.411,8.2-1.792,12.009-1.375,3.868-2.706,7.751-4.088,11.612H321.95a42.809,42.809,0,0,0-1.318,4.23,1.9,1.9,0,0,0,2.21,1.948c10.351.05,20.71,0,31.068.021q-1.849,5.261-3.734,10.514-16.207,0-32.4,0c-3.259-.071-7.021.064-9.543-2.331-2.168-2.2-1.431-5.526-.545-8.127q4.7-13.9,9.494-27.752Zm8.24,11.23q11.105.011,22.233,0a28.814,28.814,0,0,0,1.41-4.8c-.184-1.8-2.331-1.651-3.642-1.658-5.137.1-10.28-.149-15.4.121-3.025.517-3.84,3.833-4.6,6.334Z" transform="translate(309.205 1.72)" fill="#b84e2b"/>
    <path id="Trazado_21042" data-name="Trazado 21042" d="M304.974,393.094a23.045,23.045,0,0,1,25.556,11.23,23.517,23.517,0,0,1,1.58,18.924,22.917,22.917,0,0,1-43.417-.206,23.466,23.466,0,0,1,.872-17.167,23.018,23.018,0,0,1,15.41-12.781Zm7.581,3.592a23.236,23.236,0,0,0-2.756,3.252,19.494,19.494,0,0,1,15.212,15.892,20.372,20.372,0,0,1-3.571,14.85,19.426,19.426,0,0,0-8.885-33.994Z" transform="translate(191.486 11.331)" fill="#b84e2b"/>
    <path id="Trazado_21043" data-name="Trazado 21043" d="M318.639,398.074c.758,0,1.538,0,2.324-.007-.3.886-.6,1.764-.886,2.65l-2.359.021c.3-.886.6-1.779.921-2.664Z" transform="translate(375.559 45.772)" fill="#b84e2b"/>
    <path id="Trazado_21044" data-name="Trazado 21044" d="M320.138,399.707c.957-.538,1.927-1.07,2.9-1.608-.567,1.658-1.148,3.309-1.714,4.974.56,0,1.679,0,2.246.007-.163.446-.482,1.346-.645,1.8-.758.028-1.523.043-2.267.05-.992,3.323-2.558,6.5-3.117,9.955.581,0,1.722-.007,2.3-.014-.248.638-.489,1.282-.7,1.927-1.445.092-3.557.446-4.187-1.282.616-3.663,2.3-7.057,3.373-10.606l-1.814-.028c.212-.588.418-1.183.63-1.786.454-.014,1.368-.021,1.828-.035.375-1.112.772-2.232,1.169-3.351Z" transform="translate(358.727 45.967)" fill="#b84e2b"/>
    <path id="Trazado_21045" data-name="Trazado 21045" d="M351.222,416.9c2.161-6.277,4.315-12.569,6.533-18.832.581.014,1.736.028,2.317.035-.815,2.352-1.594,4.7-2.466,7.05,1.793-1.36,4.053-2.784,6.4-1.97a2.72,2.72,0,0,1,1.509,3.55c-.978,3.45-2.289,6.8-3.458,10.2-.581-.014-1.736-.028-2.31-.042,1.141-3.649,2.728-7.17,3.578-10.9-.878-2.055-3.8-.793-5.037.283-2.763,2.855-3.217,7.085-4.719,10.628Z" transform="translate(579.433 45.76)" fill="#b84e2b"/>
    <path id="Trazado_21046" data-name="Trazado 21046" d="M324.133,399.7c.964-.538,1.92-1.063,2.9-1.6-.567,1.651-1.134,3.3-1.708,4.967.567,0,1.686,0,2.253.007-.17.46-.5,1.375-.666,1.835-.553-.014-1.636-.042-2.182-.05-1.091,3.323-2.607,6.547-3.188,10.018.574,0,1.729-.007,2.3-.014-.255.638-.482,1.282-.7,1.927-1.446.092-3.677.453-4.187-1.367.659-3.635,2.31-7.007,3.38-10.529-.461-.007-1.367-.014-1.821-.014.219-.6.425-1.19.623-1.793.453-.007,1.382-.021,1.835-.035.375-1.112.772-2.232,1.162-3.351Z" transform="translate(383.08 45.973)" fill="#b84e2b"/>
    <path id="Trazado_21047" data-name="Trazado 21047" d="M304.718,399.125c1.849-.574,4.237-.624,5.633.928.808.872.708,2.111.893,3.2-.56.057-1.694.177-2.26.234-.205-1.105-.5-2.579-1.877-2.735-2.94-.461-4.846,2.437-5.6,4.889-.546,1.708-1.254,4.364.786,5.363,2.359.744,4.1-1.516,5.137-3.3l2.288.276c-1,1.736-2.182,3.521-4.074,4.378-1.941.914-4.7,1-6.178-.779-1.162-1.5-.992-3.557-.56-5.307.772-3.039,2.678-6.15,5.817-7.149Z" transform="translate(259.065 49.964)" fill="#b84e2b"/>
    <path id="Trazado_21048" data-name="Trazado 21048" d="M310.782,401.122c1.58-1.346,3.514-2.827,5.732-2.232,1.134.184,1.523,1.318,2.012,2.189,1.644-1.544,3.947-2.884,6.278-2.09,1.445.4,1.785,2.154,1.353,3.422-1.013,3.479-2.338,6.851-3.493,10.3-.588,0-1.757-.007-2.345-.007,1.141-3.635,2.685-7.156,3.585-10.861-.623-2.189-3.67-.723-4.775.39-2.466,2.961-2.962,7-4.428,10.486-.793-.028-1.573-.035-2.359-.035,1.169-3.614,2.706-7.128,3.592-10.819-.383-2.076-3.181-.864-4.237.05-2.969,2.784-3.358,7.17-4.889,10.776-.793,0-1.573.007-2.366.021,1.552-4.549,3.139-9.083,4.719-13.617H311.5c-.177.5-.538,1.523-.723,2.026Z" transform="translate(294.767 49.951)" fill="#b84e2b"/>
    <path id="Trazado_21049" data-name="Trazado 21049" d="M329.152,403.077c.283-4.116,5.817-5.406,8.842-3.386,1.134.758,1.19,2.2,1.353,3.422-.552.042-1.658.106-2.21.149.127-3.373-5.874-3.606-5.7-.248,1.538,1.587,4.018,1.871,5.512,3.535,1.424,2.033-.043,4.8-2.1,5.732-2.338,1.077-5.469,1.126-7.5-.624-1.063-.921-.836-2.388-.865-3.627.567-.035,1.708-.092,2.281-.121-.787,3.883,5.852,4.521,6.32.992-.836-2.876-6.072-2.232-5.937-5.824Z" transform="translate(428.91 49.937)" fill="#b84e2b"/>
    <path id="Trazado_21050" data-name="Trazado 21050" d="M337.3,401.54c1.523-1.715,3.706-3.6,6.136-2.4-.418.7-.822,1.4-1.219,2.1-2.324-.836-4.379,1.013-5.364,2.94a72.338,72.338,0,0,0-3.209,8.474c-.56.007-1.672.007-2.246.014,1.573-4.556,3.139-9.1,4.733-13.625.524,0,1.559.007,2.083.014-.312.829-.609,1.651-.914,2.48Z" transform="translate(458.778 49.993)" fill="#b84e2b"/>
    <path id="Trazado_21051" data-name="Trazado 21051" d="M339.636,403.092c.156-5.541,10.614-6.037,10.188.021-.553.035-1.672.113-2.225.156-.014-2.912-4.237-3.592-5.6-1.311-.609,1.523,1.332,2,2.3,2.586,1.75.8,4.137,1.948,3.649,4.308-.772,4.208-6.6,5.271-9.756,3.117-1.375-.836-1.268-2.558-1.24-3.939.574-.035,1.715-.092,2.289-.121-.808,3.925,5.909,4.506,6.334.949-.942-2.82-6.072-2.2-5.937-5.767Z" transform="translate(492.508 49.936)" fill="#b84e2b"/>
    <path id="Trazado_21052" data-name="Trazado 21052" d="M351.877,401.6c1.481-1.757,3.72-3.705,6.122-2.416l-1.19,2.069c-2.246-.857-4.28.907-5.285,2.777a61.162,61.162,0,0,0-3.259,8.587c-.765.007-1.523.035-2.267.071,1.53-4.555,3.139-9.09,4.7-13.632.524-.007,1.573-.014,2.1-.014-.319.85-.6,1.708-.914,2.558Z" transform="translate(547.638 50.001)" fill="#b84e2b"/>
    <path id="Trazado_21053" data-name="Trazado 21053" d="M354.592,399.14c1.743-.553,3.925-.638,5.4.624,1.02.871,1.013,2.289,1.126,3.514-.751.064-1.488.142-2.225.219-.184-1.254-.708-2.862-2.274-2.777-2.919-.142-4.591,2.813-5.314,5.236-.5,1.636-1.049,4.173.921,5.073,2.359.673,4.081-1.538,5.108-3.337.751.106,1.516.219,2.3.326-1.027,1.665-2.154,3.429-4,4.294-1.927.949-4.676,1.077-6.214-.659-1.254-1.537-1.056-3.691-.6-5.491.794-2.99,2.671-6.022,5.76-7.021Z" transform="translate(562.729 49.963)" fill="#b84e2b"/>
    <path id="Trazado_21054" data-name="Trazado 21054" d="M316.927,412.451c1.573-4.563,3.11-9.125,4.754-13.653.574.007,1.729.028,2.3.042q-2.349,6.791-4.712,13.589c-.581.007-1.764.014-2.345.021Z" transform="translate(370.745 50.22)" fill="#b84e2b"/>
    <path id="Trazado_21055" data-name="Trazado 21055" d="M328.779,399.065h2.076c-.29.836-.581,1.665-.878,2.5,1.523-1.722,3.649-3.606,6.107-2.451-.4.716-.793,1.438-1.183,2.147-2.239-.871-4.272.893-5.271,2.742-1.48,2.735-2.246,5.781-3.337,8.679-.552,0-1.672-.007-2.225-.014q2.338-6.812,4.712-13.6Z" transform="translate(414.193 49.982)" fill="#b84e2b"/>
    <path id="Trazado_21056" data-name="Trazado 21056" d="M308.027,399.024c2.359-.687,5.618-.134,6.5,2.487,1.3,5.115-2.586,11.35-8.112,11.5-2.189.163-4.605-1.219-4.9-3.528-.411-4.336,2.2-9.175,6.511-10.458Zm.567,1.743c-3.238,1.155-4.945,4.931-4.719,8.19.227,2.069,2.813,2.77,4.435,1.792a8.591,8.591,0,0,0,4.152-7.666,2.81,2.81,0,0,0-3.868-2.317Z" transform="translate(276.707 49.951)" fill="#b84e2b"/>
    <path id="Trazado_21057" data-name="Trazado 21057" d="M316.43,400.785c1.636-1.289,3.741-2.65,5.909-1.729,2.31.893,2.515,3.8,2.055,5.887-.744,3.7-3.429,7.567-7.418,8.056-1.694.3-2.884-1.02-3.84-2.182-.794,2.366-1.566,4.74-2.459,7.071h-2.359c2.274-6.242,4.343-12.548,6.575-18.8.539,0,1.623.007,2.154.014-.156.425-.468,1.268-.616,1.686Zm2.175.149c-2.82,1.48-4.28,4.9-4.258,7.985.1,2.083,2.848,2.756,4.329,1.58a9.625,9.625,0,0,0,3.529-7.46,2.469,2.469,0,0,0-3.6-2.1Z" transform="translate(318.353 49.954)" fill="#b84e2b"/>
    <path id="Trazado_21058" data-name="Trazado 21058" d="M313.482,403.072c1.729-3.224,5.909-5.42,9.416-3.734,2.586,1.4,2.2,4.754,1.566,7.156-3.394.028-6.788-.085-10.181.064-.028,1.573-.156,3.819,1.729,4.4,2.232.524,4.131-1.2,5.321-2.9.758.1,1.523.184,2.3.262-1.828,3.323-6.114,6.022-9.813,3.982-3.047-2.1-1.991-6.547-.333-9.232Zm1.559,1.573c2.565.05,5.122.035,7.68.028.12-1.459.057-3.458-1.658-3.932-2.742-.723-4.938,1.679-6.022,3.9Z" transform="translate(339.998 49.963)" fill="#b84e2b"/>
    <path id="Trazado_21059" data-name="Trazado 21059" d="M327.8,399c2.317-.645,5.441-.085,6.355,2.445,1.41,5.278-2.813,11.79-8.566,11.563a4.349,4.349,0,0,1-4.492-4.074c-.085-4.194,2.466-8.785,6.7-9.933Zm.014,1.927c-2.94,1.375-4.492,4.875-4.293,8.006a2.791,2.791,0,0,0,3.946,2.019c3.032-1.226,4.719-4.747,4.641-7.886-.092-2.1-2.579-3.039-4.294-2.14Z" transform="translate(396.094 49.948)" fill="#b84e2b"/>
    <path id="Trazado_21060" data-name="Trazado 21060" d="M336.845,401.238c2.048-2.267,5.788-3.373,8.5-1.615,2.161,1.608,1.651,4.584,1.134,6.858-3.373.028-6.752-.014-10.118.036-.149,1.594-.262,3.875,1.672,4.449,2.239.51,4.109-1.226,5.307-2.9.567.064,1.7.184,2.274.255-1.835,3.6-7.007,6.448-10.521,3.415-2.565-3.16-.666-7.8,1.757-10.493Zm.184,3.408c2.572.05,5.137.035,7.708.021.071-1.459.021-3.458-1.693-3.925-2.735-.708-4.924,1.679-6.015,3.9Z" transform="translate(473.81 49.963)" fill="#b84e2b"/>
    <path id="Trazado_21061" data-name="Trazado 21061" d="M346.174,399.1c1.991-.638,4.648-.5,5.98,1.36,1.268,1.778.708,4.074.283,6.036-3.351-.021-6.709,0-10.061-.014-.149,1.545-.333,3.606,1.367,4.379,2.317.786,4.365-1.091,5.633-2.834.56.078,1.679.212,2.231.29-1.445,2.366-3.734,4.513-6.646,4.662-2.2.283-4.634-1.077-4.96-3.38-.6-4.272,2.012-9.055,6.171-10.5Zm-3.153,5.533c2.579.064,5.158.042,7.737.014-.007-1.375.085-3.259-1.509-3.84-2.777-.928-5.123,1.552-6.228,3.826Z" transform="translate(510.64 49.966)" fill="#b84e2b"/>
    <path id="Trazado_21062" data-name="Trazado 21062" d="M345.128,402.94a7.443,7.443,0,0,1,6.369-4.159c2.005-.177,5,.546,5.108,3.011-.347,3.77-2.877,7.043-2.7,10.918-.772-.007-1.524-.007-2.267,0l-.106-1.559c-1.7,1.105-3.656,2.2-5.753,1.771a3.286,3.286,0,0,1-2.7-4.1,5.092,5.092,0,0,1,4.584-3.975c2.062-.269,4.152-.3,6.207-.68.1-1,.864-2.515-.4-3.075a4.774,4.774,0,0,0-6.058,2.062c-.765-.078-1.523-.149-2.281-.22Zm1.9,3.968c-1.941.567-2.4,4.01,0,4.216,3.188.46,5.335-2.48,6.164-5.172a41.493,41.493,0,0,0-6.164.957Z" transform="translate(529.229 49.961)" fill="#b84e2b"/>
  </g>
</svg>
