<svg xmlns="http://www.w3.org/2000/svg" xmlns:xlink="http://www.w3.org/1999/xlink" width="731.83" height="432.847" viewBox="0 0 731.83 432.847">
  <defs>
    <linearGradient id="linear-gradient" y1="0.5" x2="1" y2="0.5" gradientUnits="objectBoundingBox">
      <stop offset="0" stop-color="#fff"/>
      <stop offset="1" stop-color="#c8d6e5"/>
    </linearGradient>
    <linearGradient id="linear-gradient-4" x1="0.061" y1="-11.598" x2="0.841" y2="9.905" gradientUnits="objectBoundingBox">
      <stop offset="0" stop-color="#1a1a1a"/>
      <stop offset="1"/>
    </linearGradient>
    <linearGradient id="linear-gradient-5" x1="0.5" y1="-0.7" x2="0.5" y2="0.7" gradientUnits="objectBoundingBox">
      <stop offset="0.005" stop-color="#fe8c00"/>
      <stop offset="1" stop-color="#f83600"/>
    </linearGradient>
    <linearGradient id="linear-gradient-6" x1="0.5" y1="-0.7" x2="0.5" y2="0.7" gradientUnits="objectBoundingBox">
      <stop offset="0" stop-color="#f7971e"/>
      <stop offset="1" stop-color="#ffd200"/>
    </linearGradient>
    <linearGradient id="linear-gradient-9" x1="61.125" y1="-20.192" x2="61.125" y2="-19.725" xlink:href="#linear-gradient"/>
    <linearGradient id="linear-gradient-10" x1="0.5" y1="-0.7" x2="0.5" y2="0.7" xlink:href="#linear-gradient"/>
    <linearGradient id="linear-gradient-11" x1="0.5" y1="-9.625" x2="0.5" y2="2.375" gradientUnits="objectBoundingBox">
      <stop offset="0"/>
      <stop offset="1" stop-color="#c8d6e5"/>
    </linearGradient>
    <linearGradient id="linear-gradient-12" x1="-0.009" y1="-0.106" x2="0.914" y2="1.019" xlink:href="#linear-gradient"/>
    <linearGradient id="linear-gradient-13" x1="-0.004" y1="-0.16" x2="0.909" y2="1.035" gradientUnits="objectBoundingBox">
      <stop offset="0" stop-color="#021b79"/>
      <stop offset="1" stop-color="#0575e6"/>
    </linearGradient>
    <linearGradient id="linear-gradient-14" x1="-0.434" y1="0.182" x2="1.258" y2="0.758" xlink:href="#linear-gradient-6"/>
    <linearGradient id="linear-gradient-15" x1="-1.28" y1="0.253" x2="1.944" y2="0.7" xlink:href="#linear-gradient-6"/>
    <linearGradient id="linear-gradient-16" x1="-1.861" y1="0.267" x2="2.415" y2="0.689" xlink:href="#linear-gradient-6"/>
    <linearGradient id="linear-gradient-17" x1="-1.491" y1="0.259" x2="2.115" y2="0.695" xlink:href="#linear-gradient-6"/>
    <linearGradient id="linear-gradient-18" x1="-0.857" y1="0.232" x2="1.601" y2="0.717" xlink:href="#linear-gradient-6"/>
    <linearGradient id="linear-gradient-19" x1="-0.029" y1="-0.095" x2="0.929" y2="0.982" gradientUnits="objectBoundingBox">
      <stop offset="0" stop-color="#45b649"/>
      <stop offset="1" stop-color="#dce35b"/>
    </linearGradient>
    <linearGradient id="linear-gradient-20" x1="0.143" y1="-0.651" x2="0.781" y2="0.558" xlink:href="#linear-gradient-19"/>
    <linearGradient id="linear-gradient-21" x1="0.354" y1="0.361" x2="0.655" y2="0.647" xlink:href="#linear-gradient-19"/>
    <linearGradient id="linear-gradient-22" x1="0.5" y1="-0.619" x2="0.5" y2="0.762" xlink:href="#linear-gradient"/>
    <linearGradient id="linear-gradient-24" x1="-0.206" y1="-0.178" x2="0.911" y2="0.895" gradientUnits="objectBoundingBox">
      <stop offset="0" stop-color="#00c9ff"/>
      <stop offset="1" stop-color="#92fe9d"/>
    </linearGradient>
    <linearGradient id="linear-gradient-25" x1="0" y1="0.5" x2="1" y2="0.5" xlink:href="#linear-gradient-13"/>
    <linearGradient id="linear-gradient-26" y1="0.5" x2="1" y2="0.5" gradientUnits="objectBoundingBox">
      <stop offset="0" stop-color="#fdfbfb"/>
      <stop offset="1" stop-color="#fbc2eb"/>
    </linearGradient>
    <linearGradient id="linear-gradient-27" y1="0.5" x2="1" y2="0.5" gradientUnits="objectBoundingBox">
      <stop offset="0" stop-color="#00f2fe"/>
      <stop offset="0.995" stop-color="#4facfe"/>
    </linearGradient>
    <linearGradient id="linear-gradient-28" y1="0.5" x2="1" y2="0.5" gradientUnits="objectBoundingBox">
      <stop offset="0" stop-color="#a18cd1"/>
      <stop offset="1" stop-color="#fbc2eb"/>
    </linearGradient>
    <linearGradient id="linear-gradient-29" x1="-0.278" y1="-0.067" x2="1.205" y2="1.004" xlink:href="#linear-gradient-6"/>
    <linearGradient id="linear-gradient-31" x1="1.407" y1="1.151" x2="-0.156" y2="-0.167" xlink:href="#linear-gradient-27"/>
    <linearGradient id="linear-gradient-32" x1="0.095" y1="0.061" x2="0.959" y2="0.998" xlink:href="#linear-gradient-5"/>
    <linearGradient id="linear-gradient-33" x1="-26.909" y1="3.654" x2="-25.935" y2="4.569" xlink:href="#linear-gradient-26"/>
    <linearGradient id="linear-gradient-34" x1="-0.063" y1="-0.634" x2="0.937" y2="1.676" xlink:href="#linear-gradient"/>
    <linearGradient id="linear-gradient-36" x1="-0.063" y1="-0.634" x2="0.937" y2="1.676" xlink:href="#linear-gradient"/>
    <linearGradient id="linear-gradient-37" x1="-0.159" y1="-0.896" x2="0.816" y2="1.414" xlink:href="#linear-gradient"/>
    <linearGradient id="linear-gradient-38" x1="0.979" y1="7.467" x2="-0.08" y2="-7.939" xlink:href="#linear-gradient-27"/>
    <linearGradient id="linear-gradient-39" x1="1.004" y1="4.839" x2="-0.11" y2="-4.755" xlink:href="#linear-gradient-27"/>
    <linearGradient id="linear-gradient-40" x1="0.964" y1="12.247" x2="-0.062" y2="-13.727" xlink:href="#linear-gradient-27"/>
    <linearGradient id="linear-gradient-41" x1="0.97" y1="9.857" x2="-0.069" y2="-10.833" xlink:href="#linear-gradient-27"/>
    <linearGradient id="linear-gradient-42" x1="0" y1="-47.925" x2="1" y2="-47.925" xlink:href="#linear-gradient-6"/>
    <linearGradient id="linear-gradient-43" x1="0.252" y1="0.304" x2="0.726" y2="1.471" xlink:href="#linear-gradient-5"/>
    <linearGradient id="linear-gradient-46" x1="0" y1="0.5" x2="1" y2="0.5" xlink:href="#linear-gradient-6"/>
    <linearGradient id="linear-gradient-47" x1="0" y1="0.5" x2="1" y2="0.5" xlink:href="#linear-gradient-5"/>
    <linearGradient id="linear-gradient-49" x1="0" y1="0.5" x2="1" y2="0.5" xlink:href="#linear-gradient-13"/>
  </defs>
  <g id="Grupo_26923" data-name="Grupo 26923" transform="translate(-177.288 -335)">
    <path id="Trazado_21198" data-name="Trazado 21198" d="M727.077,688.916a270.962,270.962,0,0,0,12.876-82.75C739.953,456.406,618.547,335,468.787,335S197.621,456.406,197.621,606.166a270.81,270.81,0,0,0,12.881,82.75Z" transform="translate(31.438)" opacity="0.2" fill="url(#linear-gradient)" style="mix-blend-mode: screen;isolation: isolate"/>
    <g id="Grupo_26896" data-name="Grupo 26896" transform="translate(674.225 508.085)">
      <g id="Grupo_26893" data-name="Grupo 26893" transform="translate(0 18.112)">
        <path id="Trazado_21199" data-name="Trazado 21199" d="M378.377,518.395l-5.918-8.29,74.8-53.43,30.415,30.415,98.3-77,6.281,8.019-105.4,82.56-30.693-30.693Z" transform="translate(-372.459 -410.092)" fill="url(#linear-gradient)"/>
      </g>
      <g id="Grupo_26895" data-name="Grupo 26895" transform="translate(179.643)">
        <g id="Grupo_26894" data-name="Grupo 26894">
          <path id="Trazado_21200" data-name="Trazado 21200" d="M470.46,453.026l-6.281-23.348L443.014,417.99l55.25-15.011Z" transform="translate(-443.014 -402.979)" fill="url(#linear-gradient)"/>
        </g>
      </g>
    </g>
    <g id="Grupo_26922" data-name="Grupo 26922" transform="translate(177.288 352.823)">
      <path id="Trazado_21201" data-name="Trazado 21201" d="M765.114,488.763c0,7.967-129.577,14.426-289.412,14.426s-289.414-6.459-289.414-14.426S315.862,474.334,475.7,474.334,765.114,480.794,765.114,488.763Z" transform="translate(-163.373 -137.391)" opacity="0.2" fill="url(#linear-gradient-4)" style="mix-blend-mode: multiply;isolation: isolate"/>
      <g id="Grupo_26898" data-name="Grupo 26898" transform="translate(3.397 155.316)">
        <g id="Grupo_26897" data-name="Grupo 26897">
          <path id="Trazado_21202" data-name="Trazado 21202" d="M211.72,417.092a5.106,5.106,0,0,1-5.092,5.092H183.714a5.125,5.125,0,0,1-5.092-5.092A5.106,5.106,0,0,1,183.714,412h22.913A5.106,5.106,0,0,1,211.72,417.092Z" transform="translate(-178.622 -389.085)" fill="url(#linear-gradient-5)"/>
          <path id="Trazado_21203" data-name="Trazado 21203" d="M231.377,415.541v27.293L214.036,446.6,183,453.377V405l30.554,6.645Z" transform="translate(-171.853 -399.908)" fill="url(#linear-gradient-6)"/>
          <path id="Trazado_21204" data-name="Trazado 21204" d="M233.274,409.386v33.966c0,1.859-2.493,3.386-4.351,3.386H197.5a2.644,2.644,0,0,1-2.419-1.68c-.306-.507,0-1.095,0-1.706V409.386c0-1.859.565-3.386,2.421-3.386h31.42C230.781,406,233.274,407.528,233.274,409.386Z" transform="translate(-153.38 -398.362)" fill="url(#linear-gradient-5)"/>
          <path id="Trazado_21205" data-name="Trazado 21205" d="M220.185,412.819v20.369c0,1.4-.835,1.273-2.238,1.273H210V409h7.947C219.349,409,220.185,411.419,220.185,412.819Z" transform="translate(-130.107 -393.723)" fill="url(#linear-gradient-6)"/>
          <rect id="Rectángulo_4084" data-name="Rectángulo 4084" width="10.185" height="30.554" transform="translate(54.432 48.377)" fill="url(#linear-gradient-9)"/>
          <rect id="Rectángulo_4085" data-name="Rectángulo 4085" width="2.546" height="58.562" transform="translate(8.601)" fill="#fff"/>
        </g>
        <path id="Trazado_21206" data-name="Trazado 21206" d="M268.7,422.1v8.911H178.622a5.106,5.106,0,0,1,5.092-5.092h3.509V403h2.546v5.092l30.554,6.645v-.713c0-1.859.565-3.386,2.421-3.386h31.42c1.859,0,4.351,1.528,4.351,3.386v4.252h7.947C267.865,418.277,268.7,420.7,268.7,422.1Z" transform="translate(-178.622 -403)" fill="#fff" opacity="0.2" style="mix-blend-mode: screen;isolation: isolate"/>
        <rect id="Rectángulo_4086" data-name="Rectángulo 4086" width="10.185" height="2.546" transform="translate(59.524 12.731)" fill="#fff"/>
      </g>
      <path id="Trazado_21207" data-name="Trazado 21207" d="M612.17,481.638V474H248.07v7.638c0,1.864-.438,3.588.4,5.092H610.49C610.966,485.226,612.17,483.5,612.17,481.638Z" transform="translate(-68.025 -137.907)" fill="url(#linear-gradient-10)"/>
      <path id="Trazado_21208" data-name="Trazado 21208" d="M248.157,479a9.5,9.5,0,0,0,8.094,5.092H603.927c3.33,0,5.3-2.062,6.251-5.092Z" transform="translate(-67.713 -130.176)" fill="url(#linear-gradient-11)"/>
      <path id="Trazado_21209" data-name="Trazado 21209" d="M569.631,409.185c0-5.625-5.525-10.185-11.15-10.185H268.22c-5.625,0-9.22,4.56-9.22,10.185V589.962H569.631Z" transform="translate(-50.948 -253.869)" fill="url(#linear-gradient-12)"/>
      <rect id="Rectángulo_4087" data-name="Rectángulo 4087" width="280.078" height="160.408" transform="translate(223.329 160.408)" fill="url(#linear-gradient-13)"/>
      <g id="Grupo_26904" data-name="Grupo 26904" transform="translate(47.644 254.616)">
        <g id="Grupo_26899" data-name="Grupo 26899" transform="translate(91.662 68.746)">
          <rect id="Rectángulo_4088" data-name="Rectángulo 4088" width="12.731" height="28.008" fill="url(#linear-gradient-14)"/>
        </g>
        <g id="Grupo_26900" data-name="Grupo 26900" transform="translate(68.746 28.008)">
          <rect id="Rectángulo_4089" data-name="Rectángulo 4089" width="12.731" height="68.746" fill="url(#linear-gradient-15)"/>
        </g>
        <g id="Grupo_26901" data-name="Grupo 26901" transform="translate(45.831)">
          <rect id="Rectángulo_4090" data-name="Rectángulo 4090" width="12.731" height="96.754" fill="url(#linear-gradient-16)"/>
        </g>
        <g id="Grupo_26902" data-name="Grupo 26902" transform="translate(22.915 17.823)">
          <rect id="Rectángulo_4091" data-name="Rectángulo 4091" width="12.731" height="78.931" fill="url(#linear-gradient-17)"/>
        </g>
        <g id="Grupo_26903" data-name="Grupo 26903" transform="translate(0 48.377)">
          <rect id="Rectángulo_4092" data-name="Rectángulo 4092" width="12.731" height="48.377" fill="url(#linear-gradient-18)"/>
        </g>
      </g>
      <rect id="Rectángulo_4093" data-name="Rectángulo 4093" width="122.216" height="81.477" transform="translate(437.206 196.054)" fill="#333" opacity="0.2" style="mix-blend-mode: multiply;isolation: isolate"/>
      <rect id="Rectángulo_4094" data-name="Rectángulo 4094" width="122.216" height="81.477" transform="translate(429.568 188.416)" fill="url(#linear-gradient-19)"/>
      <path id="Trazado_21210" data-name="Trazado 21210" d="M406.729,464.377,345.621,416H467.837Z" transform="translate(82.982 -227.584)" fill="url(#linear-gradient-20)"/>
      <path id="Trazado_21211" data-name="Trazado 21211" d="M370,464.218,431.108,416v5.092Z" transform="translate(120.676 -227.584)" opacity="0.8" fill="url(#linear-gradient-21)" style="mix-blend-mode: multiply;isolation: isolate"/>
      <g id="Grupo_26905" data-name="Grupo 26905" transform="translate(429.568 234.247)">
        <rect id="Rectángulo_4095" data-name="Rectángulo 4095" width="30.554" height="33.1" transform="translate(12.731 147.677)" fill="#3c6382"/>
        <rect id="Rectángulo_4096" data-name="Rectángulo 4096" width="30.554" height="7.638" transform="translate(12.731 147.677)" fill="#fff"/>
        <path id="Trazado_21212" data-name="Trazado 21212" d="M426.512,513.886s-9.385-4.774-13.841,3.183a144.391,144.391,0,0,1-10.656,13.815V500.2c0-.861-.7-1.706-.777-2.546h.777V439.092a5.092,5.092,0,0,0-10.185,0v58.562h-5.092V451.823a5.092,5.092,0,0,0-10.185,0v45.831h-5.092v-33.1a5.092,5.092,0,1,0-10.185,0v33.1h-5.092V477.285a5.092,5.092,0,0,0-10.185,0v63.654a5.048,5.048,0,0,0,1.314,3.384c2.276,7.172,6.325,13.072,13.963,16.448v20.906h25.462V560.771c5.092-3.116,10.4-8.392,12.889-14.824.313.028.362.074.71.084Z" transform="translate(-346 -434)" fill="#f6d8ba"/>
      </g>
      <path id="Trazado_21213" data-name="Trazado 21213" d="M241,387V542.316H457.424V387Z" transform="translate(-78.779 -272.423)" fill="#333" opacity="0.2" style="mix-blend-mode: multiply;isolation: isolate"/>
      <g id="Grupo_26915" data-name="Grupo 26915" transform="translate(152.036 106.939)">
        <rect id="Rectángulo_4097" data-name="Rectángulo 4097" width="216.424" height="20.369" fill="url(#linear-gradient-22)"/>
        <rect id="Rectángulo_4098" data-name="Rectángulo 4098" width="216.424" height="134.946" transform="translate(0 20.369)" fill="url(#linear-gradient-22)"/>
        <rect id="Rectángulo_4099" data-name="Rectángulo 4099" width="162.954" height="5.092" transform="translate(12.731 40.739)" fill="#576574"/>
        <rect id="Rectángulo_4100" data-name="Rectángulo 4100" width="193.508" height="5.092" transform="translate(12.731 50.923)" fill="#576574"/>
        <rect id="Rectángulo_4101" data-name="Rectángulo 4101" width="193.508" height="5.092" transform="translate(10.185 129.854)" fill="#9aa3ac"/>
        <rect id="Rectángulo_4102" data-name="Rectángulo 4102" width="84.023" height="5.092" transform="translate(94.208 61.108)" fill="#9aa3ac"/>
        <rect id="Rectángulo_4103" data-name="Rectángulo 4103" width="104.393" height="5.092" transform="translate(94.208 71.292)" fill="#9aa3ac"/>
        <rect id="Rectángulo_4104" data-name="Rectángulo 4104" width="84.023" height="5.092" transform="translate(94.208 84.023)" fill="#9aa3ac"/>
        <rect id="Rectángulo_4105" data-name="Rectángulo 4105" width="104.393" height="5.092" transform="translate(94.208 94.208)" fill="#9aa3ac"/>
        <rect id="Rectángulo_4106" data-name="Rectángulo 4106" width="84.023" height="5.092" transform="translate(94.208 106.939)" fill="#9aa3ac"/>
        <rect id="Rectángulo_4107" data-name="Rectángulo 4107" width="104.393" height="5.092" transform="translate(94.208 117.123)" fill="#9aa3ac"/>
        <rect id="Rectángulo_4108" data-name="Rectángulo 4108" width="76.385" height="61.108" transform="translate(12.731 61.108)" fill="url(#linear-gradient-24)"/>
        <path id="Trazado_21214" data-name="Trazado 21214" d="M305.142,455.966H243.651L262.67,416.5l18.46,28.008,10.821-19.733Z" transform="translate(-226.716 -333.75)" fill="#fff" opacity="0.5"/>
        <circle id="Elipse_948" data-name="Elipse 948" cx="3.183" cy="3.183" r="3.183" transform="translate(56.324 72.247)" fill="#fff" opacity="0.5"/>
        <g id="Grupo_26909" data-name="Grupo 26909" transform="translate(18.559 5.942)">
          <g id="Grupo_26906" data-name="Grupo 26906" transform="translate(30.554)">
            <circle id="Elipse_949" data-name="Elipse 949" cx="4.243" cy="4.243" r="4.243" fill="#576574"/>
          </g>
          <g id="Grupo_26907" data-name="Grupo 26907" transform="translate(15.277)">
            <circle id="Elipse_950" data-name="Elipse 950" cx="4.243" cy="4.243" r="4.243" fill="#576574"/>
          </g>
          <g id="Grupo_26908" data-name="Grupo 26908">
            <circle id="Elipse_951" data-name="Elipse 951" cx="4.243" cy="4.243" r="4.243" fill="#576574"/>
          </g>
        </g>
        <g id="Grupo_26914" data-name="Grupo 26914" transform="translate(89.116 28.008)">
          <g id="Grupo_26910" data-name="Grupo 26910" transform="translate(91.662)">
            <path id="Trazado_21215" data-name="Trazado 21215" d="M325.823,396.273a1.274,1.274,0,0,1-1.273,1.273H309.273A1.274,1.274,0,0,1,308,396.273h0A1.274,1.274,0,0,1,309.273,395H324.55a1.274,1.274,0,0,1,1.273,1.273Z" transform="translate(-308 -395)" fill="#9aa3ac"/>
          </g>
          <g id="Grupo_26911" data-name="Grupo 26911" transform="translate(61.108)">
            <path id="Trazado_21216" data-name="Trazado 21216" d="M313.823,396.273a1.274,1.274,0,0,1-1.273,1.273H297.273A1.274,1.274,0,0,1,296,396.273h0A1.274,1.274,0,0,1,297.273,395H312.55a1.274,1.274,0,0,1,1.273,1.273Z" transform="translate(-296 -395)" fill="#9aa3ac"/>
          </g>
          <g id="Grupo_26912" data-name="Grupo 26912" transform="translate(30.554)">
            <path id="Trazado_21217" data-name="Trazado 21217" d="M301.823,396.273a1.274,1.274,0,0,1-1.273,1.273H285.273A1.274,1.274,0,0,1,284,396.273h0A1.274,1.274,0,0,1,285.273,395H300.55a1.274,1.274,0,0,1,1.273,1.273Z" transform="translate(-284 -395)" fill="#9aa3ac"/>
          </g>
          <g id="Grupo_26913" data-name="Grupo 26913">
            <path id="Trazado_21218" data-name="Trazado 21218" d="M289.823,396.273a1.274,1.274,0,0,1-1.273,1.273H273.273A1.274,1.274,0,0,1,272,396.273h0A1.274,1.274,0,0,1,273.273,395H288.55a1.274,1.274,0,0,1,1.273,1.273Z" transform="translate(-272 -395)" fill="#9aa3ac"/>
          </g>
        </g>
      </g>
      <rect id="Rectángulo_4109" data-name="Rectángulo 4109" width="38.192" height="38.192" transform="translate(103.659 206.239)" fill="url(#linear-gradient-25)"/>
      <rect id="Rectángulo_4110" data-name="Rectángulo 4110" width="12.731" height="38.192" transform="translate(103.659 206.239)" fill="#fff"/>
      <path id="Trazado_21219" data-name="Trazado 21219" d="M252.016,441.462h-8.051a15.679,15.679,0,0,0-4.95-4.667L219.86,416c-9.23,5.092,2.228,11.776,2.228,11.776a36.633,36.633,0,0,1,5.813,6.047H198.7c-2.019,0-2.7,1.64-2.7,3.661v.318c0,2.019.677,3.659,2.7,3.659h13.609a12.419,12.419,0,0,0-1.293,2.546H198.7c-2.019,0-2.7,1.64-2.7,3.661v.318c0,2.019.677,3.659,2.7,3.659h12.581v2.546H198.7c-2.019,0-2.7,1.64-2.7,3.661v.318c0,2.019.677,3.659,2.7,3.659h12.316a12.416,12.416,0,0,0,1.293,2.546H198.7c-2.019,0-2.7,1.64-2.7,3.661v.318c0,2.019.677,3.659,2.7,3.659h30.872a3.476,3.476,0,0,0,.968-.148c6.974-.759,12.787-4.761,14.722-10.037h6.758Z" transform="translate(-148.356 -227.584)" fill="#f6d8ba"/>
      <circle id="Elipse_952" data-name="Elipse 952" cx="2.228" cy="2.228" r="2.228" transform="translate(105.559 232.337)" fill="#0a3d62"/>
      <g id="Grupo_26916" data-name="Grupo 26916" transform="translate(383.737 79.728)">
        <path id="Trazado_21220" data-name="Trazado 21220" d="M360.135,392.885a5.027,5.027,0,0,0-1.075-3.1l-9.586-16.476a4.606,4.606,0,0,0-1.591,6.205s2.108,4.387,3.476,8.275h-22.1c-1.227,0-1.263,1-1.263,2.228v.637c0,1.23.036,2.228,1.263,2.228h6.376v2.546h-6.376c-1.227,0-1.263,1-1.263,2.228v.637c0,1.23.036,2.228,1.263,2.228h6.376v2.546h-6.376c-1.227,0-1.263,1-1.263,2.228v.637c0,1.23.036,2.228,1.263,2.228h6.376v2.546h-6.376c-1.227,0-1.263,1-1.263,2.228v.637c0,1.23.036,2.228,1.263,2.228h25.78a5.089,5.089,0,0,0,5.092-5.092h8.6V392.885Z" transform="translate(-328 -373.313)" fill="url(#linear-gradient-26)"/>
        <rect id="Rectángulo_4111" data-name="Rectángulo 4111" width="10.185" height="28.008" transform="translate(35.646 14.48)" fill="#2e86de"/>
      </g>
      <g id="Grupo_26917" data-name="Grupo 26917" transform="translate(547.85 288.141)">
        <path id="Trazado_21221" data-name="Trazado 21221" d="M407.639,491.369c0,5.092-7.639,5.092-7.639,0V471h7.639Z" transform="translate(-380.789 -430.687)" fill="#e8e4fa"/>
        <path id="Trazado_21222" data-name="Trazado 21222" d="M435.74,476.807a21.642,21.642,0,1,1-21.642-21.64A21.647,21.647,0,0,1,435.74,476.807Z" transform="translate(-392.455 -455.167)" fill="#e8e4fa"/>
        <path id="Trazado_21223" data-name="Trazado 21223" d="M411.005,490.265a16.549,16.549,0,1,1,16.55-16.55A16.569,16.569,0,0,1,411.005,490.265Z" transform="translate(-389.363 -452.075)" fill="url(#linear-gradient-27)"/>
        <circle id="Elipse_953" data-name="Elipse 953" cx="2.546" cy="2.546" r="2.546" transform="translate(11.881 14.852)" fill="#fff"/>
        <rect id="Rectángulo_4112" data-name="Rectángulo 4112" width="7.638" height="2.546" transform="translate(19.211 45.406)" fill="url(#linear-gradient-28)"/>
      </g>
      <g id="Grupo_26919" data-name="Grupo 26919" transform="translate(426.021 127.945)">
        <path id="Trazado_21224" data-name="Trazado 21224" d="M378.861,409.437a17.392,17.392,0,0,0-17.426-17.187,16.885,16.885,0,0,0-16.828,17.187c0,7.241,3.547,13.423,11.185,15.954V434.9h12.731v-9.507C373.615,422.86,378.861,416.678,378.861,409.437Z" transform="translate(-344.607 -392.25)" fill="url(#linear-gradient-29)"/>
        <g id="Grupo_26918" data-name="Grupo 26918" transform="translate(11.185 42.648)">
          <rect id="Rectángulo_4113" data-name="Rectángulo 4113" width="12.731" height="5.092" fill="url(#linear-gradient-26)"/>
        </g>
      </g>
      <path id="Trazado_21225" data-name="Trazado 21225" d="M415.229,416.206a6.055,6.055,0,0,0-10.322-3.351l-6.928-4.575a7.4,7.4,0,0,0-.85-7.043l7.206-7.391a6.207,6.207,0,1,0-1.408-1.235l-7.076,7.259a7.47,7.47,0,1,0,1.222,10.052l6.735,4.448a6.008,6.008,0,0,0-.6,3.656,6.08,6.08,0,1,0,12.023-1.82Z" transform="translate(141.606 -279.187)" fill="url(#linear-gradient-31)"/>
      <g id="Grupo_26920" data-name="Grupo 26920" transform="translate(529.176 166.773)">
        <circle id="Elipse_954" data-name="Elipse 954" cx="21.642" cy="21.642" r="21.642" fill="url(#linear-gradient-32)"/>
        <path id="Trazado_21226" data-name="Trazado 21226" d="M392,430.042V412.4l15.277,8.821Z" transform="translate(-374.485 -399.921)" fill="url(#linear-gradient-33)"/>
      </g>
      <path id="Trazado_21227" data-name="Trazado 21227" d="M387.987,389.76a6.177,6.177,0,0,0-.929.1,9.827,9.827,0,0,0-18.755.188,6.178,6.178,0,0,0-1.759-.285c-3.455,0-6.256,3.3-6.256,6.76s2.8,6.755,6.256,6.755h21.444c3.45,0,6.251-3.3,6.251-6.755S391.437,389.76,387.987,389.76Z" transform="translate(105.658 -278.513)" fill="url(#linear-gradient-34)"/>
      <path id="Trazado_21228" data-name="Trazado 21228" d="M285.987,366.76a6.177,6.177,0,0,0-.929.1,9.827,9.827,0,0,0-18.755.188,6.18,6.18,0,0,0-1.759-.285c-3.455,0-6.256,3.3-6.256,6.76s2.8,6.755,6.256,6.755h21.444c3.45,0,6.251-3.3,6.251-6.755S289.437,366.76,285.987,366.76Z" transform="translate(-52.051 -314.075)" fill="url(#linear-gradient-34)"/>
      <path id="Trazado_21229" data-name="Trazado 21229" d="M204.985,452.76a6.522,6.522,0,0,0-.929.094,9.826,9.826,0,0,0-18.752.191,6.208,6.208,0,0,0-1.762-.285c-3.455,0-6.253,3.3-6.253,6.76s2.8,6.755,6.253,6.755h21.444c3.45,0,6.251-3.3,6.251-6.755S208.435,452.76,204.985,452.76Z" transform="translate(-177.288 -181.105)" fill="url(#linear-gradient-36)"/>
      <path id="Trazado_21230" data-name="Trazado 21230" d="M244.987,398.76a6.179,6.179,0,0,0-.929.1,9.827,9.827,0,0,0-18.755.188,6.179,6.179,0,0,0-1.759-.285c-3.455,0-6.256,3.3-6.256,6.76s2.8,6.755,6.256,6.755h21.444c3.45,0,6.251-3.3,6.251-6.755S248.437,398.76,244.987,398.76Z" transform="translate(-115.443 -264.598)" fill="url(#linear-gradient-37)"/>
      <rect id="Rectángulo_4114" data-name="Rectángulo 4114" width="68.746" height="5.092" transform="translate(243.698 277.531)" fill="url(#linear-gradient-38)"/>
      <rect id="Rectángulo_4115" data-name="Rectángulo 4115" width="40.739" height="5.092" transform="translate(243.698 287.716)" fill="url(#linear-gradient-39)"/>
      <rect id="Rectángulo_4116" data-name="Rectángulo 4116" width="119.67" height="5.092" transform="translate(243.698 297.901)" fill="url(#linear-gradient-40)"/>
      <rect id="Rectángulo_4117" data-name="Rectángulo 4117" width="94.208" height="5.092" transform="translate(243.698 308.085)" fill="url(#linear-gradient-41)"/>
      <g id="Grupo_26921" data-name="Grupo 26921" transform="translate(256.06)">
        <path id="Trazado_21231" data-name="Trazado 21231" d="M299.032,384.719c-15.435,5.927-7.717,15.952,0,30.075,7.717-14.124,15.437-24.148,0-30.075Z" transform="translate(-258.89 -275.95)" fill="url(#linear-gradient-42)"/>
        <path id="Trazado_21232" data-name="Trazado 21232" d="M333.911,376.046s-10.775-14.635-15.376-9.856c-4.6-4.779-14.118,8.158-14.118,8.158l-26.561,20.886s22.383,7.514,39.616-2c.377-.209.721-.44,1.064-.67.349.229.69.461,1.069.67,17.23,9.518,39.613,2,39.613,2Z" transform="translate(-277.855 -306.238)" fill="url(#linear-gradient-43)"/>
        <path id="Trazado_21233" data-name="Trazado 21233" d="M317.175,432.931H294.26L286.621,354h38.192Z" transform="translate(-264.301 -323.446)" fill="url(#linear-gradient)"/>
        <path id="Trazado_21234" data-name="Trazado 21234" d="M286.621,354l7.638,78.931h5.092L291.713,354Z" transform="translate(-264.301 -323.446)" fill="url(#linear-gradient)"/>
        <path id="Trazado_21235" data-name="Trazado 21235" d="M305.717,342c-9.006,0-19.1,30.554-19.1,30.554h38.192S314.723,342,305.717,342Z" transform="translate(-264.301 -342)" fill="url(#linear-gradient-46)"/>
        <path id="Trazado_21236" data-name="Trazado 21236" d="M309.536,343.647A6.261,6.261,0,0,0,305.717,342c-9.006,0-19.1,30.554-19.1,30.554h7.638S301.72,349.98,309.536,343.647Z" transform="translate(-264.301 -342)" fill="url(#linear-gradient-47)"/>
        <circle id="Elipse_955" data-name="Elipse 955" cx="10.821" cy="10.821" r="10.821" transform="translate(30.595 37.874)" fill="url(#linear-gradient-25)"/>
        <path id="Trazado_21237" data-name="Trazado 21237" d="M300.516,356.957a10.775,10.775,0,0,1-9.2,18.679,10.8,10.8,0,1,0,9.2-18.679Z" transform="translate(-257.045 -318.874)" opacity="0.5" fill="url(#linear-gradient-49)" style="mix-blend-mode: screen;isolation: isolate"/>
        <circle id="Elipse_956" data-name="Elipse 956" cx="0.955" cy="0.955" r="0.955" transform="translate(35.846 44.08)" fill="url(#linear-gradient)"/>
        <path id="Trazado_21238" data-name="Trazado 21238" d="M317.008,386.273a1.274,1.274,0,0,1-1.273,1.273H290.273A1.274,1.274,0,0,1,289,386.273h0A1.274,1.274,0,0,1,290.273,385h25.462a1.274,1.274,0,0,1,1.273,1.273Z" transform="translate(-260.623 -275.515)" fill="url(#linear-gradient-47)"/>
      </g>
    </g>
  </g>
</svg>
