<svg xmlns="http://www.w3.org/2000/svg" width="999" height="169.812" viewBox="0 0 999 169.812">
  <g id="layer1" transform="translate(-14.5 -97.5)">
    <g id="g3054">
      <path id="path2998" d="M141.827,157.469H81.393V175.4h42.86c-2.118,25.147-23.039,35.871-42.787,35.871A47.124,47.124,0,0,1,34.153,163.53c0-27.143,21.017-48.047,47.369-48.047a46.514,46.514,0,0,1,32.311,12.961l12.556-13S110.273,97.5,80.88,97.5c-37.425,0-66.38,31.59-66.38,65.71,0,33.435,27.237,66.038,67.336,66.038,35.268,0,61.085-24.16,61.085-59.885a53.779,53.779,0,0,0-1.094-11.894Z" fill="#4885ed"/>
      <path id="path3000" d="M191.332,144.484c-24.8,0-42.567,19.386-42.567,42,0,22.945,17.236,42.691,42.859,42.691,23.2,0,42.2-17.728,42.2-42.2C233.822,158.928,211.718,144.484,191.332,144.484Zm.247,16.632c12.2,0,23.75,9.859,23.75,25.745,0,15.549-11.507,25.689-23.806,25.689-13.514,0-24.176-10.824-24.176-25.812C167.347,172.071,177.877,161.116,191.579,161.116Z" fill="#db3236"/>
      <path id="path3005" d="M283.915,144.484c-24.8,0-42.568,19.386-42.568,42,0,22.945,17.237,42.691,42.86,42.691,23.2,0,42.2-17.728,42.2-42.2C326.4,158.928,304.3,144.484,283.915,144.484Zm.247,16.632c12.194,0,23.749,9.859,23.749,25.745,0,15.549-11.506,25.689-23.805,25.689-13.515,0-24.176-10.824-24.176-25.812C259.93,172.071,270.459,161.116,284.162,161.116Z" fill="#f4c20d"/>
      <path id="path3007" d="M374.717,144.529c-22.761,0-40.651,19.935-40.651,42.31,0,25.487,20.741,42.388,40.259,42.388,12.068,0,18.485-4.79,23.222-10.289v8.35c0,14.609-8.87,23.358-22.259,23.358-12.934,0-19.421-9.618-21.676-15.075l-16.274,6.8c5.774,12.207,17.395,24.938,38.085,24.938,22.63,0,39.878-14.254,39.878-44.148V147.073H397.547v7.173a29.937,29.937,0,0,0-22.83-9.717Zm1.648,16.6c11.159,0,22.617,9.528,22.617,25.8,0,16.54-11.434,25.655-22.864,25.655-12.134,0-23.425-9.852-23.425-25.5C352.693,170.828,364.419,161.128,376.365,161.128Z" fill="#4885ed"/>
      <path id="path3011" d="M494.239,144.428c-21.47,0-39.5,17.082-39.5,42.287,0,26.671,20.093,42.49,41.559,42.49,17.915,0,28.911-9.8,35.473-18.583l-14.638-9.74c-3.8,5.895-10.148,11.657-20.746,11.657-11.9,0-17.377-6.519-20.768-12.833l56.78-23.559-2.948-6.9c-5.487-13.521-18.284-24.815-35.215-24.815Zm.739,16.285c7.737,0,13.3,4.113,15.669,9.045l-37.916,15.848c-1.635-12.27,9.989-24.893,22.247-24.893Z" fill="#db3236"/>
      <path id="path3015" d="M427.675,226.69h18.65V101.878h-18.65Z" fill="#3cba54"/>
    </g>
    <g id="flowRoot3076">
      <path id="path3928" d="M896.175,228.51q-14.77,0-25.495-11.66t-10.725-28.915q0-17.256,10.725-28.918t25.495-11.662a32.387,32.387,0,0,1,15.626,3.732,26.42,26.42,0,0,1,10.341,9.33h.621l-.621-10.571V114.708h14.3V226.024H922.763V215.453h-.621a26.425,26.425,0,0,1-10.341,9.325A32.387,32.387,0,0,1,896.175,228.51Zm2.334-13.057a22.791,22.791,0,0,0,17.18-7.463q7.074-7.463,7.074-20.055t-7.074-20.055a23.334,23.334,0,0,0-34.281.076q-7.154,7.539-7.153,19.977t7.153,19.979A22.755,22.755,0,0,0,898.509,215.453Z" fill="#767676"/>
      <path id="path3920" d="M610.567,226.024h-14.3V128.391h-31.1V114.708h76.491v13.683h-31.09Z" fill="#767676"/>
      <path id="path3922" d="M659.223,226.024h-14.3V149.846H658.6v12.435h.622q2.172-6.219,8.936-10.262a25.586,25.586,0,0,1,13.137-4.042,27.229,27.229,0,0,1,10.73,1.869l-5.442,13.37a21.551,21.551,0,0,0-7.62-1.091,18.685,18.685,0,0,0-13.756,6.142q-5.985,6.141-5.985,16.091Z" fill="#767676"/>
      <path id="path3924" d="M730.456,228.51q-17.261,0-28.064-11.5t-10.8-29.072a41.949,41.949,0,0,1,10.492-28.607q10.492-11.973,26.818-11.973,16.949,0,27.13,11.038t10.181,29.542l-.156,2.643H705.888q.622,11.5,7.7,18.19a23.336,23.336,0,0,0,16.558,6.685q15.391,0,20.833-13.061l12.749,5.285a34.163,34.163,0,0,1-12.284,14.848q-8.548,5.985-20.984,5.985Zm20.52-49.746q-.467-6.534-5.986-12.44t-16.4-5.907a20.515,20.515,0,0,0-13.756,4.974,25.421,25.421,0,0,0-8.007,13.373Z" fill="#767676"/>
      <path id="path3926" d="M793.951,149.846v10.571h.622a25.29,25.29,0,0,1,9.792-9.252,28.428,28.428,0,0,1,14.3-3.81q14.148,0,21.609,8.706t7.461,23.324v46.639h-14.3V181.558q0-21.141-18.812-21.141a17.6,17.6,0,0,0-14.459,7.074,25.677,25.677,0,0,0-5.6,16.4v42.131h-14.3V149.846Z" fill="#767676"/>
      <path id="path3930" d="M983.5,228.51q-12.748,0-21.066-6.218a36.825,36.825,0,0,1-12.207-15.545l12.748-5.285q6.063,14.3,20.681,14.3,6.686,0,10.96-2.954a9.048,9.048,0,0,0,4.275-7.774q0-7.462-10.419-10.106L973.077,191.2a36.616,36.616,0,0,1-13.835-7.074,17.054,17.054,0,0,1-6.529-14.067q0-10.105,8.939-16.4t21.222-6.3a35.35,35.35,0,0,1,18.034,4.588,25.869,25.869,0,0,1,11.349,13.138l-12.44,5.129Q995.623,160.1,982.4,160.1a20.326,20.326,0,0,0-10.724,2.642q-4.355,2.643-4.354,7.155,0,6.529,10.106,8.863l15.078,3.572q10.728,2.487,15.859,8.55a20.626,20.626,0,0,1,5.131,13.683q0,10.263-8.4,17.1T983.5,228.51Z" fill="#767676"/>
    </g>
  </g>
</svg>
