<svg xmlns="http://www.w3.org/2000/svg" width="447.142" height="260.027" viewBox="0 0 447.142 260.027">
  <g id="Grupo_27239" data-name="Grupo 27239" transform="translate(-380 -8900)">
    <g id="Grupo_27238" data-name="Grupo 27238" transform="translate(322.554 8534.006)">
      <path id="Trazado_21272" data-name="Trazado 21272" d="M488.04,459.7a57.416,57.416,0,0,0-79.913,0,54.394,54.394,0,0,0,0,78.138,57.419,57.419,0,0,0,79.913,0,54.394,54.394,0,0,0,0-78.138Zm-6.784,71.508a47.666,47.666,0,0,1-66.345,0,45.161,45.161,0,0,1,0-64.878,47.668,47.668,0,0,1,66.345,0,45.156,45.156,0,0,1,0,64.878Z" fill="#e63c22"/>
      <path id="Trazado_21273" data-name="Trazado 21273" d="M472.6,474.8a35.23,35.23,0,0,0-49.031,0,33.373,33.373,0,0,0,0,47.943,35.225,35.225,0,0,0,49.031,0,33.371,33.371,0,0,0,0-47.943Zm-6.782,41.313a25.487,25.487,0,0,1-35.469,0,24.143,24.143,0,0,1,0-34.682,25.487,25.487,0,0,1,35.469,0,24.141,24.141,0,0,1,0,34.682Z" fill="#e63c22"/>
      <g id="Grupo_27023" data-name="Grupo 27023">
        <path id="Trazado_21274" data-name="Trazado 21274" d="M458.357,498.768a10.276,10.276,0,1,1-10.273-10.043A10.159,10.159,0,0,1,458.357,498.768Z" fill="#fff"/>
      </g>
      <path id="Trazado_21275" data-name="Trazado 21275" d="M458.739,488.351a15.311,15.311,0,0,0-21.311,0,14.507,14.507,0,0,0,0,20.835,15.316,15.316,0,0,0,21.311,0,14.507,14.507,0,0,0,0-20.835Zm-6.784,14.2a5.562,5.562,0,0,1-7.742,0,5.271,5.271,0,0,1,0-7.573,5.562,5.562,0,0,1,7.742,0,5.267,5.267,0,0,1,0,7.573Z" fill="#e63c22"/>
      <g id="Grupo_27029" data-name="Grupo 27029">
        <g id="Grupo_27028" data-name="Grupo 27028">
          <g id="Grupo_27024" data-name="Grupo 27024">
            <path id="Trazado_21276" data-name="Trazado 21276" d="M368.505,498.044h-5.558l-5.26-8.737h5.559Z" fill="#1a1d39"/>
          </g>
          <g id="Grupo_27025" data-name="Grupo 27025">
            <path id="Trazado_21277" data-name="Trazado 21277" d="M377.679,498.044h-5.562l-5.258-8.737h5.559Z" fill="#1a1d39"/>
          </g>
          <g id="Grupo_27026" data-name="Grupo 27026">
            <path id="Trazado_21278" data-name="Trazado 21278" d="M366.859,508.227h5.559l5.261-8.734h-5.562Z" fill="#1a1d39"/>
          </g>
          <g id="Grupo_27027" data-name="Grupo 27027">
            <path id="Trazado_21279" data-name="Trazado 21279" d="M357.687,508.227h5.559l5.259-8.734h-5.558Z" fill="#1a1d39"/>
          </g>
        </g>
        <rect id="Rectángulo_4192" data-name="Rectángulo 4192" width="89.683" height="3.625" transform="translate(360.131 496.956)" fill="#1a1d39"/>
      </g>
      <g id="Grupo_27083" data-name="Grupo 27083">
        <g id="Grupo_27030" data-name="Grupo 27030">
          <rect id="Rectángulo_4193" data-name="Rectángulo 4193" width="9.337" height="13.354" transform="translate(63.218 482.975)" fill="#2d3e50"/>
        </g>
        <g id="Grupo_27031" data-name="Grupo 27031">
          <path id="Trazado_21280" data-name="Trazado 21280" d="M71.622,478.2a3.735,3.735,0,1,1-3.735-3.734A3.735,3.735,0,0,1,71.622,478.2Z" fill="#2d3e50"/>
        </g>
        <g id="Grupo_27032" data-name="Grupo 27032">
          <rect id="Rectángulo_4194" data-name="Rectángulo 4194" width="3.864" height="13.58" transform="translate(63.218 493.161)" fill="#2d3e50"/>
        </g>
        <g id="Grupo_27033" data-name="Grupo 27033">
          <rect id="Rectángulo_4195" data-name="Rectángulo 4195" width="3.863" height="13.58" transform="translate(68.692 493.161)" fill="#2d3e50"/>
        </g>
        <g id="Grupo_27034" data-name="Grupo 27034">
          <rect id="Rectángulo_4196" data-name="Rectángulo 4196" width="11.391" height="2.262" transform="translate(57.446 492.841) rotate(-59.988)" fill="#2d3e50"/>
        </g>
        <g id="Grupo_27035" data-name="Grupo 27035">
          <rect id="Rectángulo_4197" data-name="Rectángulo 4197" width="2.263" height="11.391" transform="translate(70.574 484.108) rotate(-30.01)" fill="#2d3e50"/>
        </g>
        <g id="Grupo_27036" data-name="Grupo 27036">
          <path id="Trazado_21281" data-name="Trazado 21281" d="M63.218,487.369l-3.812,6.6,3.812-6.6Zm-.075-4.393-5.7,9.865,5.7-9.865.075.043h0Z" fill="#2d3e50"/>
        </g>
        <g id="Grupo_27037" data-name="Grupo 27037">
          <path id="Trazado_21282" data-name="Trazado 21282" d="M68.171,482.975H63.218v.043h0l1.883,1.089-1.883,3.262h0v5.791h3.864v3.169h1.089Z" fill="#111f32"/>
        </g>
        <g id="Grupo_27038" data-name="Grupo 27038">
          <path id="Trazado_21283" data-name="Trazado 21283" d="M67.082,493.161H63.218v13.58h3.864v-13.58Z" fill="#111f32"/>
        </g>
        <g id="Grupo_27039" data-name="Grupo 27039">
          <path id="Trazado_21284" data-name="Trazado 21284" d="M63.143,482.975l-5.7,9.866,1.959,1.132,3.812-6.6,1.883-3.262-1.883-1.089Z" fill="#111f32"/>
        </g>
        <g id="Grupo_27040" data-name="Grupo 27040">
          <path id="Trazado_21285" data-name="Trazado 21285" d="M67.887,474.469a3.735,3.735,0,0,0,0,7.47c.1,0,.187-.022.284-.029V474.5C68.074,474.49,67.983,474.469,67.887,474.469Z" fill="#111f32"/>
        </g>
        <g id="Grupo_27041" data-name="Grupo 27041">
          <rect id="Rectángulo_4198" data-name="Rectángulo 4198" width="9.337" height="13.354" transform="translate(87.821 482.975)" fill="#2d3e50"/>
        </g>
        <g id="Grupo_27042" data-name="Grupo 27042">
          <path id="Trazado_21286" data-name="Trazado 21286" d="M96.224,478.2a3.735,3.735,0,1,1-3.734-3.734A3.734,3.734,0,0,1,96.224,478.2Z" fill="#2d3e50"/>
        </g>
        <g id="Grupo_27043" data-name="Grupo 27043">
          <rect id="Rectángulo_4199" data-name="Rectángulo 4199" width="3.865" height="13.58" transform="translate(87.821 493.161)" fill="#2d3e50"/>
        </g>
        <g id="Grupo_27044" data-name="Grupo 27044">
          <rect id="Rectángulo_4200" data-name="Rectángulo 4200" width="3.863" height="13.58" transform="translate(93.295 493.161)" fill="#2d3e50"/>
        </g>
        <g id="Grupo_27045" data-name="Grupo 27045">
          <rect id="Rectángulo_4201" data-name="Rectángulo 4201" width="11.392" height="2.262" transform="translate(82.049 492.841) rotate(-59.988)" fill="#2d3e50"/>
        </g>
        <g id="Grupo_27046" data-name="Grupo 27046">
          <rect id="Rectángulo_4202" data-name="Rectángulo 4202" width="2.262" height="11.392" transform="translate(95.176 484.107) rotate(-30.01)" fill="#2d3e50"/>
        </g>
        <g id="Grupo_27047" data-name="Grupo 27047">
          <path id="Trazado_21287" data-name="Trazado 21287" d="M92.774,482.975H87.821v.043l1.885,1.09-1.885,3.264v5.789h3.865v3.169h1.089Z" fill="#111f32"/>
        </g>
        <g id="Grupo_27048" data-name="Grupo 27048">
          <path id="Trazado_21288" data-name="Trazado 21288" d="M91.685,493.161H87.821v13.58h3.865v-13.58Z" fill="#111f32"/>
        </g>
        <g id="Grupo_27049" data-name="Grupo 27049">
          <path id="Trazado_21289" data-name="Trazado 21289" d="M87.747,482.975l-5.7,9.866,1.959,1.132,3.812-6.6v0l1.885-3.264-1.885-1.09Z" fill="#111f32"/>
        </g>
        <g id="Grupo_27050" data-name="Grupo 27050">
          <path id="Trazado_21290" data-name="Trazado 21290" d="M92.49,474.469a3.735,3.735,0,1,0,0,7.47c.1,0,.187-.022.284-.029V474.5C92.677,474.49,92.586,474.469,92.49,474.469Z" fill="#111f32"/>
        </g>
        <g id="Grupo_27051" data-name="Grupo 27051">
          <rect id="Rectángulo_4203" data-name="Rectángulo 4203" width="9.337" height="13.354" transform="translate(75.519 440.57)" fill="#2d3e50"/>
        </g>
        <g id="Grupo_27052" data-name="Grupo 27052">
          <path id="Trazado_21291" data-name="Trazado 21291" d="M83.923,435.8a3.734,3.734,0,1,1-3.735-3.733A3.735,3.735,0,0,1,83.923,435.8Z" fill="#2d3e50"/>
        </g>
        <g id="Grupo_27053" data-name="Grupo 27053">
          <rect id="Rectángulo_4204" data-name="Rectángulo 4204" width="3.864" height="13.58" transform="translate(75.519 450.756)" fill="#2d3e50"/>
        </g>
        <g id="Grupo_27054" data-name="Grupo 27054">
          <rect id="Rectángulo_4205" data-name="Rectángulo 4205" width="3.863" height="13.58" transform="translate(80.993 450.756)" fill="#2d3e50"/>
        </g>
        <g id="Grupo_27055" data-name="Grupo 27055">
          <rect id="Rectángulo_4206" data-name="Rectángulo 4206" width="11.391" height="2.262" transform="translate(69.748 450.435) rotate(-59.993)" fill="#2d3e50"/>
        </g>
        <g id="Grupo_27056" data-name="Grupo 27056">
          <rect id="Rectángulo_4207" data-name="Rectángulo 4207" width="2.262" height="11.391" transform="translate(82.875 441.702) rotate(-30.007)" fill="#2d3e50"/>
        </g>
        <g id="Grupo_27057" data-name="Grupo 27057">
          <path id="Trazado_21292" data-name="Trazado 21292" d="M75.519,444.964l-3.812,6.6,3.812-6.6Zm-.075-4.394-5.7,9.866,5.7-9.866.075.043h0Z" fill="#2d3e50"/>
        </g>
        <g id="Grupo_27058" data-name="Grupo 27058">
          <path id="Trazado_21293" data-name="Trazado 21293" d="M80.472,440.57H75.519v.042h0L77.4,441.7l-1.883,3.262h0v5.792h3.864v3.169h1.088Z" fill="#111f32"/>
        </g>
        <g id="Grupo_27059" data-name="Grupo 27059">
          <path id="Trazado_21294" data-name="Trazado 21294" d="M79.383,450.756H75.519v13.58h3.864v-13.58Z" fill="#111f32"/>
        </g>
        <g id="Grupo_27060" data-name="Grupo 27060">
          <path id="Trazado_21295" data-name="Trazado 21295" d="M75.444,440.57l-5.7,9.866,1.959,1.131,3.812-6.6L77.4,441.7l-1.883-1.089Z" fill="#111f32"/>
        </g>
        <g id="Grupo_27061" data-name="Grupo 27061">
          <path id="Trazado_21296" data-name="Trazado 21296" d="M80.188,432.064a3.734,3.734,0,0,0,0,7.469c.1,0,.186-.021.284-.029v-7.412C80.374,432.084,80.284,432.064,80.188,432.064Z" fill="#111f32"/>
        </g>
        <g id="Grupo_27062" data-name="Grupo 27062">
          <rect id="Rectángulo_4208" data-name="Rectángulo 4208" width="9.337" height="13.354" transform="translate(100.122 440.57)" fill="#2d3e50"/>
        </g>
        <g id="Grupo_27063" data-name="Grupo 27063">
          <path id="Trazado_21297" data-name="Trazado 21297" d="M108.525,435.8a3.735,3.735,0,1,1-3.734-3.733A3.734,3.734,0,0,1,108.525,435.8Z" fill="#2d3e50"/>
        </g>
        <g id="Grupo_27064" data-name="Grupo 27064">
          <rect id="Rectángulo_4209" data-name="Rectángulo 4209" width="3.865" height="13.58" transform="translate(100.122 450.756)" fill="#2d3e50"/>
        </g>
        <g id="Grupo_27065" data-name="Grupo 27065">
          <rect id="Rectángulo_4210" data-name="Rectángulo 4210" width="3.863" height="13.58" transform="translate(105.596 450.756)" fill="#2d3e50"/>
        </g>
        <g id="Grupo_27066" data-name="Grupo 27066">
          <rect id="Rectángulo_4211" data-name="Rectángulo 4211" width="11.392" height="2.262" transform="translate(94.35 450.436) rotate(-59.993)" fill="#2d3e50"/>
        </g>
        <g id="Grupo_27067" data-name="Grupo 27067">
          <rect id="Rectángulo_4212" data-name="Rectángulo 4212" width="2.262" height="11.392" transform="translate(107.478 441.702) rotate(-30.006)" fill="#2d3e50"/>
        </g>
        <g id="Grupo_27068" data-name="Grupo 27068">
          <path id="Trazado_21298" data-name="Trazado 21298" d="M105.075,440.57h-4.953v.042l1.885,1.09-1.885,3.264v5.789h3.865v3.169h1.089Z" fill="#111f32"/>
        </g>
        <g id="Grupo_27069" data-name="Grupo 27069">
          <path id="Trazado_21299" data-name="Trazado 21299" d="M103.986,450.756h-3.865v13.58h3.865v-13.58Z" fill="#111f32"/>
        </g>
        <g id="Grupo_27070" data-name="Grupo 27070">
          <path id="Trazado_21300" data-name="Trazado 21300" d="M100.048,440.57l-5.7,9.866,1.959,1.131,3.812-6.6v0l1.885-3.264-1.885-1.09Z" fill="#111f32"/>
        </g>
        <g id="Grupo_27071" data-name="Grupo 27071">
          <path id="Trazado_21301" data-name="Trazado 21301" d="M104.791,432.064a3.734,3.734,0,1,0,0,7.469c.1,0,.187-.021.284-.029v-7.412C104.978,432.084,104.887,432.064,104.791,432.064Z" fill="#111f32"/>
        </g>
        <g id="Grupo_27072" data-name="Grupo 27072">
          <rect id="Rectángulo_4213" data-name="Rectángulo 4213" width="9.337" height="13.354" transform="translate(112.423 482.975)" fill="#2d3e50"/>
        </g>
        <g id="Grupo_27073" data-name="Grupo 27073">
          <path id="Trazado_21302" data-name="Trazado 21302" d="M120.827,478.2a3.735,3.735,0,1,1-3.735-3.734A3.734,3.734,0,0,1,120.827,478.2Z" fill="#2d3e50"/>
        </g>
        <g id="Grupo_27074" data-name="Grupo 27074">
          <rect id="Rectángulo_4214" data-name="Rectángulo 4214" width="3.865" height="13.58" transform="translate(112.423 493.161)" fill="#2d3e50"/>
        </g>
        <g id="Grupo_27075" data-name="Grupo 27075">
          <rect id="Rectángulo_4215" data-name="Rectángulo 4215" width="3.863" height="13.58" transform="translate(117.897 493.161)" fill="#2d3e50"/>
        </g>
        <g id="Grupo_27076" data-name="Grupo 27076">
          <rect id="Rectángulo_4216" data-name="Rectángulo 4216" width="11.392" height="2.262" transform="translate(106.652 492.841) rotate(-59.99)" fill="#2d3e50"/>
        </g>
        <g id="Grupo_27077" data-name="Grupo 27077">
          <rect id="Rectángulo_4217" data-name="Rectángulo 4217" width="2.263" height="11.392" transform="translate(119.779 484.108) rotate(-30.01)" fill="#2d3e50"/>
        </g>
        <g id="Grupo_27078" data-name="Grupo 27078">
          <path id="Trazado_21303" data-name="Trazado 21303" d="M112.35,482.975l-5.7,9.866,5.7-9.866.074.043h0Z" fill="#2d3e50"/>
        </g>
        <g id="Grupo_27079" data-name="Grupo 27079">
          <path id="Trazado_21304" data-name="Trazado 21304" d="M117.376,482.975h-4.952v.043h0l1.884,1.089-1.884,3.263v5.79h3.865v3.169h1.088Z" fill="#111f32"/>
        </g>
        <g id="Grupo_27080" data-name="Grupo 27080">
          <path id="Trazado_21305" data-name="Trazado 21305" d="M116.288,493.161h-3.865v13.58h3.865v-13.58Z" fill="#111f32"/>
        </g>
        <g id="Grupo_27081" data-name="Grupo 27081">
          <path id="Trazado_21306" data-name="Trazado 21306" d="M112.35,482.975l-5.7,9.866,1.959,1.132,3.812-6.6h0l1.884-3.263-1.884-1.089Z" fill="#111f32"/>
        </g>
        <g id="Grupo_27082" data-name="Grupo 27082">
          <path id="Trazado_21307" data-name="Trazado 21307" d="M117.092,474.469a3.735,3.735,0,0,0,0,7.47c.1,0,.188-.022.284-.029V474.5C117.28,474.49,117.19,474.469,117.092,474.469Z" fill="#111f32"/>
        </g>
      </g>
      <g id="Grupo_27119" data-name="Grupo 27119">
        <g id="Grupo_27095" data-name="Grupo 27095">
          <g id="Grupo_27084" data-name="Grupo 27084">
            <rect id="Rectángulo_4218" data-name="Rectángulo 4218" width="9.337" height="13.354" transform="translate(420.86 580.675)" fill="#2d3e50"/>
          </g>
          <g id="Grupo_27085" data-name="Grupo 27085">
            <path id="Trazado_21308" data-name="Trazado 21308" d="M429.264,575.9a3.734,3.734,0,1,1-3.735-3.733A3.735,3.735,0,0,1,429.264,575.9Z" fill="#2d3e50"/>
          </g>
          <g id="Grupo_27086" data-name="Grupo 27086">
            <rect id="Rectángulo_4219" data-name="Rectángulo 4219" width="3.864" height="13.58" transform="translate(420.86 590.86)" fill="#2d3e50"/>
          </g>
          <g id="Grupo_27087" data-name="Grupo 27087">
            <rect id="Rectángulo_4220" data-name="Rectángulo 4220" width="3.863" height="13.58" transform="translate(426.334 590.86)" fill="#2d3e50"/>
          </g>
          <g id="Grupo_27088" data-name="Grupo 27088">
            <rect id="Rectángulo_4221" data-name="Rectángulo 4221" width="11.391" height="2.262" transform="matrix(0.5, -0.866, 0.866, 0.5, 415.089, 590.54)" fill="#2d3e50"/>
          </g>
          <g id="Grupo_27089" data-name="Grupo 27089">
            <rect id="Rectángulo_4222" data-name="Rectángulo 4222" width="2.263" height="11.391" transform="translate(428.216 581.807) rotate(-30.01)" fill="#2d3e50"/>
          </g>
          <g id="Grupo_27090" data-name="Grupo 27090">
            <path id="Trazado_21309" data-name="Trazado 21309" d="M420.86,585.069l-3.812,6.6,3.812-6.6Zm-.074-4.394-5.7,9.865,5.7-9.865.074.043h0Z" fill="#2d3e50"/>
          </g>
          <g id="Grupo_27091" data-name="Grupo 27091">
            <path id="Trazado_21310" data-name="Trazado 21310" d="M425.813,580.675H420.86v.042h0l1.883,1.089-1.883,3.262h0v5.791h3.864v3.169h1.089Z" fill="#111f32"/>
          </g>
          <g id="Grupo_27092" data-name="Grupo 27092">
            <path id="Trazado_21311" data-name="Trazado 21311" d="M424.725,590.86H420.86v13.58h3.864V590.86Z" fill="#111f32"/>
          </g>
          <g id="Grupo_27093" data-name="Grupo 27093">
            <path id="Trazado_21312" data-name="Trazado 21312" d="M420.786,580.675l-5.7,9.866,1.959,1.131,3.812-6.6,1.883-3.262-1.883-1.089Z" fill="#111f32"/>
          </g>
          <g id="Grupo_27094" data-name="Grupo 27094">
            <path id="Trazado_21313" data-name="Trazado 21313" d="M425.529,572.169a3.734,3.734,0,0,0,0,7.469c.1,0,.187-.021.284-.029V572.2C425.716,572.189,425.625,572.169,425.529,572.169Z" fill="#111f32"/>
          </g>
        </g>
        <g id="Grupo_27106" data-name="Grupo 27106">
          <g id="Grupo_27096" data-name="Grupo 27096">
            <rect id="Rectángulo_4223" data-name="Rectángulo 4223" width="9.337" height="13.354" transform="translate(445.463 580.675)" fill="#2d3e50"/>
          </g>
          <g id="Grupo_27097" data-name="Grupo 27097">
            <path id="Trazado_21314" data-name="Trazado 21314" d="M453.867,575.9a3.734,3.734,0,1,1-3.735-3.733A3.735,3.735,0,0,1,453.867,575.9Z" fill="#2d3e50"/>
          </g>
          <g id="Grupo_27098" data-name="Grupo 27098">
            <rect id="Rectángulo_4224" data-name="Rectángulo 4224" width="3.865" height="13.58" transform="translate(445.463 590.86)" fill="#2d3e50"/>
          </g>
          <g id="Grupo_27099" data-name="Grupo 27099">
            <rect id="Rectángulo_4225" data-name="Rectángulo 4225" width="3.863" height="13.58" transform="translate(450.937 590.86)" fill="#2d3e50"/>
          </g>
          <g id="Grupo_27100" data-name="Grupo 27100">
            <rect id="Rectángulo_4226" data-name="Rectángulo 4226" width="11.392" height="2.262" transform="translate(439.691 590.54) rotate(-59.988)" fill="#2d3e50"/>
          </g>
          <g id="Grupo_27101" data-name="Grupo 27101">
            <rect id="Rectángulo_4227" data-name="Rectángulo 4227" width="2.262" height="11.392" transform="translate(452.819 581.807) rotate(-30.01)" fill="#2d3e50"/>
          </g>
          <g id="Grupo_27102" data-name="Grupo 27102">
            <path id="Trazado_21315" data-name="Trazado 21315" d="M450.416,580.675h-4.953v.042l1.885,1.089-1.885,3.264v5.789h3.865v3.169h1.089Z" fill="#111f32"/>
          </g>
          <g id="Grupo_27103" data-name="Grupo 27103">
            <path id="Trazado_21316" data-name="Trazado 21316" d="M449.327,590.86h-3.865v13.58h3.865V590.86Z" fill="#111f32"/>
          </g>
          <g id="Grupo_27104" data-name="Grupo 27104">
            <path id="Trazado_21317" data-name="Trazado 21317" d="M445.389,580.675l-5.7,9.866,1.959,1.131,3.812-6.6v0l1.885-3.264-1.885-1.089Z" fill="#111f32"/>
          </g>
          <g id="Grupo_27105" data-name="Grupo 27105">
            <path id="Trazado_21318" data-name="Trazado 21318" d="M450.132,572.169a3.734,3.734,0,0,0,0,7.469c.1,0,.187-.021.284-.029V572.2C450.319,572.189,450.228,572.169,450.132,572.169Z" fill="#111f32"/>
          </g>
        </g>
        <g id="Grupo_27118" data-name="Grupo 27118">
          <g id="Grupo_27107" data-name="Grupo 27107">
            <rect id="Rectángulo_4228" data-name="Rectángulo 4228" width="9.337" height="13.354" transform="translate(470.065 580.675)" fill="#2d3e50"/>
          </g>
          <g id="Grupo_27108" data-name="Grupo 27108">
            <path id="Trazado_21319" data-name="Trazado 21319" d="M478.469,575.9a3.734,3.734,0,1,1-3.735-3.733A3.734,3.734,0,0,1,478.469,575.9Z" fill="#2d3e50"/>
          </g>
          <g id="Grupo_27109" data-name="Grupo 27109">
            <rect id="Rectángulo_4229" data-name="Rectángulo 4229" width="3.865" height="13.58" transform="translate(470.065 590.86)" fill="#2d3e50"/>
          </g>
          <g id="Grupo_27110" data-name="Grupo 27110">
            <rect id="Rectángulo_4230" data-name="Rectángulo 4230" width="3.863" height="13.58" transform="translate(475.539 590.86)" fill="#2d3e50"/>
          </g>
          <g id="Grupo_27111" data-name="Grupo 27111">
            <rect id="Rectángulo_4231" data-name="Rectángulo 4231" width="11.392" height="2.262" transform="translate(464.294 590.54) rotate(-59.99)" fill="#2d3e50"/>
          </g>
          <g id="Grupo_27112" data-name="Grupo 27112">
            <rect id="Rectángulo_4232" data-name="Rectángulo 4232" width="2.263" height="11.392" transform="translate(477.422 581.807) rotate(-30.01)" fill="#2d3e50"/>
          </g>
          <g id="Grupo_27113" data-name="Grupo 27113">
            <path id="Trazado_21320" data-name="Trazado 21320" d="M469.992,580.675l-5.7,9.866,5.7-9.866.074.043h0Z" fill="#2d3e50"/>
          </g>
          <g id="Grupo_27114" data-name="Grupo 27114">
            <path id="Trazado_21321" data-name="Trazado 21321" d="M475.018,580.675h-4.953v.042h0l1.884,1.089-1.884,3.263v5.79h3.865v3.169h1.088Z" fill="#111f32"/>
          </g>
          <g id="Grupo_27115" data-name="Grupo 27115">
            <path id="Trazado_21322" data-name="Trazado 21322" d="M473.93,590.86h-3.865v13.58h3.865V590.86Z" fill="#111f32"/>
          </g>
          <g id="Grupo_27116" data-name="Grupo 27116">
            <path id="Trazado_21323" data-name="Trazado 21323" d="M469.992,580.675l-5.7,9.866,1.959,1.131,3.812-6.6h0l1.884-3.263-1.884-1.089Z" fill="#111f32"/>
          </g>
          <g id="Grupo_27117" data-name="Grupo 27117">
            <path id="Trazado_21324" data-name="Trazado 21324" d="M474.734,572.169a3.734,3.734,0,0,0,0,7.469c.1,0,.188-.021.284-.029V572.2C474.922,572.189,474.832,572.169,474.734,572.169Z" fill="#111f32"/>
          </g>
        </g>
      </g>
      <g id="Grupo_27131" data-name="Grupo 27131">
        <g id="Grupo_27120" data-name="Grupo 27120">
          <rect id="Rectángulo_4233" data-name="Rectángulo 4233" width="9.337" height="13.354" transform="translate(345.475 580.675)" fill="#2d3e50"/>
        </g>
        <g id="Grupo_27121" data-name="Grupo 27121">
          <path id="Trazado_21325" data-name="Trazado 21325" d="M353.879,575.9a3.734,3.734,0,1,1-3.735-3.733A3.734,3.734,0,0,1,353.879,575.9Z" fill="#2d3e50"/>
        </g>
        <g id="Grupo_27122" data-name="Grupo 27122">
          <rect id="Rectángulo_4234" data-name="Rectángulo 4234" width="3.865" height="13.58" transform="translate(345.475 590.86)" fill="#2d3e50"/>
        </g>
        <g id="Grupo_27123" data-name="Grupo 27123">
          <rect id="Rectángulo_4235" data-name="Rectángulo 4235" width="3.863" height="13.58" transform="translate(350.949 590.86)" fill="#2d3e50"/>
        </g>
        <g id="Grupo_27124" data-name="Grupo 27124">
          <rect id="Rectángulo_4236" data-name="Rectángulo 4236" width="11.392" height="2.262" transform="translate(339.704 590.54) rotate(-59.99)" fill="#2d3e50"/>
        </g>
        <g id="Grupo_27125" data-name="Grupo 27125">
          <rect id="Rectángulo_4237" data-name="Rectángulo 4237" width="2.263" height="11.392" transform="translate(352.831 581.807) rotate(-30.01)" fill="#2d3e50"/>
        </g>
        <g id="Grupo_27126" data-name="Grupo 27126">
          <path id="Trazado_21326" data-name="Trazado 21326" d="M345.4,580.675l-5.7,9.866,5.7-9.866.074.043h0Z" fill="#2d3e50"/>
        </g>
        <g id="Grupo_27127" data-name="Grupo 27127">
          <path id="Trazado_21327" data-name="Trazado 21327" d="M350.428,580.675h-4.952v.042h0l1.884,1.089-1.884,3.263v5.79h3.865v3.169h1.088Z" fill="#111f32"/>
        </g>
        <g id="Grupo_27128" data-name="Grupo 27128">
          <path id="Trazado_21328" data-name="Trazado 21328" d="M349.34,590.86h-3.865v13.58h3.865V590.86Z" fill="#111f32"/>
        </g>
        <g id="Grupo_27129" data-name="Grupo 27129">
          <path id="Trazado_21329" data-name="Trazado 21329" d="M345.4,580.675l-5.7,9.866,1.959,1.131,3.812-6.6h0l1.884-3.263-1.884-1.089Z" fill="#111f32"/>
        </g>
        <g id="Grupo_27130" data-name="Grupo 27130">
          <path id="Trazado_21330" data-name="Trazado 21330" d="M350.144,572.169a3.734,3.734,0,0,0,0,7.469c.1,0,.188-.021.284-.029V572.2C350.332,572.189,350.242,572.169,350.144,572.169Z" fill="#111f32"/>
        </g>
      </g>
      <g id="Grupo_27138" data-name="Grupo 27138">
        <g id="Grupo_27132" data-name="Grupo 27132">
          <path id="Trazado_21331" data-name="Trazado 21331" d="M78.374,529.083,72.086,540.42l5.362,2.731-1.494,10.255,7.472-12.367-5.67-3.247Z" fill="#fbc013"/>
        </g>
        <g id="Grupo_27133" data-name="Grupo 27133">
          <path id="Trazado_21332" data-name="Trazado 21332" d="M107.746,529.083l-6.288,11.337,5.362,2.731-1.494,10.255,7.472-12.367-5.67-3.247Z" fill="#fbc013"/>
        </g>
        <g id="Grupo_27134" data-name="Grupo 27134">
          <path id="Trazado_21333" data-name="Trazado 21333" d="M99.962,562.34v28.667a8.228,8.228,0,0,1-8.218,8.219v11.439A19.68,19.68,0,0,0,111.4,591.007V562.34Z" fill="#1a1d39"/>
        </g>
        <g id="Grupo_27135" data-name="Grupo 27135">
          <path id="Trazado_21334" data-name="Trazado 21334" d="M83.525,562.34v28.667a8.228,8.228,0,0,0,8.219,8.219v11.439a19.68,19.68,0,0,1-19.658-19.658V562.34Z" fill="#e63c22"/>
        </g>
        <g id="Grupo_27136" data-name="Grupo 27136">
          <rect id="Rectángulo_4238" data-name="Rectángulo 4238" width="11.44" height="3.382" transform="translate(72.086 559.454)" fill="#d8d8d8"/>
        </g>
        <g id="Grupo_27137" data-name="Grupo 27137">
          <rect id="Rectángulo_4239" data-name="Rectángulo 4239" width="11.44" height="3.382" transform="translate(99.962 559.454)" fill="#d8d8d8"/>
        </g>
      </g>
      <g id="Grupo_27139" data-name="Grupo 27139">
        <path id="Trazado_21335" data-name="Trazado 21335" d="M269.391,522.653h-2.474v7.367h2.474v-7.367Z" fill="#fff"/>
      </g>
      <g id="Grupo_27140" data-name="Grupo 27140">
        <path id="Trazado_21336" data-name="Trazado 21336" d="M269.406,574.194c-.01-.415-.016-.832-.015-1.251v-6.086h-2.473v6.084c0,.439.005.876.015,1.312l2.473-.059Z" fill="#fff"/>
      </g>
      <g id="Grupo_27141" data-name="Grupo 27141">
        <path id="Trazado_21337" data-name="Trazado 21337" d="M269.391,552.122h-2.474v7.368h2.474v-7.368Z" fill="#fff"/>
      </g>
      <g id="Grupo_27142" data-name="Grupo 27142">
        <path id="Trazado_21338" data-name="Trazado 21338" d="M269.391,537.387h-2.474v7.367h2.474v-7.367Z" fill="#fff"/>
      </g>
      <g id="Grupo_27143" data-name="Grupo 27143">
        <path id="Trazado_21339" data-name="Trazado 21339" d="M269.391,507.918h-2.474v7.367h2.474v-7.367Z" fill="#fff"/>
      </g>
      <g id="Grupo_27144" data-name="Grupo 27144">
        <path id="Trazado_21340" data-name="Trazado 21340" d="M267.74,500.02h2.474v-7.367H267.74v7.367Z" fill="#fff"/>
      </g>
      <g id="Grupo_27145" data-name="Grupo 27145">
        <path id="Trazado_21341" data-name="Trazado 21341" d="M267.725,448.478q.015.623.015,1.251v6.086h2.473v-6.084c0-.439-.005-.876-.015-1.312Z" fill="#fff"/>
      </g>
      <g id="Grupo_27146" data-name="Grupo 27146">
        <path id="Trazado_21342" data-name="Trazado 21342" d="M267.74,470.55h2.474v-7.368H267.74v7.368Z" fill="#fff"/>
      </g>
      <g id="Grupo_27147" data-name="Grupo 27147">
        <path id="Trazado_21343" data-name="Trazado 21343" d="M267.74,485.285h2.474v-7.367H267.74v7.367Z" fill="#fff"/>
      </g>
      <g id="Grupo_27148" data-name="Grupo 27148">
        <path id="Trazado_21344" data-name="Trazado 21344" d="M267.74,514.754h2.474v-7.367H267.74v7.367Z" fill="#fff"/>
      </g>
      <g id="Grupo_27153" data-name="Grupo 27153">
        <g id="Grupo_27150" data-name="Grupo 27150">
          <g id="Grupo_27149" data-name="Grupo 27149">
            <path id="Trazado_21345" data-name="Trazado 21345" d="M311.171,408.919v-4.831l-3.112-.622a17.746,17.746,0,0,0-.992-3.527l2.365-2.014-2.544-4.184-3,.933a19.207,19.207,0,0,0-2.73-2.592l.983-2.852-4.406-2.416-2.121,2.246a20.28,20.28,0,0,0-3.713-.942l-.656-2.955h-5.087l-.655,2.955a20.291,20.291,0,0,0-3.714.942l-2.12-2.246-4.406,2.416.982,2.852a19.259,19.259,0,0,0-2.73,2.592l-3-.933-2.543,4.184,2.364,2.014a17.816,17.816,0,0,0-.992,3.527l-3.111.622v4.831l3.111.622a17.816,17.816,0,0,0,.992,3.527l-2.364,2.014,2.543,4.184,3-.933a19.259,19.259,0,0,0,2.73,2.592l-.982,2.852,4.406,2.416,2.12-2.246a20.291,20.291,0,0,0,3.714.942l.655,2.955h5.087l.656-2.955a20.28,20.28,0,0,0,3.713-.942l2.121,2.246,4.406-2.416-.983-2.852a19.207,19.207,0,0,0,2.73-2.592l3,.933,2.544-4.184-2.365-2.014a17.746,17.746,0,0,0,.992-3.527ZM288.7,417.951c-6.658,0-12.054-5.125-12.054-11.448s5.4-11.447,12.054-11.447,12.054,5.125,12.054,11.447S295.356,417.951,288.7,417.951Z" fill="#939499"/>
          </g>
        </g>
        <g id="Grupo_27152" data-name="Grupo 27152">
          <g id="Grupo_27151" data-name="Grupo 27151">
            <path id="Trazado_21346" data-name="Trazado 21346" d="M288.7,401.552a4.951,4.951,0,1,0,4.951,4.951A4.952,4.952,0,0,0,288.7,401.552Z" fill="#939499"/>
          </g>
        </g>
      </g>
      <g id="Grupo_27158" data-name="Grupo 27158">
        <g id="Grupo_27155" data-name="Grupo 27155">
          <g id="Grupo_27154" data-name="Grupo 27154">
            <path id="Trazado_21347" data-name="Trazado 21347" d="M318.843,447.2a7.859,7.859,0,1,1,8.265-7.849,8.064,8.064,0,0,1-8.265,7.849Zm1.744-22.481H317.1l-.449,2.027a13.9,13.9,0,0,0-2.546.645l-1.454-1.539-3.021,1.656.673,1.955a13.239,13.239,0,0,0-1.871,1.778l-2.059-.64-1.744,2.869,1.621,1.381a12.177,12.177,0,0,0-.68,2.417l-2.133.427v3.312l2.133.427a12.206,12.206,0,0,0,.68,2.418l-1.621,1.381,1.744,2.869,2.059-.64a13.234,13.234,0,0,0,1.871,1.777l-.673,1.956,3.021,1.656,1.454-1.54a13.825,13.825,0,0,0,2.546.646l.449,2.026h3.488l.449-2.026a13.825,13.825,0,0,0,2.546-.646l1.454,1.54,3.021-1.656-.673-1.956a13.236,13.236,0,0,0,1.871-1.777l2.059.64,1.744-2.869-1.621-1.381a12.21,12.21,0,0,0,.68-2.418l2.134-.427V437.7l-2.134-.427a12.181,12.181,0,0,0-.68-2.417l1.621-1.381-1.744-2.869-2.059.64a13.241,13.241,0,0,0-1.871-1.778l.673-1.955-3.021-1.656-1.454,1.539a13.9,13.9,0,0,0-2.546-.645l-.449-2.027Z" fill="#939499"/>
          </g>
        </g>
        <g id="Grupo_27157" data-name="Grupo 27157">
          <g id="Grupo_27156" data-name="Grupo 27156">
            <path id="Trazado_21348" data-name="Trazado 21348" d="M318.843,435.957a3.395,3.395,0,1,0,3.4,3.394,3.394,3.394,0,0,0-3.4-3.394Z" fill="#939499"/>
          </g>
        </g>
      </g>
      <g id="Grupo_27163" data-name="Grupo 27163">
        <g id="Grupo_27160" data-name="Grupo 27160">
          <g id="Grupo_27159" data-name="Grupo 27159">
            <path id="Trazado_21349" data-name="Trazado 21349" d="M287.611,449.522a5.168,5.168,0,1,1,5.435-5.161,5.3,5.3,0,0,1-5.435,5.161Zm1.147-14.782h-2.294l-.295,1.332a9.083,9.083,0,0,0-1.674.425l-.957-1.013-1.986,1.089.443,1.286a8.628,8.628,0,0,0-1.231,1.169l-1.354-.421-1.147,1.887,1.066.908a8.037,8.037,0,0,0-.447,1.59l-1.4.28v2.178l1.4.281a8.057,8.057,0,0,0,.447,1.59l-1.066.908,1.147,1.886,1.354-.42a8.621,8.621,0,0,0,1.231,1.168l-.443,1.286,1.986,1.089.957-1.012a9.167,9.167,0,0,0,1.674.425l.295,1.332h2.294l.3-1.332a9.167,9.167,0,0,0,1.674-.425l.957,1.012,1.986-1.089-.443-1.286a8.622,8.622,0,0,0,1.231-1.168l1.354.42,1.147-1.886-1.066-.908a8.059,8.059,0,0,0,.447-1.59l1.4-.281v-2.178l-1.4-.28a8.039,8.039,0,0,0-.447-1.59l1.066-.908-1.147-1.887-1.354.421a8.629,8.629,0,0,0-1.231-1.169l.443-1.286-1.986-1.089-.957,1.013a9.083,9.083,0,0,0-1.674-.425l-.3-1.332Z" fill="#939499"/>
          </g>
        </g>
        <g id="Grupo_27162" data-name="Grupo 27162">
          <g id="Grupo_27161" data-name="Grupo 27161">
            <path id="Trazado_21350" data-name="Trazado 21350" d="M287.611,442.129a2.232,2.232,0,1,0,2.232,2.232,2.232,2.232,0,0,0-2.232-2.232Z" fill="#939499"/>
          </g>
        </g>
      </g>
      <g id="Grupo_27168" data-name="Grupo 27168">
        <g id="Grupo_27165" data-name="Grupo 27165">
          <g id="Grupo_27164" data-name="Grupo 27164">
            <path id="Trazado_21351" data-name="Trazado 21351" d="M246.582,436.334v-5.356l-3.45-.69a19.647,19.647,0,0,0-1.1-3.909l2.622-2.233-2.82-4.639-3.329,1.034a21.336,21.336,0,0,0-3.026-2.873l1.089-3.162-4.885-2.678-2.351,2.489a22.5,22.5,0,0,0-4.117-1.044L224.489,410h-5.64l-.727,3.276a22.425,22.425,0,0,0-4.116,1.045l-2.352-2.49-4.884,2.678,1.089,3.162a21.337,21.337,0,0,0-3.026,2.873l-3.329-1.034-2.821,4.639,2.622,2.233a19.715,19.715,0,0,0-1.1,3.909l-3.449.69v5.356l3.449.69a19.714,19.714,0,0,0,1.1,3.909l-2.622,2.233L201.5,447.8l3.329-1.035a21.287,21.287,0,0,0,3.026,2.874l-1.089,3.162,4.884,2.678,2.352-2.489a22.5,22.5,0,0,0,4.116,1.044l.727,3.276h5.64l.726-3.276a22.5,22.5,0,0,0,4.117-1.044l2.351,2.489,4.885-2.678-1.089-3.162a21.287,21.287,0,0,0,3.026-2.874l3.329,1.035,2.82-4.639-2.622-2.233a19.647,19.647,0,0,0,1.1-3.909Zm-24.913,10.013c-7.381,0-13.364-5.682-13.364-12.691s5.983-12.691,13.364-12.691,13.363,5.682,13.363,12.691S229.049,446.347,221.669,446.347Z" fill="#939499"/>
          </g>
        </g>
        <g id="Grupo_27167" data-name="Grupo 27167">
          <g id="Grupo_27166" data-name="Grupo 27166">
            <path id="Trazado_21352" data-name="Trazado 21352" d="M221.669,428.167a5.489,5.489,0,1,0,5.489,5.489A5.488,5.488,0,0,0,221.669,428.167Z" fill="#939499"/>
          </g>
        </g>
      </g>
      <g id="Grupo_27169" data-name="Grupo 27169">
        <path id="Trazado_21353" data-name="Trazado 21353" d="M269.8,462.879H195.383L251.9,570.526h32.96l56.518-107.647Z" fill="#e9ebef"/>
      </g>
      <g id="Grupo_27170" data-name="Grupo 27170">
        <path id="Trazado_21354" data-name="Trazado 21354" d="M269.8,462.879H195.383l14.129,26.912H327.249l14.13-26.912Z" fill="#7d58bd"/>
      </g>
      <g id="Grupo_27172" data-name="Grupo 27172">
        <g id="Grupo_27171" data-name="Grupo 27171">
          <path id="Trazado_21355" data-name="Trazado 21355" d="M268.381,489.79H209.512L223.641,516.7h89.478l14.13-26.912Z" fill="#b869c3"/>
        </g>
      </g>
      <g id="Grupo_27174" data-name="Grupo 27174">
        <g id="Grupo_27173" data-name="Grupo 27173">
          <path id="Trazado_21356" data-name="Trazado 21356" d="M268.381,516.7H223.641l14.129,26.912H298.99l14.13-26.912Z" fill="#65b3f2"/>
        </g>
      </g>
      <g id="Grupo_27176" data-name="Grupo 27176">
        <g id="Grupo_27175" data-name="Grupo 27175">
          <path id="Trazado_21357" data-name="Trazado 21357" d="M268.381,543.614h-30.61L251.9,570.526h32.96l14.13-26.912Z" fill="#ff8f00"/>
        </g>
      </g>
      <g id="Grupo_27223" data-name="Grupo 27223">
        <g id="Grupo_27189" data-name="Grupo 27189">
          <g id="Grupo_27178" data-name="Grupo 27178">
            <g id="Grupo_27177" data-name="Grupo 27177">
              <path id="Trazado_21358" data-name="Trazado 21358" d="M209.31,398.334a53.417,53.417,0,0,1,7.368-1.571l.344,2.45a50.847,50.847,0,0,0-7.026,1.5Z" fill="#939499"/>
            </g>
          </g>
          <g id="Grupo_27180" data-name="Grupo 27180">
            <g id="Grupo_27179" data-name="Grupo 27179">
              <path id="Trazado_21359" data-name="Trazado 21359" d="M245.111,404.392a53.916,53.916,0,0,0-6.637-3.57l-1.016,2.255a51.427,51.427,0,0,1,6.332,3.4Z" fill="#939499"/>
            </g>
          </g>
          <g id="Grupo_27182" data-name="Grupo 27182">
            <g id="Grupo_27181" data-name="Grupo 27181">
              <path id="Trazado_21360" data-name="Trazado 21360" d="M231.4,398.221a53.4,53.4,0,0,0-7.369-1.57l-.343,2.45a50.731,50.731,0,0,1,7.026,1.5Z" fill="#939499"/>
            </g>
          </g>
          <g id="Grupo_27184" data-name="Grupo 27184">
            <g id="Grupo_27183" data-name="Grupo 27183">
              <path id="Trazado_21361" data-name="Trazado 21361" d="M254.733,415.754l1.844-1.647a54.4,54.4,0,0,0-5.394-5.256l-1.6,1.886A52.222,52.222,0,0,1,254.733,415.754Z" fill="#939499"/>
            </g>
          </g>
          <g id="Grupo_27186" data-name="Grupo 27186">
            <g id="Grupo_27185" data-name="Grupo 27185">
              <path id="Trazado_21362" data-name="Trazado 21362" d="M269.483,440.919a53.049,53.049,0,0,0-1.767-7.326l-2.357.75a50.792,50.792,0,0,1,1.685,6.983Z" fill="#939499"/>
            </g>
          </g>
          <g id="Grupo_27188" data-name="Grupo 27188">
            <g id="Grupo_27187" data-name="Grupo 27187">
              <path id="Trazado_21363" data-name="Trazado 21363" d="M264.93,426.593a53.917,53.917,0,0,0-3.739-6.535l-2.056,1.376a51.571,51.571,0,0,1,3.568,6.234Z" fill="#939499"/>
            </g>
          </g>
        </g>
        <g id="Grupo_27208" data-name="Grupo 27208">
          <g id="Grupo_27190" data-name="Grupo 27190">
            <rect id="Rectángulo_4240" data-name="Rectángulo 4240" width="2.474" height="7.367" transform="translate(170.493 492.765)" fill="#939499"/>
          </g>
          <g id="Grupo_27191" data-name="Grupo 27191">
            <path id="Trazado_21364" data-name="Trazado 21364" d="M172.981,448.59c-.009.416-.015.832-.014,1.251v6.086h-2.474v-6.084q0-.658.016-1.312Z" fill="#939499"/>
          </g>
          <g id="Grupo_27192" data-name="Grupo 27192">
            <rect id="Rectángulo_4241" data-name="Rectángulo 4241" width="2.474" height="7.368" transform="translate(170.493 463.295)" fill="#939499"/>
          </g>
          <g id="Grupo_27193" data-name="Grupo 27193">
            <rect id="Rectángulo_4242" data-name="Rectángulo 4242" width="2.474" height="7.367" transform="translate(170.493 478.03)" fill="#939499"/>
          </g>
          <g id="Grupo_27194" data-name="Grupo 27194">
            <rect id="Rectángulo_4243" data-name="Rectángulo 4243" width="2.474" height="7.367" transform="translate(170.493 507.499)" fill="#939499"/>
          </g>
          <g id="Grupo_27195" data-name="Grupo 27195">
            <path id="Trazado_21365" data-name="Trazado 21365" d="M195.6,404.5a53.929,53.929,0,0,1,6.638-3.57l1.015,2.255a51.417,51.417,0,0,0-6.331,3.406Z" fill="#939499"/>
          </g>
          <g id="Grupo_27196" data-name="Grupo 27196">
            <path id="Trazado_21366" data-name="Trazado 21366" d="M185.974,415.867l-1.845-1.648a54.511,54.511,0,0,1,5.394-5.256l1.6,1.887A52.1,52.1,0,0,0,185.974,415.867Z" fill="#939499"/>
          </g>
          <g id="Grupo_27197" data-name="Grupo 27197">
            <path id="Trazado_21367" data-name="Trazado 21367" d="M171.223,441.031a53.291,53.291,0,0,1,1.767-7.325l2.358.75a50.522,50.522,0,0,0-1.685,6.982Z" fill="#939499"/>
          </g>
          <g id="Grupo_27198" data-name="Grupo 27198">
            <path id="Trazado_21368" data-name="Trazado 21368" d="M175.777,426.706a53.794,53.794,0,0,1,3.739-6.536l2.055,1.376A51.564,51.564,0,0,0,178,427.78Z" fill="#939499"/>
          </g>
          <g id="Grupo_27199" data-name="Grupo 27199">
            <path id="Trazado_21369" data-name="Trazado 21369" d="M152.46,611.787l1.61,1.878a54.308,54.308,0,0,0,5.364-5.287l-1.854-1.636A51.991,51.991,0,0,1,152.46,611.787Z" fill="#939499"/>
          </g>
          <g id="Grupo_27200" data-name="Grupo 27200">
            <rect id="Rectángulo_4244" data-name="Rectángulo 4244" width="2.474" height="7.367" transform="translate(170.392 537.118)" fill="#939499"/>
          </g>
          <g id="Grupo_27201" data-name="Grupo 27201">
            <rect id="Rectángulo_4245" data-name="Rectángulo 4245" width="2.474" height="7.367" transform="translate(170.392 522.384)" fill="#939499"/>
          </g>
          <g id="Grupo_27202" data-name="Grupo 27202">
            <path id="Trazado_21370" data-name="Trazado 21370" d="M170.392,572.987c0,.316,0,.63-.009.946l2.473.046q.009-.5.009-.992v-6.4h-2.473Z" fill="#939499"/>
          </g>
          <g id="Grupo_27203" data-name="Grupo 27203">
            <rect id="Rectángulo_4246" data-name="Rectángulo 4246" width="2.474" height="7.367" transform="translate(170.392 551.853)" fill="#939499"/>
          </g>
          <g id="Grupo_27204" data-name="Grupo 27204">
            <path id="Trazado_21371" data-name="Trazado 21371" d="M126.643,623.573l.357,2.448a53.24,53.24,0,0,0,7.359-1.616l-.7-2.372A50.622,50.622,0,0,1,126.643,623.573Z" fill="#939499"/>
          </g>
          <g id="Grupo_27205" data-name="Grupo 27205">
            <path id="Trazado_21372" data-name="Trazado 21372" d="M168.1,588.08l2.361.736a53.031,53.031,0,0,0,1.723-7.335l-2.442-.393A50.628,50.628,0,0,1,168.1,588.08Z" fill="#939499"/>
          </g>
          <g id="Grupo_27206" data-name="Grupo 27206">
            <path id="Trazado_21373" data-name="Trazado 21373" d="M140.388,619.513l1.027,2.25a53.709,53.709,0,0,0,6.61-3.6l-1.333-2.084A51.346,51.346,0,0,1,140.388,619.513Z" fill="#939499"/>
          </g>
          <g id="Grupo_27207" data-name="Grupo 27207">
            <path id="Trazado_21374" data-name="Trazado 21374" d="M161.951,601.035l2.065,1.364a53.976,53.976,0,0,0,3.7-6.562l-2.235-1.062A51.281,51.281,0,0,1,161.951,601.035Z" fill="#939499"/>
          </g>
        </g>
        <g id="Grupo_27222" data-name="Grupo 27222">
          <g id="Grupo_27209" data-name="Grupo 27209">
            <path id="Trazado_21375" data-name="Trazado 21375" d="M292.019,618.28a54,54,0,0,0,6.638,3.57l1.015-2.255a51.475,51.475,0,0,1-6.331-3.4Z" fill="#939499"/>
          </g>
          <g id="Grupo_27210" data-name="Grupo 27210">
            <path id="Trazado_21376" data-name="Trazado 21376" d="M305.734,624.451a53.392,53.392,0,0,0,7.369,1.57l.343-2.45a50.717,50.717,0,0,1-7.026-1.5Z" fill="#939499"/>
          </g>
          <g id="Grupo_27211" data-name="Grupo 27211">
            <path id="Trazado_21377" data-name="Trazado 21377" d="M282.4,606.918l-1.844,1.647a54.289,54.289,0,0,0,5.394,5.256l1.6-1.886A52.108,52.108,0,0,1,282.4,606.918Z" fill="#939499"/>
          </g>
          <g id="Grupo_27212" data-name="Grupo 27212">
            <path id="Trazado_21378" data-name="Trazado 21378" d="M267.648,581.753a53,53,0,0,0,1.767,7.325l2.357-.75a50.451,50.451,0,0,1-1.685-6.982Z" fill="#939499"/>
          </g>
          <g id="Grupo_27213" data-name="Grupo 27213">
            <path id="Trazado_21379" data-name="Trazado 21379" d="M272.2,596.079a53.917,53.917,0,0,0,3.739,6.535L278,601.238A51.432,51.432,0,0,1,274.428,595Z" fill="#939499"/>
          </g>
          <g id="Grupo_27214" data-name="Grupo 27214">
            <rect id="Rectángulo_4247" data-name="Rectángulo 4247" width="7.367" height="2.474" transform="translate(320.627 623.547)" fill="#939499"/>
          </g>
          <g id="Grupo_27215" data-name="Grupo 27215">
            <rect id="Rectángulo_4248" data-name="Rectángulo 4248" width="7.368" height="2.474" transform="translate(364.831 623.547)" fill="#939499"/>
          </g>
          <g id="Grupo_27216" data-name="Grupo 27216">
            <rect id="Rectángulo_4249" data-name="Rectángulo 4249" width="7.367" height="2.474" transform="translate(423.77 623.547)" fill="#939499"/>
          </g>
          <g id="Grupo_27217" data-name="Grupo 27217">
            <rect id="Rectángulo_4250" data-name="Rectángulo 4250" width="7.367" height="2.474" transform="translate(409.035 623.547)" fill="#939499"/>
          </g>
          <g id="Grupo_27218" data-name="Grupo 27218">
            <rect id="Rectángulo_4251" data-name="Rectángulo 4251" width="7.367" height="2.474" transform="translate(379.566 623.547)" fill="#939499"/>
          </g>
          <g id="Grupo_27219" data-name="Grupo 27219">
            <rect id="Rectángulo_4252" data-name="Rectángulo 4252" width="7.367" height="2.474" transform="translate(350.096 623.547)" fill="#939499"/>
          </g>
          <g id="Grupo_27220" data-name="Grupo 27220">
            <rect id="Rectángulo_4253" data-name="Rectángulo 4253" width="7.367" height="2.474" transform="translate(394.301 623.547)" fill="#939499"/>
          </g>
          <g id="Grupo_27221" data-name="Grupo 27221">
            <rect id="Rectángulo_4254" data-name="Rectángulo 4254" width="7.367" height="2.474" transform="translate(335.361 623.547)" fill="#939499"/>
          </g>
        </g>
      </g>
      <g id="Grupo_27237" data-name="Grupo 27237">
        <g id="Grupo_27224" data-name="Grupo 27224">
          <path id="Trazado_21380" data-name="Trazado 21380" d="M425.548,365.994h-3.792v2.512a10.291,10.291,0,0,0-5.826,2.106,5.95,5.95,0,0,0-1.942,4.725,7.48,7.48,0,0,0,.652,3.307,6.748,6.748,0,0,0,2.077,2.4,15.021,15.021,0,0,0,3.757,1.932q2.07.75,3.287,1.282a8.066,8.066,0,0,1,1.741.953,1.273,1.273,0,0,1,.523,1.026,1.3,1.3,0,0,1-.725,1.254,5.208,5.208,0,0,1-2.28.375,15.948,15.948,0,0,1-4.379-.723,26.364,26.364,0,0,1-4.617-1.805v6.083a21.807,21.807,0,0,0,7.732,1.8v3.426h3.792v-3.535a9.5,9.5,0,0,0,5.688-2.382,6.72,6.72,0,0,0,1.952-5,6.169,6.169,0,0,0-1.668-4.46,14.24,14.24,0,0,0-5.495-3.086q-1.887-.641-2.95-1.127a5.962,5.962,0,0,1-1.492-.88,1.289,1.289,0,0,1-.431-1,1.156,1.156,0,0,1,.594-1.054,4.274,4.274,0,0,1,2.062-.357,17.068,17.068,0,0,1,6.906,1.722l2.18-5.221a21.5,21.5,0,0,0-7.346-1.8v-2.473Z" fill="#939499"/>
        </g>
        <g id="Grupo_27225" data-name="Grupo 27225">
          <rect id="Rectángulo_4255" data-name="Rectángulo 4255" width="20" height="5.042" transform="translate(413.981 400.251)" fill="#fbc013"/>
          <rect id="Rectángulo_4256" data-name="Rectángulo 4256" width="10" height="5.042" transform="translate(423.981 400.251)" fill="#fbc013" style="mix-blend-mode: hard-light;isolation: isolate"/>
        </g>
        <g id="Grupo_27226" data-name="Grupo 27226">
          <rect id="Rectángulo_4257" data-name="Rectángulo 4257" width="20" height="5.042" transform="translate(413.981 407.406)" fill="#fbc013"/>
          <rect id="Rectángulo_4258" data-name="Rectángulo 4258" width="10" height="5.042" transform="translate(423.981 407.406)" fill="#fbc013" style="mix-blend-mode: hard-light;isolation: isolate"/>
        </g>
        <g id="Grupo_27227" data-name="Grupo 27227">
          <rect id="Rectángulo_4259" data-name="Rectángulo 4259" width="20" height="5.042" transform="translate(413.981 414.56)" fill="#fbc013"/>
          <rect id="Rectángulo_4260" data-name="Rectángulo 4260" width="10" height="5.042" transform="translate(423.981 414.56)" fill="#fbc013" style="mix-blend-mode: hard-light;isolation: isolate"/>
        </g>
        <g id="Grupo_27228" data-name="Grupo 27228">
          <rect id="Rectángulo_4261" data-name="Rectángulo 4261" width="20" height="5.042" transform="translate(438.148 392.761)" fill="#fbc013"/>
          <rect id="Rectángulo_4262" data-name="Rectángulo 4262" width="10" height="5.042" transform="translate(448.148 392.761)" fill="#fbc013" style="mix-blend-mode: hard-light;isolation: isolate"/>
        </g>
        <g id="Grupo_27229" data-name="Grupo 27229">
          <rect id="Rectángulo_4263" data-name="Rectángulo 4263" width="20" height="5.042" transform="translate(438.148 399.915)" fill="#fbc013"/>
          <rect id="Rectángulo_4264" data-name="Rectángulo 4264" width="10" height="5.042" transform="translate(448.148 399.915)" fill="#fbc013" style="mix-blend-mode: hard-light;isolation: isolate"/>
        </g>
        <g id="Grupo_27230" data-name="Grupo 27230">
          <rect id="Rectángulo_4265" data-name="Rectángulo 4265" width="20" height="5.042" transform="translate(438.148 407.069)" fill="#fbc013"/>
          <rect id="Rectángulo_4266" data-name="Rectángulo 4266" width="10" height="5.042" transform="translate(448.148 407.069)" fill="#fbc013" style="mix-blend-mode: hard-light;isolation: isolate"/>
        </g>
        <g id="Grupo_27231" data-name="Grupo 27231">
          <rect id="Rectángulo_4267" data-name="Rectángulo 4267" width="20" height="5.042" transform="translate(438.148 414.223)" fill="#fbc013"/>
          <rect id="Rectángulo_4268" data-name="Rectángulo 4268" width="10" height="5.042" transform="translate(448.148 414.223)" fill="#fbc013" style="mix-blend-mode: hard-light;isolation: isolate"/>
        </g>
        <g id="Grupo_27232" data-name="Grupo 27232">
          <rect id="Rectángulo_4269" data-name="Rectángulo 4269" width="20" height="5.042" transform="translate(462.314 385.27)" fill="#fbc013"/>
          <rect id="Rectángulo_4270" data-name="Rectángulo 4270" width="10" height="5.042" transform="translate(472.314 385.27)" fill="#fbc013" style="mix-blend-mode: hard-light;isolation: isolate"/>
        </g>
        <g id="Grupo_27233" data-name="Grupo 27233">
          <rect id="Rectángulo_4271" data-name="Rectángulo 4271" width="20" height="5.042" transform="translate(462.314 392.424)" fill="#fbc013"/>
          <rect id="Rectángulo_4272" data-name="Rectángulo 4272" width="10" height="5.042" transform="translate(472.314 392.424)" fill="#fbc013" style="mix-blend-mode: hard-light;isolation: isolate"/>
        </g>
        <g id="Grupo_27234" data-name="Grupo 27234">
          <rect id="Rectángulo_4273" data-name="Rectángulo 4273" width="20" height="5.042" transform="translate(462.314 399.578)" fill="#fbc013"/>
          <rect id="Rectángulo_4274" data-name="Rectángulo 4274" width="10" height="5.042" transform="translate(472.314 399.578)" fill="#fbc013" style="mix-blend-mode: hard-light;isolation: isolate"/>
        </g>
        <g id="Grupo_27235" data-name="Grupo 27235">
          <rect id="Rectángulo_4275" data-name="Rectángulo 4275" width="20" height="5.042" transform="translate(462.314 406.732)" fill="#fbc013"/>
          <rect id="Rectángulo_4276" data-name="Rectángulo 4276" width="10" height="5.042" transform="translate(472.314 406.732)" fill="#fbc013" style="mix-blend-mode: hard-light;isolation: isolate"/>
        </g>
        <g id="Grupo_27236" data-name="Grupo 27236">
          <rect id="Rectángulo_4277" data-name="Rectángulo 4277" width="20" height="5.042" transform="translate(462.314 413.887)" fill="#fbc013"/>
          <rect id="Rectángulo_4278" data-name="Rectángulo 4278" width="10" height="5.042" transform="translate(472.314 413.887)" fill="#fbc013" style="mix-blend-mode: hard-light;isolation: isolate"/>
        </g>
      </g>
    </g>
    <path id="Trazado_21381" data-name="Trazado 21381" d="M-17.689,0-18.4-1.975h-3.732L-22.834,0h-1.1l3.041-8.25h1.254L-16.594,0ZM-21.8-2.9h3.07L-20.262-7.2ZM-13.371,0A1.514,1.514,0,0,1-14.5-.413a1.563,1.563,0,0,1-.41-1.151V-4.951h-1.178V-5.76h.434a.832.832,0,0,0,.636-.2,1,1,0,0,0,.185-.677V-7.682h.943V-5.76h1.324v.809h-1.324V-1.67a.873.873,0,0,0,.22.636.769.769,0,0,0,.577.226h.527V0Zm7.242-2.994-.012.275h-4.5a2.035,2.035,0,0,0,.551,1.474,1.808,1.808,0,0,0,1.313.513,1.727,1.727,0,0,0,.955-.275,1.787,1.787,0,0,0,.656-.762l.914.193A2.6,2.6,0,0,1-7.236-.34,2.686,2.686,0,0,1-8.766.111a2.783,2.783,0,0,1-2.074-.8,2.986,2.986,0,0,1-.791-2.191,2.972,2.972,0,0,1,.794-2.186,2.748,2.748,0,0,1,2.042-.8,2.6,2.6,0,0,1,1.937.738A2.917,2.917,0,0,1-6.129-2.994Zm-2.666-2.1a1.8,1.8,0,0,0-1.2.407A1.866,1.866,0,0,0-10.6-3.5h3.451a1.711,1.711,0,0,0-.5-1.187A1.627,1.627,0,0,0-8.795-5.092Zm6.973-.779a2,2,0,0,1,1.45.521A1.945,1.945,0,0,1,.17-3.879V0H-.844V-3.65A1.362,1.362,0,0,0-1.2-4.682a1.257,1.257,0,0,0-.9-.334,1.393,1.393,0,0,0-1.025.4,1.6,1.6,0,0,0-.4,1.175V0H-4.541V-5.76h1.014v.738A1.923,1.923,0,0,1-1.822-5.871ZM4.518.105A2.774,2.774,0,0,1,2.455-.721a2.947,2.947,0,0,1-.814-2.162,2.953,2.953,0,0,1,.812-2.162,2.772,2.772,0,0,1,2.065-.826,2.794,2.794,0,0,1,1.667.5,2.543,2.543,0,0,1,.97,1.4l-.949.152a1.753,1.753,0,0,0-.65-.9,1.771,1.771,0,0,0-1.043-.316,1.7,1.7,0,0,0-1.333.592,2.254,2.254,0,0,0-.524,1.553,2.243,2.243,0,0,0,.524,1.55,1.706,1.706,0,0,0,1.333.589,1.771,1.771,0,0,0,1.043-.316,1.753,1.753,0,0,0,.65-.9l.949.158A2.546,2.546,0,0,1,6.179-.4,2.79,2.79,0,0,1,4.518.105ZM9.164-7.113a.66.66,0,0,1-.483-.2.66.66,0,0,1-.2-.483.65.65,0,0,1,.2-.48.664.664,0,0,1,.483-.2.658.658,0,0,1,.478.2.65.65,0,0,1,.2.48.66.66,0,0,1-.2.483A.653.653,0,0,1,9.164-7.113ZM8.648,0V-5.76h1.02V0ZM13.77-6.75,15.24-8.66l.539.393L14.467-6.75ZM14.156.111A3.036,3.036,0,0,1,12.68-.246a2.6,2.6,0,0,1-1.04-1.046,3.213,3.213,0,0,1-.384-1.591,2.934,2.934,0,0,1,.817-2.171,2.821,2.821,0,0,1,2.083-.817,2.819,2.819,0,0,1,2.086.817,2.94,2.94,0,0,1,.814,2.171,2.942,2.942,0,0,1-.817,2.177A2.821,2.821,0,0,1,14.156.111ZM14.15-.732a1.769,1.769,0,0,0,1.362-.592,2.217,2.217,0,0,0,.542-1.559,2.209,2.209,0,0,0-.542-1.553,1.769,1.769,0,0,0-1.362-.592,1.745,1.745,0,0,0-1.351.592,2.224,2.224,0,0,0-.536,1.553A2.232,2.232,0,0,0,12.8-1.324,1.745,1.745,0,0,0,14.15-.732Zm7.213-5.139a2,2,0,0,1,1.45.521,1.945,1.945,0,0,1,.542,1.471V0H22.342V-3.65a1.362,1.362,0,0,0-.352-1.031,1.257,1.257,0,0,0-.9-.334,1.393,1.393,0,0,0-1.025.4,1.6,1.6,0,0,0-.4,1.175V0H18.645V-5.76h1.014v.738A1.923,1.923,0,0,1,21.363-5.871Z" transform="translate(592 9015)" fill="#fff"/>
    <path id="Trazado_21382" data-name="Trazado 21382" d="M-17.241,0V-8.25h1.049V0Zm6.094-5.871A2,2,0,0,1-9.7-5.35a1.945,1.945,0,0,1,.542,1.471V0h-1.014V-3.65a1.362,1.362,0,0,0-.352-1.031,1.257,1.257,0,0,0-.9-.334,1.393,1.393,0,0,0-1.025.4,1.6,1.6,0,0,0-.4,1.175V0h-1.014V-5.76h1.014v.738A1.923,1.923,0,0,1-11.147-5.871ZM-5.358,0A1.514,1.514,0,0,1-6.483-.413a1.563,1.563,0,0,1-.41-1.151V-4.951H-8.071V-5.76h.434A.832.832,0,0,0-7-5.962a1,1,0,0,0,.185-.677V-7.682h.943V-5.76H-4.55v.809H-5.874V-1.67a.873.873,0,0,0,.22.636.769.769,0,0,0,.577.226h.527V0ZM1.884-2.994l-.012.275h-4.5a2.035,2.035,0,0,0,.551,1.474A1.808,1.808,0,0,0-.765-.732,1.727,1.727,0,0,0,.19-1.008,1.787,1.787,0,0,0,.847-1.77l.914.193A2.6,2.6,0,0,1,.776-.34,2.686,2.686,0,0,1-.753.111a2.783,2.783,0,0,1-2.074-.8,2.986,2.986,0,0,1-.791-2.191,2.972,2.972,0,0,1,.794-2.186,2.748,2.748,0,0,1,2.042-.8,2.6,2.6,0,0,1,1.937.738A2.917,2.917,0,0,1,1.884-2.994Zm-2.666-2.1a1.8,1.8,0,0,0-1.2.407A1.866,1.866,0,0,0-2.587-3.5H.864a1.711,1.711,0,0,0-.5-1.187A1.627,1.627,0,0,0-.782-5.092Zm5.244.346a1.741,1.741,0,0,1,.715-.773,2.153,2.153,0,0,1,1.107-.3v.955a1.9,1.9,0,0,0-1.339.428,1.787,1.787,0,0,0-.46,1.365V0H3.472V-5.76h.99Zm6.973-3.545L10.122-6.773h-.7L10.9-8.684Zm1.008,5.3-.012.275h-4.5a2.035,2.035,0,0,0,.551,1.474,1.808,1.808,0,0,0,1.313.513,1.727,1.727,0,0,0,.955-.275,1.787,1.787,0,0,0,.656-.762l.914.193A2.6,2.6,0,0,1,11.335-.34,2.686,2.686,0,0,1,9.806.111a2.783,2.783,0,0,1-2.074-.8A2.986,2.986,0,0,1,6.94-2.883a2.972,2.972,0,0,1,.794-2.186,2.748,2.748,0,0,1,2.042-.8,2.6,2.6,0,0,1,1.937.738A2.917,2.917,0,0,1,12.442-2.994Zm-2.666-2.1a1.8,1.8,0,0,0-1.2.407A1.866,1.866,0,0,0,7.972-3.5h3.451a1.711,1.711,0,0,0-.5-1.187A1.627,1.627,0,0,0,9.776-5.092Zm6.076,5.2A2.73,2.73,0,0,1,14.3-.3a1.721,1.721,0,0,1-.756-1.184l.885-.252a1.234,1.234,0,0,0,.472.8,1.53,1.53,0,0,0,.946.284A1.888,1.888,0,0,0,16.4-.732a.888.888,0,0,0,.425-.284A.761.761,0,0,0,17-1.541a.765.765,0,0,0-.047-.237,1.017,1.017,0,0,0-.094-.19.58.58,0,0,0-.164-.158,2.163,2.163,0,0,0-.2-.123,2.045,2.045,0,0,0-.261-.108q-.173-.062-.278-.094t-.322-.094l-.334-.1a6.248,6.248,0,0,1-.6-.211,2.621,2.621,0,0,1-.486-.278,1.12,1.12,0,0,1-.378-.454,1.536,1.536,0,0,1-.126-.645,1.489,1.489,0,0,1,.281-.92,1.582,1.582,0,0,1,.729-.542,2.916,2.916,0,0,1,1.022-.167,2.5,2.5,0,0,1,1.4.375,1.6,1.6,0,0,1,.7,1.125l-.832.211a1.1,1.1,0,0,0-.439-.729,1.4,1.4,0,0,0-.826-.243,1.426,1.426,0,0,0-.773.2.679.679,0,0,0-.322.618.615.615,0,0,0,.085.319,1.014,1.014,0,0,0,.173.226,1.062,1.062,0,0,0,.316.173q.229.091.34.123t.422.108q.059.018.088.023.34.088.554.155a3.4,3.4,0,0,1,.5.211,1.656,1.656,0,0,1,.448.313,1.452,1.452,0,0,1,.281.445,1.572,1.572,0,0,1,.117.621,1.677,1.677,0,0,1-.173.776,1.352,1.352,0,0,1-.472.53,2.281,2.281,0,0,1-.671.29A3.2,3.2,0,0,1,15.853.111Z" transform="translate(592 9041)" fill="#fff"/>
    <path id="Trazado_21383" data-name="Trazado 21383" d="M-15.812,0V-8.25h2.66a3.945,3.945,0,0,1,2.1.533,3.253,3.253,0,0,1,1.289,1.45,5.094,5.094,0,0,1,.419,2.136,5.4,5.4,0,0,1-.243,1.667,3.776,3.776,0,0,1-.712,1.3A3.123,3.123,0,0,1-11.5-.3a4.261,4.261,0,0,1-1.655.3Zm1.049-.955h1.576a2.512,2.512,0,0,0,2.06-.844,3.567,3.567,0,0,0,.694-2.332,3.537,3.537,0,0,0-.7-2.32,2.514,2.514,0,0,0-2.057-.844h-1.576ZM-2.528-2.994l-.012.275h-4.5a2.035,2.035,0,0,0,.551,1.474,1.808,1.808,0,0,0,1.313.513,1.727,1.727,0,0,0,.955-.275,1.787,1.787,0,0,0,.656-.762l.914.193A2.6,2.6,0,0,1-3.636-.34,2.686,2.686,0,0,1-5.165.111a2.783,2.783,0,0,1-2.074-.8A2.986,2.986,0,0,1-8.03-2.883a2.972,2.972,0,0,1,.794-2.186,2.748,2.748,0,0,1,2.042-.8,2.6,2.6,0,0,1,1.937.738A2.917,2.917,0,0,1-2.528-2.994Zm-2.666-2.1a1.8,1.8,0,0,0-1.2.407A1.866,1.866,0,0,0-7-3.5h3.451a1.711,1.711,0,0,0-.5-1.187A1.627,1.627,0,0,0-5.194-5.092ZM.882.111A2.73,2.73,0,0,1-.671-.3a1.721,1.721,0,0,1-.756-1.184l.885-.252a1.234,1.234,0,0,0,.472.8,1.53,1.53,0,0,0,.946.284A1.888,1.888,0,0,0,1.43-.732a.888.888,0,0,0,.425-.284.761.761,0,0,0,.17-.524.765.765,0,0,0-.047-.237,1.017,1.017,0,0,0-.094-.19.58.58,0,0,0-.164-.158,2.163,2.163,0,0,0-.2-.123,2.045,2.045,0,0,0-.261-.108Q1.087-2.42.981-2.452T.659-2.546l-.334-.1a6.248,6.248,0,0,1-.6-.211,2.621,2.621,0,0,1-.486-.278,1.12,1.12,0,0,1-.378-.454,1.536,1.536,0,0,1-.126-.645,1.489,1.489,0,0,1,.281-.92,1.582,1.582,0,0,1,.729-.542A2.916,2.916,0,0,1,.771-5.859a2.5,2.5,0,0,1,1.4.375,1.6,1.6,0,0,1,.7,1.125l-.832.211A1.1,1.1,0,0,0,1.6-4.878a1.4,1.4,0,0,0-.826-.243,1.426,1.426,0,0,0-.773.2A.679.679,0,0,0-.319-4.3a.615.615,0,0,0,.085.319,1.014,1.014,0,0,0,.173.226,1.062,1.062,0,0,0,.316.173q.229.091.34.123t.422.108q.059.018.088.023.34.088.554.155a3.4,3.4,0,0,1,.5.211,1.656,1.656,0,0,1,.448.313,1.452,1.452,0,0,1,.281.445A1.572,1.572,0,0,1,3-1.582a1.677,1.677,0,0,1-.173.776,1.352,1.352,0,0,1-.472.53,2.281,2.281,0,0,1-.671.29A3.2,3.2,0,0,1,.882.111ZM9.636-2.994l-.012.275h-4.5a2.035,2.035,0,0,0,.551,1.474,1.808,1.808,0,0,0,1.313.513,1.727,1.727,0,0,0,.955-.275A1.787,1.787,0,0,0,8.6-1.77l.914.193A2.6,2.6,0,0,1,8.528-.34,2.686,2.686,0,0,1,7,.111a2.783,2.783,0,0,1-2.074-.8,2.986,2.986,0,0,1-.791-2.191,2.972,2.972,0,0,1,.794-2.186,2.748,2.748,0,0,1,2.042-.8,2.6,2.6,0,0,1,1.937.738A2.917,2.917,0,0,1,9.636-2.994ZM6.97-5.092a1.8,1.8,0,0,0-1.2.407A1.866,1.866,0,0,0,5.165-3.5H8.616a1.711,1.711,0,0,0-.5-1.187A1.627,1.627,0,0,0,6.97-5.092Zm6.68,5.2a3.036,3.036,0,0,1-1.477-.357,2.6,2.6,0,0,1-1.04-1.046,3.213,3.213,0,0,1-.384-1.591,2.934,2.934,0,0,1,.817-2.171,2.821,2.821,0,0,1,2.083-.817,2.819,2.819,0,0,1,2.086.817,2.94,2.94,0,0,1,.814,2.171,2.942,2.942,0,0,1-.817,2.177A2.821,2.821,0,0,1,13.649.111Zm-.006-.844a1.769,1.769,0,0,0,1.362-.592,2.217,2.217,0,0,0,.542-1.559,2.209,2.209,0,0,0-.542-1.553,1.769,1.769,0,0,0-1.362-.592,1.745,1.745,0,0,0-1.351.592,2.224,2.224,0,0,0-.536,1.553,2.232,2.232,0,0,0,.536,1.559A1.745,1.745,0,0,0,13.644-.732Z" transform="translate(592 9067)" fill="#fff"/>
    <path id="Trazado_21384" data-name="Trazado 21384" d="M-12.24,0l-.709-1.975h-3.732L-17.385,0h-1.1l3.041-8.25h1.254L-11.145,0Zm-4.107-2.9h3.07L-14.812-7.2ZM-7.453.105A2.774,2.774,0,0,1-9.516-.721a2.947,2.947,0,0,1-.814-2.162,2.953,2.953,0,0,1,.812-2.162,2.772,2.772,0,0,1,2.065-.826,2.794,2.794,0,0,1,1.667.5,2.543,2.543,0,0,1,.97,1.4l-.949.152a1.753,1.753,0,0,0-.65-.9,1.771,1.771,0,0,0-1.043-.316,1.7,1.7,0,0,0-1.333.592,2.254,2.254,0,0,0-.524,1.553,2.243,2.243,0,0,0,.524,1.55,1.706,1.706,0,0,0,1.333.589,1.771,1.771,0,0,0,1.043-.316,1.753,1.753,0,0,0,.65-.9l.949.158A2.546,2.546,0,0,1-5.792-.4,2.79,2.79,0,0,1-7.453.105Zm6.521,0A2.774,2.774,0,0,1-2.994-.721a2.947,2.947,0,0,1-.814-2.162A2.953,2.953,0,0,1-3-5.045,2.772,2.772,0,0,1-.932-5.871a2.794,2.794,0,0,1,1.667.5,2.543,2.543,0,0,1,.97,1.4l-.949.152a1.753,1.753,0,0,0-.65-.9A1.771,1.771,0,0,0-.937-5.027a1.7,1.7,0,0,0-1.333.592,2.254,2.254,0,0,0-.524,1.553,2.243,2.243,0,0,0,.524,1.55A1.706,1.706,0,0,0-.937-.744,1.771,1.771,0,0,0,.105-1.061a1.753,1.753,0,0,0,.65-.9l.949.158A2.546,2.546,0,0,1,.729-.4,2.79,2.79,0,0,1-.932.105ZM3.715-7.113a.66.66,0,0,1-.483-.2.66.66,0,0,1-.2-.483.65.65,0,0,1,.2-.48.664.664,0,0,1,.483-.2.658.658,0,0,1,.478.2.65.65,0,0,1,.2.48.66.66,0,0,1-.2.483A.653.653,0,0,1,3.715-7.113ZM3.2,0V-5.76h1.02V0ZM8.32-6.75,9.791-8.66l.539.393L9.018-6.75ZM8.707.111A3.036,3.036,0,0,1,7.23-.246,2.6,2.6,0,0,1,6.19-1.292a3.213,3.213,0,0,1-.384-1.591,2.934,2.934,0,0,1,.817-2.171,2.821,2.821,0,0,1,2.083-.817,2.819,2.819,0,0,1,2.086.817,2.94,2.94,0,0,1,.814,2.171A2.942,2.942,0,0,1,10.79-.706,2.821,2.821,0,0,1,8.707.111ZM8.7-.732a1.769,1.769,0,0,0,1.362-.592,2.217,2.217,0,0,0,.542-1.559,2.209,2.209,0,0,0-.542-1.553A1.769,1.769,0,0,0,8.7-5.027a1.745,1.745,0,0,0-1.351.592,2.224,2.224,0,0,0-.536,1.553,2.232,2.232,0,0,0,.536,1.559A1.745,1.745,0,0,0,8.7-.732Zm7.213-5.139a2,2,0,0,1,1.45.521,1.945,1.945,0,0,1,.542,1.471V0H16.893V-3.65a1.362,1.362,0,0,0-.352-1.031,1.257,1.257,0,0,0-.9-.334,1.393,1.393,0,0,0-1.025.4,1.6,1.6,0,0,0-.4,1.175V0H13.2V-5.76h1.014v.738A1.923,1.923,0,0,1,15.914-5.871Z" transform="translate(592 9095)" fill="#fff"/>
  </g>
</svg>
