<svg xmlns="http://www.w3.org/2000/svg" width="293.556" height="310.498" viewBox="0 0 293.556 310.498">
  <g id="Grupo_26891" data-name="Grupo 26891" transform="translate(512.603 -52.11)">
    <g id="Grupo_26852" data-name="Grupo 26852">
      <g id="Grupo_26850" data-name="Grupo 26850">
        <circle id="Elipse_941" data-name="Elipse 941" cx="109.863" cy="109.863" r="109.863" transform="translate(-466.817 114.981)" fill="#e3ecf4"/>
        <path id="Trazado_21103" data-name="Trazado 21103" d="M-356.954,114.981A109.863,109.863,0,0,0-466.817,224.844,109.863,109.863,0,0,0-356.954,334.708,109.863,109.863,0,0,0-247.091,224.844,109.863,109.863,0,0,0-356.954,114.981Zm0,185.823a75.959,75.959,0,0,1-75.96-75.96,75.96,75.96,0,0,1,75.96-75.96,75.961,75.961,0,0,1,75.96,75.96A75.96,75.96,0,0,1-356.954,300.8Z" fill="#044e7a"/>
        <path id="Trazado_21104" data-name="Trazado 21104" d="M-356.954,174.665a50.179,50.179,0,0,0-50.179,50.179,50.178,50.178,0,0,0,50.179,50.179,50.178,50.178,0,0,0,50.179-50.179A50.179,50.179,0,0,0-356.954,174.665Zm0,76.924A26.745,26.745,0,0,1-383.7,224.844,26.744,26.744,0,0,1-356.954,198.1a26.744,26.744,0,0,1,26.744,26.744A26.744,26.744,0,0,1-356.954,251.589Z" fill="#044e7a"/>
        <path id="Trazado_21105" data-name="Trazado 21105" d="M-247.091,224.844A109.863,109.863,0,0,0-356.954,114.981V334.708A109.863,109.863,0,0,0-247.091,224.844Z" fill="#bcd8ec" style="mix-blend-mode: multiply;isolation: isolate"/>
      </g>
      <g id="Grupo_26851" data-name="Grupo 26851">
        <path id="Trazado_21106" data-name="Trazado 21106" d="M-335.44,226.344h-21.514a1.5,1.5,0,0,1-1.5-1.5,1.5,1.5,0,0,1,1.5-1.5h21.514a1.5,1.5,0,0,1,1.5,1.5A1.5,1.5,0,0,1-335.44,226.344Z" fill="#ff5b34"/>
        <path id="Trazado_21107" data-name="Trazado 21107" d="M-273.811,164.715h-21.513a1.5,1.5,0,0,1-1.5-1.5,1.5,1.5,0,0,1,1.5-1.5h21.513a1.5,1.5,0,0,1,1.5,1.5A1.5,1.5,0,0,1-273.811,164.715Z" fill="#ff5b34"/>
        <path id="Trazado_21108" data-name="Trazado 21108" d="M-265.722,156.626h-21.514a1.5,1.5,0,0,1-1.5-1.5,1.5,1.5,0,0,1,1.5-1.5h21.514a1.5,1.5,0,0,1,1.5,1.5A1.5,1.5,0,0,1-265.722,156.626Z" fill="#ff5b34"/>
        <path id="Trazado_21109" data-name="Trazado 21109" d="M-257.633,148.538h-21.514a1.5,1.5,0,0,1-1.5-1.5,1.5,1.5,0,0,1,1.5-1.5h21.514a1.5,1.5,0,0,1,1.5,1.5A1.5,1.5,0,0,1-257.633,148.538Z" fill="#ff5b34"/>
        <path id="Trazado_21110" data-name="Trazado 21110" d="M-249.544,140.449h-21.515a1.5,1.5,0,0,1-1.5-1.5,1.5,1.5,0,0,1,1.5-1.5h21.515a1.5,1.5,0,0,1,1.5,1.5A1.5,1.5,0,0,1-249.544,140.449Z" fill="#ff5b34"/>
        <path id="Trazado_21111" data-name="Trazado 21111" d="M-356.954,226.344a1.5,1.5,0,0,1-1.061-.439,1.5,1.5,0,0,1,0-2.121l87.07-87.07a1.5,1.5,0,0,1,2.121,0,1.5,1.5,0,0,1,0,2.121l-87.07,87.07A1.493,1.493,0,0,1-356.954,226.344Z" fill="#f18703"/>
        <path id="Trazado_21112" data-name="Trazado 21112" d="M-356.954,226.344a1.5,1.5,0,0,1-1.5-1.5v-21.35a1.5,1.5,0,0,1,1.5-1.5,1.5,1.5,0,0,1,1.5,1.5v21.35A1.5,1.5,0,0,1-356.954,226.344Z" fill="#f18703"/>
        <path id="Trazado_21113" data-name="Trazado 21113" d="M-295.324,164.715a1.5,1.5,0,0,1-1.5-1.5V141.864a1.5,1.5,0,0,1,1.5-1.5,1.5,1.5,0,0,1,1.5,1.5v21.351A1.5,1.5,0,0,1-295.324,164.715Z" fill="#f18703"/>
        <path id="Trazado_21114" data-name="Trazado 21114" d="M-287.236,156.626a1.5,1.5,0,0,1-1.5-1.5V133.775a1.5,1.5,0,0,1,1.5-1.5,1.5,1.5,0,0,1,1.5,1.5v21.351A1.5,1.5,0,0,1-287.236,156.626Z" fill="#f18703"/>
        <path id="Trazado_21115" data-name="Trazado 21115" d="M-279.147,148.538a1.5,1.5,0,0,1-1.5-1.5V125.687a1.5,1.5,0,0,1,1.5-1.5,1.5,1.5,0,0,1,1.5,1.5v21.351A1.5,1.5,0,0,1-279.147,148.538Z" fill="#f18703"/>
        <path id="Trazado_21116" data-name="Trazado 21116" d="M-271.059,140.449a1.5,1.5,0,0,1-1.5-1.5V117.6a1.5,1.5,0,0,1,1.5-1.5,1.5,1.5,0,0,1,1.5,1.5v21.351A1.5,1.5,0,0,1-271.059,140.449Z" fill="#f18703"/>
      </g>
    </g>
    <g id="Grupo_26853" data-name="Grupo 26853">
      <rect id="Rectángulo_4057" data-name="Rectángulo 4057" width="77.527" height="98.457" rx="5" transform="translate(-296.574 193.072)" fill="#043573"/>
      <rect id="Rectángulo_4058" data-name="Rectángulo 4058" width="66.674" height="83.871" rx="3" transform="translate(-291.148 202.532)" fill="#65c8d0"/>
      <rect id="Rectángulo_4059" data-name="Rectángulo 4059" width="66.674" height="83.871" rx="3" transform="translate(-291.148 199.281)" fill="#fff"/>
      <path id="Trazado_21117" data-name="Trazado 21117" d="M-236.852,203.476l-1.393-5.561a3.649,3.649,0,0,0-3.356-2.623H-247a3.649,3.649,0,0,1-3.356-2.622l-1.393-5.561a3.648,3.648,0,0,0-3.356-2.623h-5.4a3.65,3.65,0,0,0-3.356,2.623l-1.393,5.561a3.648,3.648,0,0,1-3.356,2.622h-5.4a3.651,3.651,0,0,0-3.356,2.623l-1.393,5.561a2.016,2.016,0,0,0,2.047,2.623H-238.9A2.016,2.016,0,0,0-236.852,203.476Zm-20.958-11.86a2.391,2.391,0,0,1-2.391-2.391,2.39,2.39,0,0,1,2.391-2.391,2.391,2.391,0,0,1,2.391,2.391A2.392,2.392,0,0,1-257.81,191.616Z" fill="#fbb03b"/>
      <path id="Trazado_21118" data-name="Trazado 21118" d="M-236.774,223.627H-266.99a1.5,1.5,0,0,1-1.5-1.5,1.5,1.5,0,0,1,1.5-1.5h30.216a1.5,1.5,0,0,1,1.5,1.5A1.5,1.5,0,0,1-236.774,223.627Z" fill="#04b1d9"/>
      <path id="Trazado_21119" data-name="Trazado 21119" d="M-236.774,233.864H-266.99a1.5,1.5,0,0,1-1.5-1.5,1.5,1.5,0,0,1,1.5-1.5h30.216a1.5,1.5,0,0,1,1.5,1.5A1.5,1.5,0,0,1-236.774,233.864Z" fill="#04b1d9"/>
      <path id="Trazado_21120" data-name="Trazado 21120" d="M-236.774,245.186H-266.99a1.5,1.5,0,0,1-1.5-1.5,1.5,1.5,0,0,1,1.5-1.5h30.216a1.5,1.5,0,0,1,1.5,1.5A1.5,1.5,0,0,1-236.774,245.186Z" fill="#04b1d9"/>
      <path id="Trazado_21121" data-name="Trazado 21121" d="M-236.774,255.674H-266.99a1.5,1.5,0,0,1-1.5-1.5,1.5,1.5,0,0,1,1.5-1.5h30.216a1.5,1.5,0,0,1,1.5,1.5A1.5,1.5,0,0,1-236.774,255.674Z" fill="#04b1d9"/>
      <path id="Trazado_21122" data-name="Trazado 21122" d="M-257.811,270.164h-11.374a1.5,1.5,0,0,1-1.5-1.5,1.5,1.5,0,0,1,1.5-1.5h11.374a1.5,1.5,0,0,1,1.5,1.5A1.5,1.5,0,0,1-257.811,270.164Z" fill="#04b1d9"/>
      <path id="Trazado_21123" data-name="Trazado 21123" d="M-279.3,225.218h0a1.5,1.5,0,0,1-1.06-.439l-2.925-2.925a1.5,1.5,0,0,1,0-2.121,1.5,1.5,0,0,1,2.121,0l1.864,1.864,5.044-5.043a1.5,1.5,0,0,1,2.121,0,1.5,1.5,0,0,1,0,2.121l-6.1,6.1A1.5,1.5,0,0,1-279.3,225.218Z" fill="#f7931e"/>
      <path id="Trazado_21124" data-name="Trazado 21124" d="M-279.3,236.058h0a1.5,1.5,0,0,1-1.06-.44l-2.925-2.925a1.5,1.5,0,0,1,0-2.121,1.5,1.5,0,0,1,2.121,0l1.864,1.865,5.044-5.044a1.5,1.5,0,0,1,2.121,0,1.5,1.5,0,0,1,0,2.121l-6.1,6.1A1.5,1.5,0,0,1-279.3,236.058Z" fill="#f7931e"/>
      <path id="Trazado_21125" data-name="Trazado 21125" d="M-279.3,246.9h0a1.5,1.5,0,0,1-1.06-.439l-2.925-2.925a1.5,1.5,0,0,1,0-2.121,1.5,1.5,0,0,1,2.121,0l1.864,1.864,5.044-5.044a1.5,1.5,0,0,1,2.121,0,1.5,1.5,0,0,1,0,2.122l-6.1,6.1A1.5,1.5,0,0,1-279.3,246.9Z" fill="#f7931e"/>
      <path id="Trazado_21126" data-name="Trazado 21126" d="M-279.3,257.735h0a1.5,1.5,0,0,1-1.06-.439l-2.925-2.925a1.5,1.5,0,0,1,0-2.121,1.5,1.5,0,0,1,2.121,0l1.864,1.864,5.044-5.044a1.5,1.5,0,0,1,2.121,0,1.5,1.5,0,0,1,0,2.121l-6.1,6.1A1.5,1.5,0,0,1-279.3,257.735Z" fill="#f7931e"/>
      <path id="Trazado_21127" data-name="Trazado 21127" d="M-278.769,203.476a2.016,2.016,0,0,0,2.047,2.623H-238.9a2.016,2.016,0,0,0,2.047-2.623l-.236-.944h-41.445Z" fill="#f7931e"/>
    </g>
    <g id="Grupo_26857" data-name="Grupo 26857">
      <g id="Grupo_26855" data-name="Grupo 26855">
        <rect id="Rectángulo_4060" data-name="Rectángulo 4060" width="129.906" height="92.48" rx="8.118" transform="translate(-497.665 266.901)" fill="#043573"/>
        <rect id="Rectángulo_4061" data-name="Rectángulo 4061" width="113.823" height="72.118" transform="translate(-489.624 275.201)" fill="#f1f0f4"/>
        <path id="Trazado_21128" data-name="Trazado 21128" d="M-463.542,289.342h-16.969a4,4,0,0,1-4-4,4,4,0,0,1,4-4h16.969a4,4,0,0,1,4,4A4,4,0,0,1-463.542,289.342Z" fill="#ee4014"/>
        <path id="Trazado_21129" data-name="Trazado 21129" d="M-407.286,298.5h-73.225a2.5,2.5,0,0,1-2.5-2.5,2.5,2.5,0,0,1,2.5-2.5h73.225a2.5,2.5,0,0,1,2.5,2.5A2.5,2.5,0,0,1-407.286,298.5Z" fill="#026773"/>
        <path id="Trazado_21130" data-name="Trazado 21130" d="M-385.6,298.5h-12.429a2.5,2.5,0,0,1-2.5-2.5,2.5,2.5,0,0,1,2.5-2.5H-385.6a2.5,2.5,0,0,1,2.5,2.5A2.5,2.5,0,0,1-385.6,298.5Z" fill="#f25a58"/>
        <path id="Trazado_21131" data-name="Trazado 21131" d="M-407.358,307.906h-37.977a1.5,1.5,0,0,1-1.5-1.5,1.5,1.5,0,0,1,1.5-1.5h37.977a1.5,1.5,0,0,1,1.5,1.5A1.5,1.5,0,0,1-407.358,307.906Z" fill="#04b1d9"/>
        <path id="Trazado_21132" data-name="Trazado 21132" d="M-385.6,307.906h-12.429a1.5,1.5,0,0,1-1.5-1.5,1.5,1.5,0,0,1,1.5-1.5H-385.6a1.5,1.5,0,0,1,1.5,1.5A1.5,1.5,0,0,1-385.6,307.906Z" fill="#74baa4"/>
        <path id="Trazado_21133" data-name="Trazado 21133" d="M-385.6,335.818h-12.429a1.5,1.5,0,0,1-1.5-1.5,1.5,1.5,0,0,1,1.5-1.5H-385.6a1.5,1.5,0,0,1,1.5,1.5A1.5,1.5,0,0,1-385.6,335.818Z" fill="#4ba3cc"/>
        <path id="Trazado_21134" data-name="Trazado 21134" d="M-385.6,314.711h-12.429a1.5,1.5,0,0,1-1.5-1.5,1.5,1.5,0,0,1,1.5-1.5H-385.6a1.5,1.5,0,0,1,1.5,1.5A1.5,1.5,0,0,1-385.6,314.711Z" fill="#74baa4"/>
        <path id="Trazado_21135" data-name="Trazado 21135" d="M-385.6,286.842h-29.869a1.5,1.5,0,0,1-1.5-1.5,1.5,1.5,0,0,1,1.5-1.5H-385.6a1.5,1.5,0,0,1,1.5,1.5A1.5,1.5,0,0,1-385.6,286.842Z" fill="#04b1d9"/>
        <path id="Trazado_21136" data-name="Trazado 21136" d="M-407.358,314.711h-37.977a1.5,1.5,0,0,1-1.5-1.5,1.5,1.5,0,0,1,1.5-1.5h37.977a1.5,1.5,0,0,1,1.5,1.5A1.5,1.5,0,0,1-407.358,314.711Z" fill="#04b1d9"/>
        <path id="Trazado_21137" data-name="Trazado 21137" d="M-455.971,335.818h-24.54a1.5,1.5,0,0,1-1.5-1.5,1.5,1.5,0,0,1,1.5-1.5h24.54a1.5,1.5,0,0,1,1.5,1.5A1.5,1.5,0,0,1-455.971,335.818Z" fill="#04b1d9"/>
        <path id="Trazado_21138" data-name="Trazado 21138" d="M-407.358,342.995h-37.977a1.5,1.5,0,0,1-1.5-1.5,1.5,1.5,0,0,1,1.5-1.5h37.977a1.5,1.5,0,0,1,1.5,1.5A1.5,1.5,0,0,1-407.358,342.995Z" fill="#04b1d9"/>
        <g id="Grupo_26854" data-name="Grupo 26854">
          <rect id="Rectángulo_4062" data-name="Rectángulo 4062" width="24.54" height="19.795" transform="translate(-480.511 306.406)" fill="#04b1d9"/>
          <path id="Trazado_21139" data-name="Trazado 21139" d="M-455.971,328.7h-24.54a2.5,2.5,0,0,1-2.5-2.5V306.406a2.5,2.5,0,0,1,2.5-2.5h24.54a2.5,2.5,0,0,1,2.5,2.5V326.2A2.5,2.5,0,0,1-455.971,328.7Zm-22.04-5h19.54V308.906h-19.54Z" fill="#04b1d9"/>
        </g>
      </g>
      <g id="Grupo_26856" data-name="Grupo 26856">
        <path id="Trazado_21140" data-name="Trazado 21140" d="M-512.6,351.206v5.863a5.557,5.557,0,0,0,5.54,5.539h148.7a5.557,5.557,0,0,0,5.539-5.539v-5.863Z" fill="#7cb4da"/>
        <rect id="Rectángulo_4063" data-name="Rectángulo 4063" width="159.781" height="5.863" transform="translate(-512.603 351.206)" fill="#fff"/>
        <path id="Trazado_21141" data-name="Trazado 21141" d="M-449.09,351.206v.694a1.139,1.139,0,0,0,1.136,1.136h30.484a1.139,1.139,0,0,0,1.135-1.136v-.694Z" fill="#1fc3cc"/>
      </g>
    </g>
    <g id="Grupo_26868" data-name="Grupo 26868">
      <g id="Grupo_26859" data-name="Grupo 26859">
        <g id="Grupo_26858" data-name="Grupo 26858">
          <rect id="Rectángulo_4064" data-name="Rectángulo 4064" width="83.463" height="91.38" rx="2" transform="translate(-409.242 52.11)" fill="#4787ab"/>
          <path id="Trazado_21142" data-name="Trazado 21142" d="M-327.778,141.491h-79.464V54.111h79.464v87.38Z" fill="#fff"/>
        </g>
        <path id="Trazado_21143" data-name="Trazado 21143" d="M-327.778,54.111l-.046,22.585-22.585-22.585Z" fill="#b8ddf2"/>
      </g>
      <g id="Grupo_26860" data-name="Grupo 26860">
        <rect id="Rectángulo_4065" data-name="Rectángulo 4065" width="9.98" height="32.152" transform="translate(-348 97.233)" fill="#d98856"/>
        <rect id="Rectángulo_4066" data-name="Rectángulo 4066" width="9.98" height="27.148" transform="translate(-365 102.237)" fill="#59b198"/>
        <rect id="Rectángulo_4067" data-name="Rectángulo 4067" width="9.98" height="16.556" transform="translate(-382 112.828)" fill="#028787"/>
        <rect id="Rectángulo_4068" data-name="Rectángulo 4068" width="9.98" height="20.93" transform="translate(-399 108.454)" fill="#028787"/>
        <rect id="Rectángulo_4069" data-name="Rectángulo 4069" width="4.99" height="30.152" transform="translate(-348 97.233)" fill="#f89c62"/>
        <rect id="Rectángulo_4070" data-name="Rectángulo 4070" width="4.99" height="25.148" transform="translate(-365 102.237)" fill="#69d0b3"/>
        <rect id="Rectángulo_4071" data-name="Rectángulo 4071" width="4.99" height="14.556" transform="translate(-382 112.828)" fill="#03a6a6"/>
        <rect id="Rectángulo_4072" data-name="Rectángulo 4072" width="4.99" height="18.93" transform="translate(-399 108.454)" fill="#03a6a6"/>
      </g>
      <g id="Grupo_26867" data-name="Grupo 26867">
        <g id="Grupo_26862" data-name="Grupo 26862">
          <g id="Grupo_26861" data-name="Grupo 26861">
            <path id="Trazado_21144" data-name="Trazado 21144" d="M-394.009,100.472a.5.5,0,0,1-.451-.283.5.5,0,0,1,.233-.668l1.352-.649a.5.5,0,0,1,.667.233.5.5,0,0,1-.233.668l-1.352.65A.493.493,0,0,1-394.009,100.472Z" fill="#f89c62"/>
            <path id="Trazado_21145" data-name="Trazado 21145" d="M-389.921,98.507a.5.5,0,0,1-.451-.283.5.5,0,0,1,.234-.668l2.737-1.315a.5.5,0,0,1,.667.234.5.5,0,0,1-.234.667l-2.737,1.316A.5.5,0,0,1-389.921,98.507Zm5.474-2.631a.5.5,0,0,1-.451-.283.5.5,0,0,1,.233-.668l2.737-1.315a.5.5,0,0,1,.667.234.5.5,0,0,1-.234.667l-2.736,1.316A.507.507,0,0,1-384.447,95.876Zm5.473-2.631a.5.5,0,0,1-.451-.283.5.5,0,0,1,.234-.668l1.964-.944a.537.537,0,0,1,.123-.04l.84-.162a.5.5,0,0,1,.586.4.5.5,0,0,1-.4.585l-.778.15-1.906.917A.507.507,0,0,1-378.974,93.245Zm5.786-1.681a.5.5,0,0,1-.49-.405.5.5,0,0,1,.4-.586L-370.3,90a.5.5,0,0,1,.585.4.5.5,0,0,1-.4.585l-2.981.575A.528.528,0,0,1-373.188,91.564Zm5.963-1.15a.5.5,0,0,1-.49-.4.5.5,0,0,1,.4-.586l2.982-.574a.5.5,0,0,1,.585.4.5.5,0,0,1-.4.585l-2.981.575A.528.528,0,0,1-367.225,90.414Zm5.963-1.149a.5.5,0,0,1-.49-.406.5.5,0,0,1,.4-.585l1.1-.211,1.112-1.156a.5.5,0,0,1,.707-.013.5.5,0,0,1,.013.707l-1.221,1.269a.5.5,0,0,1-.266.144l-1.252.242A.509.509,0,0,1-361.262,89.265Zm4.579-3.7a.494.494,0,0,1-.346-.14.5.5,0,0,1-.014-.707l2.105-2.188a.5.5,0,0,1,.708-.014.5.5,0,0,1,.013.707l-2.1,2.189A.5.5,0,0,1-356.683,85.566Zm4.211-4.377a.5.5,0,0,1-.346-.139.5.5,0,0,1-.014-.707l2.105-2.188a.5.5,0,0,1,.707-.014.5.5,0,0,1,.014.707l-2.1,2.188A.5.5,0,0,1-352.472,81.189Zm4.211-4.376a.5.5,0,0,1-.347-.139.5.5,0,0,1-.014-.707l2.106-2.188a.5.5,0,0,1,.707-.014.5.5,0,0,1,.014.707L-347.9,76.66A.5.5,0,0,1-348.261,76.813Z" fill="#f89c62"/>
            <path id="Trazado_21146" data-name="Trazado 21146" d="M-344.05,72.438a.5.5,0,0,1-.347-.14.5.5,0,0,1-.014-.707l1.041-1.081a.5.5,0,0,1,.707-.013.5.5,0,0,1,.014.707l-1.041,1.081A.5.5,0,0,1-344.05,72.438Z" fill="#f89c62"/>
          </g>
        </g>
        <g id="Grupo_26863" data-name="Grupo 26863">
          <circle id="Elipse_942" data-name="Elipse 942" cx="3.044" cy="3.044" r="3.044" transform="translate(-346.054 67.813)" fill="#fff"/>
          <path id="Trazado_21147" data-name="Trazado 21147" d="M-343.01,74.4a3.548,3.548,0,0,1-3.544-3.544,3.548,3.548,0,0,1,3.544-3.544,3.548,3.548,0,0,1,3.544,3.544A3.548,3.548,0,0,1-343.01,74.4Zm0-6.088a2.547,2.547,0,0,0-2.544,2.544A2.547,2.547,0,0,0-343.01,73.4a2.547,2.547,0,0,0,2.544-2.544A2.547,2.547,0,0,0-343.01,68.313Z" fill="#f89c62"/>
        </g>
        <g id="Grupo_26864" data-name="Grupo 26864">
          <circle id="Elipse_943" data-name="Elipse 943" cx="3.044" cy="3.044" r="3.044" transform="translate(-363.054 85.479)" fill="#fff"/>
          <path id="Trazado_21148" data-name="Trazado 21148" d="M-360.01,92.067a3.548,3.548,0,0,1-3.544-3.544,3.548,3.548,0,0,1,3.544-3.544,3.548,3.548,0,0,1,3.544,3.544A3.548,3.548,0,0,1-360.01,92.067Zm0-6.088a2.547,2.547,0,0,0-2.544,2.544,2.547,2.547,0,0,0,2.544,2.544,2.547,2.547,0,0,0,2.544-2.544A2.547,2.547,0,0,0-360.01,85.979Z" fill="#f89c62"/>
        </g>
        <g id="Grupo_26865" data-name="Grupo 26865">
          <circle id="Elipse_944" data-name="Elipse 944" cx="3.044" cy="3.044" r="3.044" transform="translate(-380.054 88.757)" fill="#fff"/>
          <path id="Trazado_21149" data-name="Trazado 21149" d="M-377.01,95.345a3.548,3.548,0,0,1-3.544-3.544,3.548,3.548,0,0,1,3.544-3.544,3.548,3.548,0,0,1,3.544,3.544A3.548,3.548,0,0,1-377.01,95.345Zm0-6.088a2.547,2.547,0,0,0-2.544,2.544,2.547,2.547,0,0,0,2.544,2.544,2.547,2.547,0,0,0,2.544-2.544A2.547,2.547,0,0,0-377.01,89.257Z" fill="#f89c62"/>
        </g>
        <g id="Grupo_26866" data-name="Grupo 26866">
          <circle id="Elipse_945" data-name="Elipse 945" cx="3.044" cy="3.044" r="3.044" transform="translate(-397.054 96.928)" fill="#fff"/>
          <path id="Trazado_21150" data-name="Trazado 21150" d="M-394.01,103.517a3.548,3.548,0,0,1-3.544-3.545,3.548,3.548,0,0,1,3.544-3.544,3.548,3.548,0,0,1,3.544,3.544A3.548,3.548,0,0,1-394.01,103.517Zm0-6.089a2.547,2.547,0,0,0-2.544,2.544,2.547,2.547,0,0,0,2.544,2.545,2.547,2.547,0,0,0,2.544-2.545A2.547,2.547,0,0,0-394.01,97.428Z" fill="#f89c62"/>
        </g>
      </g>
      <path id="Trazado_21151" data-name="Trazado 21151" d="M-370.061,66.11h-27.878a1,1,0,0,1-1-1,1,1,0,0,1,1-1h27.878a1,1,0,0,1,1,1A1,1,0,0,1-370.061,66.11Z" fill="#04b1d9"/>
      <path id="Trazado_21152" data-name="Trazado 21152" d="M-370.061,71.888h-27.878a1,1,0,0,1-1-1,1,1,0,0,1,1-1h27.878a1,1,0,0,1,1,1A1,1,0,0,1-370.061,71.888Z" fill="#7ac7d9"/>
      <path id="Trazado_21153" data-name="Trazado 21153" d="M-370.061,77.888h-27.878a1,1,0,0,1-1-1,1,1,0,0,1,1-1h27.878a1,1,0,0,1,1,1A1,1,0,0,1-370.061,77.888Z" fill="#7ac7d9"/>
    </g>
    <path id="Trazado_21154" data-name="Trazado 21154" d="M-430.587,200.536" fill="#fff"/>
    <g id="Grupo_26872" data-name="Grupo 26872">
      <g id="Grupo_26870" data-name="Grupo 26870">
        <g id="Grupo_26869" data-name="Grupo 26869">
          <rect id="Rectángulo_4073" data-name="Rectángulo 4073" width="83.464" height="91.38" rx="2" transform="translate(-485.63 88.694)" fill="#4787ab"/>
          <path id="Trazado_21155" data-name="Trazado 21155" d="M-404.167,178.075H-483.63V90.695h79.464v87.38Z" fill="#fff"/>
        </g>
        <path id="Trazado_21156" data-name="Trazado 21156" d="M-404.167,90.695l-.046,22.585L-426.8,90.695Z" fill="#b8ddf2"/>
      </g>
      <path id="Trazado_21157" data-name="Trazado 21157" d="M-446.45,102.694h-27.878a1,1,0,0,1-1-1,1,1,0,0,1,1-1h27.878a1,1,0,0,1,1,1A1,1,0,0,1-446.45,102.694Z" fill="#04b1d9"/>
      <path id="Trazado_21158" data-name="Trazado 21158" d="M-446.45,108.472h-27.878a1,1,0,0,1-1-1,1,1,0,0,1,1-1h27.878a1,1,0,0,1,1,1A1,1,0,0,1-446.45,108.472Z" fill="#7ac7d9"/>
      <g id="Grupo_26871" data-name="Grupo 26871">
        <path id="Trazado_21159" data-name="Trazado 21159" d="M-424.087,124.393l-9.123,9.845c.145.17.281.345.415.521l11.729-6.573A26.4,26.4,0,0,0-424.087,124.393Z" fill="#8d607b"/>
        <path id="Trazado_21160" data-name="Trazado 21160" d="M-431.2,137.471a12.959,12.959,0,0,1-1.4,12.714l9.844,9.122a26.336,26.336,0,0,0,3.253-28.392Z" fill="#e18465"/>
        <path id="Trazado_21161" data-name="Trazado 21161" d="M-434.739,152.49a12.956,12.956,0,0,1-17.171-.385,12.959,12.959,0,0,1-2.162-16.395l-10.859-7.833A26.333,26.333,0,0,0-461,161.91a26.327,26.327,0,0,0,36.1-.3Z" fill="#f89c62"/>
        <path id="Trazado_21162" data-name="Trazado 21162" d="M-440.041,130.009a12.885,12.885,0,0,1,4.526,2.092l9.122-9.844a26.181,26.181,0,0,0-12.562-5.658Z" fill="#03a6a6"/>
        <path id="Trazado_21163" data-name="Trazado 21163" d="M-452.078,133.273a12.906,12.906,0,0,1,8.912-3.621l1.082-13.355a26.262,26.262,0,0,0-20.328,8.406c-.207.224-.4.454-.6.683Z" fill="#69d0b3"/>
      </g>
    </g>
    <g id="Grupo_26874" data-name="Grupo 26874">
      <path id="Trazado_21164" data-name="Trazado 21164" d="M-478.624,195.1h-18a.5.5,0,0,1-.5-.5.5.5,0,0,1,.5-.5h18a.5.5,0,0,1,.5.5A.5.5,0,0,1-478.624,195.1Z" fill="#b8ddf2"/>
      <path id="Trazado_21165" data-name="Trazado 21165" d="M-483.124,205.1h-4.2a.5.5,0,0,1-.5-.5.553.553,0,0,1,.151-.381l.557-.541c.367-.339.715-.646,1.045-.938,1.366-1.209,2.446-2.164,2.446-3.122a1.492,1.492,0,0,0-1.69-1.518,2.591,2.591,0,0,0-1.687.615.5.5,0,0,1-.7-.06.5.5,0,0,1,.06-.7,3.621,3.621,0,0,1,2.332-.851,2.493,2.493,0,0,1,2.69,2.518c0,1.408-1.229,2.495-2.784,3.871-.221.2-.451.4-.686.611h2.97a.5.5,0,0,1,.5.5A.5.5,0,0,1-483.124,205.1Zm-4.2-.522h0Z" fill="#b8ddf2"/>
      <g id="Grupo_26873" data-name="Grupo 26873">
        <path id="Trazado_21166" data-name="Trazado 21166" d="M-484.624,191.1h-6a.5.5,0,0,1-.5-.5.5.5,0,0,1,.5-.5h6a.5.5,0,0,1,.5.5A.5.5,0,0,1-484.624,191.1Z" fill="#b8ddf2"/>
        <path id="Trazado_21167" data-name="Trazado 21167" d="M-492.124,192.6a.5.5,0,0,1-.5-.5v-3a.5.5,0,0,1,.5-.5.5.5,0,0,1,.5.5v3A.5.5,0,0,1-492.124,192.6Z" fill="#b8ddf2"/>
        <path id="Trazado_21168" data-name="Trazado 21168" d="M-483.124,192.6a.5.5,0,0,1-.5-.5v-3a.5.5,0,0,1,.5-.5.5.5,0,0,1,.5.5v3A.5.5,0,0,1-483.124,192.6Z" fill="#b8ddf2"/>
        <path id="Trazado_21169" data-name="Trazado 21169" d="M-478.674,208.1h-18a.955.955,0,0,1-.95-1v-16a.955.955,0,0,1,.95-1h3.05a.5.5,0,0,1,.5.5.5.5,0,0,1-.5.5h-3.05l.05,16h17.95l.05-16h-3a.5.5,0,0,1-.5-.5.5.5,0,0,1,.5-.5h2.95a1.039,1.039,0,0,1,1.05,1v16A1.039,1.039,0,0,1-478.674,208.1Z" fill="#b8ddf2"/>
      </g>
      <path id="Trazado_21170" data-name="Trazado 21170" d="M-491.124,205.1a.5.5,0,0,1-.5-.5v-6.066l-.722.482a.5.5,0,0,1-.694-.139.5.5,0,0,1,.139-.693l1.5-1a.5.5,0,0,1,.513-.025.5.5,0,0,1,.264.441v7A.5.5,0,0,1-491.124,205.1Z" fill="#b8ddf2"/>
    </g>
    <path id="Trazado_21171" data-name="Trazado 21171" d="M-489.761,232.5a.5.5,0,0,1-.479-.355c-.359-1.2-.573-2.01-.735-2.626a8.648,8.648,0,0,0-.727-2.1c-.214-.409-.413-.879-.62-1.369a8.144,8.144,0,0,0-2.1-3.354c-.508-.388-.762-.718-.8-1.037a.67.67,0,0,1,.142-.5l.132-.164a2.4,2.4,0,0,1,3.326-.338,2.6,2.6,0,0,1,.315.209v-1.337c-.051-6.032.46-6.5.678-6.7a2.49,2.49,0,0,1,1.63-.307,1.336,1.336,0,0,1,1,.465c.293.412.585,4.963.669,6.4a.743.743,0,0,1,.08.007c2.408.363,5.413,1.128,6.7,2.016l.182.123c.71.473,1.141.873,1.141,2.439v1.672a8.048,8.048,0,0,1-.534,2.943,9.134,9.134,0,0,0-.574,3.415.5.5,0,0,1-.5.5.5.5,0,0,1-.5-.5,10.108,10.108,0,0,1,.627-3.737,7.019,7.019,0,0,0,.481-2.621v-1.672c0-1.143-.189-1.269-.7-1.607l-.2-.132c-1.125-.781-3.959-1.491-6.164-1.833a.7.7,0,0,1-.713.049.67.67,0,0,1-.305-.629c0-.582-.369-5.46-.538-6.272a2.354,2.354,0,0,0-1.149.044,26.607,26.607,0,0,0-.318,5.851v1.394a6.229,6.229,0,0,0,.186,1.83.5.5,0,0,1-.269.631.5.5,0,0,1-.643-.227c-.043-.083-.087-.185-.137-.3a2.325,2.325,0,0,0-.945-1.244c-.834-.473-1.265-.6-2.034.085a2.635,2.635,0,0,0,.335.294,8.884,8.884,0,0,1,2.409,3.758c.2.465.384.909.586,1.3a9.484,9.484,0,0,1,.808,2.305c.159.608.37,1.412.725,2.591a.5.5,0,0,1-.335.623A.512.512,0,0,1-489.761,232.5Zm-4.522-10.734-.015.019Zm6.89-1.385h0Z" fill="#b8ddf2"/>
    <g id="Grupo_26875" data-name="Grupo 26875">
      <rect id="Rectángulo_4074" data-name="Rectángulo 4074" width="38.202" height="14.692" rx="2" transform="translate(-445.335 320.016)" fill="#4ba3cc"/>
      <path id="Trazado_21172" data-name="Trazado 21172" d="M-409.133,336.208h-34.2a3.5,3.5,0,0,1-3.5-3.5V322.016a3.5,3.5,0,0,1,3.5-3.5h34.2a3.5,3.5,0,0,1,3.5,3.5v10.692A3.5,3.5,0,0,1-409.133,336.208Zm-34.2-14.692a.506.506,0,0,0-.5.5v10.692a.507.507,0,0,0,.5.5h34.2a.507.507,0,0,0,.5-.5V322.016a.506.506,0,0,0-.5-.5Z" fill="#4ba3cc"/>
    </g>
    <g id="Grupo_26876" data-name="Grupo 26876">
      <path id="Trazado_21173" data-name="Trazado 21173" d="M-437.233,331.566v-8.532h2.8a4.059,4.059,0,0,1,2.349.589,1.994,1.994,0,0,1,.844,1.749,1.864,1.864,0,0,1-.3,1.049,1.852,1.852,0,0,1-.891.7,1.84,1.84,0,0,1,1.2.692,2.071,2.071,0,0,1,.4,1.271,2.208,2.208,0,0,1-.808,1.855,3.655,3.655,0,0,1-2.291.63Zm1.711-4.957h1.142a1.71,1.71,0,0,0,1.055-.282.966.966,0,0,0,.369-.82,1.025,1.025,0,0,0-.372-.873,1.83,1.83,0,0,0-1.11-.281h-1.084Zm0,1.183v2.461h1.588a1.585,1.585,0,0,0,1.037-.3,1.072,1.072,0,0,0,.357-.876,1.256,1.256,0,0,0-.351-.955,1.493,1.493,0,0,0-1.061-.334Z" fill="#fff"/>
      <path id="Trazado_21174" data-name="Trazado 21174" d="M-422.825,323.034v5.584a2.805,2.805,0,0,1-.955,2.256,3.687,3.687,0,0,1-2.478.815,3.644,3.644,0,0,1-2.464-.815,2.818,2.818,0,0,1-.947-2.256v-5.584h1.717v5.584a1.759,1.759,0,0,0,.457,1.307,1.683,1.683,0,0,0,1.237.451,1.716,1.716,0,0,0,1.253-.451,1.741,1.741,0,0,0,.463-1.307v-5.584Z" fill="#fff"/>
      <path id="Trazado_21175" data-name="Trazado 21175" d="M-418.331,326.966h.035l1.864-3.932h1.875l-2.924,5.532v3h-1.711v-3.088l-2.877-5.444h1.875Z" fill="#fff"/>
    </g>
    <g id="Grupo_26880" data-name="Grupo 26880">
      <g id="Grupo_26879" data-name="Grupo 26879">
        <path id="Trazado_21176" data-name="Trazado 21176" d="M-468.309,316.8h0q-1.53,0-3-.015a.5.5,0,0,1-.5-.5.468.468,0,0,1,.505-.5q1.47.014,3,.015a.5.5,0,0,1,.5.5A.5.5,0,0,1-468.309,316.8Zm-6-.051h-.009q-1.538-.029-3.006-.075a.5.5,0,0,1-.483-.517.514.514,0,0,1,.516-.483q1.463.048,2.991.075a.5.5,0,0,1,.491.509A.5.5,0,0,1-474.308,316.751Zm-5.995-.206h-.029q-1.543-.087-3.007-.214a.5.5,0,0,1-.454-.542.514.514,0,0,1,.541-.454q1.448.126,2.977.212a.5.5,0,0,1,.47.527A.5.5,0,0,1-480.3,316.545Zm-5.972-.54a.514.514,0,0,1-.067,0c-1.051-.141-2.057-.3-2.989-.484a.5.5,0,0,1-.4-.587.5.5,0,0,1,.587-.4c.912.178,1.9.338,2.929.475a.5.5,0,0,1,.43.562A.5.5,0,0,1-486.275,316.005Zm-5.876-1.164a.5.5,0,0,1-.136-.019,28.378,28.378,0,0,1-2.887-.972.5.5,0,0,1-.279-.65.5.5,0,0,1,.65-.278,27.472,27.472,0,0,0,2.787.937.5.5,0,0,1,.346.617A.5.5,0,0,1-492.151,314.841Zm-5.536-2.244a.489.489,0,0,1-.246-.066,19.207,19.207,0,0,1-2.543-1.716.5.5,0,0,1-.077-.7.5.5,0,0,1,.7-.078,18.228,18.228,0,0,0,2.411,1.628.5.5,0,0,1,.189.681A.5.5,0,0,1-497.687,312.6Zm-4.644-3.726a.5.5,0,0,1-.373-.167,19.7,19.7,0,0,1-1.851-2.443.5.5,0,0,1,.15-.692.5.5,0,0,1,.691.151,18.772,18.772,0,0,0,1.756,2.318.5.5,0,0,1-.04.706A.5.5,0,0,1-502.331,308.871Zm-3.24-5a.5.5,0,0,1-.454-.288,28.216,28.216,0,0,1-1.13-2.827.5.5,0,0,1,.312-.635.5.5,0,0,1,.634.313,27.14,27.14,0,0,0,1.09,2.725.5.5,0,0,1-.241.665A.5.5,0,0,1-505.571,303.871Zm-1.949-5.649a.5.5,0,0,1-.485-.38c-.233-.942-.442-1.938-.623-2.963a.5.5,0,0,1,.4-.579.492.492,0,0,1,.579.4c.178,1,.382,1.978.61,2.9a.5.5,0,0,1-.365.605A.507.507,0,0,1-507.52,298.222Zm-1.055-5.893a.5.5,0,0,1-.5-.439q-.175-1.445-.3-3a.5.5,0,0,1,.46-.537.491.491,0,0,1,.537.459q.12,1.538.293,2.96a.5.5,0,0,1-.436.556A.418.418,0,0,1-508.575,292.329Zm-.472-5.973a.5.5,0,0,1-.5-.478q-.062-1.459-.082-3.012a.5.5,0,0,1,.493-.507.538.538,0,0,1,.507.494q.02,1.537.081,2.982a.5.5,0,0,1-.479.521Zm-.075-5.994h-.012a.5.5,0,0,1-.488-.511c.024-1.051.076-2.065.152-3.014a.5.5,0,0,1,.539-.458.5.5,0,0,1,.458.538c-.075.931-.125,1.926-.149,2.957A.5.5,0,0,1-509.122,280.362Zm.5-5.952a.536.536,0,0,1-.079-.006.5.5,0,0,1-.415-.572,28.72,28.72,0,0,1,.625-2.972.5.5,0,0,1,.614-.351.5.5,0,0,1,.352.613,27.821,27.821,0,0,0-.6,2.866A.5.5,0,0,1-508.623,274.41Zm1.593-5.729a.506.506,0,0,1-.2-.042.5.5,0,0,1-.257-.66,15,15,0,0,1,1.511-2.68.5.5,0,0,1,.7-.115.5.5,0,0,1,.115.7,14.073,14.073,0,0,0-1.409,2.5A.5.5,0,0,1-507.03,268.681Zm3.467-4.789a.5.5,0,0,1-.379-.174.5.5,0,0,1,.053-.7,14.831,14.831,0,0,1,2.547-1.748.5.5,0,0,1,.679.2.5.5,0,0,1-.2.679,13.912,13.912,0,0,0-2.378,1.631A.5.5,0,0,1-503.563,263.892Zm5.173-2.966a.5.5,0,0,1-.462-.309.5.5,0,0,1,.27-.653c.485-.2.972-.395,1.459-.588.443-.176.886-.352,1.327-.533a.5.5,0,0,1,.652.271.5.5,0,0,1-.272.653c-.444.183-.891.361-1.338.539-.482.191-.964.382-1.444.582A.5.5,0,0,1-498.39,260.926Zm5.5-2.389a.5.5,0,0,1-.439-.26.5.5,0,0,1,.2-.678,13.793,13.793,0,0,0,2.38-1.622.5.5,0,0,1,.705.052.5.5,0,0,1-.054.705,14.65,14.65,0,0,1-2.551,1.742A.5.5,0,0,1-492.891,258.537Zm4.466-3.883a.5.5,0,0,1-.288-.091.5.5,0,0,1-.12-.7,13.682,13.682,0,0,0,1.384-2.512.5.5,0,0,1,.656-.264.5.5,0,0,1,.264.656,14.688,14.688,0,0,1-1.487,2.7A.5.5,0,0,1-488.425,254.654Zm2.379-5.429a.48.48,0,0,1-.124-.016.5.5,0,0,1-.361-.608,27.731,27.731,0,0,0,.562-2.874.5.5,0,0,1,.566-.424.5.5,0,0,1,.424.566,28.409,28.409,0,0,1-.584,2.98A.5.5,0,0,1-486.046,249.225Zm.876-5.9h-.034a.5.5,0,0,1-.465-.532c.062-.939.1-1.936.106-2.964a.5.5,0,0,1,.5-.5h0a.5.5,0,0,1,.5.5c-.009,1.048-.045,2.064-.108,3.022A.5.5,0,0,1-485.17,243.326Z" fill="#b8ddf2"/>
        <g id="Grupo_26877" data-name="Grupo 26877">
          <path id="Trazado_21177" data-name="Trazado 21177" d="M-468.471,312.519a3.761,3.761,0,0,1,3.735,3.785,3.761,3.761,0,0,1-3.785,3.735,3.762,3.762,0,0,1-3.735-3.785A3.761,3.761,0,0,1-468.471,312.519Z" fill="#b8ddf2"/>
        </g>
        <g id="Grupo_26878" data-name="Grupo 26878">
          <path id="Trazado_21178" data-name="Trazado 21178" d="M-482.085,245.127l-.946.327-2.14-6.191-2.34,6.118-.934-.357,3.321-8.684Z" fill="#b8ddf2"/>
        </g>
      </g>
    </g>
    <g id="Grupo_26890" data-name="Grupo 26890">
      <path id="Trazado_21179" data-name="Trazado 21179" d="M-276.488,344.708a.511.511,0,0,1-.219-.05.5.5,0,0,1-.281-.45v-7.756l-7.9-10.952a.5.5,0,0,1-.04-.52.5.5,0,0,1,.445-.272h18a.5.5,0,0,1,.446.272.5.5,0,0,1-.04.521l-7.906,10.951v6.172a.5.5,0,0,1-.19.393l-2.01,1.584A.5.5,0,0,1-276.488,344.708Zm-7.013-19L-276.083,336a.5.5,0,0,1,.1.292v6.887l1.009-.8v-6.091a.507.507,0,0,1,.1-.293l7.428-10.29Z" fill="#b8ddf2"/>
      <g id="Grupo_26881" data-name="Grupo 26881">
        <path id="Trazado_21180" data-name="Trazado 21180" d="M-241.774,344.708a2,2,0,0,1-2-2,2,2,0,0,1,2-2,2,2,0,0,1,2,2A2,2,0,0,1-241.774,344.708Zm0-3a1,1,0,0,0-1,1,1,1,0,0,0,1,1,1,1,0,0,0,1-1A1,1,0,0,0-241.774,341.708Z" fill="#b8ddf2"/>
        <path id="Trazado_21181" data-name="Trazado 21181" d="M-228.774,344.708a2,2,0,0,1-2-2,2,2,0,0,1,2-2,2,2,0,0,1,2,2A2,2,0,0,1-228.774,344.708Zm0-3a1,1,0,0,0-1,1,1,1,0,0,0,1,1,1,1,0,0,0,1-1A1,1,0,0,0-228.774,341.708Z" fill="#b8ddf2"/>
        <path id="Trazado_21182" data-name="Trazado 21182" d="M-230.761,342.708h-8.826a.5.5,0,0,1-.5-.5.5.5,0,0,1,.5-.5h8.826a.5.5,0,0,1,.5.5A.5.5,0,0,1-230.761,342.708Z" fill="#b8ddf2"/>
        <path id="Trazado_21183" data-name="Trazado 21183" d="M-241.279,341.324a.5.5,0,0,1-.5-.5V328.719a.5.5,0,0,1,.5-.5.5.5,0,0,1,.5.5v12.105A.5.5,0,0,1-241.279,341.324Z" fill="#b8ddf2"/>
        <path id="Trazado_21184" data-name="Trazado 21184" d="M-241.28,338.194a.5.5,0,0,1-.488-.393.5.5,0,0,1,.382-.6l13.607-2.97v-4.528h-13.5a.5.5,0,0,1-.5-.5.5.5,0,0,1,.5-.5h14a.5.5,0,0,1,.5.5v5.431a.5.5,0,0,1-.394.488l-14,3.056A.556.556,0,0,1-241.28,338.194Z" fill="#b8ddf2"/>
        <path id="Trazado_21185" data-name="Trazado 21185" d="M-241.279,329.708a.5.5,0,0,1-.46-.3l-1.583-3.7h-2.952a.5.5,0,0,1-.5-.5.5.5,0,0,1,.5-.5h3.282a.5.5,0,0,1,.459.3l1.713,4a.5.5,0,0,1-.263.657A.5.5,0,0,1-241.279,329.708Z" fill="#b8ddf2"/>
      </g>
      <g id="Grupo_26885" data-name="Grupo 26885">
        <g id="Grupo_26884" data-name="Grupo 26884">
          <path id="Trazado_21186" data-name="Trazado 21186" d="M-277.289,314.882h-.014a.5.5,0,0,1-.486-.515,14.78,14.78,0,0,1,.409-3.065.5.5,0,0,1,.6-.368.5.5,0,0,1,.367.6,13.877,13.877,0,0,0-.38,2.858A.5.5,0,0,1-277.289,314.882Zm1.4-5.778a.5.5,0,0,1-.214-.048.5.5,0,0,1-.237-.666,17.826,17.826,0,0,1,1.567-2.65.5.5,0,0,1,.7-.117.5.5,0,0,1,.119.7,16.763,16.763,0,0,0-1.48,2.5A.5.5,0,0,1-275.89,309.1Zm3.426-4.893a.5.5,0,0,1-.341-.134.5.5,0,0,1-.026-.707c.656-.7,1.369-1.4,2.181-2.126a.5.5,0,0,1,.706.04.5.5,0,0,1-.039.706c-.789.705-1.481,1.38-2.115,2.062A.5.5,0,0,1-272.464,304.211Zm4.448-4.025a.5.5,0,0,1-.392-.189.5.5,0,0,1,.081-.7c.791-.629,1.593-1.239,2.389-1.838a.5.5,0,0,1,.7.1.5.5,0,0,1-.1.7c-.788.593-1.584,1.2-2.368,1.822A.5.5,0,0,1-268.016,300.186Zm4.78-3.633a.5.5,0,0,1-.4-.2.5.5,0,0,1,.1-.7c.817-.619,1.6-1.23,2.344-1.841a.5.5,0,0,1,.7.065.5.5,0,0,1-.066.7c-.749.621-1.549,1.242-2.378,1.869A.493.493,0,0,1-263.236,296.553Zm4.579-3.875a.5.5,0,0,1-.348-.142.5.5,0,0,1-.011-.707,12.3,12.3,0,0,0,1.782-2.256.5.5,0,0,1,.685-.174.5.5,0,0,1,.174.686,13.331,13.331,0,0,1-1.923,2.441A.5.5,0,0,1-258.657,292.678Z" fill="#b8ddf2"/>
          <g id="Grupo_26882" data-name="Grupo 26882">
            <path id="Trazado_21187" data-name="Trazado 21187" d="M-260.5,288.879a3.76,3.76,0,0,1,4.706-2.475,3.761,3.761,0,0,1,2.475,4.706,3.761,3.761,0,0,1-4.707,2.475A3.76,3.76,0,0,1-260.5,288.879Z" fill="#b8ddf2"/>
          </g>
          <g id="Grupo_26883" data-name="Grupo 26883">
            <path id="Trazado_21188" data-name="Trazado 21188" d="M-280.463,311.615l.9-.428,2.806,5.919,1.655-6.338.967.252-2.348,9Z" fill="#b8ddf2"/>
          </g>
        </g>
      </g>
      <g id="Grupo_26889" data-name="Grupo 26889">
        <g id="Grupo_26888" data-name="Grupo 26888">
          <path id="Trazado_21189" data-name="Trazado 21189" d="M-266.275,350.129h-3a.5.5,0,0,1-.5-.5.5.5,0,0,1,.5-.5h3a.5.5,0,0,1,.5.5A.5.5,0,0,1-266.275,350.129Zm-6,0h-3a.5.5,0,0,1-.5-.5.5.5,0,0,1,.5-.5h3a.5.5,0,0,1,.5.5A.5.5,0,0,1-272.275,350.129Zm8.972-.316a.5.5,0,0,1-.484-.375.5.5,0,0,1,.359-.609,9.446,9.446,0,0,0,2.61-1.115.5.5,0,0,1,.688.162.5.5,0,0,1-.162.687,10.443,10.443,0,0,1-2.886,1.235A.491.491,0,0,1-263.3,349.813Zm5.028-3.107a.5.5,0,0,1-.329-.124.5.5,0,0,1-.047-.706,9.537,9.537,0,0,0,1.536-2.389.5.5,0,0,1,.66-.251.5.5,0,0,1,.252.661,10.55,10.55,0,0,1-1.7,2.639A.5.5,0,0,1-258.275,346.706Zm2.415-5.393a.4.4,0,0,1-.06,0,.5.5,0,0,1-.437-.556,9.615,9.615,0,0,0,.066-1.124v-1.813a.5.5,0,0,1,.5-.5.5.5,0,0,1,.5.5v1.812a10.579,10.579,0,0,1-.073,1.244A.5.5,0,0,1-255.86,341.313Zm.069-6a.5.5,0,0,1-.5-.5v-3a.5.5,0,0,1,.5-.5.5.5,0,0,1,.5.5v3A.5.5,0,0,1-255.791,335.317Zm0-6a.5.5,0,0,1-.5-.5v-3a.5.5,0,0,1,.5-.5.5.5,0,0,1,.5.5v3A.5.5,0,0,1-255.791,329.317Zm0-6a.5.5,0,0,1-.5-.5v-3a.5.5,0,0,1,.5-.5.5.5,0,0,1,.5.5v3A.5.5,0,0,1-255.791,323.317Zm20.617-2.6a.5.5,0,0,1-.5-.5v-.636a.5.5,0,0,1,.5-.5.5.5,0,0,1,.5.5v.636A.5.5,0,0,1-235.174,320.713Zm-20.617-3.4a.5.5,0,0,1-.5-.5v-.411a10.448,10.448,0,0,1,.351-2.688.5.5,0,0,1,.611-.355.5.5,0,0,1,.355.613,9.471,9.471,0,0,0-.317,2.43v.411A.5.5,0,0,1-255.791,317.317Zm20.617-.24a.5.5,0,0,1-.5-.5v-1.856a6.462,6.462,0,0,0-.088-1.057.5.5,0,0,1,.411-.575.5.5,0,0,1,.576.411,7.451,7.451,0,0,1,.1,1.221v1.856A.5.5,0,0,1-235.174,317.077Zm-19.089-5.469a.485.485,0,0,1-.265-.077.5.5,0,0,1-.158-.689,10.67,10.67,0,0,1,2.044-2.377.5.5,0,0,1,.705.051.5.5,0,0,1-.05.705,9.6,9.6,0,0,0-1.852,2.154A.5.5,0,0,1-254.263,311.608Zm17.908-.3a.5.5,0,0,1-.421-.229,8.3,8.3,0,0,0-1.919-2.062.5.5,0,0,1-.091-.7.5.5,0,0,1,.7-.09,9.306,9.306,0,0,1,2.148,2.31.5.5,0,0,1-.148.691A.5.5,0,0,1-236.355,311.313Zm-13.433-3.568a.5.5,0,0,1-.458-.3.5.5,0,0,1,.256-.659,10.4,10.4,0,0,1,3.031-.815.5.5,0,0,1,.553.441.5.5,0,0,1-.442.553,9.345,9.345,0,0,0-2.739.737A.514.514,0,0,1-249.788,307.745Zm8.788-.075a.51.51,0,0,1-.179-.033,10.911,10.911,0,0,0-2.782-.666.5.5,0,0,1-.445-.55.494.494,0,0,1,.55-.444,11.923,11.923,0,0,1,3.036.726.5.5,0,0,1,.287.647A.5.5,0,0,1-241,307.67Z" fill="#b8ddf2"/>
          <g id="Grupo_26886" data-name="Grupo 26886">
            <path id="Trazado_21190" data-name="Trazado 21190" d="M-275.087,353.389a3.76,3.76,0,0,1-3.76-3.76,3.76,3.76,0,0,1,3.76-3.759,3.76,3.76,0,0,1,3.76,3.759A3.76,3.76,0,0,1-275.087,353.389Z" fill="#b8ddf2"/>
          </g>
          <g id="Grupo_26887" data-name="Grupo 26887">
            <path id="Trazado_21191" data-name="Trazado 21191" d="M-238.355,314.3l.94-.342,2.24,6.155,2.24-6.155.939.342-3.18,8.737Z" fill="#b8ddf2"/>
          </g>
        </g>
      </g>
    </g>
  </g>
</svg>
