<svg xmlns="http://www.w3.org/2000/svg" width="463" height="225" viewBox="0 0 463 225">
  <g id="Grupo_26849" data-name="Grupo 26849" transform="translate(-106 -73)">
    <rect id="Rectángulo_3970" data-name="Rectángulo 3970" width="114" height="65" rx="5" transform="translate(302 80)" fill="#ffb665"/>
    <path id="Trazado_21068" data-name="Trazado 21068" d="M436,153a8,8,0,0,0-8-8H244a8,8,0,0,0-8,8V257H436Z" fill="#2c3e50"/>
    <path id="Trazado_21069" data-name="Trazado 21069" d="M428,145H244a8,8,0,0,0-8,8v8H436v-8A8,8,0,0,0,428,145Z" fill="#566573"/>
    <rect id="Rectángulo_3971" data-name="Rectángulo 3971" width="180" height="92" transform="translate(246 155)" fill="#fff"/>
    <path id="Trazado_21070" data-name="Trazado 21070" d="M236,257v10a8,8,0,0,0,8,8H428a8,8,0,0,0,8-8V257Z" fill="#e6e7e8"/>
    <rect id="Rectángulo_3972" data-name="Rectángulo 3972" width="62" height="18" transform="translate(305 275)" fill="#fff"/>
    <rect id="Rectángulo_3973" data-name="Rectángulo 3973" width="62" height="9" transform="translate(305 275)" fill="#d1d3d4"/>
    <rect id="Rectángulo_3974" data-name="Rectángulo 3974" width="88" height="5" transform="translate(292 293)" fill="#fff"/>
    <path id="Trazado_21071" data-name="Trazado 21071" d="M390,247V111.5a6.5,6.5,0,0,1,5.793-6.46c-.261-.026-.525-.04-.793-.04H286a8,8,0,0,0-8,8V247Z" fill="#ffca80"/>
    <path id="Trazado_21072" data-name="Trazado 21072" d="M403,138.5v-27a6.5,6.5,0,0,0-13,0V145h19.5A6.5,6.5,0,0,1,403,138.5Z" fill="#ff645b"/>
    <path id="Trazado_21073" data-name="Trazado 21073" d="M403,105v33.5a6.5,6.5,0,0,0,13,0V105Z" fill="#ffb665"/>
    <rect id="Rectángulo_3975" data-name="Rectángulo 3975" width="86" height="11" transform="translate(261 180)" fill="#fff"/>
    <path id="Trazado_21074" data-name="Trazado 21074" d="M278,198l-17-7h17Z" fill="#e6e7e8"/>
    <rect id="Rectángulo_3976" data-name="Rectángulo 3976" width="57" height="3" transform="translate(289 202)" fill="#ff645b"/>
    <rect id="Rectángulo_3977" data-name="Rectángulo 3977" width="57" height="3" transform="translate(289 208)" fill="#ff645b"/>
    <rect id="Rectángulo_3978" data-name="Rectángulo 3978" width="28" height="3" transform="translate(289 214)" fill="#ff645b"/>
    <rect id="Rectángulo_3979" data-name="Rectángulo 3979" width="57" height="3" transform="translate(289 224)" fill="#ff645b"/>
    <rect id="Rectángulo_3980" data-name="Rectángulo 3980" width="57" height="3" transform="translate(289 230)" fill="#ff645b"/>
    <rect id="Rectángulo_3981" data-name="Rectángulo 3981" width="28" height="3" transform="translate(289 236)" fill="#ff645b"/>
    <g id="Grupo_26839" data-name="Grupo 26839">
      <path id="Trazado_21075" data-name="Trazado 21075" d="M344.291,200.975a27,27,0,1,1,38.184,0A27,27,0,0,1,344.291,200.975Z" fill="#2c3e50"/>
      <path id="Trazado_21076" data-name="Trazado 21076" d="M348.534,196.732a21,21,0,1,1,29.7,0A21,21,0,0,1,348.534,196.732Z" fill="#59b8ff"/>
      <rect id="Rectángulo_3982" data-name="Rectángulo 3982" width="10" height="3" transform="translate(378.939 204.51) rotate(-45)" fill="#ff645b"/>
      <rect id="Rectángulo_3983" data-name="Rectángulo 3983" width="8" height="44" transform="translate(381.768 205.925) rotate(-45)" fill="#2c3e50"/>
      <rect id="Rectángulo_3984" data-name="Rectángulo 3984" width="2" height="44" transform="translate(386.011 201.681) rotate(-44.998)" fill="#566573"/>
      <rect id="Rectángulo_3985" data-name="Rectángulo 3985" width="10" height="3" transform="translate(410.052 235.623) rotate(-45)" fill="#ff645b"/>
      <path id="Trazado_21077" data-name="Trazado 21077" d="M360.555,176.226a5,5,0,1,1,7.071,0A5,5,0,0,1,360.555,176.226Z" fill="#fff"/>
    </g>
    <g id="Grupo_26840" data-name="Grupo 26840">
      <circle id="Elipse_916" data-name="Elipse 916" cx="12" cy="12" r="12" transform="translate(241 110)" fill="#2c3e50"/>
      <rect id="Rectángulo_3986" data-name="Rectángulo 3986" width="8" height="8" rx="1" transform="translate(249 108)" fill="#2c3e50"/>
      <rect id="Rectángulo_3987" data-name="Rectángulo 3987" width="8" height="8" rx="1" transform="translate(238.875 118.464) rotate(-60.001)" fill="#2c3e50"/>
      <path id="Rectángulo_3988" data-name="Rectángulo 3988" d="M1,0H7A1,1,0,0,1,8,1V7A1,1,0,0,1,7,8H1A1,1,0,0,1,0,7V1A1,1,0,0,1,1,0Z" transform="translate(238.875 125.536) rotate(-30.003)" fill="#2c3e50"/>
      <rect id="Rectángulo_3989" data-name="Rectángulo 3989" width="8" height="8" rx="1" transform="translate(249 128)" fill="#566573"/>
      <path id="Rectángulo_3990" data-name="Rectángulo 3990" d="M1,0H7A1,1,0,0,1,8,1V7A1,1,0,0,1,7,8H1A1,1,0,0,1,0,7V1A1,1,0,0,1,1,0Z" transform="translate(256.196 128.464) rotate(-60.001)" fill="#566573"/>
      <path id="Rectángulo_3991" data-name="Rectángulo 3991" d="M1,0H7A1,1,0,0,1,8,1V7A1,1,0,0,1,7,8H1A1,1,0,0,1,0,7V1A1,1,0,0,1,1,0Z" transform="translate(256.196 115.535) rotate(-29.999)" fill="#566573"/>
      <circle id="Elipse_917" data-name="Elipse 917" cx="9" cy="9" r="9" transform="translate(244 113)" fill="#566573"/>
      <circle id="Elipse_918" data-name="Elipse 918" cx="7" cy="7" r="7" transform="translate(246 115)" fill="#59b8ff"/>
    </g>
    <path id="Trazado_21078" data-name="Trazado 21078" d="M410,289v4a5,5,0,0,0,5,5H557a5,5,0,0,0,5-5v-4Z" fill="#2c3e50"/>
    <path id="Trazado_21079" data-name="Trazado 21079" d="M550,289V209a5,5,0,0,0-5-5H426a5,5,0,0,0-5,5v80Z" fill="#566573"/>
    <rect id="Rectángulo_3992" data-name="Rectángulo 3992" width="117" height="73" transform="translate(427 210)" fill="#fff"/>
    <rect id="Rectángulo_3993" data-name="Rectángulo 3993" width="117" height="5" transform="translate(427 210)" fill="#ff645b"/>
    <rect id="Rectángulo_3994" data-name="Rectángulo 3994" width="6" height="25" transform="translate(443 258)" fill="#ff645b"/>
    <rect id="Rectángulo_3995" data-name="Rectángulo 3995" width="6" height="42" transform="translate(453 241)" fill="#ffb665"/>
    <rect id="Rectángulo_3996" data-name="Rectángulo 3996" width="6" height="33" transform="translate(463 250)" fill="#ff645b"/>
    <rect id="Rectángulo_3997" data-name="Rectángulo 3997" width="6" height="40" transform="translate(473 243)" fill="#ffb665"/>
    <rect id="Rectángulo_3998" data-name="Rectángulo 3998" width="6" height="35" transform="translate(483 248)" fill="#ff645b"/>
    <rect id="Rectángulo_3999" data-name="Rectángulo 3999" width="6" height="48" transform="translate(493 235)" fill="#ffb665"/>
    <rect id="Rectángulo_4000" data-name="Rectángulo 4000" width="6" height="30" transform="translate(503 253)" fill="#ff645b"/>
    <rect id="Rectángulo_4001" data-name="Rectángulo 4001" width="6" height="43" transform="translate(513 240)" fill="#ffb665"/>
    <rect id="Rectángulo_4002" data-name="Rectángulo 4002" width="6" height="32" transform="translate(523 251)" fill="#ff645b"/>
    <rect id="Rectángulo_4003" data-name="Rectángulo 4003" width="10" height="2" transform="translate(432 219)" fill="#ff645b"/>
    <rect id="Rectángulo_4004" data-name="Rectángulo 4004" width="45" height="2" transform="translate(432 223)" fill="#ff645b"/>
    <rect id="Rectángulo_4005" data-name="Rectángulo 4005" width="5" height="2" transform="translate(432 228)" fill="#ff645b"/>
    <rect id="Rectángulo_4006" data-name="Rectángulo 4006" width="5" height="2" transform="translate(439 228)" fill="#ffb665"/>
    <rect id="Rectángulo_4007" data-name="Rectángulo 4007" width="5" height="2" transform="translate(446 228)" fill="#ff645b"/>
    <rect id="Rectángulo_4008" data-name="Rectángulo 4008" width="5" height="2" transform="translate(453 228)" fill="#ffb665"/>
    <rect id="Rectángulo_4009" data-name="Rectángulo 4009" width="92" height="65" rx="5" transform="translate(136 233)" fill="#2c3e50"/>
    <path id="Trazado_21080" data-name="Trazado 21080" d="M223,233H141a5,5,0,0,0-5,5v6h92v-6A5,5,0,0,0,223,233Z" fill="#566573"/>
    <rect id="Rectángulo_4010" data-name="Rectángulo 4010" width="80" height="53" transform="translate(142 239)" fill="#fff"/>
    <rect id="Rectángulo_4011" data-name="Rectángulo 4011" width="7" height="1" transform="translate(147 244)" fill="#ff645b"/>
    <rect id="Rectángulo_4012" data-name="Rectángulo 4012" width="24" height="1" transform="translate(156 244)" fill="#59b8ff"/>
    <rect id="Rectángulo_4013" data-name="Rectángulo 4013" width="21" height="1" transform="translate(147 246)" fill="#59b8ff"/>
    <rect id="Rectángulo_4014" data-name="Rectángulo 4014" width="10" height="1" transform="translate(170 246)" fill="#ff645b"/>
    <rect id="Rectángulo_4015" data-name="Rectángulo 4015" width="13" height="1" transform="translate(147 248)" fill="#59b8ff"/>
    <circle id="Elipse_919" data-name="Elipse 919" cx="10" cy="10" r="10" transform="translate(147 259)" fill="#59b8ff"/>
    <circle id="Elipse_920" data-name="Elipse 920" cx="10" cy="10" r="10" transform="translate(147 260)" fill="#d1d3d4"/>
    <circle id="Elipse_921" data-name="Elipse 921" cx="10" cy="10" r="10" transform="translate(172 260)" fill="#d1d3d4"/>
    <circle id="Elipse_922" data-name="Elipse 922" cx="10" cy="10" r="10" transform="translate(197 260)" fill="#d1d3d4"/>
    <circle id="Elipse_923" data-name="Elipse 923" cx="10" cy="10" r="10" transform="translate(147 259)" fill="#59b8ff"/>
    <circle id="Elipse_924" data-name="Elipse 924" cx="10" cy="10" r="10" transform="translate(172 259)" fill="#59b8ff"/>
    <circle id="Elipse_925" data-name="Elipse 925" cx="10" cy="10" r="10" transform="translate(197 259)" fill="#59b8ff"/>
    <path id="Trazado_21081" data-name="Trazado 21081" d="M157,259v10h10A10,10,0,0,0,157,259Z" fill="#ff645b"/>
    <path id="Trazado_21082" data-name="Trazado 21082" d="M167,269H157l-7.071,7.071A10,10,0,0,0,167,269Z" fill="#ffca80"/>
    <path id="Trazado_21083" data-name="Trazado 21083" d="M192,269a10,10,0,0,0-10-10v20A10,10,0,0,0,192,269Z" fill="#ff645b"/>
    <path id="Trazado_21084" data-name="Trazado 21084" d="M174.929,276.071A9.968,9.968,0,0,0,182,279V269Z" fill="#ffca80"/>
    <path id="Trazado_21085" data-name="Trazado 21085" d="M207,259v20a10,10,0,0,0,0-20Z" fill="#ffca80"/>
    <path id="Trazado_21086" data-name="Trazado 21086" d="M214.071,261.929A9.968,9.968,0,0,0,207,259v10Z" fill="#ff645b"/>
    <rect id="Rectángulo_4016" data-name="Rectángulo 4016" width="81" height="57" rx="5" transform="translate(149 169)" fill="#2c3e50"/>
    <path id="Trazado_21087" data-name="Trazado 21087" d="M225,169H154a5,5,0,0,0-5,5v7h81v-7A5,5,0,0,0,225,169Z" fill="#566573"/>
    <rect id="Rectángulo_4017" data-name="Rectángulo 4017" width="71" height="42" transform="translate(154 179)" fill="#fff"/>
    <circle id="Elipse_926" data-name="Elipse 926" cx="2" cy="2" r="2" transform="translate(220 172)" fill="#fff"/>
    <circle id="Elipse_927" data-name="Elipse 927" cx="2" cy="2" r="2" transform="translate(215 172)" fill="#fff"/>
    <circle id="Elipse_928" data-name="Elipse 928" cx="2" cy="2" r="2" transform="translate(210 172)" fill="#fff"/>
    <rect id="Rectángulo_4018" data-name="Rectángulo 4018" width="81" height="57" rx="5" transform="translate(446 137)" fill="#2c3e50"/>
    <path id="Trazado_21088" data-name="Trazado 21088" d="M522,137H451a5,5,0,0,0-5,5v7h81v-7A5,5,0,0,0,522,137Z" fill="#566573"/>
    <rect id="Rectángulo_4019" data-name="Rectángulo 4019" width="71" height="42" transform="translate(451 147)" fill="#fff"/>
    <circle id="Elipse_929" data-name="Elipse 929" cx="2" cy="2" r="2" transform="translate(517 140)" fill="#fff"/>
    <circle id="Elipse_930" data-name="Elipse 930" cx="2" cy="2" r="2" transform="translate(512 140)" fill="#fff"/>
    <circle id="Elipse_931" data-name="Elipse 931" cx="2" cy="2" r="2" transform="translate(507 140)" fill="#fff"/>
    <rect id="Rectángulo_4020" data-name="Rectángulo 4020" width="3" height="1" transform="translate(160 186)" fill="#ff645b"/>
    <rect id="Rectángulo_4021" data-name="Rectángulo 4021" width="18" height="1" transform="translate(165 186)" fill="#59b8ff"/>
    <rect id="Rectángulo_4022" data-name="Rectángulo 4022" width="16" height="1" transform="translate(160 188)" fill="#ff645b"/>
    <rect id="Rectángulo_4023" data-name="Rectángulo 4023" width="17" height="1" transform="translate(178 188)" fill="#59b8ff"/>
    <rect id="Rectángulo_4024" data-name="Rectángulo 4024" width="13" height="1" transform="translate(160 190)" fill="#59b8ff"/>
    <rect id="Rectángulo_4025" data-name="Rectángulo 4025" width="16" height="1" transform="translate(175 190)" fill="#59b8ff"/>
    <rect id="Rectángulo_4026" data-name="Rectángulo 4026" width="2" height="1" transform="translate(193 190)" fill="#ff645b"/>
    <rect id="Rectángulo_4027" data-name="Rectángulo 4027" width="23" height="1" transform="translate(160 192)" fill="#59b8ff"/>
    <rect id="Rectángulo_4028" data-name="Rectángulo 4028" width="10" height="1" transform="translate(185 192)" fill="#ff645b"/>
    <rect id="Rectángulo_4029" data-name="Rectángulo 4029" width="3" height="1" transform="translate(160 197)" fill="#ff645b"/>
    <rect id="Rectángulo_4030" data-name="Rectángulo 4030" width="18" height="1" transform="translate(165 197)" fill="#ff645b"/>
    <rect id="Rectángulo_4031" data-name="Rectángulo 4031" width="16" height="1" transform="translate(160 199)" fill="#59b8ff"/>
    <rect id="Rectángulo_4032" data-name="Rectángulo 4032" width="17" height="1" transform="translate(178 199)" fill="#ff645b"/>
    <rect id="Rectángulo_4033" data-name="Rectángulo 4033" width="13" height="1" transform="translate(160 201)" fill="#ff645b"/>
    <rect id="Rectángulo_4034" data-name="Rectángulo 4034" width="16" height="1" transform="translate(175 201)" fill="#59b8ff"/>
    <rect id="Rectángulo_4035" data-name="Rectángulo 4035" width="2" height="1" transform="translate(193 201)" fill="#ff645b"/>
    <rect id="Rectángulo_4036" data-name="Rectángulo 4036" width="23" height="1" transform="translate(160 203)" fill="#59b8ff"/>
    <rect id="Rectángulo_4037" data-name="Rectángulo 4037" width="10" height="1" transform="translate(185 203)" fill="#ff645b"/>
    <rect id="Rectángulo_4038" data-name="Rectángulo 4038" width="3" height="1" transform="translate(160 207)" fill="#ff645b"/>
    <rect id="Rectángulo_4039" data-name="Rectángulo 4039" width="18" height="1" transform="translate(165 207)" fill="#59b8ff"/>
    <rect id="Rectángulo_4040" data-name="Rectángulo 4040" width="16" height="1" transform="translate(160 209)" fill="#59b8ff"/>
    <rect id="Rectángulo_4041" data-name="Rectángulo 4041" width="17" height="1" transform="translate(178 209)" fill="#ff645b"/>
    <rect id="Rectángulo_4042" data-name="Rectángulo 4042" width="13" height="1" transform="translate(160 211)" fill="#ff645b"/>
    <rect id="Rectángulo_4043" data-name="Rectángulo 4043" width="16" height="1" transform="translate(175 211)" fill="#59b8ff"/>
    <rect id="Rectángulo_4044" data-name="Rectángulo 4044" width="2" height="1" transform="translate(193 211)" fill="#ff645b"/>
    <rect id="Rectángulo_4045" data-name="Rectángulo 4045" width="23" height="1" transform="translate(160 213)" fill="#59b8ff"/>
    <rect id="Rectángulo_4046" data-name="Rectángulo 4046" width="10" height="1" transform="translate(185 213)" fill="#ff645b"/>
    <rect id="Rectángulo_4047" data-name="Rectángulo 4047" width="63" height="26" transform="translate(455 151)" fill="#ff645b"/>
    <path id="Trazado_21089" data-name="Trazado 21089" d="M463,177h-8V151h63Z" fill="#ff837c"/>
    <path id="Trazado_21090" data-name="Trazado 21090" d="M483,160l8,4-8,4Z" fill="#fff"/>
    <rect id="Rectángulo_4048" data-name="Rectángulo 4048" width="1" height="1" transform="translate(455 180)" fill="#2c3e50"/>
    <rect id="Rectángulo_4049" data-name="Rectángulo 4049" width="1" height="1" transform="translate(457 180)" fill="#2c3e50"/>
    <rect id="Rectángulo_4050" data-name="Rectángulo 4050" width="58" height="1" transform="translate(460 180)" fill="#2c3e50"/>
    <g id="Grupo_26841" data-name="Grupo 26841">
      <circle id="Elipse_932" data-name="Elipse 932" cx="4" cy="4" r="4" transform="translate(430 107)" fill="#59b8ff"/>
      <path id="Trazado_21091" data-name="Trazado 21091" d="M443.258,101.036a4,4,0,1,1-1.464,5.464A4,4,0,0,1,443.258,101.036Z" fill="#59b8ff"/>
      <rect id="Rectángulo_4051" data-name="Rectángulo 4051" width="13" height="2" transform="translate(432.633 110.633) rotate(-29.995)" fill="#59b8ff"/>
      <path id="Trazado_21092" data-name="Trazado 21092" d="M447.258,114.035a4,4,0,1,1-5.464,1.464A4,4,0,0,1,447.258,114.035Z" fill="#59b8ff"/>
      <rect id="Rectángulo_4052" data-name="Rectángulo 4052" width="2" height="12.999" transform="translate(432.634 111.366) rotate(-59.998)" fill="#59b8ff"/>
    </g>
    <rect id="Rectángulo_4053" data-name="Rectángulo 4053" width="58" height="8" transform="translate(154 139)" fill="#e6e7e8"/>
    <rect id="Rectángulo_4054" data-name="Rectángulo 4054" width="15" height="8" transform="translate(206 139)" fill="#ff645b"/>
    <rect id="Rectángulo_4055" data-name="Rectángulo 4055" width="67" height="1" transform="translate(154 147)" fill="#438abf"/>
    <path id="Trazado_21093" data-name="Trazado 21093" d="M291,73H261a2,2,0,0,0-2,2V88a2,2,0,0,0,2,2h23.5l4.5,6V90h2a2,2,0,0,0,2-2V75A2,2,0,0,0,291,73Z" fill="#d1d3d4"/>
    <path id="Trazado_21094" data-name="Trazado 21094" d="M291,73H261a2,2,0,0,0-2,2v7h34V75A2,2,0,0,0,291,73Z" fill="#e6e7e8"/>
    <circle id="Elipse_933" data-name="Elipse 933" cx="2" cy="2" r="2" transform="translate(274 80)" fill="#bcbec0"/>
    <circle id="Elipse_934" data-name="Elipse 934" cx="2" cy="2" r="2" transform="translate(281 80)" fill="#bcbec0"/>
    <circle id="Elipse_935" data-name="Elipse 935" cx="2" cy="2" r="2" transform="translate(267 80)" fill="#bcbec0"/>
    <g id="Grupo_26842" data-name="Grupo 26842">
      <path id="Trazado_21095" data-name="Trazado 21095" d="M106,199a16,16,0,0,1,32,0c0,8.837-16,26-16,26S106,207.837,106,199Z" fill="#ff645b"/>
      <circle id="Elipse_936" data-name="Elipse 936" cx="13" cy="13" r="13" transform="translate(109 186)" fill="#59b8ff"/>
      <path id="Trazado_21096" data-name="Trazado 21096" d="M122,187a12.99,12.99,0,0,1,12.975,12.5c.006-.167.025-.331.025-.5a13,13,0,0,0-26,0c0,.169.019.333.025.5A12.99,12.99,0,0,1,122,187Z" fill="#438abf"/>
      <circle id="Elipse_937" data-name="Elipse 937" cx="2" cy="2" r="2" transform="translate(120 197)" fill="#2c3e50"/>
    </g>
    <g id="Grupo_26844" data-name="Grupo 26844">
      <circle id="Elipse_938" data-name="Elipse 938" cx="16" cy="16" r="16" transform="translate(537 160)" fill="#2c3e50"/>
      <circle id="Elipse_939" data-name="Elipse 939" cx="13" cy="13" r="13" transform="translate(540 163)" fill="#d7f2ff"/>
      <circle id="Elipse_940" data-name="Elipse 940" cx="1.5" cy="1.5" r="1.5" transform="translate(551.5 174.5)" fill="#2c3e50"/>
      <path id="Trazado_21097" data-name="Trazado 21097" d="M560.076,172.383c-2.592-8-13.949-8.8-18-.766h0c3.274-9.645,16.963-10.449,21.7-.765Z" fill="#ff645b"/>
      <rect id="Rectángulo_4056" data-name="Rectángulo 4056" width="7" height="1" transform="translate(552.635 175.676) rotate(-45)" fill="#2c3e50"/>
      <g id="Grupo_26843" data-name="Grupo 26843" opacity="0.3">
        <path id="Trazado_21098" data-name="Trazado 21098" d="M540.066,177.312a12.846,12.846,0,0,0,.832,3.411L557.724,163.9a12.931,12.931,0,0,0-3.412-.832Z" fill="#fff"/>
        <path id="Trazado_21099" data-name="Trazado 21099" d="M566,176a13,13,0,0,0-.607-3.928l-16.321,16.321a12.887,12.887,0,0,0,6.789.281l9.813-9.813A13.028,13.028,0,0,0,566,176Z" fill="#fff"/>
      </g>
    </g>
    <g id="Grupo_26848" data-name="Grupo 26848">
      <g id="Grupo_26845" data-name="Grupo 26845">
        <path id="Trazado_21100" data-name="Trazado 21100" d="M295.3,140.615l5.062-.492a6.177,6.177,0,0,0,1.855,3.744,5.6,5.6,0,0,0,3.77,1.2A5.793,5.793,0,0,0,309.776,144a3.163,3.163,0,0,0,1.275-2.487,2.348,2.348,0,0,0-.536-1.556,4.286,4.286,0,0,0-1.872-1.116q-.915-.316-4.166-1.125a14.137,14.137,0,0,1-5.872-2.549,6.7,6.7,0,0,1-2.373-5.186,6.616,6.616,0,0,1,1.117-3.682,6.98,6.98,0,0,1,3.216-2.61,12.89,12.89,0,0,1,5.072-.9q4.851,0,7.3,2.127a7.508,7.508,0,0,1,2.576,5.678l-5.2.228a4.416,4.416,0,0,0-1.432-2.856,5.247,5.247,0,0,0-3.3-.87,5.947,5.947,0,0,0-3.551.931,1.878,1.878,0,0,0-.826,1.6,1.98,1.98,0,0,0,.773,1.564q.985.827,4.782,1.723a25.293,25.293,0,0,1,5.616,1.854,7.242,7.242,0,0,1,2.848,2.62,7.662,7.662,0,0,1,1.028,4.1,7.585,7.585,0,0,1-1.231,4.149,7.372,7.372,0,0,1-3.48,2.874,14.6,14.6,0,0,1-5.608.94q-4.885,0-7.505-2.259A9.826,9.826,0,0,1,295.3,140.615Z" fill="#fff"/>
      </g>
      <g id="Grupo_26846" data-name="Grupo 26846">
        <path id="Trazado_21101" data-name="Trazado 21101" d="M320.631,149V123.23h19.107v4.36h-13.9V133.3h12.937v4.342H325.834v7.013h14.4V149Z" fill="#fff"/>
      </g>
      <g id="Grupo_26847" data-name="Grupo 26847">
        <path id="Trazado_21102" data-name="Trazado 21102" d="M343.588,136.273a16.372,16.372,0,0,1,1.178-6.609,12.128,12.128,0,0,1,2.4-3.533,10.054,10.054,0,0,1,3.331-2.321,14.162,14.162,0,0,1,5.555-1.019,12.1,12.1,0,0,1,9.114,3.533q3.418,3.534,3.419,9.826,0,6.24-3.393,9.765a12,12,0,0,1-9.07,3.525,12.133,12.133,0,0,1-9.141-3.507Q343.588,142.426,343.588,136.273Zm5.361-.175q0,4.377,2.022,6.635a6.949,6.949,0,0,0,10.239.018q2-2.241,1.995-6.724,0-4.429-1.942-6.609a7.2,7.2,0,0,0-10.345.026Q348.949,131.65,348.949,136.1Z" fill="#fff"/>
      </g>
    </g>
  </g>
</svg>
