<svg xmlns="http://www.w3.org/2000/svg" xmlns:xlink="http://www.w3.org/1999/xlink" width="579.44" height="144.911" viewBox="0 0 579.44 144.911">
  <defs>
    <linearGradient id="linear-gradient" x1="0.5" y1="1" x2="0.5" gradientUnits="objectBoundingBox">
      <stop offset="0" stop-color="#183a9e"/>
      <stop offset="1" stop-color="#0f256e"/>
    </linearGradient>
  </defs>
  <g id="Grupo_26838" data-name="Grupo 26838" transform="translate(-396 -6258.119)">
    <g id="Merge_Words_-_Combine_words_for_SEO_PPC_linkbuilding-1" data-name="Merge Words - Combine words for SEO, PPC &amp; linkbuilding-1" transform="translate(395.515 6257.633)">
      <path id="Trazado_21063" data-name="Trazado 21063" d="M70.532,1.482,1.482,70.532a3.409,3.409,0,0,0,0,4.818L70.532,144.4a3.409,3.409,0,0,0,4.818,0L144.4,75.35a3.409,3.409,0,0,0,0-4.818L75.35,1.482a3.409,3.409,0,0,0-4.818,0Z" transform="translate(0 0)" fill="url(#linear-gradient)"/>
      <path id="Trazado_21064" data-name="Trazado 21064" d="M70.532,1.482,1.482,70.532a3.409,3.409,0,0,0,0,4.818L70.532,144.4a3.409,3.409,0,0,0,4.818,0L144.4,75.35a3.409,3.409,0,0,0,0-4.818L75.35,1.482a3.409,3.409,0,0,0-4.818,0Z" transform="translate(0 0)" fill="url(#linear-gradient)"/>
      <path id="Trazado_21065" data-name="Trazado 21065" d="M134.958,79.478,123.792,68.3a88.279,88.279,0,0,0-9.921,11.864V60H98.086V80.172A87.823,87.823,0,0,0,88.165,68.3L77,79.484a70.629,70.629,0,0,1,20.5,43.752H82.3l23.677,23.7,23.677-23.712h-15.2a70.629,70.629,0,0,1,20.5-43.747" transform="translate(-33.038 -25.698)" fill="#fff"/>
      <path id="Trazado_21066" data-name="Trazado 21066" d="M77.526,15.386l-62.14,62.14a2.216,2.216,0,0,0,0,3.137l62.14,62.14a2.216,2.216,0,0,0,3.137,0l62.14-62.14a2.216,2.216,0,0,0,0-3.137l-62.14-62.14a2.216,2.216,0,0,0-3.137,0Z" transform="translate(-6.153 -6.153)" fill="none" stroke="#fff" stroke-width="3" fill-rule="evenodd"/>
    </g>
    <path id="Trazado_21067" data-name="Trazado 21067" d="M151.236,51.6V27.041c0-6.968-3.73-10.276-9.994-10.276a14.426,14.426,0,0,0-11.683,6.193c-1.267-3.871-4.434-6.193-9.431-6.193-5.208,0-9.712,3.237-11.12,5.279V17.61H100.07V51.6h8.938V28.73a9.123,9.123,0,0,1,7.038-4.012c3.66,0,5.067,2.252,5.067,5.419V51.6h9.009V28.66a9.024,9.024,0,0,1,7.038-3.941c3.66,0,5.067,2.252,5.067,5.419V51.6Zm24.774.845c5.279,0,10.627-1.619,14.006-4.715l-3.941-5.771A14.48,14.48,0,0,1,177,45.34c-5.771,0-9.22-3.589-9.783-7.883h25.267V35.487c0-11.12-6.9-18.721-17.032-18.721-10.346,0-17.6,7.953-17.6,17.806C157.852,45.481,165.664,52.448,176.01,52.448ZM183.822,31.4h-16.75c.422-3.378,2.815-7.531,8.375-7.531C181.359,23.874,183.611,28.167,183.822,31.4Zm24.07,20.2V29.152c1.478-2.182,5.419-3.871,8.375-3.871a11.87,11.87,0,0,1,2.463.211V16.765a14.61,14.61,0,0,0-10.839,5.49V17.61h-8.938V51.6ZM238.226,65.4c8.375,0,18.369-3.167,18.369-16.117V17.61h-9.009v4.364A13.092,13.092,0,0,0,237.1,16.765c-8.586,0-14.991,6.193-14.991,17.314,0,11.331,6.475,17.314,14.991,17.314a13.237,13.237,0,0,0,10.487-5.349v3.449c0,6.686-5.067,8.586-9.361,8.586s-7.883-1.2-10.627-4.223l-4.012,6.475C227.88,64.061,232.385,65.4,238.226,65.4Zm1.689-21.959c-5.067,0-8.586-3.519-8.586-9.361s3.519-9.361,8.586-9.361a9.692,9.692,0,0,1,7.671,3.871V39.569A9.9,9.9,0,0,1,239.915,43.44Zm41.524,9.009c5.279,0,10.627-1.619,14.006-4.715L291.5,41.962a14.48,14.48,0,0,1-9.079,3.378c-5.771,0-9.22-3.589-9.783-7.883h25.266V35.487c0-11.12-6.9-18.721-17.032-18.721-10.346,0-17.6,7.953-17.6,17.806C263.282,45.481,271.094,52.448,281.44,52.448ZM289.252,31.4H272.5c.422-3.378,2.815-7.531,8.375-7.531C286.789,23.874,289.041,28.167,289.252,31.4Zm54.474,20.2L354.072,17.61h-9.29l-6.334,22.874-7.46-22.874h-7.953l-7.46,22.874L309.24,17.61h-9.29L310.3,51.6h9.572l7.179-23.155L334.225,51.6Zm30.545.845c11.261,0,18.017-8.164,18.017-17.877,0-9.642-6.756-17.806-18.017-17.806-11.19,0-17.947,8.164-17.947,17.806C356.324,44.284,363.081,52.448,374.271,52.448Zm0-7.953c-5.56,0-8.657-4.575-8.657-9.924,0-5.279,3.1-9.853,8.657-9.853S383,29.293,383,34.572C383,39.921,379.831,44.5,374.271,44.5ZM407.843,51.6V29.152c1.478-2.182,5.419-3.871,8.375-3.871a11.87,11.87,0,0,1,2.463.211V16.765a14.61,14.61,0,0,0-10.839,5.49V17.61H398.9V51.6Zm48.774,0V4.66h-9.009V21.974a13.092,13.092,0,0,0-10.487-5.208c-8.657,0-15.061,6.757-15.061,17.877,0,11.331,6.475,17.806,15.061,17.806a13.2,13.2,0,0,0,10.487-5.208V51.6ZM439.866,44.5c-5.067,0-8.586-4.012-8.586-9.853,0-5.912,3.519-9.924,8.586-9.924a9.725,9.725,0,0,1,7.742,3.871V40.624A9.725,9.725,0,0,1,439.866,44.5Zm37.865,7.953c9.431,0,14.709-4.715,14.709-10.909,0-13.724-20.129-9.5-20.129-14.569,0-1.9,2.111-3.378,5.349-3.378a14.341,14.341,0,0,1,10.064,3.941l3.589-6.123a21.715,21.715,0,0,0-13.724-4.645c-8.938,0-13.935,5-13.935,10.7,0,13.372,20.2,8.8,20.2,14.428,0,2.111-1.83,3.66-5.7,3.66A19.457,19.457,0,0,1,466.4,40.906l-3.871,6.264C466.118,50.478,471.818,52.448,477.73,52.448Z" transform="translate(483 6296)" fill="#002b45"/>
  </g>
</svg>
