<svg xmlns="http://www.w3.org/2000/svg" width="352" height="287.213" viewBox="0 0 352 287.213">
  <g id="Grupo_26835" data-name="Grupo 26835" transform="translate(-259 -5592.201)">
    <g id="Grupo_26778" data-name="Grupo 26778" transform="translate(-4399.614 5148.615)">
      <g id="Grupo_26706" data-name="Grupo 26706" transform="translate(4815.487 552.156)">
        <rect id="Rectángulo_3965" data-name="Rectángulo 3965" width="24.502" height="24.279" transform="translate(0 0)" fill="#b869c3"/>
      </g>
      <g id="Grupo_26707" data-name="Grupo 26707" transform="translate(4860.26 552.156)">
        <rect id="Rectángulo_3966" data-name="Rectángulo 3966" width="24.502" height="24.279" transform="translate(0 0)" fill="#b869c3"/>
      </g>
      <g id="Grupo_26708" data-name="Grupo 26708" transform="translate(4905.032 552.156)">
        <rect id="Rectángulo_3967" data-name="Rectángulo 3967" width="24.502" height="24.279" transform="translate(0 0)" fill="#b869c3"/>
      </g>
      <g id="Grupo_26709" data-name="Grupo 26709" transform="translate(4949.804 552.156)">
        <rect id="Rectángulo_3968" data-name="Rectángulo 3968" width="24.502" height="24.279" transform="translate(0 0)" fill="#b869c3"/>
      </g>
      <g id="Grupo_26710" data-name="Grupo 26710" transform="translate(4660.173 445.145)">
        <path id="Trazado_20942" data-name="Trazado 20942" d="M4725.549,479.142a26.008,26.008,0,0,0-2.859-7.784l6.369-6.369-8.593-8.593-5.974,5.974a27.051,27.051,0,0,0-8.129-3.751l0-8.034-12.185,0,.01,7.64a26.638,26.638,0,0,0-8.775,3.48L4680.1,456.4l-8.723,8.723,5.313,5.313a28.156,28.156,0,0,0-3.437,8.748l-7.645-.021.011,12.177,8.038-.013a26.97,26.97,0,0,0,3.737,8.138l-6.018,6.018,8.593,8.593,6.41-6.41a25.964,25.964,0,0,0,7.779,2.874l.01,9.329,12.192.005-.017-9.688a25.851,25.851,0,0,0,7.063-3.033l6.923,6.923,8.723-8.723-6.923-6.923a25.939,25.939,0,0,0,3.048-7.11l9.742,0,0-12.185Zm-14.772,16.59a16.169,16.169,0,1,1,0-22.867A16.17,16.17,0,0,1,4710.776,495.732Z" transform="translate(-4665.613 -450.586)" fill="#e6d8e8"/>
      </g>
      <g id="Grupo_26711" data-name="Grupo 26711" transform="translate(4815.599 506.159)">
        <rect id="Rectángulo_3969" data-name="Rectángulo 3969" width="158.819" height="31.853" transform="translate(0 0)" fill="#fcd118"/>
      </g>
      <g id="Grupo_26720" data-name="Grupo 26720" transform="translate(4716.984 525.321)">
        <g id="Grupo_26718" data-name="Grupo 26718" transform="translate(0.049 136.426)">
          <g id="Grupo_26717" data-name="Grupo 26717">
            <g id="Grupo_26712" data-name="Grupo 26712">
              <path id="Trazado_20943" data-name="Trazado 20943" d="M5150.98,1426.119H4922.442a1.559,1.559,0,0,1,0-3.119H5150.98a1.559,1.559,0,0,1,0,3.119Z" transform="translate(-4920.883 -1423)" fill="#1e243a"/>
            </g>
            <g id="Grupo_26713" data-name="Grupo 26713" transform="translate(87.762 21.829)">
              <path id="Trazado_20944" data-name="Trazado 20944" d="M5316.441,1567.109a1.559,1.559,0,0,1-1.56-1.559v-42.99a1.559,1.559,0,1,1,3.118,0v42.99A1.559,1.559,0,0,1,5316.441,1567.109Z" transform="translate(-5314.882 -1521)" fill="#1e243a"/>
            </g>
            <g id="Grupo_26714" data-name="Grupo 26714" transform="translate(140.776 21.829)">
              <path id="Trazado_20945" data-name="Trazado 20945" d="M5554.441,1567.109a1.559,1.559,0,0,1-1.56-1.559v-42.99a1.559,1.559,0,1,1,3.118,0v42.99A1.559,1.559,0,0,1,5554.441,1567.109Z" transform="translate(-5552.882 -1521)" fill="#1e243a"/>
            </g>
            <g id="Grupo_26715" data-name="Grupo 26715" transform="translate(64.819 65.933)">
              <path id="Trazado_20946" data-name="Trazado 20946" d="M5312.564,1722.118h-99.123a1.559,1.559,0,0,1,0-3.118h99.123a1.559,1.559,0,1,1,0,3.118Z" transform="translate(-5211.883 -1719)" fill="#1e243a"/>
            </g>
            <g id="Grupo_26716" data-name="Grupo 26716" transform="translate(110.703 6.931)">
              <path id="Trazado_20947" data-name="Trazado 20947" d="M5422.979,1464.332a5.108,5.108,0,1,1,5.108-5.108A5.114,5.114,0,0,1,5422.979,1464.332Zm0-7.1a1.989,1.989,0,1,0,1.99,1.99A1.992,1.992,0,0,0,5422.979,1457.234Z" transform="translate(-5417.871 -1454.116)" fill="#1e243a"/>
            </g>
          </g>
        </g>
        <g id="Grupo_26719" data-name="Grupo 26719" transform="translate(0 0)">
          <path id="Trazado_20948" data-name="Trazado 20948" d="M5141.952,971.207h-210.72a10.581,10.581,0,0,1-10.568-10.568V821.1a10.581,10.581,0,0,1,10.568-10.568h78.8a1.559,1.559,0,0,1,0,3.118h-78.8a7.458,7.458,0,0,0-7.45,7.45V960.639a7.458,7.458,0,0,0,7.45,7.45h210.72a7.459,7.459,0,0,0,7.45-7.45V911.984a1.559,1.559,0,0,1,3.119,0v48.655A10.581,10.581,0,0,1,5141.952,971.207Z" transform="translate(-4920.663 -810.529)" fill="#1e243a"/>
        </g>
      </g>
      <g id="Grupo_26738" data-name="Grupo 26738" transform="translate(4807.023 477.536)">
        <g id="Grupo_26721" data-name="Grupo 26721" transform="translate(0 0)">
          <path id="Trazado_20949" data-name="Trazado 20949" d="M5492.008,745.018h-158.3a8.949,8.949,0,0,1-8.831-8.83V604.5a8.6,8.6,0,0,1,8.673-8.5h158.6a8.236,8.236,0,0,1,8.249,8.4V736.3A8.574,8.574,0,0,1,5492.008,745.018Zm-158.453-145.9A5.477,5.477,0,0,0,5328,604.5V736.187a5.789,5.789,0,0,0,5.712,5.712h158.3a5.39,5.39,0,0,0,5.28-5.6V604.4a5.092,5.092,0,0,0-5.13-5.279Z" transform="translate(-5324.882 -596)" fill="#1e243a"/>
        </g>
        <g id="Grupo_26722" data-name="Grupo 26722" transform="translate(0.223 16.706)">
          <path id="Trazado_20950" data-name="Trazado 20950" d="M5482.7,674.118H5327.442a1.559,1.559,0,1,1,0-3.118H5482.7a1.559,1.559,0,1,1,0,3.118Z" transform="translate(-5325.883 -671)" fill="#1e243a"/>
        </g>
        <g id="Grupo_26723" data-name="Grupo 26723" transform="translate(30.516 1.114)">
          <path id="Trazado_20951" data-name="Trazado 20951" d="M5463.441,618.374a1.559,1.559,0,0,1-1.56-1.559V602.559a1.559,1.559,0,1,1,3.118,0v14.256A1.559,1.559,0,0,1,5463.441,618.374Z" transform="translate(-5461.882 -601)" fill="#1e243a"/>
        </g>
        <g id="Grupo_26726" data-name="Grupo 26726" transform="translate(6.513 5.08)">
          <g id="Grupo_26724" data-name="Grupo 26724">
            <path id="Trazado_20952" data-name="Trazado 20952" d="M5358.62,627.806a4.5,4.5,0,1,1,4.5-4.5A4.506,4.506,0,0,1,5358.62,627.806Zm0-5.884a1.383,1.383,0,1,0,1.383,1.383A1.384,1.384,0,0,0,5358.62,621.922Z" transform="translate(-5354.119 -618.804)" fill="#1e243a"/>
          </g>
          <g id="Grupo_26725" data-name="Grupo 26725" transform="translate(11.833)">
            <path id="Trazado_20953" data-name="Trazado 20953" d="M5411.742,627.806a4.5,4.5,0,1,1,4.5-4.5A4.507,4.507,0,0,1,5411.742,627.806Zm0-5.884a1.383,1.383,0,1,0,1.382,1.383A1.385,1.385,0,0,0,5411.742,621.922Z" transform="translate(-5407.24 -618.804)" fill="#1e243a"/>
          </g>
        </g>
        <g id="Grupo_26729" data-name="Grupo 26729" transform="translate(36.976 5.346)">
          <g id="Grupo_26727" data-name="Grupo 26727">
            <path id="Trazado_20954" data-name="Trazado 20954" d="M5584.437,623.118h-91.994a1.559,1.559,0,1,1,0-3.118h91.994a1.559,1.559,0,0,1,0,3.118Z" transform="translate(-5490.883 -620)" fill="#1e243a"/>
          </g>
          <g id="Grupo_26728" data-name="Grupo 26728" transform="translate(0 5.791)">
            <path id="Trazado_20955" data-name="Trazado 20955" d="M5541.892,649.118h-49.45a1.559,1.559,0,1,1,0-3.118h49.45a1.559,1.559,0,0,1,0,3.118Z" transform="translate(-5490.883 -646)" fill="#1e243a"/>
          </g>
        </g>
        <g id="Grupo_26730" data-name="Grupo 26730" transform="translate(166.838 16.706)">
          <path id="Trazado_20956" data-name="Trazado 20956" d="M6080.788,674.118h-5.346a1.559,1.559,0,1,1,0-3.118h5.346a1.559,1.559,0,1,1,0,3.118Z" transform="translate(-6073.883 -671)" fill="#1e243a"/>
        </g>
        <g id="Grupo_26731" data-name="Grupo 26731" transform="translate(6.905 27.175)">
          <path id="Trazado_20957" data-name="Trazado 20957" d="M5517.819,751.412a1.559,1.559,0,0,1-1.56,1.559H5357.441a1.559,1.559,0,0,1-1.559-1.559V719.559a1.559,1.559,0,0,1,1.559-1.559H5516.26a1.559,1.559,0,0,1,1.56,1.559ZM5359,749.853h155.7V721.118H5359Z" transform="translate(-5355.882 -718)" fill="#1e243a"/>
        </g>
        <g id="Grupo_26732" data-name="Grupo 26732" transform="translate(6.905 131.198)">
          <path id="Trazado_20958" data-name="Trazado 20958" d="M5516.483,1188.119H5357.442a1.559,1.559,0,0,1,0-3.119h159.042a1.559,1.559,0,0,1,0,3.119Z" transform="translate(-5355.883 -1185)" fill="#1e243a"/>
        </g>
        <g id="Grupo_26733" data-name="Grupo 26733" transform="translate(6.905 73.061)">
          <path id="Trazado_20959" data-name="Trazado 20959" d="M5383.5,949.839a1.559,1.559,0,0,1-1.559,1.559h-24.5a1.559,1.559,0,0,1-1.559-1.559V925.559a1.559,1.559,0,0,1,1.559-1.559h24.5a1.559,1.559,0,0,1,1.559,1.559Zm-24.5-1.559h21.384V927.119H5359Z" transform="translate(-5355.882 -924)" fill="#1e243a"/>
        </g>
        <g id="Grupo_26734" data-name="Grupo 26734" transform="translate(51.677 73.061)">
          <path id="Trazado_20960" data-name="Trazado 20960" d="M5584.5,949.839a1.559,1.559,0,0,1-1.559,1.559h-24.5a1.559,1.559,0,0,1-1.559-1.559V925.559a1.559,1.559,0,0,1,1.559-1.559h24.5a1.559,1.559,0,0,1,1.559,1.559Zm-24.5-1.559h21.384V927.119H5560Z" transform="translate(-5556.882 -924)" fill="#1e243a"/>
        </g>
        <g id="Grupo_26735" data-name="Grupo 26735" transform="translate(96.449 73.061)">
          <path id="Trazado_20961" data-name="Trazado 20961" d="M5785.5,949.839a1.559,1.559,0,0,1-1.559,1.559h-24.5a1.559,1.559,0,0,1-1.559-1.559V925.559a1.559,1.559,0,0,1,1.559-1.559h24.5a1.559,1.559,0,0,1,1.559,1.559Zm-24.5-1.559h21.384V927.119H5761Z" transform="translate(-5757.882 -924)" fill="#1e243a"/>
        </g>
        <g id="Grupo_26736" data-name="Grupo 26736" transform="translate(141.222 73.061)">
          <path id="Trazado_20962" data-name="Trazado 20962" d="M5986.5,949.839a1.559,1.559,0,0,1-1.559,1.559h-24.5a1.56,1.56,0,0,1-1.56-1.559V925.559a1.56,1.56,0,0,1,1.56-1.559h24.5a1.559,1.559,0,0,1,1.559,1.559Zm-24.5-1.559h21.384V927.119H5962Z" transform="translate(-5958.882 -924)" fill="#1e243a"/>
        </g>
        <g id="Grupo_26737" data-name="Grupo 26737" transform="translate(6.905 115.828)">
          <path id="Trazado_20963" data-name="Trazado 20963" d="M5516.483,1119.119H5357.442a1.559,1.559,0,0,1,0-3.119h159.042a1.559,1.559,0,0,1,0,3.119Z" transform="translate(-5355.883 -1116)" fill="#1e243a"/>
        </g>
      </g>
      <g id="Grupo_26741" data-name="Grupo 26741" transform="translate(4658.614 443.586)">
        <g id="Grupo_26739" data-name="Grupo 26739" transform="translate(17.56 17.544)">
          <path id="Trazado_20964" data-name="Trazado 20964" d="M4755.178,557.8a17.728,17.728,0,0,1-12.536-30.264h0a17.728,17.728,0,1,1,12.536,30.264Zm0-32.338a14.514,14.514,0,0,0-10.331,4.279h0a14.61,14.61,0,1,0,10.331-4.279Zm-11.433,3.177h0Z" transform="translate(-4737.449 -522.346)" fill="#1e243a"/>
        </g>
        <g id="Grupo_26740" data-name="Grupo 26740" transform="translate(0 0)">
          <path id="Trazado_20965" data-name="Trazado 20965" d="M4700.926,516.071h0l-12.193-.045a1.577,1.577,0,0,1-1.559-1.578l-.008-8.091a27.673,27.673,0,0,1-5.938-2.207l-5.59,5.589a1.56,1.56,0,0,1-2.206,0l-8.593-8.594a1.56,1.56,0,0,1,0-2.206l5.128-5.128a28.407,28.407,0,0,1-2.915-6.313l-6.866.063h0a1.651,1.651,0,0,1-1.56-1.636l-.01-12.19a1.545,1.545,0,0,1,1.559-1.544h0l6.4,0a30.292,30.292,0,0,1,2.735-6.933l-4.471-4.474a1.563,1.563,0,0,1,0-2.208l8.724-8.724a1.559,1.559,0,0,1,2.205,0l4.458,4.457a28.042,28.042,0,0,1,6.967-2.769l-.008-6.392a1.558,1.558,0,0,1,1.559-1.561l12.186,0a1.559,1.559,0,0,1,1.56,1.56l0,6.866a28.847,28.847,0,0,1,6.358,2.924l5.082-5.082a1.56,1.56,0,0,1,2.205,0l8.593,8.593a1.56,1.56,0,0,1,0,2.205l-5.55,5.55a27.463,27.463,0,0,1,2.189,5.966l8.123.022h0a1.515,1.515,0,0,1,1.56,1.52l0,12.178a1.435,1.435,0,0,1-.457,1.048,1.512,1.512,0,0,1-1.1.4h0l-8.567.048a27.868,27.868,0,0,1-2.266,5.327l6.069,6.082a1.571,1.571,0,0,1,0,2.215L4716,509.734a1.559,1.559,0,0,1-2.2,0l-6.068-6.068a27.033,27.033,0,0,1-5.254,2.248l.015,8.513a1.653,1.653,0,0,1-.457,1.145A1.6,1.6,0,0,1,4700.926,516.071Zm-10.635-3.2,9.073,0-.014-8.125a1.559,1.559,0,0,1,1.156-1.509,24.163,24.163,0,0,0,6.641-2.85,1.559,1.559,0,0,1,1.927.221l5.821,5.82,6.518-6.518-5.82-5.82a1.56,1.56,0,0,1-.222-1.926,24.847,24.847,0,0,0,2.865-6.735,1.605,1.605,0,0,1,1.507-1.21h0l8.182.054,0-9.016-7.814.053h0a1.58,1.58,0,0,1-1.529-1.278,24.45,24.45,0,0,0-2.688-7.335,1.568,1.568,0,0,1,.256-1.875l5.266-5.269-6.388-6.389-4.872,4.871a1.558,1.558,0,0,1-1.98.186,25.555,25.555,0,0,0-7.655-3.534,1.559,1.559,0,0,1-1.155-1.507l0-6.473-9.064,0,.008,6.079a1.559,1.559,0,0,1-1.25,1.531,24.973,24.973,0,0,0-8.262,3.277,1.559,1.559,0,0,1-1.925-.222l-4.21-4.21-6.518,6.518,4.21,4.21a1.56,1.56,0,0,1,.234,1.906,26.712,26.712,0,0,0-3.245,8.257,1.563,1.563,0,0,1-1.528,1.256h0l-6.079-.021.008,9,6.478-.066h0a1.608,1.608,0,0,1,1.506,1.211,25.651,25.651,0,0,0,3.521,7.69,1.578,1.578,0,0,1-.187,1.992l-4.916,4.922,6.388,6.391,5.307-5.306a1.559,1.559,0,0,1,1.87-.254,24.26,24.26,0,0,0,7.317,2.7,1.56,1.56,0,0,1,1.255,1.528Z" transform="translate(-4658.614 -443.586)" fill="#1e243a"/>
        </g>
      </g>
      <g id="Grupo_26742" data-name="Grupo 26742" transform="translate(4752.673 580.222)">
        <path id="Trazado_20966" data-name="Trazado 20966" d="M5100.484,1060.119h-18.042a1.559,1.559,0,0,1,0-3.119h18.042a1.559,1.559,0,0,1,0,3.119Z" transform="translate(-5080.883 -1057)" fill="#1e243a"/>
      </g>
      <g id="Grupo_26745" data-name="Grupo 26745" transform="translate(4731.066 604.056)">
        <g id="Grupo_26743" data-name="Grupo 26743" transform="translate(30.739)">
          <path id="Trazado_20967" data-name="Trazado 20967" d="M5148.39,1167.119h-24.948a1.559,1.559,0,0,1,0-3.119h24.948a1.559,1.559,0,1,1,0,3.119Z" transform="translate(-5121.883 -1164)" fill="#1e243a"/>
        </g>
        <g id="Grupo_26744" data-name="Grupo 26744" transform="translate(0)">
          <path id="Trazado_20968" data-name="Trazado 20968" d="M4994.8,1167.119h-9.355a1.559,1.559,0,0,1,0-3.119h9.355a1.559,1.559,0,1,1,0,3.119Z" transform="translate(-4983.883 -1164)" fill="#1e243a"/>
        </g>
      </g>
      <g id="Grupo_26748" data-name="Grupo 26748" transform="translate(4739.977 556.165)">
        <g id="Grupo_26746" data-name="Grupo 26746" transform="translate(24.057 0)">
          <path id="Trazado_20969" data-name="Trazado 20969" d="M5151.262,952.118h-17.82a1.559,1.559,0,0,1,0-3.118h17.82a1.559,1.559,0,0,1,0,3.118Z" transform="translate(-5131.883 -949)" fill="#1e243a"/>
        </g>
        <g id="Grupo_26747" data-name="Grupo 26747" transform="translate(0 0)">
          <path id="Trazado_20970" data-name="Trazado 20970" d="M5030.12,952.118h-4.678a1.559,1.559,0,1,1,0-3.118h4.678a1.559,1.559,0,0,1,0,3.118Z" transform="translate(-5023.883 -949)" fill="#1e243a"/>
        </g>
      </g>
      <g id="Grupo_26749" data-name="Grupo 26749" transform="translate(4786.308 580.222)">
        <path id="Trazado_20971" data-name="Trazado 20971" d="M5240.57,1060.119h-7.127a1.559,1.559,0,1,1,0-3.119h7.127a1.559,1.559,0,0,1,0,3.119Z" transform="translate(-5231.883 -1057)" fill="#1e243a"/>
      </g>
      <g id="Grupo_26754" data-name="Grupo 26754" transform="translate(4692.308 525.426)">
        <g id="Grupo_26750" data-name="Grupo 26750">
          <path id="Trazado_20972" data-name="Trazado 20972" d="M4811.441,817.014a1.559,1.559,0,0,1-1.56-1.559v-2.9a1.56,1.56,0,0,1,3.119,0v2.9A1.559,1.559,0,0,1,4811.441,817.014Z" transform="translate(-4809.882 -811)" fill="#1e243a"/>
        </g>
        <g id="Grupo_26751" data-name="Grupo 26751" transform="translate(0 12.919)">
          <path id="Trazado_20973" data-name="Trazado 20973" d="M4811.441,924.464a1.559,1.559,0,0,1-1.56-1.559v-5.569a1.56,1.56,0,0,1,3.119,0V922.9A1.559,1.559,0,0,1,4811.441,924.464Zm0-15.592a1.559,1.559,0,0,1-1.56-1.559v-5.569a1.56,1.56,0,0,1,3.119,0v5.569A1.559,1.559,0,0,1,4811.441,908.872Zm0-15.592a1.559,1.559,0,0,1-1.56-1.559v-5.569a1.56,1.56,0,0,1,3.119,0v5.569A1.559,1.559,0,0,1,4811.441,893.279Zm0-15.592a1.559,1.559,0,0,1-1.56-1.559v-5.569a1.56,1.56,0,0,1,3.119,0v5.569A1.559,1.559,0,0,1,4811.441,877.687Z" transform="translate(-4809.882 -869)" fill="#1e243a"/>
        </g>
        <g id="Grupo_26752" data-name="Grupo 26752" transform="translate(0 75.957)">
          <path id="Trazado_20974" data-name="Trazado 20974" d="M4814.115,1157.791h-2.673a1.559,1.559,0,0,1-1.56-1.559v-2.673a1.56,1.56,0,0,1,3.119,0v1.114h1.114a1.559,1.559,0,0,1,0,3.118Z" transform="translate(-4809.882 -1152)" fill="#1e243a"/>
        </g>
        <g id="Grupo_26753" data-name="Grupo 26753" transform="translate(10.469 78.63)">
          <path id="Trazado_20975" data-name="Trazado 20975" d="M4861.338,1167.119h-2.9a1.559,1.559,0,1,1,0-3.119h2.9a1.559,1.559,0,0,1,0,3.119Z" transform="translate(-4856.883 -1164)" fill="#1e243a"/>
        </g>
      </g>
      <g id="Grupo_26762" data-name="Grupo 26762" transform="translate(4957.823 520.526)">
        <g id="Grupo_26755" data-name="Grupo 26755" transform="translate(24.279 0)">
          <path id="Trazado_20976" data-name="Trazado 20976" d="M6115.115,792.118h-2.673a1.559,1.559,0,1,1,0-3.118h2.673a1.559,1.559,0,0,1,0,3.118Z" transform="translate(-6110.883 -789)" fill="#1e243a"/>
        </g>
        <g id="Grupo_26756" data-name="Grupo 26756" transform="translate(34.749 0)">
          <path id="Trazado_20977" data-name="Trazado 20977" d="M6163.674,792.118h-4.232a1.559,1.559,0,0,1,0-3.118h4.232a1.559,1.559,0,0,1,0,3.118Z" transform="translate(-6157.883 -789)" fill="#1e243a"/>
        </g>
        <g id="Grupo_26757" data-name="Grupo 26757" transform="translate(46.777 0)">
          <path id="Trazado_20978" data-name="Trazado 20978" d="M6216.338,795.014a1.559,1.559,0,0,1-1.559-1.559v-1.336h-1.336a1.559,1.559,0,1,1,0-3.118h2.9a1.559,1.559,0,0,1,1.559,1.559v2.9A1.559,1.559,0,0,1,6216.338,795.014Z" transform="translate(-6211.883 -789)" fill="#1e243a"/>
        </g>
        <g id="Grupo_26758" data-name="Grupo 26758" transform="translate(49.672 12.697)">
          <path id="Trazado_20979" data-name="Trazado 20979" d="M6226.441,946.9a1.559,1.559,0,0,1-1.559-1.559v-5.569a1.559,1.559,0,1,1,3.118,0v5.569A1.559,1.559,0,0,1,6226.441,946.9Zm0-15.369a1.559,1.559,0,0,1-1.559-1.559v-5.569a1.559,1.559,0,1,1,3.118,0v5.569A1.559,1.559,0,0,1,6226.441,931.535Zm0-15.37a1.559,1.559,0,0,1-1.559-1.559v-5.569a1.559,1.559,0,1,1,3.118,0v5.569A1.559,1.559,0,0,1,6226.441,916.165Zm0-15.37a1.559,1.559,0,0,1-1.559-1.559v-5.569a1.559,1.559,0,1,1,3.118,0v5.569A1.559,1.559,0,0,1,6226.441,900.8Zm0-15.37a1.559,1.559,0,0,1-1.559-1.559V878.3a1.559,1.559,0,1,1,3.118,0v5.569A1.559,1.559,0,0,1,6226.441,885.426Zm0-15.37a1.559,1.559,0,0,1-1.559-1.559v-5.569a1.559,1.559,0,1,1,3.118,0V868.5A1.559,1.559,0,0,1,6226.441,870.057Zm0-15.37a1.559,1.559,0,0,1-1.559-1.559v-5.569a1.559,1.559,0,1,1,3.118,0v5.569A1.559,1.559,0,0,1,6226.441,854.687Z" transform="translate(-6224.882 -846)" fill="#1e243a"/>
        </g>
        <g id="Grupo_26759" data-name="Grupo 26759" transform="translate(46.777 119.838)">
          <path id="Trazado_20980" data-name="Trazado 20980" d="M6216.338,1332.792h-2.9a1.559,1.559,0,1,1,0-3.119h1.336v-1.114a1.559,1.559,0,1,1,3.118,0v2.673A1.559,1.559,0,0,1,6216.338,1332.792Z" transform="translate(-6211.883 -1327)" fill="#1e243a"/>
        </g>
        <g id="Grupo_26760" data-name="Grupo 26760" transform="translate(13.365 122.511)">
          <path id="Trazado_20981" data-name="Trazado 20981" d="M6086.163,1342.119h-6.015a1.559,1.559,0,0,1,0-3.119h6.015a1.559,1.559,0,0,1,0,3.119Zm-16.706,0h-6.015a1.559,1.559,0,0,1,0-3.119h6.015a1.559,1.559,0,0,1,0,3.119Z" transform="translate(-6061.883 -1339)" fill="#1e243a"/>
        </g>
        <g id="Grupo_26761" data-name="Grupo 26761" transform="translate(0 122.511)">
          <path id="Trazado_20982" data-name="Trazado 20982" d="M6006.115,1342.119h-2.673a1.559,1.559,0,0,1,0-3.119h2.673a1.559,1.559,0,1,1,0,3.119Z" transform="translate(-6001.883 -1339)" fill="#1e243a"/>
        </g>
      </g>
      <g id="Grupo_26765" data-name="Grupo 26765" transform="translate(4700.55 715.652)">
        <g id="Grupo_26763" data-name="Grupo 26763" transform="translate(4.9)">
          <path id="Trazado_20983" data-name="Trazado 20983" d="M4870.441,1678.142a1.559,1.559,0,0,1-1.559-1.559v-10.024a1.559,1.559,0,1,1,3.118,0v10.024A1.559,1.559,0,0,1,4870.441,1678.142Z" transform="translate(-4868.882 -1665)" fill="#1e243a"/>
        </g>
        <g id="Grupo_26764" data-name="Grupo 26764" transform="translate(0 5.123)">
          <path id="Trazado_20984" data-name="Trazado 20984" d="M4858.466,1691.119h-10.024a1.559,1.559,0,0,1,0-3.119h10.024a1.559,1.559,0,0,1,0,3.119Z" transform="translate(-4846.883 -1688)" fill="#1e243a"/>
        </g>
      </g>
      <g id="Grupo_26768" data-name="Grupo 26768" transform="translate(4915.056 700.06)">
        <g id="Grupo_26766" data-name="Grupo 26766" transform="translate(4.9)">
          <path id="Trazado_20985" data-name="Trazado 20985" d="M5833.441,1608.142a1.56,1.56,0,0,1-1.56-1.559v-10.024a1.559,1.559,0,0,1,3.119,0v10.024A1.559,1.559,0,0,1,5833.441,1608.142Z" transform="translate(-5831.882 -1595)" fill="#1e243a"/>
        </g>
        <g id="Grupo_26767" data-name="Grupo 26767" transform="translate(0 5.123)">
          <path id="Trazado_20986" data-name="Trazado 20986" d="M5821.466,1621.118h-10.024a1.559,1.559,0,0,1,0-3.118h10.024a1.559,1.559,0,0,1,0,3.118Z" transform="translate(-5809.883 -1618)" fill="#1e243a"/>
        </g>
      </g>
      <g id="Grupo_26771" data-name="Grupo 26771" transform="translate(4863.601 453.479)">
        <g id="Grupo_26769" data-name="Grupo 26769" transform="translate(4.9)">
          <path id="Trazado_20987" data-name="Trazado 20987" d="M5602.441,501.142a1.559,1.559,0,0,1-1.559-1.559V489.559a1.559,1.559,0,1,1,3.118,0v10.024A1.559,1.559,0,0,1,5602.441,501.142Z" transform="translate(-5600.882 -488)" fill="#1e243a"/>
        </g>
        <g id="Grupo_26770" data-name="Grupo 26770" transform="translate(0 5.123)">
          <path id="Trazado_20988" data-name="Trazado 20988" d="M5590.466,514.118h-10.023a1.559,1.559,0,1,1,0-3.118h10.023a1.559,1.559,0,0,1,0,3.118Z" transform="translate(-5578.883 -511)" fill="#1e243a"/>
        </g>
      </g>
      <g id="Grupo_26774" data-name="Grupo 26774" transform="translate(4991.903 472.19)">
        <g id="Grupo_26772" data-name="Grupo 26772" transform="translate(4.9)">
          <path id="Trazado_20989" data-name="Trazado 20989" d="M6178.441,585.142a1.559,1.559,0,0,1-1.559-1.559V573.559a1.559,1.559,0,1,1,3.118,0v10.024A1.559,1.559,0,0,1,6178.441,585.142Z" transform="translate(-6176.882 -572)" fill="#1e243a"/>
        </g>
        <g id="Grupo_26773" data-name="Grupo 26773" transform="translate(0 5.123)">
          <path id="Trazado_20990" data-name="Trazado 20990" d="M6166.466,598.118h-10.023a1.559,1.559,0,1,1,0-3.118h10.023a1.559,1.559,0,0,1,0,3.118Z" transform="translate(-6154.883 -595)" fill="#1e243a"/>
        </g>
      </g>
      <g id="Grupo_26775" data-name="Grupo 26775" transform="translate(4664.09 637.811)">
        <path id="Trazado_20991" data-name="Trazado 20991" d="M4693.58,1338.022a2.207,2.207,0,0,1,2.172-2.259h0a2.2,2.2,0,0,1,2.281,2.137h0a2.176,2.176,0,0,1-2.172,2.244h-.056A2.184,2.184,0,0,1,4693.58,1338.022Zm-6.6-1.232a2.23,2.23,0,0,1-.058-3.15h0a2.227,2.227,0,0,1,3.149-.058h0a2.227,2.227,0,0,1,.06,3.15h0a2.224,2.224,0,0,1-1.606.682h0A2.222,2.222,0,0,1,4686.982,1336.79Zm14.425-.341a2.23,2.23,0,0,1-.1-3.15h0a2.23,2.23,0,0,1,3.15-.1h0a2.23,2.23,0,0,1,.1,3.15h0a2.226,2.226,0,0,1-1.624.7h0A2.223,2.223,0,0,1,4701.407,1336.449ZM4683.2,1328.1a2.25,2.25,0,0,1,2.2-2.278h0a2.257,2.257,0,0,1,2.254,2.237h0a2.248,2.248,0,0,1-2.2,2.29h-.029A2.271,2.271,0,0,1,4683.2,1328.1Zm20.245-.5a2.225,2.225,0,0,1,2.143-2.308h0a2.226,2.226,0,0,1,2.308,2.143h0a2.225,2.225,0,0,1-2.143,2.308h0c-.029,0-.056,0-.085,0h0A2.227,2.227,0,0,1,4703.445,1327.6Zm-16.661-5.232a2.226,2.226,0,0,1-.02-3.15h0a2.225,2.225,0,0,1,3.149-.018h0a2.227,2.227,0,0,1,.02,3.15h0a2.224,2.224,0,0,1-1.586.662h0A2.208,2.208,0,0,1,4686.784,1322.363Zm14.1-.294a2.229,2.229,0,0,1-.136-3.147h0a2.228,2.228,0,0,1,3.147-.136h0a2.228,2.228,0,0,1,.136,3.147h0a2.22,2.22,0,0,1-1.642.722h0A2.221,2.221,0,0,1,4700.885,1322.069Zm-7.56-4.3a2.227,2.227,0,0,1,2.228-2.227h0a2.228,2.228,0,0,1,2.228,2.227h0a2.227,2.227,0,0,1-2.228,2.228h0A2.225,2.225,0,0,1,4693.326,1317.767Z" transform="translate(-4683.2 -1315.54)" fill="#1e243a"/>
      </g>
      <g id="Grupo_26776" data-name="Grupo 26776" transform="translate(4762.099 467.855)">
        <path id="Trazado_20992" data-name="Trazado 20992" d="M5133.581,575.022a2.207,2.207,0,0,1,2.171-2.259h0a2.2,2.2,0,0,1,2.282,2.137h0a2.177,2.177,0,0,1-2.172,2.244h-.056A2.184,2.184,0,0,1,5133.581,575.022Zm-6.6-1.232a2.227,2.227,0,0,1-.06-3.15h0a2.228,2.228,0,0,1,3.15-.058h0a2.226,2.226,0,0,1,.058,3.15h0a2.216,2.216,0,0,1-1.6.682h0A2.22,2.22,0,0,1,5126.984,573.79Zm14.423-.341a2.23,2.23,0,0,1-.1-3.15h0a2.23,2.23,0,0,1,3.149-.1h0a2.23,2.23,0,0,1,.1,3.15h0a2.226,2.226,0,0,1-1.624.7h0A2.224,2.224,0,0,1,5141.407,573.449Zm-18.207-8.333h0a2.191,2.191,0,0,1,2.2-2.289h0a2.252,2.252,0,0,1,2.254,2.231h0a2.243,2.243,0,0,1-2.2,2.285h-.029A2.328,2.328,0,0,1,5123.2,565.116Zm20.246-.554a2.21,2.21,0,0,1,2.143-2.292h0a2.2,2.2,0,0,1,2.307,2.119h0a2.178,2.178,0,0,1-2.143,2.286h-.083A2.2,2.2,0,0,1,5143.446,564.563Zm-16.662-5.2a2.227,2.227,0,0,1-.02-3.15h0a2.227,2.227,0,0,1,3.149-.02h0a2.231,2.231,0,0,1,.02,3.152h0a2.225,2.225,0,0,1-1.586.662h0A2.213,2.213,0,0,1,5126.784,559.363Zm14.1-.294h0a2.228,2.228,0,0,1-.136-3.147h0a2.226,2.226,0,0,1,3.147-.136h0a2.228,2.228,0,0,1,.136,3.147h0a2.22,2.22,0,0,1-1.642.722h0A2.22,2.22,0,0,1,5140.886,559.069Zm-7.56-4.3a2.226,2.226,0,0,1,2.228-2.227h0a2.228,2.228,0,0,1,2.227,2.227h0a2.227,2.227,0,0,1-2.227,2.227h0A2.225,2.225,0,0,1,5133.327,554.767Z" transform="translate(-5123.2 -552.54)" fill="#1e243a"/>
      </g>
      <g id="Grupo_26777" data-name="Grupo 26777" transform="translate(4965.689 702.853)">
        <path id="Trazado_20993" data-name="Trazado 20993" d="M6047.579,1630.022a2.209,2.209,0,0,1,2.172-2.259h0a2.2,2.2,0,0,1,2.28,2.137h0a2.175,2.175,0,0,1-2.171,2.244h-.056A2.184,2.184,0,0,1,6047.579,1630.022Zm-6.6-1.232a2.227,2.227,0,0,1-.06-3.15h0a2.227,2.227,0,0,1,3.149-.058h0a2.225,2.225,0,0,1,.058,3.15h0a2.217,2.217,0,0,1-1.6.682h0A2.218,2.218,0,0,1,6040.984,1628.79Zm14.423-.341a2.23,2.23,0,0,1-.1-3.15h0a2.23,2.23,0,0,1,3.15-.1h0a2.23,2.23,0,0,1,.1,3.15h0a2.225,2.225,0,0,1-1.624.7h0A2.223,2.223,0,0,1,6055.407,1628.449ZM6037.2,1620.1a2.25,2.25,0,0,1,2.2-2.278h0a2.256,2.256,0,0,1,2.254,2.237h0a2.248,2.248,0,0,1-2.2,2.29h-.028A2.269,2.269,0,0,1,6037.2,1620.1Zm20.245-.5a2.224,2.224,0,0,1,2.143-2.308h0a2.227,2.227,0,0,1,2.308,2.143h0a2.225,2.225,0,0,1-2.143,2.308h0c-.029,0-.056,0-.085,0h0A2.227,2.227,0,0,1,6057.445,1619.6Zm-16.662-5.232a2.227,2.227,0,0,1-.02-3.15h0a2.227,2.227,0,0,1,3.15-.02h0a2.23,2.23,0,0,1,.02,3.152h0a2.224,2.224,0,0,1-1.586.661h0A2.21,2.21,0,0,1,6040.783,1614.363Zm14.1-.294a2.229,2.229,0,0,1-.136-3.147h0a2.227,2.227,0,0,1,3.148-.136h0a2.229,2.229,0,0,1,.136,3.147h0a2.223,2.223,0,0,1-1.642.722h0A2.219,2.219,0,0,1,6054.886,1614.069Zm-7.56-4.3a2.227,2.227,0,0,1,2.228-2.228h0a2.228,2.228,0,0,1,2.228,2.228h0a2.227,2.227,0,0,1-2.228,2.227h0A2.225,2.225,0,0,1,6047.326,1609.768Z" transform="translate(-6037.2 -1607.54)" fill="#1e243a"/>
      </g>
    </g>
  </g>
</svg>
