<svg xmlns="http://www.w3.org/2000/svg" width="76.648" height="77.016" viewBox="0 0 76.648 77.016">
  <g id="Grupo_27788" data-name="Grupo 27788" transform="translate(-684 -11814)">
    <circle id="Elipse_1006" data-name="Elipse 1006" cx="33" cy="33" r="33" transform="translate(684 11814)" fill="#e6d8e8"/>
    <g id="magnet" transform="translate(696 11803.943)">
      <path id="Trazado_22289" data-name="Trazado 22289" d="M38.995,75H25.737a.947.947,0,0,0-.947.947v30.472a4.819,4.819,0,0,1-9.638,0V75.947A.947.947,0,0,0,14.2,75H.947A.947.947,0,0,0,0,75.947v30.472a19.971,19.971,0,0,0,39.942,0V75.947A.947.947,0,0,0,38.995,75Zm-.947,9.47H30.472V76.894h7.576Zm-9.47-7.576V84.47H26.684V76.894Zm-8.607,36.238a6.721,6.721,0,0,0,6.713-6.713V86.364h1.894v20.055a8.607,8.607,0,0,1-17.214,0V86.364h1.894v20.055A6.721,6.721,0,0,0,19.971,113.132ZM13.258,84.47H11.364V76.894h1.894ZM9.47,76.894V84.47H1.894V76.894Zm10.5,47.6A18.1,18.1,0,0,1,1.894,106.419V86.364H9.47v20.055a10.5,10.5,0,0,0,21,0V86.364h7.576v20.055A18.1,18.1,0,0,1,19.971,124.5Z" transform="translate(0 -39.318)" fill="#7d58bd"/>
      <path id="Trazado_22290" data-name="Trazado 22290" d="M349.41,150H336.068a4.74,4.74,0,0,0-4.735,4.735v15.406a2.84,2.84,0,0,0,3.788,2.678v15.766a3.336,3.336,0,0,0,6.671,0v-17.5h1.894v17.5a3.335,3.335,0,0,0,6.671,0V172.829a2.972,2.972,0,0,0,.947.153,2.78,2.78,0,0,0,2.841-2.778V154.735A4.74,4.74,0,0,0,349.41,150Zm2.841,20.2a.949.949,0,0,1-1.894,0V154.735a.947.947,0,0,0-1.894,0v33.85a1.442,1.442,0,0,1-2.883,0V170.141a.947.947,0,0,0-.947-.947h-3.788a.947.947,0,0,0-.947.947v18.444a1.442,1.442,0,0,1-2.883,0V160.417a.947.947,0,1,0-1.894,0v9.724a.947.947,0,1,1-1.894,0V154.735a2.844,2.844,0,0,1,2.841-2.841H349.41a2.844,2.844,0,0,1,2.841,2.841Z" transform="translate(-289.497 -104.848)" fill="#7d58bd"/>
      <path id="Trazado_22291" data-name="Trazado 22291" d="M362.28,180a.947.947,0,0,0-.947.947v1.894a.947.947,0,0,0,1.894,0v-1.894A.947.947,0,0,0,362.28,180Z" transform="translate(-315.709 -131.06)" fill="#7d58bd"/>
      <path id="Trazado_22292" data-name="Trazado 22292" d="M375.467,43.258a6.629,6.629,0,1,0-6.629-6.629A6.636,6.636,0,0,0,375.467,43.258Zm0-11.364a4.735,4.735,0,1,1-4.735,4.735A4.74,4.74,0,0,1,375.467,31.894Z" transform="translate(-322.266)" fill="#7d58bd"/>
    </g>
  </g>
</svg>
