<svg xmlns="http://www.w3.org/2000/svg" width="77.333" height="77.004" viewBox="0 0 77.333 77.004">
  <g id="Grupo_26703" data-name="Grupo 26703" transform="translate(-705 -5372)">
    <circle id="Elipse_888" data-name="Elipse 888" cx="33" cy="33" r="33" transform="translate(705 5372)" fill="#e6d8e8"/>
    <g id="coding" transform="translate(718.767 5370.406)">
      <g id="Grupo_26670" data-name="Grupo 26670" transform="translate(30.659 58.981)">
        <g id="Grupo_26669" data-name="Grupo 26669">
          <path id="Trazado_20925" data-name="Trazado 20925" d="M248.189,334a1.242,1.242,0,0,0,0,2.483h.012a1.242,1.242,0,0,0-.012-2.483Z" transform="translate(-246.947 -333.998)" fill="#7d58bd"/>
        </g>
      </g>
      <g id="Grupo_26672" data-name="Grupo 26672" transform="translate(4.594 54.016)">
        <g id="Grupo_26671" data-name="Grupo 26671">
          <path id="Trazado_20926" data-name="Trazado 20926" d="M39.119,294.364a1.241,1.241,0,1,0,.364.878A1.25,1.25,0,0,0,39.119,294.364Z" transform="translate(-37 -294)" fill="#7d58bd"/>
        </g>
      </g>
      <g id="Grupo_26674" data-name="Grupo 26674" transform="translate(0 19.998)">
        <g id="Grupo_26673" data-name="Grupo 26673">
          <path id="Trazado_20927" data-name="Trazado 20927" d="M58.351,20H5.214A5.22,5.22,0,0,0,0,25.212V60.223a6.215,6.215,0,0,0,6.208,6.208H25.079v4.718H23.34a5.22,5.22,0,0,0-5.214,5.214v.993A1.242,1.242,0,0,0,19.368,78.6H44.2a1.242,1.242,0,0,0,1.242-1.242v-.993a5.22,5.22,0,0,0-5.214-5.214H38.487V66.431H57.358a6.215,6.215,0,0,0,6.208-6.208V25.212A5.22,5.22,0,0,0,58.351,20ZM40.225,73.632a2.735,2.735,0,0,1,2.72,2.483H20.62a2.735,2.735,0,0,1,2.72-2.483ZM27.562,71.149V66.431H36v4.718ZM61.082,60.223a3.729,3.729,0,0,1-3.725,3.725H6.208a3.729,3.729,0,0,1-3.725-3.725V25.212a2.734,2.734,0,0,1,2.731-2.731H30.541V54.016H10.3a1.242,1.242,0,0,0,0,2.483H61.082Zm0-6.207H33.024V22.481H58.351a2.734,2.734,0,0,1,2.731,2.731Z" transform="translate(0 -19.998)" fill="#7d58bd"/>
        </g>
      </g>
      <g id="Grupo_26676" data-name="Grupo 26676" transform="translate(35.523 24.964)">
        <g id="Grupo_26675" data-name="Grupo 26675">
          <path id="Trazado_20928" data-name="Trazado 20928" d="M306.736,60H287.369a1.242,1.242,0,0,0-1.242,1.242v8.939a1.241,1.241,0,0,0,1.242,1.242h19.368a1.242,1.242,0,0,0,1.242-1.242V61.24A1.242,1.242,0,0,0,306.736,60Zm-1.242,8.939H288.61V62.481h16.885Z" transform="translate(-286.127 -59.998)" fill="#7d58bd"/>
        </g>
      </g>
      <g id="Grupo_26678" data-name="Grupo 26678" transform="translate(6.254 38.621)">
        <g id="Grupo_26677" data-name="Grupo 26677">
          <path id="Trazado_20929" data-name="Trazado 20929" d="M59.712,170H51.618a1.242,1.242,0,1,0,0,2.483h8.094a1.242,1.242,0,1,0,0-2.483Z" transform="translate(-50.376 -169.997)" fill="#7d58bd"/>
        </g>
      </g>
      <g id="Grupo_26680" data-name="Grupo 26680" transform="translate(18.621 38.621)">
        <g id="Grupo_26679" data-name="Grupo 26679">
          <path id="Trazado_20930" data-name="Trazado 20930" d="M157.411,170h-6.182a1.242,1.242,0,1,0,0,2.483h6.182a1.242,1.242,0,1,0,0-2.483Z" transform="translate(-149.987 -169.997)" fill="#7d58bd"/>
        </g>
      </g>
      <g id="Grupo_26682" data-name="Grupo 26682" transform="translate(22.492 48.551)">
        <g id="Grupo_26681" data-name="Grupo 26681">
          <path id="Trazado_20931" data-name="Trazado 20931" d="M184.717,249.986h-2.312a1.242,1.242,0,0,0,0,2.483h2.312a1.242,1.242,0,0,0,0-2.483Z" transform="translate(-181.164 -249.986)" fill="#7d58bd"/>
        </g>
      </g>
      <g id="Grupo_26684" data-name="Grupo 26684" transform="translate(6.254 48.553)">
        <g id="Grupo_26683" data-name="Grupo 26683">
          <path id="Trazado_20932" data-name="Trazado 20932" d="M62.9,250H51.618a1.242,1.242,0,1,0,0,2.483H62.9a1.242,1.242,0,1,0,0-2.483Z" transform="translate(-50.376 -249.997)" fill="#7d58bd"/>
        </g>
      </g>
      <g id="Grupo_26686" data-name="Grupo 26686" transform="translate(6.254 43.586)">
        <g id="Grupo_26685" data-name="Grupo 26685">
          <path id="Trazado_20933" data-name="Trazado 20933" d="M55.665,209.995H51.618a1.242,1.242,0,1,0,0,2.483h4.047a1.242,1.242,0,1,0,0-2.483Z" transform="translate(-50.376 -209.995)" fill="#7d58bd"/>
        </g>
      </g>
      <g id="Grupo_26688" data-name="Grupo 26688" transform="translate(16.264 43.586)">
        <g id="Grupo_26687" data-name="Grupo 26687">
          <path id="Trazado_20934" data-name="Trazado 20934" d="M140.781,209.995h-8.539a1.242,1.242,0,1,0,0,2.483h8.539a1.242,1.242,0,1,0,0-2.483Z" transform="translate(-131 -209.995)" fill="#7d58bd"/>
        </g>
      </g>
      <g id="Grupo_26690" data-name="Grupo 26690" transform="translate(35.578 38.621)">
        <g id="Grupo_26689" data-name="Grupo 26689">
          <path id="Trazado_20935" data-name="Trazado 20935" d="M307.125,170H287.813a1.242,1.242,0,1,0,0,2.483h19.312a1.242,1.242,0,1,0,0-2.483Z" transform="translate(-286.571 -169.997)" fill="#7d58bd"/>
        </g>
      </g>
      <g id="Grupo_26692" data-name="Grupo 26692" transform="translate(54.891 48.553)">
        <g id="Grupo_26691" data-name="Grupo 26691">
          <path id="Trazado_20936" data-name="Trazado 20936" d="M444.249,250.364a1.241,1.241,0,1,0,.364.878A1.248,1.248,0,0,0,444.249,250.364Z" transform="translate(-442.13 -250)" fill="#7d58bd"/>
        </g>
      </g>
      <g id="Grupo_26694" data-name="Grupo 26694" transform="translate(35.578 48.553)">
        <g id="Grupo_26693" data-name="Grupo 26693">
          <path id="Trazado_20937" data-name="Trazado 20937" d="M302.081,250H287.813a1.242,1.242,0,1,0,0,2.483h14.269a1.242,1.242,0,1,0,0-2.483Z" transform="translate(-286.571 -249.997)" fill="#7d58bd"/>
        </g>
      </g>
      <g id="Grupo_26696" data-name="Grupo 26696" transform="translate(35.578 43.586)">
        <g id="Grupo_26695" data-name="Grupo 26695">
          <path id="Trazado_20938" data-name="Trazado 20938" d="M307.125,209.995H287.813a1.242,1.242,0,1,0,0,2.483h19.312a1.242,1.242,0,1,0,0-2.483Z" transform="translate(-286.571 -209.995)" fill="#7d58bd"/>
        </g>
      </g>
      <g id="Grupo_26698" data-name="Grupo 26698" transform="translate(6.254 25.718)">
        <g id="Grupo_26697" data-name="Grupo 26697">
          <path id="Trazado_20939" data-name="Trazado 20939" d="M53.373,70.534l2.34-2.34a1.242,1.242,0,0,0-1.756-1.756L50.74,69.656a1.242,1.242,0,0,0,0,1.756l3.218,3.218a1.242,1.242,0,0,0,1.756-1.756Z" transform="translate(-50.376 -66.074)" fill="#7d58bd"/>
        </g>
      </g>
      <g id="Grupo_26700" data-name="Grupo 26700" transform="translate(21.069 25.719)">
        <g id="Grupo_26699" data-name="Grupo 26699">
          <path id="Trazado_20940" data-name="Trazado 20940" d="M175.039,69.659l-3.218-3.218a1.242,1.242,0,0,0-1.756,1.756l2.34,2.34-2.34,2.34a1.241,1.241,0,0,0,1.756,1.756l3.218-3.218A1.242,1.242,0,0,0,175.039,69.659Z" transform="translate(-169.701 -66.077)" fill="#7d58bd"/>
        </g>
      </g>
      <g id="Grupo_26702" data-name="Grupo 26702" transform="translate(12.998 25.07)">
        <g id="Grupo_26701" data-name="Grupo 26701">
          <path id="Trazado_20941" data-name="Trazado 20941" d="M111.112,61.026a1.241,1.241,0,0,0-1.7.441L104.869,69.2a1.242,1.242,0,1,0,2.141,1.258l4.544-7.733A1.241,1.241,0,0,0,111.112,61.026Z" transform="translate(-104.697 -60.854)" fill="#7d58bd"/>
        </g>
      </g>
    </g>
  </g>
</svg>
