<svg xmlns="http://www.w3.org/2000/svg" width="77.582" height="77.004" viewBox="0 0 77.582 77.004">
  <g id="Grupo_27786" data-name="Grupo 27786" transform="translate(-457 -11814)">
    <circle id="Elipse_914" data-name="Elipse 914" cx="33" cy="33" r="33" transform="translate(457 11814)" fill="#e6d8e8"/>
    <g id="Outline" transform="translate(459.218 11815.64)">
      <path id="Trazado_22268" data-name="Trazado 22268" d="M61.513,60.523H17.979V37.767A2.952,2.952,0,0,1,19.4,35.23l-1.031-1.689A4.916,4.916,0,0,0,16,37.767V63.491a4.953,4.953,0,0,0,4.947,4.947H34.476l-1.413,4.947H29.852v1.979H49.64V73.385H46.428l-1.413-4.947h7.593V66.459H20.947a2.972,2.972,0,0,1-2.968-2.968V62.5H61.513v.989a2.972,2.972,0,0,1-2.968,2.968H54.587v1.979h3.958a4.953,4.953,0,0,0,4.947-4.947V47.661H61.513ZM42.957,68.438l1.413,4.947h-9.25l1.413-4.947ZM58.544,45.682V58.544H56.566V45.682ZM22.926,58.544H20.947V27.872A3.962,3.962,0,0,1,24.9,23.915H45.682v1.979H24.9a1.981,1.981,0,0,0-1.979,1.979Zm3.958-30.672v1.979H24.9V27.872Zm3.958,0v1.979H28.862V27.872Zm3.958,0v1.979H32.82V27.872ZM24.9,31.83H43.7v1.979H24.9ZM45.225,39.1l.915-1.755A13.854,13.854,0,0,0,28.093,57.131a.989.989,0,0,0,1.367.3l3.331-2.142a.989.989,0,0,0,.3-1.368,7.906,7.906,0,0,1-.215-8.2h0a7.91,7.91,0,0,1,13.2-.829l-4.388,2.508a2.97,2.97,0,1,0,.983,1.717L47.053,46.6a7.9,7.9,0,0,1-.65,7.316.989.989,0,0,0,.3,1.368l3.331,2.142a.989.989,0,0,0,1.367-.3,13.842,13.842,0,0,0-2.063-17.487l-1.37,1.428a11.923,11.923,0,0,1,1.563,1.837L47.8,43.9a9.934,9.934,0,0,0-7.066-4.1V37.806A11.7,11.7,0,0,1,45.225,39.1ZM39.746,50.629a.989.989,0,1,1,.989-.989A.989.989,0,0,1,39.746,50.629Zm10.489,4.578L48.561,54.13a9.889,9.889,0,0,0,.223-8.516l1.728-.987a11.894,11.894,0,0,1-.276,10.579Zm-20.979,0a11.894,11.894,0,0,1-.276-10.579l1.728.987a9.888,9.888,0,0,0,.223,8.516ZM31.691,43.9l-1.728-.987a11.921,11.921,0,0,1,8.793-5.1v1.987a9.933,9.933,0,0,0-7.065,4.1ZM75.364,30.841a.989.989,0,0,0-.323-.731l-2.679-2.441,1.1-3.453a.989.989,0,0,0-.732-1.267l-3.54-.774-.774-3.54a.989.989,0,0,0-1.267-.731L63.7,19l-2.441-2.679a.989.989,0,0,0-1.463,0L57.351,19,53.9,17.9a.989.989,0,0,0-1.267.732l-.774,3.541-3.54.774a.989.989,0,0,0-.731,1.267l1.1,3.453-2.679,2.441a.989.989,0,0,0,0,1.463l2.679,2.441-1.1,3.453a.989.989,0,0,0,.731,1.267l3.54.774.774,3.541a.989.989,0,0,0,1.267.731l3.453-1.1,2.441,2.679a.989.989,0,0,0,1.463,0L63.7,42.68l3.453,1.1a.989.989,0,0,0,1.267-.731l.774-3.541,3.54-.774a.989.989,0,0,0,.731-1.267l-1.1-3.453,2.679-2.441A.989.989,0,0,0,75.364,30.841Zm-4.8,2.137a.989.989,0,0,0-.276,1.032l.963,3.023-3.1.678a.989.989,0,0,0-.755.755l-.678,3.1L63.692,40.6a.99.99,0,0,0-1.032.276l-2.137,2.345-2.137-2.345a.989.989,0,0,0-1.032-.276l-3.023.963-.678-3.1a.989.989,0,0,0-.755-.755l-3.1-.678.963-3.023a.989.989,0,0,0-.276-1.032l-2.345-2.137L50.486,28.7a.989.989,0,0,0,.276-1.032L49.8,24.649l3.1-.678a.989.989,0,0,0,.755-.755l.678-3.1,3.023.963a.989.989,0,0,0,1.032-.276l2.137-2.345L62.66,20.8a.99.99,0,0,0,1.032.276l3.023-.963.678,3.1a.989.989,0,0,0,.755.755l3.1.678-.963,3.023a.989.989,0,0,0,.276,1.032l2.345,2.137Zm-5.09-5.1H63.492V25.894a2.972,2.972,0,0,0-2.968-2.968H58.544a.989.989,0,0,0-.989.989v3.346l-3.411,1.705a.989.989,0,0,0-.547.885v6.926a.989.989,0,0,0,.989.989H65.47a1.981,1.981,0,0,0,1.979-1.979V29.851A1.981,1.981,0,0,0,65.47,27.872Zm0,7.915H55.576V30.463l3.411-1.705a.989.989,0,0,0,.547-.885V24.9h.989a.991.991,0,0,1,.989.989v2.968a.989.989,0,0,0,.989.989H65.47ZM28.862,37.767H24.9V35.788h3.958ZM24.9,39.745h1.979v1.979H24.9Z" transform="translate(0 0)" fill="#7d58bd"/>
    </g>
  </g>
</svg>
