<svg xmlns="http://www.w3.org/2000/svg" width="76.221" height="77" viewBox="0 0 76.221 77">
  <g id="Grupo_26704" data-name="Grupo 26704" transform="translate(-573 -5372)">
    <circle id="Elipse_887" data-name="Elipse 887" cx="33" cy="33" r="33" transform="translate(573 5372)" fill="#e6d8e8"/>
    <g id="data-analytics" transform="translate(587.221 5387)">
      <path id="Trazado_20917" data-name="Trazado 20917" d="M355,195h2a1,1,0,0,1,1,1h2a3,3,0,0,0-3-3v-1h-2v1a3,3,0,0,0,0,6h2a1,1,0,0,1,0,2h-2a1,1,0,0,1-1-1h-2a3,3,0,0,0,3,3v1h2v-1a3,3,0,1,0,0-6h-2a1,1,0,1,1,0-2Zm0,0" transform="translate(-308 -168)" fill="#7d58bd"/>
      <path id="Trazado_20918" data-name="Trazado 20918" d="M340.329,162a8.009,8.009,0,0,1,8,8,7.9,7.9,0,0,1-1.753,4.988l1.561,1.25A9.881,9.881,0,0,0,350.329,170a10.011,10.011,0,0,0-10-10,9.9,9.9,0,0,0-6.239,2.191l1.25,1.562A7.906,7.906,0,0,1,340.329,162Zm0,0" transform="translate(-292.329 -140)" fill="#7d58bd"/>
      <path id="Trazado_20919" data-name="Trazado 20919" d="M314,206.335a9.9,9.9,0,0,0,6.239-2.19l-1.25-1.562A7.91,7.91,0,0,1,314,204.335a8.009,8.009,0,0,1-8-8,7.9,7.9,0,0,1,1.753-4.989l-1.562-1.249A9.886,9.886,0,0,0,304,196.335,10.011,10.011,0,0,0,314,206.335Zm0,0" transform="translate(-266 -166.335)" fill="#7d58bd"/>
      <path id="Trazado_20920" data-name="Trazado 20920" d="M62,30a14.043,14.043,0,0,0-.143-1.891A31.117,31.117,0,0,0,52.076,8.266L50.717,9.733a29.031,29.031,0,0,1,7.117,10.316A13.938,13.938,0,0,0,44,16.59V7.414l4-4V7h2V0H43V2h3.586L45.157,3.429a31,31,0,1,0-1,55.634A3.99,3.99,0,0,0,52,58V53.791A31.043,31.043,0,0,0,62,31c0-.22-.013-.439-.017-.659,0-.114.017-.226.017-.341Zm-2.132-1.683c.063.671.1,1.346.115,2.024a12.006,12.006,0,1,1-.115-2.024ZM50,46H46V43.84A13.989,13.989,0,0,0,48,44a13.849,13.849,0,0,0,2-.16ZM36,45v5H32V19.414l4-4v7.412a13.866,13.866,0,0,0,0,14.348V43h2V39.779a14,14,0,0,0,6,3.631V50H38V45ZM24,33V50H20V23.414l4-4V31h2V17.414l1-1,3,3V50H26V33ZM12,41v9H9.119Q8.54,49.335,8,48.634V35.414l4-4V39h2V29.414l4-4V50H14V41ZM42,17.37a14.02,14.02,0,0,0-4,2.851V13.414l4-4ZM31,2A29.028,29.028,0,0,1,43.672,4.913L31,17.586l-4-4L23.586,17H14v2h7.586l-2,2H14v2h3.586L8,32.586V13.366A28.964,28.964,0,0,1,31,2ZM6,16.329V45.671A28.9,28.9,0,0,1,6,16.329ZM11.032,52H44v4.917A28.931,28.931,0,0,1,11.032,52ZM48,60a2,2,0,0,1-2-2V48h4V58A2,2,0,0,1,48,60Zm4-9.016V43.411a14.032,14.032,0,0,0,6.955-4.718A29.055,29.055,0,0,1,52,50.984Zm0,0" fill="#7d58bd"/>
      <path id="Trazado_20921" data-name="Trazado 20921" d="M80,104h2v2H80Zm0,0" transform="translate(-70 -91)" fill="#7d58bd"/>
      <path id="Trazado_20922" data-name="Trazado 20922" d="M112,104h10v2H112Zm0,0" transform="translate(-98 -91)" fill="#7d58bd"/>
      <path id="Trazado_20923" data-name="Trazado 20923" d="M80,136h2v2H80Zm0,0" transform="translate(-70 -119)" fill="#7d58bd"/>
      <path id="Trazado_20924" data-name="Trazado 20924" d="M80,168h2v2H80Zm0,0" transform="translate(-70 -147)" fill="#7d58bd"/>
    </g>
  </g>
</svg>
