<svg xmlns="http://www.w3.org/2000/svg" width="75.966" height="77.003" viewBox="0 0 75.966 77.003">
  <g id="Grupo_27787" data-name="Grupo 27787" transform="translate(-573 -11814)">
    <circle id="Elipse_1004" data-name="Elipse 1004" cx="33" cy="33" r="33" transform="translate(573 11814)" fill="#e6d8e8"/>
    <g id="email-marketing_1_" data-name="email-marketing (1)" transform="translate(590.267 11829.094)">
      <path id="Trazado_22269" data-name="Trazado 22269" d="M57.839,40.85a.86.86,0,0,0,.86-.86V26.655a.86.86,0,0,0-.347-.69l-9.8-7.28V8.082a3.922,3.922,0,0,0-3.917-3.917H30.6a.86.86,0,0,0,0,1.72H44.635a2.2,2.2,0,0,1,2.2,2.2V35.175l-8.906,7.82c-3.547.023-15.014,0-17.082,0L11.866,35.14V8.082a2.2,2.2,0,0,1,2.2-2.2h12.79a.86.86,0,1,0,0-1.72H14.064a3.922,3.922,0,0,0-3.917,3.917V18.251L.328,25.98A.86.86,0,0,0,0,26.655V57.61a4.3,4.3,0,0,0,4.3,4.3H54.4a4.3,4.3,0,0,0,4.3-4.3V43.738a.86.86,0,1,0-1.72,0V57.61a2.558,2.558,0,0,1-.323,1.252l-17.1-15.01,17.422-15.3V39.99a.86.86,0,0,0,.86.86ZM48.553,20.827l7.92,5.884-7.92,6.954ZM10.146,33.636,2.206,26.69l7.941-6.25ZM4.3,60.189a2.571,2.571,0,0,1-.951-.182l9.968-8.714A.86.86,0,1,0,12.184,50L2.044,58.864A2.557,2.557,0,0,1,1.72,57.61V28.55l8.72,7.628h0l8.775,7.675-3.284,2.87A.86.86,0,1,0,17.078,48l3.765-3.291c2.078,0,13.526.025,17.089,0L55.354,60.007a2.571,2.571,0,0,1-.954.183H4.3Z" transform="translate(0 0)" fill="#7d58bd"/>
      <path id="Trazado_22270" data-name="Trazado 22270" d="M131.176,86.233a2.931,2.931,0,0,0,2.927-2.927V77.044h.947l8.02,4.01a2.583,2.583,0,0,0,5.1-.563V63.262a2.583,2.583,0,0,0-5.1-.563l-8.02,4.01h-5.827a5.167,5.167,0,0,0-.975,10.241v6.355A2.931,2.931,0,0,0,131.176,86.233Zm1.208-2.927a1.208,1.208,0,1,1-2.415,0V77.044h2.415ZM145.591,62.4a.864.864,0,0,1,.863.863v17.23a.863.863,0,1,1-1.726,0V63.262a.864.864,0,0,1,.863-.863Zm-2.583,16.7-6.9-3.448V68.1l6.9-3.448Zm-17.233-7.224a3.451,3.451,0,0,1,3.448-3.448h5.171v6.9h-5.17A3.452,3.452,0,0,1,125.776,71.877Z" transform="translate(-109.833 -50.035)" fill="#7d58bd"/>
      <path id="Trazado_22271" data-name="Trazado 22271" d="M349.575,80.05a.86.86,0,0,0-1.216,0l-3.216,3.216a.86.86,0,0,0,1.216,1.216l3.216-3.216A.86.86,0,0,0,349.575,80.05Z" transform="translate(-305.351 -66.962)" fill="#7d58bd"/>
      <path id="Trazado_22272" data-name="Trazado 22272" d="M345.143,195.963l3.216,3.216a.86.86,0,0,0,1.216-1.216l-3.216-3.216a.86.86,0,0,0-1.216,1.216Z" transform="translate(-305.351 -168.51)" fill="#7d58bd"/>
      <path id="Trazado_22273" data-name="Trazado 22273" d="M348.967,150.85h-3.216a.86.86,0,0,0,0,1.72h3.216a.86.86,0,0,0,0-1.72Z" transform="translate(-305.35 -129.868)" fill="#7d58bd"/>
    </g>
  </g>
</svg>
