<svg xmlns="http://www.w3.org/2000/svg" width="373.507" height="306.682" viewBox="0 0 373.507 306.682">
  <g id="Grupo_26836" data-name="Grupo 26836" transform="translate(-730.746 -5603.371)">
    <g id="Grupo_26834" data-name="Grupo 26834">
      <g id="Grupo_26829" data-name="Grupo 26829" transform="translate(353.865 5167.371)">
        <g id="Grupo_26779" data-name="Grupo 26779" transform="translate(648.352 437.65)">
          <path id="Trazado_20994" data-name="Trazado 20994" d="M1616.5,443h-74.829a12.647,12.647,0,0,0-12.793,12.6v39.677a12.789,12.789,0,0,0,12.793,12.765h26.851l17.607,17.605,12.847-17.605H1616.5a12.765,12.765,0,0,0,12.765-12.765V455.6A12.623,12.623,0,0,0,1616.5,443Zm-4.373,53.176a4.367,4.367,0,1,1,4.367-4.367A4.367,4.367,0,0,1,1612.131,496.176Z" transform="translate(-1528.882 -443)" fill="#fcd118"/>
        </g>
        <g id="Grupo_26780" data-name="Grupo 26780" transform="translate(506.49 474.411)">
          <path id="Trazado_20995" data-name="Trazado 20995" d="M938.052,599h-8.436a2.734,2.734,0,0,0-2.734,2.734V738.6a2.734,2.734,0,0,0,2.734,2.734h8.436a2.734,2.734,0,0,0,2.734-2.734V601.734A2.734,2.734,0,0,0,938.052,599Z" transform="translate(-926.882 -599)" fill="#fcd118"/>
        </g>
        <g id="Grupo_26781" data-name="Grupo 26781" transform="translate(378.532 520.363)">
          <path id="Trazado_20996" data-name="Trazado 20996" d="M383.882,801.281V834.32a7.281,7.281,0,0,0,7.281,7.281h21V794h-21A7.281,7.281,0,0,0,383.882,801.281Z" transform="translate(-383.882 -794)" fill="#b869c3"/>
        </g>
        <g id="Grupo_26782" data-name="Grupo 26782" transform="translate(674.881 679.564)">
          <circle id="Elipse_915" data-name="Elipse 915" cx="30.734" cy="30.734" r="30.734" transform="translate(0 0)" fill="#e6d8e8"/>
        </g>
        <g id="Grupo_26793" data-name="Grupo 26793" transform="translate(376.882 472.762)">
          <g id="Grupo_26789" data-name="Grupo 26789" transform="translate(0 0)">
            <g id="Grupo_26783" data-name="Grupo 26783" transform="translate(28.278 23.329)">
              <path id="Trazado_20997" data-name="Trazado 20997" d="M513.707,858.784H501.03a4.153,4.153,0,0,1-4.148-4.148V695.148A4.153,4.153,0,0,1,501.03,691h12.677a4.152,4.152,0,0,1,4.148,4.148V854.636A4.152,4.152,0,0,1,513.707,858.784ZM501.03,694.3a.85.85,0,0,0-.849.849V854.636a.85.85,0,0,0,.849.849h12.677a.85.85,0,0,0,.849-.849V695.148a.85.85,0,0,0-.849-.849Z" transform="translate(-496.882 -691)" fill="#1e243a"/>
            </g>
            <g id="Grupo_26784" data-name="Grupo 26784" transform="translate(48.073 102.386)">
              <path id="Trazado_20998" data-name="Trazado 20998" d="M591.909,1049.226h-9.378a1.65,1.65,0,0,1,0-3.3h9.378a1.758,1.758,0,0,0,1.74-2.008l-2.239-15.553a1.65,1.65,0,0,1,3.265-.47l2.239,15.552a5.057,5.057,0,0,1-5.005,5.778Z" transform="translate(-580.882 -1026.481)" fill="#1e243a"/>
            </g>
            <g id="Grupo_26785" data-name="Grupo 26785" transform="translate(127.959)">
              <path id="Trazado_20999" data-name="Trazado 20999" d="M932.7,737.632h-8.436a4.389,4.389,0,0,1-4.384-4.384v-62.07a1.65,1.65,0,0,1,3.3,0v62.07a1.086,1.086,0,0,0,1.084,1.084H932.7a1.086,1.086,0,0,0,1.084-1.084V596.384A1.086,1.086,0,0,0,932.7,595.3h-8.436a1.086,1.086,0,0,0-1.084,1.084v38.269a1.65,1.65,0,0,1-3.3,0V596.384A4.389,4.389,0,0,1,924.266,592H932.7a4.388,4.388,0,0,1,4.383,4.384V733.249A4.388,4.388,0,0,1,932.7,737.632Z" transform="translate(-919.882 -592)" fill="#1e243a"/>
            </g>
            <g id="Grupo_26786" data-name="Grupo 26786" transform="translate(0 45.952)">
              <path id="Trazado_21000" data-name="Trazado 21000" d="M404.689,837.9H385.813a8.941,8.941,0,0,1-8.931-8.931V795.931A8.941,8.941,0,0,1,385.813,787h18.876a1.65,1.65,0,1,1,0,3.3H385.813a5.638,5.638,0,0,0-5.632,5.632V828.97a5.638,5.638,0,0,0,5.632,5.632h18.876a1.65,1.65,0,1,1,0,3.3Z" transform="translate(-376.882 -787)" fill="#1e243a"/>
            </g>
            <g id="Grupo_26787" data-name="Grupo 26787" transform="translate(46.426 96.664)">
              <path id="Trazado_21001" data-name="Trazado 21001" d="M656.906,1040.2a1.644,1.644,0,0,1-.646-.133l-81.364-34.7a1.65,1.65,0,0,1,1.294-3.035l81.363,34.7a1.65,1.65,0,0,1-.648,3.167Z" transform="translate(-573.893 -1002.2)" fill="#1e243a"/>
            </g>
            <g id="Grupo_26788" data-name="Grupo 26788" transform="translate(46.426 7.789)">
              <path id="Trazado_21002" data-name="Trazado 21002" d="M575.544,663.05a1.65,1.65,0,0,1-.648-3.167l81.364-34.7a1.65,1.65,0,1,1,1.294,3.035l-81.363,34.7A1.645,1.645,0,0,1,575.544,663.05Z" transform="translate(-573.893 -625.052)" fill="#1e243a"/>
            </g>
          </g>
          <g id="Grupo_26790" data-name="Grupo 26790" transform="translate(106.514 86.955)">
            <path id="Trazado_21003" data-name="Trazado 21003" d="M830.532,982.916a1.65,1.65,0,0,1-1.65-1.65V962.65a1.65,1.65,0,0,1,3.3,0v18.616A1.65,1.65,0,0,1,830.532,982.916Z" transform="translate(-828.882 -961)" fill="#1e243a"/>
          </g>
          <g id="Grupo_26791" data-name="Grupo 26791" transform="translate(106.514 59.384)">
            <path id="Trazado_21004" data-name="Trazado 21004" d="M830.532,858.139a1.65,1.65,0,0,1-1.65-1.65V845.65a1.65,1.65,0,0,1,3.3,0v10.84A1.65,1.65,0,0,1,830.532,858.139Z" transform="translate(-828.882 -844)" fill="#1e243a"/>
          </g>
          <g id="Grupo_26792" data-name="Grupo 26792" transform="translate(10.604 45.952)">
            <path id="Trazado_21005" data-name="Trazado 21005" d="M423.532,806.559a1.65,1.65,0,0,1-1.65-1.65V788.65a1.65,1.65,0,0,1,3.3,0v16.26A1.65,1.65,0,0,1,423.532,806.559Z" transform="translate(-421.882 -787)" fill="#1e243a"/>
          </g>
        </g>
        <g id="Grupo_26796" data-name="Grupo 26796" transform="translate(673.231 677.914)">
          <g id="Grupo_26794" data-name="Grupo 26794" transform="translate(13.942 21.545)">
            <path id="Trazado_21006" data-name="Trazado 21006" d="M1709.183,1576.975a1.646,1.646,0,0,1-1.166-.483l-13.911-13.911a1.65,1.65,0,0,1,2.333-2.333l12.745,12.745,18.507-18.507a1.649,1.649,0,0,1,2.333,2.333l-19.674,19.674A1.646,1.646,0,0,1,1709.183,1576.975Z" transform="translate(-1693.622 -1554.002)" fill="#1e243a"/>
          </g>
          <g id="Grupo_26795" data-name="Grupo 26795" transform="translate(0)">
            <path id="Trazado_21007" data-name="Trazado 21007" d="M1666.843,1527.345a32.384,32.384,0,1,1,32.384-32.384A32.421,32.421,0,0,1,1666.843,1527.345Zm0-61.469a29.085,29.085,0,1,0,29.085,29.085A29.118,29.118,0,0,0,1666.843,1465.876Z" transform="translate(-1634.459 -1462.577)" fill="#1e243a"/>
          </g>
        </g>
        <g id="Grupo_26802" data-name="Grupo 26802" transform="translate(646.703 436)">
          <g id="Grupo_26797" data-name="Grupo 26797" transform="translate(0 0)">
            <path id="Trazado_21008" data-name="Trazado 21008" d="M1580.782,521.944a1.649,1.649,0,0,1-1.166-.483l-17.124-17.122h-26.167a14.445,14.445,0,0,1-14.443-14.414V450.247a14.053,14.053,0,0,1,4.249-10.121A14.475,14.475,0,0,1,1536.324,436h74.829a14.434,14.434,0,0,1,10.182,4.128,14.07,14.07,0,0,1,4.232,10.12v39.677a14.431,14.431,0,0,1-14.415,14.414h-16.686l-12.353,16.928a1.65,1.65,0,0,1-1.2.672C1580.867,521.942,1580.825,521.944,1580.782,521.944ZM1536.324,439.3a11.06,11.06,0,0,0-11.143,10.948v39.677a11.142,11.142,0,0,0,11.143,11.115h26.851a1.649,1.649,0,0,1,1.167.483l16.244,16.242,11.711-16.049a1.65,1.65,0,0,1,1.333-.677h17.525a11.128,11.128,0,0,0,11.115-11.115V450.247a10.915,10.915,0,0,0-11.115-10.948Z" transform="translate(-1521.882 -436)" fill="#1e243a"/>
          </g>
          <g id="Grupo_26800" data-name="Grupo 26800" transform="translate(14.61 23.801)">
            <g id="Grupo_26798" data-name="Grupo 26798">
              <path id="Trazado_21009" data-name="Trazado 21009" d="M1656.934,540.3h-71.4a1.65,1.65,0,1,1,0-3.3h71.4a1.65,1.65,0,0,1,0,3.3Z" transform="translate(-1583.882 -537)" fill="#1e243a"/>
            </g>
            <g id="Grupo_26799" data-name="Grupo 26799" transform="translate(0 17.438)">
              <path id="Trazado_21010" data-name="Trazado 21010" d="M1621.115,614.3h-35.583a1.65,1.65,0,1,1,0-3.3h35.583a1.65,1.65,0,1,1,0,3.3Z" transform="translate(-1583.882 -611)" fill="#1e243a"/>
            </g>
          </g>
          <g id="Grupo_26801" data-name="Grupo 26801" transform="translate(78.882 44.442)">
            <path id="Trazado_21011" data-name="Trazado 21011" d="M1862.64,636.625a6.017,6.017,0,1,1,6.017-6.017A6.023,6.023,0,0,1,1862.64,636.625Zm0-8.734a2.718,2.718,0,1,0,2.718,2.718A2.72,2.72,0,0,0,1862.64,627.891Z" transform="translate(-1856.623 -624.592)" fill="#1e243a"/>
          </g>
        </g>
        <g id="Grupo_26805" data-name="Grupo 26805" transform="translate(575.536 465.221)">
          <g id="Grupo_26803" data-name="Grupo 26803" transform="translate(5.184 0)">
            <path id="Trazado_21012" data-name="Trazado 21012" d="M1243.531,573.9a1.65,1.65,0,0,1-1.65-1.65v-10.6a1.65,1.65,0,0,1,3.3,0v10.6A1.65,1.65,0,0,1,1243.531,573.9Z" transform="translate(-1241.882 -560)" fill="#1e243a"/>
          </g>
          <g id="Grupo_26804" data-name="Grupo 26804" transform="translate(0 5.42)">
            <path id="Trazado_21013" data-name="Trazado 21013" d="M1232.136,586.3h-10.6a1.65,1.65,0,0,1,0-3.3h10.6a1.65,1.65,0,1,1,0,3.3Z" transform="translate(-1219.882 -583)" fill="#1e243a"/>
          </g>
        </g>
        <g id="Grupo_26808" data-name="Grupo 26808" transform="translate(556.448 655.391)">
          <g id="Grupo_26806" data-name="Grupo 26806" transform="translate(5.184)">
            <path id="Trazado_21014" data-name="Trazado 21014" d="M1162.531,1380.9a1.65,1.65,0,0,1-1.65-1.65v-10.6a1.65,1.65,0,0,1,3.3,0v10.6A1.65,1.65,0,0,1,1162.531,1380.9Z" transform="translate(-1160.882 -1367)" fill="#1e243a"/>
          </g>
          <g id="Grupo_26807" data-name="Grupo 26807" transform="translate(0 5.42)">
            <path id="Trazado_21015" data-name="Trazado 21015" d="M1151.136,1393.3h-10.6a1.65,1.65,0,0,1,0-3.3h10.6a1.65,1.65,0,1,1,0,3.3Z" transform="translate(-1138.882 -1390)" fill="#1e243a"/>
          </g>
        </g>
        <g id="Grupo_26815" data-name="Grupo 26815" transform="translate(427.386 448.381)">
          <path id="Trazado_21020" data-name="Trazado 21020" d="M602.181,512.324a2.336,2.336,0,0,1,2.3-2.389h0a2.326,2.326,0,0,1,2.413,2.261h0a2.3,2.3,0,0,1-2.3,2.374h-.059A2.312,2.312,0,0,1,602.181,512.324Zm-6.98-1.3h0a2.358,2.358,0,0,1-.061-3.332h0a2.356,2.356,0,0,1,3.332-.061h0a2.354,2.354,0,0,1,.061,3.332h0a2.344,2.344,0,0,1-1.7.721h0A2.353,2.353,0,0,1,595.2,511.021Zm15.261-.361a2.359,2.359,0,0,1-.1-3.332h0a2.359,2.359,0,0,1,3.332-.1h0a2.359,2.359,0,0,1,.1,3.332h0a2.356,2.356,0,0,1-1.718.742h0A2.351,2.351,0,0,1,610.462,510.661ZM591.2,501.822a2.381,2.381,0,0,1,2.328-2.41h0a2.389,2.389,0,0,1,2.385,2.366h0a2.378,2.378,0,0,1-2.326,2.423h-.03A2.4,2.4,0,0,1,591.2,501.822Zm21.418-.563h0a2.339,2.339,0,0,1,2.267-2.424h0a2.334,2.334,0,0,1,2.441,2.242h0a2.3,2.3,0,0,1-2.267,2.418h-.087A2.326,2.326,0,0,1,612.618,501.259Zm-17.627-5.5a2.356,2.356,0,0,1-.021-3.332h0a2.356,2.356,0,0,1,3.332-.021h0a2.359,2.359,0,0,1,.021,3.334h0a2.353,2.353,0,0,1-1.678.7h0A2.342,2.342,0,0,1,594.991,495.758Zm14.919-.311a2.357,2.357,0,0,1-.143-3.33h0a2.357,2.357,0,0,1,3.33-.144h0a2.357,2.357,0,0,1,.144,3.33h0a2.35,2.35,0,0,1-1.737.764h0A2.349,2.349,0,0,1,609.91,495.447Zm-8-4.55a2.356,2.356,0,0,1,2.357-2.357h0a2.357,2.357,0,0,1,2.357,2.357h0a2.356,2.356,0,0,1-2.357,2.357h0A2.355,2.355,0,0,1,601.912,490.9Z" transform="translate(-591.199 -488.54)" fill="#1e243a"/>
        </g>
        <g id="Grupo_26818" data-name="Grupo 26818" transform="translate(470.982 649.156)">
          <path id="Trazado_21023" data-name="Trazado 21023" d="M787.181,1364.324a2.332,2.332,0,0,1,2.3-2.387h0a2.323,2.323,0,0,1,2.413,2.259h0a2.3,2.3,0,0,1-2.3,2.374h-.059A2.31,2.31,0,0,1,787.181,1364.324Zm-6.98-1.3a2.358,2.358,0,0,1-.061-3.332h0a2.356,2.356,0,0,1,3.332-.061h0a2.354,2.354,0,0,1,.061,3.332h0a2.355,2.355,0,0,1-1.7.721h0A2.348,2.348,0,0,1,780.2,1363.021Zm15.261-.36a2.36,2.36,0,0,1-.1-3.332h0a2.359,2.359,0,0,1,3.332-.1h0a2.359,2.359,0,0,1,.1,3.332h0a2.355,2.355,0,0,1-1.718.742h0A2.351,2.351,0,0,1,795.462,1362.661Zm-19.262-8.838a2.381,2.381,0,0,1,2.328-2.41h0a2.389,2.389,0,0,1,2.385,2.366h0a2.378,2.378,0,0,1-2.326,2.423h-.03A2.4,2.4,0,0,1,776.2,1353.823Zm21.418-.529a2.354,2.354,0,0,1,2.267-2.441h0a2.355,2.355,0,0,1,2.441,2.267h0a2.353,2.353,0,0,1-2.267,2.441h0c-.031,0-.059,0-.09,0h0A2.356,2.356,0,0,1,797.618,1353.293Zm-17.627-5.535a2.356,2.356,0,0,1-.021-3.332h0a2.354,2.354,0,0,1,3.332-.019h0a2.356,2.356,0,0,1,.021,3.332h0a2.353,2.353,0,0,1-1.678.7h0A2.345,2.345,0,0,1,779.991,1347.758Zm14.919-.311a2.355,2.355,0,0,1-.144-3.33h0a2.357,2.357,0,0,1,3.33-.144h0a2.357,2.357,0,0,1,.144,3.33h0a2.35,2.35,0,0,1-1.737.764h0A2.349,2.349,0,0,1,794.91,1347.447Zm-8-4.55a2.356,2.356,0,0,1,2.357-2.357h0a2.357,2.357,0,0,1,2.357,2.357h0a2.356,2.356,0,0,1-2.357,2.356h0A2.354,2.354,0,0,1,786.912,1342.9Z" transform="translate(-776.199 -1340.54)" fill="#1e243a"/>
        </g>
        <g id="Grupo_26824" data-name="Grupo 26824" transform="translate(413.879 676.836)">
          <g id="Grupo_26819" data-name="Grupo 26819" transform="translate(0 0)">
            <path id="Trazado_21024" data-name="Trazado 21024" d="M535.532,1464.363a1.65,1.65,0,0,1-1.65-1.65v-3.063a1.65,1.65,0,1,1,3.3,0v3.063A1.65,1.65,0,0,1,535.532,1464.363Z" transform="translate(-533.882 -1458)" fill="#1e243a"/>
          </g>
          <g id="Grupo_26820" data-name="Grupo 26820" transform="translate(0 13.196)">
            <path id="Trazado_21025" data-name="Trazado 21025" d="M535.532,1522.955a1.65,1.65,0,0,1-1.65-1.65v-5.656a1.65,1.65,0,0,1,3.3,0v5.656A1.65,1.65,0,0,1,535.532,1522.955Z" transform="translate(-533.882 -1514)" fill="#1e243a"/>
          </g>
          <g id="Grupo_26821" data-name="Grupo 26821" transform="translate(0 28.985)">
            <path id="Trazado_21026" data-name="Trazado 21026" d="M538.359,1587.127h-2.828a1.65,1.65,0,0,1-1.65-1.65v-2.828a1.65,1.65,0,0,1,3.3,0v1.178h1.178a1.65,1.65,0,1,1,0,3.3Z" transform="translate(-533.882 -1581)" fill="#1e243a"/>
          </g>
          <g id="Grupo_26822" data-name="Grupo 26822" transform="translate(13.668 31.813)">
            <path id="Trazado_21027" data-name="Trazado 21027" d="M813.865,1596.3h-5.891a1.65,1.65,0,1,1,0-3.3h5.891a1.65,1.65,0,1,1,0,3.3Zm-16.5,0h-5.891a1.65,1.65,0,1,1,0-3.3h5.891a1.65,1.65,0,1,1,0,3.3Zm-16.5,0h-5.891a1.65,1.65,0,1,1,0-3.3h5.891a1.65,1.65,0,1,1,0,3.3Zm-16.5,0h-5.891a1.65,1.65,0,1,1,0-3.3h5.891a1.65,1.65,0,1,1,0,3.3Zm-16.5,0h-5.891a1.65,1.65,0,1,1,0-3.3h5.891a1.65,1.65,0,1,1,0,3.3Zm-16.5,0H725.5a1.65,1.65,0,1,1,0-3.3h5.891a1.65,1.65,0,1,1,0,3.3Zm-16.5,0H709a1.65,1.65,0,1,1,0-3.3h5.891a1.65,1.65,0,1,1,0,3.3Zm-16.5,0h-5.891a1.65,1.65,0,1,1,0-3.3H698.4a1.65,1.65,0,1,1,0,3.3Zm-16.5,0h-5.891a1.65,1.65,0,1,1,0-3.3H681.9a1.65,1.65,0,1,1,0,3.3Zm-16.5,0h-5.891a1.65,1.65,0,1,1,0-3.3h5.891a1.65,1.65,0,1,1,0,3.3Zm-16.5,0h-5.891a1.65,1.65,0,1,1,0-3.3h5.891a1.65,1.65,0,1,1,0,3.3Zm-16.5,0h-5.891a1.65,1.65,0,1,1,0-3.3h5.891a1.65,1.65,0,1,1,0,3.3Zm-16.5,0h-5.891a1.65,1.65,0,1,1,0-3.3h5.891a1.65,1.65,0,1,1,0,3.3Zm-16.5,0h-5.891a1.65,1.65,0,1,1,0-3.3h5.891a1.65,1.65,0,1,1,0,3.3Z" transform="translate(-591.882 -1593)" fill="#1e243a"/>
          </g>
          <g id="Grupo_26823" data-name="Grupo 26823" transform="translate(246.255 31.813)">
            <path id="Trazado_21028" data-name="Trazado 21028" d="M1583.595,1596.3h-3.063a1.65,1.65,0,0,1,0-3.3h3.063a1.65,1.65,0,1,1,0,3.3Z" transform="translate(-1578.882 -1593)" fill="#1e243a"/>
          </g>
        </g>
        <g id="Grupo_26828" data-name="Grupo 26828" transform="translate(703.966 526.961)">
          <g id="Grupo_26825" data-name="Grupo 26825" transform="translate(0)">
            <path id="Trazado_21029" data-name="Trazado 21029" d="M1766.531,828.363a1.65,1.65,0,0,1-1.65-1.65V823.65a1.65,1.65,0,1,1,3.3,0v3.063A1.65,1.65,0,0,1,1766.531,828.363Z" transform="translate(-1764.882 -822)" fill="#1e243a"/>
          </g>
          <g id="Grupo_26826" data-name="Grupo 26826" transform="translate(0 13.196)">
            <path id="Trazado_21030" data-name="Trazado 21030" d="M1766.531,997.475a1.65,1.65,0,0,1-1.65-1.65V990.17a1.65,1.65,0,1,1,3.3,0v5.656A1.65,1.65,0,0,1,1766.531,997.475Zm0-15.789a1.65,1.65,0,0,1-1.65-1.65v-5.656a1.65,1.65,0,1,1,3.3,0v5.656A1.65,1.65,0,0,1,1766.531,981.687Zm0-15.789a1.65,1.65,0,0,1-1.65-1.65v-5.656a1.65,1.65,0,1,1,3.3,0v5.656A1.65,1.65,0,0,1,1766.531,965.9Zm0-15.789a1.65,1.65,0,0,1-1.65-1.65V942.8a1.65,1.65,0,1,1,3.3,0v5.656A1.65,1.65,0,0,1,1766.531,950.109Zm0-15.789a1.65,1.65,0,0,1-1.65-1.65v-5.656a1.65,1.65,0,1,1,3.3,0v5.656A1.65,1.65,0,0,1,1766.531,934.321Zm0-15.789a1.65,1.65,0,0,1-1.65-1.65v-5.656a1.65,1.65,0,1,1,3.3,0v5.656A1.65,1.65,0,0,1,1766.531,918.532Zm0-15.789a1.65,1.65,0,0,1-1.65-1.65v-5.656a1.65,1.65,0,1,1,3.3,0v5.656A1.65,1.65,0,0,1,1766.531,902.743Zm0-15.789a1.65,1.65,0,0,1-1.65-1.65V879.65a1.65,1.65,0,1,1,3.3,0v5.656A1.65,1.65,0,0,1,1766.531,886.955Z" transform="translate(-1764.882 -878)" fill="#1e243a"/>
          </g>
          <g id="Grupo_26827" data-name="Grupo 26827" transform="translate(0 139.505)">
            <path id="Trazado_21031" data-name="Trazado 21031" d="M1766.531,1420.127a1.65,1.65,0,0,1-1.65-1.65v-2.828a1.65,1.65,0,1,1,3.3,0v2.828A1.65,1.65,0,0,1,1766.531,1420.127Z" transform="translate(-1764.882 -1414)" fill="#1e243a"/>
          </g>
        </g>
      </g>
    </g>
    <g id="coin" transform="translate(912.333 5687.333)">
      <g id="Grupo_26831" data-name="Grupo 26831">
        <g id="Grupo_26830" data-name="Grupo 26830">
          <path id="Trazado_21032" data-name="Trazado 21032" d="M83.081,14.254A48.668,48.668,0,0,0,14.254,83.081,48.668,48.668,0,0,0,83.081,14.254ZM48.667,91.632A42.964,42.964,0,1,1,91.632,48.667,43.013,43.013,0,0,1,48.667,91.632Z"/>
        </g>
      </g>
      <g id="Grupo_26833" data-name="Grupo 26833" transform="translate(33.598 18.326)">
        <g id="Grupo_26832" data-name="Grupo 26832">
          <path id="Trazado_21033" data-name="Trazado 21033" d="M194.857,123.89h-6.109a6.311,6.311,0,1,1,0-12.623h12.218a2.852,2.852,0,0,0,0-5.7h-6.312V99.253a2.852,2.852,0,0,0-5.7,0v6.312h-.2a12.015,12.015,0,1,0,0,24.029h6.109a6.312,6.312,0,0,1,0,12.623H182.64a2.852,2.852,0,1,0,0,5.7h6.311v6.312a2.852,2.852,0,0,0,5.7,0V147.92h.2a12.015,12.015,0,0,0,0-24.03Z" transform="translate(-176.734 -96.401)"/>
        </g>
      </g>
    </g>
  </g>
</svg>
