<svg xmlns="http://www.w3.org/2000/svg" width="75.775" height="77.26" viewBox="0 0 75.775 77.26">
  <g id="Grupo_27790" data-name="Grupo 27790" transform="translate(-913 -11814)">
    <circle id="Elipse_1005" data-name="Elipse 1005" cx="33" cy="33" r="33" transform="translate(913 11814)" fill="#e6d8e8"/>
    <g id="newsletter" transform="translate(890.928 11830)">
      <g id="Grupo_27769" data-name="Grupo 27769" transform="translate(65.484 11.509)">
        <g id="Grupo_27768" data-name="Grupo 27768" transform="translate(0)">
          <path id="Trazado_22293" data-name="Trazado 22293" d="M198.669,103.866h-3.458v-2.042h2.913a.9.9,0,1,0,0-1.795h-2.913V97.988h3.458a.9.9,0,1,0,0-1.795h-4.355a.9.9,0,0,0-.9.9v7.673a.9.9,0,0,0,.9.9h4.355a.9.9,0,1,0,0-1.795Z" transform="translate(-193.417 -96.193)" fill="#7d58bd"/>
        </g>
      </g>
      <g id="Grupo_27771" data-name="Grupo 27771" transform="translate(57.688 11.509)">
        <g id="Grupo_27770" data-name="Grupo 27770" transform="translate(0)">
          <path id="Trazado_22294" data-name="Trazado 22294" d="M133.511,96.194a.9.9,0,0,0-.9.9v4.274l-2.677-4.717a.9.9,0,0,0-1.678.443v7.673a.9.9,0,0,0,1.795,0V100.49l2.677,4.717a.9.9,0,0,0,1.678-.443V97.091A.9.9,0,0,0,133.511,96.194Z" transform="translate(-128.259 -96.194)" fill="#7d58bd"/>
        </g>
      </g>
      <g id="Grupo_27773" data-name="Grupo 27773" transform="translate(72.775 11.509)">
        <g id="Grupo_27772" data-name="Grupo 27772" transform="translate(0)">
          <path id="Trazado_22295" data-name="Trazado 22295" d="M261.967,96.213a.9.9,0,0,0-1.065.691l-.755,3.549-.755-3.549a.9.9,0,0,0-1.755,0l-.755,3.549-.755-3.549a.9.9,0,0,0-1.755.374L256,104.951a.9.9,0,0,0,1.755,0l.755-3.549.755,3.549a.9.9,0,0,0,1.755,0l1.633-7.673A.9.9,0,0,0,261.967,96.213Z" transform="translate(-254.35 -96.194)" fill="#7d58bd"/>
        </g>
      </g>
      <g id="Grupo_27775" data-name="Grupo 27775" transform="translate(82.107 11.509)">
        <g id="Grupo_27774" data-name="Grupo 27774">
          <path id="Trazado_22296" data-name="Trazado 22296" d="M335.729,100.084c-1.369-.5-1.589-.8-1.589-1.316,0-.369.547-.781,1.28-.781s1.28.412,1.28.781a.9.9,0,1,0,1.795,0,3.123,3.123,0,0,0-6.15,0c0,1.985,1.731,2.621,2.766,3,1.368.5,1.589.8,1.589,1.316,0,.369-.547.781-1.28.781s-1.28-.412-1.28-.781a.9.9,0,0,0-1.795,0,3.123,3.123,0,0,0,6.15,0C338.495,101.1,336.763,100.464,335.729,100.084Z" transform="translate(-332.345 -96.193)" fill="#7d58bd"/>
        </g>
      </g>
      <g id="Grupo_27777" data-name="Grupo 27777" transform="translate(48.097)">
        <g id="Grupo_27776" data-name="Grupo 27776" transform="translate(0)">
          <path id="Trazado_22297" data-name="Trazado 22297" d="M96.706,20.654,93.052,17.73V1.856A1.858,1.858,0,0,0,91.2,0H54.749a1.858,1.858,0,0,0-1.856,1.856V17.73l-3.654,2.923A3.026,3.026,0,0,0,48.1,23.028V57.485a3.779,3.779,0,0,0,3.775,3.775h42.2a3.779,3.779,0,0,0,3.775-3.775V23.028A3.026,3.026,0,0,0,96.706,20.654ZM54.687,1.856a.062.062,0,0,1,.062-.062H91.2a.062.062,0,0,1,.062.062v21.1a.9.9,0,1,0,1.795,0V20.028l2.533,2.026a1.247,1.247,0,0,1,.1,1.855l-7.869,7.869a.892.892,0,0,0-.46-.128H74.891a.9.9,0,1,0,0,1.795H86.152L84.11,35.487H74.89a.9.9,0,1,0,0,1.795h7.425L78.727,40.87l-1.051-1.051a6.659,6.659,0,0,0-9.407,0L67.217,40.87l-3.588-3.588h7.425a.9.9,0,1,0,0-1.795H61.835l-2.042-2.042H71.054a.9.9,0,1,0,0-1.795H58.586a.891.891,0,0,0-.46.128L54.687,28.34Zm-4.328,20.2,2.533-2.026v6.517l-2.636-2.636a1.246,1.246,0,0,1,.1-1.854Zm43.713,37.41h-42.2a1.97,1.97,0,0,1-.613-.1L64.216,46.41a.9.9,0,0,0-1.269-1.269L49.99,58.1a1.97,1.97,0,0,1-.1-.613v-31.4L65.948,42.139l-.325.325a.9.9,0,1,0,1.269,1.269l2.645-2.645a4.857,4.857,0,0,1,6.869,0L94.686,59.367A1.973,1.973,0,0,1,94.073,59.465ZM95.955,58.1,80,42.139,96.053,26.082v31.4h0A1.97,1.97,0,0,1,95.955,58.1Z" transform="translate(-48.097)" fill="#7d58bd"/>
        </g>
      </g>
      <g id="Grupo_27779" data-name="Grupo 27779" transform="translate(57.688 6.714)">
        <g id="Grupo_27778" data-name="Grupo 27778" transform="translate(0)">
          <path id="Trazado_22298" data-name="Trazado 22298" d="M157.93,56.113H129.156a.9.9,0,1,0,0,1.795H157.93a.9.9,0,0,0,0-1.795Z" transform="translate(-128.259 -56.113)" fill="#7d58bd"/>
        </g>
      </g>
      <g id="Grupo_27781" data-name="Grupo 27781" transform="translate(57.688 23.978)">
        <g id="Grupo_27780" data-name="Grupo 27780" transform="translate(0)">
          <path id="Trazado_22299" data-name="Trazado 22299" d="M157.93,200.4H129.156a.9.9,0,1,0,0,1.795H157.93a.9.9,0,0,0,0-1.795Z" transform="translate(-128.259 -200.403)" fill="#7d58bd"/>
        </g>
      </g>
      <g id="Grupo_27783" data-name="Grupo 27783" transform="translate(57.688 27.814)">
        <g id="Grupo_27782" data-name="Grupo 27782" transform="translate(0)">
          <path id="Trazado_22300" data-name="Trazado 22300" d="M141.625,232.468H129.156a.9.9,0,0,0,0,1.795h12.468a.9.9,0,0,0,0-1.795Z" transform="translate(-128.259 -232.468)" fill="#7d58bd"/>
        </g>
      </g>
      <g id="Grupo_27785" data-name="Grupo 27785" transform="translate(73.993 27.814)">
        <g id="Grupo_27784" data-name="Grupo 27784" transform="translate(0)">
          <path id="Trazado_22301" data-name="Trazado 22301" d="M277.9,232.468H265.43a.9.9,0,0,0,0,1.795H277.9a.9.9,0,0,0,0-1.795Z" transform="translate(-264.533 -232.468)" fill="#7d58bd"/>
        </g>
      </g>
    </g>
  </g>
</svg>
