<svg xmlns="http://www.w3.org/2000/svg" width="77.38" height="77" viewBox="0 0 77.38 77">
  <g id="Grupo_26705" data-name="Grupo 26705" transform="translate(-457 -5372)">
    <circle id="Elipse_914" data-name="Elipse 914" cx="33" cy="33" r="33" transform="translate(457 5372)" fill="#e6d8e8"/>
    <g id="seo_1_" data-name="seo (1)" transform="translate(472.379 5387)">
      <path id="Trazado_20909" data-name="Trazado 20909" d="M53.61,52.2A30.943,30.943,0,0,0,53.6,9.814L55.715,7.7A2.952,2.952,0,0,0,57,8a3,3,0,1,0-3-3,2.952,2.952,0,0,0,.3,1.285L52.186,8.4A30.936,30.936,0,0,0,14.13,5H4A4,4,0,0,0,0,9V53a4,4,0,0,0,4,4H14.118a30.966,30.966,0,0,0,33.577.108l3.77,3.77a3.828,3.828,0,1,0,5.414-5.414ZM57,4a1,1,0,1,1-1,1A1,1,0,0,1,57,4ZM31,2A28.892,28.892,0,0,1,50.773,9.813L48.287,12.3a2.939,2.939,0,0,0-3.023.263L39.88,8.8A2.972,2.972,0,0,0,40,8a3,3,0,1,0-3,3,2.974,2.974,0,0,0,1.737-.563l5.383,3.768A2.972,2.972,0,0,0,44,15a3,3,0,0,0,6,0,2.952,2.952,0,0,0-.3-1.285l2.487-2.487A28.945,28.945,0,0,1,52.2,50.781l-6.519-6.519A15.859,15.859,0,0,0,47.95,37H58V35H56V19H50V35H48V25H42V35H40V19H34V20.14A16.293,16.293,0,0,0,32,20V9a4,4,0,0,0-4-4H18.174A28.885,28.885,0,0,1,31,2ZM48,15a1,1,0,1,1-1-1A1,1,0,0,1,48,15ZM38,8a1,1,0,1,1-1-1A1,1,0,0,1,38,8ZM16.051,37H6V27H18.783A15.9,15.9,0,0,0,16,36c0,.338.03.668.051,1ZM32,22a14.2,14.2,0,0,1,2,.159v2.014A12.163,12.163,0,0,0,32,24,12,12,0,1,0,43.95,37h2A13.993,13.993,0,1,1,32,22ZM41.95,37A10.109,10.109,0,1,1,34,26.224V35H32v2ZM36,35V21h2V35Zm8,0V27h2v8Zm8,0V21h2V35ZM2,9A2,2,0,0,1,4,7H28a2,2,0,0,1,2,2v4H2Zm0,6H30v5.139A15.952,15.952,0,0,0,20.411,25H4V39H16.292a15.894,15.894,0,0,0,.519,2H4v2H17.635a16.089,16.089,0,0,0,2.776,4H2ZM4,55a2,2,0,0,1-2-2V49H22.708A15.881,15.881,0,0,0,30,51.861V53a2,2,0,0,1-2,2Zm27,5A28.9,28.9,0,0,1,18.18,57H28a4,4,0,0,0,4-4V52a15.877,15.877,0,0,0,8.262-2.324l5.979,5.979A28.866,28.866,0,0,1,31,60Zm23.171,0a1.816,1.816,0,0,1-1.293-.536L41.934,48.52a16.112,16.112,0,0,0,2.586-2.586L55.465,56.879A1.829,1.829,0,0,1,54.171,60Zm0,0" fill="#7d58bd"/>
      <path id="Trazado_20910" data-name="Trazado 20910" d="M88,408H98v2H88Zm0,0" transform="translate(-77 -357)" fill="#7d58bd"/>
      <path id="Trazado_20911" data-name="Trazado 20911" d="M32,136h2v2H32Zm0,0" transform="translate(-28 -119)" fill="#7d58bd"/>
      <path id="Trazado_20912" data-name="Trazado 20912" d="M64,136h2v2H64Zm0,0" transform="translate(-56 -119)" fill="#7d58bd"/>
      <path id="Trazado_20913" data-name="Trazado 20913" d="M96,136h2v2H96Zm0,0" transform="translate(-84 -119)" fill="#7d58bd"/>
      <path id="Trazado_20914" data-name="Trazado 20914" d="M128,136h12v2H128Zm0,0" transform="translate(-112 -119)" fill="#7d58bd"/>
      <path id="Trazado_20915" data-name="Trazado 20915" d="M32,168H44v2H32Zm0,0" transform="translate(-28 -147)" fill="#7d58bd"/>
      <path id="Trazado_20916" data-name="Trazado 20916" d="M144,168h2v2h-2Zm0,0" transform="translate(-126 -147)" fill="#7d58bd"/>
    </g>
  </g>
</svg>
