<?xml version="1.0" encoding="utf-8"?>
<!-- Generator: Adobe Illustrator 24.0.0, SVG Export Plug-In . SVG Version: 6.00 Build 0)  -->
<svg version="1.1" id="Capa_1" xmlns="http://www.w3.org/2000/svg" xmlns:xlink="http://www.w3.org/1999/xlink" x="0px" y="0px"
	 viewBox="0 0 610.2 559" style="enable-background:new 0 0 610.2 559;" xml:space="preserve">
<style type="text/css">
	.st0{fill:#12263F;}
	.st1{fill-rule:evenodd;clip-rule:evenodd;fill:#FFFFFF;}
	.st2{fill-rule:evenodd;clip-rule:evenodd;fill:#FFBE00;}
	.st3{fill:#E50019;}
	.st4{fill-rule:evenodd;clip-rule:evenodd;fill:#E50019;}
	.st5{fill-rule:evenodd;clip-rule:evenodd;fill:#003B90;}
	.st6{fill:#FFC300;}
	.st7{fill:#CC2229;}
	.st8{fill:#030504;}
	.st9{fill:none;stroke:#D4D4D4;stroke-width:2;}
</style>
<path id="Trazado_26589" class="st0" d="M1.7,31V14.1h3.5V31H1.7z M15.2,31.2c-1.7,0.1-3.3-0.4-4.7-1.3c-1.2-0.8-2.1-2.1-2.3-3.6
	l3.6-0.8c0.1,0.8,0.5,1.6,1.1,2.1c0.7,0.5,1.5,0.8,2.4,0.7c0.7,0,1.3-0.2,1.9-0.5c0.5-0.4,0.7-0.9,0.7-1.5c0-0.5-0.2-0.9-0.6-1.3
	c-0.3-0.3-0.7-0.6-1.2-0.8c-0.4-0.2-1-0.4-1.9-0.6c-0.1,0-0.2-0.1-0.3-0.1c-0.4-0.1-0.8-0.3-1.1-0.4s-0.6-0.2-1-0.4
	c-0.3-0.1-0.7-0.3-1-0.5c-0.3-0.2-0.6-0.4-0.8-0.6c-0.3-0.2-0.5-0.5-0.7-0.8c-0.2-0.3-0.3-0.6-0.4-1c-0.1-0.4-0.2-0.8-0.2-1.2
	c0-1,0.3-1.9,0.8-2.7c0.5-0.8,1.3-1.3,2.1-1.7c1-0.4,2-0.6,3.1-0.6c0.7,0,1.5,0.1,2.2,0.2c0.7,0.2,1.4,0.4,2,0.8
	c0.6,0.3,1.2,0.8,1.6,1.4c0.4,0.6,0.8,1.3,0.9,2.1l-3.4,0.8c-0.2-1.5-1.5-2.6-3-2.4c0,0,0,0,0,0c-0.7,0-1.3,0.1-1.9,0.5
	c-0.5,0.3-0.8,0.9-0.7,1.5c0,0.6,0.4,1.1,1.2,1.5c0.8,0.3,1.6,0.6,2.4,0.8c0.5,0.1,0.8,0.3,1.1,0.4s0.7,0.2,1.1,0.4
	c0.4,0.1,0.7,0.3,1.1,0.5c0.3,0.2,0.6,0.4,0.9,0.6c0.3,0.2,0.6,0.5,0.8,0.8c0.2,0.3,0.4,0.7,0.5,1c0.1,0.4,0.2,0.9,0.2,1.3
	c0,0.7-0.1,1.3-0.3,1.9c-0.2,0.5-0.5,1-0.9,1.4c-0.4,0.4-0.9,0.7-1.4,1c-0.5,0.3-1.1,0.5-1.7,0.6C16.5,31.2,15.9,31.2,15.2,31.2z
	 M32.3,31.2c-1.5,0-3.1-0.3-4.4-1.1c-1.3-0.7-2.4-1.8-3.1-3.1c-0.8-1.4-1.2-3-1.1-4.6c0-1.6,0.4-3.2,1.1-4.6c0.7-1.3,1.8-2.3,3.1-3
	c1.4-0.7,2.9-1.1,4.4-1.1c1.5,0,3.1,0.3,4.4,1.1c1.3,0.7,2.4,1.8,3.1,3c0.8,1.4,1.2,3,1.1,4.6c0,1.6-0.4,3.2-1.1,4.6
	c-0.7,1.3-1.8,2.4-3.1,3.1C35.4,30.9,33.8,31.3,32.3,31.2L32.3,31.2z M28.6,26.5c1,1,2.3,1.5,3.7,1.5c1.4,0,2.7-0.5,3.7-1.5
	c1-1.1,1.5-2.5,1.5-4c0.1-1.5-0.4-2.9-1.5-4c-1-1-2.3-1.5-3.7-1.5c-1.4,0-2.7,0.5-3.7,1.5c-1,1.1-1.5,2.5-1.5,4
	C27.1,24,27.6,25.4,28.6,26.5z M53.4,14.1v3.1h-4V31h-3.5V17.2h-4v-3.1H53.4z M56.1,31V14.1h3.5V31H56.1z M71,14.1
	c1.5-0.1,2.9,0.5,3.9,1.6c1,1.1,1.5,2.5,1.5,3.9c0.1,1.4-0.5,2.8-1.5,3.9c-1,1-2.5,1.6-3.9,1.5h-3.5V31h-3.5V14.1H71z M70.4,22
	c0.7,0.1,1.4-0.2,1.9-0.7c0.5-0.5,0.7-1.2,0.6-1.8c0-0.7-0.2-1.3-0.7-1.8c-0.5-0.5-1.2-0.7-1.9-0.7h-2.9v5L70.4,22z M86.8,31.2
	c-1.5,0-3.1-0.3-4.4-1.1c-1.3-0.7-2.4-1.8-3.1-3.1c-0.8-1.4-1.2-3-1.1-4.6c0-1.6,0.4-3.2,1.1-4.6c0.7-1.3,1.8-2.3,3.1-3
	c1.4-0.7,2.9-1.1,4.4-1.1c1.5,0,3.1,0.3,4.4,1.1c1.3,0.7,2.4,1.8,3.1,3c0.8,1.4,1.2,3,1.1,4.6c0,1.6-0.4,3.2-1.1,4.6
	c-0.7,1.3-1.8,2.4-3.1,3.1C89.9,30.9,88.4,31.3,86.8,31.2z M83.1,26.5c1,1,2.3,1.5,3.7,1.5c1.4,0,2.7-0.5,3.7-1.5
	c1-1.1,1.5-2.5,1.5-4c0.1-1.5-0.4-2.9-1.5-4c-1-1-2.3-1.5-3.7-1.5c-1.4,0-2.7,0.5-3.7,1.5c-1,1.1-1.5,2.5-1.5,4
	C81.6,24,82.1,25.4,83.1,26.5z"/>
<path id="Trazado_26590" class="st0" d="M304.9,159.9c0.7,0,1.4-0.3,1.9-0.8c0.5-0.7,0.7-1.5,0.7-2.3l-2.3,0.4
	c-0.5,0.1-0.9,0.2-1.3,0.5c-0.3,0.2-0.5,0.6-0.4,0.9c0,0.4,0.1,0.7,0.4,0.9C304.1,159.9,304.5,160,304.9,159.9L304.9,159.9z
	 M6.1,52.6c0.7,0,1.4,0.2,1.9,0.5c0.6,0.3,1,0.8,1.3,1.4c0.3,0.6,0.5,1.2,0.5,1.9c0,1-0.3,2-1,2.7c-0.7,0.7-1.7,1.1-2.7,1.1H3V65
	H1.4V52.6H6.1z M5.9,58.8c0.6,0,1.3-0.2,1.7-0.7c0.4-0.5,0.7-1.1,0.6-1.8c0-0.6-0.2-1.3-0.6-1.7C7.2,54.2,6.6,54,5.9,54H3v4.8
	L5.9,58.8z M13.4,65.2c-0.7,0-1.4-0.2-1.9-0.6c-0.5-0.4-0.8-1.1-0.7-1.8c0-0.4,0.1-0.8,0.2-1.1c0.2-0.3,0.4-0.6,0.7-0.8
	c0.3-0.2,0.7-0.4,1-0.5c0.4-0.1,0.9-0.2,1.3-0.3l1.4-0.2c0.5-0.1,0.8-0.4,0.8-0.8c0-0.5-0.2-1-0.5-1.3c-0.4-0.3-0.9-0.4-1.4-0.4
	c-0.5,0-1,0.1-1.4,0.4c-0.4,0.3-0.6,0.7-0.6,1.2l-1.4-0.3c0.1-0.7,0.5-1.4,1.1-1.8c0.7-0.4,1.5-0.7,2.4-0.6c0.4,0,0.8,0,1.3,0.2
	c0.4,0.1,0.7,0.3,1,0.5c0.3,0.2,0.6,0.6,0.7,0.9c0.2,0.4,0.3,0.9,0.3,1.4v3.6c0,0.3,0,0.6,0.2,0.9c0.2,0.2,0.4,0.3,0.7,0.2h0.2V65
	H18c-0.8,0.1-1.5-0.4-1.6-1.2h-0.1C15.6,64.7,14.5,65.2,13.4,65.2z M13.8,63.9c0.7,0,1.4-0.3,1.9-0.8c0.5-0.7,0.7-1.5,0.7-2.3
	L14,61.3c-0.5,0.1-0.9,0.2-1.3,0.5c-0.3,0.2-0.5,0.6-0.4,0.9c0,0.4,0.1,0.7,0.4,0.9C13,63.8,13.4,64,13.8,63.9L13.8,63.9z
	 M22.3,57.9c0.2-0.5,0.6-0.9,1.1-1.2c0.5-0.3,1.1-0.5,1.7-0.5v1.4c-0.7-0.1-1.4,0.2-2,0.6c-0.5,0.6-0.8,1.3-0.7,2V65h-1.5v-8.6h1.5
	L22.3,57.9z M30.1,65c-0.6,0-1.2-0.2-1.7-0.6c-0.4-0.5-0.7-1.1-0.6-1.7v-5.1H26v-1.2h0.6c0.3,0,0.7-0.1,1-0.3c0.2-0.3,0.3-0.7,0.3-1
	v-1.6h1.4v2.9h2v1.2h-2v4.9c0,0.3,0.1,0.7,0.3,1c0.2,0.2,0.5,0.4,0.9,0.3h0.8V65H30.1z M41,60.5l0,0.4h-6.7c0,0.8,0.3,1.6,0.8,2.2
	c0.5,0.5,1.2,0.8,2,0.8c0.5,0,1-0.1,1.4-0.4c0.4-0.3,0.8-0.7,1-1.1l1.4,0.3c-0.3,0.8-0.8,1.4-1.5,1.9c-0.7,0.5-1.5,0.7-2.3,0.7
	c-1.2,0-2.3-0.4-3.1-1.2c-0.8-0.9-1.3-2.1-1.2-3.3c-0.1-1.2,0.4-2.4,1.2-3.3c0.8-0.8,1.9-1.2,3.1-1.2c1.1,0,2.1,0.4,2.9,1.1
	C40.7,58.2,41.1,59.3,41,60.5L41,60.5z M37,57.4c-0.7,0-1.3,0.2-1.8,0.6c-0.5,0.5-0.8,1.1-0.9,1.8h5.2c0-0.7-0.3-1.3-0.8-1.8
	C38.2,57.6,37.6,57.3,37,57.4L37,57.4z M50.8,65.2c-0.8,0-1.6-0.2-2.3-0.6c-0.6-0.4-1-1-1.1-1.8l1.3-0.4c0.1,0.5,0.3,0.9,0.7,1.2
	c0.4,0.3,0.9,0.4,1.4,0.4c0.3,0,0.6,0,0.8-0.1c0.2-0.1,0.5-0.2,0.6-0.4c0.3-0.3,0.3-0.8,0.2-1.1c0-0.1-0.1-0.2-0.1-0.3
	c-0.1-0.1-0.1-0.2-0.2-0.2c-0.1-0.1-0.2-0.1-0.3-0.2c-0.1-0.1-0.3-0.1-0.4-0.2c-0.2-0.1-0.3-0.1-0.4-0.1c-0.1,0-0.3-0.1-0.5-0.1
	S50,61.1,49.9,61c-0.3-0.1-0.6-0.2-0.9-0.3c-0.3-0.1-0.5-0.3-0.7-0.4c-0.2-0.2-0.4-0.4-0.6-0.7c-0.1-0.3-0.2-0.6-0.2-1
	c0-0.5,0.1-1,0.4-1.4c0.3-0.4,0.7-0.7,1.1-0.8c0.5-0.2,1-0.3,1.5-0.3c0.7,0,1.5,0.2,2.1,0.6c0.6,0.4,1,1,1,1.7l-1.2,0.3
	c-0.1-0.4-0.3-0.8-0.7-1.1c-0.4-0.2-0.8-0.4-1.2-0.4c-0.4,0-0.8,0.1-1.2,0.3c-0.3,0.2-0.5,0.6-0.5,0.9c0,0.2,0,0.3,0.1,0.5
	c0.1,0.1,0.2,0.2,0.3,0.3c0.1,0.1,0.3,0.2,0.5,0.3c0.2,0.1,0.4,0.2,0.5,0.2c0.1,0,0.3,0.1,0.6,0.2c0.1,0,0.1,0,0.1,0
	c0.3,0.1,0.6,0.2,0.8,0.2c0.3,0.1,0.5,0.2,0.7,0.3c0.2,0.1,0.5,0.3,0.7,0.5c0.2,0.2,0.3,0.4,0.4,0.7c0.1,0.3,0.2,0.6,0.2,0.9
	c0,0.4-0.1,0.8-0.3,1.2c-0.2,0.3-0.4,0.6-0.7,0.8c-0.3,0.2-0.6,0.3-1,0.4C51.6,65.1,51.2,65.2,50.8,65.2L50.8,65.2z M57.1,54.3
	c-0.6,0-1-0.5-1-1c0-0.3,0.1-0.5,0.3-0.7c0.2-0.2,0.5-0.3,0.7-0.3c0.3,0,0.5,0.1,0.7,0.3c0.2,0.2,0.3,0.4,0.3,0.7
	c0,0.3-0.1,0.5-0.3,0.7C57.6,54.2,57.4,54.3,57.1,54.3z M56.3,65v-8.6h1.5V65H56.3z M69.8,56.2c0.7,0,1.5,0.2,2,0.7
	c0.5,0.5,0.8,1.3,0.8,2.1v6h-1.5v-5.6c0-0.5-0.1-1-0.5-1.4c-0.3-0.3-0.8-0.5-1.2-0.5c-0.5,0-1,0.2-1.3,0.5c-0.4,0.5-0.5,1-0.5,1.6
	V65H66v-5.6c0-0.5-0.1-1.1-0.5-1.5c-0.3-0.3-0.8-0.5-1.2-0.5c-0.5,0-1,0.2-1.3,0.6c-0.4,0.5-0.6,1.1-0.5,1.7V65H61v-8.6h1.5v1.1
	c0.2-0.4,0.6-0.7,1-0.9c0.4-0.2,0.9-0.3,1.4-0.3c0.5,0,1,0.1,1.5,0.4c0.4,0.2,0.8,0.6,1,1.1c0.2-0.4,0.6-0.8,1-1.1
	C68.8,56.3,69.3,56.2,69.8,56.2z M80.1,56.2c1.1,0,2.1,0.4,2.9,1.2c0.8,0.9,1.2,2.1,1.2,3.2c0.1,1.2-0.4,2.4-1.2,3.3
	c-0.7,0.8-1.8,1.3-2.9,1.2c-0.6,0-1.3-0.2-1.8-0.5c-0.5-0.3-1-0.8-1.2-1.4l0,1.7h-1.5V51.5H77l0,6.5c0.3-0.6,0.7-1,1.2-1.3
	C78.8,56.4,79.5,56.2,80.1,56.2L80.1,56.2z M79.8,63.9c0.8,0,1.5-0.3,2-0.9c0.6-0.6,0.9-1.5,0.8-2.3c0-0.8-0.3-1.7-0.8-2.3
	c-0.5-0.6-1.3-0.9-2-0.9c-0.8,0-1.5,0.3-2,0.9c-0.6,0.6-0.8,1.4-0.8,2.3c0,0.8,0.3,1.6,0.8,2.3C78.3,63.5,79,63.9,79.8,63.9
	L79.8,63.9z M89.6,54.9l2.2-2.9l0.8,0.6l-2,2.3H89.6z M90.1,65.2c-0.8,0-1.5-0.2-2.2-0.5c-0.7-0.4-1.2-0.9-1.6-1.6
	c-0.4-0.7-0.6-1.6-0.6-2.4c-0.1-1.2,0.4-2.4,1.2-3.3c1.8-1.6,4.5-1.6,6.3,0c0.8,0.9,1.3,2,1.2,3.3c0.1,1.2-0.4,2.4-1.2,3.3
	C92.4,64.8,91.3,65.2,90.1,65.2L90.1,65.2z M90.1,63.9c0.8,0,1.5-0.3,2-0.9c0.6-0.6,0.9-1.5,0.8-2.3c0-0.9-0.3-1.7-0.8-2.3
	c-0.5-0.6-1.3-0.9-2-0.9c-0.8,0-1.5,0.3-2,0.9c-0.6,0.6-0.8,1.5-0.8,2.3c0,0.9,0.2,1.7,0.8,2.3C88.6,63.6,89.4,63.9,90.1,63.9z
	 M96.9,65V51.5h1.5V65H96.9z M102.3,54.3c-0.6,0-1-0.5-1-1c0-0.3,0.1-0.5,0.3-0.7c0.2-0.2,0.5-0.3,0.7-0.3c0.3,0,0.5,0.1,0.7,0.3
	c0.2,0.2,0.3,0.4,0.3,0.7c0,0.3-0.1,0.5-0.3,0.7C102.8,54.2,102.6,54.3,102.3,54.3z M101.5,65v-8.6h1.5V65H101.5z M109.7,65.2
	c-1.2,0-2.3-0.4-3.1-1.2c-0.8-0.9-1.3-2-1.2-3.2c-0.1-1.2,0.4-2.4,1.2-3.2c1.5-1.5,3.8-1.7,5.6-0.5c0.7,0.5,1.2,1.3,1.5,2.1
	l-1.4,0.2c-0.2-0.5-0.5-1-1-1.3c-0.5-0.3-1-0.5-1.6-0.5c-0.8,0-1.5,0.3-2,0.9c-0.5,0.7-0.8,1.5-0.8,2.3c0,0.8,0.2,1.7,0.8,2.3
	c0.5,0.6,1.2,0.9,2,0.9c0.6,0,1.1-0.2,1.6-0.5c0.5-0.3,0.8-0.8,1-1.3l1.4,0.2c-0.2,0.8-0.7,1.6-1.5,2.1
	C111.5,64.9,110.6,65.2,109.7,65.2z M117.9,65.2c-0.7,0-1.4-0.2-1.9-0.6c-0.5-0.4-0.8-1.1-0.7-1.8c0-0.4,0.1-0.8,0.2-1.1
	c0.2-0.3,0.4-0.6,0.7-0.8c0.3-0.2,0.7-0.4,1-0.5c0.4-0.1,0.9-0.2,1.3-0.3l1.4-0.2c0.5-0.1,0.8-0.4,0.8-0.8c0-0.5-0.2-1-0.5-1.3
	c-0.4-0.3-0.9-0.4-1.4-0.4c-0.5,0-1,0.1-1.4,0.4c-0.4,0.3-0.6,0.7-0.6,1.2l-1.4-0.3c0.1-0.7,0.5-1.4,1.1-1.9
	c0.7-0.4,1.5-0.7,2.4-0.6c0.4,0,0.8,0,1.3,0.2c0.4,0.1,0.7,0.3,1,0.5c0.3,0.2,0.6,0.6,0.7,0.9c0.2,0.4,0.3,0.9,0.3,1.4v3.6
	c0,0.3,0,0.6,0.2,0.9c0.2,0.2,0.4,0.3,0.7,0.2h0.1V65h-0.8c-0.8,0.1-1.5-0.4-1.6-1.2h-0.1C120.1,64.7,119,65.2,117.9,65.2z
	 M118.3,63.9c0.7,0,1.4-0.3,1.9-0.8c0.5-0.7,0.7-1.5,0.7-2.3l-2.3,0.4c-0.5,0.1-0.9,0.2-1.3,0.5c-0.3,0.2-0.5,0.6-0.4,0.9
	c0,0.4,0.1,0.7,0.4,0.9C117.5,63.8,117.9,64,118.3,63.9z M136.4,51.5h1.5V65h-1.5l0-1.7c-0.3,0.6-0.7,1-1.2,1.4
	c-0.6,0.3-1.2,0.5-1.8,0.5c-1.1,0-2.1-0.4-2.9-1.2c-0.4-0.4-0.7-0.9-0.9-1.4c-0.2-0.6-0.3-1.2-0.3-1.9c-0.1-1.2,0.4-2.4,1.2-3.2
	c0.7-0.8,1.8-1.3,2.9-1.2c0.6,0,1.3,0.2,1.8,0.5c0.5,0.3,1,0.8,1.2,1.3V51.5z M133.7,63.9c0.8,0,1.5-0.3,2-0.9
	c0.6-0.6,0.8-1.4,0.8-2.3c0-0.8-0.3-1.6-0.8-2.3c-0.5-0.6-1.2-0.9-2-0.9c-0.8,0-1.5,0.3-2,0.9c-0.6,0.6-0.9,1.5-0.8,2.3
	c0,0.8,0.3,1.7,0.8,2.3C132.2,63.6,132.9,63.9,133.7,63.9L133.7,63.9z M148.6,60.5l0,0.4h-6.8c0,0.8,0.3,1.6,0.8,2.2
	c0.5,0.5,1.2,0.8,2,0.8c0.5,0,1-0.1,1.4-0.4c0.4-0.3,0.8-0.7,1-1.1l1.4,0.3c-0.3,0.8-0.8,1.4-1.5,1.9c-0.7,0.5-1.5,0.7-2.3,0.7
	c-1.2,0-2.3-0.4-3.1-1.2c-0.8-0.9-1.3-2.1-1.2-3.3c-0.1-1.2,0.4-2.4,1.2-3.3c0.8-0.8,1.9-1.2,3.1-1.2c1.1,0,2.1,0.4,2.9,1.1
	C148.3,58.2,148.7,59.3,148.6,60.5L148.6,60.5z M144.6,57.4c-0.7,0-1.3,0.2-1.8,0.6c-0.5,0.5-0.8,1.1-0.9,1.8h5.2
	c0-0.7-0.3-1.3-0.8-1.8C145.8,57.6,145.2,57.3,144.6,57.4L144.6,57.4z M155.6,65V51.5h1.5V65H155.6z M162.3,65.2
	c-0.7,0-1.4-0.2-1.9-0.6c-0.5-0.4-0.8-1.1-0.7-1.8c0-0.4,0.1-0.8,0.2-1.1c0.2-0.3,0.4-0.6,0.7-0.8c0.3-0.2,0.7-0.4,1-0.5
	c0.4-0.1,0.9-0.2,1.3-0.3l1.4-0.2c0.5-0.1,0.8-0.4,0.8-0.8c0-0.5-0.2-1-0.5-1.3c-0.4-0.3-0.9-0.4-1.4-0.4c-0.5,0-1,0.1-1.4,0.4
	c-0.4,0.3-0.6,0.7-0.6,1.2l-1.4-0.3c0.1-0.7,0.5-1.4,1.1-1.8c0.7-0.4,1.5-0.7,2.4-0.6c0.4,0,0.8,0,1.3,0.2c0.4,0.1,0.7,0.3,1,0.5
	c0.3,0.2,0.6,0.6,0.7,0.9c0.2,0.4,0.3,0.9,0.3,1.4v3.6c0,0.3,0,0.6,0.2,0.9c0.2,0.2,0.4,0.3,0.7,0.2h0.1V65h-0.8
	c-0.8,0.1-1.5-0.4-1.6-1.2h-0.1C164.4,64.7,163.4,65.2,162.3,65.2z M162.6,63.9c0.7,0,1.4-0.3,1.9-0.8c0.5-0.7,0.7-1.5,0.7-2.3
	l-2.3,0.4c-0.5,0.1-0.9,0.2-1.3,0.5c-0.3,0.2-0.5,0.6-0.4,0.9c0,0.4,0.1,0.7,0.4,0.9C161.8,63.8,162.2,64,162.6,63.9L162.6,63.9z
	 M183.2,56.2c0.7,0,1.5,0.2,2,0.7c0.5,0.5,0.8,1.3,0.8,2.1v6h-1.5v-5.6c0-0.5-0.1-1-0.5-1.4c-0.3-0.3-0.8-0.5-1.2-0.5
	c-0.5,0-1,0.2-1.3,0.5c-0.4,0.5-0.5,1-0.5,1.6V65h-1.5v-5.6c0-0.5-0.1-1.1-0.5-1.5c-0.3-0.3-0.8-0.5-1.2-0.5c-0.5,0-1,0.2-1.3,0.6
	c-0.4,0.5-0.6,1.1-0.5,1.7V65h-1.5v-8.6h1.5v1.1c0.2-0.4,0.6-0.7,1-0.9c0.4-0.2,0.9-0.3,1.4-0.3c0.5,0,1,0.1,1.5,0.4
	c0.4,0.2,0.8,0.6,1,1.1c0.2-0.4,0.6-0.8,1-1.1C182.2,56.3,182.7,56.2,183.2,56.2z M190.9,65.2c-0.7,0-1.4-0.2-1.9-0.6
	c-0.5-0.4-0.8-1.1-0.7-1.8c0-0.4,0.1-0.8,0.2-1.1c0.2-0.3,0.4-0.6,0.7-0.8c0.3-0.2,0.7-0.4,1-0.5c0.4-0.1,0.9-0.2,1.3-0.3l1.4-0.2
	c0.5-0.1,0.8-0.4,0.8-0.8c0-0.5-0.2-1-0.5-1.3c-0.4-0.3-0.9-0.4-1.4-0.4c-0.5,0-1,0.1-1.4,0.4c-0.4,0.3-0.6,0.7-0.6,1.2l-1.4-0.3
	c0.1-0.7,0.5-1.4,1.1-1.8c0.7-0.4,1.5-0.7,2.4-0.6c0.4,0,0.8,0,1.3,0.2c0.4,0.1,0.7,0.3,1,0.5c0.3,0.2,0.6,0.6,0.7,0.9
	c0.2,0.4,0.3,0.9,0.3,1.4v3.6c0,0.3,0,0.6,0.2,0.9c0.2,0.2,0.4,0.3,0.7,0.2h0.1V65h-0.8c-0.8,0.1-1.5-0.4-1.6-1.2h-0.1
	C193.1,64.7,192,65.2,190.9,65.2L190.9,65.2z M191.3,63.9c0.7,0,1.4-0.3,1.9-0.8c0.5-0.7,0.7-1.5,0.7-2.3l-2.3,0.4
	c-0.5,0.1-0.9,0.2-1.3,0.5c-0.3,0.2-0.5,0.6-0.4,0.9c0,0.4,0.1,0.7,0.4,0.9C190.5,63.8,190.9,64,191.3,63.9z M199.8,57.9
	c0.2-0.5,0.6-0.9,1.1-1.2c0.5-0.3,1.1-0.5,1.7-0.5v1.4c-0.7-0.1-1.4,0.2-2,0.6c-0.5,0.6-0.8,1.3-0.7,2V65h-1.5v-8.6h1.5L199.8,57.9z
	 M207.8,65.2c-1.2,0-2.3-0.4-3.1-1.2c-0.8-0.9-1.3-2-1.2-3.2c-0.1-1.2,0.4-2.4,1.2-3.2c1.5-1.5,3.8-1.7,5.6-0.5
	c0.7,0.5,1.2,1.3,1.5,2.1l-1.4,0.2c-0.2-0.5-0.5-1-1-1.3c-0.5-0.3-1-0.5-1.6-0.5c-0.8,0-1.5,0.3-2,0.9c-0.5,0.7-0.8,1.5-0.8,2.3
	c0,0.8,0.2,1.7,0.8,2.3c0.5,0.6,1.2,0.9,2,0.9c0.6,0,1.1-0.2,1.6-0.5c0.5-0.3,0.8-0.8,1-1.3l1.4,0.2c-0.2,0.8-0.7,1.6-1.5,2.1
	C209.6,64.9,208.7,65.2,207.8,65.2L207.8,65.2z M216,65.2c-0.7,0-1.4-0.2-1.9-0.6c-0.5-0.4-0.8-1.1-0.7-1.8c0-0.4,0.1-0.8,0.2-1.1
	c0.2-0.3,0.4-0.6,0.7-0.8c0.3-0.2,0.7-0.4,1-0.5c0.4-0.1,0.9-0.2,1.3-0.3l1.4-0.2c0.5-0.1,0.8-0.4,0.8-0.8c0-0.5-0.2-1-0.5-1.3
	c-0.4-0.3-0.9-0.4-1.4-0.4c-0.5,0-1,0.1-1.4,0.4c-0.4,0.3-0.6,0.7-0.6,1.2l-1.4-0.3c0.1-0.7,0.5-1.4,1.1-1.9
	c0.7-0.4,1.5-0.7,2.4-0.6c0.4,0,0.8,0,1.3,0.2c0.4,0.1,0.7,0.3,1,0.5c0.3,0.2,0.6,0.6,0.7,0.9c0.2,0.4,0.3,0.9,0.3,1.4v3.6
	c0,0.3,0,0.6,0.2,0.9c0.2,0.2,0.4,0.3,0.7,0.2h0.1V65h-0.8c-0.8,0.1-1.5-0.4-1.6-1.2h-0.1C218.2,64.7,217.1,65.2,216,65.2L216,65.2z
	 M216.4,63.9c0.7,0,1.4-0.3,1.9-0.8c0.5-0.7,0.7-1.5,0.7-2.3l-2.3,0.4c-0.5,0.1-0.9,0.2-1.3,0.5c-0.3,0.2-0.5,0.6-0.4,0.9
	c0,0.4,0.1,0.7,0.4,0.9C215.6,63.8,216,64,216.4,63.9L216.4,63.9z M224.8,65.2c-0.3,0-0.5-0.1-0.7-0.3c-0.4-0.4-0.4-1,0-1.4
	c0.2-0.2,0.4-0.3,0.7-0.3c0.3,0,0.5,0.1,0.7,0.3c0.4,0.4,0.4,1,0,1.4c0,0,0,0,0,0C225.3,65.1,225.1,65.2,224.8,65.2L224.8,65.2z
	 M8.1,78.1h-5v4.1h4.4v1.4H3.1v4h5V89H1.4V76.6h6.6L8.1,78.1z M13.4,89.2c-0.8,0-1.6-0.2-2.3-0.6c-0.6-0.4-1-1-1.1-1.8l1.3-0.4
	c0.1,0.5,0.3,0.9,0.7,1.2c0.4,0.3,0.9,0.4,1.4,0.4c0.3,0,0.6,0,0.8-0.1c0.2-0.1,0.5-0.2,0.6-0.4c0.3-0.3,0.3-0.8,0.2-1.1
	c0-0.1-0.1-0.2-0.1-0.3c-0.1-0.1-0.1-0.2-0.2-0.2c-0.1-0.1-0.2-0.1-0.3-0.2c-0.1-0.1-0.3-0.1-0.4-0.2c-0.2-0.1-0.3-0.1-0.4-0.1
	s-0.3-0.1-0.5-0.1c-0.2-0.1-0.4-0.1-0.5-0.1c-0.3-0.1-0.6-0.2-0.9-0.3c-0.3-0.1-0.5-0.3-0.7-0.4c-0.2-0.2-0.4-0.4-0.6-0.7
	c-0.1-0.3-0.2-0.6-0.2-1c0-0.5,0.1-1,0.4-1.4c0.3-0.4,0.7-0.7,1.1-0.8c0.5-0.2,1-0.3,1.5-0.3c0.7,0,1.5,0.2,2.1,0.6
	c0.6,0.4,1,1,1,1.7l-1.2,0.3c-0.1-0.4-0.3-0.8-0.7-1.1c-0.4-0.2-0.8-0.4-1.2-0.4c-0.4,0-0.8,0.1-1.2,0.3c-0.3,0.2-0.5,0.6-0.5,0.9
	c0,0.2,0,0.3,0.1,0.5c0.1,0.1,0.2,0.2,0.3,0.3c0.1,0.1,0.3,0.2,0.5,0.3c0.2,0.1,0.4,0.2,0.5,0.2c0.1,0,0.3,0.1,0.6,0.2
	c0.1,0,0.1,0,0.1,0c0.3,0.1,0.6,0.2,0.8,0.2c0.3,0.1,0.5,0.2,0.7,0.3c0.2,0.1,0.5,0.3,0.7,0.5c0.2,0.2,0.3,0.4,0.4,0.7
	c0.1,0.3,0.2,0.6,0.2,0.9c0,0.4-0.1,0.8-0.3,1.2c-0.2,0.3-0.4,0.6-0.7,0.8c-0.3,0.2-0.6,0.3-1,0.4C14.2,89.1,13.8,89.2,13.4,89.2
	L13.4,89.2z M21.8,89c-0.6,0-1.2-0.2-1.7-0.6c-0.4-0.5-0.7-1.1-0.6-1.7v-5.1h-1.8v-1.2h0.6c0.3,0,0.7-0.1,1-0.3
	c0.2-0.3,0.3-0.7,0.3-1v-1.6H21v2.9h2v1.2h-2v4.9c0,0.3,0.1,0.7,0.3,1c0.2,0.2,0.5,0.4,0.9,0.3H23V89H21.8z M27.1,89.2
	c-0.7,0-1.4-0.2-1.9-0.6c-0.5-0.4-0.8-1.1-0.7-1.8c0-0.4,0.1-0.8,0.2-1.1c0.2-0.3,0.4-0.6,0.7-0.8c0.3-0.2,0.7-0.4,1-0.5
	c0.4-0.1,0.9-0.2,1.3-0.3l1.4-0.2c0.5-0.1,0.8-0.4,0.8-0.8c0-0.5-0.2-1-0.5-1.3c-0.4-0.3-0.9-0.4-1.4-0.4c-0.5,0-1,0.1-1.4,0.4
	C26.2,82.1,26,82.5,26,83l-1.4-0.3c0.1-0.7,0.5-1.4,1.1-1.8c0.7-0.4,1.5-0.7,2.4-0.6c0.4,0,0.8,0,1.3,0.2c0.4,0.1,0.7,0.3,1,0.5
	c0.3,0.2,0.6,0.6,0.7,0.9c0.2,0.4,0.3,0.9,0.3,1.4v3.6c0,0.3,0,0.6,0.2,0.9c0.2,0.2,0.4,0.3,0.7,0.2h0.1V89h-0.8
	c-0.8,0.1-1.5-0.4-1.6-1.2h-0.1C29.2,88.7,28.2,89.2,27.1,89.2z M27.4,87.9c0.7,0,1.4-0.3,1.9-0.8c0.5-0.7,0.7-1.5,0.7-2.3l-2.3,0.4
	c-0.5,0.1-0.9,0.2-1.3,0.5c-0.3,0.2-0.5,0.6-0.4,0.9c0,0.4,0.1,0.7,0.4,0.9C26.7,87.8,27,88,27.4,87.9L27.4,87.9z M46.7,84.5l0,0.4
	H40c0,0.8,0.3,1.6,0.8,2.2c0.5,0.5,1.2,0.8,2,0.8c0.5,0,1-0.1,1.4-0.4c0.4-0.3,0.8-0.7,1-1.1l1.4,0.3c-0.3,0.8-0.8,1.4-1.5,1.9
	c-0.7,0.5-1.5,0.7-2.3,0.7c-1.2,0-2.3-0.4-3.1-1.2c-0.8-0.9-1.3-2.1-1.2-3.3c-0.1-1.2,0.4-2.4,1.2-3.3c0.8-0.8,1.9-1.2,3.1-1.2
	c1.1,0,2.1,0.4,2.9,1.1C46.4,82.2,46.8,83.3,46.7,84.5L46.7,84.5z M42.7,81.4c-0.7,0-1.3,0.2-1.8,0.6c-0.5,0.5-0.8,1.1-0.9,1.8h5.2
	c0-0.7-0.3-1.3-0.8-1.8C44,81.6,43.4,81.3,42.7,81.4L42.7,81.4z M51.9,89.2c-0.8,0-1.6-0.2-2.3-0.6c-0.6-0.4-1-1-1.1-1.8l1.3-0.4
	c0.1,0.5,0.3,0.9,0.7,1.2c0.4,0.3,0.9,0.4,1.4,0.4c0.3,0,0.6,0,0.8-0.1c0.2-0.1,0.5-0.2,0.6-0.4c0.3-0.3,0.3-0.8,0.2-1.1
	c0-0.1-0.1-0.2-0.1-0.3c-0.1-0.1-0.1-0.2-0.2-0.2c-0.1-0.1-0.2-0.1-0.3-0.2c-0.1-0.1-0.3-0.1-0.4-0.2c-0.2-0.1-0.3-0.1-0.4-0.1
	s-0.3-0.1-0.5-0.1S51.1,85.1,51,85c-0.3-0.1-0.6-0.2-0.9-0.3c-0.3-0.1-0.5-0.3-0.7-0.4c-0.2-0.2-0.4-0.4-0.6-0.7
	c-0.1-0.3-0.2-0.6-0.2-1c0-0.5,0.1-1,0.4-1.4c0.3-0.4,0.7-0.7,1.1-0.8c0.5-0.2,1-0.3,1.5-0.3c0.7,0,1.5,0.2,2.1,0.6
	c0.6,0.4,1,1,1,1.7l-1.2,0.3c-0.1-0.4-0.3-0.8-0.7-1.1c-0.4-0.2-0.8-0.4-1.2-0.4c-0.4,0-0.8,0.1-1.2,0.3c-0.3,0.2-0.5,0.6-0.5,0.9
	c0,0.2,0,0.3,0.1,0.5c0.1,0.1,0.2,0.2,0.3,0.3c0.1,0.1,0.3,0.2,0.5,0.3c0.2,0.1,0.4,0.2,0.5,0.2c0.1,0,0.3,0.1,0.6,0.2
	c0.1,0,0.1,0,0.1,0c0.3,0.1,0.6,0.2,0.8,0.2c0.3,0.1,0.5,0.2,0.7,0.3c0.2,0.1,0.5,0.3,0.7,0.5c0.2,0.2,0.3,0.4,0.4,0.7
	C55,86,55,86.3,55,86.6c0,0.4-0.1,0.8-0.3,1.2c-0.2,0.3-0.4,0.6-0.7,0.8c-0.3,0.2-0.6,0.3-1,0.4C52.7,89.1,52.3,89.2,51.9,89.2
	L51.9,89.2z M63.6,81.9c0.2-0.5,0.6-0.9,1.1-1.2c0.5-0.3,1.1-0.5,1.7-0.5v1.4c-0.7-0.1-1.4,0.2-2,0.6c-0.5,0.6-0.8,1.3-0.7,2V89
	h-1.5v-8.6h1.5L63.6,81.9z M75.6,84.5l0,0.4h-6.8c0,0.8,0.3,1.6,0.8,2.2c0.5,0.5,1.2,0.8,2,0.8c0.5,0,1-0.1,1.4-0.4
	c0.4-0.3,0.8-0.7,1-1.1l1.4,0.3c-0.3,0.8-0.8,1.4-1.5,1.9c-0.7,0.5-1.5,0.7-2.3,0.7c-1.2,0-2.3-0.4-3.1-1.2
	c-0.8-0.9-1.3-2.1-1.2-3.3c-0.1-1.2,0.4-2.4,1.2-3.3c0.8-0.8,1.9-1.2,3.1-1.2c1.1,0,2.1,0.4,2.9,1.1C75.2,82.2,75.6,83.3,75.6,84.5
	L75.6,84.5z M71.6,81.4c-0.7,0-1.3,0.2-1.8,0.6c-0.5,0.5-0.8,1.1-0.9,1.8H74c0-0.7-0.3-1.3-0.8-1.8C72.8,81.6,72.2,81.3,71.6,81.4
	L71.6,81.4z M81.5,89.2c-1.2,0-2.3-0.4-3.1-1.2c-0.8-0.9-1.3-2-1.2-3.2c-0.1-1.2,0.4-2.4,1.2-3.2c1.5-1.5,3.8-1.7,5.6-0.5
	c0.7,0.5,1.2,1.3,1.5,2.1l-1.4,0.2c-0.2-0.5-0.5-1-1-1.3c-0.5-0.3-1-0.5-1.6-0.5c-0.8,0-1.5,0.3-2,0.9c-1,1.4-1,3.3,0,4.7
	c0.5,0.6,1.2,0.9,2,0.9c0.6,0,1.1-0.2,1.6-0.5c0.5-0.3,0.8-0.8,1-1.3l1.4,0.2c-0.2,0.8-0.7,1.6-1.5,2.1
	C83.3,88.9,82.4,89.2,81.5,89.2L81.5,89.2z M91.4,89.2c-0.8,0-1.5-0.2-2.2-0.5c-0.7-0.4-1.2-0.9-1.6-1.6c-0.4-0.7-0.6-1.6-0.6-2.4
	c-0.1-1.2,0.4-2.4,1.2-3.3c1.8-1.6,4.5-1.6,6.3,0c0.8,0.9,1.3,2,1.2,3.3c0.1,1.2-0.4,2.4-1.2,3.3C93.7,88.8,92.5,89.2,91.4,89.2
	L91.4,89.2z M91.4,87.9c0.8,0,1.5-0.3,2-0.9c1.1-1.4,1.1-3.3,0-4.7c-0.5-0.6-1.3-0.9-2-0.9c-0.8,0-1.5,0.3-2,0.9
	c-1.1,1.4-1.1,3.3,0,4.7C89.8,87.6,90.6,87.9,91.4,87.9z M102.2,80.2c0.8,0,1.6,0.2,2.2,0.8c0.6,0.6,0.9,1.4,0.8,2.2V89h-1.5v-5.5
	c0-0.6-0.1-1.1-0.5-1.5c-0.4-0.3-0.9-0.5-1.4-0.5c-0.6,0-1.1,0.2-1.5,0.6c-0.4,0.5-0.6,1.1-0.6,1.8V89h-1.5v-8.6h1.5v1.1
	C100.2,80.6,101.2,80.1,102.2,80.2L102.2,80.2z M111.7,89.2c-0.8,0-1.5-0.2-2.2-0.5c-0.7-0.4-1.2-0.9-1.6-1.6
	c-0.4-0.7-0.6-1.6-0.6-2.4c-0.1-1.2,0.4-2.4,1.2-3.3c1.8-1.6,4.5-1.6,6.3,0c0.8,0.9,1.3,2,1.2,3.3c0.1,1.2-0.4,2.4-1.2,3.3
	C114,88.8,112.9,89.2,111.7,89.2L111.7,89.2z M111.7,87.9c0.8,0,1.5-0.3,2-0.9c1.1-1.4,1.1-3.3,0-4.7c-0.5-0.6-1.3-0.9-2-0.9
	c-0.8,0-1.5,0.3-2,0.9c-1.1,1.4-1.1,3.3,0,4.7C110.2,87.6,111,87.9,111.7,87.9z M122.1,89.2c-1.2,0-2.3-0.4-3.1-1.2
	c-0.8-0.9-1.3-2-1.2-3.2c-0.1-1.2,0.4-2.4,1.2-3.2c1.5-1.5,3.8-1.7,5.6-0.5c0.7,0.5,1.2,1.3,1.5,2.1l-1.4,0.2c-0.2-0.5-0.5-1-1-1.3
	c-0.5-0.3-1-0.5-1.6-0.5c-0.8,0-1.5,0.3-2,0.9c-1,1.4-1,3.3,0,4.7c0.5,0.6,1.2,0.9,2,0.9c0.6,0,1.1-0.2,1.6-0.5
	c0.5-0.3,0.8-0.8,1-1.3l1.4,0.2c-0.2,0.8-0.7,1.6-1.5,2.1C123.8,88.9,122.9,89.2,122.1,89.2L122.1,89.2z M129,78.3c-0.6,0-1-0.5-1-1
	c0-0.3,0.1-0.5,0.3-0.7c0.2-0.2,0.5-0.3,0.7-0.3c0.3,0,0.5,0.1,0.7,0.3c0.2,0.2,0.3,0.4,0.3,0.7c0,0.3-0.1,0.5-0.3,0.7
	C129.6,78.2,129.3,78.3,129,78.3L129,78.3z M128.2,89v-8.6h1.5V89H128.2z M139.2,75.5h1.5V89h-1.5l0-1.7c-0.3,0.6-0.7,1-1.2,1.4
	c-0.6,0.3-1.2,0.5-1.8,0.5c-1.1,0-2.1-0.4-2.9-1.2c-0.4-0.4-0.7-0.9-0.9-1.4c-0.2-0.6-0.3-1.2-0.3-1.9c-0.1-1.2,0.4-2.4,1.2-3.2
	c0.7-0.8,1.8-1.3,2.9-1.2c0.6,0,1.3,0.2,1.8,0.5c0.5,0.3,1,0.8,1.2,1.3L139.2,75.5z M136.5,87.9c0.8,0,1.5-0.3,2-0.9
	c1.1-1.3,1.1-3.2,0-4.5c-0.5-0.6-1.2-0.9-2-0.9c-0.8,0-1.5,0.3-2,0.9c-1.1,1.3-1.1,3.3,0,4.6C135,87.6,135.8,87.9,136.5,87.9
	L136.5,87.9z M161.6,89.2c-0.8,0-1.6-0.2-2.3-0.6c-0.6-0.4-1-1-1.1-1.8l1.3-0.4c0.1,0.5,0.3,0.9,0.7,1.2c0.4,0.3,0.9,0.4,1.4,0.4
	c0.3,0,0.6,0,0.8-0.1c0.2-0.1,0.5-0.2,0.6-0.4c0.3-0.3,0.3-0.8,0.2-1.1c0-0.1-0.1-0.2-0.1-0.3c-0.1-0.1-0.1-0.2-0.2-0.2
	c-0.1-0.1-0.2-0.1-0.3-0.2c-0.1-0.1-0.3-0.1-0.4-0.2c-0.2-0.1-0.3-0.1-0.4-0.1c-0.1,0-0.3-0.1-0.5-0.1c-0.2-0.1-0.4-0.1-0.5-0.1
	c-0.3-0.1-0.6-0.2-0.9-0.3c-0.3-0.1-0.5-0.3-0.7-0.4c-0.2-0.2-0.4-0.4-0.6-0.7c-0.1-0.3-0.2-0.6-0.2-1c0-0.5,0.1-1,0.4-1.4
	c0.3-0.4,0.7-0.7,1.1-0.8c0.5-0.2,1-0.3,1.5-0.3c0.7,0,1.5,0.2,2.1,0.6c0.6,0.4,1,1,1.1,1.7l-1.2,0.3c-0.1-0.4-0.3-0.8-0.7-1.1
	c-0.4-0.2-0.8-0.4-1.2-0.4c-0.4,0-0.8,0.1-1.2,0.3c-0.3,0.2-0.5,0.6-0.5,0.9c0,0.2,0,0.3,0.1,0.5c0.1,0.1,0.2,0.2,0.3,0.3
	c0.1,0.1,0.3,0.2,0.5,0.3c0.2,0.1,0.4,0.2,0.5,0.2s0.3,0.1,0.6,0.2c0.1,0,0.1,0,0.1,0c0.3,0.1,0.6,0.2,0.8,0.2
	c0.3,0.1,0.5,0.2,0.7,0.3c0.2,0.1,0.5,0.3,0.7,0.5c0.2,0.2,0.3,0.4,0.4,0.7c0.1,0.3,0.2,0.6,0.2,0.9c0,0.4-0.1,0.8-0.3,1.2
	c-0.2,0.3-0.4,0.6-0.7,0.8c-0.3,0.2-0.6,0.3-1,0.4C162.5,89.1,162.1,89.2,161.6,89.2L161.6,89.2z M168,78.3c-0.6,0-1-0.5-1-1
	c0-0.3,0.1-0.5,0.3-0.7c0.2-0.2,0.5-0.3,0.7-0.3c0.3,0,0.5,0.1,0.7,0.3c0.2,0.2,0.3,0.4,0.3,0.7c0,0.3-0.1,0.5-0.3,0.7
	C168.5,78.2,168.3,78.3,168,78.3L168,78.3z M167.2,89v-8.6h1.5V89H167.2z M175.9,80.2c0.8,0,1.6,0.2,2.2,0.8
	c0.6,0.6,0.9,1.4,0.8,2.2V89h-1.5v-5.5c0-0.6-0.1-1.1-0.5-1.5c-0.4-0.3-0.9-0.5-1.4-0.5c-0.6,0-1.1,0.2-1.5,0.6
	c-0.4,0.5-0.6,1.1-0.6,1.8V89h-1.5v-8.6h1.5v1.1C173.9,80.6,174.9,80.1,175.9,80.2L175.9,80.2z M189.3,89c-0.6,0-1.2-0.2-1.7-0.6
	c-0.4-0.5-0.7-1.1-0.6-1.7v-5.1h-1.8v-1.2h0.6c0.3,0,0.7-0.1,1-0.3c0.2-0.3,0.3-0.7,0.3-1v-1.6h1.4v2.9h2v1.2h-2v4.9
	c0,0.3,0.1,0.7,0.3,1c0.2,0.2,0.5,0.4,0.9,0.3h0.8V89H189.3z M200.1,84.5l0,0.4h-6.8c0,0.8,0.3,1.6,0.8,2.2c0.5,0.5,1.2,0.8,2,0.8
	c0.5,0,1-0.1,1.4-0.4c0.4-0.3,0.8-0.7,1-1.1l1.4,0.3c-0.3,0.8-0.8,1.4-1.5,1.9c-0.7,0.5-1.5,0.7-2.3,0.7c-1.2,0-2.3-0.4-3.1-1.2
	c-0.8-0.9-1.3-2.1-1.2-3.3c-0.1-1.2,0.4-2.4,1.2-3.3c0.8-0.8,1.9-1.2,3.1-1.2c1.1,0,2.1,0.4,2.9,1.1
	C199.8,82.2,200.2,83.3,200.1,84.5L200.1,84.5z M196.1,81.4c-0.7,0-1.3,0.2-1.8,0.6c-0.5,0.5-0.8,1.1-0.9,1.8h5.2
	c0-0.7-0.3-1.3-0.8-1.8C197.4,81.6,196.8,81.3,196.1,81.4L196.1,81.4z M201,89l3.3-4.3l-3.3-4.3h1.9l2.4,3.3l2.4-3.3h1.8l-3.3,4.3
	l3.3,4.3h-1.9l-2.4-3.3l-2.4,3.3H201z M214.1,89c-0.6,0-1.2-0.2-1.7-0.6c-0.4-0.5-0.7-1.1-0.6-1.7v-5.1H210v-1.2h0.6
	c0.3,0,0.7-0.1,1-0.3c0.2-0.3,0.3-0.7,0.3-1v-1.6h1.4v2.9h2v1.2h-2v4.9c0,0.3,0.1,0.7,0.3,1c0.2,0.2,0.5,0.4,0.9,0.3h0.8V89H214.1z
	 M221,89.2c-0.8,0-1.5-0.2-2.2-0.5c-0.7-0.4-1.2-0.9-1.6-1.6c-0.4-0.7-0.6-1.6-0.6-2.4c-0.1-1.2,0.4-2.4,1.2-3.3
	c1.8-1.6,4.5-1.6,6.3,0c0.8,0.9,1.3,2,1.2,3.3c0.1,1.2-0.4,2.4-1.2,3.3C223.3,88.8,222.2,89.2,221,89.2L221,89.2z M221,87.9
	c0.8,0,1.5-0.3,2-0.9c1.1-1.4,1.1-3.3,0-4.7c-0.5-0.6-1.3-0.9-2-0.9c-0.8,0-1.5,0.3-2,0.9c-1.1,1.4-1.1,3.3,0,4.7
	C219.5,87.6,220.3,87.9,221,87.9z M145.7,89c-0.7,0-1.4-0.2-1.9-0.6c-0.5-0.4-0.8-1.1-0.7-1.8c0-0.4,0.1-0.8,0.2-1.1
	c0.2-0.3,0.4-0.6,0.7-0.8c0.3-0.2,0.7-0.4,1-0.5c0.4-0.1,0.9-0.2,1.3-0.3l1.4-0.2c0.5-0.1,0.8-0.4,0.8-0.8c0-0.5-0.2-1-0.5-1.3
	c-0.4-0.3-0.9-0.4-1.4-0.4c-0.5,0-1,0.1-1.4,0.4c-0.4,0.3-0.6,0.7-0.6,1.2l-1.4-0.3c0.1-0.7,0.5-1.4,1.1-1.8
	c0.7-0.4,1.5-0.7,2.4-0.6c0.4,0,0.8,0,1.3,0.2c0.4,0.1,0.7,0.3,1,0.5c0.3,0.2,0.6,0.6,0.7,0.9c0.2,0.4,0.3,0.9,0.3,1.4v3.6
	c0,0.3,0,0.6,0.2,0.9c0.2,0.2,0.4,0.3,0.7,0.2h0.1v1.1h-0.8c-0.8,0.1-1.5-0.4-1.6-1.2h-0.1C147.9,88.5,146.8,89,145.7,89z
	 M146.1,87.8c0.7,0,1.4-0.3,1.9-0.8c0.5-0.7,0.7-1.5,0.7-2.3l-2.3,0.4c-0.5,0.1-0.9,0.2-1.3,0.5c-0.3,0.2-0.5,0.6-0.4,0.9
	c0,0.4,0.1,0.7,0.4,0.9C145.3,87.7,145.7,87.8,146.1,87.8L146.1,87.8z"/>
<path id="Trazado_26591" class="st0" d="M5.2,167.9h5.3v3.1H1.7v-16.9h3.5V167.9z M20.4,171.2c-1.5,0-3.1-0.3-4.4-1.1
	c-1.3-0.7-2.4-1.8-3.1-3.1c-0.8-1.4-1.2-3-1.1-4.6c0-1.6,0.4-3.2,1.1-4.6c0.7-1.3,1.8-2.3,3.1-3c1.4-0.7,2.9-1.1,4.4-1.1
	c1.5,0,3.1,0.3,4.4,1.1c1.3,0.7,2.4,1.8,3.1,3c0.8,1.4,1.2,3,1.1,4.6c0,1.6-0.4,3.2-1.1,4.6c-0.7,1.3-1.8,2.4-3.1,3.1
	C23.4,170.9,21.9,171.3,20.4,171.2z M16.7,166.5c1,1,2.3,1.5,3.7,1.5c1.4,0,2.7-0.5,3.7-1.5c1-1.1,1.5-2.5,1.5-4
	c0.1-1.5-0.4-2.9-1.5-4c-1-1-2.3-1.5-3.7-1.5c-1.4,0-2.7,0.5-3.7,1.5c-1,1.1-1.5,2.5-1.5,4C15.1,164,15.7,165.4,16.7,166.5
	L16.7,166.5z M39.6,171.2c-1.2,0-2.3-0.2-3.4-0.6c-1-0.4-1.9-1-2.7-1.7c-0.8-0.8-1.4-1.7-1.8-2.7c-0.4-1.1-0.7-2.4-0.6-3.6
	c0-1.2,0.2-2.5,0.7-3.6c0.4-1,1-2,1.8-2.8c0.8-0.8,1.7-1.4,2.7-1.7c1.1-0.4,2.3-0.6,3.5-0.6c1.5,0,3,0.3,4.4,1
	c1.3,0.7,2.4,1.7,3.1,2.9l-3.1,1.6c-0.4-0.8-1-1.5-1.8-1.9c-0.8-0.4-1.7-0.7-2.6-0.6c-1.4,0-2.7,0.5-3.7,1.5c-1,1.1-1.5,2.6-1.4,4.1
	c-0.1,1.5,0.4,3,1.4,4.1c1,1,2.4,1.6,3.8,1.5c0.7,0,1.4-0.1,2.1-0.4c0.6-0.3,1.2-0.7,1.6-1.2c0.5-0.6,0.8-1.3,0.9-2h-4.6v-2.8h8v9.2
	h-2.8v-2.3C43.8,170.4,41.7,171.4,39.6,171.2z M59,171.2c-1.5,0-3.1-0.3-4.4-1.1c-1.3-0.7-2.4-1.8-3.1-3.1c-0.8-1.4-1.2-3-1.1-4.6
	c0-1.6,0.4-3.2,1.1-4.6c0.7-1.3,1.8-2.3,3.1-3c1.4-0.7,2.9-1.1,4.4-1.1c1.5,0,3.1,0.3,4.4,1.1c1.3,0.7,2.4,1.8,3.1,3
	c0.8,1.4,1.2,3,1.1,4.6c0,1.6-0.4,3.2-1.1,4.6c-0.7,1.3-1.8,2.4-3.1,3.1C62.1,170.9,60.5,171.3,59,171.2z M55.3,166.5
	c1,1,2.3,1.5,3.7,1.5c1.4,0,2.7-0.5,3.7-1.5c1-1.1,1.5-2.5,1.5-4c0.1-1.5-0.4-2.9-1.5-4c-1-1-2.3-1.5-3.7-1.5
	c-1.4,0-2.7,0.5-3.7,1.5c-1,1.1-1.5,2.5-1.5,4C53.8,164,54.3,165.4,55.3,166.5L55.3,166.5z M80.1,154.1v3.1h-4V171h-3.5v-13.8h-4
	v-3.1H80.1z M82.8,171v-16.9h3.5V171H82.8z M97.7,154.1c1.5-0.1,2.9,0.5,3.9,1.6c1,1.1,1.5,2.5,1.5,3.9c0.1,1.4-0.5,2.8-1.5,3.9
	c-1,1-2.5,1.6-3.9,1.5h-3.5v6.1h-3.5v-16.9H97.7z M97.1,162c0.7,0.1,1.4-0.2,1.9-0.7c0.5-0.5,0.7-1.2,0.6-1.8c0-0.7-0.2-1.3-0.7-1.8
	c-0.5-0.5-1.2-0.7-1.9-0.7h-2.9v5L97.1,162z M113.5,171.2c-1.5,0-3.1-0.3-4.4-1.1c-1.3-0.7-2.4-1.8-3.1-3.1c-0.8-1.4-1.2-3-1.1-4.6
	c0-1.6,0.4-3.2,1.1-4.6c0.7-1.3,1.8-2.3,3.1-3c1.4-0.7,2.9-1.1,4.4-1.1c1.5,0,3.1,0.3,4.4,1.1c1.3,0.7,2.4,1.8,3.1,3
	c0.8,1.4,1.2,3,1.1,4.6c0,1.6-0.4,3.2-1.1,4.6c-0.7,1.3-1.8,2.4-3.1,3.1C116.6,170.9,115.1,171.3,113.5,171.2z M109.8,166.5
	c1,1,2.3,1.5,3.7,1.5c1.4,0,2.7-0.5,3.7-1.5c1-1.1,1.5-2.5,1.5-4c0.1-1.5-0.4-2.9-1.5-4c-1-1-2.3-1.5-3.7-1.5
	c-1.4,0-2.7,0.5-3.7,1.5c-1,1.1-1.5,2.5-1.5,4C108.3,164,108.8,165.4,109.8,166.5L109.8,166.5z"/>
<path id="Trazado_26592" class="st0" d="M9.3,192.6h1.6V205H9.3v-5.5H3v5.5H1.4v-12.4H3v5.5h6.3V192.6z M16.2,205.2
	c-0.7,0-1.4-0.2-1.9-0.6c-0.5-0.4-0.8-1.1-0.7-1.8c0-0.4,0.1-0.8,0.2-1.1c0.2-0.3,0.4-0.6,0.7-0.8c0.3-0.2,0.7-0.4,1-0.5
	c0.4-0.1,0.9-0.2,1.3-0.3l1.4-0.2c0.5-0.1,0.8-0.4,0.8-0.8c0-0.5-0.2-1-0.5-1.3c-0.4-0.3-0.9-0.4-1.4-0.4c-0.5,0-1,0.1-1.4,0.4
	c-0.4,0.3-0.6,0.7-0.6,1.2l-1.4-0.3c0.1-0.7,0.5-1.4,1.1-1.9c0.7-0.4,1.5-0.7,2.4-0.6c0.4,0,0.8,0,1.3,0.2c0.4,0.1,0.7,0.3,1,0.5
	c0.3,0.2,0.6,0.6,0.7,0.9c0.2,0.4,0.3,0.9,0.3,1.4v3.6c0,0.3,0,0.6,0.2,0.9c0.2,0.2,0.4,0.3,0.7,0.2h0.1v1.1h-0.8
	c-0.8,0.1-1.5-0.4-1.6-1.2h-0.1C18.4,204.7,17.3,205.2,16.2,205.2z M16.6,203.9c0.7,0,1.4-0.3,1.9-0.8c0.5-0.7,0.7-1.5,0.7-2.3
	l-2.3,0.4c-0.5,0.1-0.9,0.2-1.3,0.5c-0.3,0.2-0.5,0.6-0.4,0.9c0,0.4,0.1,0.7,0.4,0.9C15.8,203.8,16.2,204,16.6,203.9L16.6,203.9z
	 M28.2,196.2c1.1,0,2.1,0.4,2.9,1.2c0.8,0.9,1.2,2.1,1.2,3.2c0.1,1.2-0.4,2.4-1.2,3.3c-0.7,0.8-1.8,1.3-2.9,1.2
	c-0.6,0-1.3-0.2-1.8-0.5c-0.5-0.3-1-0.8-1.2-1.4l0,1.7h-1.5v-13.5h1.5l0,6.5c0.3-0.6,0.7-1,1.2-1.3C27,196.4,27.6,196.2,28.2,196.2z
	 M27.9,203.9c0.8,0,1.5-0.3,2-0.9c0.6-0.6,0.9-1.5,0.8-2.3c0-0.8-0.3-1.7-0.8-2.3c-0.5-0.6-1.3-0.9-2-0.9c-0.8,0-1.5,0.3-2,0.9
	c-0.6,0.6-0.8,1.4-0.8,2.3c0,0.8,0.3,1.6,0.8,2.3C26.4,203.5,27.1,203.9,27.9,203.9z M34.7,205v-13.5h1.5V205H34.7z M41.3,205.2
	c-0.7,0-1.4-0.2-1.9-0.6c-0.5-0.4-0.8-1.1-0.7-1.8c0-0.4,0.1-0.8,0.2-1.1c0.2-0.3,0.4-0.6,0.7-0.8c0.3-0.2,0.7-0.4,1-0.5
	c0.4-0.1,0.9-0.2,1.3-0.3l1.4-0.2c0.5-0.1,0.8-0.4,0.8-0.8c0-0.5-0.2-1-0.5-1.3c-0.4-0.3-0.9-0.4-1.4-0.4c-0.5,0-1,0.1-1.4,0.4
	c-0.4,0.3-0.6,0.7-0.6,1.2l-1.4-0.3c0.1-0.7,0.5-1.4,1.1-1.9c0.7-0.4,1.5-0.7,2.4-0.6c0.4,0,0.8,0,1.3,0.2c0.4,0.1,0.7,0.3,1,0.5
	c0.3,0.2,0.6,0.6,0.7,0.9c0.2,0.4,0.3,0.9,0.3,1.4v3.6c0,0.3,0,0.6,0.2,0.9c0.2,0.2,0.4,0.3,0.7,0.2h0.1v1.1h-0.8
	c-0.8,0.1-1.5-0.4-1.6-1.2h-0.1C43.5,204.7,42.4,205.2,41.3,205.2z M41.6,203.9c0.7,0,1.4-0.3,1.9-0.8c0.5-0.7,0.7-1.5,0.7-2.3
	l-2.3,0.4c-0.5,0.1-0.9,0.2-1.3,0.5c-0.3,0.2-0.5,0.6-0.4,0.9c0,0.4,0.1,0.7,0.4,0.9C40.9,203.8,41.3,204,41.6,203.9z M57.6,196.2
	c0.7,0,1.5,0.2,2,0.7c0.5,0.5,0.8,1.3,0.8,2.1v6h-1.5v-5.6c0-0.5-0.1-1-0.5-1.4c-0.3-0.3-0.8-0.5-1.2-0.5c-0.5,0-1,0.2-1.3,0.5
	c-0.4,0.5-0.5,1-0.5,1.6v5.3h-1.6v-5.6c0-0.5-0.1-1.1-0.5-1.5c-0.3-0.3-0.8-0.5-1.2-0.5c-0.5,0-1,0.2-1.3,0.6
	c-0.4,0.5-0.6,1.1-0.5,1.7v5.3h-1.5v-8.6h1.5v1.1c0.2-0.4,0.6-0.7,1-0.9c0.4-0.2,0.9-0.3,1.4-0.3c0.5,0,1,0.1,1.5,0.4
	c0.4,0.2,0.8,0.6,1,1.1c0.2-0.4,0.6-0.8,1-1.1C56.5,196.3,57,196.2,57.6,196.2z M66.9,205.2c-0.8,0-1.5-0.2-2.2-0.5
	c-0.7-0.4-1.2-0.9-1.6-1.6c-0.4-0.7-0.6-1.6-0.6-2.4c-0.1-1.2,0.4-2.4,1.2-3.3c1.8-1.6,4.5-1.6,6.3,0c0.8,0.9,1.3,2,1.2,3.3
	c0.1,1.2-0.4,2.4-1.2,3.3C69.2,204.8,68.1,205.2,66.9,205.2z M66.9,203.9c0.8,0,1.5-0.3,2-0.9c0.6-0.6,0.9-1.5,0.8-2.3
	c0-0.9-0.3-1.7-0.8-2.3c-0.5-0.6-1.3-0.9-2-0.9c-0.8,0-1.5,0.3-2,0.9c-0.6,0.6-0.8,1.5-0.8,2.3c0,0.9,0.2,1.7,0.8,2.3
	C65.4,203.6,66.1,203.9,66.9,203.9z M76.4,205.2c-0.8,0-1.6-0.2-2.3-0.6c-0.6-0.4-1-1-1.1-1.8l1.3-0.4c0.1,0.5,0.3,0.9,0.7,1.2
	c0.4,0.3,0.9,0.4,1.4,0.4c0.3,0,0.6,0,0.8-0.1c0.2-0.1,0.5-0.2,0.6-0.4c0.3-0.3,0.3-0.8,0.2-1.1c0-0.1-0.1-0.2-0.1-0.3
	c-0.1-0.1-0.1-0.2-0.2-0.2c-0.1-0.1-0.2-0.1-0.3-0.2c-0.1-0.1-0.3-0.1-0.4-0.2c-0.2-0.1-0.3-0.1-0.4-0.1s-0.3-0.1-0.5-0.1
	c-0.2-0.1-0.4-0.1-0.5-0.1c-0.3-0.1-0.6-0.2-0.9-0.3c-0.3-0.1-0.5-0.3-0.7-0.4c-0.2-0.2-0.4-0.4-0.6-0.7c-0.1-0.3-0.2-0.6-0.2-1
	c0-0.5,0.1-1,0.4-1.4c0.3-0.4,0.7-0.7,1.1-0.8c0.5-0.2,1-0.3,1.5-0.3c0.7,0,1.5,0.2,2.1,0.6c0.6,0.4,1,1,1.1,1.7l-1.2,0.3
	c-0.1-0.4-0.3-0.8-0.7-1.1c-0.4-0.2-0.8-0.4-1.2-0.4c-0.4,0-0.8,0.1-1.2,0.3c-0.3,0.2-0.5,0.6-0.5,0.9c0,0.2,0,0.3,0.1,0.5
	c0.1,0.1,0.2,0.2,0.3,0.3c0.1,0.1,0.3,0.2,0.5,0.3c0.2,0.1,0.4,0.2,0.5,0.2c0.1,0,0.3,0.1,0.6,0.2c0.1,0,0.1,0,0.1,0
	c0.3,0.1,0.6,0.2,0.8,0.2c0.3,0.1,0.5,0.2,0.7,0.3c0.2,0.1,0.5,0.3,0.7,0.5c0.2,0.2,0.3,0.4,0.4,0.7c0.1,0.3,0.2,0.6,0.2,0.9
	c0,0.4-0.1,0.8-0.3,1.2c-0.2,0.3-0.4,0.6-0.7,0.8c-0.3,0.2-0.6,0.3-1,0.4C77.2,205.1,76.8,205.2,76.4,205.2L76.4,205.2z M93,191.5
	h1.5V205h-1.5l0-1.7c-0.3,0.6-0.7,1-1.2,1.4c-0.6,0.3-1.2,0.5-1.8,0.5c-1.1,0-2.1-0.4-2.9-1.2c-0.4-0.4-0.7-0.9-0.9-1.4
	c-0.2-0.6-0.3-1.2-0.3-1.9c0-1.2,0.4-2.4,1.2-3.2c0.7-0.8,1.8-1.3,2.9-1.2c0.6,0,1.3,0.2,1.8,0.5c0.5,0.3,1,0.8,1.2,1.3V191.5z
	 M90.3,203.9c0.8,0,1.5-0.3,2-0.9c0.5-0.6,0.8-1.4,0.8-2.3c0-0.8-0.3-1.6-0.8-2.3c-0.5-0.6-1.2-0.9-2-0.9c-0.8,0-1.5,0.3-2,0.9
	c-0.6,0.6-0.9,1.5-0.8,2.3c0,0.8,0.3,1.7,0.8,2.3C88.8,203.6,89.5,203.9,90.3,203.9z M105.2,200.5l0,0.4h-6.8c0,0.8,0.3,1.6,0.8,2.2
	c0.5,0.5,1.2,0.8,2,0.8c0.5,0,1-0.1,1.4-0.4c0.4-0.3,0.8-0.7,1-1.1l1.4,0.3c-0.3,0.8-0.8,1.4-1.5,1.9c-0.7,0.5-1.5,0.7-2.3,0.7
	c-1.2,0-2.3-0.4-3.1-1.2c-0.8-0.9-1.3-2.1-1.2-3.3c-0.1-1.2,0.4-2.4,1.2-3.3c0.8-0.8,1.9-1.2,3.1-1.2c1.1,0,2.1,0.4,2.9,1.1
	C104.9,198.2,105.3,199.3,105.2,200.5L105.2,200.5z M101.2,197.4c-0.7,0-1.3,0.2-1.8,0.6c-0.5,0.5-0.8,1.1-0.9,1.8h5.2
	c0-0.7-0.3-1.3-0.8-1.8C102.4,197.6,101.8,197.3,101.2,197.4L101.2,197.4z M112.2,205v-13.5h1.5V205H112.2z M120.5,205.2
	c-0.8,0-1.5-0.2-2.2-0.5c-0.7-0.4-1.2-0.9-1.6-1.6c-0.4-0.7-0.6-1.6-0.6-2.4c-0.1-1.2,0.4-2.4,1.2-3.3c1.8-1.6,4.5-1.6,6.3,0
	c0.8,0.9,1.3,2,1.2,3.3c0.1,1.2-0.4,2.4-1.2,3.3C122.8,204.8,121.7,205.2,120.5,205.2z M120.5,203.9c0.8,0,1.5-0.3,2-0.9
	c0.6-0.6,0.9-1.5,0.8-2.3c0-0.9-0.3-1.7-0.8-2.3c-0.5-0.6-1.3-0.9-2-0.9c-0.8,0-1.5,0.3-2,0.9c-0.6,0.6-0.8,1.5-0.8,2.3
	c0,0.9,0.2,1.7,0.8,2.3C119,203.6,119.7,203.9,120.5,203.9z M133.5,196.4h1.5v8.2c0.1,1.2-0.3,2.4-1.1,3.4c-1.9,1.7-4.9,1.5-6.6-0.4
	c-0.3-0.3-0.5-0.7-0.7-1.1l1.3-0.6c0.4,1.3,1.6,2.1,2.9,2c0.8,0,1.5-0.3,2-0.8c0.5-0.7,0.8-1.5,0.7-2.4V203c-0.3,0.5-0.7,1-1.2,1.2
	c-0.5,0.3-1.2,0.5-1.8,0.5c-1.1,0-2.1-0.4-2.8-1.2c-0.8-0.8-1.2-1.9-1.2-3.1c0-1.1,0.4-2.2,1.2-3.1c0.7-0.8,1.7-1.2,2.8-1.2
	c0.6,0,1.3,0.2,1.8,0.5c0.5,0.3,0.9,0.7,1.2,1.3L133.5,196.4z M130.8,203.5c0.8,0,1.5-0.3,2-0.9c1.1-1.2,1.1-3,0-4.2
	c-1-1.1-2.7-1.2-3.8-0.2c-0.1,0.1-0.1,0.1-0.2,0.2c-0.5,0.6-0.8,1.4-0.8,2.1c0,0.8,0.3,1.6,0.8,2.1
	C129.3,203.2,130,203.5,130.8,203.5L130.8,203.5z M141.7,205.2c-0.8,0-1.5-0.2-2.2-0.5c-0.7-0.4-1.2-0.9-1.6-1.6
	c-0.4-0.7-0.6-1.6-0.6-2.4c-0.1-1.2,0.4-2.4,1.2-3.3c1.8-1.6,4.5-1.6,6.3,0c0.8,0.9,1.3,2,1.2,3.3c0.1,1.2-0.4,2.4-1.2,3.3
	C144,204.8,142.9,205.2,141.7,205.2L141.7,205.2z M141.7,203.9c0.8,0,1.5-0.3,2-0.9c0.6-0.6,0.9-1.5,0.8-2.3c0-0.9-0.3-1.7-0.8-2.3
	c-0.5-0.6-1.3-0.9-2-0.9c-0.8,0-1.5,0.3-2,0.9c-0.6,0.6-0.8,1.5-0.8,2.3c0,0.9,0.2,1.7,0.8,2.3C140.2,203.6,140.9,203.9,141.7,203.9
	z M151.2,205c-0.6,0-1.2-0.2-1.7-0.6c-0.4-0.5-0.7-1.1-0.6-1.7v-5.1h-1.8v-1.2h0.6c0.3,0,0.7-0.1,1-0.3c0.2-0.3,0.3-0.7,0.3-1v-1.6
	h1.4v2.9h2v1.2h-2v4.9c0,0.3,0.1,0.7,0.3,1c0.2,0.2,0.5,0.4,0.9,0.3h0.8v1.2H151.2z M155.4,194.3c-0.6,0-1-0.5-1-1
	c0-0.3,0.1-0.5,0.3-0.7c0.2-0.2,0.5-0.3,0.7-0.3c0.3,0,0.5,0.1,0.7,0.3c0.2,0.2,0.3,0.4,0.3,0.7c0,0.3-0.1,0.5-0.3,0.7
	C155.9,194.2,155.7,194.3,155.4,194.3L155.4,194.3z M154.6,205v-8.6h1.5v8.6H154.6z M163.8,196.2c0.5,0,1.1,0.1,1.6,0.3
	c0.5,0.2,0.9,0.5,1.3,0.9c0.4,0.4,0.7,0.9,0.9,1.4c0.2,0.6,0.3,1.2,0.3,1.9c0.1,1.2-0.4,2.4-1.2,3.3c-0.7,0.8-1.8,1.3-2.9,1.2
	c-0.6,0-1.3-0.2-1.8-0.5c-0.5-0.3-1-0.8-1.2-1.3v6h-1.5v-13h1.5l0,1.7c0.3-0.6,0.7-1,1.2-1.3C162.5,196.4,163.2,196.2,163.8,196.2
	L163.8,196.2z M163.5,203.9c0.8,0,1.5-0.3,2-0.9c0.6-0.6,0.9-1.5,0.8-2.3c0-0.8-0.3-1.7-0.8-2.3c-1-1.1-2.7-1.2-3.9-0.1
	c-0.1,0.1-0.1,0.1-0.2,0.2c-0.6,0.6-0.9,1.4-0.8,2.3c0,0.8,0.3,1.6,0.8,2.3C162,203.5,162.7,203.9,163.5,203.9L163.5,203.9z
	 M173.9,205.2c-0.8,0-1.5-0.2-2.2-0.5c-0.7-0.4-1.2-0.9-1.6-1.6c-0.4-0.7-0.6-1.6-0.6-2.4c-0.1-1.2,0.4-2.4,1.2-3.3
	c1.8-1.6,4.5-1.6,6.3,0c0.8,0.9,1.3,2,1.2,3.3c0.1,1.2-0.4,2.4-1.2,3.3C176.2,204.8,175,205.2,173.9,205.2L173.9,205.2z
	 M173.9,203.9c0.8,0,1.5-0.3,2-0.9c0.6-0.6,0.9-1.5,0.8-2.3c0-0.9-0.3-1.7-0.8-2.3c-0.5-0.6-1.3-0.9-2-0.9c-0.8,0-1.5,0.3-2,0.9
	c-0.6,0.6-0.8,1.5-0.8,2.3c0,0.9,0.2,1.7,0.8,2.3C172.3,203.6,173.1,203.9,173.9,203.9L173.9,203.9z M188.9,205.2
	c-1.2,0-2.3-0.4-3.1-1.2c-0.8-0.9-1.3-2-1.2-3.2c-0.1-1.2,0.4-2.4,1.2-3.2c1.5-1.5,3.8-1.7,5.6-0.5c0.7,0.5,1.2,1.3,1.5,2.1
	l-1.4,0.2c-0.2-0.5-0.5-1-1-1.3c-0.5-0.3-1-0.5-1.6-0.5c-0.8,0-1.5,0.3-2,0.9c-0.5,0.7-0.8,1.5-0.8,2.3c0,0.8,0.2,1.7,0.8,2.3
	c0.5,0.6,1.2,0.9,2,0.9c0.6,0,1.1-0.2,1.6-0.5c0.5-0.3,0.8-0.8,1-1.3l1.4,0.2c-0.2,0.8-0.7,1.6-1.5,2.1
	C190.6,204.9,189.8,205.2,188.9,205.2L188.9,205.2z M200.4,196.4h1.5v8.6h-1.5l0-1.1c-0.3,0.4-0.6,0.8-1.1,1c-0.5,0.2-1,0.3-1.5,0.3
	c-0.8,0-1.6-0.2-2.2-0.8c-0.6-0.6-0.9-1.4-0.8-2.2v-5.8h1.5v5.5c0,0.6,0.1,1.1,0.5,1.5c0.4,0.3,0.9,0.5,1.4,0.5
	c0.6,0,1.1-0.2,1.5-0.6c0.4-0.5,0.6-1.1,0.6-1.8L200.4,196.4z M207,205.2c-0.7,0-1.4-0.2-1.9-0.6c-0.5-0.4-0.8-1.1-0.7-1.8
	c0-0.4,0.1-0.8,0.2-1.1c0.2-0.3,0.4-0.6,0.7-0.8c0.3-0.2,0.7-0.4,1-0.5c0.4-0.1,0.9-0.2,1.3-0.3l1.4-0.2c0.5-0.1,0.8-0.4,0.8-0.8
	c0-0.5-0.2-1-0.5-1.3c-0.4-0.3-0.9-0.4-1.4-0.4c-0.5,0-1,0.1-1.4,0.4c-0.4,0.3-0.6,0.7-0.6,1.2l-1.4-0.3c0.1-0.7,0.5-1.4,1.1-1.9
	c0.7-0.4,1.5-0.7,2.4-0.6c0.4,0,0.8,0,1.3,0.2c0.4,0.1,0.7,0.3,1,0.5c0.3,0.2,0.6,0.6,0.7,0.9c0.2,0.4,0.3,0.9,0.3,1.4v3.6
	c0,0.3,0,0.6,0.2,0.9c0.2,0.2,0.4,0.3,0.7,0.2h0.1v1.1h-0.8c-0.8,0.1-1.5-0.4-1.6-1.2h-0.1C209.2,204.7,208.2,205.2,207,205.2
	L207,205.2z M207.4,203.9c0.7,0,1.4-0.3,1.9-0.8c0.5-0.7,0.7-1.5,0.7-2.3l-2.3,0.4c-0.5,0.1-0.9,0.2-1.3,0.5
	c-0.3,0.2-0.5,0.6-0.4,0.9c0,0.4,0.1,0.7,0.4,0.9C206.6,203.8,207,204,207.4,203.9L207.4,203.9z M218.6,196.2c0.8,0,1.6,0.2,2.2,0.8
	c0.6,0.6,0.9,1.4,0.8,2.2v5.8H220v-5.5c0-0.6-0.1-1.1-0.5-1.5c-0.4-0.3-0.9-0.5-1.4-0.5c-0.6,0-1.1,0.2-1.5,0.6
	c-0.4,0.5-0.6,1.1-0.6,1.8v5.2h-1.5v-8.6h1.5v1.1C216.6,196.6,217.5,196.1,218.6,196.2L218.6,196.2z M230.9,191.5h1.5V205h-1.5
	l0-1.7c-0.3,0.6-0.7,1-1.2,1.4c-0.6,0.3-1.2,0.5-1.8,0.5c-1.1,0-2.1-0.4-2.9-1.2c-0.4-0.4-0.7-0.9-0.9-1.4c-0.2-0.6-0.3-1.2-0.3-1.9
	c-0.1-1.2,0.4-2.4,1.2-3.2c0.7-0.8,1.8-1.3,2.9-1.2c0.6,0,1.3,0.2,1.8,0.5c0.5,0.3,1,0.8,1.2,1.3L230.9,191.5z M228.1,203.9
	c0.8,0,1.5-0.3,2-0.9c0.5-0.6,0.8-1.4,0.8-2.3c0-0.8-0.3-1.6-0.8-2.3c-0.5-0.6-1.2-0.9-2-0.9c-0.8,0-1.5,0.3-2,0.9
	c-0.6,0.6-0.9,1.5-0.8,2.3c0,0.8,0.3,1.7,0.8,2.3C226.6,203.6,227.4,203.9,228.1,203.9L228.1,203.9z M239.1,205.2
	c-0.8,0-1.5-0.2-2.2-0.5c-0.7-0.4-1.2-0.9-1.6-1.6c-0.4-0.7-0.6-1.6-0.6-2.4c-0.1-1.2,0.4-2.4,1.2-3.3c1.8-1.6,4.5-1.6,6.3,0
	c0.8,0.9,1.3,2,1.2,3.3c0.1,1.2-0.4,2.4-1.2,3.3C241.4,204.8,240.3,205.2,239.1,205.2L239.1,205.2z M239.1,203.9
	c0.8,0,1.5-0.3,2-0.9c0.6-0.6,0.9-1.5,0.8-2.3c0-0.9-0.3-1.7-0.8-2.3c-0.5-0.6-1.3-0.9-2-0.9c-0.8,0-1.5,0.3-2,0.9
	c-0.6,0.6-0.8,1.5-0.8,2.3c0,0.9,0.2,1.7,0.8,2.3C237.6,203.6,238.3,203.9,239.1,203.9L239.1,203.9z M253.3,205.2
	c-0.8,0-1.6-0.2-2.3-0.6c-0.6-0.4-1-1-1.1-1.8l1.3-0.4c0.1,0.5,0.3,0.9,0.7,1.2c0.4,0.3,0.9,0.4,1.4,0.4c0.3,0,0.6,0,0.8-0.1
	c0.2-0.1,0.5-0.2,0.6-0.4c0.3-0.3,0.3-0.8,0.2-1.1c0-0.1-0.1-0.2-0.1-0.3c-0.1-0.1-0.1-0.2-0.2-0.2c-0.1-0.1-0.2-0.1-0.3-0.2
	c-0.1-0.1-0.3-0.1-0.4-0.2c-0.2-0.1-0.3-0.1-0.4-0.1c-0.1,0-0.3-0.1-0.5-0.1c-0.2-0.1-0.4-0.1-0.5-0.1c-0.3-0.1-0.6-0.2-0.9-0.3
	c-0.3-0.1-0.5-0.3-0.7-0.4c-0.2-0.2-0.4-0.4-0.6-0.7c-0.1-0.3-0.2-0.6-0.2-1c0-0.5,0.1-1,0.4-1.4c0.3-0.4,0.7-0.7,1.1-0.8
	c0.5-0.2,1-0.3,1.5-0.3c0.7,0,1.5,0.2,2.1,0.6c0.6,0.4,1,1,1,1.7l-1.2,0.3c-0.1-0.4-0.3-0.8-0.7-1.1c-0.4-0.2-0.8-0.4-1.2-0.4
	c-0.4,0-0.8,0.1-1.2,0.3c-0.3,0.2-0.5,0.6-0.5,0.9c0,0.2,0,0.3,0.1,0.5c0.1,0.1,0.2,0.2,0.3,0.3c0.1,0.1,0.3,0.2,0.5,0.3
	c0.2,0.1,0.4,0.2,0.5,0.2s0.3,0.1,0.6,0.2c0.1,0,0.1,0,0.1,0c0.3,0.1,0.6,0.2,0.8,0.2c0.3,0.1,0.5,0.2,0.7,0.3
	c0.2,0.1,0.5,0.3,0.7,0.5c0.2,0.2,0.3,0.4,0.4,0.7c0.1,0.3,0.2,0.6,0.2,0.9c0,0.4-0.1,0.8-0.3,1.2c-0.2,0.3-0.4,0.6-0.7,0.8
	c-0.3,0.2-0.6,0.3-1,0.4C254.1,205.1,253.7,205.2,253.3,205.2L253.3,205.2z M266.4,200.5l0,0.4h-6.8c0,0.8,0.3,1.6,0.8,2.2
	c0.5,0.5,1.2,0.8,2,0.8c0.5,0,1-0.1,1.4-0.4c0.4-0.3,0.8-0.7,1-1.1l1.4,0.3c-0.3,0.8-0.8,1.4-1.5,1.9c-0.7,0.5-1.5,0.7-2.3,0.7
	c-1.2,0-2.3-0.4-3.1-1.2c-0.8-0.9-1.3-2.1-1.2-3.3c-0.1-1.2,0.4-2.4,1.2-3.3c0.8-0.8,1.9-1.2,3.1-1.2c1.1,0,2.1,0.4,2.9,1.1
	C266.1,198.2,266.5,199.3,266.4,200.5L266.4,200.5z M262.4,197.4c-0.7,0-1.3,0.2-1.8,0.6c-0.5,0.5-0.8,1.1-0.9,1.8h5.2
	c0-0.7-0.3-1.3-0.8-1.8C263.6,197.6,263,197.3,262.4,197.4L262.4,197.4z M1.8,218.3c-0.3,0-0.5-0.1-0.7-0.3
	c-0.2-0.2-0.3-0.5-0.3-0.7c0-0.3,0.1-0.5,0.3-0.7c0.2-0.2,0.5-0.3,0.7-0.3c0.3,0,0.5,0.1,0.7,0.3c0.2,0.2,0.3,0.4,0.3,0.7
	c0,0.3-0.1,0.5-0.3,0.7C2.4,218.2,2.1,218.3,1.8,218.3z M1.1,229v-8.6h1.5v8.6H1.1z M12.1,215.5h1.5V229h-1.5l0-1.7
	c-0.3,0.6-0.7,1-1.2,1.4c-0.6,0.3-1.2,0.5-1.8,0.5c-1.1,0-2.1-0.4-2.9-1.2c-0.4-0.4-0.7-0.9-0.9-1.4c-0.2-0.6-0.3-1.2-0.3-1.9
	c0-1.2,0.4-2.4,1.2-3.2c0.7-0.8,1.8-1.3,2.9-1.2c0.6,0,1.3,0.2,1.8,0.5c0.5,0.3,1,0.8,1.2,1.3L12.1,215.5z M9.3,227.9
	c0.8,0,1.5-0.3,2-0.9c1.1-1.3,1.1-3.2,0-4.5c-0.5-0.6-1.2-0.9-2-0.9c-0.8,0-1.5,0.3-2,0.9c-1.1,1.3-1.1,3.3,0,4.6
	C7.8,227.6,8.6,227.9,9.3,227.9z M24.2,224.5l0,0.4h-6.8c0,0.8,0.3,1.6,0.8,2.2c0.5,0.5,1.2,0.8,2,0.8c0.5,0,1-0.1,1.4-0.4
	c0.4-0.3,0.8-0.7,1-1.1l1.4,0.3c-0.3,0.8-0.8,1.4-1.5,1.9c-0.7,0.5-1.5,0.7-2.3,0.7c-1.2,0-2.3-0.4-3.1-1.2
	c-0.8-0.9-1.3-2.1-1.2-3.3c-0.1-1.2,0.4-2.4,1.2-3.3c0.8-0.8,1.9-1.2,3.1-1.2c1.1,0,2.1,0.4,2.9,1.1
	C23.9,222.2,24.3,223.3,24.2,224.5L24.2,224.5z M20.2,221.4c-0.7,0-1.3,0.2-1.8,0.6c-0.5,0.5-0.8,1.1-0.9,1.8h5.2
	c0-0.7-0.3-1.3-0.8-1.8C21.5,221.6,20.9,221.3,20.2,221.4L20.2,221.4z M30.7,220.2c0.8,0,1.6,0.2,2.2,0.8c0.6,0.6,0.9,1.4,0.8,2.2
	v5.8h-1.5v-5.5c0-0.6-0.1-1.1-0.5-1.5c-0.4-0.3-0.9-0.5-1.4-0.5c-0.6,0-1.1,0.2-1.5,0.6c-0.4,0.5-0.6,1.1-0.6,1.8v5.2h-1.5v-8.6h1.5
	v1.1C28.7,220.6,29.7,220.1,30.7,220.2L30.7,220.2z M39.4,229c-0.6,0-1.2-0.2-1.7-0.6c-0.4-0.5-0.7-1.1-0.6-1.7v-5.1h-1.8v-1.2H36
	c0.3,0,0.7-0.1,1-0.3c0.2-0.3,0.3-0.7,0.3-1v-1.6h1.4v2.9h2v1.2h-2v4.9c0,0.3,0.1,0.7,0.3,1c0.2,0.2,0.5,0.4,0.9,0.3h0.8v1.2H39.4z
	 M43.6,218.3c-0.6,0-1-0.5-1-1c0-0.3,0.1-0.5,0.3-0.7c0.2-0.2,0.5-0.3,0.7-0.3c0.3,0,0.5,0.1,0.7,0.3c0.2,0.2,0.3,0.4,0.3,0.7
	c0,0.3-0.1,0.5-0.3,0.7C44.1,218.2,43.8,218.3,43.6,218.3z M42.8,229v-8.6h1.5v8.6H42.8z M47.9,218.6c0-0.3,0-0.7,0.1-1
	c0.1-0.3,0.1-0.5,0.2-0.8c0.1-0.2,0.2-0.4,0.4-0.5c0.2-0.1,0.3-0.3,0.5-0.4c0.2-0.1,0.4-0.2,0.7-0.2c0.2-0.1,0.5-0.1,0.7-0.1
	c0.2,0,0.5,0,0.8,0v1.3H51c-0.1,0-0.2,0-0.3,0c-0.1,0-0.2,0-0.3,0c-0.1,0-0.2,0-0.3,0.1c-0.1,0-0.2,0.1-0.3,0.1
	c-0.1,0.1-0.1,0.1-0.2,0.2c-0.1,0.1-0.1,0.2-0.2,0.3c0,0.1-0.1,0.3-0.1,0.4c0,0.2,0,0.4,0,0.5v1.8h2v1.2h-2v7.4h-1.5v-7.4h-1.7v-1.2
	h1.7L47.9,218.6z M53.9,218.3c-0.6,0-1-0.5-1-1c0-0.3,0.1-0.5,0.3-0.7c0.2-0.2,0.5-0.3,0.7-0.3c0.3,0,0.5,0.1,0.7,0.3
	c0.2,0.2,0.3,0.4,0.3,0.7c0,0.3-0.1,0.5-0.3,0.7C54.4,218.2,54.2,218.3,53.9,218.3L53.9,218.3z M53.1,229v-8.6h1.5v8.6H53.1z
	 M61.3,229.2c-1.2,0-2.3-0.4-3.1-1.2c-0.8-0.9-1.3-2-1.2-3.2c-0.1-1.2,0.4-2.4,1.2-3.2c1.5-1.5,3.8-1.7,5.6-0.5
	c0.7,0.5,1.2,1.3,1.5,2.1l-1.4,0.2c-0.2-0.5-0.5-1-1-1.3c-0.5-0.3-1-0.5-1.6-0.5c-0.8,0-1.5,0.3-2,0.9c-1,1.4-1,3.3,0,4.7
	c0.5,0.6,1.2,0.9,2,0.9c0.6,0,1.1-0.2,1.6-0.5c0.5-0.3,0.8-0.8,1-1.3l1.4,0.2c-0.2,0.8-0.7,1.6-1.5,2.1
	C63.1,228.9,62.2,229.2,61.3,229.2z M69.5,229.2c-0.7,0-1.4-0.2-1.9-0.6c-0.5-0.4-0.8-1.1-0.7-1.8c0-0.4,0.1-0.8,0.2-1.1
	c0.2-0.3,0.4-0.6,0.7-0.8c0.3-0.2,0.7-0.4,1-0.5c0.4-0.1,0.9-0.2,1.3-0.3l1.4-0.2c0.5-0.1,0.8-0.4,0.8-0.8c0-0.5-0.2-1-0.5-1.3
	c-0.4-0.3-0.9-0.4-1.4-0.4c-0.5,0-1,0.1-1.4,0.4c-0.4,0.3-0.6,0.7-0.6,1.2l-1.4-0.3c0.1-0.7,0.5-1.4,1.1-1.8
	c0.7-0.4,1.5-0.7,2.4-0.6c0.4,0,0.8,0,1.3,0.2c0.4,0.1,0.7,0.3,1,0.5c0.3,0.2,0.6,0.6,0.7,0.9c0.2,0.4,0.3,0.9,0.3,1.4v3.6
	c0,0.3,0,0.6,0.2,0.9c0.2,0.2,0.4,0.3,0.7,0.2h0.1v1.1h-0.8c-0.8,0.1-1.5-0.4-1.6-1.2h-0.1C71.7,228.7,70.6,229.2,69.5,229.2z
	 M69.9,227.9c0.7,0,1.4-0.3,1.9-0.8c0.5-0.7,0.7-1.5,0.7-2.3l-2.3,0.4c-0.5,0.1-0.9,0.2-1.3,0.5c-0.3,0.2-0.5,0.6-0.4,0.9
	c0,0.4,0.1,0.7,0.4,0.9C69.1,227.8,69.5,228,69.9,227.9z M86.2,220.2c0.5,0,1.1,0.1,1.6,0.3c0.5,0.2,0.9,0.5,1.3,0.9
	c0.4,0.4,0.7,0.9,0.9,1.4c0.2,0.6,0.3,1.2,0.3,1.9c0.1,1.2-0.4,2.4-1.2,3.3c-0.7,0.8-1.8,1.3-2.9,1.2c-0.6,0-1.3-0.2-1.8-0.5
	c-0.5-0.3-1-0.8-1.2-1.3v6h-1.5v-13h1.5l0,1.7c0.3-0.6,0.7-1,1.2-1.3C84.9,220.4,85.6,220.2,86.2,220.2z M85.9,227.9
	c0.8,0,1.5-0.3,2-0.9c1.1-1.3,1.1-3.3,0-4.6c-1-1.1-2.7-1.2-3.9-0.1c-0.1,0.1-0.1,0.1-0.2,0.2c-1.1,1.3-1.1,3.2,0,4.5
	C84.4,227.5,85.1,227.9,85.9,227.9z M96.3,229.2c-0.8,0-1.5-0.2-2.2-0.5c-0.7-0.4-1.2-0.9-1.6-1.6c-0.4-0.7-0.6-1.6-0.6-2.4
	c-0.1-1.2,0.4-2.4,1.2-3.3c1.8-1.6,4.5-1.6,6.3,0c0.8,0.9,1.3,2,1.2,3.3c0.1,1.2-0.4,2.4-1.2,3.3C98.6,228.8,97.4,229.2,96.3,229.2
	L96.3,229.2z M96.3,227.9c0.8,0,1.5-0.3,2-0.9c1.1-1.4,1.1-3.3,0-4.7c-0.5-0.6-1.3-0.9-2-0.9c-0.8,0-1.5,0.3-2,0.9
	c-1.1,1.4-1.1,3.3,0,4.7C94.8,227.6,95.5,227.9,96.3,227.9z M104.5,221.9c0.2-0.5,0.6-0.9,1.1-1.2c0.5-0.3,1.1-0.5,1.7-0.5v1.4
	c-0.7-0.1-1.4,0.2-2,0.6c-0.5,0.6-0.8,1.3-0.7,2v4.6H103v-8.6h1.5L104.5,221.9z M121.2,224.5l0,0.4h-6.8c0,0.8,0.3,1.6,0.8,2.2
	c0.5,0.5,1.2,0.8,2,0.8c0.5,0,1-0.1,1.4-0.4c0.4-0.3,0.8-0.7,1-1.1l1.4,0.3c-0.3,0.8-0.8,1.4-1.5,1.9c-0.7,0.5-1.5,0.7-2.3,0.7
	c-1.2,0-2.3-0.4-3.1-1.2c-0.8-0.9-1.3-2.1-1.2-3.3c-0.1-1.2,0.4-2.4,1.2-3.3c0.8-0.8,1.9-1.2,3.1-1.2c1.1,0,2.1,0.4,2.9,1.1
	C120.9,222.2,121.3,223.3,121.2,224.5L121.2,224.5z M117.2,221.4c-0.7,0-1.3,0.2-1.8,0.6c-0.5,0.5-0.8,1.1-0.9,1.8h5.2
	c0-0.7-0.3-1.3-0.8-1.8C118.5,221.6,117.9,221.3,117.2,221.4L117.2,221.4z M123.6,229v-13.5h1.5V229H123.6z M135.7,229
	c-0.6,0-1.2-0.2-1.7-0.6c-0.4-0.5-0.7-1.1-0.6-1.7v-5.1h-1.8v-1.2h0.6c0.3,0,0.7-0.1,1-0.3c0.2-0.3,0.3-0.7,0.3-1v-1.6h1.4v2.9h2
	v1.2h-2v4.9c0,0.3,0.1,0.7,0.3,1c0.2,0.2,0.5,0.4,0.9,0.3h0.8v1.2H135.7z M146.6,224.5l0,0.4h-6.8c0,0.8,0.3,1.6,0.8,2.2
	c0.5,0.5,1.2,0.8,2,0.8c0.5,0,1-0.1,1.4-0.4c0.4-0.3,0.8-0.7,1-1.1l1.4,0.3c-0.3,0.8-0.8,1.4-1.5,1.9c-0.7,0.5-1.5,0.7-2.3,0.7
	c-1.2,0-2.3-0.4-3.1-1.2c-0.8-0.9-1.3-2.1-1.2-3.3c-0.1-1.2,0.4-2.4,1.2-3.3c0.8-0.8,1.9-1.2,3.1-1.2c1.1,0,2.1,0.4,2.9,1.1
	C146.2,222.2,146.6,223.3,146.6,224.5L146.6,224.5z M142.6,221.4c-0.7,0-1.3,0.2-1.8,0.6c-0.5,0.5-0.8,1.1-0.9,1.8h5.2
	c0-0.7-0.3-1.3-0.8-1.8C143.8,221.6,143.2,221.3,142.6,221.4L142.6,221.4z M147.4,229l3.3-4.3l-3.3-4.3h1.9l2.4,3.3l2.4-3.3h1.8
	l-3.3,4.3l3.3,4.3H154l-2.4-3.3l-2.4,3.3H147.4z M160.5,229c-0.6,0-1.2-0.2-1.7-0.6c-0.4-0.5-0.7-1.1-0.6-1.7v-5.1h-1.8v-1.2h0.6
	c0.3,0,0.7-0.1,1-0.3c0.2-0.3,0.3-0.7,0.3-1v-1.6h1.4v2.9h2v1.2h-2v4.9c0,0.3,0.1,0.7,0.3,1c0.2,0.2,0.5,0.4,0.9,0.3h0.8v1.2H160.5z
	 M167.5,229.2c-0.8,0-1.5-0.2-2.2-0.5c-0.7-0.4-1.2-0.9-1.6-1.6c-0.4-0.7-0.6-1.6-0.6-2.4c-0.1-1.2,0.4-2.4,1.2-3.3
	c1.8-1.6,4.5-1.6,6.3,0c0.8,0.9,1.3,2,1.2,3.3c0.1,1.2-0.4,2.4-1.2,3.3C169.7,228.8,168.6,229.2,167.5,229.2L167.5,229.2z
	 M167.4,227.9c0.8,0,1.5-0.3,2-0.9c1.1-1.4,1.1-3.3,0-4.7c-0.5-0.6-1.3-0.9-2-0.9c-0.8,0-1.5,0.3-2,0.9c-1.1,1.4-1.1,3.3,0,4.7
	C165.9,227.6,166.7,227.9,167.4,227.9L167.4,227.9z M175.1,229.2c-0.3,0-0.5-0.1-0.7-0.3c-0.4-0.4-0.4-1,0-1.4
	c0.2-0.2,0.4-0.3,0.7-0.3c0.3,0,0.5,0.1,0.7,0.3c0.4,0.4,0.4,1,0,1.4c0,0,0,0,0,0C175.7,229.1,175.4,229.2,175.1,229.2L175.1,229.2z
	"/>
<path id="Trazado_26594" class="st0" d="M1.7,310v-16.9h3.5V310H1.7z M29,310h-3.5l-1.1-12.8L20.1,310h-2.3l-4.3-12.8L12.4,310H8.9
	l1.4-16.9h5l3.6,10.6l3.7-10.6h5L29,310z M44,310l-1.2-3.5h-7.1l-1.2,3.5h-3.6l6.2-16.9h4.3l6.2,16.9H44z M36.7,303.6h5.1l-2.5-7.2
	L36.7,303.6z M56.6,310.2c-1.2,0-2.3-0.2-3.4-0.6c-1-0.4-1.9-1-2.7-1.7c-0.8-0.8-1.4-1.7-1.8-2.7c-0.4-1.1-0.7-2.4-0.6-3.6
	c0-1.2,0.2-2.5,0.7-3.6c0.4-1,1-2,1.8-2.8c0.8-0.8,1.7-1.4,2.7-1.7c1.1-0.4,2.3-0.6,3.5-0.6c1.5,0,3,0.3,4.4,1
	c1.3,0.7,2.3,1.7,3.1,2.9l-3.1,1.6c-0.4-0.8-1-1.5-1.8-1.9c-0.8-0.4-1.7-0.7-2.6-0.6c-1.4,0-2.7,0.5-3.7,1.5c-1,1.1-1.5,2.6-1.4,4.1
	c-0.1,1.5,0.4,3,1.4,4.1c1,1,2.4,1.6,3.8,1.5c0.7,0,1.4-0.1,2.1-0.4c0.6-0.3,1.2-0.7,1.6-1.2c0.5-0.6,0.8-1.3,0.9-2h-4.6v-2.8h8v9.2
	h-2.8v-2.3C60.9,309.4,58.8,310.4,56.6,310.2z M76,310.2c-1.5,0-3.1-0.3-4.4-1.1c-1.3-0.7-2.4-1.8-3.1-3.1c-0.8-1.4-1.2-3-1.1-4.6
	c0-1.6,0.4-3.2,1.1-4.6c0.7-1.3,1.8-2.3,3.1-3c1.4-0.7,2.9-1.1,4.4-1.1c1.5,0,3.1,0.3,4.4,1.1c1.3,0.7,2.4,1.8,3.1,3
	c0.8,1.4,1.2,3,1.1,4.6c0,1.6-0.4,3.2-1.1,4.6c-0.7,1.3-1.8,2.4-3.1,3.1C79.1,309.9,77.6,310.3,76,310.2z M72.3,305.5
	c1,1,2.3,1.5,3.7,1.5c1.4,0,2.7-0.5,3.7-1.5c1-1.1,1.5-2.5,1.5-4c0.1-1.5-0.4-2.9-1.5-4c-1-1-2.3-1.5-3.7-1.5
	c-1.4,0-2.7,0.5-3.7,1.5c-1,1.1-1.5,2.5-1.5,4C70.8,303,71.3,304.4,72.3,305.5L72.3,305.5z M97.1,293.1v3.1h-4V310h-3.5v-13.8h-4
	v-3.1H97.1z M99.8,310v-16.9h3.5V310H99.8z M114.7,293.1c1.5-0.1,2.9,0.5,3.9,1.6c1,1.1,1.5,2.5,1.5,3.9c0.1,1.4-0.5,2.8-1.5,3.9
	c-1,1-2.5,1.6-3.9,1.5h-3.5v6.1h-3.5v-16.9H114.7z M114.2,301c0.7,0.1,1.4-0.2,1.9-0.7c0.5-0.5,0.7-1.2,0.6-1.8
	c0-0.7-0.2-1.3-0.7-1.8c-0.5-0.5-1.2-0.7-1.9-0.7h-2.9v5L114.2,301z M130.6,310.2c-1.5,0-3.1-0.3-4.4-1.1c-1.3-0.7-2.4-1.8-3.1-3.1
	c-0.8-1.4-1.2-3-1.1-4.6c0-1.6,0.4-3.2,1.1-4.6c0.7-1.3,1.8-2.3,3.1-3c1.4-0.7,2.9-1.1,4.4-1.1c1.5,0,3.1,0.3,4.4,1.1
	c1.3,0.7,2.4,1.8,3.1,3c0.8,1.4,1.2,3,1.1,4.6c0,1.6-0.4,3.2-1.1,4.6c-0.7,1.3-1.8,2.4-3.1,3.1C133.6,309.9,132.1,310.3,130.6,310.2
	z M126.9,305.5c1,1,2.3,1.5,3.7,1.5c1.4,0,2.7-0.5,3.7-1.5c1-1.1,1.5-2.5,1.5-4c0.1-1.5-0.4-2.9-1.5-4c-1-1-2.3-1.5-3.7-1.5
	c-1.4,0-2.7,0.5-3.7,1.5c-1,1.1-1.5,2.5-1.5,4C125.3,303,125.9,304.4,126.9,305.5L126.9,305.5z"/>
<path id="Trazado_26595" class="st0" d="M6.7,344.2c-0.8,0-1.7-0.1-2.4-0.4c-0.7-0.3-1.4-0.7-2-1.2c-0.6-0.6-1-1.3-1.3-2
	c-0.3-0.9-0.5-1.8-0.5-2.7c0-0.9,0.2-1.8,0.5-2.6c0.6-1.5,1.7-2.7,3.3-3.3c0.8-0.3,1.6-0.4,2.4-0.4c1.2,0,2.3,0.3,3.3,0.9
	c1,0.6,1.7,1.4,2.2,2.4l-1.4,0.6c-0.4-0.7-0.9-1.4-1.6-1.8c-0.7-0.4-1.6-0.6-2.4-0.6c-0.6,0-1.2,0.1-1.8,0.3c-0.5,0.2-1,0.5-1.5,0.9
	c-0.4,0.4-0.8,1-1,1.5c-0.2,0.7-0.4,1.4-0.4,2.1c0,0.7,0.1,1.4,0.4,2.1c0.2,0.6,0.5,1.1,1,1.5c0.4,0.4,0.9,0.7,1.5,0.9
	c0.6,0.2,1.2,0.3,1.8,0.3c0.8,0,1.7-0.2,2.4-0.6c0.7-0.4,1.3-1,1.6-1.8l1.4,0.6c-0.5,1-1.2,1.9-2.2,2.4C9,343.9,7.9,344.2,6.7,344.2
	z M18.2,344.2c-0.8,0-1.5-0.2-2.2-0.5c-0.7-0.4-1.2-0.9-1.6-1.6c-0.4-0.7-0.6-1.6-0.6-2.4c-0.1-1.2,0.4-2.4,1.2-3.3
	c0.8-0.8,2-1.3,3.1-1.2c1.2,0,2.3,0.4,3.1,1.2c0.8,0.9,1.3,2,1.2,3.3c0.1,1.2-0.4,2.4-1.2,3.3C20.5,343.8,19.3,344.2,18.2,344.2z
	 M18.1,342.9c0.8,0,1.5-0.3,2-0.9c0.6-0.6,0.9-1.5,0.8-2.3c0-0.9-0.3-1.7-0.8-2.3c-0.5-0.6-1.3-0.9-2-0.9c-0.8,0-1.5,0.3-2,0.9
	c-0.6,0.6-0.8,1.5-0.8,2.3c0,0.9,0.2,1.7,0.8,2.3C16.6,342.6,17.4,342.9,18.1,342.9z M33.7,335.2c0.7,0,1.5,0.2,2,0.7
	c0.5,0.5,0.8,1.3,0.8,2.1v6H35v-5.6c0-0.5-0.1-1-0.5-1.4c-0.3-0.3-0.8-0.5-1.2-0.5c-0.5,0-1,0.2-1.3,0.5c-0.4,0.5-0.5,1-0.5,1.6v5.3
	h-1.6v-5.6c0-0.5-0.1-1.1-0.5-1.5c-0.3-0.3-0.8-0.5-1.2-0.5c-0.5,0-1,0.2-1.3,0.6c-0.4,0.5-0.6,1.1-0.5,1.7v5.3h-1.5v-8.6h1.5v1.1
	c0.2-0.4,0.6-0.7,1-0.9c0.4-0.2,0.9-0.3,1.4-0.3c0.5,0,1,0.1,1.5,0.4c0.4,0.2,0.8,0.6,1,1.1c0.2-0.4,0.6-0.8,1-1.1
	C32.7,335.3,33.2,335.2,33.7,335.2z M44,335.2c1.1,0,2.1,0.4,2.9,1.2c0.8,0.9,1.2,2.1,1.2,3.2c0.1,1.2-0.4,2.4-1.2,3.3
	c-0.7,0.8-1.8,1.3-2.9,1.2c-0.6,0-1.3-0.2-1.8-0.5c-0.5-0.3-1-0.8-1.2-1.4l0,1.7h-1.5v-13.5H41l0,6.5c0.3-0.6,0.7-1,1.2-1.3
	C42.8,335.4,43.4,335.2,44,335.2L44,335.2z M43.7,342.9c0.8,0,1.5-0.3,2-0.9c0.6-0.6,0.9-1.5,0.8-2.3c0-0.8-0.3-1.7-0.8-2.3
	c-0.5-0.6-1.3-0.9-2-0.9c-0.8,0-1.5,0.3-2,0.9c-0.6,0.6-0.8,1.4-0.8,2.3c0,0.8,0.3,1.6,0.8,2.3C42.2,342.5,42.9,342.9,43.7,342.9
	L43.7,342.9z M51.2,333.3c-0.6,0-1-0.5-1-1c0-0.3,0.1-0.5,0.3-0.7c0.2-0.2,0.5-0.3,0.7-0.3c0.3,0,0.5,0.1,0.7,0.3
	c0.2,0.2,0.3,0.4,0.3,0.7c0,0.3-0.1,0.5-0.3,0.7C51.7,333.2,51.5,333.3,51.2,333.3z M50.4,344v-8.6H52v8.6H50.4z M59.1,335.2
	c0.8,0,1.6,0.2,2.2,0.8c0.6,0.6,0.9,1.4,0.8,2.2v5.8h-1.5v-5.5c0-0.6-0.1-1.1-0.5-1.5c-0.4-0.3-0.9-0.5-1.4-0.5
	c-0.6,0-1.1,0.2-1.5,0.6c-0.4,0.5-0.6,1.1-0.6,1.8v5.2h-1.5v-8.6h1.5v1.1C57.2,335.6,58.1,335.1,59.1,335.2L59.1,335.2z M67.1,344.2
	c-0.7,0-1.4-0.2-1.9-0.6c-0.5-0.4-0.8-1.1-0.7-1.8c0-0.4,0.1-0.8,0.2-1.1c0.2-0.3,0.4-0.6,0.7-0.8c0.3-0.2,0.7-0.4,1-0.5
	c0.4-0.1,0.9-0.2,1.3-0.3l1.4-0.2c0.5-0.1,0.8-0.4,0.8-0.8c0-0.5-0.2-1-0.5-1.3c-0.4-0.3-0.9-0.4-1.4-0.4c-0.5,0-1,0.1-1.4,0.4
	c-0.4,0.3-0.6,0.7-0.6,1.2l-1.4-0.3c0.1-0.7,0.5-1.4,1.1-1.9c0.7-0.4,1.5-0.7,2.4-0.6c0.4,0,0.8,0,1.3,0.2c0.4,0.1,0.7,0.3,1,0.5
	c0.3,0.2,0.6,0.6,0.7,0.9c0.2,0.4,0.3,0.9,0.3,1.4v3.6c0,0.3,0,0.6,0.2,0.9c0.2,0.2,0.4,0.3,0.7,0.2h0.1v1.1h-0.8
	c-0.8,0.1-1.5-0.4-1.6-1.2h-0.1C69.2,343.7,68.2,344.2,67.1,344.2L67.1,344.2z M67.4,342.9c0.7,0,1.4-0.3,1.9-0.8
	c0.5-0.7,0.7-1.5,0.7-2.3l-2.3,0.4c-0.5,0.1-0.9,0.2-1.3,0.5c-0.3,0.2-0.5,0.6-0.4,0.9c0,0.4,0.1,0.7,0.4,0.9
	C66.6,342.8,67,343,67.4,342.9L67.4,342.9z M77.9,344.2c-1.2,0-2.3-0.4-3.1-1.2c-0.8-0.9-1.3-2-1.2-3.2c0-1.2,0.4-2.4,1.2-3.2
	c1.5-1.5,3.8-1.7,5.6-0.5c0.7,0.5,1.2,1.3,1.5,2.1l-1.4,0.2c-0.2-0.5-0.5-1-1-1.3c-0.5-0.3-1-0.5-1.6-0.5c-0.8,0-1.5,0.3-2,0.9
	c-0.5,0.7-0.8,1.5-0.8,2.3c0,0.8,0.2,1.7,0.8,2.3c0.5,0.6,1.2,0.9,2,0.9c0.6,0,1.1-0.2,1.6-0.5c0.5-0.3,0.8-0.8,1-1.3l1.4,0.2
	c-0.2,0.8-0.7,1.6-1.5,2.1C79.7,343.9,78.8,344.2,77.9,344.2z M84.9,333.3c-0.6,0-1-0.5-1-1c0-0.3,0.1-0.5,0.3-0.7
	c0.2-0.2,0.5-0.3,0.7-0.3c0.3,0,0.5,0.1,0.7,0.3c0.2,0.2,0.3,0.4,0.3,0.7c0,0.3-0.1,0.5-0.3,0.7C85.4,333.2,85.1,333.3,84.9,333.3z
	 M84.1,344v-8.6h1.5v8.6H84.1z M91.8,333.9L94,331l0.8,0.6l-2,2.3H91.8z M92.4,344.2c-0.8,0-1.5-0.2-2.2-0.5
	c-0.7-0.4-1.2-0.9-1.6-1.6c-0.4-0.7-0.6-1.6-0.6-2.4c-0.1-1.2,0.4-2.4,1.2-3.3c1.8-1.6,4.5-1.6,6.3,0c0.8,0.9,1.3,2,1.2,3.3
	c0.1,1.2-0.4,2.4-1.2,3.3C94.7,343.8,93.5,344.2,92.4,344.2z M92.4,342.9c0.8,0,1.5-0.3,2-0.9c0.6-0.6,0.9-1.5,0.8-2.3
	c0-0.9-0.3-1.7-0.8-2.3c-0.5-0.6-1.3-0.9-2-0.9c-0.8,0-1.5,0.3-2,0.9c-0.6,0.6-0.8,1.5-0.8,2.3c0,0.9,0.2,1.7,0.8,2.3
	C90.8,342.6,91.6,342.9,92.4,342.9z M103.2,335.2c0.8,0,1.6,0.2,2.2,0.8c0.6,0.6,0.9,1.4,0.8,2.2v5.8h-1.5v-5.5
	c0-0.6-0.1-1.1-0.5-1.5c-0.4-0.3-0.9-0.5-1.4-0.5c-0.6,0-1.1,0.2-1.5,0.6c-0.4,0.5-0.6,1.1-0.6,1.8v5.2h-1.5v-8.6h1.5v1.1
	C101.2,335.6,102.2,335.1,103.2,335.2L103.2,335.2z M120.2,330.5h1.5V344h-1.5l0-1.7c-0.3,0.6-0.7,1-1.2,1.4
	c-0.6,0.3-1.2,0.5-1.8,0.5c-1.1,0-2.1-0.4-2.9-1.2c-0.4-0.4-0.7-0.9-0.9-1.4c-0.2-0.6-0.3-1.2-0.3-1.9c-0.1-1.2,0.4-2.4,1.2-3.2
	c0.7-0.8,1.8-1.3,2.9-1.2c0.6,0,1.3,0.2,1.8,0.5c0.5,0.3,1,0.8,1.2,1.3V330.5z M117.4,342.9c0.8,0,1.5-0.3,2-0.9
	c0.5-0.6,0.8-1.4,0.8-2.3c0-0.8-0.3-1.6-0.8-2.3c-0.5-0.6-1.2-0.9-2-0.9c-0.8,0-1.5,0.3-2,0.9c-0.6,0.6-0.9,1.5-0.8,2.3
	c0,0.8,0.3,1.7,0.8,2.3C115.9,342.6,116.7,342.9,117.4,342.9L117.4,342.9z M132.3,339.5l0,0.4h-6.8c0,0.8,0.3,1.6,0.8,2.2
	c0.5,0.5,1.2,0.8,2,0.8c0.5,0,1-0.1,1.4-0.4c0.4-0.3,0.8-0.7,1-1.1l1.4,0.3c-0.3,0.8-0.8,1.4-1.5,1.9c-0.7,0.5-1.5,0.7-2.3,0.7
	c-1.2,0-2.3-0.4-3.1-1.2c-0.8-0.9-1.3-2.1-1.2-3.3c-0.1-1.2,0.4-2.4,1.2-3.3c0.8-0.8,1.9-1.2,3.1-1.2c1.1,0,2.1,0.4,2.9,1.1
	C132,337.2,132.4,338.3,132.3,339.5L132.3,339.5z M128.3,336.4c-0.7,0-1.3,0.2-1.8,0.6c-0.5,0.5-0.8,1.1-0.9,1.8h5.2
	c0-0.7-0.3-1.3-0.8-1.8C129.6,336.6,129,336.3,128.3,336.4L128.3,336.4z M140.2,333.3c-0.6,0-1-0.5-1-1c0-0.3,0.1-0.5,0.3-0.7
	c0.2-0.2,0.5-0.3,0.7-0.3c0.3,0,0.5,0.1,0.7,0.3c0.2,0.2,0.3,0.4,0.3,0.7c0,0.3-0.1,0.5-0.3,0.7
	C140.7,333.2,140.4,333.3,140.2,333.3L140.2,333.3z M139.4,344v-8.6h1.5v8.6H139.4z M152.8,335.2c0.7,0,1.5,0.2,2,0.7
	c0.5,0.5,0.8,1.3,0.8,2.1v6h-1.5v-5.6c0-0.5-0.1-1-0.5-1.4c-0.3-0.3-0.8-0.5-1.2-0.5c-0.5,0-1,0.2-1.3,0.5c-0.4,0.5-0.5,1-0.5,1.6
	v5.3h-1.5v-5.6c0-0.5-0.1-1.1-0.5-1.5c-0.3-0.3-0.8-0.5-1.2-0.5c-0.5,0-1,0.2-1.3,0.6c-0.4,0.5-0.6,1.1-0.5,1.7v5.3H144v-8.6h1.5
	v1.1c0.2-0.4,0.6-0.7,1-0.9c0.4-0.2,0.9-0.3,1.4-0.3c0.5,0,1,0.1,1.5,0.4c0.4,0.2,0.8,0.6,1,1.1c0.2-0.4,0.6-0.8,1-1.1
	C151.8,335.3,152.3,335.2,152.8,335.2z M160.6,344.2c-0.7,0-1.4-0.2-1.9-0.6c-0.5-0.4-0.8-1.1-0.7-1.8c0-0.4,0.1-0.8,0.2-1.1
	c0.2-0.3,0.4-0.6,0.7-0.8c0.3-0.2,0.7-0.4,1-0.5c0.4-0.1,0.9-0.2,1.3-0.3l1.4-0.2c0.5-0.1,0.8-0.4,0.8-0.8c0-0.5-0.2-1-0.5-1.3
	c-0.4-0.3-0.9-0.4-1.4-0.4c-0.5,0-1,0.1-1.4,0.4c-0.4,0.3-0.6,0.7-0.6,1.2l-1.4-0.3c0.1-0.7,0.5-1.4,1.1-1.9
	c0.7-0.4,1.5-0.7,2.4-0.6c0.4,0,0.8,0,1.3,0.2c0.4,0.1,0.7,0.3,1,0.5c0.3,0.2,0.6,0.6,0.7,0.9c0.2,0.4,0.3,0.9,0.3,1.4v3.6
	c0,0.3,0,0.6,0.2,0.9c0.2,0.2,0.4,0.3,0.7,0.2h0.1v1.1h-0.8c-0.8,0.1-1.5-0.4-1.6-1.2h-0.1C162.7,343.7,161.7,344.2,160.6,344.2z
	 M160.9,342.9c0.7,0,1.4-0.3,1.9-0.8c0.5-0.7,0.7-1.5,0.7-2.3l-2.3,0.4c-0.5,0.1-0.9,0.2-1.3,0.5c-0.3,0.2-0.5,0.6-0.4,0.9
	c0,0.4,0.1,0.7,0.4,0.9C160.1,342.8,160.5,343,160.9,342.9L160.9,342.9z M174.1,335.4h1.5v8.2c0.1,1.2-0.3,2.4-1.1,3.4
	c-1.9,1.7-4.9,1.5-6.6-0.4c-0.3-0.3-0.5-0.7-0.7-1.1l1.3-0.6c0.4,1.3,1.6,2.1,2.9,2c0.8,0,1.5-0.3,2-0.8c0.5-0.7,0.8-1.5,0.7-2.4
	V342c-0.3,0.5-0.7,1-1.2,1.2c-0.5,0.3-1.2,0.5-1.8,0.5c-1.1,0-2.1-0.4-2.8-1.2c-0.8-0.8-1.2-1.9-1.2-3.1c0-1.1,0.4-2.2,1.2-3.1
	c0.7-0.8,1.7-1.2,2.8-1.2c0.6,0,1.3,0.2,1.8,0.5c0.5,0.3,0.9,0.7,1.2,1.3L174.1,335.4z M171.3,342.5c0.8,0,1.5-0.3,2-0.9
	c1.1-1.2,1.1-3,0-4.2c-1-1.1-2.7-1.2-3.8-0.2c-0.1,0.1-0.1,0.1-0.2,0.2c-0.5,0.6-0.8,1.4-0.8,2.1c0,0.8,0.3,1.6,0.8,2.1
	C169.9,342.2,170.6,342.5,171.3,342.5L171.3,342.5z M186.2,339.5l0,0.4h-6.8c0,0.8,0.3,1.6,0.8,2.2c0.5,0.5,1.2,0.8,2,0.8
	c0.5,0,1-0.1,1.4-0.4c0.4-0.3,0.8-0.7,1-1.1l1.4,0.3c-0.3,0.8-0.8,1.4-1.5,1.9c-0.7,0.5-1.5,0.7-2.3,0.7c-1.2,0-2.3-0.4-3.1-1.2
	c-0.8-0.9-1.3-2.1-1.2-3.3c-0.1-1.2,0.4-2.4,1.2-3.3c0.8-0.8,1.9-1.2,3.1-1.2c1.1-0.1,2.1,0.3,2.9,1.1
	C185.9,337.2,186.3,338.3,186.2,339.5z M182.2,336.4c-0.7,0-1.3,0.2-1.8,0.6c-0.5,0.5-0.8,1.1-0.9,1.8h5.2c0-0.7-0.3-1.3-0.8-1.8
	C183.4,336.6,182.8,336.3,182.2,336.4L182.2,336.4z M192.7,335.2c0.8,0,1.6,0.2,2.2,0.8c0.6,0.6,0.9,1.4,0.8,2.2v5.8h-1.5v-5.5
	c0-0.6-0.1-1.1-0.5-1.5c-0.4-0.3-0.9-0.5-1.4-0.5c-0.6,0-1.1,0.2-1.5,0.6c-0.4,0.5-0.6,1.1-0.6,1.8v5.2h-1.5v-8.6h1.5v1.1
	C190.7,335.6,191.6,335.1,192.7,335.2L192.7,335.2z M208.6,335.4h1.6l-5,12.7h-1.6l1.7-4.3l-3.4-8.4h1.7l2.4,6.7L208.6,335.4z
	 M219.5,344c-0.6,0-1.2-0.2-1.7-0.6c-0.4-0.5-0.7-1.1-0.6-1.7v-5.1h-1.8v-1.2h0.6c0.3,0,0.7-0.1,1-0.3c0.2-0.3,0.3-0.7,0.3-1v-1.6
	h1.4v2.9h2v1.2h-2v4.9c0,0.3,0.1,0.7,0.3,1c0.2,0.2,0.5,0.4,0.9,0.3h0.8v1.2H219.5z M230.3,339.5l0,0.4h-6.8c0,0.8,0.3,1.6,0.8,2.2
	c0.5,0.5,1.2,0.8,2,0.8c0.5,0,1-0.1,1.4-0.4c0.4-0.3,0.8-0.7,1-1.1l1.4,0.3c-0.3,0.8-0.8,1.4-1.5,1.9c-0.7,0.5-1.5,0.7-2.3,0.7
	c-1.2,0-2.3-0.4-3.1-1.2c-0.8-0.9-1.3-2.1-1.2-3.3c-0.1-1.2,0.4-2.4,1.2-3.3c0.8-0.8,1.9-1.2,3.1-1.2c1.1,0,2.1,0.4,2.9,1.1
	C230,337.2,230.4,338.3,230.3,339.5L230.3,339.5z M226.3,336.4c-0.7,0-1.3,0.2-1.8,0.6c-0.5,0.5-0.8,1.1-0.9,1.8h5.2
	c0-0.7-0.3-1.3-0.8-1.8C227.6,336.6,227,336.3,226.3,336.4L226.3,336.4z M231.1,344l3.3-4.3l-3.3-4.3h1.9l2.4,3.3l2.4-3.3h1.8
	l-3.3,4.3l3.3,4.3h-1.9l-2.4-3.3L233,344H231.1z M244.3,344c-0.6,0-1.2-0.2-1.7-0.6c-0.4-0.5-0.7-1.1-0.6-1.7v-5.1h-1.8v-1.2h0.6
	c0.3,0,0.7-0.1,1-0.3c0.2-0.3,0.3-0.7,0.3-1v-1.6h1.4v2.9h2v1.2h-2v4.9c0,0.3,0.1,0.7,0.3,1c0.2,0.2,0.5,0.4,0.9,0.3h0.8v1.2H244.3z
	 M251.2,344.2c-0.8,0-1.5-0.2-2.2-0.5c-0.7-0.4-1.2-0.9-1.6-1.6c-0.4-0.7-0.6-1.6-0.6-2.4c-0.1-1.2,0.4-2.4,1.2-3.3
	c1.8-1.6,4.5-1.6,6.3,0c0.8,0.9,1.3,2,1.2,3.3c0.1,1.2-0.4,2.4-1.2,3.3C253.5,343.8,252.4,344.2,251.2,344.2L251.2,344.2z
	 M251.2,342.9c0.8,0,1.5-0.3,2-0.9c0.6-0.6,0.9-1.5,0.8-2.3c0-0.9-0.3-1.7-0.8-2.3c-0.5-0.6-1.3-0.9-2-0.9c-0.8,0-1.5,0.3-2,0.9
	c-0.6,0.6-0.8,1.5-0.8,2.3c0,0.9,0.2,1.7,0.8,2.3C249.7,342.6,250.4,342.9,251.2,342.9z M258.9,344.2c-0.3,0-0.5-0.1-0.7-0.3
	c-0.4-0.4-0.4-1,0-1.4c0.2-0.2,0.4-0.3,0.7-0.3c0.3,0,0.5,0.1,0.7,0.3c0.4,0.4,0.4,1,0,1.4c0,0,0,0,0,0
	C259.4,344.1,259.2,344.2,258.9,344.2L258.9,344.2z M7.9,355.6v1.4H4.7V368H3.2v-10.9H0v-1.4H7.9z M10.5,368.2
	c-0.7,0-1.4-0.2-1.9-0.6c-0.5-0.4-0.8-1.1-0.7-1.8c0-0.4,0.1-0.8,0.2-1.1c0.2-0.3,0.4-0.6,0.7-0.8c0.3-0.2,0.7-0.4,1-0.5
	c0.4-0.1,0.9-0.2,1.3-0.3l1.4-0.2c0.5-0.1,0.8-0.4,0.8-0.8c0-0.5-0.2-1-0.5-1.3c-0.4-0.3-0.9-0.4-1.4-0.4c-0.5,0-1,0.1-1.4,0.4
	c-0.4,0.3-0.6,0.7-0.6,1.2L8,361.7c0.1-0.7,0.5-1.4,1.1-1.9c0.7-0.4,1.5-0.7,2.4-0.6c0.4,0,0.8,0,1.3,0.2c0.4,0.1,0.7,0.3,1,0.5
	c0.3,0.2,0.6,0.6,0.7,0.9c0.2,0.4,0.3,0.9,0.3,1.4v3.6c0,0.3,0,0.6,0.2,0.9c0.2,0.2,0.4,0.3,0.7,0.2h0.1v1.1h-0.8
	c-0.8,0.1-1.5-0.4-1.6-1.2h-0.1C12.7,367.7,11.6,368.2,10.5,368.2z M10.9,366.9c0.7,0,1.4-0.3,1.9-0.8c0.5-0.7,0.7-1.5,0.7-2.3
	l-2.3,0.4c-0.5,0.1-0.9,0.2-1.3,0.5c-0.3,0.2-0.5,0.6-0.4,0.9c0,0.4,0.1,0.7,0.4,0.9C10.1,366.8,10.5,367,10.9,366.9L10.9,366.9z
	 M26.8,359.2c0.7,0,1.5,0.2,2,0.7c0.5,0.5,0.8,1.3,0.8,2.1v6H28v-5.6c0-0.5-0.1-1-0.5-1.4c-0.3-0.3-0.8-0.5-1.2-0.5
	c-0.5,0-1,0.2-1.3,0.5c-0.4,0.5-0.5,1-0.5,1.6v5.3H23v-5.6c0-0.5-0.1-1.1-0.5-1.5c-0.3-0.3-0.8-0.5-1.2-0.5c-0.5,0-1,0.2-1.3,0.6
	c-0.4,0.5-0.6,1.1-0.5,1.7v5.3h-1.5v-8.6h1.5v1.1c0.2-0.4,0.6-0.7,1-0.9c0.4-0.2,0.9-0.3,1.4-0.3c0.5,0,1,0.1,1.5,0.4
	c0.4,0.2,0.8,0.6,1,1c0.2-0.4,0.6-0.8,1-1C25.8,359.3,26.3,359.2,26.8,359.2L26.8,359.2z M37.1,359.2c1.1,0,2.1,0.4,2.9,1.2
	c0.8,0.9,1.2,2,1.2,3.2c0.1,1.2-0.4,2.4-1.2,3.3c-0.7,0.8-1.8,1.3-2.9,1.2c-0.6,0-1.3-0.2-1.8-0.5c-0.5-0.3-1-0.8-1.2-1.4l0,1.7
	h-1.5v-13.5H34l0,6.5c0.3-0.6,0.7-1,1.2-1.3C35.8,359.4,36.4,359.2,37.1,359.2L37.1,359.2z M36.7,366.9c0.8,0,1.5-0.3,2-0.9
	c1.1-1.3,1.1-3.3,0-4.6c-0.5-0.6-1.3-0.9-2-0.9c-0.8,0-1.5,0.3-2,0.9c-1.1,1.3-1.1,3.2,0,4.5C35.2,366.5,36,366.9,36.7,366.9
	L36.7,366.9z M44.3,357.3c-0.6,0-1-0.5-1-1c0-0.3,0.1-0.5,0.3-0.7c0.2-0.2,0.5-0.3,0.7-0.3c0.3,0,0.5,0.1,0.7,0.3
	c0.2,0.2,0.3,0.4,0.3,0.7c0,0.3-0.1,0.5-0.3,0.7C44.8,357.2,44.5,357.3,44.3,357.3L44.3,357.3z M43.5,368v-8.6H45v8.6H43.5z
	 M54.2,355.6l-2,2.3h-1l2.2-2.9L54.2,355.6z M55.7,363.5l0,0.4h-6.8c0,0.8,0.3,1.6,0.8,2.2c0.5,0.5,1.2,0.8,2,0.8
	c0.5,0,1-0.1,1.4-0.4c0.4-0.3,0.8-0.7,1-1.1l1.4,0.3c-0.3,0.8-0.8,1.4-1.5,1.9c-0.7,0.5-1.5,0.7-2.3,0.7c-1.2,0-2.3-0.4-3.1-1.2
	c-0.8-0.9-1.3-2.1-1.2-3.3c-0.1-1.2,0.4-2.4,1.2-3.3c0.8-0.8,1.9-1.2,3.1-1.2c1.1,0,2.1,0.4,2.9,1.1
	C55.4,361.2,55.8,362.3,55.7,363.5L55.7,363.5z M51.7,360.4c-0.7,0-1.3,0.2-1.8,0.6c-0.5,0.5-0.8,1.1-0.9,1.8h5.2
	c0-0.7-0.3-1.3-0.8-1.8C52.9,360.6,52.3,360.3,51.7,360.4L51.7,360.4z M62.1,359.2c0.8,0,1.6,0.2,2.2,0.8c0.6,0.6,0.9,1.4,0.8,2.2
	v5.8h-1.5v-5.5c0-0.6-0.1-1.1-0.5-1.5c-0.4-0.3-0.9-0.5-1.4-0.5c-0.6,0-1.1,0.2-1.5,0.6c-0.4,0.5-0.6,1.1-0.6,1.8v5.2h-1.5v-8.6h1.5
	v1.1C60.1,359.6,61.1,359.1,62.1,359.2L62.1,359.2z M76.7,355.8h-0.3c-0.1,0-0.2,0-0.3,0c-0.1,0-0.2,0-0.3,0c-0.1,0-0.2,0-0.3,0.1
	c-0.1,0-0.2,0.1-0.3,0.1c-0.1,0.1-0.1,0.1-0.2,0.2c-0.1,0.1-0.1,0.2-0.2,0.3c0,0.1-0.1,0.3-0.1,0.4c0,0.2,0,0.4,0,0.5v1.8h2v1.2h-2
	v7.4h-1.5v-7.4h-1.7v-1.2h1.7v-1.8c0-0.3,0-0.7,0.1-1c0.1-0.3,0.1-0.5,0.2-0.8c0.1-0.2,0.2-0.4,0.4-0.5c0.2-0.1,0.3-0.3,0.5-0.4
	c0.2-0.1,0.4-0.2,0.7-0.2c0.2-0.1,0.5-0.1,0.7-0.1c0.2,0,0.5,0,0.8,0L76.7,355.8z M83.8,359.4h1.5v8.6h-1.5l0-1.1
	c-0.3,0.4-0.6,0.8-1.1,1c-0.5,0.2-1,0.3-1.5,0.3c-0.8,0-1.6-0.2-2.2-0.8c-0.6-0.6-0.9-1.4-0.8-2.2v-5.8h1.5v5.5
	c0,0.6,0.1,1.1,0.5,1.5c0.4,0.3,0.9,0.5,1.4,0.5c0.6,0,1.1-0.2,1.5-0.6c0.4-0.5,0.6-1.1,0.6-1.8L83.8,359.4z M92.5,359.2
	c0.8,0,1.6,0.2,2.2,0.8c0.6,0.6,0.9,1.4,0.8,2.2v5.8H94v-5.5c0-0.6-0.1-1.1-0.5-1.5c-0.4-0.3-0.9-0.5-1.4-0.5
	c-0.6,0-1.1,0.2-1.5,0.6c-0.4,0.5-0.6,1.1-0.6,1.8v5.2h-1.5v-8.6H90v1.1C90.5,359.6,91.5,359.1,92.5,359.2L92.5,359.2z M102,368.2
	c-1.2,0-2.3-0.4-3.1-1.2c-0.8-0.9-1.3-2-1.2-3.2c-0.1-1.2,0.4-2.4,1.2-3.2c1.5-1.5,3.8-1.7,5.6-0.5c0.7,0.5,1.2,1.3,1.5,2.1
	l-1.4,0.2c-0.2-0.5-0.5-1-1-1.3c-0.5-0.3-1-0.5-1.6-0.5c-0.8,0-1.5,0.3-2,0.9c-1,1.4-1,3.3,0,4.7c0.5,0.6,1.2,0.9,2,0.9
	c0.6,0,1.1-0.2,1.6-0.5c0.5-0.3,0.8-0.8,1-1.3l1.4,0.2c-0.2,0.8-0.7,1.6-1.5,2.1C103.8,367.9,102.9,368.2,102,368.2L102,368.2z
	 M109,357.3c-0.6,0-1-0.5-1-1c0-0.3,0.1-0.5,0.3-0.7c0.2-0.2,0.5-0.3,0.7-0.3c0.3,0,0.5,0.1,0.7,0.3c0.2,0.2,0.3,0.4,0.3,0.7
	c0,0.3-0.1,0.5-0.3,0.7C109.5,357.2,109.3,357.3,109,357.3z M108.2,368v-8.6h1.5v8.6H108.2z M116.5,368.2c-0.8,0-1.5-0.2-2.2-0.5
	c-0.7-0.4-1.2-0.9-1.6-1.6c-0.4-0.7-0.6-1.6-0.6-2.4c-0.1-1.2,0.4-2.4,1.2-3.3c1.8-1.6,4.5-1.6,6.3,0c0.8,0.9,1.3,2,1.2,3.3
	c0.1,1.2-0.4,2.4-1.2,3.3C118.8,367.8,117.7,368.2,116.5,368.2z M116.5,366.9c0.8,0,1.5-0.3,2-0.9c1.1-1.4,1.1-3.3,0-4.7
	c-0.5-0.6-1.3-0.9-2-0.9c-0.8,0-1.5,0.3-2,0.9c-1.1,1.4-1.1,3.3,0,4.7C115,366.6,115.7,366.9,116.5,366.9L116.5,366.9z M127.3,359.2
	c0.8,0,1.6,0.2,2.2,0.8c0.6,0.6,0.9,1.4,0.8,2.2v5.8h-1.5v-5.5c0-0.6-0.1-1.1-0.5-1.5c-0.4-0.3-0.9-0.5-1.4-0.5
	c-0.6,0-1.1,0.2-1.5,0.6c-0.4,0.5-0.6,1.1-0.6,1.8v5.2h-1.5v-8.6h1.5v1.1C125.3,359.6,126.3,359.1,127.3,359.2z M135.2,368.2
	c-0.7,0-1.4-0.2-1.9-0.6c-0.5-0.4-0.8-1.1-0.7-1.8c0-0.4,0.1-0.8,0.2-1.1c0.2-0.3,0.4-0.6,0.7-0.8c0.3-0.2,0.7-0.4,1-0.5
	c0.4-0.1,0.9-0.2,1.3-0.3l1.4-0.2c0.5-0.1,0.8-0.4,0.8-0.8c0-0.5-0.2-1-0.5-1.3c-0.4-0.3-0.9-0.4-1.4-0.4c-0.5,0-1,0.1-1.4,0.4
	c-0.4,0.3-0.6,0.7-0.6,1.2l-1.4-0.3c0.1-0.7,0.5-1.4,1.1-1.9c0.7-0.4,1.5-0.7,2.4-0.6c0.4,0,0.8,0,1.3,0.2c0.4,0.1,0.7,0.3,1,0.5
	c0.3,0.2,0.6,0.6,0.7,0.9c0.2,0.4,0.3,0.9,0.3,1.4v3.6c0,0.3,0,0.6,0.2,0.9c0.2,0.2,0.4,0.3,0.7,0.2h0.1v1.1h-0.8
	c-0.8,0.1-1.5-0.4-1.6-1.2h-0.1C137.4,367.7,136.3,368.2,135.2,368.2L135.2,368.2z M135.6,366.9c0.7,0,1.4-0.3,1.9-0.8
	c0.5-0.7,0.7-1.5,0.7-2.3l-2.3,0.4c-0.5,0.1-0.9,0.2-1.3,0.5c-0.3,0.2-0.5,0.6-0.4,0.9c0,0.4,0.1,0.7,0.4,0.9
	C134.8,366.8,135.2,367,135.6,366.9L135.6,366.9z M151.9,359.2c0.5,0,1.1,0.1,1.6,0.3c0.5,0.2,0.9,0.5,1.3,0.9
	c0.4,0.4,0.7,0.9,0.9,1.4c0.2,0.6,0.3,1.2,0.3,1.9c0.1,1.2-0.4,2.4-1.2,3.3c-0.7,0.8-1.8,1.3-2.9,1.2c-0.6,0-1.3-0.2-1.8-0.5
	c-0.5-0.3-1-0.8-1.2-1.3v6h-1.5v-13h1.5l0,1.7c0.3-0.6,0.7-1,1.2-1.3C150.6,359.4,151.3,359.2,151.9,359.2L151.9,359.2z
	 M151.6,366.9c0.8,0,1.5-0.3,2-0.9c1.1-1.3,1.1-3.3,0-4.6c-1-1.1-2.7-1.2-3.9-0.1c-0.1,0.1-0.1,0.1-0.2,0.2c-1.1,1.3-1.1,3.2,0,4.5
	C150.1,366.5,150.8,366.9,151.6,366.9L151.6,366.9z M162,368.2c-0.8,0-1.5-0.2-2.2-0.5c-0.7-0.4-1.2-0.9-1.6-1.6
	c-0.4-0.7-0.6-1.6-0.6-2.4c-0.1-1.2,0.4-2.4,1.2-3.3c1.8-1.6,4.5-1.6,6.3,0c0.8,0.9,1.3,2,1.2,3.3c0.1,1.2-0.4,2.4-1.2,3.3
	C164.3,367.8,163.1,368.2,162,368.2L162,368.2z M162,366.9c0.8,0,1.5-0.3,2-0.9c1.1-1.4,1.1-3.3,0-4.7c-0.5-0.6-1.3-0.9-2-0.9
	c-0.8,0-1.5,0.3-2,0.9c-1.1,1.4-1.1,3.3,0,4.7C160.4,366.6,161.2,366.9,162,366.9L162,366.9z M170.2,360.9c0.2-0.5,0.6-0.9,1.1-1.2
	c0.5-0.3,1.1-0.5,1.7-0.5v1.4c-0.7-0.1-1.4,0.2-2,0.6c-0.5,0.6-0.8,1.3-0.7,2v4.6h-1.5v-8.6h1.5L170.2,360.9z M182.1,368.2
	c-0.8,0-1.6-0.2-2.3-0.6c-0.6-0.4-1-1-1.1-1.8l1.3-0.4c0.1,0.5,0.3,0.9,0.7,1.2c0.4,0.3,0.9,0.4,1.4,0.4c0.3,0,0.6,0,0.8-0.1
	c0.2-0.1,0.5-0.2,0.6-0.4c0.3-0.3,0.3-0.8,0.2-1.1c0-0.1-0.1-0.2-0.1-0.3c-0.1-0.1-0.1-0.2-0.2-0.2c-0.1-0.1-0.2-0.1-0.3-0.2
	c-0.1-0.1-0.3-0.1-0.4-0.2c-0.2-0.1-0.3-0.1-0.4-0.1c-0.1,0-0.3-0.1-0.5-0.1c-0.2-0.1-0.4-0.1-0.5-0.1c-0.3-0.1-0.6-0.2-0.9-0.3
	c-0.3-0.1-0.5-0.3-0.7-0.4c-0.2-0.2-0.4-0.4-0.6-0.7c-0.1-0.3-0.2-0.6-0.2-1c0-0.5,0.1-1,0.4-1.4c0.3-0.4,0.7-0.7,1.1-0.8
	c0.5-0.2,1-0.3,1.5-0.3c0.7,0,1.5,0.2,2.1,0.6c0.6,0.4,1,1,1.1,1.7l-1.2,0.3c-0.1-0.4-0.3-0.8-0.7-1.1c-0.4-0.2-0.8-0.4-1.2-0.4
	c-0.4,0-0.8,0.1-1.2,0.3c-0.3,0.2-0.5,0.6-0.5,0.9c0,0.2,0,0.3,0.1,0.5c0.1,0.1,0.2,0.2,0.3,0.3c0.1,0.1,0.3,0.2,0.5,0.3
	c0.2,0.1,0.4,0.2,0.5,0.2s0.3,0.1,0.6,0.2c0.1,0,0.1,0,0.1,0c0.3,0.1,0.6,0.2,0.8,0.2c0.3,0.1,0.5,0.2,0.7,0.3
	c0.2,0.1,0.5,0.3,0.7,0.5c0.2,0.2,0.3,0.4,0.4,0.7c0.1,0.3,0.2,0.6,0.2,0.9c0,0.4-0.1,0.8-0.3,1.2c-0.2,0.3-0.4,0.6-0.7,0.8
	c-0.3,0.2-0.6,0.3-1,0.4C182.9,368.1,182.5,368.2,182.1,368.2L182.1,368.2z M195.2,363.5l0,0.4h-6.8c0,0.8,0.3,1.6,0.8,2.2
	c0.5,0.5,1.2,0.8,2,0.8c0.5,0,1-0.1,1.4-0.4c0.4-0.3,0.8-0.7,1-1.1l1.4,0.3c-0.3,0.8-0.8,1.4-1.5,1.9c-0.7,0.5-1.5,0.7-2.3,0.7
	c-1.2,0-2.3-0.4-3.1-1.2c-0.8-0.9-1.3-2.1-1.2-3.3c-0.1-1.2,0.4-2.4,1.2-3.3c0.8-0.8,1.9-1.2,3.1-1.2c1.1,0,2.1,0.4,2.9,1.1
	C194.9,361.2,195.3,362.3,195.2,363.5L195.2,363.5z M191.2,360.4c-0.7,0-1.3,0.2-1.8,0.6c-0.5,0.5-0.8,1.1-0.9,1.8h5.2
	c0-0.7-0.3-1.3-0.8-1.8C192.5,360.6,191.9,360.3,191.2,360.4L191.2,360.4z M202.2,359.2c0.5,0,1.1,0.1,1.6,0.3
	c0.5,0.2,0.9,0.5,1.3,0.9c0.4,0.4,0.7,0.9,0.9,1.4c0.2,0.6,0.3,1.2,0.3,1.9c0.1,1.2-0.4,2.4-1.2,3.3c-0.7,0.8-1.8,1.3-2.9,1.2
	c-0.6,0-1.3-0.2-1.8-0.5c-0.5-0.3-1-0.8-1.2-1.3v6h-1.5v-13h1.5l0,1.7c0.3-0.6,0.7-1,1.2-1.3C200.9,359.4,201.5,359.2,202.2,359.2
	L202.2,359.2z M201.9,366.9c0.8,0,1.5-0.3,2-0.9c1.1-1.3,1.1-3.3,0-4.6c-1-1.1-2.7-1.2-3.9-0.1c-0.1,0.1-0.1,0.1-0.2,0.2
	c-1.1,1.3-1.1,3.2,0,4.5C200.4,366.5,201.1,366.9,201.9,366.9L201.9,366.9z M210.6,368.2c-0.7,0-1.4-0.2-1.9-0.6
	c-0.5-0.4-0.8-1.1-0.7-1.8c0-0.4,0.1-0.8,0.2-1.1c0.2-0.3,0.4-0.6,0.7-0.8c0.3-0.2,0.7-0.4,1-0.5c0.4-0.1,0.9-0.2,1.3-0.3l1.4-0.2
	c0.5-0.1,0.8-0.4,0.8-0.8c0-0.5-0.2-1-0.5-1.3c-0.4-0.3-0.9-0.4-1.4-0.4c-0.5,0-1,0.1-1.4,0.4c-0.4,0.3-0.6,0.7-0.6,1.2l-1.4-0.3
	c0.1-0.7,0.5-1.4,1.1-1.9c0.7-0.4,1.5-0.7,2.4-0.6c0.4,0,0.8,0,1.3,0.2c0.4,0.1,0.7,0.3,1,0.5c0.3,0.2,0.6,0.6,0.7,0.9
	c0.2,0.4,0.3,0.9,0.3,1.4v3.6c0,0.3,0,0.6,0.2,0.9c0.2,0.2,0.4,0.3,0.7,0.2h0.1v1.1h-0.8c-0.8,0.1-1.5-0.4-1.6-1.2h-0.1
	C212.8,367.7,211.7,368.2,210.6,368.2L210.6,368.2z M211,366.9c0.7,0,1.4-0.3,1.9-0.8c0.5-0.7,0.7-1.5,0.7-2.3l-2.3,0.4
	c-0.5,0.1-0.9,0.2-1.3,0.5c-0.3,0.2-0.5,0.6-0.4,0.9c0,0.4,0.1,0.7,0.4,0.9C210.2,366.8,210.6,367,211,366.9L211,366.9z
	 M219.5,360.9c0.2-0.5,0.6-0.9,1.1-1.2c0.5-0.3,1.1-0.5,1.7-0.5v1.4c-0.7-0.1-1.4,0.2-2,0.6c-0.5,0.6-0.8,1.3-0.7,2v4.6h-1.5v-8.6
	h1.5L219.5,360.9z M225.9,368.2c-0.7,0-1.4-0.2-1.9-0.6c-0.5-0.4-0.8-1.1-0.7-1.8c0-0.4,0.1-0.8,0.2-1.1c0.2-0.3,0.4-0.6,0.7-0.8
	c0.3-0.2,0.7-0.4,1-0.5c0.4-0.1,0.9-0.2,1.3-0.3l1.4-0.2c0.5-0.1,0.8-0.4,0.8-0.8c0-0.5-0.2-1-0.5-1.3c-0.4-0.3-0.9-0.4-1.4-0.4
	c-0.5,0-1,0.1-1.4,0.4c-0.4,0.3-0.6,0.7-0.6,1.2l-1.4-0.3c0.1-0.7,0.5-1.4,1.1-1.9c0.7-0.4,1.5-0.7,2.4-0.6c0.4,0,0.8,0,1.3,0.2
	c0.4,0.1,0.7,0.3,1,0.5c0.3,0.2,0.6,0.6,0.7,0.9c0.2,0.4,0.3,0.9,0.3,1.4v3.6c0,0.3,0,0.6,0.2,0.9c0.2,0.2,0.4,0.3,0.7,0.2h0.1v1.1
	h-0.8c-0.8,0.1-1.5-0.4-1.6-1.2h-0.1C228.1,367.7,227.1,368.2,225.9,368.2L225.9,368.2z M226.3,366.9c0.7,0,1.4-0.3,1.9-0.8
	c0.5-0.7,0.7-1.5,0.7-2.3l-2.3,0.4c-0.5,0.1-0.9,0.2-1.3,0.5c-0.3,0.2-0.5,0.6-0.4,0.9c0,0.4,0.1,0.7,0.4,0.9
	C225.5,366.8,225.9,367,226.3,366.9L226.3,366.9z M239.6,354.5h1.5V368h-1.5l0-1.7c-0.3,0.6-0.7,1-1.2,1.4c-0.6,0.3-1.2,0.5-1.8,0.5
	c-1.1,0-2.1-0.4-2.9-1.2c-0.4-0.4-0.7-0.9-0.9-1.4c-0.2-0.6-0.3-1.2-0.3-1.9c-0.1-1.2,0.4-2.4,1.2-3.2c0.7-0.8,1.8-1.3,2.9-1.2
	c0.6,0,1.3,0.2,1.8,0.5c0.5,0.3,1,0.8,1.2,1.3V354.5z M236.9,366.9c0.8,0,1.5-0.3,2-0.9c1.1-1.3,1.1-3.2,0-4.5
	c-0.5-0.6-1.2-0.9-2-0.9c-0.8,0-1.5,0.3-2,0.9c-1.1,1.3-1.1,3.3,0,4.6C235.4,366.6,236.1,366.9,236.9,366.9z M247.8,368.2
	c-0.8,0-1.5-0.2-2.2-0.5c-0.7-0.4-1.2-0.9-1.6-1.6c-0.4-0.7-0.6-1.6-0.6-2.4c-0.1-1.2,0.4-2.4,1.2-3.3c1.8-1.6,4.5-1.6,6.3,0
	c0.8,0.9,1.3,2,1.2,3.3c0.1,1.2-0.4,2.4-1.2,3.3C250.1,367.8,249,368.2,247.8,368.2L247.8,368.2z M247.8,366.9c0.8,0,1.5-0.3,2-0.9
	c1.1-1.4,1.1-3.3,0-4.7c-0.5-0.6-1.3-0.9-2-0.9c-0.8,0-1.5,0.3-2,0.9c-1.1,1.4-1.1,3.3,0,4.7C246.3,366.6,247.1,366.9,247.8,366.9
	L247.8,366.9z M255.5,368.2c-0.3,0-0.5-0.1-0.7-0.3c-0.4-0.4-0.4-1,0-1.4c0.2-0.2,0.4-0.3,0.7-0.3c0.3,0,0.5,0.1,0.7,0.3
	c0.4,0.4,0.4,1,0,1.4c0,0,0,0,0,0C256.1,368.1,255.8,368.2,255.5,368.2L255.5,368.2z"/>
<path id="Trazado_26597" class="st0" d="M1.7,472v-16.9h3.5V472H1.7z M15.2,472.2c-1.7,0.1-3.3-0.4-4.7-1.3
	c-1.2-0.8-2.1-2.1-2.3-3.6l3.6-0.8c0.1,0.8,0.5,1.6,1.1,2.1c0.7,0.5,1.5,0.8,2.4,0.7c0.7,0,1.3-0.2,1.9-0.5c0.5-0.4,0.7-0.9,0.7-1.5
	c0-0.5-0.2-0.9-0.6-1.3c-0.3-0.3-0.7-0.6-1.2-0.8c-0.4-0.2-1-0.4-1.9-0.6c-0.1,0-0.2-0.1-0.3-0.1c-0.4-0.1-0.8-0.3-1.1-0.4
	c-0.3-0.1-0.6-0.2-1-0.4c-0.3-0.1-0.7-0.3-1-0.5c-0.3-0.2-0.6-0.4-0.8-0.6c-0.3-0.2-0.5-0.5-0.7-0.8c-0.2-0.3-0.3-0.6-0.4-1
	c-0.1-0.4-0.2-0.8-0.2-1.2c0-1,0.3-1.9,0.8-2.7c0.5-0.8,1.3-1.3,2.1-1.7c1-0.4,2-0.6,3.1-0.6c0.7,0,1.5,0.1,2.2,0.2
	c0.7,0.2,1.4,0.4,2,0.8c0.6,0.3,1.2,0.8,1.6,1.4c0.4,0.6,0.8,1.3,0.9,2.1l-3.4,0.8c-0.2-1.5-1.5-2.6-3-2.4c0,0,0,0,0,0
	c-0.7,0-1.3,0.1-1.9,0.5c-0.5,0.3-0.8,0.9-0.7,1.5c0,0.6,0.4,1.1,1.2,1.5c0.8,0.3,1.6,0.6,2.4,0.8c0.5,0.1,0.8,0.3,1.1,0.4
	s0.7,0.2,1.1,0.4c0.4,0.1,0.7,0.3,1.1,0.5c0.3,0.2,0.6,0.4,0.9,0.6c0.3,0.2,0.6,0.5,0.8,0.8c0.2,0.3,0.4,0.7,0.5,1
	c0.1,0.4,0.2,0.9,0.2,1.3c0,0.7-0.1,1.3-0.3,1.9c-0.2,0.5-0.5,1-0.9,1.4c-0.4,0.4-0.9,0.7-1.4,1c-0.5,0.3-1.1,0.5-1.7,0.6
	C16.5,472.2,15.9,472.2,15.2,472.2z M32.3,472.2c-1.5,0-3.1-0.3-4.4-1.1c-1.3-0.7-2.4-1.8-3.1-3.1c-0.8-1.4-1.2-3-1.1-4.6
	c0-1.6,0.4-3.2,1.1-4.6c0.7-1.3,1.8-2.3,3.1-3c1.4-0.7,2.9-1.1,4.4-1.1c1.5,0,3.1,0.3,4.4,1.1c1.3,0.7,2.4,1.8,3.1,3
	c0.8,1.4,1.2,3,1.1,4.6c0,1.6-0.4,3.2-1.1,4.6c-0.7,1.3-1.8,2.4-3.1,3.1C35.4,471.9,33.8,472.3,32.3,472.2L32.3,472.2z M28.6,467.5
	c1,1,2.3,1.5,3.7,1.5c1.4,0,2.7-0.5,3.7-1.5c1-1.1,1.5-2.5,1.5-4c0.1-1.5-0.4-2.9-1.5-4c-1-1-2.3-1.5-3.7-1.5
	c-1.4,0-2.7,0.5-3.7,1.5c-1,1.1-1.5,2.5-1.5,4C27.1,465,27.6,466.4,28.6,467.5z M47.7,468.9H53v3.1h-8.8v-16.9h3.5L47.7,468.9z
	 M62.8,472.2c-1.5,0-3.1-0.3-4.4-1.1c-1.3-0.7-2.4-1.8-3.1-3.1c-0.8-1.4-1.2-3-1.1-4.6c0-1.6,0.4-3.2,1.1-4.6c0.7-1.3,1.8-2.3,3.1-3
	c1.4-0.7,2.9-1.1,4.4-1.1c1.5,0,3.1,0.3,4.4,1.1c1.3,0.7,2.4,1.8,3.1,3c0.8,1.4,1.2,3,1.1,4.6c0,1.6-0.4,3.2-1.1,4.6
	c-0.7,1.3-1.8,2.4-3.1,3.1C65.9,471.9,64.4,472.3,62.8,472.2z M59.1,467.5c1,1,2.3,1.5,3.7,1.5c1.4,0,2.7-0.5,3.7-1.5
	c1-1.1,1.5-2.5,1.5-4c0.1-1.5-0.4-2.9-1.5-4c-1-1-2.3-1.5-3.7-1.5c-1.4,0-2.7,0.5-3.7,1.5c-1,1.1-1.5,2.5-1.5,4
	C57.6,465,58.1,466.4,59.1,467.5L59.1,467.5z M82,472.2c-1.2,0-2.3-0.2-3.4-0.6c-1-0.4-1.9-1-2.7-1.7c-0.8-0.8-1.4-1.7-1.8-2.7
	c-0.4-1.1-0.7-2.4-0.6-3.6c0-1.2,0.2-2.5,0.7-3.6c0.4-1,1-2,1.8-2.8c0.8-0.8,1.7-1.4,2.7-1.7c1.1-0.4,2.3-0.6,3.5-0.6
	c1.5,0,3,0.3,4.4,1c1.3,0.7,2.3,1.7,3.1,2.9l-3.1,1.6c-0.4-0.8-1-1.5-1.8-1.9c-0.8-0.4-1.7-0.7-2.6-0.6c-1.4,0-2.7,0.5-3.7,1.5
	c-1,1.1-1.5,2.6-1.4,4.1c-0.1,1.5,0.4,3,1.4,4.1c1,1.1,2.4,1.6,3.8,1.5c0.7,0,1.4-0.1,2.1-0.4c0.6-0.3,1.2-0.7,1.6-1.2
	c0.5-0.6,0.8-1.3,0.9-2h-4.6v-2.8h8v9.2h-2.8v-2.3C86.3,471.4,84.2,472.4,82,472.2z M101.5,472.2c-1.5,0-3.1-0.3-4.4-1.1
	c-1.3-0.7-2.4-1.8-3.1-3.1c-0.8-1.4-1.2-3-1.1-4.6c0-1.6,0.4-3.2,1.1-4.6c0.7-1.3,1.8-2.3,3.1-3c1.4-0.7,2.9-1.1,4.4-1.1
	c1.5,0,3.1,0.3,4.4,1.1c1.3,0.7,2.4,1.8,3.1,3c0.8,1.4,1.2,3,1.1,4.6c0,1.6-0.4,3.2-1.1,4.6c-0.7,1.3-1.8,2.4-3.1,3.1
	C104.5,471.9,103,472.3,101.5,472.2z M97.8,467.5c1,1,2.3,1.5,3.7,1.5c1.4,0,2.7-0.5,3.7-1.5c1-1.1,1.5-2.5,1.5-4
	c0.1-1.5-0.4-2.9-1.5-4c-1-1-2.3-1.5-3.7-1.5c-1.4,0-2.7,0.5-3.7,1.5c-1,1.1-1.5,2.5-1.5,4C96.2,465,96.8,466.4,97.8,467.5
	L97.8,467.5z"/>
<path id="Trazado_26598" class="st0" d="M8.1,495.1h-5v4.1h4.4v1.4H3.1v4h5v1.4H1.4v-12.4h6.6V495.1z M10.7,506v-13.5h1.5V506H10.7z
	 M22.8,506c-0.6,0-1.2-0.2-1.7-0.6c-0.4-0.5-0.7-1.1-0.6-1.7v-5.1h-1.8v-1.2h0.6c0.3,0,0.7-0.1,1-0.3c0.2-0.3,0.3-0.7,0.3-1v-1.6H22
	v2.9h2v1.2h-2v4.9c0,0.3,0.1,0.7,0.3,1c0.2,0.2,0.5,0.4,0.9,0.3H24v1.2H22.8z M33.6,501.5l0,0.4h-6.8c0,0.8,0.3,1.6,0.8,2.2
	c0.5,0.5,1.2,0.8,2,0.8c0.5,0,1-0.1,1.4-0.4c0.4-0.3,0.8-0.7,1-1.1l1.4,0.3c-0.3,0.8-0.8,1.4-1.5,1.9c-0.7,0.5-1.5,0.7-2.3,0.7
	c-1.2,0-2.3-0.4-3.1-1.2c-0.8-0.9-1.3-2.1-1.2-3.3c-0.1-1.2,0.4-2.4,1.2-3.3c0.8-0.8,1.9-1.2,3.1-1.2c1.1,0,2.1,0.4,2.9,1.1
	C33.3,499.2,33.7,500.3,33.6,501.5L33.6,501.5z M29.6,498.4c-0.7,0-1.3,0.2-1.8,0.6c-0.5,0.5-0.8,1.1-0.9,1.8h5.2
	c0-0.7-0.3-1.3-0.8-1.8C30.9,498.6,30.3,498.3,29.6,498.4L29.6,498.4z M34.5,506l3.3-4.3l-3.3-4.3h1.9l2.4,3.3l2.4-3.3H43l-3.3,4.3
	L43,506h-1.9l-2.4-3.3l-2.4,3.3H34.5z M47.6,506c-0.6,0-1.2-0.2-1.7-0.6c-0.4-0.5-0.7-1.1-0.6-1.7v-5.1h-1.8v-1.2h0.7
	c0.3,0,0.7-0.1,1-0.3c0.2-0.3,0.3-0.7,0.3-1v-1.6h1.4v2.9h2v1.2h-2v4.9c0,0.3,0.1,0.7,0.3,1c0.2,0.2,0.5,0.4,0.9,0.3h0.8v1.2H47.6z
	 M54.5,506.2c-0.8,0-1.5-0.2-2.2-0.5c-0.7-0.4-1.2-0.9-1.6-1.6c-0.4-0.7-0.6-1.6-0.6-2.4c-0.1-1.2,0.4-2.4,1.2-3.3
	c1.8-1.6,4.5-1.6,6.3,0c0.8,0.9,1.3,2,1.2,3.3c0.1,1.2-0.4,2.4-1.2,3.3C56.8,505.8,55.7,506.2,54.5,506.2L54.5,506.2z M54.5,504.9
	c0.8,0,1.5-0.3,2-0.9c0.6-0.6,0.9-1.5,0.8-2.3c0-0.9-0.3-1.7-0.8-2.3c-0.5-0.6-1.3-0.9-2-0.9c-0.8,0-1.5,0.3-2,0.9
	c-0.6,0.6-0.8,1.5-0.8,2.3c0,0.9,0.2,1.7,0.8,2.3C53,504.6,53.7,504.9,54.5,504.9z M71.3,497.4h1.6l-5,12.7h-1.6l1.7-4.3l-3.4-8.4
	h1.7l2.4,6.7L71.3,497.4z M86.9,501.5l0,0.4h-6.8c0,0.8,0.3,1.6,0.8,2.2c0.5,0.5,1.2,0.8,2,0.8c0.5,0,1-0.1,1.4-0.4
	c0.4-0.3,0.8-0.7,1-1.1l1.4,0.3c-0.3,0.8-0.8,1.4-1.5,1.9c-0.7,0.5-1.5,0.7-2.3,0.7c-1.2,0-2.3-0.4-3.1-1.2
	c-0.8-0.9-1.3-2.1-1.2-3.3c-0.1-1.2,0.4-2.4,1.2-3.3c0.8-0.8,1.9-1.2,3.1-1.2c1.1,0,2.1,0.4,2.9,1.1C86.6,499.2,87,500.3,86.9,501.5
	L86.9,501.5z M82.9,498.4c-0.7,0-1.3,0.2-1.8,0.6c-0.5,0.5-0.8,1.1-0.9,1.8h5.2c0-0.7-0.3-1.3-0.8-1.8
	C84.2,498.6,83.6,498.3,82.9,498.4L82.9,498.4z M89.3,506v-13.5h1.5V506H89.3z M99.4,495.3c-0.6,0-1-0.5-1-1c0-0.3,0.1-0.5,0.3-0.7
	c0.2-0.2,0.5-0.3,0.7-0.3c0.3,0,0.5,0.1,0.7,0.3c0.2,0.2,0.3,0.4,0.3,0.7c0,0.3-0.1,0.5-0.3,0.7C99.9,495.2,99.7,495.3,99.4,495.3z
	 M98.6,506v-8.6h1.5v8.6H98.6z M106.8,506.2c-1.2,0-2.3-0.4-3.1-1.2c-0.8-0.9-1.3-2-1.2-3.2c-0.1-1.2,0.4-2.4,1.2-3.2
	c1.5-1.5,3.8-1.7,5.6-0.5c0.7,0.5,1.2,1.3,1.5,2.1l-1.4,0.2c-0.2-0.5-0.5-1-1-1.3c-0.5-0.3-1-0.5-1.6-0.5c-0.8,0-1.5,0.3-2,0.9
	c-0.5,0.7-0.8,1.5-0.8,2.3c0,0.8,0.2,1.7,0.8,2.3c0.5,0.6,1.2,0.9,2,0.9c0.6,0,1.1-0.2,1.6-0.5c0.5-0.3,0.8-0.8,1-1.3l1.4,0.2
	c-0.2,0.8-0.7,1.6-1.5,2.1C108.6,505.9,107.7,506.2,106.8,506.2z M116.7,506.2c-0.8,0-1.5-0.2-2.2-0.5c-0.7-0.4-1.2-0.9-1.6-1.6
	c-0.4-0.7-0.6-1.6-0.6-2.4c-0.1-1.2,0.4-2.4,1.2-3.3c1.8-1.6,4.5-1.6,6.3,0c0.8,0.9,1.3,2,1.2,3.3c0.1,1.2-0.4,2.4-1.2,3.3
	C119,505.8,117.8,506.2,116.7,506.2z M116.7,504.9c0.8,0,1.5-0.3,2-0.9c0.6-0.6,0.9-1.5,0.8-2.3c0-0.9-0.3-1.7-0.8-2.3
	c-0.5-0.6-1.3-0.9-2-0.9c-0.8,0-1.5,0.3-2,0.9c-0.6,0.6-0.8,1.5-0.8,2.3c0,0.9,0.2,1.7,0.8,2.3C115.1,504.6,115.9,504.9,116.7,504.9
	L116.7,504.9z M127.5,497.2c0.8,0,1.6,0.2,2.2,0.8c0.6,0.6,0.9,1.4,0.8,2.2v5.8h-1.5v-5.5c0-0.6-0.1-1.1-0.5-1.5
	c-0.4-0.3-0.9-0.5-1.4-0.5c-0.6,0-1.1,0.2-1.5,0.6c-0.4,0.5-0.6,1.1-0.6,1.8v5.2h-1.5v-8.6h1.5v1.1
	C125.5,497.6,126.5,497.1,127.5,497.2L127.5,497.2z M137,506.2c-0.8,0-1.5-0.2-2.2-0.5c-0.7-0.4-1.2-0.9-1.6-1.6
	c-0.4-0.7-0.6-1.6-0.6-2.4c-0.1-1.2,0.4-2.4,1.2-3.3c1.8-1.6,4.5-1.6,6.3,0c0.8,0.9,1.3,2,1.2,3.3c0.1,1.2-0.4,2.4-1.2,3.3
	C139.3,505.8,138.2,506.2,137,506.2L137,506.2z M137,504.9c0.8,0,1.5-0.3,2-0.9c0.6-0.6,0.9-1.5,0.8-2.3c0-0.9-0.3-1.7-0.8-2.3
	c-0.5-0.6-1.3-0.9-2-0.9c-0.8,0-1.5,0.3-2,0.9c-0.6,0.6-0.8,1.5-0.8,2.3c0,0.9,0.2,1.7,0.8,2.3C135.5,504.6,136.3,504.9,137,504.9
	L137,504.9z M152,506.2c-1.2,0-2.3-0.4-3.1-1.2c-0.8-0.9-1.3-2-1.2-3.2c-0.1-1.2,0.4-2.4,1.2-3.2c1.5-1.5,3.8-1.7,5.6-0.5
	c0.7,0.5,1.2,1.3,1.5,2.1l-1.4,0.2c-0.2-0.5-0.5-1-1-1.3c-0.5-0.3-1-0.5-1.6-0.5c-0.8,0-1.5,0.3-2,0.9c-0.5,0.7-0.8,1.5-0.8,2.3
	c0,0.8,0.2,1.7,0.8,2.3c0.5,0.6,1.2,0.9,2,0.9c0.6,0,1.1-0.2,1.6-0.5c0.5-0.3,0.8-0.8,1-1.3l1.4,0.2c-0.2,0.8-0.7,1.6-1.5,2.1
	C153.8,505.9,152.9,506.2,152,506.2L152,506.2z M161.9,506.2c-0.8,0-1.5-0.2-2.2-0.5c-0.7-0.4-1.2-0.9-1.6-1.6
	c-0.4-0.7-0.6-1.6-0.6-2.4c-0.1-1.2,0.4-2.4,1.2-3.3c1.8-1.6,4.5-1.6,6.3,0c0.8,0.9,1.3,2,1.2,3.3c0.1,1.2-0.4,2.4-1.2,3.3
	C164.2,505.8,163,506.2,161.9,506.2L161.9,506.2z M161.9,504.9c0.8,0,1.5-0.3,2-0.9c0.6-0.6,0.9-1.5,0.8-2.3c0-0.9-0.3-1.7-0.8-2.3
	c-0.5-0.6-1.3-0.9-2-0.9c-0.8,0-1.5,0.3-2,0.9c-0.6,0.6-0.8,1.5-0.8,2.3c0,0.9,0.2,1.7,0.8,2.3C160.3,504.6,161.1,504.9,161.9,504.9
	L161.9,504.9z M172.7,497.2c0.8,0,1.6,0.2,2.2,0.8c0.6,0.6,0.9,1.4,0.8,2.2v5.8h-1.5v-5.5c0-0.6-0.1-1.1-0.5-1.5
	c-0.4-0.3-0.9-0.5-1.4-0.5c-0.6,0-1.1,0.2-1.5,0.6c-0.4,0.5-0.6,1.1-0.6,1.8v5.2h-1.5v-8.6h1.5v1.1
	C170.7,497.6,171.7,497.1,172.7,497.2L172.7,497.2z M182.6,493.8h-0.3c-0.1,0-0.2,0-0.3,0c-0.1,0-0.2,0-0.3,0c-0.1,0-0.2,0-0.3,0.1
	c-0.1,0-0.2,0.1-0.3,0.1c-0.1,0.1-0.1,0.1-0.2,0.2c-0.1,0.1-0.1,0.2-0.2,0.3c0,0.1-0.1,0.3-0.1,0.4c0,0.2,0,0.4,0,0.5v1.8h2v1.2h-2
	v7.4H179v-7.4h-1.7v-1.2h1.7v-1.8c0-0.3,0-0.7,0.1-1c0.1-0.3,0.1-0.5,0.2-0.8c0.1-0.2,0.2-0.4,0.4-0.5c0.2-0.1,0.3-0.3,0.5-0.4
	c0.2-0.1,0.4-0.2,0.7-0.2c0.2-0.1,0.5-0.1,0.7-0.1c0.2,0,0.5,0,0.8,0V493.8z M187.9,506.2c-0.8,0-1.5-0.2-2.2-0.5
	c-0.7-0.4-1.2-0.9-1.6-1.6c-0.4-0.7-0.6-1.6-0.6-2.4c-0.1-1.2,0.4-2.4,1.2-3.3c1.8-1.6,4.5-1.6,6.3,0c0.8,0.9,1.3,2,1.2,3.3
	c0.1,1.2-0.4,2.4-1.2,3.3C190.2,505.8,189,506.2,187.9,506.2L187.9,506.2z M187.8,504.9c0.8,0,1.5-0.3,2-0.9
	c0.6-0.6,0.9-1.5,0.8-2.3c0-0.9-0.3-1.7-0.8-2.3c-0.5-0.6-1.3-0.9-2-0.9c-0.8,0-1.5,0.3-2,0.9c-0.6,0.6-0.8,1.5-0.8,2.3
	c0,0.9,0.2,1.7,0.8,2.3C186.3,504.6,187.1,504.9,187.8,504.9L187.8,504.9z M196.1,498.9c0.2-0.5,0.6-0.9,1.1-1.2
	c0.5-0.3,1.1-0.5,1.7-0.5v1.4c-0.7-0.1-1.4,0.2-2,0.6c-0.5,0.6-0.8,1.3-0.7,2v4.6h-1.5v-8.6h1.5L196.1,498.9z M209.4,497.2
	c0.7,0,1.5,0.2,2,0.7c0.5,0.5,0.8,1.3,0.8,2.1v6h-1.5v-5.6c0-0.5-0.1-1-0.5-1.4c-0.3-0.3-0.8-0.5-1.2-0.5c-0.5,0-1,0.2-1.3,0.5
	c-0.4,0.5-0.5,1-0.5,1.6v5.3h-1.6v-5.6c0-0.5-0.1-1.1-0.5-1.5c-0.3-0.3-0.8-0.5-1.2-0.5c-0.5,0-1,0.2-1.3,0.6
	c-0.4,0.5-0.6,1.1-0.5,1.7v5.3h-1.5v-8.6h1.5v1.1c0.2-0.4,0.6-0.7,1-0.9c0.4-0.2,0.9-0.3,1.4-0.3c0.5,0,1,0.1,1.5,0.4
	c0.4,0.2,0.8,0.6,1,1.1c0.2-0.4,0.6-0.8,1-1.1C208.4,497.3,208.9,497.2,209.4,497.2L209.4,497.2z M217.1,506.2
	c-0.7,0-1.4-0.2-1.9-0.6c-0.5-0.4-0.8-1.1-0.7-1.8c0-0.4,0.1-0.8,0.2-1.1c0.2-0.3,0.4-0.6,0.7-0.8c0.3-0.2,0.7-0.4,1-0.5
	c0.4-0.1,0.9-0.2,1.3-0.3l1.4-0.2c0.5-0.1,0.8-0.4,0.8-0.8c0-0.5-0.2-1-0.5-1.3c-0.4-0.3-0.9-0.4-1.4-0.4c-0.5,0-1,0.1-1.4,0.4
	c-0.4,0.3-0.6,0.7-0.6,1.2l-1.4-0.3c0.1-0.7,0.5-1.4,1.1-1.9c0.7-0.4,1.5-0.7,2.4-0.6c0.4,0,0.8,0,1.3,0.2c0.4,0.1,0.7,0.3,1,0.5
	c0.3,0.2,0.6,0.6,0.7,0.9c0.2,0.4,0.3,0.9,0.3,1.4v3.6c0,0.3,0,0.6,0.2,0.9c0.2,0.2,0.4,0.3,0.7,0.2h0.1v1.1h-0.8
	c-0.8,0.1-1.5-0.4-1.6-1.2H220C219.3,505.7,218.3,506.2,217.1,506.2L217.1,506.2z M217.5,504.9c0.7,0,1.4-0.3,1.9-0.8
	c0.5-0.7,0.7-1.5,0.7-2.3l-2.3,0.4c-0.5,0.1-0.9,0.2-1.3,0.5c-0.3,0.2-0.5,0.6-0.4,0.9c0,0.4,0.1,0.7,0.4,0.9
	C216.7,504.8,217.1,505,217.5,504.9L217.5,504.9z M228.7,497.2c0.8,0,1.6,0.2,2.2,0.8c0.6,0.6,0.9,1.4,0.8,2.2v5.8h-1.5v-5.5
	c0-0.6-0.1-1.1-0.5-1.5c-0.4-0.3-0.9-0.5-1.4-0.5c-0.6,0-1.1,0.2-1.5,0.6c-0.4,0.5-0.6,1.1-0.6,1.8v5.2h-1.5v-8.6h1.5v1.1
	C226.7,497.6,227.6,497.1,228.7,497.2L228.7,497.2z M244.6,497.4h1.5v8.6h-1.5l0-1.1c-0.3,0.4-0.6,0.8-1.1,1c-0.5,0.2-1,0.3-1.5,0.3
	c-0.8,0-1.6-0.2-2.2-0.8c-0.6-0.6-0.9-1.4-0.8-2.2v-5.8h1.5v5.5c0,0.6,0.1,1.1,0.5,1.5c0.4,0.3,0.9,0.5,1.4,0.5
	c0.6,0,1.1-0.2,1.5-0.6c0.4-0.5,0.6-1.1,0.6-1.8L244.6,497.4z M253.3,497.2c0.8,0,1.6,0.2,2.2,0.8c0.6,0.6,0.9,1.4,0.8,2.2v5.8h-1.5
	v-5.5c0-0.6-0.1-1.1-0.5-1.5c-0.4-0.3-0.9-0.5-1.4-0.5c-0.6,0-1.1,0.2-1.5,0.6c-0.4,0.5-0.6,1.1-0.6,1.8v5.2h-1.5v-8.6h1.5v1.1
	C251.3,497.6,252.3,497.1,253.3,497.2L253.3,497.2z M7.3,521.4h1.5v8.2c0.1,1.2-0.3,2.4-1.1,3.4c-0.8,0.8-1.9,1.2-3.1,1.2
	c-1.8,0.2-3.5-0.9-4.2-2.6l1.3-0.6c0.4,1.3,1.6,2.1,2.9,2c0.8,0,1.5-0.3,2-0.8c0.5-0.7,0.8-1.5,0.7-2.4V528c-0.3,0.5-0.7,1-1.2,1.2
	c-0.5,0.3-1.2,0.5-1.8,0.5c-1.1,0-2.1-0.4-2.8-1.2c-1.5-1.8-1.5-4.4,0-6.1c0.7-0.8,1.7-1.2,2.8-1.2c0.6,0,1.3,0.2,1.8,0.5
	c0.5,0.3,0.9,0.7,1.2,1.3L7.3,521.4z M4.6,528.5c0.8,0,1.5-0.3,2-0.9c1.1-1.2,1.1-3,0-4.2c-0.5-0.6-1.2-0.9-2-0.9
	c-0.8,0-1.5,0.3-2,0.9c-1.1,1.2-1.1,3.1,0,4.3C3.1,528.2,3.8,528.5,4.6,528.5L4.6,528.5z M13.4,522.9c0.2-0.5,0.6-0.9,1.1-1.2
	c0.5-0.3,1.1-0.5,1.7-0.5v1.4c-0.7-0.1-1.4,0.2-2,0.6c-0.5,0.6-0.8,1.3-0.7,2v4.6h-1.5v-8.6h1.5L13.4,522.9z M23.3,521.4h1.5v8.6
	h-1.5l0-1.1c-0.3,0.4-0.6,0.8-1.1,1c-0.5,0.2-1,0.3-1.5,0.3c-0.8,0-1.6-0.2-2.2-0.8c-0.6-0.6-0.9-1.4-0.8-2.2v-5.8h1.5v5.5
	c0,0.6,0.1,1.1,0.5,1.5c0.4,0.3,0.9,0.5,1.4,0.5c0.6,0,1.1-0.2,1.5-0.6c0.4-0.5,0.6-1.1,0.6-1.8L23.3,521.4z M32.4,521.2
	c0.5,0,1.1,0.1,1.6,0.3c0.5,0.2,0.9,0.5,1.3,0.9c0.4,0.4,0.7,0.9,0.9,1.4c0.2,0.6,0.3,1.2,0.3,1.9c0.1,1.2-0.4,2.4-1.2,3.3
	c-0.7,0.8-1.8,1.3-2.9,1.2c-0.6,0-1.3-0.2-1.8-0.5c-0.5-0.3-1-0.8-1.2-1.3v6h-1.5v-13h1.5l0,1.7c0.3-0.6,0.7-1,1.2-1.3
	C31.2,521.4,31.8,521.2,32.4,521.2L32.4,521.2z M32.1,528.9c0.8,0,1.5-0.3,2-0.9c1.1-1.3,1.1-3.3,0-4.6c-1-1.1-2.7-1.2-3.9-0.1
	c-0.1,0.1-0.1,0.1-0.2,0.2c-1.1,1.3-1.1,3.2,0,4.5C30.6,528.5,31.4,528.9,32.1,528.9L32.1,528.9z M42.5,530.2
	c-0.8,0-1.5-0.2-2.2-0.5c-0.7-0.4-1.2-0.9-1.6-1.6c-0.4-0.7-0.6-1.6-0.6-2.4c-0.1-1.2,0.4-2.4,1.2-3.3c1.8-1.6,4.5-1.6,6.3,0
	c0.8,0.9,1.3,2,1.2,3.3c0.1,1.2-0.4,2.4-1.2,3.3C44.8,529.8,43.7,530.2,42.5,530.2z M42.5,528.9c0.8,0,1.5-0.3,2-0.9
	c1.1-1.4,1.1-3.3,0-4.7c-0.5-0.6-1.3-0.9-2-0.9c-0.8,0-1.5,0.3-2,0.9c-1.1,1.4-1.1,3.3,0,4.7C41,528.6,41.7,528.9,42.5,528.9z
	 M50.2,530.2c-0.3,0-0.5-0.1-0.7-0.3c-0.4-0.4-0.4-1,0-1.4c0.2-0.2,0.4-0.3,0.7-0.3c0.3,0,0.5,0.1,0.7,0.3c0.4,0.4,0.4,1,0,1.4
	c0,0,0,0,0,0C50.7,530.1,50.5,530.2,50.2,530.2L50.2,530.2z M68,517.6h1.6V530h-1.7l-6.7-10v10h-1.5v-12.4h1.6l6.7,10L68,517.6z
	 M76.6,530.2c-0.8,0-1.5-0.2-2.2-0.5c-0.7-0.4-1.2-0.9-1.6-1.6c-0.4-0.7-0.6-1.6-0.6-2.4c-0.1-1.2,0.4-2.4,1.2-3.3
	c1.8-1.6,4.5-1.6,6.3,0c0.8,0.9,1.3,2,1.2,3.3c0.1,1.2-0.4,2.4-1.2,3.3C78.9,529.8,77.8,530.2,76.6,530.2z M76.6,528.9
	c0.8,0,1.5-0.3,2-0.9c1.1-1.4,1.1-3.3,0-4.7c-0.5-0.6-1.3-0.9-2-0.9c-0.8,0-1.5,0.3-2,0.9c-1.1,1.4-1.1,3.3,0,4.7
	C75.1,528.6,75.8,528.9,76.6,528.9z M92,517.8h-0.3c-0.1,0-0.2,0-0.3,0c-0.1,0-0.2,0-0.3,0c-0.1,0-0.2,0-0.3,0.1
	c-0.1,0-0.2,0.1-0.3,0.1c-0.1,0.1-0.1,0.1-0.2,0.2c-0.1,0.1-0.1,0.2-0.2,0.3c0,0.1-0.1,0.3-0.1,0.4c0,0.2,0,0.4,0,0.5v1.8h2v1.2h-2
	v7.4h-1.5v-7.4h-1.7v-1.2h1.7v-1.8c0-0.3,0-0.7,0.1-1c0.1-0.3,0.1-0.5,0.2-0.8c0.1-0.2,0.2-0.4,0.4-0.5c0.2-0.1,0.3-0.3,0.5-0.4
	c0.2-0.1,0.4-0.2,0.7-0.2c0.2-0.1,0.5-0.1,0.7-0.1c0.2,0,0.5,0,0.8,0L92,517.8z M99.1,521.4h1.5v8.6h-1.5l0-1.1
	c-0.3,0.4-0.6,0.8-1.1,1c-0.5,0.2-1,0.3-1.5,0.3c-0.8,0-1.6-0.2-2.2-0.8c-0.6-0.6-0.9-1.4-0.8-2.2v-5.8h1.5v5.5
	c0,0.6,0.1,1.1,0.5,1.5c0.4,0.3,0.9,0.5,1.4,0.5c0.6,0,1.1-0.2,1.5-0.6c0.4-0.5,0.6-1.1,0.6-1.8L99.1,521.4z M107.8,521.2
	c0.8,0,1.6,0.2,2.2,0.8c0.6,0.6,0.9,1.4,0.8,2.2v5.8h-1.5v-5.5c0-0.6-0.1-1.1-0.5-1.5c-0.4-0.3-0.9-0.5-1.4-0.5
	c-0.6,0-1.1,0.2-1.5,0.6c-0.4,0.5-0.6,1.1-0.6,1.8v5.2h-1.5v-8.6h1.5v1.1C105.8,521.6,106.8,521.1,107.8,521.2z M117.3,530.2
	c-1.2,0-2.3-0.4-3.1-1.2c-0.8-0.9-1.3-2-1.2-3.2c-0.1-1.2,0.4-2.4,1.2-3.2c1.5-1.5,3.8-1.7,5.6-0.5c0.7,0.5,1.2,1.3,1.5,2.1
	l-1.4,0.2c-0.2-0.5-0.5-1-1-1.3c-0.5-0.3-1-0.5-1.6-0.5c-0.8,0-1.5,0.3-2,0.9c-1,1.4-1,3.3,0,4.7c0.5,0.6,1.2,0.9,2,0.9
	c0.6,0,1.1-0.2,1.6-0.5c0.5-0.3,0.8-0.8,1-1.3l1.4,0.2c-0.2,0.8-0.7,1.6-1.5,2.1C119.1,529.9,118.2,530.2,117.3,530.2L117.3,530.2z
	 M124.3,519.3c-0.6,0-1-0.5-1-1c0-0.3,0.1-0.5,0.3-0.7c0.2-0.2,0.5-0.3,0.7-0.3c0.3,0,0.5,0.1,0.7,0.3c0.2,0.2,0.3,0.4,0.3,0.7
	c0,0.3-0.1,0.5-0.3,0.7C124.8,519.2,124.6,519.3,124.3,519.3L124.3,519.3z M123.5,530v-8.6h1.5v8.6H123.5z M131.8,530.2
	c-0.8,0-1.5-0.2-2.2-0.5c-0.7-0.4-1.2-0.9-1.6-1.6c-0.4-0.7-0.6-1.6-0.6-2.4c-0.1-1.2,0.4-2.4,1.2-3.3c1.8-1.6,4.5-1.6,6.3,0
	c0.8,0.9,1.3,2,1.2,3.3c0.1,1.2-0.4,2.4-1.2,3.3C134.1,529.8,132.9,530.2,131.8,530.2L131.8,530.2z M131.8,528.9
	c0.8,0,1.5-0.3,2-0.9c1.1-1.4,1.1-3.3,0-4.7c-0.5-0.6-1.3-0.9-2-0.9c-0.8,0-1.5,0.3-2,0.9c-1.1,1.4-1.1,3.3,0,4.7
	C130.3,528.6,131,528.9,131.8,528.9L131.8,528.9z M142.6,521.2c0.8,0,1.6,0.2,2.2,0.8c0.6,0.6,0.9,1.4,0.8,2.2v5.8h-1.5v-5.5
	c0-0.6-0.1-1.1-0.5-1.5c-0.4-0.3-0.9-0.5-1.4-0.5c-0.6,0-1.1,0.2-1.5,0.6c-0.4,0.5-0.6,1.1-0.6,1.8v5.2h-1.5v-8.6h1.5v1.1
	C140.6,521.6,141.6,521.1,142.6,521.2z M150.5,530.2c-0.7,0-1.4-0.2-1.9-0.6c-0.5-0.4-0.8-1.1-0.7-1.8c0-0.4,0.1-0.8,0.2-1.1
	c0.2-0.3,0.4-0.6,0.7-0.8c0.3-0.2,0.7-0.4,1-0.5c0.4-0.1,0.9-0.2,1.3-0.3l1.4-0.2c0.5-0.1,0.8-0.4,0.8-0.8c0-0.5-0.2-1-0.5-1.3
	c-0.4-0.3-0.9-0.4-1.4-0.4c-0.5,0-1,0.1-1.4,0.4c-0.4,0.3-0.6,0.7-0.6,1.2l-1.4-0.3c0.1-0.7,0.5-1.4,1.1-1.9
	c0.7-0.4,1.5-0.7,2.4-0.6c0.4,0,0.8,0,1.3,0.2c0.4,0.1,0.7,0.3,1,0.5c0.3,0.2,0.6,0.6,0.7,0.9c0.2,0.4,0.3,0.9,0.3,1.4v3.6
	c0,0.3,0,0.6,0.2,0.9c0.2,0.2,0.4,0.3,0.7,0.2h0.1v1.1H155c-0.8,0.1-1.5-0.4-1.6-1.2h-0.1C152.7,529.7,151.6,530.2,150.5,530.2z
	 M150.9,528.9c0.7,0,1.4-0.3,1.9-0.8c0.5-0.7,0.7-1.5,0.7-2.3l-2.3,0.4c-0.5,0.1-0.9,0.2-1.3,0.5c-0.3,0.2-0.5,0.6-0.4,0.9
	c0,0.4,0.1,0.7,0.4,0.9C150.1,528.8,150.5,529,150.9,528.9L150.9,528.9z M162,521.2c0.8,0,1.6,0.2,2.2,0.8c0.6,0.6,0.9,1.4,0.8,2.2
	v5.8h-1.5v-5.5c0-0.6-0.1-1.1-0.5-1.5c-0.4-0.3-0.9-0.5-1.4-0.5c-0.6,0-1.1,0.2-1.5,0.6c-0.4,0.5-0.6,1.1-0.6,1.8v5.2h-1.5v-8.6h1.5
	v1.1C160,521.6,161,521.1,162,521.2L162,521.2z M180.2,525.5l0,0.4h-6.8c0,0.8,0.3,1.6,0.8,2.2c0.5,0.5,1.2,0.8,2,0.8
	c0.5,0,1-0.1,1.4-0.4c0.4-0.3,0.8-0.7,1-1.1l1.4,0.3c-0.3,0.8-0.8,1.4-1.5,1.9c-0.7,0.5-1.5,0.7-2.3,0.7c-1.2,0-2.3-0.4-3.1-1.2
	c-0.8-0.9-1.3-2.1-1.2-3.3c-0.1-1.2,0.4-2.4,1.2-3.3c0.8-0.8,1.9-1.2,3.1-1.2c1.1,0,2.1,0.4,2.9,1.1
	C179.9,523.2,180.3,524.3,180.2,525.5L180.2,525.5z M176.2,522.4c-0.7,0-1.3,0.2-1.8,0.6c-0.5,0.5-0.8,1.1-0.9,1.8h5.2
	c0-0.7-0.3-1.3-0.8-1.8C177.4,522.6,176.8,522.3,176.2,522.4L176.2,522.4z M182.6,530v-13.5h1.5V530H182.6z M197.3,521.4h1.5v8.6
	h-1.5l0-1.1c-0.3,0.4-0.6,0.8-1.1,1c-0.5,0.2-1,0.3-1.5,0.3c-0.8,0-1.6-0.2-2.2-0.8c-0.6-0.6-0.9-1.4-0.8-2.2v-5.8h1.5v5.5
	c0,0.6,0.1,1.1,0.5,1.5c0.4,0.3,0.9,0.5,1.4,0.5c0.6,0,1.1-0.2,1.5-0.6c0.4-0.5,0.6-1.1,0.6-1.8L197.3,521.4z M205.9,521.2
	c0.8,0,1.6,0.2,2.2,0.8c0.6,0.6,0.9,1.4,0.8,2.2v5.8h-1.5v-5.5c0-0.6-0.1-1.1-0.5-1.5c-0.4-0.3-0.9-0.5-1.4-0.5
	c-0.6,0-1.1,0.2-1.5,0.6c-0.4,0.5-0.6,1.1-0.6,1.8v5.2h-1.5v-8.6h1.5v1.1C204,521.6,204.9,521.1,205.9,521.2z M215.5,530.2
	c-0.8,0-1.5-0.2-2.2-0.5c-0.7-0.4-1.2-0.9-1.6-1.6c-0.4-0.7-0.6-1.6-0.6-2.4c-0.1-1.2,0.4-2.4,1.2-3.3c1.8-1.6,4.5-1.6,6.3,0
	c0.8,0.9,1.3,2,1.2,3.3c0.1,1.2-0.4,2.4-1.2,3.3C217.8,529.8,216.7,530.2,215.5,530.2z M215.5,528.9c0.8,0,1.5-0.3,2-0.9
	c1.1-1.4,1.1-3.3,0-4.7c-0.5-0.6-1.3-0.9-2-0.9c-0.8,0-1.5,0.3-2,0.9c-1.1,1.4-1.1,3.3,0,4.7C214,528.6,214.7,528.9,215.5,528.9
	L215.5,528.9z M229.6,530.2c-0.8,0-1.6-0.2-2.3-0.6c-0.6-0.4-1-1-1.1-1.8l1.3-0.4c0.1,0.5,0.3,0.9,0.7,1.2c0.4,0.3,0.9,0.4,1.4,0.4
	c0.3,0,0.6,0,0.8-0.1c0.2-0.1,0.5-0.2,0.6-0.4c0.3-0.3,0.3-0.8,0.2-1.1c0-0.1-0.1-0.2-0.1-0.3c-0.1-0.1-0.1-0.2-0.2-0.2
	c-0.1-0.1-0.2-0.1-0.3-0.2c-0.1-0.1-0.3-0.1-0.4-0.2c-0.2-0.1-0.3-0.1-0.4-0.1s-0.3-0.1-0.5-0.1s-0.4-0.1-0.5-0.1
	c-0.3-0.1-0.6-0.2-0.9-0.3c-0.3-0.1-0.5-0.3-0.7-0.4c-0.2-0.2-0.4-0.4-0.6-0.7c-0.1-0.3-0.2-0.6-0.2-1c0-0.5,0.1-1,0.4-1.4
	c0.3-0.4,0.7-0.7,1.1-0.8c0.5-0.2,1-0.3,1.5-0.3c0.7,0,1.5,0.2,2.1,0.6c0.6,0.4,1,1,1.1,1.7l-1.2,0.3c-0.1-0.4-0.3-0.8-0.7-1.1
	c-0.4-0.2-0.8-0.4-1.2-0.4c-0.4,0-0.8,0.1-1.2,0.3c-0.3,0.2-0.5,0.6-0.5,0.9c0,0.2,0,0.3,0.1,0.5c0.1,0.1,0.2,0.2,0.3,0.3
	c0.1,0.1,0.3,0.2,0.5,0.3c0.2,0.1,0.4,0.2,0.5,0.2c0.1,0,0.3,0.1,0.6,0.2c0.1,0,0.1,0,0.1,0c0.3,0.1,0.6,0.2,0.8,0.2
	c0.3,0.1,0.5,0.2,0.7,0.3c0.2,0.1,0.5,0.3,0.7,0.5c0.2,0.2,0.3,0.4,0.4,0.7c0.1,0.3,0.2,0.6,0.2,0.9c0,0.4-0.1,0.8-0.3,1.2
	c-0.2,0.3-0.4,0.6-0.7,0.8c-0.3,0.2-0.6,0.3-1,0.4C230.5,530.1,230.1,530.2,229.6,530.2L229.6,530.2z M236,519.3c-0.6,0-1-0.5-1-1
	c0-0.3,0.1-0.5,0.3-0.7c0.2-0.2,0.5-0.3,0.7-0.3c0.3,0,0.5,0.1,0.7,0.3c0.2,0.2,0.3,0.4,0.3,0.7c0,0.3-0.1,0.5-0.3,0.7
	C236.5,519.2,236.3,519.3,236,519.3L236,519.3z M235.2,530v-8.6h1.5v8.6H235.2z M243.9,521.2c0.8,0,1.6,0.2,2.2,0.8
	c0.6,0.6,0.9,1.4,0.8,2.2v5.8h-1.5v-5.5c0-0.6-0.1-1.1-0.5-1.5c-0.4-0.3-0.9-0.5-1.4-0.5c-0.6,0-1.1,0.2-1.5,0.6
	c-0.4,0.5-0.6,1.1-0.6,1.8v5.2h-1.5v-8.6h1.5v1.1C241.9,521.6,242.9,521.1,243.9,521.2L243.9,521.2z M262.1,525.5l0,0.4h-6.8
	c0,0.8,0.3,1.6,0.8,2.2c0.5,0.5,1.2,0.8,2,0.8c0.5,0,1-0.1,1.4-0.4c0.4-0.3,0.8-0.7,1-1.1l1.4,0.3c-0.3,0.8-0.8,1.4-1.5,1.9
	c-0.7,0.5-1.5,0.7-2.3,0.7c-1.2,0-2.3-0.4-3.1-1.2c-0.8-0.9-1.3-2.1-1.2-3.3c-0.1-1.2,0.4-2.4,1.2-3.3c0.8-0.8,1.9-1.2,3.1-1.2
	c1.1,0,2.1,0.4,2.9,1.1C261.8,523.2,262.2,524.3,262.1,525.5L262.1,525.5z M258.1,522.4c-0.7,0-1.3,0.2-1.8,0.6
	c-0.5,0.5-0.8,1.1-0.9,1.8h5.2c0-0.7-0.3-1.3-0.8-1.8C259.3,522.6,258.7,522.3,258.1,522.4L258.1,522.4z M264.5,530v-13.5h1.5V530
	H264.5z M277.4,530.2c-0.8,0-1.5-0.2-2.2-0.5c-0.7-0.4-1.2-0.9-1.6-1.6c-0.4-0.7-0.6-1.6-0.6-2.4c-0.1-1.2,0.4-2.4,1.2-3.3
	c1.8-1.6,4.5-1.6,6.3,0c0.8,0.9,1.3,2,1.2,3.3c0.1,1.2-0.4,2.4-1.2,3.3C279.7,529.8,278.6,530.2,277.4,530.2L277.4,530.2z
	 M277.4,528.9c0.8,0,1.5-0.3,2-0.9c1.1-1.4,1.1-3.3,0-4.7c-0.5-0.6-1.3-0.9-2-0.9c-0.8,0-1.5,0.3-2,0.9c-1.1,1.4-1.1,3.3,0,4.7
	C275.9,528.6,276.6,528.9,277.4,528.9L277.4,528.9z M286.9,530c-0.6,0-1.2-0.2-1.7-0.6c-0.4-0.5-0.7-1.1-0.6-1.7v-5.1h-1.8v-1.2h0.6
	c0.3,0,0.7-0.1,1-0.3c0.2-0.3,0.3-0.7,0.3-1v-1.6h1.4v2.9h2v1.2h-2v4.9c0,0.3,0.1,0.7,0.3,1c0.2,0.2,0.5,0.4,0.9,0.3h0.8v1.2
	L286.9,530z M291.8,522.9c0.2-0.5,0.6-0.9,1.1-1.2c0.5-0.3,1.1-0.5,1.7-0.5v1.4c-0.7-0.1-1.4,0.2-2,0.6c-0.5,0.6-0.8,1.3-0.7,2v4.6
	h-1.5v-8.6h1.5L291.8,522.9z M299.9,530.2c-0.8,0-1.5-0.2-2.2-0.5c-0.7-0.4-1.2-0.9-1.6-1.6c-0.4-0.7-0.6-1.6-0.6-2.4
	c-0.1-1.2,0.4-2.4,1.2-3.3c1.8-1.6,4.5-1.6,6.3,0c0.8,0.9,1.3,2,1.2,3.3c0.1,1.2-0.4,2.4-1.2,3.3C302.1,529.8,301,530.2,299.9,530.2
	L299.9,530.2z M299.8,528.9c0.8,0,1.5-0.3,2-0.9c1.1-1.4,1.1-3.3,0-4.7c-0.5-0.6-1.3-0.9-2-0.9c-0.8,0-1.5,0.3-2,0.9
	c-1.1,1.4-1.1,3.3,0,4.7C298.3,528.6,299.1,528.9,299.8,528.9L299.8,528.9z M307.5,530.2c-0.3,0-0.5-0.1-0.7-0.3
	c-0.4-0.4-0.4-1,0-1.4c0.2-0.2,0.4-0.3,0.7-0.3c0.3,0,0.5,0.1,0.7,0.3c0.4,0.4,0.4,1,0,1.4c0,0,0,0,0,0
	C308.1,530.1,307.8,530.2,307.5,530.2L307.5,530.2z"/>
<path id="Trazado_26559" class="st1" d="M473.9,425.5c35.8,0,64.8,29.9,64.8,66.8s-29,66.8-64.8,66.8s-64.8-29.9-64.8-66.8
	S438.1,425.5,473.9,425.5z"/>
<path id="Trazado_26560" class="st2" d="M477.3,436.4c9.5,0,18.6,3.4,25.8,9.5c1.5,1.4,1.2,2.5-0.3,2.6
	c-21.7,4.5-43.1,10.4-64.2,17.4c-2.3,0.7-1.3-4-0.3-5.5C446.7,446.1,461.2,436.4,477.3,436.4L477.3,436.4z M514.8,509.1
	c-7.9,16.5-23.5,27.9-40.9,27.9c-8.1,0-16.1-2.5-22.8-7.2c-1.8-1.4-1.3-2.7,0.4-3.3c19.5-7.9,39.6-14.4,60-19.5
	C514,506.3,515.9,506.7,514.8,509.1L514.8,509.1z"/>
<path id="Trazado_26561" class="st1" d="M491,530.8c8.2-5.9,13-11.4,14.6-16.5c1-3.4,3.9-2.6,3.1,0
	C504.9,524.2,497.1,528.4,491,530.8L491,530.8z"/>
<path id="Trazado_26562" class="st1" d="M456.1,444.2c-4.3,2.7-8.9,5-13,15.5c-0.6,2.1,1.8,2.7,2.3,0.9
	C446.8,454.4,450.7,449.1,456.1,444.2L456.1,444.2z"/>
<path id="Trazado_26563" class="st1" d="M477.2,438.9c19.3,1.2,22.5,7.4,12.7,10.3C493.5,443.7,488.3,440.5,477.2,438.9z"/>
<path id="Trazado_26564" class="st3" d="M526.8,513.6v-1.7H526v-0.4h2.1v0.4h-0.8v1.7H526.8z"/>
<path id="Trazado_26565" class="st3" d="M528.5,513.6v-2.1h0.8l0.5,1.4l0.5-1.4h0.8v2.1h-0.5V512l-0.5,1.6h-0.5L529,512v1.6H528.5z"
	/>
<path id="Trazado_26566" class="st4" d="M431.6,500.1v30.3l7-2.9c1.7-0.6,2.2-1.9,2-3.9l0.1-9.9l8.1,8.3c3.7,3.8,9.7-3.2,7-6.2
	l-6.4-7.2l6.4-11.6c2.3-3.9-4.1-7.9-7-3.9l-8.4,13.6l0-10.6L431.6,500.1L431.6,500.1z"/>
<path id="Trazado_26567" class="st4" d="M458,493c0,0.6-0.1,27.5-0.1,27.5l5.9-2.5c2.1-0.8,3.5-2.8,3.4-5l0.2-27.2l-6.4,2.6
	C459,489.5,458,490.9,458,493L458,493z"/>
<path id="Trazado_26568" class="st4" d="M470.3,515.5l-0.2-30.1l5-1.8c1.5-0.7,3.3-0.1,4.1,1.4l8.5,9.3c0-3.5-0.1-7-0.1-10.4
	c-0.1-2.1,2-3.6,4.5-4.5l3.6-1.1l0.1,27.9c0,3.2-5.7,4.8-7.4,2.7c-1.2-1.6-9.6-10.8-9.6-10.8l-0.3,11.7
	C478.3,513,475.8,514.1,470.3,515.5L470.3,515.5z"/>
<path id="Trazado_26569" class="st4" d="M510.6,487.1l12.5-3.1v12.4c-1.2,4.8-5.1,7.3-11.9,8.4c-8.7,0.8-14-4.1-13.8-13.4
	c1.7-13.2,9.2-19.1,22.4-17.5c6.6,1,4.2,8.4-1.4,7.3c-7.3-1.4-12.2,2.2-12.5,8.9c0.3,6.7,4.8,9.5,9.5,5.6l0.1-3
	c-2.9,0.7-5.1,0.5-5-1.9C510.5,490.7,510.8,487.2,510.6,487.1L510.6,487.1z"/>
<path id="Trazado_26570" class="st4" d="M481.9,466.9l8.1-2v8.3c-0.8,3.2-3.3,4.9-7.7,5.6c-5.6,0.6-9.1-2.7-9-9
	c1.1-8.9,5.9-12.7,14.5-11.7c4.3,0.7,2.7,5.6-0.9,4.9c-4.7-0.9-7.9,1.5-8.1,5.9c0.2,4.5,3.1,6.3,6.2,3.7l0.1-2
	c-1.9,0.5-3.3,0.4-3.2-1.3C482,468.5,482,467.7,481.9,466.9L481.9,466.9z"/>
<path id="Trazado_26571" class="st4" d="M432,486.4l-0.3,5.9c2.2-0.8,4.4-2,4.4-5C436.2,485.8,434.4,485.2,432,486.4z M432,478.1
	l-0.3,5.5c2-0.8,4.1-1.9,4.1-4.7C435.9,477.5,434.2,477,432,478.1L432,478.1z M426.9,476.3c0.1,0.5,0.1,22.6,0.1,22.6l10.8-5.1
	c5.1-2.7,5.1-10.9,0.8-10.4c4.1-4.2,1.5-11.6-2.5-10.3L426.9,476.3L426.9,476.3z"/>
<path id="Trazado_26572" class="st4" d="M442.3,471.9c0,0.5-0.1,13.9-0.1,13.9c0,3.6,3.9,5,7.3,4.3c4.5-0.9,7-3.7,7.3-7.9
	c0-5.1,0.1-9.4,0.1-14.4c-0.1-2.7-5.2-1.8-5.4,0.9c0.1,4.7,0.1,8.9,0.2,13.6c-0.4,3.4-4,3.5-4,0.7v-11.9
	C447.6,468.3,442.3,468.8,442.3,471.9L442.3,471.9z"/>
<path id="Trazado_26573" class="st4" d="M458.6,485.9l-0.2-20.6l8.1-2.5c5-1.5,8.6,5.3,3,10.9l3.8,4.3c1.9,2.4-2,5.7-4.2,3.7
	l-5.1-4.8c-0.1,1.6-0.2,3.2-0.2,4.8C463.6,484.1,461.8,485.2,458.6,485.9L458.6,485.9z M463.8,467.2c4.4-2.1,5,3.7-0.1,6.1
	C463.7,471.3,463.8,469.1,463.8,467.2z"/>
<path id="Trazado_26574" class="st4" d="M504.4,473.3l-0.1-19.9l8.3-1.4c5.2-0.8,8.8,6.3,3,10.9l3.9,4.7c1.9,2.6-2.1,5.2-4.3,3.1
	l-5.3-5.3c-0.1,1.5-0.2,3.1-0.3,4.6C509.5,472.3,507.7,473.1,504.4,473.3L504.4,473.3z M509.8,456c4.5-1.5,5.1,4.2-0.1,5.9
	C509.8,460,509.8,457.9,509.8,456z"/>
<path id="Trazado_26575" class="st4" d="M491.4,456.1l0.2,20.2c3.1-0.6,5.3-1.1,8.4-1.7c3.3-0.8,3.4-3,3.3-5.4l-6.4,1.5v-4.3
	c5.6-0.9,6.1-1.7,5.8-4.9l-6.1,1.1v-3.3c5.6-1.1,6.6-1.7,6.6-5.6L491.4,456.1L491.4,456.1z"/>
<path id="Trazado_26576" class="st5" d="M474.3,430.5c5.3,0,10.7,0.7,15.8,2.1l-0.4,0.6c-12.1-2.6-29.5,1.3-37.2,4.9
	c-19.1,8.2-32.7,28-32.7,51.1c0,11.9,3.7,23.5,10.6,33.2v10l6.4-2.6c9.4,9.2,22,14.4,35.2,14.5c21.4,0,39.8-13.7,47.9-33.3
	c3.2,1.8,7.6,4.3,11.1,6.4c-9.6,22.8-31.9,37.7-56.7,37.8c-34,0-61.7-28-61.7-62.4S440.3,430.5,474.3,430.5z"/>
<path id="mcdonald-s-15" class="st6" d="M493.5,7.2c10,0,18,42,18,93.8h14.4c0-55.8-14.5-101-32.5-101c-10.2,0-19.3,13.6-25.2,34.8
	C462.3,13.6,453.2,0,443,0c-17.9,0-32.5,45.2-32.5,101h14.4c0-51.8,8.1-93.8,18-93.8s18,38.8,18,86.6h14.4
	C475.4,46,483.5,7.2,493.5,7.2 M533.1,93.8c2,0,3.6,1.6,3.6,3.6c0,2-1.6,3.6-3.6,3.6c-2,0-3.6-1.6-3.6-3.6
	C529.5,95.4,531.1,93.8,533.1,93.8C533.1,93.8,533.1,93.8,533.1,93.8 M533.1,100.4c1.7,0.1,3.1-1.3,3.2-3c0.1-1.7-1.3-3.1-3-3.2
	s-3.1,1.3-3.2,3c0,0,0,0.1,0,0.1c-0.1,1.6,1.2,3,2.8,3.1C533.1,100.4,533.1,100.4,533.1,100.4L533.1,100.4z M531.7,95.3h1.6
	c1,0,1.5,0.4,1.5,1.2c0,0.6-0.4,1.1-1,1.1c0,0-0.1,0-0.1,0l1.2,1.9h-0.7l-1.1-1.8h-0.7v1.8h-0.7L531.7,95.3L531.7,95.3z M532.4,97.1
	h0.7c0.6,0,1.1,0,1.1-0.7c0-0.6-0.5-0.6-0.9-0.6h-0.9L532.4,97.1L532.4,97.1z"/>
<path id="Trazado_26577" class="st7" d="M381.8,200.4c3.7,6,10.1,9.6,17.1,9.6c10.6,0,16.4-9.1,16.4-9.1l0.8,2.4
	c-4.9,6.4-13.7,10.2-23.5,10.2c-11.3,0-21-5.4-25.5-13.1c-1.7-2.9-2.6-6.2-2.6-9.6c0-12.6,12.6-22.8,28.1-22.8
	c11,0,19.8,4.7,24.4,11.5l-18.4,11l10.5-16.1c-3-1.9-6.7-3.7-10.5-3.7c-10.9,0.1-19.6,8.9-19.7,19.8C379,194,380,197.4,381.8,200.4z
	 M431.1,200.4c-0.6,4,2.2,7.8,6.2,8.4s7.8-2.2,8.4-6.2s-2.2-7.8-6.2-8.4c-0.4-0.1-0.7-0.1-1.1-0.1
	C434.7,194.1,431.6,196.8,431.1,200.4z M458.5,200.4l3.7,12.4h-12.9l-2.5-8.5c-1.7,4.9-7.4,8.5-14.3,8.5c-8.2,0-14.8-5.2-14.8-11.5
	c0-0.3,0-0.6,0-0.9c0.6-5.9,6.9-10.6,14.7-10.6c4-0.1,8,1.3,11.1,3.9l-3.5-11.8h-14.8c0,0,2.5-1.5,13.4-5.5s14.4,5.5,14.4,5.5
	L458.5,200.4z M499.8,200.4v12.4h-13.3v-27.3c0-2-1.6-3.6-3.6-3.6c-1.5,0-2.8,0.9-3.4,2.3v28.6h-13v-30.9h-7.6
	c0,0,10.6-6.4,14.2-6.4c3.4,0,6.2,2.7,6.4,6.1c5.1-2.8,10.2-6.1,13.7-6.1c3.6,0,6.5,2.9,6.6,6.5L499.8,200.4L499.8,200.4z
	 M520.3,200.4l1.8,6.1c0,2.6,2.2,4.7,4.8,4.7c2.7,0,4.9-2.2,4.9-4.9c0-0.2,0-0.4,0-0.6l-1.6-5.4l-5.5-18.9c-0.3-2.5-2.4-4.3-4.9-4.3
	c-2.6,0.2-4.8,2.1-5.2,4.7L520.3,200.4L520.3,200.4z M541.4,200.4c-3.3,10-14.1,15.5-24.2,12.2c-10-3.3-15.5-14.1-12.2-24.2
	c3.3-10,14.1-15.5,24.2-12.2c7.8,2.6,13.2,9.9,13.2,18.2C542.4,196.4,542.1,198.5,541.4,200.4L541.4,200.4z M563.4,200.4v12.4h-13
	v-30.9h-7.3c0,0,10.3-6.4,13.9-6.4c3.4,0,6.2,2.7,6.4,6.1c5.1-2.8,10.2-6.1,13.7-6.1c3.6,0,6.5,2.9,6.6,6.5v30.8h-13.3v-27.2
	c0-2-1.6-3.6-3.6-3.6c-1.5,0-2.8,0.9-3.4,2.3L563.4,200.4L563.4,200.4z"/>
<path id="Trazado_26578" class="st8" d="M550.1,368.2c-4.5-1.1-10.3-0.9-10.3-3.7c0.3-2,2.1-2.5,4.8-2.5c4.1,0,4.5,2.3,4.5,3.7h6.9
	c-0.3-5.4-4.8-9-11.7-9c-7.2,0-11.3,3.9-11.3,8.8c-0.1,2.7,1.4,5.3,3.8,6.6c2.3,0.9,4.7,1.6,7.2,1.8c2.7,0.5,5.5,0.6,5.8,2.8
	c0,1.4-1.7,3.2-4.8,3.2c-4.5-0.2-5.5-2.6-5.5-4.5h-7.2c0.3,5.6,4.8,9.4,12.4,9.4l0,0c6.9,0,12.4-2.6,12.4-9.4
	C557,371.9,554.2,369.2,550.1,368.2z"/>
<path id="Trazado_26579" class="st8" d="M449.5,347.4l-12.7-21.8l-23.7,13.8l4.5,8L449.5,347.4z"/>
<rect id="Rectngulo_4695" x="459.5" y="356.7" class="st8" width="6.9" height="27.5"/>
<path id="Trazado_26580" class="st8" d="M533.3,347.4L492.1,276l-23.7,13.9l33,57.5L533.3,347.4z"/>
<path id="Trazado_26581" class="st8" d="M459.5,354.2h6.9v-6.8h25.1l-26.4-46.2l-24,13.6l18.5,32.6L459.5,354.2z"/>
<path id="Trazado_26582" class="st8" d="M552.5,354.4L552.5,354.4c2,0,3.5-1.6,3.4-3.4s-1.6-3.4-3.4-3.4l0,0c-1.9,0-3.4,1.5-3.4,3.4
	C549.1,352.9,550.6,354.4,552.5,354.4z M552.5,348.1c1.6-0.1,3,1.1,3.1,2.7s-1.1,3-2.7,3.1c-1.6,0.1-3-1.1-3.1-2.7
	c0-0.1,0-0.1,0-0.2c-0.1-1.5,1.1-2.8,2.6-2.9C552.4,348.1,552.5,348.1,552.5,348.1L552.5,348.1z"/>
<path id="Trazado_26583" class="st8" d="M449.5,359.2c-6.4-4.4-15.3-2.8-19.7,3.7c-4.4,6.4-2.8,15.3,3.7,19.7c2.3,1.6,5,2.4,7.7,2.5
	l0,0c2.9,0,5.8-0.8,8.2-2.3v1.7h6.9v-36.8h-6.9L449.5,359.2z M441.6,378.7L441.6,378.7c-4.4,0-7.9-3.5-7.9-7.9c0,0,0,0,0,0
	c0-4.3,3.6-7.9,7.9-7.9c4.3,0.1,7.7,3.6,7.9,7.9C449.4,375.2,445.9,378.6,441.6,378.7L441.6,378.7z"/>
<path id="Trazado_26584" class="st8" d="M417.9,359.2c-2.4-1.7-5.3-2.5-8.2-2.5c-7.8,0-14.1,6.3-14.1,14.2c0,7.8,6.3,14.1,14.1,14.1
	l0,0c2.9,0.1,5.8-0.7,8.2-2.3v1.7h6.9v-27.4h-6.9L417.9,359.2z M417.9,370.9c0,4.3-3.6,7.8-7.9,7.8c0,0,0,0,0,0
	c-4.3-0.1-7.8-3.6-7.9-7.9l0,0c0.2-4.3,3.6-7.7,7.9-7.9c4.3,0,7.9,3.5,7.9,7.9C417.9,370.9,417.9,370.9,417.9,370.9L417.9,370.9z"/>
<path id="Trazado_26585" class="st8" d="M514.7,385.1L514.7,385.1z"/>
<path id="Trazado_26586" class="st8" d="M522.9,359.2c-6.4-4.4-15.3-2.8-19.7,3.7c-4.4,6.4-2.8,15.3,3.7,19.7c2.3,1.6,5,2.4,7.7,2.5
	c2.9,0,5.8-0.8,8.2-2.3v1.7h6.5v-27.4h-6.5L522.9,359.2z M515.1,378.7L515.1,378.7c-4.4,0-7.9-3.5-7.9-7.9c0,0,0,0,0,0
	c0-4.3,3.6-7.9,7.9-7.9c4.3,0.1,7.7,3.6,7.9,7.9C522.9,375.2,519.4,378.6,515.1,378.7L515.1,378.7z"/>
<path id="Trazado_26587" class="st8" d="M551.8,351.3h0.7l0.7,1.5h0.7l-0.7-1.5c0.4-0.2,0.7-0.6,0.7-1.1c-0.1-0.6-0.5-1-1-1.1h-1.5
	v3.7h0.5L551.8,351.3z M551.8,349.7h0.7l0,0c0.7,0,0.7,0.3,0.7,0.6c0,0.5,0,0.6-0.7,0.6h-0.7V349.7z"/>
<path id="Trazado_26588" class="st8" d="M491.4,359.2c-2.3-1.7-5.1-2.6-7.9-2.5c-7.8-0.1-14.3,6.1-14.4,13.9
	c-0.1,7.8,6.1,14.3,13.9,14.4c0.2,0,0.4,0,0.5,0c2.8,0.1,5.6-0.7,7.9-2.3v1.7h6.9v-36.8h-6.9V359.2z M491.4,370.9
	c0,4.3-3.6,7.8-7.9,7.8c-4.3-0.1-7.8-3.6-7.9-7.9c0.2-4.3,3.6-7.7,7.9-7.9C487.8,363,491.4,366.5,491.4,370.9
	C491.4,370.9,491.4,370.9,491.4,370.9z"/>
<line id="Lnea_225" class="st9" x1="0" y1="127.5" x2="610.2" y2="127.5"/>
<path id="Trazado_26593" class="st9" d="M0,255.5h610.2"/>
<path id="Trazado_26596" class="st9" d="M0,406.5h610.2"/>
</svg>
