<svg xmlns="http://www.w3.org/2000/svg" width="75.333" height="75.333" viewBox="0 0 75.333 75.333">
  <g id="Grupo_26375" data-name="Grupo 26375" transform="translate(-669.983 -1905)">
    <g id="Grupo_26357" data-name="Grupo 26357" transform="translate(229.262 1412.972)">
      <path id="Trazado_20659" data-name="Trazado 20659" d="M516.054,529.7a37.667,37.667,0,1,1-37.667-37.667A37.667,37.667,0,0,1,516.054,529.7Z" fill="#fec038"/>
      <circle id="Elipse_882" data-name="Elipse 882" cx="33" cy="33" r="33" transform="translate(445.387 496.695)" fill="#fff"/>
      <g id="Grupo_26356" data-name="Grupo 26356">
        <g id="Grupo_26342" data-name="Grupo 26342">
          <g id="Grupo_26339" data-name="Grupo 26339">
            <path id="Trazado_20660" data-name="Trazado 20660" d="M497.251,529.888a19.062,19.062,0,0,1-19.062,19.062V510.824A19.066,19.066,0,0,1,497.251,529.888Z" fill="#c1c1c1"/>
          </g>
          <g id="Grupo_26341" data-name="Grupo 26341">
            <g id="Grupo_26340" data-name="Grupo 26340">
              <path id="Trazado_20661" data-name="Trazado 20661" d="M478.189,510.824V548.95a19.063,19.063,0,1,1,0-38.126Z" fill="#ddd"/>
            </g>
          </g>
        </g>
        <g id="Grupo_26344" data-name="Grupo 26344">
          <g id="Grupo_26343" data-name="Grupo 26343">
            <circle id="Elipse_883" data-name="Elipse 883" cx="4.201" cy="4.201" r="4.201" transform="translate(473.986 525.687)" fill="#ddd"/>
          </g>
        </g>
        <g id="Grupo_26347" data-name="Grupo 26347">
          <g id="Grupo_26345" data-name="Grupo 26345">
            <path id="Trazado_20662" data-name="Trazado 20662" d="M478.186,527.717v4.34a2.17,2.17,0,1,1,0-4.34Z" fill="#ff3000"/>
          </g>
          <g id="Grupo_26346" data-name="Grupo 26346">
            <path id="Trazado_20663" data-name="Trazado 20663" d="M480.357,529.889a2.17,2.17,0,0,1-2.171,2.168v-4.34A2.172,2.172,0,0,1,480.357,529.889Z" fill="#dd2703"/>
          </g>
        </g>
        <g id="Grupo_26348" data-name="Grupo 26348">
          <path id="Trazado_20664" data-name="Trazado 20664" d="M478.186,540.515a10.628,10.628,0,1,1,10.628-10.627A10.639,10.639,0,0,1,478.186,540.515Zm0-18.966a8.338,8.338,0,1,0,8.338,8.339A8.347,8.347,0,0,0,478.186,521.549Z" fill="#4ec3f1"/>
        </g>
        <g id="Grupo_26349" data-name="Grupo 26349">
          <path id="Trazado_20665" data-name="Trazado 20665" d="M478.186,549.825a19.938,19.938,0,1,1,19.939-19.937A19.96,19.96,0,0,1,478.186,549.825Zm0-37.586a17.648,17.648,0,1,0,17.649,17.649A17.668,17.668,0,0,0,478.186,512.239Z" fill="#4ec3f1"/>
        </g>
        <g id="Grupo_26352" data-name="Grupo 26352">
          <g id="Grupo_26350" data-name="Grupo 26350">
            <rect id="Rectángulo_3820" data-name="Rectángulo 3820" width="2.99" height="15.583" transform="translate(476.692 507.612)" fill="#ff3000"/>
          </g>
          <g id="Grupo_26351" data-name="Grupo 26351">
            <rect id="Rectángulo_3821" data-name="Rectángulo 3821" width="2.99" height="15.582" transform="translate(476.692 536.579)" fill="#ff3000"/>
          </g>
        </g>
        <g id="Grupo_26355" data-name="Grupo 26355">
          <g id="Grupo_26353" data-name="Grupo 26353">
            <rect id="Rectángulo_3822" data-name="Rectángulo 3822" width="15.582" height="2.99" transform="translate(484.879 528.392)" fill="#ff3000"/>
          </g>
          <g id="Grupo_26354" data-name="Grupo 26354">
            <rect id="Rectángulo_3823" data-name="Rectángulo 3823" width="15.582" height="2.99" transform="translate(455.913 528.392)" fill="#ff3000"/>
          </g>
        </g>
      </g>
    </g>
  </g>
</svg>
