<svg xmlns="http://www.w3.org/2000/svg" width="75.332" height="75.333" viewBox="0 0 75.332 75.333">
  <g id="Grupo_26376" data-name="Grupo 26376" transform="translate(-841 -1905)">
    <g id="Grupo_26372" data-name="Grupo 26372" transform="translate(229.288 1412.972)">
      <path id="Trazado_20681" data-name="Trazado 20681" d="M687.044,529.7a37.666,37.666,0,1,1-37.666-37.667A37.666,37.666,0,0,1,687.044,529.7Z" fill="#b869c3"/>
      <circle id="Elipse_886" data-name="Elipse 886" cx="33" cy="33" r="33" transform="translate(616.378 496.695)" fill="#fff"/>
      <g id="Grupo_26371" data-name="Grupo 26371">
        <path id="Trazado_20682" data-name="Trazado 20682" d="M663.356,524.481c-.272-7.482-5.83-13.886-13.8-13.974s-13.672,6.2-14.113,13.668c-.517,8.836,7.06,11.378,9.039,19.278l9.417.107C656.031,535.784,663.681,533.239,663.356,524.481Z" fill="#fcdc00"/>
        <path id="Trazado_20683" data-name="Trazado 20683" d="M645.192,519.987a2.106,2.106,0,1,1-2.091-2.122A2.108,2.108,0,0,1,645.192,519.987Z" fill="#fff"/>
        <rect id="Rectángulo_3825" data-name="Rectángulo 3825" width="3.055" height="11.57" transform="translate(643.366 546.523) rotate(-89.507)" fill="#5e5a5c"/>
        <path id="Trazado_20684" data-name="Trazado 20684" d="M644.186,545.891l1.361,5.27,7.246.061,1.451-5.246Z" fill="#5e5a5c"/>
      </g>
    </g>
  </g>
</svg>
