<svg xmlns="http://www.w3.org/2000/svg" width="75.334" height="75.333" viewBox="0 0 75.334 75.333">
  <g id="Grupo_26377" data-name="Grupo 26377" transform="translate(-1011.965 -1905)">
    <g id="Grupo_26336" data-name="Grupo 26336" transform="translate(229.262 1412.972)">
      <path id="Trazado_20646" data-name="Trazado 20646" d="M858.037,529.7a37.667,37.667,0,1,1-37.668-37.667A37.668,37.668,0,0,1,858.037,529.7Z" fill="#65b3f2"/>
      <circle id="Elipse_880" data-name="Elipse 880" cx="33" cy="33" r="33" transform="translate(787.369 496.695)" fill="#fff"/>
      <g id="Grupo_26335" data-name="Grupo 26335">
        <path id="Trazado_20647" data-name="Trazado 20647" d="M812.493,544.035a1.973,1.973,0,0,1-3.505-1.811l2.336-4.521a1.973,1.973,0,0,1,3.506,1.812Z" fill="#1299dd"/>
        <path id="Trazado_20648" data-name="Trazado 20648" d="M827.612,544.035a1.973,1.973,0,0,0,3.505-1.811l-2.338-4.521a1.972,1.972,0,0,0-3.5,1.812Z" fill="#1299dd"/>
        <path id="Trazado_20649" data-name="Trazado 20649" d="M831.729,531.065a11.677,11.677,0,1,1-11.675-11.679A11.676,11.676,0,0,1,831.729,531.065Z" fill="#85eeff"/>
        <g id="Grupo_26330" data-name="Grupo 26330">
          <path id="Trazado_20650" data-name="Trazado 20650" d="M822.949,513.741,822,515.777h-3.89l-.953-2.036h-1.221l1.471,3.142h5.3l1.471-3.142Z" fill="#2d2d2d"/>
        </g>
        <g id="Grupo_26333" data-name="Grupo 26333">
          <g id="Grupo_26331" data-name="Grupo 26331">
            <rect id="Rectángulo_3810" data-name="Rectángulo 3810" width="6.307" height="2.589" transform="matrix(0.707, -0.707, 0.707, 0.707, 827.839, 520.279)" fill="#4d4f50"/>
            <rect id="Rectángulo_3811" data-name="Rectángulo 3811" width="2.589" height="5.251" transform="translate(830.231 516.005) rotate(-45)" fill="#2d2d2d"/>
          </g>
          <g id="Grupo_26332" data-name="Grupo 26332">
            <rect id="Rectángulo_3812" data-name="Rectángulo 3812" width="2.589" height="6.308" transform="matrix(0.707, -0.707, 0.707, 0.707, 805.974, 517.651)" fill="#4d4f50"/>
            <rect id="Rectángulo_3813" data-name="Rectángulo 3813" width="5.251" height="2.589" transform="translate(804.33 517.888) rotate(-45.014)" fill="#2d2d2d"/>
          </g>
        </g>
        <path id="Rectángulo_3814" data-name="Rectángulo 3814" d="M1.483,0h8.938A1.48,1.48,0,0,1,11.9,1.48V3.062a1.483,1.483,0,0,1-1.483,1.483H1.482A1.482,1.482,0,0,1,0,3.063V1.483A1.483,1.483,0,0,1,1.483,0Z" transform="translate(814.102 509.417)" fill="#e20707"/>
        <path id="Trazado_20651" data-name="Trazado 20651" d="M820.545,529.53l-1.023.7-3.7-5.4-.091-1.23,1.116.528Z" fill="#2d2d2d"/>
        <path id="Trazado_20652" data-name="Trazado 20652" d="M820.013,530.7v-1.481h4.513l1.268.741-1.268.74Z" fill="#064eb7"/>
        <path id="Trazado_20653" data-name="Trazado 20653" d="M821.256,529.837a1.246,1.246,0,1,1-1.3-1.186A1.245,1.245,0,0,1,821.256,529.837Z" fill="#302c2a"/>
        <g id="Grupo_26334" data-name="Grupo 26334">
          <rect id="Rectángulo_3815" data-name="Rectángulo 3815" width="1.215" height="2.185" transform="translate(819.405 518.553)" fill="#4d4f50"/>
          <rect id="Rectángulo_3816" data-name="Rectángulo 3816" width="2.185" height="1.216" transform="translate(808.669 529.289)" fill="#4d4f50"/>
          <rect id="Rectángulo_3817" data-name="Rectángulo 3817" width="1.215" height="2.185" transform="translate(819.405 539.055)" fill="#4d4f50"/>
          <rect id="Rectángulo_3818" data-name="Rectángulo 3818" width="2.184" height="1.216" transform="translate(829.171 529.289)" fill="#4d4f50"/>
        </g>
        <path id="Trazado_20654" data-name="Trazado 20654" d="M820.052,515.411A14.486,14.486,0,1,0,834.537,529.9,14.485,14.485,0,0,0,820.052,515.411Zm0,24.533a10.047,10.047,0,1,1,10.049-10.05A10.047,10.047,0,0,1,820.052,539.944Z" fill="#ff3000"/>
      </g>
    </g>
  </g>
</svg>
