<svg xmlns="http://www.w3.org/2000/svg" width="75.334" height="75.333" viewBox="0 0 75.334 75.333">
  <g id="Grupo_26374" data-name="Grupo 26374" transform="translate(-498.991 -1905)">
    <g id="Grupo_26370" data-name="Grupo 26370" transform="translate(229.262 1412.972)">
      <path id="Trazado_20674" data-name="Trazado 20674" d="M345.063,529.7A37.667,37.667,0,1,1,307.4,492.028,37.667,37.667,0,0,1,345.063,529.7Z" fill="#ff8f00"/>
      <circle id="Elipse_885" data-name="Elipse 885" cx="33" cy="33" r="33" transform="translate(274.396 496.695)" fill="#fff"/>
      <g id="Grupo_26369" data-name="Grupo 26369">
        <rect id="Rectángulo_3824" data-name="Rectángulo 3824" width="3.219" height="2.704" transform="translate(306.104 537.724)" fill="#222324"/>
        <path id="Trazado_20675" data-name="Trazado 20675" d="M321.041,525.1a13.327,13.327,0,1,1-13.327-13.326A13.328,13.328,0,0,1,321.041,525.1Z" fill="#353535"/>
        <path id="Trazado_20676" data-name="Trazado 20676" d="M315.377,517.431l-15.329,15.33a10.84,10.84,0,1,1,15.329-15.33Z" fill="#53ceea"/>
        <path id="Trazado_20677" data-name="Trazado 20677" d="M318.552,525.1a10.84,10.84,0,0,1-18.5,7.664l15.329-15.33A10.808,10.808,0,0,1,318.552,525.1Z" fill="#17bee5"/>
        <path id="Trazado_20678" data-name="Trazado 20678" d="M307.713,540.427v9.188a2.163,2.163,0,0,1-2.336-2.193v-6.995Z" fill="#ff5122"/>
        <path id="Trazado_20679" data-name="Trazado 20679" d="M310.048,540.426v7a2.2,2.2,0,0,1-2.336,2.191v-9.188Z" fill="#ea3207"/>
        <path id="Trazado_20680" data-name="Trazado 20680" d="M300.976,524.3a6.776,6.776,0,0,1,5.938-5.94.879.879,0,0,0-.208-1.745,8.535,8.535,0,0,0-7.476,7.477A.879.879,0,0,0,300.976,524.3Z" fill="#fdfdfd"/>
      </g>
    </g>
  </g>
</svg>
