<svg xmlns="http://www.w3.org/2000/svg" width="74.896" height="74.608" viewBox="0 0 74.896 74.608">
  <g id="Grupo_26496" data-name="Grupo 26496" transform="translate(-702 -2703)">
    <circle id="Elipse_891" data-name="Elipse 891" cx="33" cy="33" r="33" transform="translate(702 2703)" fill="#e6d8e8"/>
    <g id="deal" transform="translate(718.151 2715.356)">
      <g id="Grupo_26427" data-name="Grupo 26427" transform="translate(4.889 24.869)">
        <g id="Grupo_26426" data-name="Grupo 26426" transform="translate(0 0)">
          <path id="Trazado_20729" data-name="Trazado 20729" d="M88.618,180.925,77.846,170.153a.978.978,0,0,0-1.385,0l-5.791,5.791-4.558,2.737H62.467a.979.979,0,0,0-.319.058l-5.014-1.88-5.725-5.725a.978.978,0,0,0-1.385,0l-9.793,9.793a.977.977,0,0,0,0,1.385l5.828,5.828,2.388,3.184a2.939,2.939,0,0,0,.024,4.125L50.023,197l2.938,2.938,2.938,2.938,1.552,1.553a2.938,2.938,0,0,0,4.155,0l.861-.861,2.818,2.819a2.938,2.938,0,0,0,4.155,0l.168-.168a2.918,2.918,0,0,0,.843-1.923,2.911,2.911,0,0,0,1.925-.846l.168-.168a2.918,2.918,0,0,0,.843-1.923,2.911,2.911,0,0,0,1.925-.846l.168-.168a2.918,2.918,0,0,0,.843-1.923,2.911,2.911,0,0,0,1.925-.846l.168-.168A2.933,2.933,0,0,0,78.945,194l3.868-5.884,5.8-5.8A.978.978,0,0,0,88.618,180.925Zm-46.311.693,8.408-8.408,4.491,4.491L46.8,186.11Zm7.548,12.444a.98.98,0,0,1,0-1.385L51,191.53a1,1,0,0,1,1.385,0l.167.168a.98.98,0,0,1,0,1.385l-1.84,1.84Zm2.245,2.246,1.84-1.84a1,1,0,0,1,1.385,0l.167.168a.98.98,0,0,1,0,1.385l-1.839,1.84Zm4.491,4.491-1.553-1.553,1.84-1.84a1,1,0,0,1,1.385,0l.167.168a.98.98,0,0,1,0,1.385Zm4.778,1.1-1.148,1.148a1,1,0,0,1-1.385,0l-.861-.861,1.84-1.84a1,1,0,0,1,1.385,0l.167.168A.981.981,0,0,1,61.369,201.9Zm15.668-5.876-.168.168a1,1,0,0,1-1.385,0l-2.532-2.532-1.385,1.385,2.531,2.532a.98.98,0,0,1,0,1.385l-.168.168a1,1,0,0,1-1.385,0L70.012,196.6l-1.385,1.385,2.531,2.532a.98.98,0,0,1,0,1.385l-.168.168a1,1,0,0,1-1.385,0l-2.532-2.532-1.385,1.385,2.531,2.532a.98.98,0,0,1,0,1.385l-.168.168a1,1,0,0,1-1.385,0l-3.141-3.141a2.93,2.93,0,0,0-.777-2.735l-.167-.168a2.907,2.907,0,0,0-1.923-.818,2.918,2.918,0,0,0-.847-1.952l-.167-.168a2.907,2.907,0,0,0-1.923-.818,2.918,2.918,0,0,0-.847-1.952l-.167-.168a2.907,2.907,0,0,0-1.923-.818,2.918,2.918,0,0,0-.847-1.952l-.167-.168a3.007,3.007,0,0,0-3.91-.2l-1.771-2.362,8.747-8.747,3.555,1.333-4.658,4.079c-.006,0-.01.012-.015.017a3.4,3.4,0,0,0-.472.517c-.058.077-.1.161-.153.242a3.407,3.407,0,0,0-.2.357,3.32,3.32,0,0,0-.129.326c-.038.109-.071.218-.1.33a3.151,3.151,0,0,0-.071.359,3.5,3.5,0,0,0-.024.365c0,.087-.022.17-.018.259,0,.027.011.053.013.08a3.447,3.447,0,0,0,.108.675c.016.058.044.111.063.168a3.48,3.48,0,0,0,.209.515c.037.071.083.137.125.206a3.27,3.27,0,0,0,.176.29c.032.043.073.075.108.117.062.075.129.144.2.214a3.389,3.389,0,0,0,.328.3c.048.038.084.086.134.122.067.049.141.084.211.127.033.021.067.042.1.061a3.378,3.378,0,0,0,1.877.438,3.174,3.174,0,0,0,.32-.038c.083-.013.166-.025.25-.044a3.476,3.476,0,0,0,.395-.112c.058-.02.114-.044.17-.067a3.582,3.582,0,0,0,.384-.178c.1-.054.189-.12.283-.183.066-.046.137-.079.2-.129l.043-.034,2.7-2.163,2.618-.873h2.425l5.538,4.61,3.511,3.512A.98.98,0,0,1,77.037,196.021Zm.585-3.57-1.731-1.732,0,0-1.043-1.041-5.876-4.9a.978.978,0,0,0-.627-.227H65.4a.981.981,0,0,0-.309.051l-2.938.979a1,1,0,0,0-.3.164l-2.839,2.272a1.665,1.665,0,0,1-.931.361h-.03a1.5,1.5,0,0,1-.363-.037,1.457,1.457,0,0,1-.147-.033,1.291,1.291,0,0,1-.325-.156,1.637,1.637,0,0,1-.135-.1,1.618,1.618,0,0,1-.135-.122c-.03-.031-.061-.063-.089-.1s-.052-.072-.077-.109a1.511,1.511,0,0,1-.265-.976c0-.023,0-.046,0-.069a1.512,1.512,0,0,1,.142-.481c.01-.021.024-.04.034-.061a1.489,1.489,0,0,1,.325-.417l5.812-5.087h3.549a.977.977,0,0,0,.5-.14l4.24-2.544,9.668,9.668Zm4.431-6.342-9.388-9.388,4.491-4.491,9.387,9.387Z" transform="translate(-39.943 -169.866)" fill="#7d58bd"/>
        </g>
      </g>
      <g id="Grupo_26429" data-name="Grupo 26429" transform="translate(16.001 4.644)">
        <g id="Grupo_26428" data-name="Grupo 26428">
          <path id="Trazado_20730" data-name="Trazado 20730" d="M155.548,6.551a6.525,6.525,0,0,0-9.219,0L144.083,8.8l-2.246-2.246a6.519,6.519,0,1,0-9.219,9.219l10.772,10.772a.979.979,0,0,0,1.385,0L155.548,15.77A6.525,6.525,0,0,0,155.548,6.551Zm-1.385,7.834-10.08,10.08L134,14.385a4.561,4.561,0,0,1,6.45-6.45l2.938,2.938a.978.978,0,0,0,1.385,0l2.938-2.938a4.561,4.561,0,0,1,6.45,6.45Z" transform="translate(-130.712 -4.644)" fill="#7d58bd"/>
        </g>
      </g>
      <g id="Grupo_26431" data-name="Grupo 26431" transform="translate(2.736 19.468)">
        <g id="Grupo_26430" data-name="Grupo 26430" transform="translate(0 0)">
          <path id="Trazado_20731" data-name="Trazado 20731" d="M23.272,125.74c-.325.588-.635,1.195-.92,1.806l1.774.828c.265-.569.554-1.136.858-1.683Z" transform="translate(-22.352 -125.74)" fill="#7d58bd"/>
        </g>
      </g>
      <g id="Grupo_26433" data-name="Grupo 26433" transform="translate(4.698 16.069)">
        <g id="Grupo_26432" data-name="Grupo 26432">
          <path id="Trazado_20732" data-name="Trazado 20732" d="M39.535,97.98c-.4.538-.794,1.1-1.159,1.662l1.644,1.064c.341-.526.705-1.047,1.081-1.549Z" transform="translate(-38.376 -97.98)" fill="#7d58bd"/>
        </g>
      </g>
      <g id="Grupo_26435" data-name="Grupo 26435" transform="translate(0.365 27.009)">
        <g id="Grupo_26434" data-name="Grupo 26434">
          <path id="Trazado_20733" data-name="Trazado 20733" d="M3.375,187.348c-.153.655-.285,1.324-.391,1.99l1.934.309c.1-.621.222-1.245.364-1.856Z" transform="translate(-2.984 -187.348)" fill="#7d58bd"/>
        </g>
      </g>
      <g id="Grupo_26437" data-name="Grupo 26437" transform="translate(1.282 23.139)">
        <g id="Grupo_26436" data-name="Grupo 26436">
          <path id="Trazado_20734" data-name="Trazado 20734" d="M11.133,155.732c-.241.627-.463,1.271-.661,1.915l1.872.574c.184-.6.392-1.2.617-1.787Z" transform="translate(-10.472 -155.732)" fill="#7d58bd"/>
        </g>
      </g>
      <g id="Grupo_26439" data-name="Grupo 26439" transform="translate(3.046 45.866)">
        <g id="Grupo_26438" data-name="Grupo 26438">
          <path id="Trazado_20735" data-name="Trazado 20735" d="M26.635,341.4l-1.755.871c.3.6.622,1.2.963,1.782l1.69-.991C27.215,342.514,26.912,341.955,26.635,341.4Z" transform="translate(-24.88 -341.396)" fill="#7d58bd"/>
        </g>
      </g>
      <g id="Grupo_26441" data-name="Grupo 26441" transform="translate(9.976 10.332)">
        <g id="Grupo_26440" data-name="Grupo 26440">
          <path id="Trazado_20736" data-name="Trazado 20736" d="M83.062,51.108c-.538.411-1.064.843-1.566,1.285l1.295,1.469c.467-.411.959-.815,1.461-1.2Z" transform="translate(-81.496 -51.108)" fill="#7d58bd"/>
        </g>
      </g>
      <g id="Grupo_26443" data-name="Grupo 26443" transform="translate(7.128 13.006)">
        <g id="Grupo_26442" data-name="Grupo 26442">
          <path id="Trazado_20737" data-name="Trazado 20737" d="M59.608,72.956c-.475.478-.938.978-1.376,1.486l1.483,1.28c.409-.473.841-.94,1.284-1.387Z" transform="translate(-58.232 -72.956)" fill="#7d58bd"/>
        </g>
      </g>
      <g id="Grupo_26445" data-name="Grupo 26445" transform="translate(0 31.01)">
        <g id="Grupo_26444" data-name="Grupo 26444" transform="translate(0 0)">
          <path id="Trazado_20738" data-name="Trazado 20738" d="M.113,220.036c-.06.671-.1,1.35-.113,2.021l1.959.042c.014-.626.049-1.26.1-1.889Z" transform="translate(0 -220.036)" fill="#7d58bd"/>
        </g>
      </g>
      <g id="Grupo_26447" data-name="Grupo 26447" transform="translate(0.488 38.718)">
        <g id="Grupo_26446" data-name="Grupo 26446">
          <path id="Trazado_20739" data-name="Trazado 20739" d="M5.91,283l-1.926.355c.121.657.268,1.323.438,1.979l1.9-.49C6.161,284.238,6.023,283.617,5.91,283Z" transform="translate(-3.984 -283.004)" fill="#7d58bd"/>
        </g>
      </g>
      <g id="Grupo_26449" data-name="Grupo 26449" transform="translate(0.025 34.964)">
        <g id="Grupo_26448" data-name="Grupo 26448">
          <path id="Trazado_20740" data-name="Trazado 20740" d="M2.165,252.332l-1.957.089c.03.67.084,1.348.162,2.019l1.946-.224C2.243,253.589,2.193,252.956,2.165,252.332Z" transform="translate(-0.208 -252.332)" fill="#7d58bd"/>
        </g>
      </g>
      <g id="Grupo_26451" data-name="Grupo 26451" transform="translate(1.5 42.375)">
        <g id="Grupo_26450" data-name="Grupo 26450">
          <path id="Trazado_20741" data-name="Trazado 20741" d="M14.114,312.876l-1.858.62c.213.637.45,1.275.708,1.9l1.81-.747C14.534,314.066,14.312,313.47,14.114,312.876Z" transform="translate(-12.256 -312.876)" fill="#7d58bd"/>
        </g>
      </g>
      <g id="Grupo_26453" data-name="Grupo 26453" transform="translate(7.599 52.094)">
        <g id="Grupo_26452" data-name="Grupo 26452">
          <path id="Trazado_20742" data-name="Trazado 20742" d="M63.529,392.268l-1.449,1.316c.454.5.929.99,1.41,1.451l1.356-1.411C64.4,393.192,63.954,392.736,63.529,392.268Z" transform="translate(-62.08 -392.268)" fill="#7d58bd"/>
        </g>
      </g>
      <g id="Grupo_26455" data-name="Grupo 26455" transform="translate(17.362 58.716)">
        <g id="Grupo_26454" data-name="Grupo 26454">
          <path id="Trazado_20743" data-name="Trazado 20743" d="M142.635,446.364l-.8,1.786c.613.275,1.245.534,1.877.765l.675-1.837C143.795,446.862,143.206,446.622,142.635,446.364Z" transform="translate(-141.832 -446.364)" fill="#7d58bd"/>
        </g>
      </g>
      <g id="Grupo_26457" data-name="Grupo 26457" transform="translate(10.517 54.713)">
        <g id="Grupo_26456" data-name="Grupo 26456">
          <path id="Trazado_20744" data-name="Trazado 20744" d="M87.168,413.668l-1.256,1.5c.515.431,1.052.85,1.6,1.246l1.153-1.583C88.152,414.461,87.65,414.07,87.168,413.668Z" transform="translate(-85.912 -413.668)" fill="#7d58bd"/>
        </g>
      </g>
      <g id="Grupo_26459" data-name="Grupo 26459" transform="translate(13.79 56.935)">
        <g id="Grupo_26458" data-name="Grupo 26458">
          <path id="Trazado_20745" data-name="Trazado 20745" d="M113.7,431.82l-1.04,1.658c.572.359,1.162.7,1.754,1.016l.922-1.727C114.78,432.473,114.231,432.155,113.7,431.82Z" transform="translate(-112.656 -431.82)" fill="#7d58bd"/>
        </g>
      </g>
      <g id="Grupo_26461" data-name="Grupo 26461" transform="translate(5.091 49.125)">
        <g id="Grupo_26460" data-name="Grupo 26460">
          <path id="Trazado_20746" data-name="Trazado 20746" d="M43.21,368.02l-1.618,1.1c.38.556.783,1.107,1.2,1.633l1.537-1.215C43.94,369.051,43.563,368.54,43.21,368.02Z" transform="translate(-41.592 -368.02)" fill="#7d58bd"/>
        </g>
      </g>
      <g id="Grupo_26463" data-name="Grupo 26463" transform="translate(45.415 54.763)">
        <g id="Grupo_26462" data-name="Grupo 26462">
          <path id="Trazado_20747" data-name="Trazado 20747" d="M372.493,414.076c-.485.4-.987.793-1.493,1.16l1.148,1.587c.543-.392,1.081-.81,1.6-1.242Z" transform="translate(-371 -414.076)" fill="#7d58bd"/>
        </g>
      </g>
      <g id="Grupo_26465" data-name="Grupo 26465" transform="translate(46.076 10.387)">
        <g id="Grupo_26464" data-name="Grupo 26464">
          <path id="Trazado_20748" data-name="Trazado 20748" d="M377.6,51.556l-1.2,1.551c.5.383.987.788,1.459,1.2l1.3-1.467C378.652,52.4,378.127,51.965,377.6,51.556Z" transform="translate(-376.4 -51.556)" fill="#7d58bd"/>
        </g>
      </g>
      <g id="Grupo_26467" data-name="Grupo 26467" transform="translate(48.32 52.151)">
        <g id="Grupo_26466" data-name="Grupo 26466">
          <path id="Trazado_20749" data-name="Trazado 20749" d="M396.056,392.74c-.428.47-.873.924-1.32,1.351l1.352,1.417c.481-.459.957-.946,1.415-1.448Z" transform="translate(-394.736 -392.74)" fill="#7d58bd"/>
        </g>
      </g>
      <g id="Grupo_26469" data-name="Grupo 26469" transform="translate(50.865 49.191)">
        <g id="Grupo_26468" data-name="Grupo 26468">
          <path id="Trazado_20750" data-name="Trazado 20750" d="M416.652,368.556c-.354.514-.733,1.026-1.124,1.522l1.535,1.216c.42-.53.825-1.078,1.2-1.629Z" transform="translate(-415.528 -368.556)" fill="#7d58bd"/>
        </g>
      </g>
      <g id="Grupo_26471" data-name="Grupo 26471" transform="translate(38.757 58.748)">
        <g id="Grupo_26470" data-name="Grupo 26470">
          <path id="Trazado_20751" data-name="Trazado 20751" d="M318.367,446.628c-.574.256-1.163.494-1.751.708l.67,1.84c.631-.228,1.262-.484,1.878-.759Z" transform="translate(-316.616 -446.628)" fill="#7d58bd"/>
        </g>
      </g>
      <g id="Grupo_26473" data-name="Grupo 26473" transform="translate(42.208 56.976)">
        <g id="Grupo_26472" data-name="Grupo 26472">
          <path id="Trazado_20752" data-name="Trazado 20752" d="M346.445,432.156c-.538.334-1.088.651-1.637.942l.918,1.731c.59-.311,1.18-.652,1.755-1.011Z" transform="translate(-344.808 -432.156)" fill="#7d58bd"/>
        </g>
      </g>
      <g id="Grupo_26475" data-name="Grupo 26475" transform="translate(51.369 16.14)">
        <g id="Grupo_26474" data-name="Grupo 26474">
          <path id="Trazado_20753" data-name="Trazado 20753" d="M421.211,98.556l-1.571,1.17c.374.5.736,1.025,1.078,1.554l1.646-1.062C422,99.654,421.611,99.095,421.211,98.556Z" transform="translate(-419.64 -98.556)" fill="#7d58bd"/>
        </g>
      </g>
      <g id="Grupo_26477" data-name="Grupo 26477" transform="translate(55.001 23.216)">
        <g id="Grupo_26476" data-name="Grupo 26476">
          <path id="Trazado_20754" data-name="Trazado 20754" d="M451.141,156.364l-1.829.7c.222.584.428,1.184.611,1.787l1.874-.57C451.6,157.634,451.38,156.989,451.141,156.364Z" transform="translate(-449.312 -156.364)" fill="#7d58bd"/>
        </g>
      </g>
      <g id="Grupo_26479" data-name="Grupo 26479" transform="translate(53.005 45.935)">
        <g id="Grupo_26478" data-name="Grupo 26478">
          <path id="Trazado_20755" data-name="Trazado 20755" d="M433.912,341.956c-.281.562-.586,1.122-.9,1.66l1.687,1c.341-.578.667-1.177.969-1.78Z" transform="translate(-433.008 -341.956)" fill="#7d58bd"/>
        </g>
      </g>
      <g id="Grupo_26481" data-name="Grupo 26481" transform="translate(53.414 19.544)">
        <g id="Grupo_26480" data-name="Grupo 26480">
          <path id="Trazado_20756" data-name="Trazado 20756" d="M438.061,126.364l-1.717.943c.3.552.591,1.12.854,1.687l1.776-.825C438.693,127.564,438.386,126.955,438.061,126.364Z" transform="translate(-436.344 -126.364)" fill="#7d58bd"/>
        </g>
      </g>
      <g id="Grupo_26483" data-name="Grupo 26483" transform="translate(48.908 13.069)">
        <g id="Grupo_26482" data-name="Grupo 26482">
          <path id="Trazado_20757" data-name="Trazado 20757" d="M400.931,73.468l-1.4,1.375c.44.446.871.915,1.28,1.392l1.487-1.276C401.864,74.448,401.4,73.946,400.931,73.468Z" transform="translate(-399.536 -73.468)" fill="#7d58bd"/>
        </g>
      </g>
      <g id="Grupo_26485" data-name="Grupo 26485" transform="translate(56.686 31.09)">
        <g id="Grupo_26484" data-name="Grupo 26484" transform="translate(0 0)">
          <path id="Trazado_20758" data-name="Trazado 20758" d="M465.031,220.684l-1.951.17c.055.625.088,1.259.1,1.887l1.959-.036C465.126,222.032,465.089,221.352,465.031,220.684Z" transform="translate(-463.08 -220.684)" fill="#7d58bd"/>
        </g>
      </g>
      <g id="Grupo_26487" data-name="Grupo 26487" transform="translate(56.099 27.089)">
        <g id="Grupo_26486" data-name="Grupo 26486" transform="translate(0 0)">
          <path id="Trazado_20759" data-name="Trazado 20759" d="M460.19,188l-1.91.438c.14.61.26,1.235.358,1.856l1.935-.3C460.47,189.327,460.339,188.658,460.19,188Z" transform="translate(-458.28 -188.004)" fill="#7d58bd"/>
        </g>
      </g>
      <g id="Grupo_26489" data-name="Grupo 26489" transform="translate(54.696 42.448)">
        <g id="Grupo_26488" data-name="Grupo 26488">
          <path id="Trazado_20760" data-name="Trazado 20760" d="M447.49,313.468c-.2.593-.425,1.19-.666,1.771l1.809.752c.258-.622.5-1.26.713-1.9Z" transform="translate(-446.824 -313.468)" fill="#7d58bd"/>
        </g>
      </g>
      <g id="Grupo_26491" data-name="Grupo 26491" transform="translate(56.603 35.039)">
        <g id="Grupo_26490" data-name="Grupo 26490">
          <path id="Trazado_20761" data-name="Trazado 20761" d="M462.556,252.948c-.03.629-.083,1.262-.156,1.885l1.945.227c.078-.665.135-1.344.167-2.016Z" transform="translate(-462.4 -252.948)" fill="#7d58bd"/>
        </g>
      </g>
      <g id="Grupo_26493" data-name="Grupo 26493" transform="translate(55.903 38.791)">
        <g id="Grupo_26492" data-name="Grupo 26492">
          <path id="Trazado_20762" data-name="Trazado 20762" d="M457.094,283.6c-.116.615-.255,1.235-.414,1.844l1.9.5c.17-.653.319-1.318.444-1.976Z" transform="translate(-456.68 -283.596)" fill="#7d58bd"/>
        </g>
      </g>
    </g>
  </g>
</svg>
