<svg xmlns="http://www.w3.org/2000/svg" width="76" height="77" viewBox="0 0 76 77">
  <g id="Grupo_26379" data-name="Grupo 26379" transform="translate(-573 -2591)">
    <circle id="Elipse_887" data-name="Elipse 887" cx="33" cy="33" r="33" transform="translate(573 2591)" fill="#e6d8e8"/>
    <path id="think-different" d="M58,49H54a1,1,0,0,1-1-1V44.9A5.009,5.009,0,0,0,57,40V36.16a10.675,10.675,0,0,1,2.359-3.8C61.066,30.282,63,27.928,63,24a10.983,10.983,0,0,0-18.018-8.451,12.972,12.972,0,0,0-8-11.557c.009-.091.022-.18.022-.271A2.725,2.725,0,0,0,34.279,1H29.81a2.991,2.991,0,0,0-2.985,2.7l-.04.4a13.075,13.075,0,0,0-7.767,11.451A10.983,10.983,0,0,0,1,24c0,3.928,1.934,6.282,3.641,8.359A10.675,10.675,0,0,1,7,36.16V40a5.009,5.009,0,0,0,4,4.9V48a3,3,0,0,0,3,3h4a1,1,0,0,1,0,2H6a3,3,0,0,0,0,6h4a1,1,0,0,1,1,1v3h2V60a3,3,0,0,0-3-3H6a1,1,0,0,1,0-2H18a3,3,0,0,0,0-6H14a1,1,0,0,1-1-1V44.9A5.009,5.009,0,0,0,17,40V36.16a10.675,10.675,0,0,1,2.359-3.8c1.484-1.806,3.136-3.824,3.543-6.9.064.081.127.164.19.245A19.8,19.8,0,0,1,26,30.22V36a3,3,0,0,0,2,2.816V39a4,4,0,0,0,3,3.858V44a1,1,0,0,1-1,1H27a4,4,0,1,0,0,8h9a3,3,0,0,1,0,6H34a3,3,0,0,0-3,3v1h2V62a1,1,0,0,1,1-1h2a5,5,0,0,0,0-10H27a2,2,0,1,1,0-4h3a3,3,0,0,0,3-3V42.858A4,4,0,0,0,36,39v-.184A3,3,0,0,0,38,36V30.221A19.822,19.822,0,0,1,40.906,25.7l.19-.245c.407,3.077,2.06,5.095,3.543,6.9A10.675,10.675,0,0,1,47,36.161V40a5.009,5.009,0,0,0,4,4.9V48a3,3,0,0,0,3,3h4a1,1,0,0,1,0,2H46a3,3,0,0,0,0,6h4a1,1,0,0,1,1,1v3h2V60a3,3,0,0,0-3-3H46a1,1,0,0,1,0-2H58a3,3,0,0,0,0-6ZM49,25H48a1,1,0,1,1,1-1Zm4,10H51V27h2Zm2,2v2H49V37ZM29.81,3h4.469A.721.721,0,0,1,35,3.721a.74.74,0,0,1-.037.228L32.613,11h3.721a.667.667,0,0,1,.615.923L32.385,22.878A.207.207,0,0,1,32,22.8V13H28.905a.923.923,0,0,1-.9-.995l.81-8.1a1,1,0,0,1,1-.9ZM9,25H8a1,1,0,1,1,1-1Zm4,10H11V27h2Zm2,2v2H9V37Zm-3,6a3,3,0,0,1-2.816-2h5.631A2.994,2.994,0,0,1,12,43Zm9-19c0,3.211-1.62,5.183-3.186,7.09A14.2,14.2,0,0,0,15.27,35H15V27h1a3,3,0,1,0-3-3v1H11V24a3,3,0,1,0-3,3H9v8H8.73a14.161,14.161,0,0,0-2.544-3.91C4.62,29.183,3,27.211,3,24a8.994,8.994,0,0,1,16.305-5.245,12.669,12.669,0,0,0,1.588,3.887A9.2,9.2,0,0,1,21,24Zm-6,1V24a1,1,0,1,1,1,1Zm21,8H28V31h8Zm-4,8a2,2,0,0,1-2-2h4A2,2,0,0,1,32,41Zm3-4H29a1,1,0,0,1-1-1V35h8v1A1,1,0,0,1,35,37Zm4.332-12.528A23.319,23.319,0,0,0,36.369,29H27.632a23.319,23.319,0,0,0-2.963-4.528C22.782,22.059,21,19.779,21,16a11.077,11.077,0,0,1,5.55-9.555l-.536,5.361a2.782,2.782,0,0,0-.014.289A2.909,2.909,0,0,0,28.905,15H30v7.8a2.2,2.2,0,0,0,4.23.846l4.563-10.953A2.62,2.62,0,0,0,39,11.667,2.669,2.669,0,0,0,36.333,9h-.946l1.026-3.076A10.983,10.983,0,0,1,43,16C43,19.779,41.218,22.059,39.332,24.472ZM43,24a9.041,9.041,0,0,1,.108-1.357A12.681,12.681,0,0,0,44.7,18.754,8.994,8.994,0,0,1,61,24c0,3.211-1.62,5.183-3.186,7.09A14.2,14.2,0,0,0,55.27,35H55V27h1a3,3,0,1,0-3-3v1H51V24a3,3,0,1,0-3,3h1v8h-.27a14.161,14.161,0,0,0-2.544-3.91C44.62,29.183,43,27.211,43,24Zm12,1V24a1,1,0,1,1,1,1ZM49.184,41h5.631a2.982,2.982,0,0,1-5.631,0Z" transform="translate(586 2605)" fill="#7d58bd"/>
  </g>
</svg>
