<svg xmlns="http://www.w3.org/2000/svg" width="75" height="77" viewBox="0 0 75 77">
  <g id="Grupo_26379" data-name="Grupo 26379" transform="translate(-457 -2591)">
    <circle id="Elipse_797" data-name="Elipse 797" cx="33" cy="33" r="33" transform="translate(457 2591)" fill="#e6d8e8"/>
    <g id="budget" transform="translate(469 2605)">
      <path id="Trazado_20686" data-name="Trazado 20686" d="M11,32.855V35h2V32.855a2.844,2.844,0,0,0,.422-5.262l-1.95-.974A.855.855,0,0,1,11.854,25h.292a.855.855,0,0,1,.854.854V26h2v-.146a2.849,2.849,0,0,0-2-2.709V21H11v2.145a2.844,2.844,0,0,0-.422,5.262l1.95.974A.855.855,0,0,1,12.146,31h-.292A.855.855,0,0,1,11,30.146V29H9v1.146A2.849,2.849,0,0,0,11,32.855Z" fill="#7d58bd"/>
      <path id="Trazado_20687" data-name="Trazado 20687" d="M12,39A11.013,11.013,0,0,0,23,28c0-.274-.021-.543-.041-.813l3.392-.566a3.984,3.984,0,0,0,7.493-2.666l7.295-4.169a3.984,3.984,0,0,0,6.294-4.8L58,4.414V10h2V1H51V3h5.586L46.019,13.567A3.947,3.947,0,0,0,44,13a4,4,0,0,0-4,4,3.964,3.964,0,0,0,.156,1.045l-7.3,4.169a3.978,3.978,0,0,0-6.825,2.433l-3.407.568A10.995,10.995,0,1,0,12,39ZM44,15a2,2,0,1,1-2,2A2,2,0,0,1,44,15ZM30,23a2,2,0,1,1-2,2A2,2,0,0,1,30,23ZM12,19a9,9,0,1,1-9,9A9.011,9.011,0,0,1,12,19Z" fill="#7d58bd"/>
      <path id="Trazado_20688" data-name="Trazado 20688" d="M3,63H13V41H3ZM5,43h6V61H5Z" fill="#7d58bd"/>
      <path id="Trazado_20689" data-name="Trazado 20689" d="M15,63H25V43H15Zm2-18h6V61H17Z" fill="#7d58bd"/>
      <path id="Trazado_20690" data-name="Trazado 20690" d="M27,63H37V31H27Zm2-30h6V61H29Z" fill="#7d58bd"/>
      <path id="Trazado_20691" data-name="Trazado 20691" d="M54,47.145V45H52v2.145a2.844,2.844,0,0,0-.422,5.262l1.95.975A.854.854,0,0,1,53.146,55h-.292A.855.855,0,0,1,52,54.146V53H50v1.146a2.847,2.847,0,0,0,2,2.709V59h2V56.855a2.844,2.844,0,0,0,.422-5.262l-1.95-.975A.854.854,0,0,1,52.854,49h.292a.855.855,0,0,1,.854.854V50h2v-.146A2.849,2.849,0,0,0,54,47.145Z" fill="#7d58bd"/>
      <path id="Trazado_20692" data-name="Trazado 20692" d="M61.48,47.281l-3.4-5.434,1.777-6.219A3.633,3.633,0,0,0,56.369,31H53.632a3.621,3.621,0,0,0-3.226,2H49V23H39V63H53A10.011,10.011,0,0,0,63,53v-.419a9.991,9.991,0,0,0-1.52-5.3ZM52,34.632A1.633,1.633,0,0,1,53.631,33h2.737a1.631,1.631,0,0,1,1.569,2.08L56.246,41H49.414l-2.879-2.879A1.829,1.829,0,0,1,47.829,35H50v2h2ZM41,61V25h6v8.1a3.823,3.823,0,0,0-1.878,6.439l2.609,2.609-3.21,5.137A9.983,9.983,0,0,0,43,52.581V53a9.98,9.98,0,0,0,4.026,8Zm20-8a8,8,0,1,1-16,0v-.419a7.982,7.982,0,0,1,1.216-4.239L49.554,43h6.892l3.338,5.342A7.982,7.982,0,0,1,61,52.581Z" fill="#7d58bd"/>
    </g>
  </g>
</svg>
