<svg xmlns="http://www.w3.org/2000/svg" width="77" height="77" viewBox="0 0 77 77">
  <g id="Grupo_26380" data-name="Grupo 26380" transform="translate(-705 -2591)">
    <circle id="Elipse_888" data-name="Elipse 888" cx="33" cy="33" r="33" transform="translate(705 2591)" fill="#e6d8e8"/>
    <g id="target" transform="translate(720 2606)">
      <path id="Trazado_20694" data-name="Trazado 20694" d="M52.8,50.27a3.025,3.025,0,0,0-2.65-.48L43,51.9V43h3a.987.987,0,0,0,.92-.62,1,1,0,0,0-.21-1.09l-7-7a1.008,1.008,0,0,0-1.42,0l-7,7a1,1,0,0,0-.21,1.09A.987.987,0,0,0,32,43h3V54H28.26l-5.4-3H31a3.009,3.009,0,0,0,3-3v-.5a3.015,3.015,0,0,0-2.15-2.88L26,42.9V38h3a.987.987,0,0,0,.92-.62,1,1,0,0,0-.21-1.09l-7-7a1.008,1.008,0,0,0-1.42,0l-7,7a1,1,0,0,0-.21,1.09A.987.987,0,0,0,15,38h3v2.55l-1.72-.51A.863.863,0,0,0,16,40H10V38a1,1,0,0,0-1-1H3a1,1,0,0,0-1,1V60a1,1,0,0,0,1,1H9a1,1,0,0,0,1-1V58.39l10.68,3.56A1.185,1.185,0,0,0,21,62H36a.919.919,0,0,0,.33-.06L52,56.41a3,3,0,0,0,2-2.83v-.91a2.984,2.984,0,0,0-1.2-2.4ZM8,59H4V39H8ZM34.41,41,39,36.41,43.59,41H42a1,1,0,0,0-1,1V52.49l-4,1.17V42a1,1,0,0,0-1-1Zm-17-5L22,31.41,26.59,36H25a1,1,0,0,0-1,1v5.31l-4-1.18V37a1,1,0,0,0-1-1ZM52,53.58a1,1,0,0,1-.67.95L35.83,60H21.16L10,56.28V42h5.86l15.42,4.54a1.008,1.008,0,0,1,.72.96V48a1,1,0,0,1-1,1H19a1,1,0,0,0-.49,1.87l9,5A.947.947,0,0,0,28,56h8a.863.863,0,0,0,.28-.04l14.44-4.25a1,1,0,0,1,1.28.96Z" fill="#7d58bd"/>
      <path id="Trazado_20695" data-name="Trazado 20695" d="M61.707,34.293l-7-7a1,1,0,0,0-1.414,0l-7,7A1,1,0,0,0,47,36h3V46a1,1,0,0,0,1,1h6a1,1,0,0,0,1-1V36h3a1,1,0,0,0,.707-1.707ZM57,34a1,1,0,0,0-1,1V45H52V35a1,1,0,0,0-1-1H49.414L54,29.414,58.586,34Z" fill="#7d58bd"/>
      <path id="Trazado_20696" data-name="Trazado 20696" d="M3,28H6v6a1,1,0,0,0,1,1h6a1,1,0,0,0,1-1V28h3a1,1,0,0,0,.707-1.707l-7-7a1,1,0,0,0-1.414,0l-7,7A1,1,0,0,0,3,28Zm7-6.586L14.586,26H13a1,1,0,0,0-1,1v6H8V27a1,1,0,0,0-1-1H5.414Z" fill="#7d58bd"/>
      <path id="Trazado_20697" data-name="Trazado 20697" d="M37,2A15,15,0,1,0,52,17,15,15,0,0,0,37,2ZM36,29.95A13.008,13.008,0,0,1,24.05,18h2A11.013,11.013,0,0,0,36,27.95Zm0-4.01A9.013,9.013,0,0,1,28.06,18h2.02A7,7,0,0,0,36,23.92Zm0-4.04A5.01,5.01,0,0,1,32.1,18H36ZM36,16H32.1A5.01,5.01,0,0,1,36,12.1Zm0-5.92A7,7,0,0,0,30.08,16H28.06A9.013,9.013,0,0,1,36,8.06Zm0-4.03A11.013,11.013,0,0,0,26.05,16h-2A13.008,13.008,0,0,1,36,4.05Zm2-2A13.008,13.008,0,0,1,49.95,16h-2A11.013,11.013,0,0,0,38,6.05Zm0,4.01A9.013,9.013,0,0,1,45.94,16H43.92A7,7,0,0,0,38,10.08Zm0,4.04A5.01,5.01,0,0,1,41.9,16H38ZM38,18h3.9A5.01,5.01,0,0,1,38,21.9Zm0,5.92A7,7,0,0,0,43.92,18h2.02A9.013,9.013,0,0,1,38,25.94Zm0,6.03v-2A11.013,11.013,0,0,0,47.95,18h2A13.008,13.008,0,0,1,38,29.95Z" fill="#7d58bd"/>
    </g>
  </g>
</svg>
