<svg xmlns="http://www.w3.org/2000/svg" width="75" height="77" viewBox="0 0 75 77">
  <g id="Grupo_26495" data-name="Grupo 26495" transform="translate(-574 -2703)">
    <circle id="Elipse_890" data-name="Elipse 890" cx="33" cy="33" r="33" transform="translate(574 2703)" fill="#e6d8e8"/>
    <g id="engineering" transform="translate(587 2718)">
      <path id="Trazado_20699" data-name="Trazado 20699" d="M2.08,43.608a1,1,0,0,0,.786.9l3.485.752a15.8,15.8,0,0,0,.468,1.752L4.181,49.4a1,1,0,0,0-.231,1.171,20,20,0,0,0,1.6,2.785,1,1,0,0,0,1.129.383l3.387-1.091a16.023,16.023,0,0,0,1.29,1.29l-1.091,3.387a1,1,0,0,0,.383,1.129,20,20,0,0,0,2.785,1.6,1,1,0,0,0,1.171-.231l2.39-2.638a16.1,16.1,0,0,0,1.753.468l.752,3.485a1,1,0,0,0,.9.786c.532.042,1.065.08,1.608.08s1.076-.038,1.608-.08a1,1,0,0,0,.9-.786l.752-3.485a15.816,15.816,0,0,0,1.753-.468l2.39,2.638a1,1,0,0,0,1.171.231,20.1,20.1,0,0,0,2.785-1.6,1,1,0,0,0,.383-1.129l-1.091-3.387a16.175,16.175,0,0,0,1.29-1.289l3.387,1.091a1,1,0,0,0,1.129-.383,20,20,0,0,0,1.6-2.785A1,1,0,0,0,39.82,49.4l-2.638-2.39a16.1,16.1,0,0,0,.468-1.753l3.485-.752a1,1,0,0,0,.786-.9C41.962,43.076,42,42.543,42,42s-.038-1.076-.08-1.608a1,1,0,0,0-.786-.9l-3.485-.752a15.816,15.816,0,0,0-.468-1.753l2.638-2.39a1,1,0,0,0,.231-1.171,20.1,20.1,0,0,0-1.6-2.785,1,1,0,0,0-1.129-.383l-3.387,1.091a16.022,16.022,0,0,0-1.29-1.29l1.091-3.387a1,1,0,0,0-.383-1.129,20,20,0,0,0-2.785-1.6,1,1,0,0,0-1.171.231l-2.39,2.638a16.1,16.1,0,0,0-1.753-.468L24.5,22.865a1,1,0,0,0-.9-.786,20.324,20.324,0,0,0-3.217,0,1,1,0,0,0-.9.786l-.752,3.485a15.8,15.8,0,0,0-1.752.468L14.6,24.18a1,1,0,0,0-1.171-.231,20,20,0,0,0-2.785,1.6,1,1,0,0,0-.383,1.129l1.091,3.387a16.023,16.023,0,0,0-1.29,1.29L6.675,30.26a1,1,0,0,0-1.129.383,20,20,0,0,0-1.6,2.785A1,1,0,0,0,4.181,34.6l2.638,2.39a16.1,16.1,0,0,0-.468,1.753l-3.485.752a1,1,0,0,0-.786.9C2.038,40.924,2,41.457,2,42s.038,1.076.08,1.608Zm1.941-2.317,3.4-.735a1,1,0,0,0,.776-.817,13.941,13.941,0,0,1,.719-2.691,1,1,0,0,0-.264-1.1L6.085,33.625c.224-.429.458-.84.7-1.229l3.3,1.062a1,1,0,0,0,1.081-.318,14.061,14.061,0,0,1,1.978-1.978,1,1,0,0,0,.318-1.081l-1.062-3.3q.583-.365,1.229-.7l2.328,2.57a1,1,0,0,0,1.1.264,13.873,13.873,0,0,1,2.69-.719,1,1,0,0,0,.817-.776l.734-3.4a13.17,13.17,0,0,1,1.419,0l.735,3.4a1,1,0,0,0,.817.776,13.941,13.941,0,0,1,2.691.719,1,1,0,0,0,1.095-.264l2.328-2.569c.429.224.84.458,1.229.7l-1.062,3.3a1,1,0,0,0,.318,1.081,14.06,14.06,0,0,1,1.978,1.978,1,1,0,0,0,1.081.318l3.3-1.062q.365.583.7,1.228l-2.57,2.328a1,1,0,0,0-.264,1.1,13.874,13.874,0,0,1,.719,2.69,1,1,0,0,0,.776.817l3.4.734c.013.235.022.472.022.71s-.008.475-.021.709l-3.4.735a1,1,0,0,0-.776.817,13.941,13.941,0,0,1-.719,2.691,1,1,0,0,0,.264,1.1l2.569,2.328c-.224.429-.458.84-.7,1.229l-3.3-1.062a1,1,0,0,0-1.081.318,14.114,14.114,0,0,1-1.978,1.978,1,1,0,0,0-.318,1.08l1.062,3.3q-.583.365-1.228.7l-2.328-2.57a1,1,0,0,0-1.1-.264,13.874,13.874,0,0,1-2.69.719,1,1,0,0,0-.817.776l-.734,3.4a13.169,13.169,0,0,1-1.419,0l-.735-3.4a1,1,0,0,0-.817-.776,13.941,13.941,0,0,1-2.691-.719,1,1,0,0,0-1.1.264l-2.328,2.569c-.429-.224-.84-.458-1.229-.7l1.062-3.3a1,1,0,0,0-.318-1.081,14.06,14.06,0,0,1-1.978-1.978,1,1,0,0,0-1.081-.318L6.786,51.6q-.365-.583-.7-1.229l2.57-2.328a1,1,0,0,0,.264-1.1,13.873,13.873,0,0,1-.719-2.69,1,1,0,0,0-.776-.817l-3.4-.732C4.009,42.475,4,42.238,4,42S4.008,41.525,4.021,41.291Z" fill="#7d58bd"/>
      <path id="Trazado_20700" data-name="Trazado 20700" d="M54.219,16.235a1,1,0,0,0,.693-.839A11.761,11.761,0,0,0,55,14a11.963,11.963,0,0,0-.087-1.4,1,1,0,0,0-.693-.839l-2.773-.871q-.125-.341-.276-.668l1.344-2.575a1,1,0,0,0-.1-1.083,12.107,12.107,0,0,0-1.979-1.979,1,1,0,0,0-1.083-.1L46.774,5.83q-.327-.15-.668-.275l-.871-2.773a1,1,0,0,0-.839-.693,11.062,11.062,0,0,0-2.793,0,1,1,0,0,0-.839.693l-.871,2.773q-.341.125-.668.276L36.65,4.487a1,1,0,0,0-1.083.1,12.108,12.108,0,0,0-1.979,1.979,1,1,0,0,0-.1,1.083l1.343,2.575q-.15.327-.275.668l-2.773.871a1,1,0,0,0-.693.839,11.244,11.244,0,0,0,0,2.792,1,1,0,0,0,.693.839l2.773.871q.125.34.276.668l-1.344,2.575a1,1,0,0,0,.1,1.083,12.107,12.107,0,0,0,1.979,1.979,1,1,0,0,0,1.083.1l2.575-1.343q.327.15.668.275l.871,2.773a1,1,0,0,0,.839.693A11.819,11.819,0,0,0,43,26a11.964,11.964,0,0,0,1.4-.087,1,1,0,0,0,.839-.693l.871-2.773q.341-.125.668-.276l2.575,1.344a1,1,0,0,0,1.083-.1,12.108,12.108,0,0,0,1.979-1.979,1,1,0,0,0,.1-1.083L51.17,17.776q.152-.327.276-.668Zm-3.86-.884a1,1,0,0,0-.658.667,7.044,7.044,0,0,1-.534,1.294,1,1,0,0,0-.006.936L50.43,20.68a10.205,10.205,0,0,1-.75.75l-2.432-1.269a1,1,0,0,0-.936.006,7.043,7.043,0,0,1-1.294.534,1,1,0,0,0-.667.658l-.824,2.624a8.425,8.425,0,0,1-1.054,0l-.824-2.624a1,1,0,0,0-.667-.658,6.949,6.949,0,0,1-1.293-.534,1,1,0,0,0-.937-.006L36.32,21.43a10.206,10.206,0,0,1-.75-.75l1.269-2.432a1,1,0,0,0-.006-.936,7.044,7.044,0,0,1-.534-1.294,1,1,0,0,0-.658-.667l-2.624-.824C33,14.344,33,14.169,33,14s.005-.344.017-.527l2.624-.824a1,1,0,0,0,.658-.667,6.949,6.949,0,0,1,.534-1.293,1,1,0,0,0,.006-.937L35.57,7.32a10.205,10.205,0,0,1,.75-.75l2.432,1.269a1,1,0,0,0,.936-.006A7.043,7.043,0,0,1,40.982,7.3a1,1,0,0,0,.667-.658l.824-2.624a8.424,8.424,0,0,1,1.054,0l.824,2.624a1,1,0,0,0,.667.658,6.949,6.949,0,0,1,1.293.534,1,1,0,0,0,.937.006L49.68,6.57a10.205,10.205,0,0,1,.75.75L49.161,9.752a1,1,0,0,0,.006.936,7.044,7.044,0,0,1,.534,1.294,1,1,0,0,0,.658.667l2.624.824c.012.183.017.358.017.527s-.005.344-.017.527Z" fill="#7d58bd"/>
      <path id="Trazado_20701" data-name="Trazado 20701" d="M61.262,34.964l-1.718-.61a8.1,8.1,0,0,0-.337-.817l.781-1.645a1,1,0,0,0-.116-1.044,10.064,10.064,0,0,0-1.719-1.72,1,1,0,0,0-1.045-.116l-1.646.781a7.987,7.987,0,0,0-.816-.336l-.611-1.718a1,1,0,0,0-.822-.658,9.215,9.215,0,0,0-2.427,0,1,1,0,0,0-.822.658l-.61,1.718a8.1,8.1,0,0,0-.817.337l-1.645-.781a1,1,0,0,0-1.044.116,10.064,10.064,0,0,0-1.72,1.719,1,1,0,0,0-.116,1.045l.781,1.646a7.987,7.987,0,0,0-.336.816l-1.718.611a1,1,0,0,0-.658.822A9.8,9.8,0,0,0,42,37a10.023,10.023,0,0,0,.08,1.213,1,1,0,0,0,.658.822l1.718.61a8.1,8.1,0,0,0,.337.817l-.781,1.645a1,1,0,0,0,.116,1.044,10.064,10.064,0,0,0,1.719,1.72,1,1,0,0,0,1.045.116l1.646-.781a7.987,7.987,0,0,0,.816.336l.611,1.718a1,1,0,0,0,.822.658A9.658,9.658,0,0,0,52,47a10.023,10.023,0,0,0,1.213-.08,1,1,0,0,0,.822-.658l.61-1.718a8.1,8.1,0,0,0,.817-.337l1.645.781a.994.994,0,0,0,1.044-.116,10.064,10.064,0,0,0,1.72-1.719,1,1,0,0,0,.116-1.045l-.781-1.646a7.987,7.987,0,0,0,.336-.816l1.718-.611a1,1,0,0,0,.658-.822A9.658,9.658,0,0,0,62,37a10.023,10.023,0,0,0-.08-1.213,1,1,0,0,0-.658-.823Zm-1.272,2.4-1.585.563a1,1,0,0,0-.629.675,5.95,5.95,0,0,1-.555,1.347,1,1,0,0,0-.033.921l.718,1.513q-.249.273-.521.521l-1.513-.718a1,1,0,0,0-.921.033,5.954,5.954,0,0,1-1.346.555,1,1,0,0,0-.676.629l-.563,1.585a6.837,6.837,0,0,1-.73,0L51.073,43.4a1,1,0,0,0-.675-.629,5.95,5.95,0,0,1-1.347-.555,1.008,1.008,0,0,0-.921-.033l-1.513.718q-.273-.249-.521-.521l.718-1.513a1,1,0,0,0-.033-.921,5.954,5.954,0,0,1-.555-1.346,1,1,0,0,0-.629-.676l-1.585-.563C44,37.244,44,37.123,44,37s0-.245.01-.365l1.585-.564a1,1,0,0,0,.628-.675,5.98,5.98,0,0,1,.556-1.347,1,1,0,0,0,.033-.921l-.718-1.513q.249-.273.521-.521l1.513.718a1,1,0,0,0,.921-.033,5.954,5.954,0,0,1,1.346-.555,1,1,0,0,0,.676-.629l.563-1.585a6.837,6.837,0,0,1,.73,0l.563,1.585a1,1,0,0,0,.675.629,5.95,5.95,0,0,1,1.347.555,1,1,0,0,0,.921.033l1.513-.718q.273.249.521.521l-.718,1.513a1,1,0,0,0,.033.921,5.954,5.954,0,0,1,.555,1.346,1,1,0,0,0,.629.676l1.585.563c.008.122.012.243.012.366s0,.244-.01.365Z" fill="#7d58bd"/>
      <path id="Trazado_20702" data-name="Trazado 20702" d="M22,53A11,11,0,1,0,11,42,11.013,11.013,0,0,0,22,53Zm0-20a9,9,0,1,1-9,9A9.011,9.011,0,0,1,22,33Z" fill="#7d58bd"/>
      <path id="Trazado_20703" data-name="Trazado 20703" d="M2.022,25.359,3.558,26.64A23.951,23.951,0,0,1,22,18c.509,0,1.017.029,1.525.061l-1.232,1.232,1.414,1.414,3-3a1,1,0,0,0,0-1.414l-3-3-1.414,1.414,1.359,1.359C23.1,16.031,22.551,16,22,16A25.947,25.947,0,0,0,2.022,25.359Z" fill="#7d58bd"/>
      <path id="Trazado_20704" data-name="Trazado 20704" d="M43,9a5,5,0,1,0,5,5A5.006,5.006,0,0,0,43,9Zm0,8a3,3,0,1,1,3-3A3,3,0,0,1,43,17Z" fill="#7d58bd"/>
      <path id="Trazado_20705" data-name="Trazado 20705" d="M52,33a4,4,0,1,0,4,4A4,4,0,0,0,52,33Zm0,6a2,2,0,1,1,2-2A2,2,0,0,1,52,39Z" fill="#7d58bd"/>
      <path id="Trazado_20706" data-name="Trazado 20706" d="M61.2,5.02l-5-1a1,1,0,0,0-1.177.784l-1,5,1.961.393L56.519,7.5A15,15,0,0,1,58,14a14.84,14.84,0,0,1-3.29,9.375l1.561,1.251A17.013,17.013,0,0,0,58.244,6.469l2.56.512Z" fill="#7d58bd"/>
    </g>
  </g>
</svg>
