<svg xmlns="http://www.w3.org/2000/svg" width="74.437" height="77.489" viewBox="0 0 74.437 77.489">
  <g id="Grupo_26498" data-name="Grupo 26498" transform="translate(-581 -2835)">
    <circle id="Elipse_893" data-name="Elipse 893" cx="33" cy="33" r="33" transform="translate(581 2835)" fill="#e6d8e8"/>
    <g id="promotion_3_" data-name="promotion (3)" transform="translate(590.118 2850.68)">
      <path id="Trazado_20776" data-name="Trazado 20776" d="M123.877,291.955a1.276,1.276,0,1,0-1.743-.467A1.276,1.276,0,0,0,123.877,291.955Zm0,0" transform="translate(-106.404 -252.632)" fill="#7d58bd"/>
      <path id="Trazado_20777" data-name="Trazado 20777" d="M12.245,67.632,18.67,78.76a5.1,5.1,0,1,0,8.839-5.1l-3.827-6.63L27,65.114a1.276,1.276,0,0,0,.467-1.743L25.8,60.5l24.436-4.793a3.827,3.827,0,0,0,3.1-5.734L49.1,42.627l2.709-4.1a1.276,1.276,0,0,0,.04-1.341L49.3,32.763a1.278,1.278,0,0,0-1.182-.635l-4.908.295L38.5,24.269a3.794,3.794,0,0,0-3.267-1.913h-.049a3.794,3.794,0,0,0-3.222,1.765L15.3,45.351,4.466,51.606a8.93,8.93,0,0,0,7.78,16.026Zm13.054,7.3a2.552,2.552,0,0,1-4.42,2.551L14.5,66.435l4.419-2.552L25.3,74.934ZM22.405,64.818l-1.276-2.21,2.21-1.276,1.276,2.21Zm25.079-30.1,1.763,3.054-1.572,2.381-3.039-5.264ZM34.1,25.519a1.275,1.275,0,0,1,2.194.025l14.839,25.7a1.275,1.275,0,0,1-1.073,1.913,4.685,4.685,0,0,0-.7.119l-15.7-27.187c.329-.424.372-.464.437-.572Zm-2.135,2.734L46.712,53.8,24.455,58.162,17.688,46.441ZM3.406,62.529a6.374,6.374,0,0,1,2.335-8.714l9.943-5.741,6.379,11.048L12.12,64.864a6.387,6.387,0,0,1-8.714-2.335Zm0,0" transform="translate(0 -19.503)" fill="#7d58bd"/>
      <path id="Trazado_20778" data-name="Trazado 20778" d="M50.758,310.211a1.276,1.276,0,0,0-1.743-.467l-2.21,1.276a1.277,1.277,0,0,1-1.743-.467,1.276,1.276,0,0,0-2.21,1.276,3.832,3.832,0,0,0,5.228,1.4l2.21-1.276a1.276,1.276,0,0,0,.467-1.743Zm0,0" transform="translate(-37.237 -270.078)" fill="#7d58bd"/>
      <path id="Trazado_20779" data-name="Trazado 20779" d="M444.039,42.642,436.931,46.6a1.276,1.276,0,0,0,1.241,2.23l7.108-3.956a1.276,1.276,0,0,0-1.24-2.23Zm0,0" transform="translate(-380.617 -37.061)" fill="#7d58bd"/>
      <path id="Trazado_20780" data-name="Trazado 20780" d="M446.6,137.985l-4.929-1.321a1.276,1.276,0,1,0-.66,2.464l4.93,1.321a1.276,1.276,0,1,0,.66-2.464Zm0,0" transform="translate(-383.922 -119.191)" fill="#7d58bd"/>
      <path id="Trazado_20781" data-name="Trazado 20781" d="M384.858.946l-1.322,4.93A1.276,1.276,0,0,0,386,6.537l1.322-4.93a1.276,1.276,0,1,0-2.464-.661Zm0,0" transform="translate(-334.568 0)" fill="#7d58bd"/>
    </g>
  </g>
</svg>
