<svg xmlns="http://www.w3.org/2000/svg" width="75.07" height="76.798" viewBox="0 0 75.07 76.798">
  <g id="Grupo_26497" data-name="Grupo 26497" transform="translate(-457 -2835)">
    <circle id="Elipse_892" data-name="Elipse 892" cx="33" cy="33" r="33" transform="translate(457 2835)" fill="#e6d8e8"/>
    <g id="attraction" transform="translate(465.175 2818.188)">
      <path id="Trazado_20763" data-name="Trazado 20763" d="M420.1,46.357a5.1,5.1,0,1,0-5.1-5.1A5.1,5.1,0,0,0,420.1,46.357Zm0-8.231a3.136,3.136,0,1,1-3.136,3.136A3.139,3.139,0,0,1,420.1,38.126Z" transform="translate(-360.779 0)" fill="#7d58bd"/>
      <path id="Trazado_20764" data-name="Trazado 20764" d="M403.793,124.5h-.062a7.49,7.49,0,0,0-7.482,7.482v.585a3.348,3.348,0,0,0,3.344,3.344h8.337a3.477,3.477,0,0,0,3.442-3.419v-.523A7.533,7.533,0,0,0,403.793,124.5Zm5.62,7.992a1.529,1.529,0,0,1-1.482,1.459h-8.337a1.386,1.386,0,0,1-1.384-1.384v-.585a5.528,5.528,0,0,1,5.522-5.522h.062a5.572,5.572,0,0,1,5.62,5.509Z" transform="translate(-344.477 -76.792)" fill="#7d58bd"/>
      <path id="Trazado_20765" data-name="Trazado 20765" d="M425.191,305.261a5.1,5.1,0,1,0-5.1,5.1A5.1,5.1,0,0,0,425.191,305.261Zm-8.231,0A3.136,3.136,0,1,1,420.1,308.4,3.139,3.139,0,0,1,416.96,305.261Z" transform="translate(-360.779 -229.507)" fill="#7d58bd"/>
      <path id="Trazado_20766" data-name="Trazado 20766" d="M403.793,388.5h-.062a7.49,7.49,0,0,0-7.482,7.482v.585a3.348,3.348,0,0,0,3.344,3.344h8.337a3.477,3.477,0,0,0,3.442-3.419v-.523A7.533,7.533,0,0,0,403.793,388.5Zm5.62,7.992a1.529,1.529,0,0,1-1.482,1.459h-8.337a1.386,1.386,0,0,1-1.384-1.384v-.585a5.528,5.528,0,0,1,5.522-5.522h.062a5.572,5.572,0,0,1,5.62,5.509Z" transform="translate(-344.477 -306.299)" fill="#7d58bd"/>
      <path id="Trazado_20767" data-name="Trazado 20767" d="M37.824,66.5H24.759A24.786,24.786,0,0,0,0,91.255s0,0,0,0v0s0,.007,0,.01a24.651,24.651,0,0,0,8.843,18.816.98.98,0,0,0,1.265-1.5A22.727,22.727,0,0,1,1.983,92.239H13.107a11.709,11.709,0,0,0,11.652,10.714h4.116v11.106h-3.91a22.965,22.965,0,0,1-11.224-2.946.98.98,0,1,0-.96,1.708,24.927,24.927,0,0,0,12.184,3.2h12.86a.98.98,0,0,0,.98-.98V101.973a.98.98,0,0,0-.98-.98H24.759a9.734,9.734,0,0,1-7.2-16.287.98.98,0,0,0-1.449-1.32,11.658,11.658,0,0,0-3,6.893H1.982A22.826,22.826,0,0,1,24.759,68.46h4.116V79.565H24.759a11.62,11.62,0,0,0-4.552.919.98.98,0,0,0,.764,1.8,9.672,9.672,0,0,1,3.788-.765H37.824a.98.98,0,0,0,.98-.98V67.48A.98.98,0,0,0,37.824,66.5Zm-.98,47.558h-6.01V102.952h6.01Zm0-34.493h-6.01V68.46h6.01Z" transform="translate(0 -26.371)" fill="#7d58bd"/>
      <path id="Trazado_20768" data-name="Trazado 20768" d="M311.98,68.46h7.055a.98.98,0,0,0,0-1.96H311.98a.98.98,0,1,0,0,1.96Z" transform="translate(-270.367 -26.371)" fill="#7d58bd"/>
      <path id="Trazado_20769" data-name="Trazado 20769" d="M313,167.48a.98.98,0,0,0,.98.98h5.487a.98.98,0,0,0,0-1.96H313.98A.98.98,0,0,0,313,167.48Z" transform="translate(-272.105 -113.305)" fill="#7d58bd"/>
      <path id="Trazado_20770" data-name="Trazado 20770" d="M368.5,117.48a.98.98,0,0,0,.98.98h2.809a.98.98,0,0,0,0-1.96H369.48A.98.98,0,0,0,368.5,117.48Z" transform="translate(-320.354 -69.838)" fill="#7d58bd"/>
      <path id="Trazado_20771" data-name="Trazado 20771" d="M320.528,118.46a.98.98,0,0,0,0-1.96H317.98a.98.98,0,1,0,0,1.96Z" transform="translate(-275.583 -69.838)" fill="#7d58bd"/>
      <path id="Trazado_20772" data-name="Trazado 20772" d="M319.035,430.5H311.98a.98.98,0,0,0,0,1.96h7.055a.98.98,0,0,0,0-1.96Z" transform="translate(-270.367 -342.813)" fill="#7d58bd"/>
      <path id="Trazado_20773" data-name="Trazado 20773" d="M320.447,331.48a.98.98,0,0,0-.98-.98H313.98a.98.98,0,0,0,0,1.96h5.487A.98.98,0,0,0,320.447,331.48Z" transform="translate(-272.105 -255.878)" fill="#7d58bd"/>
      <path id="Trazado_20774" data-name="Trazado 20774" d="M359.48,382.46H363.6a.98.98,0,0,0,0-1.96H359.48a.98.98,0,0,0,0,1.96Z" transform="translate(-311.661 -299.345)" fill="#7d58bd"/>
      <path id="Trazado_20775" data-name="Trazado 20775" d="M317.98,380.5a.98.98,0,0,0,0,1.96h1.241a.98.98,0,0,0,0-1.96Z" transform="translate(-275.583 -299.345)" fill="#7d58bd"/>
    </g>
  </g>
</svg>
