<svg xmlns="http://www.w3.org/2000/svg" width="75" height="77" viewBox="0 0 75 77">
  <g id="Grupo_26494" data-name="Grupo 26494" transform="translate(-457 -2703)">
    <circle id="Elipse_889" data-name="Elipse 889" cx="33" cy="33" r="33" transform="translate(457 2703)" fill="#e6d8e8"/>
    <g id="network" transform="translate(474.354 2722.354)">
      <g id="Grupo_26383" data-name="Grupo 26383" transform="translate(17.294)">
        <g id="Grupo_26382" data-name="Grupo 26382">
          <path id="Trazado_20707" data-name="Trazado 20707" d="M160.051,11.69a6.725,6.725,0,1,0-9.043,0A8.658,8.658,0,0,0,144,20.176v3.843a.961.961,0,0,0,.961.961H166.1a.961.961,0,0,0,.961-.961V20.176A8.658,8.658,0,0,0,160.051,11.69Zm-9.325-4.964a4.8,4.8,0,1,1,4.8,4.8A4.809,4.809,0,0,1,150.725,6.725Zm14.412,16.333H145.922V20.176a6.733,6.733,0,0,1,6.725-6.725h5.765a6.733,6.733,0,0,1,6.725,6.725Z" transform="translate(-144)" fill="#7d58bd"/>
        </g>
      </g>
      <g id="Grupo_26385" data-name="Grupo 26385" transform="translate(0 32.666)">
        <g id="Grupo_26384" data-name="Grupo 26384">
          <path id="Trazado_20708" data-name="Trazado 20708" d="M16.051,283.69a6.725,6.725,0,1,0-9.043,0A8.658,8.658,0,0,0,0,292.176v3.843a.96.96,0,0,0,.961.961H22.1a.96.96,0,0,0,.961-.961v-3.843A8.658,8.658,0,0,0,16.051,283.69Zm-9.325-4.964a4.8,4.8,0,1,1,4.8,4.8A4.809,4.809,0,0,1,6.725,278.725Zm14.412,16.333H1.922v-2.882a6.733,6.733,0,0,1,6.725-6.725h5.765a6.733,6.733,0,0,1,6.725,6.725Z" transform="translate(0 -272)" fill="#7d58bd"/>
        </g>
      </g>
      <g id="Grupo_26387" data-name="Grupo 26387" transform="translate(34.588 32.666)">
        <g id="Grupo_26386" data-name="Grupo 26386">
          <path id="Trazado_20709" data-name="Trazado 20709" d="M304.051,283.69a6.725,6.725,0,1,0-9.043,0A8.658,8.658,0,0,0,288,292.176v3.843a.961.961,0,0,0,.961.961H310.1a.96.96,0,0,0,.961-.961v-3.843A8.658,8.658,0,0,0,304.051,283.69Zm-9.325-4.964a4.8,4.8,0,1,1,4.8,4.8A4.809,4.809,0,0,1,294.725,278.725Zm14.412,16.333H289.922v-2.882a6.733,6.733,0,0,1,6.725-6.725h5.765a6.733,6.733,0,0,1,6.725,6.725Z" transform="translate(-288 -272)" fill="#7d58bd"/>
        </g>
      </g>
      <g id="Grupo_26389" data-name="Grupo 26389" transform="translate(3.863 30.714)">
        <g id="Grupo_26388" data-name="Grupo 26388">
          <path id="Trazado_20710" data-name="Trazado 20710" d="M34.088,255.744l-1.92.075c.026.662.079,1.333.158,1.992l1.908-.229C34.161,256.974,34.112,256.355,34.088,255.744Z" transform="translate(-32.168 -255.744)" fill="#7d58bd"/>
        </g>
      </g>
      <g id="Grupo_26391" data-name="Grupo 26391" transform="translate(3.863 26.803)">
        <g id="Grupo_26390" data-name="Grupo 26390">
          <path id="Trazado_20711" data-name="Trazado 20711" d="M32.325,223.176c-.078.655-.132,1.325-.157,1.991l1.92.075c.024-.615.073-1.233.145-1.839Z" transform="translate(-32.168 -223.176)" fill="#7d58bd"/>
        </g>
      </g>
      <g id="Grupo_26393" data-name="Grupo 26393" transform="translate(12.14 9.913)">
        <g id="Grupo_26392" data-name="Grupo 26392">
          <path id="Trazado_20712" data-name="Trazado 20712" d="M102.628,82.544c-.526.4-1.043.829-1.54,1.275l1.285,1.43c.457-.411.935-.807,1.42-1.176Z" transform="translate(-101.088 -82.544)" fill="#7d58bd"/>
        </g>
      </g>
      <g id="Grupo_26395" data-name="Grupo 26395" transform="translate(5.435 19.148)">
        <g id="Grupo_26394" data-name="Grupo 26394">
          <path id="Trazado_20713" data-name="Trazado 20713" d="M46.034,159.44c-.282.6-.544,1.219-.778,1.843l1.8.675c.216-.575.457-1.145.718-1.7Z" transform="translate(-45.256 -159.44)" fill="#7d58bd"/>
        </g>
      </g>
      <g id="Grupo_26397" data-name="Grupo 26397" transform="translate(4.334 22.889)">
        <g id="Grupo_26396" data-name="Grupo 26396">
          <path id="Trazado_20714" data-name="Trazado 20714" d="M36.561,190.584c-.183.635-.341,1.289-.473,1.941l1.884.38c.121-.6.267-1.2.436-1.791Z" transform="translate(-36.088 -190.584)" fill="#7d58bd"/>
        </g>
      </g>
      <g id="Grupo_26399" data-name="Grupo 26399" transform="translate(9.393 12.583)">
        <g id="Grupo_26398" data-name="Grupo 26398">
          <path id="Trazado_20715" data-name="Trazado 20715" d="M79.525,104.776c-.46.484-.9.989-1.317,1.5l1.494,1.209c.382-.473.792-.94,1.216-1.386Z" transform="translate(-78.208 -104.776)" fill="#7d58bd"/>
        </g>
      </g>
      <g id="Grupo_26401" data-name="Grupo 26401" transform="translate(15.314 7.754)">
        <g id="Grupo_26400" data-name="Grupo 26400">
          <path id="Trazado_20716" data-name="Trazado 20716" d="M129.236,64.568c-.581.31-1.161.651-1.724,1.014l1.041,1.616c.519-.335,1.053-.649,1.587-.935Z" transform="translate(-127.512 -64.568)" fill="#7d58bd"/>
        </g>
      </g>
      <g id="Grupo_26403" data-name="Grupo 26403" transform="translate(7.137 15.685)">
        <g id="Grupo_26402" data-name="Grupo 26402">
          <path id="Trazado_20717" data-name="Trazado 20717" d="M60.487,130.6c-.376.549-.733,1.117-1.063,1.693l1.667.955c.3-.53.634-1.056.981-1.561Z" transform="translate(-59.424 -130.6)" fill="#7d58bd"/>
        </g>
      </g>
      <g id="Grupo_26405" data-name="Grupo 26405" transform="translate(23.892 52.393)">
        <g id="Grupo_26404" data-name="Grupo 26404">
          <path id="Trazado_20718" data-name="Trazado 20718" d="M199.315,436.256l-.38,1.884c.647.131,1.311.235,1.975.313l.223-1.908C200.524,436.473,199.911,436.376,199.315,436.256Z" transform="translate(-198.936 -436.256)" fill="#7d58bd"/>
        </g>
      </g>
      <g id="Grupo_26407" data-name="Grupo 26407" transform="translate(31.614 52.381)">
        <g id="Grupo_26406" data-name="Grupo 26406">
          <path id="Trazado_20719" data-name="Trazado 20719" d="M265.062,436.16c-.6.121-1.209.22-1.822.295l.232,1.908c.663-.081,1.326-.188,1.971-.319Z" transform="translate(-263.24 -436.16)" fill="#7d58bd"/>
        </g>
      </g>
      <g id="Grupo_26409" data-name="Grupo 26409" transform="translate(27.857 52.823)">
        <g id="Grupo_26408" data-name="Grupo 26408">
          <path id="Trazado_20720" data-name="Trazado 20720" d="M233.873,439.84c-.614.024-1.235.027-1.845,0l-.076,1.92c.32.013.643.019.969.019.344,0,.687-.009,1.028-.022Z" transform="translate(-231.952 -439.84)" fill="#7d58bd"/>
        </g>
      </g>
      <g id="Grupo_26411" data-name="Grupo 26411" transform="translate(44.226 11.196)">
        <g id="Grupo_26410" data-name="Grupo 26410">
          <path id="Trazado_20721" data-name="Trazado 20721" d="M369.54,93.224l-1.284,1.43c.457.411.9.844,1.321,1.286l1.4-1.321C370.517,94.138,370.035,93.669,369.54,93.224Z" transform="translate(-368.256 -93.224)" fill="#7d58bd"/>
        </g>
      </g>
      <g id="Grupo_26413" data-name="Grupo 26413" transform="translate(46.764 14.09)">
        <g id="Grupo_26412" data-name="Grupo 26412">
          <path id="Trazado_20722" data-name="Trazado 20722" d="M390.878,117.32l-1.494,1.209c.383.474.754.972,1.1,1.48l1.584-1.087C391.694,118.373,391.293,117.834,390.878,117.32Z" transform="translate(-389.384 -117.32)" fill="#7d58bd"/>
        </g>
      </g>
      <g id="Grupo_26415" data-name="Grupo 26415" transform="translate(51.864 28.796)">
        <g id="Grupo_26414" data-name="Grupo 26414">
          <path id="Trazado_20723" data-name="Trazado 20723" d="M433.768,239.776l-1.92.075c.012.3.018.608.018.913s-.006.623-.018.933l1.92.075q.02-.5.02-1.01C433.788,240.432,433.781,240.1,433.768,239.776Z" transform="translate(-431.848 -239.776)" fill="#7d58bd"/>
        </g>
      </g>
      <g id="Grupo_26417" data-name="Grupo 26417" transform="translate(48.846 17.382)">
        <g id="Grupo_26416" data-name="Grupo 26416">
          <path id="Trazado_20724" data-name="Trazado 20724" d="M408.388,144.736l-1.668.956c.3.531.591,1.082.852,1.635l1.738-.82C409.028,145.907,408.717,145.311,408.388,144.736Z" transform="translate(-406.72 -144.736)" fill="#7d58bd"/>
        </g>
      </g>
      <g id="Grupo_26419" data-name="Grupo 26419" transform="translate(50.415 20.995)">
        <g id="Grupo_26418" data-name="Grupo 26418">
          <path id="Trazado_20725" data-name="Trazado 20725" d="M421.583,174.816l-1.8.676c.215.573.409,1.162.578,1.75l1.848-.529C422.027,176.075,421.816,175.437,421.583,174.816Z" transform="translate(-419.784 -174.816)" fill="#7d58bd"/>
        </g>
      </g>
      <g id="Grupo_26421" data-name="Grupo 26421" transform="translate(51.428 24.833)">
        <g id="Grupo_26420" data-name="Grupo 26420">
          <path id="Trazado_20726" data-name="Trazado 20726" d="M430.107,206.776l-1.883.379c.121.6.219,1.214.29,1.822l1.908-.227C430.344,208.092,430.239,207.428,430.107,206.776Z" transform="translate(-428.224 -206.776)" fill="#7d58bd"/>
        </g>
      </g>
      <g id="Grupo_26423" data-name="Grupo 26423" transform="translate(41.298 8.772)">
        <g id="Grupo_26422" data-name="Grupo 26422">
          <path id="Trazado_20727" data-name="Trazado 20727" d="M344.913,73.04l-1.041,1.616c.513.331,1.02.687,1.509,1.061l1.166-1.529C346.018,73.784,345.469,73.4,344.913,73.04Z" transform="translate(-343.872 -73.04)" fill="#7d58bd"/>
        </g>
      </g>
      <g id="Grupo_26425" data-name="Grupo 26425" transform="translate(38.05 6.885)">
        <g id="Grupo_26424" data-name="Grupo 26424">
          <path id="Trazado_20728" data-name="Trazado 20728" d="M317.594,57.328l-.77,1.76c.56.245,1.117.516,1.658.806l.909-1.693C318.806,57.886,318.2,57.592,317.594,57.328Z" transform="translate(-316.824 -57.328)" fill="#7d58bd"/>
        </g>
      </g>
    </g>
  </g>
</svg>
